<?xml version="1.0" encoding="UTF-8" standalone="no"?>
<svg
   xmlns:dc="http://purl.org/dc/elements/1.1/"
   xmlns:cc="http://creativecommons.org/ns#"
   xmlns:rdf="http://www.w3.org/1999/02/22-rdf-syntax-ns#"
   xmlns:svg="http://www.w3.org/2000/svg"
   xmlns="http://www.w3.org/2000/svg"
   xmlns:sodipodi="http://sodipodi.sourceforge.net/DTD/sodipodi-0.dtd"
   xmlns:inkscape="http://www.inkscape.org/namespaces/inkscape"
   width="765.8823529411766mm"
   height="765.8823529411766mm"
   viewbox="0 0 76.58823529411765 76.58823529411765"
   version="1.1"
   id="svg6691"
   sodipodi:docname="N17.svg"
   inkscape:version="0.92.2 5c3e80d, 2017-08-06">
  <metadata
     id="metadata6697">
    <rdf:RDF>
      <cc:Work
         rdf:about="">
        <dc:format>image/svg+xml</dc:format>
        <dc:type
           rdf:resource="http://purl.org/dc/dcmitype/StillImage" />
        <dc:title></dc:title>
      </cc:Work>
    </rdf:RDF>
  </metadata>
  <defs
     id="defs6695" />
  <sodipodi:namedview
     pagecolor="#ffffff"
     bordercolor="#666666"
     borderopacity="1"
     objecttolerance="10"
     gridtolerance="10"
     guidetolerance="10"
     inkscape:pageopacity="0"
     inkscape:pageshadow="2"
     inkscape:window-width="2096"
     inkscape:window-height="1030"
     id="namedview6693"
     showgrid="false"
     inkscape:zoom="0.081529061"
     inkscape:cx="1447.3367"
     inkscape:cy="3900.4497"
     inkscape:window-x="0"
     inkscape:window-y="0"
     inkscape:window-maximized="0"
     inkscape:current-layer="svg6691" />
  <polyline
     points="64.76452006936913,41.14545311312549 67.25704306028712,41.41394238996402 67.27371084224839,41.41535772114686 67.3238186787409,41.41809567038605 67.40743698156665,41.41988958476567 67.52452091083849,41.41847085966325 67.6749103676909,41.41157414690914 67.85833020758199,41.39694255970328 68.07439067390818,41.37233286532242 68.32258805129862,41.335520656667654 68.6023055376024,41.28430549373253 68.9128143332307,41.21651600611659 69.25327494616477,41.13001494776678 69.622738710594,41.022704195200745 70.020149516803,40.8925296805506 70.4443457495855,40.737486250864194 70.89406243212605,40.555622445211846 71.36793357195712,40.345045181271075 71.86449470527197,40.10392434319859 72.3821856355506,39.830497262749084 72.91935336214073,39.52307308576186 72.91935336214073,37.065162208355794 72.3821856355506,36.75773803136857 71.86449470527197,36.48431095091906 71.36793357195712,36.24319011284658 70.89406243212605,36.032612848905806 70.4443457495855,35.85074904325346 70.020149516803,35.69570561356705 69.622738710594,35.56553109891691 69.25327494616477,35.45822034635087 68.9128143332307,35.37171928800106 68.6023055376024,35.30392980038512 68.32258805129862,35.25271463745 68.07439067390818,35.21590242879523 67.85833020758199,35.191292734414375 67.6749103676909,35.17666114720851 67.52452091083849,35.1697644344544 67.40743698156665,35.16834570935198 67.3238186787409,35.1701396237316 67.27371084224839,35.17287757297079 67.25704306028712,35.17429290415363 64.76452006936913,35.44278218099216 64.0070539816414,31.3906965102019 66.42825196554287,30.740652146497684 66.44430548594221,30.735950806193753 66.49201871329211,30.72040282948123 66.57063849516653,30.691869189785642 66.67930350510221,30.64825067433258 66.81704611720579,30.587492743244844 66.9827944852848,30.507590305929234 67.17537482300365,30.406592406492106 67.39351388124075,30.282606810066696 67.63584161850508,30.133804482091207 67.9008940599579,29.958423952745264 68.18711634027967,29.754775558932582 68.49286592532438,29.521245556390078 68.81641600721214,29.256300094706905 69.15595906722848,28.95848904825206 69.5096106006244,28.626449696234353 69.87541299714599,28.25891024535504 70.25133957086587,27.85469318875932 70.63529873264295,27.41271849524921 71.02513829829942,26.932006622985753 70.13723847760573,24.6400729874537 69.52529006810708,24.547455844341002 68.94378439808548,24.47950421927856 68.3936520377701,24.434044305007696 67.87571107787433,24.408868854349556 67.39066597613242,24.401742309758063 66.93910662237352,24.41040597114454 66.5215076233511,24.432583193052807 66.1382278081929,24.46598460222669 65.78950995498064,24.508313326588816 65.47548073861512,24.55727022663993 65.19615089976531,24.610559120292564 64.95141563434727,24.665891992170764 64.74105520262343,24.72099417843934 64.56473575666199,24.773609518271797 64.4220103845454,24.82150546312475 64.31232036937,24.862478135059494 64.23499666073457,24.89435732543693 64.18926155607487,24.915011425411585 64.17423058886492,24.922352279762322 61.947011632400525,26.073114232556115 59.77691336162951,22.568285184987893 61.79979013446736,21.08749927407935 61.81306127641922,21.077316204347724 61.85193595888478,21.045582142092833 61.91493918261849,20.990574574473275 62.000509461492584,20.910647190880038 62.10700232582456,20.804233736723404 62.232693986539026,20.669851716212207 62.37578515391709,20.50610593768647 62.53440500443569,20.311691895315573 62.70661528895869,20.08539898123498 62.89041457531155,19.82611352246426 63.08374261805116,19.532821637227812 63.284484848034104,19.204611905586617 63.490476974188795,18.84067784958422 63.69950968971071,18.44032021841264 63.909333474726104,18.002949074413127 64.11766348730688,17.528085676042934 64.3221845345699,17.015364154261253 64.52055611545624,16.4645329791154 64.71041752666157,15.875456213641328 63.05453367608162,14.059038157504599 62.45045160730045,14.193736506653106 61.88366676050644,14.340437580475363 61.35426159683975,14.496778203330482 60.86220161352315,14.660404650068351 60.407336121297824,14.828977845874334 59.98939923946439,15.000178522856444 59.60801110644249,15.171712324616188 59.26267930341919,15.341314850137458 58.95280048831742,15.506756628434847 58.67766223698078,15.665848015521568 58.436445088141696,15.816444005390224 58.22822478841565,15.956448946844208 58.05197473324588,16.08382115817489 57.90656859941096,16.19657743184963 57.79078316440313,16.292797421556674 57.70330130768697,16.37062790414637 57.64271518855851,16.428286909212456 57.607529595042884,16.464067709272676 57.59616545799541,16.47634266373417 55.93504879750144,18.353960514166317 52.64540214008437,15.869734673622414 53.9967569845397,13.758195558095732 54.00545340678555,13.743906038930007 54.030239303087754,13.70027175208477 54.06911703420259,13.626219333355728 54.12003584169187,13.520777717669507 54.1808965068269,13.383080467085122 54.24955610491579,13.212367899884864 54.32383284690314,13.007989017007102 54.40151099994775,12.769403222398303 54.48034587855446,12.49618183419151 54.5580688977184,12.188009383953332 54.632392679436194,11.844684701580736 54.7010162038471,11.4661217837719 54.761629996189754,11.05235044434162 54.81192134069575,10.60351674500125 54.84957951249055,10.119883205574236 54.87230101853504,9.601828792971983 54.87779483861807,9.04984868860899 54.863787657400124,8.464553834291753 54.828029078512614,7.846670256971382 52.62779748763639,6.75108510383113 52.11316639029589,7.094907186799023 51.637649800952275,7.436448166587571 51.20047093482273,7.773474659138788 50.8007473554307,8.103804344955275 50.43749357794369,8.425310536968812 50.109623859795555,8.73592662946443 49.81595517348335,9.033650420646381 49.55521035614285,9.316548301643362 49.32602143022884,9.58275930497241 49.12693308935778,9.830499005712863 48.95640634311049,10.058063268884595 48.812822314342974,10.263831836776834 48.69448618231321,10.446271750235628 48.59963126470242,10.6039405981888 48.526423231390396,10.735489589966623 48.472964442636695,10.839666445263944 48.43729840412279,10.915318096884935 48.41741433112562,10.961393201714326 48.41125181391975,10.976944455668683 47.54058045896106,13.327835508798643 43.57567042454352,12.199721340615099 44.07299538075695,9.742604078464307 44.07594258328394,9.726137988608773 44.08329222078378,9.676496529397571 44.09279380626375,9.59340044904702 44.10218427526594,9.476685075738398 44.10919317113693,9.326300805424495 44.11154784742238,9.142313369686558 44.10697867843198,8.924903883091893 44.09322426900444,8.67436866985664 44.06803665449986,8.391118869972953 44.02918648205869,8.075679825314477 43.97446816419139,7.728690246587892 43.901704995802476,7.350901162351043 43.8087542258046,6.943174651669079 43.6935120745452,6.506482362329219 43.55391868834737,6.0419038168802714 43.387963022560065,5.550624509106498 43.19368764461859,5.033933793883762 42.969193448736284,4.4932225737014235 42.71264427397983,3.9299807854629734 40.2652184110593,3.703193381097705 39.909542066524644,4.209704120396232 39.58951488495066,4.699958004286728 39.30360574472079,5.1721530711867345 39.05020345359504,5.62457314159235 38.82762082635463,6.055591137054698 38.63409889411652,6.463672220589103 38.467811237874855,6.847376753449662 38.32686843863589,7.205363063502432 38.20932263633401,7.536390020737464 38.113172189549736,7.839319415773581 38.03636642789626,8.11311813752993 37.976810488798904,8.35686014656359 37.93237023026291,8.569728240903423 37.90087721110882,8.751015611545704 37.880133730051114,8.900127185116585 37.867917914906435,9.016580751549746 37.86198885314074,9.10000787497395 37.86009175490174,9.150154586354336 37.859963139633805,9.166881856782545 37.89732608125411,11.673545249148098 33.79263574030912,12.0539008228345 33.36876431717132,9.58305271566983 33.365564263947164,9.566633891801228 33.35448503337454,9.517689614363363 33.33332723145047,9.436772458493913 33.299921127092425,9.324546385470434 33.25213166347438,9.181785324440913 33.18786340587632,9.009371542871278 33.10506541749897,8.80829380843188 33.001736054808276,8.579645345381131 32.87592767410065,8.324621588836166 32.72575124111878,8.0445177406466 32.54938083569903,7.740726130908687 32.345058043595856,7.414733389471593 32.11109622780366,7.068117432096134 31.845884671885234,6.70254426622764 31.54789258801447,6.319764621638235 31.21567298265202,5.921610411480401 30.84786637299407,5.509991029570834 30.443204347566603,5.0868894899933395 30.000512964580114,4.65435841536889 27.636431254057563,5.326997655410537 27.487745723528825,5.927789969024531 27.36642939392786,6.500545253407008 27.270403593262948,7.044136334347776 27.197545973970577,7.557544951888076 27.145695514158504,8.039863382158892 27.11265757712122,8.490295845145415 27.096209020357243,8.908159696341556 27.09410334524805,9.292886400606864 27.104075878502933,9.644022286889594 27.12384897643169,9.961229082832023 27.151137243078757,10.2442842286287 27.18365275323749,10.493080969862689 27.21911027136254,10.707628229400136 27.255232457410752,10.888050258778282 27.289755050667797,11.034586069875726 27.320432022657602,11.14758864800644 27.34504069028562,11.227523947929768 27.361386780434167,11.27496967461671 27.36730943730879,11.290613850958437 28.307660603207047,13.614510801519259 24.617551131153604,15.451966989226264 23.329729513111964,13.301089765362313 23.320814389056693,13.286935660623943 23.29280260189257,13.245298760836999 23.24384289095373,13.177488839726262 23.172151892738633,13.08490882001588 23.076018301503723,12.969051640629125 22.95380689433349,12.831496949806517 22.803962413699036,12.673907629768614 22.625013300744328,12.498026158822253 22.415575272776533,12.30567081707282 22.174354738684492,12.098731742159174 21.900152046266395,11.879166841672454 21.591864555714167,11.648997569154332 21.24848953377756,11.41030457079426 20.869126863414863,11.165223210158516 20.45298156402904,10.915938978485688 19.999366117688034,10.664682798274246 19.507702597034687,10.41372622806648 18.977524590905738,10.165376576500321 18.40847892399917,9.921971933855328 16.44702370070964,11.403194161713554 16.525409788979697,12.01712771858432 16.619188753901355,12.59503062855634 16.726015109278528,13.13660273591465 16.843541987022977,13.641661221895465 16.96942638655017,14.110140310347987 17.101334401180132,14.542090752727859 17.23694641262942,14.937679093692008 17.37396224474144,15.29718671891456 17.5101062676773,15.621008687091393 17.643132443877292,15.909652348444578 17.7708293072047,16.163735752379036 17.891024866797935,16.383985847279362 18.00159142728434,16.57123647576649 18.100450317149104,16.726426169060012 18.18557651720525,16.850595744412338 18.255003181275338,16.94488570989515 18.30682604137258,17.010533481126174 18.33920768985729,17.04887041482475 18.35038173124498,17.061318664377673 20.066721485800947,18.888594012802987 17.289562614442318,21.93499217468455 15.311718247079291,20.394573721626276 15.298292089096982,20.384595926293656 15.257130892416548,20.35588969819188 15.186981552720354,20.31034511743361 15.08668792721068,20.249914595701814 14.9551935825498,20.1766084520208 14.791544353542513,20.09249037515767 14.594890708077575,19.999672780424948 14.364489914154653,19.900312068827144 14.099708005139906,19.796603796654257 13.80002153971596,19.690777763772616 13.465019153320142,19.585093028998934 13.094402898197899,19.481832861065325 12.687989369536105,19.383299633792728 12.245710615482736,19.291809674186293 11.767614829204621,19.20968807224906 11.253866821483367,19.139263461380136 10.704748272700481,19.082862778279083 10.120657763415501,19.0428060113212 9.502110583095483,19.02140094639656 8.208187243742831,21.111158892463408 8.503058475238497,21.65531856381227 8.799267365822924,22.160320109111538 9.09451838600322,22.626730928834004 9.386557104706192,23.055228336097947 9.673174977866974,23.44659738590442 9.952214035860855,23.801728506914205 10.22157146192508,24.121614940168485 10.479204053900652,24.40734998946146 10.723132561819934,24.660124088370644 10.951445894071863,24.88122168923909 11.1623051850945,25.07201797968524 11.35394771777258,25.23397543248771 11.524690693956192,25.36864019495578 11.672934846765258,25.477638324149602 11.797167888602353,25.56267187455812 11.89596778906364,25.62551484507584 11.968005877213592,25.668008992342948 12.0120497629737,25.692059517724886 12.026966072667545,25.69963063540875 14.287493221461542,26.783500720611475 12.798355645143246,30.62740790423054 10.39760736988519,29.90549026981678 10.381483455008258,29.901036340438456 10.332731896505276,29.889137719193698 10.250866985088606,29.872009526790528 10.1355159421556,29.851889979854278 9.986419883950521,29.83103527278649 9.803434568295298,29.811714422277557 9.58653092251538,29.796204083338715 9.335795351538408,29.786783345767468 9.05142982549636,29.785728519995445 8.733751746516042,29.795307921288767 8.383193594737559,29.817776661278643 8.000302353955131,29.855371455793325 7.58573871762902,29.910305457942826 7.140276076371073,29.984763125373913 6.664799288357727,30.080895130565416 6.1603032344749735,30.200813322973083 5.627891160346593,30.346585751758518 5.068772807741766,30.52023175774878 4.484262338198761,30.723717143172124 4.032622399639301,33.13977741708274 4.504154780609184,33.540671424001204 4.96278894483283,33.90456834762489 5.406589343498524,34.232826514036425 5.833698455956771,34.5268918933464 6.242340470776313,34.78829434567969 6.630824801143248,35.01864371957755 6.9975494288714195,35.21962580975905 7.341004071572765,35.39299818140287 7.659773167826444,35.54058586831708 7.952538675481836,35.664276952559405 8.218082678535431,35.766018033253744 8.455289798332252,35.847809592520164 8.663149405159977,35.91170126659465 8.84075762662727,35.95978703036167 8.987319149546174,35.994200303656534 9.10214881237221,36.01710898781583 9.184672985593398,36.030710441062396 9.234430737801397,36.0372264014063 9.251074785523123,36.038897865824886 11.75049261109718,36.232980026866926 11.750492611097176,40.35525526725072 9.25107478552312,40.54933742829276 9.234430737801393,40.551008892711344 9.184672985593394,40.55752485305525 9.102148812372207,40.571126306301814 8.98731914954617,40.59403499046111 8.840757626627266,40.62844826375597 8.663149405159974,40.676534027523 8.455289798332249,40.74042570159748 8.218082678535431,40.822217260863894 7.952538675481833,40.92395834155824 7.65977316782644,41.047649425800564 7.341004071572758,41.19523711271478 6.997549428871416,41.36860948435859 6.630824801143245,41.5695915745401 6.2423404707763055,41.79994094843796 5.833698455956771,42.06134340077124 5.40658934349851,42.35540878008122 4.962788944832823,42.68366694649275 4.504154780609184,43.047563870116434 4.032622399639294,43.4484578770349 4.484262338198761,45.864518150945514 5.068772807741766,46.06800353636886 5.627891160346593,46.24164954235913 6.1603032344749735,46.38742197114456 6.664799288357727,46.50734016355223 7.140276076371073,46.603472168743735 7.58573871762902,46.67792983617482 8.000302353955131,46.73286383832432 8.383193594737559,46.770458632839 8.733751746516042,46.79292737282888 9.05142982549636,46.8025067741222 9.335795351538408,46.80145194835018 9.58653092251538,46.79203121077893 9.803434568295298,46.77652087184009 9.986419883950521,46.75720002133116 10.1355159421556,46.73634531426337 10.250866985088606,46.71622576732712 10.332731896505276,46.69909757492395 10.381483455008258,46.68719895367919 10.39760736988519,46.682745024300864 12.798355645143246,45.96082738988711 14.287493221461538,49.804734573506174 12.026966072667541,50.8886046587089 12.012049762973696,50.89617577639276 11.968005877213589,50.9202263017747 11.895967789063636,50.962720449041804 11.797167888602349,51.025563419559525 11.672934846765255,51.11059696996804 11.524690693956188,51.219595099161864 11.353947717772577,51.354259861629934 11.162305185094496,51.51621731443241 10.95144589407186,51.707013604878554 10.72313256181993,51.928111205747 10.479204053900649,52.18088530465619 10.221571461925077,52.46662035394916 9.952214035860852,52.786506787203436 9.673174977866971,53.14163790821323 9.386557104706188,53.5330069580197 9.094518386003216,53.961504365283645 8.79926736582292,54.42791518500611 8.503058475238493,54.93291673030538 8.208187243742827,55.47707640165424 9.50211058309548,57.566834347721084 10.120657763415501,57.54542928279645 10.704748272700478,57.50537251583856 11.253866821483367,57.44897183273751 11.767614829204618,57.37854722186859 12.245710615482736,57.296425619931355 12.687989369536101,57.20493566032492 13.094402898197895,57.106402433052324 13.465019153320139,57.00314226511871 13.800021539715956,56.89745753034503 14.099708005139902,56.791631497463385 14.36448991415465,56.687923225290504 14.594890708077571,56.58856251369269 14.791544353542509,56.49574491895997 14.955193582549796,56.411626842096844 15.086687927210676,56.33832069841583 15.18698155272035,56.27789017668404 15.257130892416544,56.232345595925764 15.298292089096979,56.20363936782399 15.311718247079288,56.193661572491365 17.289562614442314,54.6532431194331 20.066721485800915,57.69964128131464 18.350381731244944,59.526916629739944 18.339207689857254,59.53936487929287 18.306826041372545,59.57770181299145 18.255003181275303,59.64334958422246 18.185576517205213,59.73763954970528 18.10045031714907,59.861809125057604 18.0015914272843,60.01699881835113 17.8910248667979,60.204249446838254 17.770829307204664,60.424499541738584 17.643132443877256,60.67858294567304 17.510106267677262,60.96722660702623 17.3739622447414,61.29104857520306 17.23694641262938,61.65055620042561 17.101334401180093,62.046144541389765 16.96942638655013,62.47809498376963 16.843541987022938,62.94657407222215 16.72601510927848,63.451632558202974 16.619188753901316,63.99320466556128 16.525409788979655,64.57110757553329 16.4470237007096,65.18504113240407 18.408478923999137,66.66626336026229 18.977524590905702,66.42285871761732 19.50770259703466,66.17450906605116 19.999366117688,65.92355249584338 20.45298156402901,65.67229631563194 20.86912686341483,65.42301208395912 21.248489533777526,65.17793072332337 21.591864555714135,64.9392377249633 21.900152046266363,64.70906845244518 22.174354738684464,64.48950355195846 22.4155752727765,64.28256447704482 22.6250133007443,64.09020913529538 22.803962413699004,63.91432766434902 22.953806894333457,63.75673834431112 23.076018301503694,63.619183653488506 23.172151892738604,63.503326474101755 23.2438428909537,63.41074645439137 23.292802601892543,63.342936533280636 23.32081438905666,63.30129963349369 23.329729513111932,63.28714552875532 24.617551131153576,61.136268304891374 28.30766060320704,62.97372449259839 27.36730943730878,65.29762144315922 27.36138678043416,65.31326561950094 27.345040690285614,65.36071134618788 27.320432022657595,65.4406466461112 27.289755050667786,65.55364922424192 27.25523245741074,65.70018503533936 27.21911027136253,65.88060706471751 27.18365275323748,66.09515432425496 27.151137243078747,66.34395106548895 27.12384897643168,66.62700621128562 27.104075878502925,66.94421300722806 27.094103345248044,67.29534889351078 27.096209020357236,67.6800755977761 27.11265757712121,68.09793944897223 27.145695514158493,68.54837191195875 27.19754597397057,69.03069034222958 27.27040359326294,69.54409895976988 27.366429393927852,70.08769004071064 27.487745723528814,70.66044532509312 27.636431254057552,71.26123763870712 30.000512964580107,71.93387687874876 30.443204347566596,71.50134580412431 30.84786637299406,71.07824426454681 31.215672982652013,70.66662488263725 31.547892588014463,70.26847067247941 31.845884671885226,69.88569102789 32.11109622780365,69.52011786202152 32.34505804359585,69.17350190464606 32.549380835699026,68.84750916320897 32.72575124111877,68.54371755347105 32.875927674100645,68.26361370528149 33.00173605480827,68.00858994873653 33.10506541749896,67.77994148568577 33.187863405876314,67.57886375124637 33.25213166347437,67.40644996967674 33.29992112709242,67.26368890864723 33.33332723145046,67.15146283562373 33.35448503337453,67.07054567975429 33.36556426394715,67.02160140231642 33.36876431717131,67.00518257844783 33.792635740309116,64.53433447128316 37.897326081254114,64.91469004496955 37.85996313963382,67.42135343733511 37.86009175490175,67.43808070776332 37.861988853140744,67.4882274191437 37.86791791490645,67.5716545425679 37.88013373005112,67.68810810900106 37.900877211108835,67.83721968257194 37.932370230262926,68.01850705321422 37.97681048879891,68.23137514755406 38.036366427896276,68.47511715658771 38.11317218954975,68.74891587834406 38.20932263633402,69.0518452733802 38.326868438635906,69.38287223061522 38.46781123787487,69.74085854066799 38.63409889411653,70.12456307352855 38.82762082635465,70.53264415706295 39.05020345359505,70.9636621525253 39.303605744720805,71.41608222293092 39.589514884950674,71.88827728983092 39.90954206652466,72.37853117372143 40.265218411059315,72.88504191301995 42.71264427397985,72.6582545086547 42.9691934487363,72.09501272041624 43.193687644618606,71.55430150023389 43.38796302256007,71.03761078501115 43.55391868834739,70.54633147723737 43.693512074545204,70.08175293178843 43.808754225804606,69.64506064244857 43.90170499580248,69.2373341317666 43.97446816419141,68.85954504752976 44.0291864820587,68.51255546880319 44.06803665449987,68.1971164241447 44.09322426900445,67.913866624261 44.10697867843199,67.66333141102575 44.111547847422386,67.44592192443109 44.10919317113694,67.26193448869316 44.10218427526595,67.11155021837925 44.092793806263764,66.99483484507063 44.08329222078379,66.91173876472008 44.07594258328395,66.86209730550888 44.072995380756964,66.84563121565334 43.57567042454353,64.38851395350255 47.540580458961045,63.26039978531901 48.411251813919726,65.61129083844898 48.4174143311256,65.62684209240334 48.43729840412277,65.67291719723272 48.47296444263668,65.74856884885372 48.526423231390375,65.85274570415103 48.599631264702396,65.98429469592887 48.69448618231319,66.14196354388203 48.81282231434295,66.32440345734082 48.956406343110466,66.53017202523307 49.126933089357756,66.7577362884048 49.32602143022882,67.00547598914525 49.55521035614284,67.2716869924743 49.81595517348333,67.55458487347127 50.10962385979553,67.85230866465324 50.43749357794367,68.16292475714886 50.80074735543068,68.48443094916239 51.20047093482271,68.81476063497887 51.637649800952246,69.15178712753008 52.113166390295866,69.49332810731863 52.62779748763637,69.83715019028654 54.8280290785126,68.74156503714629 54.863787657400096,68.12368145982592 54.87779483861806,67.53838660550868 54.872301018535026,66.98640650114568 54.849579512490536,66.46835208854343 54.81192134069573,65.98471854911642 54.76162999618973,65.53588484977604 54.701016203847075,65.12211351034577 54.63239267943618,64.74355059253693 54.558068897718385,64.40022591016434 54.48034587855444,64.09205345992615 54.40151099994773,63.81883207171936 54.323832846903116,63.58024627711056 54.24955610491577,63.3758673942328 54.180896506826876,63.205154827032544 54.12003584169186,63.06745757644816 54.06911703420258,62.96201596076194 54.03023930308774,62.88796354203289 54.00545340678553,62.84432925518766 53.99675698453969,62.83003973602193 52.64540214008436,60.71850062049525 55.935048797501416,58.23427477995135 57.59616545799539,60.111892630383494 57.60752959504286,60.124167584845 57.6427151885585,60.159948384905206 57.70330130768696,60.2176073899713 57.79078316440311,60.295437872560996 57.906568599410946,60.39165786226803 58.05197473324586,60.50441413594278 58.22822478841564,60.63178634727346 58.43644508814168,60.77179128872744 58.677662236980765,60.922387278596105 58.95280048831741,61.08147866568282 59.262679303419176,61.246920443980216 59.60801110644247,61.416522969501486 59.989399239464376,61.58805677126122 60.4073361212978,61.75925744824333 60.862201613523126,61.92783064404932 61.354261596839734,62.09145709078719 61.88366676050643,62.24779771364231 62.45045160730043,62.39449878746457 63.054533676081604,62.52919713661308 64.71041752666156,60.71277908047634 64.52055611545623,60.12370231500228 64.32218453456989,59.572871139856424 64.11766348730687,59.06014961807474 63.90933347472608,58.58528621970454 63.699509689710695,58.14791507570503 63.49047697418878,57.747557444533456 63.28448484803409,57.383623388531056 63.08374261805115,57.05541365688986 62.89041457531154,56.76212177165341 62.70661528895867,56.50283631288269 62.534405004435676,56.2765433988021 62.37578515391708,56.082129356431196 62.23269398653902,55.91838357790546 62.10700232582455,55.78400155739427 62.00050946149257,55.67758810323763 61.914939182618475,55.597660719644395 61.851935958884766,55.54265315202484 61.813061276419205,55.51091908976994 61.799790134467344,55.50073602003832 59.7769133616295,54.01995010912978 61.94701163240052,50.51512106156154 64.1742305888649,51.66588301435533 64.18926155607487,51.673223868706074 64.23499666073457,51.693877968680724 64.31232036937,51.72575715905816 64.4220103845454,51.7667298309929 64.56473575666199,51.814625775845855 64.74105520262341,51.86724111567831 64.95141563434726,51.92234330194689 65.19615089976531,51.97767617382509 65.47548073861512,52.03096506747772 65.78950995498064,52.07992196752884 66.13822780819288,52.12225069189096 66.5215076233511,52.155652101064845 66.9391066223735,52.17782932297311 67.39066597613242,52.18649298435959 67.87571107787431,52.179366439768096 68.3936520377701,52.154190989109956 68.94378439808547,52.1087310748391 69.52529006810708,52.04077944977665 70.13723847760572,51.94816230666396 71.02513829829941,49.656228671131906 70.63529873264294,49.17551679886845 70.25133957086587,48.73354210535834 69.87541299714597,48.32932504876261 69.5096106006244,47.961785597883306 69.15595906722848,47.6297462458656 68.81641600721214,47.33193519941075 68.49286592532438,47.06698973772758 68.18711634027967,46.83345973518507 67.9008940599579,46.629811341372395 67.63584161850508,46.454430812026445 67.39351388124075,46.30562848405096 67.17537482300364,46.18164288762555 66.9827944852848,46.080644988188425 66.81704611720579,46.000742550872815 66.67930350510221,45.93998461978508 66.57063849516653,45.89636610433202 66.49201871329211,45.86783246463642 66.44430548594221,45.8522844879239 66.42825196554287,45.84758314761997 64.0070539816414,45.19753878391576 "
     id="polyline6689"
     transform="matrix(3.7795358,0,0,3.7795358,1068.1609,815.45531)" />
</svg>
