<?xml version="1.0" encoding="UTF-8" standalone="no"?>
<svg
   xmlns:dc="http://purl.org/dc/elements/1.1/"
   xmlns:cc="http://creativecommons.org/ns#"
   xmlns:rdf="http://www.w3.org/1999/02/22-rdf-syntax-ns#"
   xmlns:svg="http://www.w3.org/2000/svg"
   xmlns="http://www.w3.org/2000/svg"
   xmlns:sodipodi="http://sodipodi.sourceforge.net/DTD/sodipodi-0.dtd"
   xmlns:inkscape="http://www.inkscape.org/namespaces/inkscape"
   width="911.764705882353mm"
   height="911.764705882353mm"
   viewbox="0 0 91.1764705882353 91.1764705882353"
   version="1.1"
   id="svg6846"
   sodipodi:docname="N21.svg"
   inkscape:version="0.92.2 5c3e80d, 2017-08-06">
  <metadata
     id="metadata6852">
    <rdf:RDF>
      <cc:Work
         rdf:about="">
        <dc:format>image/svg+xml</dc:format>
        <dc:type
           rdf:resource="http://purl.org/dc/dcmitype/StillImage" />
        <dc:title />
      </cc:Work>
    </rdf:RDF>
  </metadata>
  <defs
     id="defs6850" />
  <sodipodi:namedview
     pagecolor="#ffffff"
     bordercolor="#666666"
     borderopacity="1"
     objecttolerance="10"
     gridtolerance="10"
     guidetolerance="10"
     inkscape:pageopacity="0"
     inkscape:pageshadow="2"
     inkscape:window-width="1680"
     inkscape:window-height="1006"
     id="namedview6848"
     showgrid="false"
     inkscape:zoom="0.70710678"
     inkscape:cx="10.922208"
     inkscape:cy="3392.1621"
     inkscape:window-x="0"
     inkscape:window-y="0"
     inkscape:window-maximized="1"
     inkscape:current-layer="svg6846" />
  <polyline
     points="79.36950893105214,48.62671081211613 81.42825060083348,48.81188548103905 81.44607346370191,48.8131117831325 81.49962345492824,48.81529176802357 81.5889429207709,48.816173918622034 81.71396777788345,48.813506113806824 81.87452755251726,48.80504009967114 82.07034559578952,48.78853595658778 82.30103947475686,48.76176655544065 82.56612153879128,48.722521996381516 82.86499966051,48.66861402349339 83.19697815026933,48.59788040877264 83.56125884298994,48.50818929888149 83.95694235584122,48.397443518171094 84.3830295150743,48.26358482153184 84.8384229500568,48.104598090693344 85.32192885232914,47.9185154676704 85.83225889727103,47.70342041913338 86.36803232573905,47.45745172557221 86.927778182812,47.17880738922185 87.50993771055909,46.86574845482386 87.50993771055909,44.310722133411446 86.927778182812,43.99766319901345 86.36803232573905,43.71901886266309 85.83225889727103,43.473050169101924 85.32192885232914,43.2579551205649 84.8384229500568,43.07187249754196 84.3830295150743,42.91288576670346 83.95694235584122,42.77902707006421 83.56125884298994,42.668281289353814 83.19697815026933,42.578590179462665 82.86499966051,42.507856564741914 82.56612153879128,42.45394859185379 82.30103947475686,42.41470403279465 82.07034559578952,42.387934631647525 81.87452755251726,42.371430488564165 81.71396777788345,42.36296447442848 81.5889429207709,42.36029666961327 81.49962345492824,42.361178820211734 81.44607346370191,42.363358805102806 81.42825060083348,42.364585107196255 79.36950893105214,42.549759776119174 78.76430810764342,38.53451466748685 80.78616685326008,38.104637785486645 80.80355935522584,38.10055622536555 80.8553728324186,38.08685522264086 80.9409841034587,38.06137080703061 81.05966810768915,38.021969801734144 81.21059926055923,37.96655408447712 81.39285297601941,37.893064792666344 81.60540735371794,37.799486466372414 81.84714502856073,37.68385112294278 82.11685517996878,37.54424225714102 82.41323569794504,37.37879876080923 82.7348955028427,37.18571875615909 83.08035701551277,36.96326333691468 83.44805877429624,36.70976021165424 83.83635819512173,36.42360724383029 84.24353447076632,36.10327588308722 84.66779160514196,35.747314482642025 85.10726157827857,35.3543514976474 85.56000763748936,34.92309855961736 86.0240277100244,34.45235342216218 85.27092048103205,32.010839751352684 84.62234892687826,31.883283680169633 84.00533914774833,31.782006717594214 83.42086808427123,31.704887713305244 82.8698101928027,31.649771155667985 82.35293628515018,31.614471528030894 81.87091254117004,31.59677770291463 81.42429969543794,31.594457367522175 81.01355239895075,31.60526147396177 80.63901875657493,31.6269287075464 80.30094004071123,31.657189966513975 79.99945058140159,31.69377284650183 79.7345778328585,31.73440612310752 79.50624261615198,31.77682422587469 79.31425953754575,31.818771697058942 79.15833758172938,31.858007628553043 79.03808087895173,31.89231007038439 78.95298964481864,31.919480404239636 78.90246129127945,31.93734767552219 78.88579170708857,31.943772877507655 76.97309534514162,32.72754551539425 75.21126762395542,29.069072555276833 77.01659242307841,28.06234056980285 77.0320091640161,28.05331381199559 77.077482272347,28.024949215873082 77.15177841145375,27.97536263621762 77.25357596819005,27.902729382668948 77.38146760401345,27.805287891956734 77.53396294923566,27.681343297498383 77.70949143642733,27.52927089101059 77.9064052688204,27.347519470931513 78.1229825193617,27.134614572606036 78.3574303558882,26.88916157534911 78.60788838771697,26.609848681670783 78.87243212877218,26.295449764121756 79.14907657220556,25.94482707539967 79.43577987130976,25.556933817543026 79.7304471213719,25.13081656623288 80.03093423697024,24.665617546419934 80.33505191908003,24.16057675569829 80.64056970622445,23.615033932054878 80.94522010378415,23.028430362836424 79.50592252805204,20.917368546687538 78.84856737628749,20.98664925541464 78.22911770167912,21.071738569185626 77.6478818220919,21.170321616131094 77.1050599960314,21.280080897414702 76.60074459795743,21.398700791988883 76.13492046995866,21.52387204660451 75.707465448999,21.65329624444109 75.31815106870363,21.784690245760476 74.96664343441151,21.9157905940318 74.65250426998192,22.04435788102909 74.37519213460575,22.168181064464676 74.13406380763693,22.285081731792577 73.92837583922821,22.392918303894415 73.757286264326,22.489590172448107 73.61985647735362,22.573041764874695 73.51505326469051,22.641266530862097 73.44175099183646,22.692310844576035 73.39873394193638,22.724277816787392 73.38469880213167,22.735331011271924 71.78799921350783,24.0480599797164 69.02609071922515,21.07143054556448 70.45447054091498,19.577296011496628 70.46654167573705,19.564126123047657 70.50163392997544,19.523618252368802 70.55801339914596,19.454335493877622 70.63387934874088,19.354923775400334 70.7273677344315,19.22411461529765 70.83655482877793,19.060727739331238 70.95946094908167,18.86367355332479 71.09405428087479,18.63195546787327 71.23825479140513,18.364672071558044 71.38993822734909,18.061019149335003 71.54694019086402,17.72029154297625 71.70706028798055,17.341884850663757 71.86806634323062,16.925296963055303 72.02769867431142,16.47012943336806 72.18367442049717,15.976088679254502 72.33369191843133,15.442987014476465 72.47543511886037,14.870743508618421 72.6065780378079,14.259384673317602 72.72478923563287,13.609044973728299 70.72718921901816,12.01601211884703 70.11945935963271,12.275973712480507 69.55261061154494,12.539868743661039 69.02625527446057,12.80539430549527 68.53990161518796,13.070276831887021 68.09295536296308,13.332276350484726 67.68472136895386,13.589190669554636 67.31440542723439,13.838859492673741 66.98111625429809,14.079168455242609 66.68386762396236,14.308053076932321 66.42158065430348,14.523502624301369 66.19308624305322,14.723563877947349 65.99712764768408,14.906344798695244 65.83236320621306,15.070018087467492 65.69736919455916,15.212824633632124 65.59064281610395,15.333076846782816 65.51060531892182,15.429161867068839 65.4556052359716,15.49954464936371 65.4239217433715,15.542770916738142 65.41376813171678,15.557469978885646 64.27493908186602,17.282513548225513 60.758357504639676,15.252214227986599 61.6828745333976,13.403437555578215 61.69052748880179,13.387294738871326 61.71212078815878,13.338242895711794 61.745574024140055,13.25542003551923 61.788767344039826,13.138063019561166 61.83954562626202,12.98550915798969 61.89572271724036,12.797197641456322 61.95508572250256,12.57267080511594 62.01539934551279,12.311575223062412 62.07441026785803,12.013662631473913 62.12985156428405,11.67879067898317 62.17944714603506,11.306923503027448 62.22091622590864,10.898132131173874 62.251977798403004,10.452594706658886 62.27035512830892,9.970596537623571 62.27378024108138,9.452529969771724 62.25999840831894,8.898894082422245 62.226772621679345,8.31029420817255 62.17188804857028,7.687441276634864 62.09315646297243,7.031150982951985 59.71474953327465,6.0976950494040665 59.21064443125325,6.52523879952691 58.74676360852844,6.944491316512334 58.32205779551923,7.353366281826624 57.93538695998875,7.74983607843879 57.58552298951446,8.13193541406666 57.2711525113679,8.497764832891576 56.990879845415115,8.845494110705488 56.743230085468724,9.17336552862109 56.52665230434884,9.479697020648437 56.33952287774229,9.762885190620736 56.18014892178869,10.021408194136306 56.04677183916794,10.253828481374889 55.93757096831616,10.458795396841737 55.850667330257494,10.635047632294373 55.78412746740617,10.78141552931259 55.735967368568424,10.896823228182654 55.70415647425607,10.980290659981804 55.68662175631416,11.03093537896774 55.68125186576338,11.047974232600644 55.1014833134339,13.03205471147104 51.14269235866451,12.12848650957018 51.48119919930925,10.089339619387538 51.48375397662347,10.071658234528726 51.48992966169054,10.018420890413722 51.49748419765852,9.929417103109998 51.50416697183931,9.80454247555182 51.507723277380805,9.643798992583768 51.50589878392851,9.447295140118918 51.496444010621374,9.215245848173232 51.477118794762276,8.947972257782247 51.44569674950687,8.645901312050988 51.399969703927376,8.309565171832709 51.33775211882927,7.939600456775892 51.256885471729056,7.536747312721808 51.15524260444013,7.1018483066772475 51.03073202676144,6.635847150826756 50.88130216981993,6.139787257287949 50.70494558268241,5.6148101255490985 50.499703065926056,5.062153564762845 50.26366773593812,4.483149753300488 49.994989013805714,3.879223138200267 47.44710706419539,3.6882857820853445 47.091418670081445,4.245422550254304 46.77172361952616,4.78278012705109 46.48640430586874,5.298674160859029 46.23377369469428,5.791503146383576 46.012078955099966,6.259751096255762 45.819505189391506,6.701990065557133 45.65417925553166,7.116882525747279 45.51417367653948,7.503183584687783 45.3975106309239,7.859743049672524 45.30216601812761,8.185507330595222 45.226073592858256,8.479521180608522 45.167129162092415,8.74092927185702 45.123194838455184,8.968977604096743 45.0921033436036,9.163014744247228 45.071662355175896,9.322492895157957 45.05965889081138,9.44696879210911 45.05386372269634,9.536104425806393 45.05203581605162,9.589667590871244 45.051926784945564,9.607532259070481 45.08273371028424,11.674355389930007 41.03348932717101,11.977804306349817 40.755908161398466,9.929474348234386 40.753137757446886,9.911825463861831 40.74334709150429,9.859132990444202 40.72433167378569,9.771856653117958 40.69391010843465,9.650560072621488 40.64992844394151,9.495909732129718 40.59026448030846,9.308673773367836 40.51283202653192,9.089720623737783 40.4155851020399,8.84001745642641 40.296522075798165,8.560628485697109 40.153689736882725,8.25271309979653 39.98518729040884,7.9175238341348475 39.78917027280713,7.556404187621361 39.563854380545905,7.1707862852571225 39.30751920651504,6.762188390301176 39.018511878410926,6.332212269539312 38.69525059359364,5.882540415390288 38.336228045026274,5.4149331287867 37.940014733052884,4.931225466964484 37.505262157924534,4.433324060486868 35.014295680820325,5.001870903810527 34.83862846934366,5.639096643219361 34.69152549915837,6.246812700974225 34.570944557974364,6.823886354408302 34.474801509609954,7.369284510736996 34.40097455139991,7.882075189635067 34.3473085223088,8.361428836256707 34.31161925528625,8.806619463009632 34.29169796734611,9.217025618633905 34.2853156808051,9.592131183376708 34.29022766907897,9.93152598929683 34.30417792040516,10.234906264975635 34.32490361284115,10.502074904156096 34.35013959387624,10.732941558075574 34.37762285799207,10.927522551503564 34.40509701551359,11.085940622740054 34.43031674610743,11.208424488074712 34.451052230308406,11.29530823145084 34.465093552487886,11.34703052032053 34.470255068718814,11.36413364891878 35.10890014121533,13.330053126486654 31.328995463014166,14.81355639333962 30.459990595548113,12.93804647301792 30.452141172879553,12.921998269958976 30.427254099561914,12.87453262473899 30.383358331468813,12.79673862296756 30.31853551617023,12.689797823011176 30.230923845543018,12.55498198642023 30.118721816729018,12.393650657968792 29.980191895807828,12.207248598859053 29.8136640786851,11.99730307684721 29.617539343838104,11.76542101724749 29.390292991708755,11.513286018966284 29.130477865689095,11.24265523990762 28.83672744980631,10.95535615627493 28.50775883838271,10.653283200472373 28.14237557312068,10.338394282480124 27.7394703432438,10.012707199744028 27.29802754451154,9.678295940778405 26.817125693117887,9.337286887832995 26.29593969068135,8.991854924119913 25.733742936737457,8.644219451234783 23.521025235056435,9.921732611940968 23.540988008859628,10.582427019224099 23.57954786349603,11.206503319287535 23.634419440570397,11.793481065794118 23.703306686780035,12.342987373296765 23.783907359175497,12.854757079055801 23.87391752889597,13.328632727886557 23.971036076705435,13.764564380328359 24.07296917367394,14.16260924467144 24.17743474037489,14.522931133621249 24.28216687800488,14.845799746623214 24.384920264876598,15.13158977911106 24.483474511788277,15.380779860182034 24.575638469834445,15.593951320438904 24.659254484292685,15.771786791973703 24.732202588299284,15.915068642700334 24.792404630113246,16.024677247471924 24.837828327862812,16.101589098644897 24.86649124577152,16.146874758973812 24.87646468597137,16.1616966599393 26.06620148828667,17.85203191133808 22.89149763349419,20.383773753117467 21.508283960374037,18.8477311575498 21.496052974639216,18.83470958907264 21.45828081962593,18.79668830292765 21.39340503278681,18.735288975161765 21.2999407591502,18.652206115123573 21.176483763801627,18.549203761144113 21.021713312457287,18.428112059526892 20.834394915793855,18.29082373190134 20.613382933387054,18.13929043615052 20.35762303330517,17.975519026273467 20.066154503602796,17.801567716685142 19.738112412164117,17.61954215659248 19.37272961155391,17.431591420212612 18.969338585747895,17.239903918720128 18.52737313583129,17.046703239922444 18.046369901976668,16.854243921767434 17.525969719236617,16.664807165883943 16.965918804916008,16.480696497444487 16.366069775519914,16.304233377719665 15.726382491508218,16.13775277576601 13.988523243396394,18.010719603251825 14.20234222242183,18.63617708091249 14.423138689578359,19.22116170531013 14.648587204488091,19.765887996202693 14.876383811139348,20.270676407988972 15.104250390687753,20.73595215638792 15.329938960637019,21.16224387646014 15.551235914107902,21.550182114216835 15.765966192993378,21.900497654290714 15.971997388895307,22.214019686367777 16.167243765843583,22.491673813300785 16.349670198911472,22.73447990404222 16.517296022962547,22.943549794747906 16.66819878589252,23.120084841610794 16.800517900865717,23.26537332918842 16.912458192188932,23.38078773818609 17.00229332961554,23.467781876851213 17.068369146030033,23.527887880322215 17.109106833626633,23.56271308245729 17.12300601386593,23.57393676484438 18.758121210040336,24.83849408507322 16.47070454811329,28.19351812877083 14.696186674328985,27.133426983385284 14.680660902285243,27.124589072993313 14.633359887309616,27.099390504050962 14.553268580087824,27.059841450009145 14.439467558987015,27.007998806606658 14.291134934735904,26.945962146408146 14.107548094662107,26.875869600716015 13.888085283833217,26.79989367496408 13.632227020674303,26.720237003794665 13.33955734486365,26.639128052106845 13.009764895540869,26.55881676844107 12.64264381809651,26.481570197134655 12.238094498049115,26.409668055743182 11.796124120755891,26.345398284275117 11.316847055943235,26.29105257283039 10.800485066286782,26.24892187426835 10.247367339513978,26.221291908556747 9.657930343746756,26.210438665470452 9.032717506047064,26.21862391231709 8.372378714373404,26.248090713366572 7.263794340495217,28.550089885630364 7.652470770127358,29.08473579200348 8.035885114747806,29.578650289694856 8.41187847757866,30.032723803535642 8.778343716501638,30.44794165399088 9.133229257634092,30.825381652955507 9.47454280795418,31.166211554190372 9.800354961624912,31.47168636239835 10.108802694820078,31.74314550513305 10.398092744014093,31.982009871918542 10.66650486286418,32.18977872513953 10.912394952984947,32.36802648743521 11.134198064094669,32.51839941049829 11.330431259196246,32.64261213034214 11.499696340646167,32.742444114253296 11.640682433160045,32.81973600479476 11.75216842000394,32.87638586636554 11.833025228825981,32.91434533995532 11.882217963793124,32.935615711858965 11.898807880912052,32.942243902233244 13.834014310180624,33.66866182397142 12.637131849693894,37.548859460024225 10.628983475674595,37.058913515221676 10.611542450301748,37.05504455003775 10.558915478121449,37.044907701730665 10.470725114638562,37.03072302842269 10.346699066205908,37.01472704802992 10.186670817663973,36.99916831111439 9.990580085258856,36.98630295162816 9.758473094103337,36.97839022216776 9.49050267968947,36.9776880203807 9.186928213205533,36.98644841318035 8.848115350655021,37.00691316543109 8.474535606020204,37.041309279762494 8.06676574895728,37.091844554159394 7.625487027754424,37.16070316395394 7.151484218527067,37.250041274816255 6.645644501867032,37.36198269330195 6.108956168402408,37.49861456146782 5.542507154964142,37.66198310201157 4.947483413291806,37.85408942032697 4.3251671134454455,38.07688536979343 3.944360200362368,40.60337415822258 4.473358474149968,40.99970285827199 4.985322649128683,41.35866075862914 5.4784521995734465,41.6817350710446 5.9510240260836085,41.97048843200233 6.4013953910809605,42.22655548125647 6.828006714996093,42.45163933122188 7.229384229209934,42.647507932617756 7.604142482019817,42.81599034190246 7.950986694106554,42.95897289616848 8.268714960191446,43.07839530129017 8.556220293786964,43.176246639232694 8.812492512166315,43.25456130053833 9.036619958899536,43.31541484810646 9.227791061531775,43.36091981847519 9.385295722209186,43.39322146689598 9.50852653929109,43.41449346256802 9.596979858222582,43.42693354046572 9.65025665017967,43.432759116250814 9.668063217238576,43.434202870810196 11.731409295847257,43.55793597387871 11.731409295847257,47.61853461435656 9.668063217238569,47.74226771742508 9.65025665017967,47.74371147198447 9.596979858222582,47.749537047769564 9.508526539291083,47.761977125667265 9.385295722209186,47.7832491213393 9.227791061531768,47.81555076976009 9.036619958899536,47.86105574012882 8.812492512166308,47.921909287696955 8.556220293786957,48.00022394900258 8.268714960191438,48.098075286945104 7.950986694106554,48.2174976920668 7.60414248201981,48.36048024633282 7.229384229209934,48.528962655617526 6.828006714996086,48.7248312570134 6.401395391080953,48.94991510697881 5.9510240260836085,49.20598215623295 5.478452199573439,49.494735517190676 4.985322649128683,49.817809829606134 4.473358474149961,50.17676772996329 3.944360200362361,50.5730964300127 4.325167113445438,53.099585218441845 4.947483413291792,53.322381167908304 5.5425071549641345,53.51448748622371 6.108956168402393,53.67785602676746 6.645644501867025,53.81448789493333 7.151484218527067,53.92642931341902 7.625487027754417,54.01576742428134 8.066765748957273,54.08462603407588 8.474535606020197,54.13516130847278 8.848115350655014,54.16955742280419 9.186928213205526,54.190022175054935 9.490502679689463,54.19878256785458 9.75847309410333,54.198080366067515 9.990580085258848,54.190167636607114 10.186670817663966,54.177302277120894 10.3466990662059,54.161743540205364 10.470725114638554,54.14574755981259 10.558915478121442,54.13156288650462 10.61154245030174,54.121426038197534 10.628983475674588,54.11755707301361 12.637131849693887,53.62761112821106 13.83401431018062,57.50780876426388 11.898807880912052,58.234226686002046 11.882217963793117,58.24085487637633 11.833025228825974,58.26212524827998 11.752168420003933,58.30008472186976 11.640682433160038,58.356734583440534 11.49969634064616,58.434026473982 11.330431259196246,58.53385845789316 11.134198064094662,58.658071177737 10.91239495298494,58.80844410080009 10.666504862864173,58.986691863095764 10.398092744014093,59.194460716316755 10.10880269482007,59.43332508310225 9.800354961624912,59.704784225836946 9.47454280795418,60.01025903404492 9.133229257634085,60.35108893527979 8.778343716501631,60.728528934244416 8.41187847757866,61.14374678469965 8.035885114747806,61.59782029854044 7.652470770127351,62.09173479623181 7.263794340495217,62.62638070260493 8.372378714373397,64.92837987486872 9.032717506047057,64.9578466759182 9.657930343746756,64.96603192276484 10.247367339513978,64.95517867967854 10.800485066286775,64.92754871396694 11.316847055943228,64.88541801540491 11.796124120755891,64.83107230396018 12.238094498049108,64.76680253249211 12.642643818096502,64.69490039110065 13.009764895540869,64.61765381979423 13.339557344863643,64.53734253612845 13.6322270206743,64.45623358444062 13.888085283833213,64.37657691327122 14.107548094662103,64.30060098751929 14.2911349347359,64.23050844182715 14.439467558987012,64.16847178162864 14.55326858008782,64.11662913822616 14.633359887309613,64.07708008418433 14.68066090228524,64.05188151524199 14.696186674328981,64.04304360485001 16.470704548113286,62.982952459464464 18.75812121004034,66.33797650316208 17.123006013865933,67.60253382339093 17.109106833626637,67.61375750577801 17.068369146030037,67.64858270791309 17.002293329615544,67.7086887113841 16.912458192188936,67.79568285004922 16.80051790086572,67.91109725904688 16.668198785892525,68.05638574662451 16.51729602296255,68.23292079348741 16.34967019891148,68.44199068419309 16.167243765843587,68.68479677493453 15.97199738889531,68.96245090186753 15.765966192993382,69.27597293394459 15.551235914107906,69.62628847401848 15.329938960637023,70.01422671177517 15.104250390687756,70.44051843184738 14.876383811139352,70.90579418024635 14.648587204488095,71.41058259203261 14.423138689578359,71.95530888292518 14.202342222421837,72.54029350732282 13.988523243396404,73.16575098498348 15.726382491508218,75.0387178124693 16.36606977551992,74.87223721051565 16.96591880491601,74.69577409079082 17.52596971923662,74.51166342235136 18.04636990197667,74.32222666646787 18.527373135831294,74.12976734831287 18.9693385857479,73.93656666951519 19.37272961155392,73.74487916802269 19.73811241216412,73.55692843164283 20.066154503602803,73.37490287155018 20.357623033305178,73.20095156196184 20.613382933387058,73.03718015208479 20.834394915793858,72.88564685633398 21.02171331245729,72.74835852870842 21.17648376380163,72.62726682709119 21.299940759150203,72.52426447311174 21.393405032786813,72.44118161307355 21.458280819625937,72.37978228530766 21.49605297463922,72.34176099916267 21.50828396037404,72.32873943068552 22.891497633494193,70.79269683511784 26.066201488286623,73.32443867689719 24.876464685971325,75.01477392829597 24.866491245771474,75.02959582926147 24.837828327862766,75.07488148959038 24.7924046301132,75.15179334076335 24.732202588299238,75.26140194553494 24.659254484292635,75.40468379626157 24.575638469834395,75.58251926779637 24.483474511788227,75.79569072805323 24.38492026487655,76.04488080912421 24.28216687800483,76.33067084161206 24.177434740374835,76.65353945461402 24.07296917367389,77.01386134356383 23.971036076705385,77.41190620790691 23.873917528895912,77.8478378603487 23.783907359175444,78.32171350917946 23.70330668677998,78.8334832149385 23.634419440570344,79.38298952244115 23.579547863495968,79.96996726894773 23.540988008859568,80.59404356901118 23.521025235056378,81.2547379762943 25.733742936737464,82.53225113700051 26.295939690681355,82.1846156641154 26.81712569311789,81.83918370040232 27.298027544511548,81.4981746474569 27.739470343243806,81.16376338849128 28.142375573120688,80.83807630575518 28.507758838382717,80.52318738776293 28.836727449806318,80.22111443196037 29.1304778656891,79.9338153483277 29.39029299170876,79.66318456926902 29.61753934383811,79.41104957098781 29.813664078685104,79.1791675113881 29.980191895807835,78.96922198937625 30.118721816729025,78.78281993026651 30.230923845543025,78.62148860181509 30.318535516170236,78.48667276522413 30.38335833146882,78.37973196526775 30.42725409956192,78.30193796349633 30.45214117287956,78.25447231827633 30.45999059554812,78.23842411521738 31.328995463014174,76.3629141948957 35.10890014121531,77.84641746174864 34.4702550687188,79.81233693931651 34.465093552487865,79.82944006791476 34.45105223030839,79.88116235678446 34.43031674610741,79.96804610016059 34.40509701551357,80.09052996549525 34.37762285799205,80.24894803673173 34.35013959387622,80.44352903015972 34.324903612841126,80.6743956840792 34.30417792040514,80.94156432325966 34.29022766907896,81.24494459893847 34.285315680805084,81.58433940485858 34.29169796734608,81.95944496960139 34.31161925528623,82.36985112522567 34.34730852230878,82.81504175197858 34.40097455139989,83.29439539860023 34.47480150960993,83.8071860774983 34.57094455797434,84.35258423382699 34.69152549915834,84.92965788726107 34.83862846934363,85.53737394501593 35.0142956808203,86.17459968442476 37.505262157924534,86.74314652774844 37.94001473305289,86.24524512127083 38.33622804502629,85.7615374594486 38.69525059359365,85.29393017284502 39.01851187841093,84.84425831869599 39.30751920651504,84.41428219793413 39.56385438054591,84.00568430297818 39.789170272807134,83.62006640061395 39.985187290408845,83.25894675410046 40.15368973688273,82.92375748843878 40.29652207579817,82.6158421025382 40.415585102039906,82.3364531318089 40.512832026531925,82.08674996449753 40.59026448030847,81.86779681486746 40.64992844394152,81.68056085610559 40.69391010843466,81.52591051561382 40.7243316737857,81.40461393511734 40.7433470915043,81.3173375977911 40.75313775744689,81.26464512437347 40.75590816139847,81.24699624000093 41.03348932717102,79.1986662818855 45.082733710284224,79.50211519830529 45.05192678494555,81.56893832916482 45.0520358160516,81.58680299736406 45.05386372269633,81.6403661624289 45.05965889081136,81.72950179612619 45.07166235517588,81.85397769307735 45.092103343603576,82.01345584398808 45.12319483845517,82.20749298413855 45.1671291620924,82.43554131637828 45.22607359285824,82.69694940762679 45.30216601812759,82.99096325764009 45.397510630923875,83.31672753856279 45.514173676539464,83.67328700354753 45.65417925553164,84.05958806248802 45.819505189391485,84.47448052267816 46.012078955099945,84.91671949197953 46.23377369469426,85.38496744185173 46.48640430586872,85.87779642737627 46.77172361952614,86.3936904611842 47.09141867008143,86.931048037981 47.44710706419537,87.48818480614996 49.99498901380573,87.29724745003503 50.26366773593814,86.69332083493481 50.49970306592608,86.11431702347245 50.70494558268243,85.5616604626862 50.881302169819946,85.03668333094734 51.030732026761456,84.54062343740854 51.15524260444015,84.07462228155805 51.25688547172907,83.63972327551349 51.337752118829286,83.2368701314594 51.3999697039274,82.8669054164026 51.44569674950689,82.53056927618431 51.47711879476229,82.22849833045305 51.49644401062139,81.96122474006208 51.50589878392852,81.7291754481164 51.507723277380826,81.53267159565154 51.504166971839325,81.37192811268349 51.49748419765854,81.2470534851253 51.48992966169055,81.15804969782158 51.48375397662348,81.10481235370658 51.481199199309266,81.08713096884776 51.142692358664526,79.04798407866512 55.1014833134339,78.14441587676427 55.68125186576337,80.12849635563467 55.68662175631416,80.14553520926756 55.70415647425607,80.1961799282535 55.735967368568424,80.27964736005265 55.78412746740617,80.39505505892271 55.850667330257494,80.54142295594093 55.93757096831616,80.71767519139357 56.04677183916794,80.92264210686042 56.18014892178869,81.15506239409899 56.33952287774228,81.41358539761457 56.52665230434884,81.69677356758686 56.74323008546872,82.00310505961421 56.99087984541511,82.33097647752982 57.271152511367895,82.67870575534373 57.58552298951445,83.04453517416864 57.93538695998875,83.42663450979651 58.32205779551923,83.82310430640868 58.74676360852844,84.23197927172296 59.21064443125324,84.6512317887084 59.71474953327465,85.07877553883124 62.093156462972466,84.1453196052833 62.17188804857031,83.48902931160043 62.22677262167937,82.86617638006274 62.25999840831898,82.27757650581304 62.27378024108142,81.72394061846357 62.27035512830895,81.20587405061173 62.25197779840303,80.7238758815764 62.22091622590867,80.27833845706142 62.17944714603509,79.86954708520784 62.12985156428408,79.49767990925213 62.074410267858056,79.16280795676138 62.01539934551282,78.86489536517288 61.95508572250259,78.60379978311936 61.89572271724039,78.37927294677897 61.83954562626205,78.19096143024561 61.788767344039854,78.03840756867413 61.74557402414008,77.92105055271607 61.712120788158806,77.8382276925235 61.69052748880182,77.78917584936397 61.68287453339763,77.77303303265708 60.7583575046397,75.92425636024869 64.27493908186601,73.89395704000981 65.41376813171676,75.61900060934967 65.42392174337147,75.63369967149717 65.45560523597157,75.6769259388716 65.51060531892179,75.74730872116648 65.59064281610392,75.8433937414525 65.69736919455914,75.9636459546032 65.83236320621305,76.10645250076783 65.99712764768405,76.27012578954007 66.19308624305319,76.45290671028798 66.42158065430345,76.65296796393395 66.68386762396233,76.868417511303 66.98111625429806,77.09730213299271 67.31440542723436,77.33761109556158 67.68472136895383,77.58727991868068 68.09295536296305,77.8441942377506 68.53990161518794,78.10619375634829 69.02625527446055,78.37107628274006 69.5526106115449,78.63660184457429 70.11945935963269,78.90049687575481 70.72718921901813,79.16045846938829 72.72478923563287,77.567425614507 72.6065780378079,76.91708591491769 72.47543511886039,76.30572707961687 72.33369191843133,75.73348357375883 72.18367442049718,75.20038190898079 72.02769867431144,74.70634115486723 71.86806634323064,74.25117362518 71.70706028798057,73.83458573757154 71.54694019086404,73.45617904525905 71.3899382273491,73.1154514389003 71.23825479140514,72.81179851667726 71.0940542808748,72.54451512036202 70.95946094908169,72.3127970349105 70.83655482877795,72.11574284890406 70.7273677344315,71.95235597293764 70.63387934874088,71.82154681283497 70.55801339914598,71.72213509435767 70.50163392997544,71.6528523358665 70.46654167573705,71.61234446518765 70.45447054091498,71.59917457673868 69.02609071922517,70.10504004267082 71.7879992135078,67.12841060851895 73.38469880213164,68.44113957696342 73.39873394193636,68.45219277144795 73.44175099183643,68.4841597436593 73.51505326469048,68.53520405737325 73.6198564773536,68.60342882336064 73.75728626432597,68.68688041578723 73.92837583922818,68.78355228434093 74.1340638076369,68.89138885644277 74.37519213460573,69.00828952377066 74.65250426998189,69.13211270720625 74.96664343441148,69.26067999420354 75.3181510687036,69.39178034247486 75.70746544899897,69.52317434379425 76.13492046995863,69.65259854163084 76.6007445979574,69.77776979624646 77.10505999603137,69.89638969082064 77.64788182209188,70.00614897210426 78.22911770167909,70.10473201904972 78.84856737628746,70.18982133282071 79.505922528052,70.2591020415478 80.94522010378415,68.14804022539889 80.64056970622444,67.56143665618043 80.33505191908003,67.01589383253702 80.03093423697024,66.51085304181538 79.7304471213719,66.04565402200242 79.43577987130976,65.61953677069229 79.14907657220556,65.23164351283565 78.87243212877218,64.88102082411356 78.60788838771697,64.56662190656454 78.35743035588818,64.2873090128862 78.1229825193617,64.04185601562928 77.90640526882038,63.8289511173038 77.70949143642733,63.64719969722472 77.53396294923566,63.49512729073693 77.38146760401345,63.37118269627858 77.25357596819003,63.27374120556637 77.15177841145375,63.20110795201769 77.077482272347,63.151521372362225 77.03200916401609,63.123156776239725 77.01659242307841,63.11413001843246 75.21126762395542,62.10739803295848 76.9730953451416,58.44892507284109 78.88579170708856,59.232697710727685 78.90246129127942,59.23912291271315 78.95298964481864,59.256990183995704 79.03808087895172,59.28416051785095 79.15833758172937,59.31846295968229 79.31425953754572,59.3576988911764 79.50624261615197,59.39964636236064 79.73457783285849,59.44206446512782 79.99945058140159,59.48269774173351 80.3009400407112,59.519280621721364 80.63901875657493,59.549541880688935 81.01355239895074,59.57120911427357 81.42429969543792,59.582013220713165 81.87091254117003,59.57969288532071 82.35293628515018,59.56199906020445 82.86981019280267,59.526699432567355 83.42086808427123,59.4715828749301 84.00533914774832,59.394463870641125 84.62234892687823,59.293186908065714 85.27092048103202,59.165630836882656 86.0240277100244,56.72411716607312 85.56000763748936,56.253372028617946 85.10726157827857,55.822119090587904 84.66779160514196,55.42915610559328 84.24353447076632,55.07319470514808 83.83635819512173,54.752863344405014 83.44805877429624,54.46671037658106 83.08035701551277,54.213207251320625 82.7348955028427,53.99075183207622 82.41323569794504,53.79767182742607 82.11685517996878,53.63222833109428 81.84714502856073,53.49261946529253 81.60540735371794,53.37698412186289 81.39285297601941,53.28340579556896 81.21059926055923,53.209916503758194 81.05966810768915,53.15450078650116 80.9409841034587,53.11509978120469 80.8553728324186,53.08961536559445 80.80355935522584,53.07591436286975 80.78616685326008,53.07183280274866 78.76430810764342,52.64195592074846 "
     id="polyline6844"
     transform="matrix(3.7795321,0,0,3.7795321,164.74951,91.235251)" />
</svg>
