<?xml version="1.0" encoding="UTF-8" standalone="no"?>
<svg
   xmlns:dc="http://purl.org/dc/elements/1.1/"
   xmlns:cc="http://creativecommons.org/ns#"
   xmlns:rdf="http://www.w3.org/1999/02/22-rdf-syntax-ns#"
   xmlns:svg="http://www.w3.org/2000/svg"
   xmlns="http://www.w3.org/2000/svg"
   xmlns:sodipodi="http://sodipodi.sourceforge.net/DTD/sodipodi-0.dtd"
   xmlns:inkscape="http://www.inkscape.org/namespaces/inkscape"
   width="1276.4705882352941mm"
   height="1276.4705882352941mm"
   viewbox="0 0 127.64705882352942 127.64705882352942"
   version="1.1"
   id="svg7227"
   sodipodi:docname="N31.svg"
   inkscape:version="0.92.2 5c3e80d, 2017-08-06">
  <metadata
     id="metadata7233">
    <rdf:RDF>
      <cc:Work
         rdf:about="">
        <dc:format>image/svg+xml</dc:format>
        <dc:type
           rdf:resource="http://purl.org/dc/dcmitype/StillImage" />
        <dc:title></dc:title>
      </cc:Work>
    </rdf:RDF>
  </metadata>
  <defs
     id="defs7231" />
  <sodipodi:namedview
     pagecolor="#ffffff"
     bordercolor="#666666"
     borderopacity="1"
     objecttolerance="10"
     gridtolerance="10"
     guidetolerance="10"
     inkscape:pageopacity="0"
     inkscape:pageshadow="2"
     inkscape:window-width="1680"
     inkscape:window-height="1006"
     id="namedview7229"
     showgrid="false"
     inkscape:zoom="1.5653579"
     inkscape:cx="116.13247"
     inkscape:cy="4677.9047"
     inkscape:window-x="0"
     inkscape:window-y="0"
     inkscape:window-maximized="1"
     inkscape:current-layer="svg7227" />
  <polyline
     points="115.864379175065,67.24101814912875 116.82963002582213,67.30440554434226 116.85045096858654,67.30538274258188 116.91296681964198,67.30675815589488 117.01718352176073,67.30619598475326 117.16300887473673,67.30136132558891 117.35025261591355,67.2899238357511 117.57862662899709,67.26956139393657 117.84774528094201,67.2379637517827 118.15712588656098,67.19283617232229 118.50618930036465,67.13190305101222 118.89426063500103,67.05291151506617 119.3205701055231,66.95363499684338 119.78425399857545,66.83187677707255 120.2843557654524,66.68547349372113 120.8198272378448,66.51229861235535 121.38952996495536,66.31026585387676 121.99223667053047,66.07733257556511 122.62663282822204,65.81150310140563 123.29131835356299,65.51083199773186 123.98480941071037,65.17342729027177 123.98480941071037,62.473631533257645 123.29131835356299,62.136226825797564 122.62663282822204,61.835555722123786 121.99223667053047,61.56972624796431 121.38952996495536,61.33679296965267 120.8198272378448,61.134760211174076 120.2843557654524,60.96158532980828 119.78425399857545,60.81518204645686 119.3205701055231,60.69342382668605 118.89426063500103,60.59414730846325 118.50618930036465,60.515155772517204 118.15712588656098,60.45422265120713 117.84774528094201,60.40909507174671 117.57862662899709,60.37749742959286 117.35025261591355,60.35713498777832 117.16300887473673,60.345697497940506 117.01718352176073,60.34086283877616 116.91296681964198,60.34030066763454 116.85045096858654,60.341676080947536 116.82963002582213,60.34265327918716 115.864379175065,60.40604067440068 115.48703534839117,56.69531591239732 116.445287246376,56.56310219613523 116.4658786917783,56.55986816610416 116.5273917083544,56.5486310763263 116.62936192423946,56.52710174495594 116.77122901393827,56.49301162380324 116.9523375149552,56.44411637205957 117.17193776917185,56.3781993997648 117.42918698789755,56.29307537683734 117.72315043938359,56.18659370352438 118.052802757456,56.056641938171424 118.4170293697887,55.90114917825561 118.81462804420676,55.71808939067721 119.24431055127955,55.50548468735771 119.70470444133406,55.26140854225127 120.1943549338935,54.983988945938336 120.71172691742032,54.67141149403689 121.25520705712125,54.32192240573675 121.82310600845143,53.9338314688369 122.41366073383708,53.50551490774352 123.02503692002112,53.035418170968335 122.48157202959253,50.390887391706556 121.73435770684317,50.19998810192835 121.02275368505161,50.03927196598593 120.34783257423294,49.90658704447257 119.71057418612492,49.799745891932 119.11186441201576,49.71652907174621 118.55249422478539,49.65468870531785 118.03315880618138,49.61195205134352 117.5544568002116,49.58602511094479 117.11688969339792,49.57459625439813 116.72086132249429,49.575339865184596 116.36667751013368,49.585919997063186 116.0545458287265,49.60399403986069 115.78457549279307,49.62721638966277 115.55677737977112,49.65324211908885 115.37106417919841,49.67973064333469 115.22725067002978,49.70434937767294 115.12505412570702,49.724777382112634 115.06409484645977,49.738708988933865 115.04389681817639,49.743857408833435 114.11116449788909,50.000250828114815 112.99458151846767,46.441443573859516 113.90660351838685,46.11904159120005 113.9261224502329,46.11172873446773 113.98411428220356,46.08833918937482 114.07966333923561,46.046724111131624 114.21176411033625,45.98477418155598 114.37932276788234,45.90042294525777 114.58115880302253,45.791650091073436 114.81600677528888,45.65648467487269 115.08251817439893,45.49300827992368 115.37926339210568,45.29935811107006 115.70473380183097,45.07373001904506 116.0573439436985,44.814381451323115 116.43543381246663,44.51963432598883 116.83727124574582,44.18787782518575 117.26105440977545,43.81757110479416 117.70491437992433,43.407245917077 118.16691781297554,42.95550914312659 118.64506970815157,42.4610452320418 119.1373162537374,41.92261854386503 119.64154775606207,41.339075593412346 118.57686749167345,38.85807719272506 117.80652094548942,38.82149875998198 117.07713157950933,38.80731732925976 116.38931686514033,38.81320909666907 115.74359622778323,38.83683415923788 115.14039065517292,38.87584018374086 114.58002243429299,38.927866084117454 114.06271501701889,38.99054570315526 113.58859301450116,39.061511494114825 113.15768232016077,39.13839819797417 112.76991036102606,39.21884651198017 112.42510647700139,39.3005067452052 112.12300242751675,39.38104245682488 111.8632330248681,39.4581340728535 111.64533689341997,39.529482477099585 111.46875735370318,39.59281257213419 111.33284343030468,39.645876806098656 111.23685098231007,39.68645866121772 111.17994395492578,39.71237609992701 111.16119575077452,39.721484964570934 110.29916813174101,40.160387631209844 108.48905903794244,36.899195871833925 109.31751285196125,36.39980479782778 109.33516016288789,36.38871250360806 109.38725661783847,36.35412807392436 109.47247272639609,36.29413097500115 109.58939895780853,36.2068574743982 109.73654790075653,36.09050360307038 109.91235652582691,35.94332804042704 110.11518854805587,35.76365491897351 110.34333688679658,35.549876545205336 110.59502622005868,35.30045603351685 110.86841563036124,35.01392984998034 111.16160133904023,34.68891026294957 111.47261952585266,34.32408769754299 111.79944923062425,33.91823299116589 112.14001533359627,33.47019954733765 112.49219161103797,32.97892538520108 112.85380386260724,32.443435082202754 113.22263310686014,31.86284160754986 113.59641884123336,31.236348044166114 113.97286236274881,30.563249196990853 112.43055485951886,28.347355540907138 111.6686141680128,28.466595490533443 110.951300744187,28.599529354471436 110.27875164148872,28.743756601153436 109.65100463364493,28.89688066599424 109.06799856954976,29.056512623959833 108.52957385582354,29.220274844667166 108.0354730663236,29.385804625749167 107.58534167774798,29.550757800247013 107.17872893033706,29.712812313822546 106.8150888125395,29.869671767620403 106.49378116837548,30.01906892264897 106.21407292609497,30.158769161594577 105.97513944659715,30.286573904031627 105.77606598994603,30.400323971044813 105.61584929818841,30.4979028953365 105.49339929255315,30.577240172953886 105.40754088298624,30.636314452835585 105.35701588785233,30.67315666044702 105.34048506151396,30.68585305184652 104.58445365574141,31.289296239101894 102.15492452654459,28.459233548407965 102.86589315817793,27.803298512300906 102.88094636520233,27.788880900422434 102.92501460814611,27.74451747676268 102.99640901073246,27.66859464543876 103.09337372880444,27.55957056117738 103.21408866214078,27.4159775959831 103.35667225137433,27.23642470970777 103.51918435674408,27.019599721704466 103.69962921532112,26.764271480857076 103.8959584732626,26.46929193138793 104.10607428956277,26.13359807195929 104.32783250769205,25.756213805700902 104.55904589143759,25.336251678914614 104.79748742118736,24.872914506328463 105.04089364683128,24.365496880895613 105.28696809338837,23.81338656625976 105.5333847154088,23.216065770135714 105.7777913961433,22.573112296983844 106.0178134874207,21.884200578487913 106.25105738612584,21.149102580479195 104.29426489445021,19.289032615635563 103.57192399905662,19.559209250083477 102.8960534132373,19.83381608067299 102.26630416149538,20.110474126202533 101.68223081942313,20.386828276109426 101.14329260060747,20.660550816422557 100.64885456507717,20.929344912903638 100.19818894772789,21.190948047343404 99.79047660503085,21.443135403034418 99.42480857820335,21.683723195499766 99.1001877708915,21.9105719446208 98.81553073929223,22.121589684372616 98.56966959251915,22.31473510644762 98.36135400089628,22.488020634121327 98.18925330974763,22.639515422793025 98.05195875613438,22.76734828371626 97.94798578588035,22.869710527519167 97.87577646811673,22.94485872420421 97.83370200447038,22.99111737640939 97.82006532991751,23.006881502808817 97.20098215198817,23.750160175692855 94.25149819539996,21.467089652756158 94.81587450533347,20.68146471199551 94.8277173283914,20.664312041182583 94.86195320028445,20.611985867323902 94.91660300166916,20.523245593234215 94.98963645944994,20.396934384133843 95.07897529962042,20.23198103793961 95.18249646412109,20.027401744292987 95.29803538794341,19.78230173022461 95.42338933264527,19.4958767904781 95.55632077237827,19.167414700642183 95.69456082846918,18.79629651136878 95.83581274854305,18.381997722084158 95.97775542612473,17.924089332732237 96.11804695660902,17.422238772222535 96.25432822544796,16.876210702389322 96.38422652436589,16.28586769640559 96.50535919137926,15.651170790731342 96.61533727036951,14.972179909815175 96.71176918593278,14.249054162905978 96.79226442920964,13.482052012472607 94.50109826361091,12.053957221778695 93.84792988545865,12.464009477889505 93.24117235884066,12.86904683922127 92.68000496641383,13.266809270708436 92.16351732136326,13.655079534314012 91.69071114182798,14.03168642401323 91.2605021357622,14.39450793437615 90.8717219938888,14.741474359112658 90.52312048828453,15.070571316024093 90.21336767402296,15.379842694887856 89.94105619118946,15.667393524889441 89.70470366447441,15.931392758305535 89.50275519744511,16.170075967236585 89.33358595849428,16.381747950283795 89.19550385536469,16.564785246165904 89.08675229505215,16.717638551374755 89.00551302579785,16.83883503907485 88.94990905779099,16.926980576561405 88.91800765911748,16.9807618387039 88.90782342340852,16.998948314916255 88.45103381136602,17.851632557229543 85.10234724711879,16.209023377508515 85.49702560291239,15.32587210947603 85.50517319543638,15.306686612087084 85.52817507566085,15.248539927735308 85.56384290655417,15.150615248127622 85.60995510570112,15.012188109929781 85.66426031009232,14.832627592109986 85.72448088122218,14.611397391410996 85.78831644638058,14.348056774651539 85.8534474719827,14.042261406692631 85.91753886474578,13.693764053040475 85.97824359648851,13.302415156195693 86.03320634830276,12.8681632849962 86.08006716982285,12.391055456340673 86.11646514930007,11.871237328819603 86.14004209017541,11.308953267920586 86.14844618983408,10.704546282616306 86.13933571622036,10.058457833283896 86.11038267799061,9.371227511046165 86.05927648388635,8.643492588765831 85.98372758701738,7.875987444065487 83.45198835951575,6.938334196046327 82.89473328875039,7.471474486275753 82.38192954576446,7.990360101186987 81.91231827163304,8.492942477951594 81.48456138847725,8.977233025044 81.09724398876486,9.441305933815599 80.74887681941935,9.883300902796385 80.43789885770988,10.301425771634094 80.16267997579675,10.693959061682747 79.92152369071138,11.059252420356401 79.71266999645867,11.395732966472487 79.53429827484182,11.701905533918207 79.3845302815244,11.976354811087575 79.26143320376481,12.217747373651925 79.16302278618035,12.424833608345061 79.0872665208255,12.596449525564786 79.03208689779942,12.731518458715641 78.99536471253272,12.829052648342355 78.97494242584196,12.88815470923101 78.96862757278342,12.908018978783339 78.69283254701527,13.835199797459438 75.08203899650327,12.900300573770238 75.29086121989805,11.955779295145035 75.29498001849288,11.935346427697375 75.30580620736976,11.87375976494181 75.32103182258412,11.770659727704931 75.33833492424621,11.62578388371194 75.35538323140975,11.438967422963586 75.36983777191116,11.210143505622277 75.37935654286767,10.939343481963093 75.38159817752934,10.626696984085449 75.37422561417235,10.272431889222275 75.35490976271687,9.876874154624488 75.32133316475436,9.44044752413945 75.27119364267392,8.963673106743265 75.2022079335877,8.44716882742759 75.11211530376981,7.891648750981531 74.99868113934174,7.297922279349876 74.85970050896113,6.666893223387127 74.69300169429836,5.99955874996639 74.4964496841179,5.29700820553829 74.26794962781754,4.56042181737304 71.59928703985365,4.151597746172101 71.16075936454703,4.785999244396827 70.76290365068289,5.397489874846592 70.40407443558678,5.9843164153329695 70.08256073138146,6.544800334012535 69.79658893134409,7.077340062445131 69.54432579156324,7.580413164081513 69.32388148430844,8.05257839576263 69.13331271944884,8.4924776599332 68.9706259301857,8.898837845392492 68.83378051929579,9.270472554530315 68.72069216201788,9.60628371512069 68.62923616165577,9.905263074874625 68.55725085391417,10.166493577082328 68.50254105593349,10.38915061580655 68.46288155594094,10.572503169222152 68.43602063939308,10.71591480983065 68.41968364744604,10.818844590414422 68.41157656355466,10.88084780473227 68.40938962397276,10.901576622095142 68.32588026523842,11.865295125478319 64.60080604066985,11.676380741884785 64.61522292530447,10.709158264790318 64.6151443058717,10.688314551278012 64.61335157795637,10.625809275327995 64.60751163901594,10.521754808100134 64.59529725217813,10.376361492387247 64.57439070241563,10.189937376563371 64.54248744170211,9.962887820641392 64.49729971885536,9.695714974868729 64.43656018979016,9.389017131429867 64.35802550392317,9.043487949963755 64.25947986249759,8.659915557743453 64.138738544624,8.239181525502886 63.993651396868124,7.7822597200328545 63.822106282253934,7.290215034804433 63.622032484593014,6.764202000011878 63.39140406409784,6.205463273561335 63.12824316028763,5.615328014662133 62.83062323825042,4.995210141808705 62.49667227438444,4.34660647706793 62.124575877805235,3.6710947787144548 59.42824528928486,3.8078371898415 59.12639838398884,4.517527424185211 58.85977895891815,5.1965885719157825 58.626422313084035,5.8436345286072395 58.42431459665562,6.4573655413891515 58.251396115387045,7.03656985042997 58.10556468775315,7.580125212832357 57.98467905079315,8.087000307294794 57.88656231061127,8.556256018026176 57.809005433437704,8.98704659653312 57.74977077311105,9.378620700035341 57.7065956308064,9.73032230539966 57.67719584280002,10.041591497621262 57.65926939203328,10.311965132018642 57.650500039213846,10.541077369447493 57.64856096917306,10.728660083979129 57.65111844818294,10.874543142628603 57.655835487925366,10.9786545568586 57.660375511800446,11.041020505726394 57.66240601925859,11.061765230681445 57.774601210516614,12.022566670011088 54.087751288322934,12.587371303574024 53.90717260524651,11.637045829866345 53.902899786474975,11.616644614369626 53.88856153625892,11.555779698566603 53.8618951309501,11.455030803461952 53.82066331404464,11.315072435457445 53.762657823959806,11.136672889763801 53.68570288527344,10.920693130757762 53.58765865930612,10.668085550569032 53.46642464997055,10.379892607314808 53.3199430608604,10.057245344532937 53.1462020996033,9.701361793495465 52.94323922555887,9.313545260213438 52.709144337003714,8.895182499071538 52.44206289400955,8.447741775156423 52.1401989732895,7.972770817465687 51.80181825135999,7.471894665306152 51.42525091244228,6.94681341030779 51.00889447760767,6.399299836597031 50.55121655175441,5.831196961785743 50.050757485091786,5.244415481543925 47.43714698711435,5.921126124620855 47.28433849959727,6.6770502935044505 47.159870793908865,7.395881115341446 47.061540365835434,8.076656350746354 46.98711295084115,8.718508237856994 46.93432709128156,9.320664435040278 46.90089773157642,9.88244883780689 46.8845198370918,10.403282269128056 46.88287203245895,10.882683042487699 46.89362025503898,11.320267397142466 46.91442141922915,11.715749805203707 46.94292708729654,12.06894315029517 46.976787142421216,12.37975877768232 47.01365345962999,12.648206415909591 47.05118357030658,12.874393970123194 47.08704431597288,13.058527187397907 47.11891548704932,13.200909194526716 47.14449344231995,13.301939908871788 47.1614947048506,13.362115323015189 47.167659530134884,13.382026664085359 47.47096598707279,14.300575715545925 43.97328043625506,15.595976198205555 43.60509909796984,14.701454164436775 43.59680700956208,14.682330675115104 43.570510246693814,14.62559793626339 43.52410910078312,14.532279284885028 43.455547889238645,14.40348577661942 43.36281821041091,14.240414499417732 43.243962137983345,14.044346774037905 43.09707535102626,13.816646243446158 42.92031019600691,13.558756853334636 42.71187867712263,13.272200726084733 42.47005537140157,12.958575930624107 42.19318026509681,12.61955415073971 41.87966150798479,12.256878254522618 41.52797808226758,11.872359767729932 41.13668238287018,11.467876253955602 40.704402706020176,11.045368604606935 40.22984564309503,10.606838241783464 39.71179837682496,10.154344237253227 39.149130877043724,9.69000035081546 38.540797993288294,9.215971991430273 36.116909106727206,10.4049462532194 36.119395034422226,11.176156732351465 36.142174770611334,11.905328209989854 36.182896219577245,12.591961705983032 36.239196173131816,13.235656975749698 36.308703994573655,13.836112715612416 36.38904530471139,14.393126639287125 36.477845665626674,14.906595425593402 36.572734257858116,15.376514537592762 36.67134754669646,15.802977913501813 36.771332933297465,16.18617752986883 36.87035238633695,16.526402837640937 36.9660860499575,16.824040071889108 37.05623582378365,17.079571436095996 37.13852891081556,17.293574162048927 37.210721329047914,17.466719446516763 37.270601382702345,17.599771266023872 37.31599308900711,17.69358507116813 37.34475955650776,17.749106362061802 37.354806310946714,17.76736914660419 37.836806631580444,18.606060304103963 34.67148110954983,20.579022787897074 34.13077050330469,19.776926031231554 34.11879862433439,19.759863185984685 34.08161994137548,19.70958526907868 34.01738372322839,19.627517337978503 33.92430002110114,19.515161510812774 33.80064251747698,19.37409465935177 33.6447512928784,19.205966003312163 33.45503550724803,19.012494608793517 33.22997599276042,18.795466793756567 32.968127754974795,18.55673344355717 32.668122379339025,18.29820723964888 32.328670340157494,18.021859804663947 31.948563209241676,17.729718767175413 31.52667576157132,17.423864749533465 31.061967975405196,17.106428282254235 30.553486924395635,16.77958664852332 30.000368559377314,16.445560662453858 29.401839377620846,16.106611384815395 28.757217977463306,15.765036780020004 28.065916496352095,15.42316831822064 25.930983517017978,17.07572945274579 26.088662085753192,17.83065279449727 26.257756658743723,18.540312561968513 26.435862843843758,19.204693462548008 26.620585239233677,19.82387915499546 26.809541083300296,20.39805170899708 27.000363880604155,20.92749093809828 27.19070699970988,21.41257360694827 27.378247238690726,21.853772513928945 27.560688354155772,22.251655450375246 27.735764549692384,22.606884037729934 27.901243919662242,22.92021244410772 28.054931844341795,23.192485981875905 28.194674332452742,23.424639587988118 28.318361307187857,23.61769618893561 28.423929831901567,23.772764952306744 28.509367271701784,23.891039427068613 28.572714387251253,23.973795574806793 28.61206835716252,24.022389694278075 28.62558572544897,24.03825624174773 29.266546760019168,24.762753390756643 26.563170065557458,27.332504559783544 25.872066947102873,26.655671015681534 25.85690540770171,26.641367369398672 25.810366904300814,26.599602658263905 25.730925452235716,26.532145318183744 25.61713011722764,26.440827032883305 25.46760734153456,26.32753990063643 25.28106316981647,26.19423352086961 25.056285372067194,26.042912004047565 24.792145461077816,25.875630908332496 24.487600602011646,25.69449410659073 24.141695411788838,25.501650587398352 23.75356364609854,25.299291193770593 23.32242977197931,25.089645303410506 22.8476104240331,24.874977454337873 22.328515742464745,24.657583919821377 21.76465059126795,24.43978923659541 21.15561565500893,24.223942690396036 20.501108412791375,24.012414762900704 19.800923988119777,23.807593544201325 19.05495587351396,23.611881114981706 17.296383208424743,25.660373075227703 17.602799039069687,26.36810262928757 17.911285697175643,27.02919713232992 18.21948493026521,27.644125605364557 18.525067210919254,28.21345218549277 18.825735203153208,28.737834861810065 19.119227179880845,29.21802409209188 19.40332038751645,29.654861302028074 19.67583435382778,30.0492772688996 19.934634135216463,30.402290391715773 20.177633499672837,30.715004849954248 20.4027980417235,30.988608653166082 20.608148225768126,31.224371583827264 20.791762354281545,31.42364303593368 20.951779457441603,31.58784975194976 21.08640210083113,31.718493460831972 21.19389910795323,31.81714841995519 21.272608194393854,31.885458863875456 21.32093851056367,31.925136362963624 21.33737309005174,31.9379570950429 22.111053818493367,32.51859923715572 19.980302511105158,35.57993317662347 19.167100723311826,35.05607248990508 19.149370238684305,35.04511363554565 19.095377206638673,35.01357198236313 19.003982863037088,34.963486944731756 18.87413468953381,34.896944782626264 18.704868121776876,34.81607535809838 18.49530814324742,34.72304883345482 18.24467076282935,34.620072315007604 17.95226437432924,34.50938644632768 17.617490996295196,34.39326195498954 17.23984739061519,34.273996156846934 16.818926058507046,34.15390942192771 16.354416112646923,34.035341606079754 15.846104024318691,33.92064845253987 15.293874244602542,33.81219796763185 14.697709698759851,33.71236677483191 14.057692153109151,33.62353645146491 13.374002453828219,33.548089852317844 12.646920637256805,33.48840742447351 11.876825911415857,33.44686351768111 10.56660973210382,35.807420802107906 11.009218124549548,36.43898203737826 11.444467387742435,37.02444598936185 11.870141956006968,37.56474679091457 12.284073547450781,38.06090596164007 12.68414430492301,38.51403047189224 13.068289865063349,38.9253106998471 13.434502351928707,39.29601828416852 13.780833291770705,39.62750387490527 14.105396445625296,39.92119478536594 14.40637055646937,40.17859254782553 14.682002007793571,40.40127037602084 14.930607390540857,40.59087053749279 15.15057597546167,40.74910163893075 15.340372088042095,40.87773582776826 15.498537383269579,40.97860591336993 15.623693017611608,41.053602411236525 15.714541715696583,41.10467051373865 15.769869729302393,41.13380699096912 15.788548686376856,41.14305702538032 16.663274528763893,41.5560726030764 15.192381817326293,44.983657941811735 14.290373936933626,44.63421703054223 14.27080039520363,44.627051624891315 14.211563315589139,44.60702434864832 14.111957775616482,44.5763621007911 13.971372763097733,44.53732030581553 13.789292196448898,44.492179392748554 13.565295821251318,44.44324124007732 13.299059981967432,44.392825590769384 12.990358267858056,44.3432664415934 12.63906203228705,44.29690841097831 12.24514078473765,44.25610308967458 11.80866245500431,44.22320537850106 11.329793529164405,44.20056981747719 10.808799057074438,44.190546910651854 10.246042531276323,44.19547945094685 9.641985637340895,44.21769884933581 8.99718787581633,44.25952147267696 8.312306056090726,44.32324499451185 7.588093662618391,44.41114476313088 6.825400094100559,44.52547019119098 6.017180804890579,47.101451307220444 6.577861319546102,47.63098803252402 7.122054031851164,48.11685247046556 7.647776768451287,48.560405622238136 8.153111262696257,48.96308456881519 8.636205841589529,49.32639994231266 9.095278020775247,49.65193330708471 9.528617004629943,49.94133445373294 9.934586088633317,50.19631860930225 10.311624961300453,50.418663567025945 10.658251903071317,50.610206739068595 10.973065879666528,50.77284213579753 11.254748527536904,50.90851727519251 11.50206602915324,51.0192300260778 11.713870876004897,51.107025388931845 11.889103517300086,51.1739922180967 12.026793892486928,51.2222598892723 12.126062845842391,51.25399491623959 12.186123421506387,51.27139752081118 12.206282037469947,51.27669816005867 13.146241615039138,51.50517826705986 12.39542601998096,55.15868925857076 11.44154035559366,54.99797427471507 11.420925099859396,54.994895670321924 11.358869145675534,54.98720269006094 11.255130271841438,54.977218548007826 11.109563987237792,54.96727549583567 10.922123821489194,54.959711168514424 10.692861487542551,54.95686492153585 10.421926915934492,54.96107416397345 10.10956816066242,54.97467069169163 9.756131176714291,54.99997702501981 9.362059469453925,55.03930275520355 8.927893616198709,55.094940903936504 8.454270660467621,55.16916430026459 7.94192337951754,55.26422197913688 7.391679425924707,55.38233560585566 6.80446034410793,55.525695930652816 6.181280462826834,55.696459277588566 5.523245664826305,55.89674407193429 4.831552034933182,56.12862741016164 4.107484388046238,56.394141676616805 3.834350581600333,59.080085654693754 4.49014889231848,59.4859185742787 5.1210057401540325,59.8522921510022 5.725253494483525,60.180938534845794 6.301302437960992,60.47365153388876 6.847642889454214,60.7322835965528 7.362847218730749,60.958742723939736 7.845571750660611,61.1549893159678 8.294558556826914,61.3230329550813 8.708637132559417,61.46492913137439 9.086725957534043,61.58277591303131 9.427833938209382,61.67871056604294 9.731061730502724,61.75490612721296 9.995602941239845,61.81356793451614 10.220745207046605,61.85693011891596 10.405871149485918,61.88725206178973 10.550459205379497,61.90681482214519 10.654084331391452,61.917917537844914 10.716418582089155,61.922873805081714 10.73723156083571,61.924008040371916 11.703942818040822,61.958598674252315 11.703942818040822,65.68846014927708 10.73723156083571,65.72305078315746 10.716418582089155,65.72418501844767 10.654084331391452,65.72914128568448 10.550459205379497,65.74024400138418 10.405871149485918,65.75980676173965 10.220745207046605,65.79012870461342 9.995602941239845,65.83349088901325 9.731061730502724,65.89215269631642 9.427833938209382,65.96834825748644 9.086725957534043,66.06428291049808 8.708637132559417,66.18212969215499 8.294558556826914,66.32402586844808 7.845571750660611,66.49206950756158 7.362847218730749,66.68831609958964 6.847642889454214,66.91477522697659 6.3013024379609845,67.17340728964062 5.725253494483525,67.46612028868358 5.1210057401540325,67.79476667252717 4.49014889231848,68.16114024925068 3.834350581600333,68.56697316883563 4.107484388046231,71.25291714691258 4.831552034933175,71.51843141336774 5.523245664826305,71.75031475159508 6.181280462826827,71.95059954594082 6.804460344107923,72.12136289287658 7.3916794259247,72.26472321767373 7.941923379517533,72.38283684439251 8.454270660467614,72.4778945232648 8.927893616198709,72.55211791959287 9.362059469453918,72.60775606832583 9.756131176714284,72.64708179850957 10.109568160662413,72.67238813183775 10.421926915934492,72.68598465955593 10.692861487542544,72.69019390199352 10.922123821489187,72.68734765501496 11.109563987237784,72.67978332769371 11.25513027184143,72.66984027552157 11.358869145675527,72.65985613346844 11.420925099859396,72.65216315320745 11.441540355593652,72.64908454881432 12.395426019980953,72.48836956495863 13.146241615039138,76.14188055646957 12.206282037469947,76.37036066347076 12.186123421506387,76.37566130271826 12.126062845842391,76.39306390728984 12.026793892486928,76.42479893425713 11.889103517300086,76.47306660543273 11.713870876004897,76.54003343459758 11.50206602915324,76.62782879745163 11.254748527536904,76.73854154833693 10.973065879666528,76.8742166877319 10.658251903071317,77.03685208446083 10.311624961300453,77.22839525650349 9.934586088633317,77.45074021422718 9.528617004629943,77.70572436979649 9.095278020775247,77.99512551644472 8.636205841589529,78.32065888121677 8.153111262696257,78.68397425471424 7.647776768451287,79.0866532012913 7.122054031851164,79.53020635306387 6.577861319546102,80.0160707910054 6.017180804890579,80.54560751630899 6.8254000941005515,83.12158863233844 7.588093662618391,83.23591406039856 8.312306056090726,83.32381382901758 8.99718787581633,83.38753735085247 9.641985637340895,83.42935997419362 10.246042531276323,83.45157937258259 10.808799057074438,83.45651191287757 11.329793529164405,83.44648900605225 11.80866245500431,83.42385344502836 12.24514078473765,83.39095573385484 12.63906203228705,83.35015041255112 12.990358267858056,83.30379238193603 13.299059981967432,83.25423323276004 13.565295821251318,83.2038175834521 13.789292196448898,83.15487943078087 13.971372763097733,83.10973851771391 14.111957775616482,83.07069672273832 14.211563315589139,83.04003447488111 14.27080039520363,83.02000719863811 14.290373936933626,83.0128417929872 15.192381817326293,82.66340088171769 16.663274528763885,86.090986220453 15.78854868637685,86.50400179814909 15.769869729302386,86.51325183256029 15.714541715696576,86.54238830979077 15.623693017611608,86.59345641229288 15.498537383269571,86.66845291015949 15.340372088042088,86.76932299576114 15.15057597546167,86.89795718459865 14.93060739054085,87.05618828603662 14.682002007793564,87.24578844750857 14.406370556469362,87.46846627570388 14.105396445625288,87.72586403816346 13.780833291770698,88.01955494862413 13.434502351928707,88.3510405393609 13.068289865063342,88.7217481236823 12.684144304923002,89.13302835163717 12.284073547450774,89.58615286188933 11.870141956006961,90.08231203261484 11.444467387742428,90.62261283416755 11.009218124549548,91.20807678615114 10.566609732103814,91.83963802142151 11.876825911415857,94.2001953058483 12.646920637256798,94.1586513990559 13.374002453828219,94.09896897121156 14.057692153109144,94.02352237206449 14.697709698759844,93.9346920486975 15.293874244602534,93.83486085589755 15.846104024318684,93.72641037098954 16.354416112646916,93.61171721744965 16.818926058507046,93.4931494016017 17.239847390615182,93.37306266668247 17.61749099629519,93.25379686853987 17.952264374329232,93.13767237720172 18.24467076282935,93.0269865085218 18.495308143247414,92.92400999007458 18.70486812177687,92.83098346543103 18.874134689533804,92.75011404090314 19.00398286303708,92.68357187879766 19.095377206638673,92.63348684116627 19.1493702386843,92.60194518798376 19.167100723311826,92.59098633362433 19.98030251110515,92.06712564690594 22.11105381849336,95.12845958637368 21.337373090051734,95.7091017284865 21.320938510563664,95.72192246056579 21.272608194393847,95.76159995965395 21.19389910795322,95.82991040357422 21.086402100831123,95.92856536269744 20.951779457441596,96.05920907157964 20.791762354281545,96.22341578759574 20.60814822576812,96.42268723970214 20.402798041723493,96.65845017036332 20.17763349967283,96.93205397357517 19.934634135216463,97.24476843181364 19.675834353827774,97.59778155462982 19.403320387516445,97.99219752150134 19.119227179880838,98.42903473143753 18.8257352031532,98.90922396171933 18.525067210919246,99.43360663803664 18.219484930265203,100.00293321816486 17.911285697175636,100.6178616911995 17.60279903906968,101.27895619424183 17.296383208424736,101.98668574830171 19.054955873513947,104.0351777085477 19.800923988119763,103.83946527932808 20.50110841279136,103.6346440606287 21.155615655008916,103.42311613313338 21.764650591267937,103.20726958693399 22.32851574246473,102.98947490370804 22.847610424033093,102.77208136919154 23.322429771979294,102.5574135201189 23.753563646098527,102.3477676297588 24.141695411788824,102.14540823613106 24.48760060201164,101.95256471693867 24.7921454610778,101.77142791519691 25.05628537206718,101.60414681948184 25.281063169816463,101.45282530265979 25.467607341534553,101.31951892289298 25.617130117227624,101.2062317906461 25.730925452235702,101.11491350534567 25.8103669043008,101.0474561652655 25.856905407701703,101.00569145413074 25.87206694710286,100.99138780784787 26.563170065557443,100.31455426374586 29.26654676001914,102.88430543277275 28.625585725448943,103.60880258178167 28.612068357162492,103.62466912925132 28.572714387251224,103.6732632487226 28.509367271701755,103.75601939646077 28.42392983190154,103.87429387122265 28.31836130718783,104.02936263459378 28.194674332452713,104.22241923554128 28.054931844341766,104.45457284165349 27.901243919662214,104.72684637942167 27.735764549692348,105.04017478579946 27.560688354155737,105.39540337315415 27.37824723869069,105.79328630960045 27.190706999709853,106.23448521658112 27.000363880604127,106.7195678854311 26.809541083300267,107.2490071145323 26.620585239233648,107.82317966853392 26.435862843843722,108.4423653609814 26.257756658743695,109.10674626156089 26.088662085753157,109.81640602903212 25.930983517017943,110.57132937078362 28.06591649635208,112.22389050530877 28.75721797746329,111.88202204350941 29.40183937762083,111.54044743871401 30.0003685593773,111.20149816107555 30.553486924395628,110.8674721750061 31.06196797540519,110.54063054127518 31.526675761571305,110.22319407399596 31.948563209241666,109.917340056354 32.32867034015748,109.62519901886546 32.66812237933902,109.34885158388053 32.96812775497479,109.09032537997224 33.22997599276041,108.85159202977285 33.45503550724802,108.63456421473589 33.64475129287838,108.44109282021725 33.80064251747697,108.27296416417765 33.924300021101125,108.13189731271663 34.017383723228384,108.01954148555092 34.081619941375465,107.93747355445073 34.118798624334374,107.88719563754472 34.130770503304674,107.87013279229787 34.671481109549816,107.06803603563233 37.83680663158046,109.04099851942547 37.35480631094673,109.87968967692524 37.34475955650777,109.89795246146763 37.31599308900711,109.9534737523613 37.27060138270235,110.04728755750556 37.210721329047914,110.18033937701267 37.138528910815566,110.35348466148051 37.05623582378366,110.56748738743343 36.96608604995751,110.82301875164032 36.87035238633696,111.12065598588848 36.77133293329747,111.46088129366059 36.67134754669647,111.84408091002761 36.57273425785812,112.27054428593667 36.47784566562669,112.74046339793603 36.3890453047114,113.2539321842423 36.30870399457366,113.810946107917 36.239196173131816,114.41140184777973 36.18289621957726,115.0550971175464 36.14217477061134,115.74173061353957 36.11939503442223,116.47090209117796 36.11690910672721,117.24211257031003 38.54079799328832,118.43108683209917 39.149130877043746,117.95705847271398 39.71179837682498,117.49271458627621 40.229845643095054,117.04022058174597 40.7044027060202,116.6016902189225 41.136682382870205,116.17918256957384 41.52797808226761,115.77469905579949 41.87966150798482,115.39018056900682 42.19318026509683,115.02750467278972 42.4700553714016,114.68848289290534 42.711878677122655,114.3748580974447 42.92031019600692,114.0883019701948 43.097075351026284,113.83041258008328 43.243962137983374,113.60271204949152 43.362818210410936,113.4066443241117 43.455547889238666,113.24357304691002 43.52410910078315,113.1147795386444 43.57051024669384,113.02146088726604 43.5968070095621,112.96472814841434 43.60509909796987,112.94560465909265 43.97328043625508,112.05108262532387 47.47096598707274,113.34648310798347 47.16765953013484,114.26503215944405 47.161494704850554,114.2849435005142 47.1444934423199,114.34511891465762 47.11891548704928,114.44614962900269 47.08704431597283,114.58853163613149 47.051183570306534,114.77266485340621 47.01365345962995,114.99885240761981 46.97678714242117,115.26730004584708 46.942927087296496,115.57811567323424 46.9144214192291,115.93130901832569 46.89362025503893,116.32679142638693 46.88287203245889,116.76437578104171 46.88451983709175,117.24377655440134 46.90089773157638,117.7646099857225 46.93432709128151,118.32639438848912 46.987112950841095,118.92855058567241 47.061540365835384,119.57040247278306 47.15987079390881,120.25117770818795 47.28433849959721,120.97000853002496 47.4371469871143,121.72593269890854 50.05075748509174,122.4026433419855 50.55121655175436,121.81586186174366 51.00889447760762,121.24775898693238 51.42525091244222,120.70024541322164 51.80181825135994,120.17516415822325 52.14019897328945,119.67428800606373 52.4420628940095,119.19931704837299 52.709144337003664,118.75187632445787 52.94323922555883,118.33351356331598 53.14620209960326,117.94569703003395 53.31994306086035,117.58981347899648 53.4664246499705,117.2671662162146 53.58765865930607,116.97897327296039 53.6857028852734,116.72636569277165 53.762657823959756,116.5103859337656 53.82066331404459,116.33198638807197 53.86189513095006,116.19202802006745 53.88856153625888,116.09127912496281 53.902899786474926,116.03041420915979 53.907172605246465,116.01001299366307 54.08775128832289,115.05968751995539 57.774601210516565,115.62449215351833 57.66240601925854,116.58529359284796 57.660375511800396,116.60603831780301 57.65583548792532,116.66840426667082 57.65111844818289,116.77251568090081 57.64856096917302,116.91839873955028 57.650500039213796,117.10598145408193 57.65926939203323,117.33509369151076 57.67719584279997,117.60546732590815 57.70659563080635,117.91673651812977 57.749770773111,118.26843812349406 57.809005433437655,118.6600122269963 57.88656231061122,119.09080280550324 57.98467905079309,119.56005851623462 58.1055646877531,120.06693361069705 58.251396115386996,120.61048897309945 58.42431459665557,121.18969328214027 58.62642231308398,121.80342429492217 58.85977895891809,122.45047025161364 59.12639838398879,123.1295313993442 59.4282452892848,123.83922163368791 62.12457587780518,123.97596404481496 62.49667227438438,123.3004523464615 62.83062323825036,122.65184868172072 63.12824316028758,122.03173080886728 63.391404064097784,121.4415955499681 63.622032484592964,120.88285682351754 63.822106282253884,120.356843788725 63.993651396868074,119.86479910349658 64.13873854462395,119.40787729802653 64.25947986249754,118.98714326578597 64.35802550392312,118.60357087356567 64.4365601897901,118.25804169209955 64.49729971885532,117.9513438486607 64.54248744170206,117.68417100288804 64.57439070241558,117.45712144696606 64.59529725217807,117.27069733114217 64.6075116390159,117.1253040154293 64.61335157795632,117.02124954820144 64.61514430587164,116.95874427225141 64.61522292530441,116.9379005587391 64.60080604066981,115.97067808164464 68.32588026523842,115.7817636980511 68.40938962397276,116.74548220143427 68.41157656355466,116.76621101879715 68.41968364744604,116.828214233115 68.43602063939308,116.93114401369877 68.46288155594092,117.07455565430726 68.50254105593349,117.25790820772286 68.55725085391417,117.4805652464471 68.62923616165577,117.7417957486548 68.72069216201788,118.04077510840872 68.83378051929579,118.3765862689991 68.97062593018569,118.74822097813693 69.13331271944882,119.15458116359622 69.32388148430844,119.5944804277668 69.54432579156324,120.06664565944791 69.79658893134409,120.56971876108429 70.08256073138146,121.10225848951688 70.40407443558678,121.66274240819645 70.76290365068289,122.24956894868284 71.16075936454703,122.86105957913259 71.59928703985365,123.49546107735732 74.26794962781754,123.08663700615638 74.4964496841179,122.35005061799113 74.69300169429836,121.64750007356304 74.85970050896113,120.9801656001423 74.99868113934174,120.34913654417954 75.11211530376981,119.75541007254789 75.2022079335877,119.19988999610183 75.27119364267392,118.68338571678615 75.32133316475436,118.20661129938998 75.35490976271687,117.77018466890493 75.37422561417235,117.37462693430714 75.38159817752934,117.02036183944398 75.37935654286765,116.70771534156633 75.36983777191116,116.43691531790714 75.35538323140975,116.20809140056583 75.33833492424621,116.02127493981749 75.32103182258412,115.8763990958245 75.30580620736976,115.77329905858761 75.29498001849286,115.71171239583205 75.29086121989805,115.69127952838438 75.08203899650327,114.74675824975918 78.69283254701527,113.81185902606998 78.96862757278342,114.73903984474609 78.97494242584196,114.75890411429842 78.99536471253272,114.81800617518707 79.03208689779942,114.91554036481378 79.0872665208255,115.05060929796463 79.16302278618035,115.22222521518435 79.26143320376481,115.4293114498775 79.3845302815244,115.67070401244185 79.53429827484182,115.94515328961121 79.71266999645867,116.25132585705694 79.92152369071138,116.58780640317302 80.16267997579675,116.95309976184667 80.43789885770988,117.34563305189533 80.74887681941935,117.76375792073304 81.09724398876486,118.20575288971382 81.48456138847725,118.66982579848542 81.91231827163304,119.15411634557782 82.38192954576446,119.65669872234244 82.89473328875039,120.17558433725367 83.45198835951575,120.7087246274831 85.98372758701737,119.77107137946393 86.05927648388635,119.00356623476358 86.11038267799061,118.27583131248326 86.13933571622034,117.58860099024552 86.14844618983406,116.94251254091311 86.14004209017541,116.33810555560883 86.11646514930007,115.77582149470982 86.08006716982285,115.25600336718875 86.03320634830276,114.77889553853322 85.97824359648851,114.34464366733373 85.91753886474578,113.95329477048895 85.8534474719827,113.60479741683679 85.78831644638056,113.29900204887788 85.72448088122218,113.03566143211842 85.66426031009232,112.81443123141943 85.60995510570112,112.63487071359964 85.56384290655416,112.4964435754018 85.52817507566084,112.39851889579411 85.50517319543638,112.34037221144234 85.49702560291239,112.3211867140534 85.10234724711879,111.4380354460209 88.45103381136602,109.79542626629987 88.90782342340852,110.64811050861317 88.91800765911748,110.66629698482552 88.94990905779099,110.72007824696801 89.00551302579785,110.80822378445457 89.08675229505215,110.92942027215466 89.19550385536469,111.08227357736351 89.33358595849428,111.26531087324562 89.50275519744511,111.47698285629284 89.70470366447441,111.71566606522389 89.94105619118946,111.97966529863999 90.21336767402296,112.26721612864156 90.52312048828453,112.57648750750533 90.8717219938888,112.90558446441676 91.2605021357622,113.25255088915327 91.69071114182798,113.61537239951619 92.16351732136326,113.99197928921541 92.68000496641383,114.38024955282098 93.24117235884066,114.77801198430815 93.84792988545865,115.18304934563992 94.50109826361091,115.59310160175073 96.79226442920964,114.16500681105681 96.71176918593278,113.39800466062344 96.61533727036951,112.67487891371425 96.50535919137926,111.99588803279808 96.38422652436589,111.36119112712383 96.25432822544796,110.77084812114009 96.11804695660902,110.22482005130689 95.97775542612473,109.72296949079718 95.83581274854305,109.26506110144527 95.69456082846918,108.85076231216064 95.55632077237827,108.47964412288724 95.42338933264527,108.15118203305133 95.29803538794341,107.8647570933048 95.18249646412109,107.61965707923643 95.07897529962042,107.4150777855898 94.98963645944994,107.25012443939558 94.91660300166916,107.12381323029521 94.86195320028445,107.03507295620551 94.8277173283914,106.98274678234684 94.81587450533347,106.9655941115339 94.25149819539996,106.17996917077326 97.20098215198817,103.89689864783657 97.8200653299175,104.64017732072061 97.83370200447038,104.65594144712003 97.87577646811671,104.70220009932521 97.94798578588033,104.77734829601026 98.05195875613437,104.87971053981317 98.18925330974761,105.00754340073641 98.36135400089628,105.15903818940811 98.56966959251915,105.3323237170818 98.81553073929223,105.52546913915681 99.1001877708915,105.73648687890864 99.42480857820334,105.96333562802965 99.79047660503085,106.203923420495 100.19818894772787,106.45611077618602 100.64885456507716,106.71771391062579 101.14329260060745,106.98650800710686 101.68223081942313,107.26023054742001 102.26630416149538,107.5365846973269 102.89605341323728,107.81324274285643 103.57192399905662,108.08784957344595 104.29426489445021,108.35802620789386 106.25105738612582,106.49795624305023 106.01781348742068,105.76285824504151 105.77779139614329,105.07394652654558 105.53338471540879,104.4309930533937 105.28696809338835,103.83367225726965 105.04089364683125,103.28156194263381 104.79748742118733,102.77414431720096 104.55904589143758,102.31080714461481 104.32783250769202,101.89084501782852 104.10607428956276,101.51346075157014 103.89595847326258,101.17776689214149 103.69962921532111,100.88278734267234 103.51918435674406,100.62745910182497 103.35667225137433,100.41063411382166 103.21408866214077,100.23108122754633 103.09337372880442,100.08748826235205 102.99640901073245,99.97846417809066 102.9250146081461,99.90254134676675 102.88094636520233,99.858177923107 102.86589315817791,99.84376031122852 102.15492452654458,99.18782527512147 104.58445365574141,96.35776258442752 105.34048506151396,96.9612057716829 105.35701588785233,96.9739021630824 105.40754088298624,97.01074437069383 105.49339929255315,97.06981865057554 105.61584929818841,97.14915592819293 105.77606598994603,97.24673485248461 105.97513944659715,97.3604849194978 106.21407292609497,97.48828966193484 106.49378116837548,97.62798990088045 106.8150888125395,97.77738705590902 107.17872893033706,97.93424650970687 107.58534167774798,98.09630102328241 108.0354730663236,98.26125419778026 108.52957385582354,98.42678397886226 109.06799856954976,98.59054619956959 109.65100463364493,98.75017815753517 110.27875164148872,98.90330222237598 110.951300744187,99.04752946905799 111.6686141680128,99.18046333299597 112.43055485951886,99.29970328262229 113.97286236274881,97.08380962653857 113.59641884123336,96.41071077936331 113.22263310686014,95.78421721597957 112.85380386260724,95.20362374132667 112.49219161103797,94.66813343832834 112.14001533359627,94.17685927619178 111.79944923062425,93.72882583236354 111.47261952585266,93.32297112598644 111.16160133904023,92.95814856057986 110.86841563036124,92.63312897354908 110.59502622005868,92.34660279001257 110.34333688679658,92.0971822783241 110.11518854805587,91.88340390455592 109.91235652582691,91.70373078310239 109.73654790075653,91.55655522045905 109.58939895780853,91.44020134913123 109.47247272639609,91.35292784852827 109.38725661783847,91.29293074960508 109.33516016288789,91.25834631992137 109.31751285196125,91.24725402570165 108.48905903794244,90.7478629516955 110.299168131741,87.48667119231959 111.16119575077452,87.9255738589585 111.17994395492578,87.9346827236024 111.23685098231006,87.9606001623117 111.33284343030466,88.00118201743078 111.46875735370318,88.05424625139523 111.64533689341997,88.11757634642984 111.8632330248681,88.18892475067594 112.12300242751674,88.26601636670455 112.42510647700138,88.34655207832424 112.76991036102606,88.42821231154926 113.15768232016077,88.50866062555525 113.58859301450116,88.5855473294146 114.06271501701887,88.65651312037417 114.58002243429297,88.71919273941198 115.14039065517291,88.77121863978857 115.74359622778323,88.81022466429155 116.38931686514033,88.83384972686036 117.07713157950931,88.83974149426967 117.80652094548941,88.82556006354746 118.57686749167345,88.78898163080436 119.64154775606207,86.30798323011709 119.1373162537374,85.7244402796644 118.64506970815157,85.18601359148764 118.16691781297554,84.69154968040283 117.70491437992433,84.23981290645243 117.26105440977545,83.82948771873527 116.83727124574582,83.45918099834367 116.43543381246663,83.1274244975406 116.0573439436985,82.8326773722063 115.70473380183097,82.57332880448436 115.37926339210568,82.34770071245936 115.08251817439893,82.15405054360575 114.81600677528888,81.99057414865675 114.58115880302253,81.85540873245598 114.37932276788234,81.74663587827165 114.21176411033625,81.66228464197346 114.07966333923561,81.60033471239781 113.98411428220356,81.55871963415461 113.9261224502329,81.5353300890617 113.90660351838685,81.52801723232938 112.99458151846767,81.2056152496699 114.11116449788908,77.64680799541466 115.04389681817638,77.90320141469604 115.06409484645975,77.90834983459561 115.12505412570701,77.92228144141684 115.22725067002978,77.94270944585654 115.37106417919838,77.96732818019478 115.55677737977109,77.99381670444063 115.78457549279307,78.0198424338667 116.0545458287265,78.0430647836688 116.36667751013366,78.06113882646629 116.72086132249427,78.07171895834489 117.1168896933979,78.07246256913135 117.55445680021158,78.06103371258469 118.03315880618136,78.03510677218596 118.55249422478539,77.99237011821162 119.11186441201576,77.93052975178327 119.71057418612492,77.84731293159749 120.34783257423294,77.74047177905692 121.0227536850516,77.60778685754354 121.73435770684316,77.44707072160114 122.48157202959251,77.25617143182293 123.02503692002111,74.61164065256115 122.41366073383708,74.14154391578597 121.82310600845142,73.71322735469259 121.25520705712125,73.32513641779273 120.71172691742031,72.9756473294926 120.1943549338935,72.66306987759114 119.70470444133404,72.38565028127822 119.24431055127954,72.14157413617178 118.81462804420676,71.92896943285228 118.41702936978868,71.74590964527387 118.05280275745599,71.59041688535805 117.72315043938357,71.4604651200051 117.42918698789755,71.35398344669214 117.17193776917185,71.26885942376468 116.95233751495519,71.20294245146991 116.77122901393825,71.15404719972624 116.62936192423945,71.11995707857353 116.52739170835439,71.09842774720319 116.4658786917783,71.08719065742532 116.44528724637598,71.08395662739424 115.48703534839117,70.95174291113216 "
     id="polyline7225"
     transform="matrix(3.7795317,0,0,3.7795317,41.087655,-9.8473957)" />
</svg>
