<?xml version="1.0" encoding="UTF-8" standalone="no"?>
<svg
   xmlns:dc="http://purl.org/dc/elements/1.1/"
   xmlns:cc="http://creativecommons.org/ns#"
   xmlns:rdf="http://www.w3.org/1999/02/22-rdf-syntax-ns#"
   xmlns:svg="http://www.w3.org/2000/svg"
   xmlns="http://www.w3.org/2000/svg"
   xmlns:sodipodi="http://sodipodi.sourceforge.net/DTD/sodipodi-0.dtd"
   xmlns:inkscape="http://www.inkscape.org/namespaces/inkscape"
   width="1385.8823529411766mm"
   height="1385.8823529411766mm"
   viewbox="0 0 138.58823529411765 138.58823529411765"
   version="1.1"
   id="svg7128"
   sodipodi:docname="N34.svg"
   inkscape:version="0.92.2 5c3e80d, 2017-08-06">
  <metadata
     id="metadata7134">
    <rdf:RDF>
      <cc:Work
         rdf:about="">
        <dc:format>image/svg+xml</dc:format>
        <dc:type
           rdf:resource="http://purl.org/dc/dcmitype/StillImage" />
        <dc:title></dc:title>
      </cc:Work>
    </rdf:RDF>
  </metadata>
  <defs
     id="defs7132" />
  <sodipodi:namedview
     pagecolor="#ffffff"
     bordercolor="#666666"
     borderopacity="1"
     objecttolerance="10"
     gridtolerance="10"
     guidetolerance="10"
     inkscape:pageopacity="0"
     inkscape:pageshadow="2"
     inkscape:window-width="1680"
     inkscape:window-height="1006"
     id="namedview7130"
     showgrid="false"
     inkscape:zoom="0.31653421"
     inkscape:cx="1339.5927"
     inkscape:cy="4267.8323"
     inkscape:window-x="0"
     inkscape:window-y="0"
     inkscape:window-maximized="1"
     inkscape:current-layer="svg7128" />
  <polyline
     points="126.81010524135496,72.81296872678429 127.44632872508141,72.85189313348056 127.46806544546916,72.85282587853018 127.53332373436136,72.85403930523188 127.64210267464145,72.853154930343 127.79430385906687,72.84779541844698 127.98973147658432,72.83558813342823 128.22809251991572,72.81416868542377 128.5089971142138,72.78118446927724 128.8319589664601,72.7342981905285 129.1963959351512,72.67119137498443 129.60163071969407,72.58956785793241 130.04689166880488,72.48715724907794 130.53131370708184,72.36171836931148 131.05393937879873,72.21104265543762 131.61372000784195,72.03295752903094 132.20951697259315,71.82532972561837 132.84010309443767,71.58606858042741 133.50416413846,71.31312926698178 134.20030042476958,71.00451598487359 134.92702854878223,70.65828509309091 134.92702854878223,67.92995020102674 134.20030042476958,67.58371930924406 133.50416413846,67.27510602713588 132.84010309443767,67.00216671369024 132.20951697259315,66.76290556849928 131.61372000784195,66.55527776508671 131.05393937879873,66.37719263868003 130.53131370708184,66.22651692480618 130.04689166880488,66.10107804503971 129.60163071969407,65.99866743618524 129.1963959351512,65.91704391913322 128.8319589664601,65.85393710358915 128.5089971142138,65.80705082484042 128.22809251991572,65.77406660869389 127.98973147658432,65.75264716068942 127.79430385906687,65.74043987567067 127.64210267464145,65.73508036377466 127.53332373436136,65.73419598888577 127.46806544546916,65.73540941558747 127.44632872508141,65.7363421606371 126.81010524135496,65.77526656733336 126.47737344317281,62.18451861302686 127.10991635402482,62.10587449937213 127.13145435689445,62.102797250774614 127.19582446597822,62.091998837463336 127.30258873462627,62.07114144291246 127.45121359692986,62.03790629264197 127.6410706051488,61.989997129361484 127.87143728551342,61.92514366138462 128.14149811147357,61.84110498044369 128.45034559334346,61.73567294506601 128.79698148317,61.60667552570795 129.18031809353104,61.45198010788197 129.59917972885037,61.269496749554115 130.05230422769816,61.05718138913608 130.5383446144291,60.81303900044588 131.0558708583952,60.53512669106455 131.60337173885654,60.22155674057393 132.17925681360262,59.87049957522089 132.78185848918577,59.480186675617766 133.40943419056276,59.04891341415627 134.0601686278327,58.57504181888325 133.5588384069738,55.8931620130552 132.7808644508673,55.68636230252432 132.039873665932,55.510918454950826 131.33696705587118,55.36464734862744 130.67315374100298,55.245329974935906 130.04934984301684,55.150714834424505 129.46637748683568,55.078521366382674 128.9249639205628,55.02644340804555 128.4257407543699,54.992152679533746 127.96924331905797,54.97330229060921 127.55591014489532,54.967530265307744 127.18608256121445,54.97246308049273 126.86000441712,54.98571921436184 126.57782192353487,55.004912700930376 126.3395836166848,55.02765668651031 126.14524044299378,55.051566984203575 125.99464596523694,55.074265622431646 125.88755668967009,55.0933843835309 125.82363251372901,55.10656832845457 125.8024372937656,55.11147930363738 125.18419906483706,55.26664670669928 124.19733445260991,51.79817736734921 124.80465630041002,51.604642864310776 124.82526213490578,51.59766041407635 124.8865520173197,51.57521788776616 124.98766588521653,51.535097747109035 125.12765318396842,51.475118741645346 125.30547423018231,51.39313918919794 125.52000168657474,51.28706020831747 125.77002214667115,51.15482889906829 126.0542378275913,50.99444146857466 126.37126836906914,50.80394629780349 126.71965273674411,50.58144694612092 127.09785122765032,50.32510509022287 127.50424757572358,50.033143394108095 127.93715115503964,49.70384830683187 128.39479927839466,49.3355727848528 128.875359588737,48.92673893586239 129.37693254086219,48.47584058106672 129.8975539706852,47.981445732973356 130.43519774931332,47.442198985822344 130.98777851904921,46.85682381588968 130.0021902767234,44.312727296524926 129.19946345852142,44.252401083359075 128.43885172742083,44.21610120012767 127.72103619288366,44.201479388019536 127.04660105127323,44.206168995883075 126.4160331136278,44.2277885234046 125.82972145470018,44.26394517569527 125.28795718351665,44.31223842530542 124.79093333558043,44.37026357768055 124.33874488671856,44.43561533607222 123.93138888844373,44.50589136192016 123.56876472457607,44.578695826729344 123.25067448874292,44.651642951476376 122.97682348224922,44.72236052959492 122.7468208316849,44.788493429608735 122.56018022551143,44.847707073503315 122.416320768745,44.89769088695462 122.31456795473139,44.93616171756321 122.25415475288449,44.960867217276885 122.23422281114043,44.9695891852231 121.65502319840093,45.23571554484214 120.0476322628845,42.0076393838296 120.60905143050816,41.70580507678939 120.62802338965028,41.69515520388626 120.68414589195788,41.661832817893796 120.77616604760496,41.60381617440171 120.90274868324242,41.519135826839005 121.0624782849953,41.405877600559634 121.2538610421854,41.262185499241724 121.47532698951598,41.08626454032681 121.72523224535178,40.87638351629916 122.00186134362713,40.630877678681735 122.30342965681584,40.348151341705545 122.62808590730023,40.02668040269175 122.973914764384,39.665014776271974 123.3389395241022,39.26178073966098 123.7211248688937,38.81568318628736 124.1183797041169,38.32550778518237 124.528560068307,37.79012304362366 124.94947211399385,37.208482270630626 125.37887515582452,36.57962543900914 125.81448478266063,35.902680943748756 124.37820154437753,33.5830038665068 123.57805776310921,33.67120548754202 122.82372680609275,33.775285717639235 122.115446694183,33.89281112802076 121.45335680568212,34.02134801846816 120.83749806321103,34.15846598694262 120.2678132418784,34.30174148813717 119.7441473982648,34.44876137700048 119.26624841961228,34.59712643329191 118.83376769248619,34.744454863248556 118.4462608900508,34.88838577447246 118.1031888769771,35.02658262017609 117.80391873087936,35.156736608958205 117.54772487905512,35.27657007632034 117.33379034918377,35.38383981417572 117.16120813252033,35.476340354647725 117.02898265800411,35.55190720450416 116.93603137558591,35.60842002662638 116.88118644696445,35.6438057649683 116.8631965418101,35.656041709520345 116.34275949339812,36.024064411703094 114.16958000504852,33.146309691040756 114.66597803609034,32.746454185314676 114.68267005256459,32.732499558391446 114.73171399026128,32.68943206660589 114.8115067976241,32.61549460748965 114.92037415030963,32.5089966055013 115.05657290758833,32.36831657844764 115.21829365531833,32.191904618863 115.40366333266584,31.978284787544254 115.61074793965813,31.72605741653131 115.83755532256927,31.433901318915886 116.0820380340574,31.100575902958944 116.34209626489196,30.724923188095623 116.61558084403428,30.305869720508447 116.90029630376135,29.842428386053562 117.19400400645326,29.333700118430492 117.49442532959844,28.778875500594957 117.79924490550809,28.177236257523774 118.10611391217125,27.528156638554123 118.41265341162716,26.831104687632404 118.7164577321777,26.08564339992496 116.87839040098518,24.06937958552529 116.10807759345492,24.303105440343394 115.38571524654353,24.544021456363765 114.71109018698395,24.789691902340593 114.08389222865623,25.037698905730664 113.50371501219314,25.285645927196555 112.97005696178437,25.531161201941806 112.482322357977,25.771901144073965 112.03982252514953,26.00555371023396 111.64177713221807,26.229841718774388 111.28731560501583,26.442526120818627 110.97547864867181,26.641409219585114 110.70521987819988,26.824337834416838 110.47540755539833,26.98920640601594 110.2848264300485,27.13396003944611 110.13217968329403,27.256597481531927 110.01609097097567,27.35517402935408 109.93510656459289,27.42780436661222 109.8876975874618,27.472665324703655 109.87226234354068,27.487998565445217 109.42831071894445,27.94538503846342 106.7633476987959,25.515950243677082 107.1778203536726,25.031690138938806 107.19166400087782,25.014905966078622 107.23195924148709,24.963559980278966 107.2968074522118,24.876219557030588 107.38425217482168,24.751530562344016 107.49228200229948,24.588219424110292 107.61883353446808,24.385095103959735 107.76179439979691,24.14105096738399 107.91900634002516,23.85506654999221 108.08826835417251,23.526209217880456 108.26733989844503,23.153635720203404 108.45394413848416,22.736593632149443 108.64577125035095,22.27442268663433 108.84048176658443,21.766555993143797 109.03570996362514,21.212521142272877 109.22906728684825,20.611941194628393 109.41814580941063,19.96453555288079 109.600521721077,19.270120715873347 109.77375884315776,18.528610913818355 109.93541216565953,17.740018623734457 107.75815392000257,16.095829518134536 107.04390416498242,16.46712035307298 106.37810961152204,16.836668049037833 105.76011315159235,17.20211751822145 105.18916559766757,17.561149053505368 104.66442714647329,17.911481589526332 104.18496895184276,18.250875909603963 103.74977480480109,18.57713779501139 103.35774291888558,18.888121113134737 103.0076878186022,19.18173084113191 102.69834232881226,19.45592602177169 102.42835966273897,19.708722648206532 102.1963156061816,19.938196474508466 102.00071079542626,20.14248574887678 101.83997308624487,20.319793866508114 101.71246001128048,20.468391939204928 101.61646132302495,20.58662127888625 101.55020161950682,20.67289579225546 101.51184304972155,20.725704283973407 101.49948809575285,20.743612665781228 101.1471401350867,21.27478716187086 98.08114570251954,19.3764037811111 98.39957861207445,18.824229974421513 98.41010246120868,18.805187820500727 98.44027679864038,18.747311866650662 98.48797208468761,18.64954275263056 98.55101635207176,18.510908899411866 98.62719842354142,18.330528014940498 98.71427117950245,18.10760848932599 98.80995487200646,17.841450677865637 98.91194048140116,17.531448070428794 99.01789311190035,17.1770883458449 99.12545542228969,16.77795431005847 99.232251087946,16.3337247169357 99.33588829031385,15.844174970729199 99.43396322995295,15.309177709330875 99.52406365924264,14.72870326756695 99.60377243080788,14.102820019914311 99.67067105771183,13.431694602142514 99.72234328144542,12.715592011512761 99.75637864373358,11.954875585290502 99.77037605817057,11.15000685745676 97.32807081627155,9.933883348660316 96.69420703252058,10.430095299649537 96.10765310749673,10.915690171996395 95.56733037543478,11.38847372102208 95.07207616008577,11.846303399876604 94.6206458127613,12.287091296116024 94.21171484768041,12.708806995014399 93.84388117212414,13.109480366497557 93.515667408805,13.487204272668947 93.225523307765,13.840137192981977 92.97182824502315,14.166505764201482 92.75289380510522,14.464607232387564 92.56696644450231,14.73281181422852 92.41223023302132,14.969564965145423 92.28680966991092,15.173389551689631 92.18877257156946,15.342887925855479 92.11613302756754,15.476743899033586 92.06685442164766,15.573724613435964 92.03885251429617,15.632682308931763 92.02999858341917,15.652555983342111 91.78125307388879,16.239429992112434 88.41863599204906,14.936745194551115 88.63018530546547,14.335461302637555 88.63703097946842,14.314809625369385 88.65605686285144,14.252374599662716 88.68497501845906,14.147506204787724 88.72147193370496,13.999648502635289 88.76321196009289,13.808340526603935 88.80784078157436,13.573217052607774 88.85298890786527,13.294009251310982 88.89627518881673,12.970545220818195 88.93531034591227,12.6027503991752 88.96770051694492,12.190647856159586 88.99105080991174,11.73435846396714 89.00296886215317,11.23410094652612 89.00106840075641,10.690191807298433 88.98297280023918,10.103045135553423 88.946318633531,9.473172291227215 88.88875921227337,8.801181468607226 88.80796811246893,8.087777139208669 88.7016426815227,7.333759374335351 88.5675075227343,6.5400230479445085 85.94332506038384,5.79337876346424 85.41143271882187,6.397613927653929 84.92409381265735,6.982719625411882 84.4798448510578,7.546737177558931 84.07714926259631,8.087774159376849 83.71439993818878,8.604006912695098 83.38992185621476,9.093682968080472 83.10197478679703,9.555123374528236 82.84875607213509,9.986724934152889 82.62840347970992,10.38696233947691 82.43899812510412,10.754390211019206 82.27856746111004,11.087645032990764 82.14508832973162,11.385446985012088 82.03649007362134,11.6466016678772 81.95065770343328,11.87000172150016 81.88543511751622,12.054628333293728 81.83862837031738,12.199552635344595 81.80800898581715,12.30393698886671 81.79131731226971,12.367036154532215 81.78626591448132,12.388198347398891 81.6495935860764,13.01078657835901 78.1048637466715,12.348161732378877 78.20232540580645,11.718243757019913 78.20525978346042,11.696685824504783 78.21248930915519,11.631817876859387 78.22164556121747,11.5234213685412 78.23035226564966,11.371374934166049 78.23622884041886,11.175654630249817 78.23689394643159,10.936334055779426 78.22996904121779,10.653584351446518 78.21308193134436,10.327674077503872 78.18387031957889,9.958968970331568 78.13998534282804,9.547931577926654 78.07909509688398,9.095120774656827 77.99888814402404,8.601191155744978 77.89707699952491,8.066892312077222 77.77140159317311,7.493067986052573 77.61963270187695,6.880655109317125 77.43957534951375,6.230682723349112 77.22907217017685,5.54427078398524 76.9860067310238,4.822628851098997 76.70830681096517,4.067054664764484 73.99161051455866,3.8153156802072488 73.57980257094303,4.506997553781133 73.20827442558868,5.171689004169977 72.87522760002093,5.807733618164505 72.57880395373188,6.413553537432357 72.31708864541412,6.987651460568117 72.08811315845999,7.52861254167604 71.88985838727542,8.035106183483592 71.7202577808961,8.505887723097509 71.577200540337,8.939800008626058 71.45853486605168,9.33577486500694 71.36207125182838,9.692834447496836 71.28558582140299,10.010092481396512 71.226823704026,10.28675538670538 71.18350244518243,10.522123286519808 71.15331544862732,10.715590898111671 71.1339354458689,10.866648305746487 71.12301798920359,10.974881614424376 71.11820496438342,11.03997348385196 71.11712811897681,11.061703542078142 71.09718318392082,11.698804499735004 67.49105211019683,11.698804499735004 67.47110717514084,11.061703542078142 67.47003032973424,11.03997348385196 67.46521730491408,10.974881614424376 67.45429984824875,10.866648305746487 67.43491984549034,10.715590898111671 67.40473284893523,10.522123286519808 67.36141159009166,10.28675538670538 67.30264947271468,10.010092481396512 67.22616404228927,9.692834447496836 67.12970042806599,9.33577486500694 67.01103475378066,8.939800008626058 66.86797751322155,8.505887723097509 66.69837690684223,8.035106183483592 66.50012213565766,7.52861254167604 66.27114664870355,6.987651460568117 66.00943134038579,6.413553537432357 65.71300769409673,5.807733618164505 65.37996086852898,5.171689004169977 65.00843272317462,4.506997553781133 64.59662477955901,3.8153156802072488 61.87992848315248,4.067054664764484 61.60222856309385,4.822628851098997 61.35916312394082,5.54427078398524 61.14865994460392,6.230682723349112 60.9686025922407,6.880655109317125 60.81683370094456,7.493067986052573 60.691158294592746,8.066892312077222 60.58934715009362,8.601191155744978 60.50914019723368,9.095120774656827 60.448249951289625,9.547931577926654 60.404364974538765,9.958968970331568 60.3751533627733,10.327674077503872 60.35826625289988,10.653584351446518 60.351341347686066,10.936334055779426 60.3520064536988,11.175654630249817 60.357883028468,11.371374934166049 60.366589732900195,11.5234213685412 60.37574598496248,11.631817876859387 60.38297551065724,11.696685824504783 60.38590988831122,11.718243757019913 60.483371547446154,12.348161732378877 56.938641708041246,13.01078657835901 56.80196937963634,12.388198347398891 56.79691798184794,12.367036154532215 56.780226308300506,12.30393698886671 56.749606923800286,12.199552635344595 56.702800176601436,12.054628333293728 56.63757759068439,11.87000172150016 56.551745220496315,11.6466016678772 56.44314696438603,11.385446985012088 56.309667833007616,11.087645032990764 56.14923716901354,10.754390211019206 55.959831814407735,10.38696233947691 55.73947922198257,9.986724934152889 55.48626050732062,9.555123374528236 55.19831343790291,9.093682968080472 54.87383535592888,8.604006912695098 54.511086031521344,8.087774159376849 54.10839044305985,7.546737177558931 53.664141481460305,6.982719625411882 53.17680257529578,6.397613927653929 52.64491023373382,5.79337876346424 50.020727771383356,6.5400230479445085 49.88659261259496,7.333759374335351 49.78026718164874,8.087777139208669 49.69947608184429,8.801181468607226 49.641916660586645,9.473172291227215 49.60526249387848,10.103045135553423 49.58716689336126,10.690191807298433 49.585266431964484,11.23410094652612 49.597184484205926,11.73435846396714 49.62053477717274,12.190647856159586 49.65292494820538,12.6027503991752 49.691960105300936,12.970545220818195 49.735246386252385,13.294009251310982 49.780394512543296,13.573217052607774 49.82502333402477,13.808340526603935 49.866763360412705,13.999648502635289 49.9032602756586,14.147506204787724 49.93217843126622,14.252374599662716 49.95120431464923,14.314809625369385 49.958049988652185,14.335461302637555 50.16959930206859,14.936745194551115 46.80698222022888,16.239429992112427 46.5582367106985,15.652555983342104 46.549382779821514,15.632682308931756 46.52138087247001,15.573724613435957 46.472102266550124,15.476743899033579 46.39946272254821,15.342887925855472 46.30142562420675,15.173389551689624 46.176005061096355,14.969564965145416 46.02126884961537,14.73281181422852 45.83534148901245,14.464607232387557 45.616407049094526,14.166505764201474 45.362711986352664,13.84013719298197 45.07256788531267,13.48720427266894 44.74435412199354,13.10948036649755 44.376520446437254,12.708806995014392 43.96758948135637,12.287091296116017 43.51615913403191,11.846303399876597 43.0209049186829,11.388473721022073 42.48058218662094,10.915690171996388 41.894028261597086,10.43009529964953 41.26016447784612,9.93388334866031 38.81785923594714,11.15000685745673 38.831856650384125,11.954875585290466 38.8658920126723,12.715592011512726 38.91756423640588,13.431694602142485 38.98446286330983,14.102820019914276 39.06417163487505,14.728703267566914 39.15427206416476,15.309177709330847 39.25234700380386,15.844174970729163 39.35598420617171,16.33372471693567 39.46277987182802,16.777954310058433 39.57034218221736,17.177088345844865 39.67629481271655,17.531448070428766 39.77828042211125,17.84145067786561 39.87396411461525,18.107608489325962 39.96103687057629,18.33052801494047 40.03721894204594,18.51090889941183 40.10026320943008,18.649542752630524 40.147958495477326,18.747311866650627 40.178132832909014,18.80518782050069 40.18865668204325,18.824229974421485 40.50708959159817,19.376403781111065 37.44109515903094,21.27478716187087 37.088747198364786,20.743612665781228 37.07639224439609,20.725704283973414 37.03803367461081,20.672895792255467 36.97177397109269,20.586621278886255 36.875775282837154,20.468391939204935 36.74826220787277,20.31979386650812 36.58752449869138,20.142485748876787 36.39191968793603,19.938196474508473 36.15987563137867,19.708722648206532 35.889892965305386,19.455926021771695 35.580547475515445,19.181730841131916 35.23049237523205,18.888121113134744 34.83846048931654,18.577137795011396 34.40326634227488,18.25087590960397 33.92380814764435,17.911481589526346 33.39906969645006,17.561149053505375 32.8281221425253,17.202117518221456 32.21012568259561,16.83666804903784 31.544331129135216,16.467120353072985 30.830081374115075,16.095829518134543 28.652823128458145,17.740018623734436 28.814476450959916,18.528610913818333 28.987713573040665,19.270120715873325 29.17008948470704,19.96453555288077 29.359168007269417,20.611941194628372 29.55252533049253,21.212521142272855 29.74775352753324,21.766555993143776 29.942464043766734,22.27442268663431 30.134291155633505,22.73659363214942 30.320895395672643,23.153635720203383 30.49996693994516,23.526209217880435 30.66922895409251,23.855066549992188 30.82644089432076,24.14105096738397 30.969401759649585,24.38509510395972 31.09595329181819,24.588219424110278 31.203983119295998,24.751530562343994 31.29142784190588,24.876219557030566 31.356276052630584,24.963559980278944 31.39657129323985,25.0149059660786 31.410414940445065,25.031690138938792 31.824887595321776,25.515950243677068 29.159924575173186,27.94538503846345 28.715972950576948,27.487998565445245 28.70053770665583,27.472665324703684 28.653128729524752,27.427804366612243 28.572144323141963,27.35517402935411 28.45605561082361,27.256597481531955 28.303408864069134,27.13396003944613 28.112827738719297,26.989206406015967 27.883015415917754,26.824337834416866 27.612756645445828,26.641409219585135 27.30091968910179,26.442526120818655 26.946458161899557,26.229841718774416 26.54841276896809,26.00555371023399 26.105912936140633,25.771901144073993 25.618178332333265,25.531161201941835 25.084520281924497,25.28564592719659 24.504343065461413,25.037698905730693 23.877145107133686,24.78969190234062 23.202520047574097,24.544021456363794 22.48015770066271,24.303105440343423 21.70984489313244,24.06937958552532 19.87177756193995,26.08564339992496 20.175581882490498,26.831104687632404 20.4821213819464,27.528156638554123 20.788990388609562,28.177236257523774 21.093809964519203,28.778875500594957 21.394231287664397,29.333700118430492 21.6879389903563,29.842428386053562 21.97265445008337,30.305869720508447 22.246139029225688,30.724923188095623 22.506197260060254,31.100575902958944 22.75067997154838,31.433901318915886 22.977487354459527,31.72605741653131 23.18457196145181,31.978284787544254 23.369941638799318,32.191904618863 23.53166238652932,32.36831657844764 23.667861143808025,32.5089966055013 23.776728496493547,32.61549460748965 23.85652130385636,32.68943206660589 23.905565241553056,32.732499558391446 23.922257258027308,32.746454185314676 24.418655289069143,33.146309691040756 22.24547580071954,36.024064411703094 21.725038752307555,35.656041709520345 21.70704884715321,35.6438057649683 21.65220391853174,35.60842002662638 21.55925263611355,35.55190720450416 21.42702716159733,35.476340354647725 21.254444944933887,35.38383981417572 21.04051041506252,35.27657007632034 20.784316563238285,35.156736608958205 20.48504641714056,35.02658262017609 20.141974404066858,34.88838577447246 19.754467601631454,34.744454863248556 19.32198687450537,34.59712643329191 18.84408789585286,34.44876137700048 18.32042205223926,34.30174148813717 17.75073723090663,34.15846598694262 17.134878488435525,34.02134801846816 16.472788599934646,33.89281112802076 15.764508488024902,33.775285717639235 15.010177531008438,33.67120548754202 14.210033749740113,33.5830038665068 12.773750511457045,35.90268094374872 13.20936013829315,36.5796254390091 13.638763180123824,37.20848227063058 14.059675225810672,37.79012304362362 14.469855590000762,38.325507785182324 14.867110425223963,38.815683186287316 15.249295770015472,39.26178073966094 15.614320529733668,39.66501477627193 15.960149386817449,40.02668040269171 16.28480563730183,40.34815134170551 16.58637395049054,40.6308776786817 16.863003048765897,40.87638351629912 17.112908304601696,41.08626454032678 17.33437425193226,41.26218549924169 17.52575700912238,41.4058776005596 17.685486610875245,41.51913582683896 17.812069246512706,41.60381617440167 17.904089402159798,41.66183281789377 17.960211904467393,41.69515520388623 17.979183863609514,41.70580507678935 18.54060303123316,42.00763938382956 16.933212095716726,45.23571554484214 16.354012482977225,44.96958918522309 16.33408054123317,44.960867217276885 16.27366733938627,44.93616171756321 16.171914525372657,44.89769088695462 16.02805506860623,44.847707073503315 15.841414462432752,44.788493429608735 15.611411811868436,44.72236052959492 15.337560805374736,44.65164295147637 15.019470569541582,44.578695826729344 14.656846405673917,44.50589136192016 14.249490407399094,44.43561533607222 13.797301958537219,44.37026357768055 13.300278110600999,44.31223842530541 12.758513839417482,44.26394517569527 12.172202180489855,44.2277885234046 11.541634242844431,44.206168995883075 10.867199101233993,44.20147938801953 10.14938356669682,44.21610120012766 9.388771835596224,44.25240108335907 8.586045017394241,44.312727296524926 7.600456775068459,46.85682381588963 8.153037544804363,47.4421989858223 8.690681323432464,47.98144573297331 9.211302753255481,48.47584058106667 9.712875705380654,48.92673893586234 10.193436015723009,49.33557278485275 10.651084139078023,49.70384830683183 11.083987718394091,50.03314339410805 11.490384066467342,50.32510509022282 11.86858255737355,50.58144694612088 12.216966925048524,50.80394629780345 12.53399746652638,50.994441468574614 12.818213147446514,51.15482889906825 13.068233607542915,51.28706020831743 13.282761063935347,51.393139189197896 13.46058211014924,51.4751187416453 13.60056940890113,51.53509774710899 13.701683276797958,51.575217887766115 13.762973159211889,51.59766041407631 13.78357899370765,51.60464286431073 14.390900841507758,51.79817736734917 13.404036229280578,55.2666467066993 12.785798000352038,55.1114793036374 12.764602780388635,55.106568328454586 12.700678604447553,55.09338438353092 12.593589328880704,55.07426562243167 12.442994851123863,55.05156698420359 12.24865167743284,55.02765668651033 12.010413370582775,55.0049127009304 11.728230876997657,54.985719214361865 11.40215273290319,54.97246308049275 11.032325149222324,54.967530265307765 10.618991975059672,54.973302290609226 10.162494539747726,54.99215267953377 9.66327137355487,55.02644340804557 9.121857807281955,55.078521366382695 8.538885451100796,55.15071483442453 7.915081553114682,55.24532997493593 7.251268238246453,55.364647348627464 6.548361628185653,55.51091845495085 5.807370843250332,55.686362302524344 5.029396887143861,55.89316201305522 4.528066666284943,58.57504181888322 5.178801103554889,59.048913414156246 5.80637680493188,59.480186675617745 6.4089784805150245,59.87049957522087 6.9848635552611,60.22155674057391 7.532364435722464,60.53512669106453 8.049890679688566,60.81303900044586 8.5359310664195,61.05718138913606 8.989055565267279,61.269496749554094 9.407917200586603,61.451980107881944 9.791253810947659,61.60667552570792 10.137889700774195,61.735672945065986 10.446737182644085,61.84110498044367 10.71679800860423,61.925143661384595 10.947164688968861,61.989997129361456 11.137021697187791,62.03790629264195 11.285646559491383,62.07114144291244 11.392410828139433,62.091998837463315 11.4567809372232,62.10279725077459 11.478318940092826,62.105874499372106 12.110861850944836,62.18451861302684 11.778130052762684,65.77526656733336 11.141906569036237,65.73634216063711 11.12016984864848,65.73540941558748 11.054911559756292,65.73419598888579 10.946132619476202,65.73508036377467 10.79393143505078,65.74043987567069 10.59850381753332,65.75264716068943 10.360142774201925,65.7740666086939 10.079238179903847,65.80705082484043 9.756276327657574,65.85393710358916 9.391839358966465,65.91704391913323 8.986604574423588,65.99866743618524 8.541343625312784,66.10107804503973 8.056921587035816,66.22651692480619 7.534295915318928,66.37719263868004 6.974515286275697,66.55527776508673 6.378718321524502,66.76290556849929 5.7481321996799934,67.00216671369026 5.0840711556576395,67.2751060271359 4.387934869348086,67.58371930924407 3.661206745335406,67.92995020102677 3.661206745335406,70.65828509309087 4.387934869348086,71.00451598487356 5.0840711556576395,71.31312926698173 5.7481321996799934,71.58606858042738 6.378718321524502,71.82532972561835 6.974515286275697,72.03295752903091 7.534295915318928,72.2110426554376 8.056921587035816,72.36171836931145 8.541343625312784,72.48715724907791 8.986604574423588,72.5895678579324 9.391839358966465,72.6711913749844 9.756276327657574,72.73429819052848 10.079238179903847,72.7811844692772 10.360142774201925,72.81416868542374 10.59850381753332,72.8355881334282 10.79393143505078,72.84779541844695 10.946132619476202,72.85315493034297 11.054911559756292,72.85403930523185 11.12016984864848,72.85282587853015 11.141906569036237,72.85189313348053 11.778130052762684,72.81296872678428 12.110861850944836,76.4037166810908 11.478318940092826,76.48236079474553 11.4567809372232,76.48543804334305 11.392410828139433,76.49623645665433 11.285646559491383,76.5170938512052 11.137021697187791,76.55032900147569 10.947164688968861,76.59823816475618 10.71679800860423,76.66309163273304 10.446737182644085,76.74713031367396 10.137889700774195,76.85256234905165 9.791253810947659,76.98155976840971 9.407917200586603,77.13625518623569 8.989055565267279,77.31873854456354 8.5359310664195,77.53105390498158 8.049890679688566,77.77519629367178 7.532364435722457,78.05310860305312 6.9848635552611,78.36667855354372 6.4089784805150245,78.71773571889676 5.80637680493188,79.1080486184999 5.178801103554889,79.53932187996139 4.528066666284943,80.01319347523442 5.029396887143847,82.69507328106242 5.807370843250325,82.9018729915933 6.548361628185646,83.0773168391668 7.251268238246446,83.22358794549017 7.915081553114675,83.34290531918171 8.53888545110079,83.43752045969312 9.121857807281948,83.50971392773495 9.663271373554863,83.56179188607207 10.162494539747719,83.59608261458386 10.618991975059664,83.61493300350841 11.032325149222316,83.62070502880988 11.402152732903183,83.6157722136249 11.72823087699765,83.60251607975577 12.010413370582768,83.58332259318725 12.248651677432832,83.56057860760731 12.442994851123856,83.53666830991405 12.593589328880704,83.51396967168597 12.700678604447546,83.49485091058672 12.764602780388628,83.48166696566305 12.785798000352031,83.47675599048024 13.404036229280571,83.32158858741835 14.390900841507744,86.79005792676844 13.783578993707636,86.98359242980688 13.762973159211874,86.99057488004131 13.701683276797944,87.01301740635151 13.600569408901123,87.05313754700862 13.460582110149225,87.1131165524723 13.282761063935332,87.19509610491971 13.0682336075429,87.3011750858002 12.8182131474465,87.43340639504936 12.533997466526365,87.593793825543 12.21696692504851,87.78428899631416 11.868582557373543,88.00678834799675 11.490384066467328,88.26313020389479 11.083987718394077,88.55509190000956 10.651084139078009,88.88438698728578 10.193436015722995,89.25266250926487 9.71287570538064,89.66149635825528 9.211302753255467,90.11239471305095 8.69068132343245,90.6067895611443 8.153037544804349,91.14603630829531 7.600456775068437,91.73141147822798 8.586045017394227,94.27550799759268 9.388771835596216,94.33583421075855 10.149383566696805,94.37213409398996 10.867199101233986,94.38675590609809 11.541634242844424,94.38206629823455 12.17220218048984,94.36044677071303 12.758513839417468,94.32429011842235 13.300278110600985,94.2759968688122 13.797301958537204,94.21797171643706 14.24949040739908,94.1526199580454 14.656846405673903,94.08234393219746 15.019470569541568,94.00953946738828 15.337560805374721,93.93659234264125 15.611411811868422,93.86587476452269 15.841414462432738,93.79974186450889 16.02805506860622,93.74052822061431 16.171914525372642,93.690544407163 16.273667339386257,93.65207357655441 16.334080541233156,93.62736807684074 16.35401248297721,93.61864610889452 16.933212095716712,93.35251974927549 18.540603031233154,96.58059591028808 17.979183863609506,96.88243021732828 17.960211904467386,96.89308009023142 17.90408940215979,96.92640247622387 17.8120692465127,96.98441911971597 17.685486610875238,97.06909946727868 17.525757009122373,97.18235769355803 17.334374251932253,97.32604979487596 17.11290830460169,97.50197075379086 16.863003048765897,97.71185177781851 16.586373950490533,97.95735761543594 16.284805637301822,98.24008395241214 15.960149386817442,98.56155489142593 15.61432052973366,98.9232205178457 15.249295770015465,99.32645455445669 14.867110425223956,99.77255210783032 14.469855590000755,100.26272750893531 14.059675225810665,100.79811225049401 13.638763180123817,101.37975302348705 13.209360138293142,102.00860985510855 12.773750511457038,102.68555435036892 14.210033749740106,105.00523142761084 15.01017753100843,104.91702980657561 15.764508488024894,104.8129495764784 16.47278859993464,104.69542416609687 17.13487848843552,104.56688727564948 17.750737230906623,104.42976930717501 18.320422052239252,104.28649380598047 18.84408789585285,104.13947391711716 19.321986874505363,103.99110886082573 19.754467601631447,103.84378043086909 20.14197440406685,103.69984951964518 20.485046417140552,103.56165267394155 20.784316563238278,103.43149868515944 21.040510415062514,103.3116652177973 21.25444494493388,103.20439547994192 21.427027161597323,103.11189493946992 21.55925263611354,103.03632808961348 21.652203918531733,102.97981526749126 21.707048847153203,102.94442952914935 21.725038752307547,102.93219358459729 22.245475800719532,102.56417088241454 24.418655289069157,105.44192560307691 23.922257258027322,105.84178110880299 23.90556524155307,105.85573573572621 23.85652130385637,105.89880322751176 23.77672849649356,105.97274068662801 23.66786114380804,106.07923868861636 23.531662386529334,106.21991871567002 23.369941638799332,106.39633067525466 23.184571961451823,106.60995050657341 22.97748735445954,106.86217787758636 22.750679971548394,107.15433397520178 22.50619726006027,107.48765939115873 22.246139029225702,107.86331210602205 21.972654450083375,108.28236557360921 21.687938990356315,108.7458069080641 21.394231287664404,109.25453517568718 21.093809964519217,109.8093597935227 20.788990388609577,110.41099903659389 20.482121381946413,111.06007865556353 20.175581882490512,111.75713060648526 19.871777561939965,112.5025918941927 21.70984489313245,114.51885570859235 22.480157700662716,114.28512985377424 23.202520047574104,114.04421383775387 23.877145107133686,113.79854339177705 24.50434306546142,113.55053638838697 25.084520281924505,113.30258936692107 25.618178332333272,113.05707409217584 26.10591293614064,112.81633415004367 26.5484127689681,112.58268158388367 26.946458161899564,112.35839357534326 27.300919689101796,112.14570917329901 27.612756645445835,111.94682607453252 27.88301541591776,111.7638974597008 28.112827738719304,111.5990288881017 28.30340886406914,111.45427525467153 28.45605561082362,111.33163781258571 28.57214432314197,111.23306126476356 28.65312872952476,111.16043092750542 28.700537706655837,111.11556996941398 28.715972950576955,111.10023672867243 29.159924575173193,110.64285025565422 31.82488759532169,113.07228505044051 31.41041494044498,113.55654515517878 31.39657129323976,113.57332932803897 31.3562760526305,113.62467531383862 31.291427841905787,113.712015737087 31.203983119295906,113.83670473177358 31.0959532918181,114.0000158700073 30.969401759649493,114.20314019015785 30.82644089432067,114.4471843267336 30.669228954092418,114.73316874412538 30.49996693994506,115.06202607623713 30.32089539567255,115.43459957391418 30.134291155633406,115.85164166196815 29.94246404376664,116.31381260748326 29.747753527533142,116.8216793009738 29.552525330492436,117.37571415184472 29.359168007269318,117.9762940994892 29.170089484706935,118.6236997412368 28.987713573040566,119.31811457824425 28.814476450959816,120.05962438029924 28.65282312845804,120.84821667038312 30.830081374115068,122.4924057759831 31.54433112913521,122.12111494104465 32.2101256825956,121.7515672450798 32.82812214252529,121.3861177758962 33.39906969645006,121.02708624061228 33.923808147644344,120.6767537045913 34.403266342274875,120.33735938451368 34.83846048931653,120.01109749910626 35.230492375232046,119.7001141809829 35.58054747551544,119.40650445298573 35.88989296530538,119.13230927234595 36.15987563137866,118.87951264591112 36.391919687936024,118.65003881960916 36.58752449869137,118.44574954524086 36.74826220787276,118.26844142760953 36.87577528283715,118.11984335491272 36.97177397109268,118.00161401523138 37.0380336746108,117.91533950186218 37.07639224439609,117.86253101014424 37.08874719836478,117.84462262833642 37.44109515903094,117.31344813224678 40.50708959159806,119.21183151300653 40.188656682043145,119.76400531969611 40.178132832908915,119.7830474736169 40.147958495477226,119.84092342746698 40.10026320942998,119.93869254148707 40.03721894204584,120.07732639470576 39.96103687057618,120.25770727917713 39.87396411461515,120.48062680479163 39.77828042211114,120.74678461625199 39.67629481271645,121.05678722368883 39.57034218221726,121.41114694827273 39.462779871827905,121.81028098405916 39.355984206171605,122.25451057718192 39.25234700380375,122.74406032338842 39.154272064164644,123.27905758478676 39.064171634874945,123.85953202655068 38.98446286330971,124.48541527420332 38.91756423640577,125.15654069197512 38.86589201267218,125.87264328260486 38.83185665038401,126.63335970882713 38.81785923594701,127.43822843666086 41.26016447784609,128.65435194545734 41.89402826159706,128.15813999446812 42.480582186620914,127.67254512212125 43.020904918682874,127.19976157309557 43.51615913403188,126.74193189424105 43.96758948135634,126.30114399800162 44.376520446437226,125.87942829910324 44.74435412199351,125.47875492762009 45.072567885312644,125.1010310214487 45.362711986352636,124.74809810113567 45.616407049094505,124.42172952991616 45.83534148901243,124.12362806173007 46.02126884961534,123.85542347988913 46.17600506109633,123.61867032897223 46.30142562420673,123.41484574242801 46.39946272254818,123.24534736826217 46.4721022665501,123.11149139508406 46.52138087246999,123.01451068068168 46.549382779821485,122.95555298518588 46.55823671069848,122.93567931077553 46.80698222022885,122.34880530200522 50.169599302068555,123.65149009956653 49.95804998865215,124.25277399148008 49.951204314649196,124.27342566874825 49.93217843126618,124.33586069445492 49.90326027565857,124.44072908932992 49.86676336041266,124.58858679148236 49.825023334024735,124.7798947675137 49.78039451254325,125.01501824150986 49.73524638625234,125.29422604280666 49.69196010530089,125.61769007329944 49.652924948205346,125.98548489494243 49.62053477717271,126.39758743795805 49.59718448420588,126.8538768301505 49.58526643196445,127.35413434759153 49.587166893361214,127.8980434868192 49.605262493878435,128.48519015856422 49.6419166605866,129.11506300289042 49.69947608184424,129.7870538255104 49.780267181648696,130.50045815490898 49.88659261259492,131.2544759197823 50.020727771383314,132.04821224617314 52.64491023373383,132.79485653065342 53.176802575295795,132.19062136646374 53.66414148146032,131.60551566870578 54.10839044305986,131.04149811655873 54.51108603152136,130.50046113474082 54.87383535592889,129.98422838142255 55.198313437902925,129.4945523260372 55.48626050732064,129.03311191958943 55.73947922198258,128.60151035996478 55.95983181440775,128.20127295464076 56.14923716901355,127.83384508309845 56.30966783300763,127.50059026112689 56.443146964386045,127.20278830910557 56.55174522049633,126.94163362624046 56.6375775906844,126.71823357261749 56.70280017660145,126.53360696082393 56.74960692380029,126.38868265877306 56.78022630830052,126.28429830525096 56.796917981847955,126.22119913958545 56.801969379636354,126.20003694671877 56.93864170804126,125.57744871575863 60.48337154744613,126.24007356173877 60.38590988831119,126.86999153709775 60.38297551065722,126.89154946961287 60.37574598496245,126.95641741725827 60.36658973290017,127.06481392557646 60.35788302846798,127.2168603599516 60.35200645369877,127.41258066386783 60.35134134768604,127.65190123833823 60.35826625289985,127.93465094267114 60.37515336277327,128.26056121661378 60.40436497453874,128.62926632378608 60.4482499512896,129.040303716191 60.50914019723365,129.49311451946082 60.589347150093595,129.98704413837268 60.69115829459272,130.52134298204044 60.81683370094452,131.09516730806507 60.96860259224067,131.70758018480052 61.14865994460389,132.35755257076855 61.35916312394079,133.0439645101324 61.60222856309382,133.76560644301867 61.879928483152455,134.52118062935318 64.59662477955902,134.7729196139104 65.00843272317465,134.08123774033652 65.379960868529,133.4165462899477 65.71300769409676,132.78050167595316 66.00943134038582,132.17468175668532 66.27114664870358,131.60058383354954 66.50012213565769,131.0596227524416 66.69837690684226,130.55312911063407 66.86797751322158,130.08234757102014 67.01103475378068,129.6484352854916 67.12970042806602,129.25246042911073 67.2261640422893,128.89540084662082 67.3026494727147,128.57814281272115 67.36141159009169,128.30147990741227 67.40473284893525,128.06611200759784 67.43491984549036,127.872644396006 67.45429984824878,127.72158698837117 67.4652173049141,127.61335367969329 67.47003032973427,127.5482618102657 67.47110717514087,127.52653175203952 67.49105211019686,126.88943079438266 71.09718318392082,126.88943079438265 71.11712811897681,127.52653175203952 71.11820496438341,127.5482618102657 71.12301798920359,127.61335367969328 71.1339354458689,127.72158698837117 71.15331544862732,127.87264439600598 71.18350244518243,128.06611200759784 71.226823704026,128.30147990741227 71.28558582140299,128.57814281272113 71.36207125182838,128.89540084662082 71.45853486605168,129.25246042911073 71.577200540337,129.6484352854916 71.7202577808961,130.08234757102014 71.88985838727542,130.55312911063407 72.08811315845999,131.0596227524416 72.3170886454141,131.60058383354954 72.57880395373188,132.1746817566853 72.87522760002093,132.78050167595313 73.20827442558868,133.4165462899477 73.57980257094303,134.08123774033652 73.99161051455866,134.7729196139104 76.70830681096524,134.52118062935315 76.98600673102386,133.76560644301867 77.2290721701769,133.0439645101324 77.43957534951379,132.35755257076852 77.61963270187701,131.70758018480052 77.77140159317317,131.09516730806507 77.89707699952497,130.52134298204044 77.9988881440241,129.98704413837265 78.07909509688403,129.49311451946082 78.13998534282808,129.04030371619098 78.18387031957894,128.62926632378608 78.21308193134442,128.26056121661378 78.22996904121783,127.93465094267113 78.23689394643165,127.65190123833821 78.23622884041892,127.41258066386783 78.23035226564971,127.2168603599516 78.22164556121751,127.06481392557644 78.21248930915523,126.95641741725825 78.20525978346046,126.89154946961287 78.20232540580649,126.86999153709773 78.10486374667155,126.24007356173877 81.64959358607638,125.57744871575865 81.78626591448128,126.20003694671877 81.79131731226968,126.22119913958545 81.80800898581711,126.28429830525096 81.83862837031734,126.38868265877306 81.88543511751618,126.53360696082393 81.95065770343324,126.7182335726175 82.03649007362131,126.94163362624047 82.14508832973158,127.20278830910559 82.27856746111,127.5005902611269 82.43899812510408,127.83384508309845 82.62840347970987,128.20127295464076 82.84875607213505,128.60151035996478 83.101974786797,129.03311191958943 83.38992185621471,129.4945523260372 83.71439993818873,129.98422838142255 84.07714926259627,130.50046113474082 84.47984485105776,131.04149811655873 84.9240938126573,131.60551566870578 85.41143271882183,132.19062136646374 85.9433250603838,132.79485653065342 88.56750752273432,132.04821224617314 88.70164268152271,131.2544759197823 88.80796811246893,130.50045815490898 88.88875921227338,129.7870538255104 88.94631863353104,129.11506300289042 88.9829728002392,128.48519015856422 89.00106840075642,127.8980434868192 89.00296886215318,127.35413434759153 88.99105080991174,126.85387683015051 88.96770051694493,126.39758743795807 88.93531034591228,125.98548489494245 88.89627518881673,125.61769007329946 88.8529889078653,125.29422604280666 88.80784078157437,125.01501824150986 88.7632119600929,124.77989476751371 88.72147193370498,124.58858679148236 88.68497501845907,124.44072908932992 88.65605686285146,124.33586069445494 88.63703097946843,124.27342566874826 88.63018530546549,124.2527739914801 88.41863599204908,123.65149009956653 91.78125307388873,122.34880530200525 92.02999858341911,122.93567931077555 92.0388525142961,122.95555298518592 92.0668544216476,123.01451068068172 92.11613302756749,123.11149139508409 92.1887725715694,123.2453473682622 92.28680966991087,123.41484574242804 92.41223023302126,123.61867032897226 92.56696644450224,123.85542347988915 92.75289380510516,124.12362806173012 92.97182824502309,124.4217295299162 93.22552330776495,124.7480981011357 93.51566740880494,125.10103102144873 93.84388117212407,125.47875492762012 94.21171484768035,125.87942829910328 94.62064581276124,126.30114399800166 95.0720761600857,126.74193189424108 95.56733037543471,127.1997615730956 96.10765310749666,127.67254512212128 96.69420703252052,128.15813999446814 97.32807081627149,128.65435194545736 99.77037605817056,127.43822843666089 99.75637864373357,126.63335970882716 99.7223432814454,125.8726432826049 99.67067105771181,125.15654069197515 99.60377243080787,124.48541527420335 99.52406365924264,123.85953202655071 99.43396322995294,123.27905758478678 99.33588829031385,122.74406032338845 99.23225108794598,122.25451057718196 99.12545542228968,121.81028098405919 99.01789311190034,121.41114694827276 98.91194048140113,121.05678722368887 98.80995487200644,120.74678461625203 98.71427117950245,120.48062680479167 98.6271984235414,120.25770727917717 98.55101635207174,120.07732639470579 98.48797208468761,119.9386925414871 98.44027679864037,119.840923427467 98.41010246120868,119.78304747361693 98.39957861207444,119.76400531969614 98.08114570251952,119.21183151300656 101.14714013508666,117.31344813224682 101.49948809575281,117.84462262833645 101.5118430497215,117.86253101014427 101.5502016195068,117.9153395018622 101.61646132302491,118.00161401523144 101.71246001128046,118.11984335491275 101.83997308624484,118.26844142760956 102.00071079542622,118.4457495452409 102.19631560618157,118.65003881960921 102.42835966273893,118.87951264591115 102.69834232881222,119.13230927234599 103.00768781860215,119.40650445298577 103.35774291888555,119.70011418098295 103.74977480480106,120.01109749910628 104.1849689518427,120.33735938451372 104.66442714647324,120.67675370459135 105.18916559766754,121.02708624061232 105.7601131515923,121.38611777589622 106.37810961152198,121.75156724507985 107.04390416498238,122.12111494104471 107.75815392000253,122.49240577598314 109.93541216565956,120.84821667038318 109.77375884315778,120.05962438029928 109.60052172107703,119.31811457824429 109.41814580941065,118.62369974123685 109.22906728684828,117.97629409948925 109.03570996362515,117.37571415184476 108.84048176658446,116.82167930097384 108.64577125035096,116.3138126074833 108.45394413848419,115.85164166196819 108.26733989844504,115.43459957391423 108.08826835417253,115.06202607623717 107.91900634002518,114.73316874412544 107.76179439979693,114.44718432673366 107.61883353446811,114.20314019015791 107.4922820022995,114.00001587000735 107.38425217482168,113.83670473177362 107.29680745221182,113.71201573708706 107.2319592414871,113.62467531383868 107.19166400087784,113.57332932803902 107.17782035367262,113.55654515517884 106.76334769879591,113.07228505044056 109.42831071894439,110.64285025565428 109.87226234354063,111.10023672867248 109.88769758746174,111.11556996941405 109.93510656459281,111.16043092750549 110.01609097097561,111.23306126476362 110.13217968329397,111.33163781258578 110.28482643004844,111.45427525467161 110.47540755539828,111.59902888810177 110.70521987819981,111.76389745970087 110.97547864867175,111.9468260745326 111.28731560501578,112.14570917329908 111.64177713221801,112.35839357534333 112.03982252514948,112.58268158388375 112.48232235797694,112.81633415004376 112.97005696178431,113.0570740921759 113.50371501219308,113.30258936692115 114.08389222865617,113.55053638838706 114.7110901869839,113.79854339177712 115.38571524654347,114.04421383775394 116.10807759345485,114.28512985377432 116.87839040098513,114.51885570859244 118.7164577321777,112.5025918941927 118.41265341162715,111.75713060648525 118.10611391217125,111.06007865556353 117.79924490550809,110.41099903659389 117.49442532959844,109.8093597935227 117.19400400645326,109.25453517568717 116.90029630376134,108.74580690806408 116.61558084403428,108.28236557360921 116.34209626489195,107.86331210602204 116.08203803405739,107.48765939115872 115.83755532256927,107.15433397520178 115.61074793965813,106.86217787758635 115.40366333266584,106.6099505065734 115.21829365531832,106.39633067525466 115.05657290758833,106.21991871567002 114.92037415030961,106.07923868861636 114.8115067976241,105.97274068662801 114.73171399026128,105.89880322751176 114.68267005256459,105.85573573572621 114.66597803609034,105.84178110880299 114.1695800050485,105.4419256030769 116.34275949339808,102.5641708824146 116.86319654181005,102.93219358459734 116.88118644696442,102.9444295291494 116.93603137558588,102.97981526749132 117.02898265800407,103.03632808961353 117.1612081325203,103.11189493946998 117.33379034918374,103.20439547994198 117.5477248790551,103.31166521779735 117.80391873087933,103.4314986851595 118.10318887697706,103.56165267394161 118.44626089005075,103.69984951964524 118.83376769248616,103.84378043086915 119.26624841961225,103.99110886082579 119.74414739826477,104.13947391711721 120.26781324187836,104.28649380598054 120.83749806321099,104.42976930717506 121.45335680568209,104.56688727564955 122.11544669418296,104.69542416609694 122.82372680609271,104.81294957647847 123.57805776310917,104.91702980657568 124.3782015443775,105.00523142761091 125.81448478266063,102.68555435036889 125.37887515582452,102.00860985510852 124.94947211399385,101.37975302348703 124.528560068307,100.79811225049399 124.1183797041169,100.26272750893528 123.7211248688937,99.7725521078303 123.3389395241022,99.32645455445666 122.973914764384,98.92322051784568 122.62808590730023,98.5615548914259 122.30342965681584,98.2400839524121 122.00186134362713,97.95735761543591 121.72523224535178,97.71185177781848 121.47532698951598,97.50197075379083 121.2538610421854,97.32604979487593 121.0624782849953,97.18235769355802 120.90274868324242,97.06909946727865 120.77616604760496,96.98441911971594 120.68414589195788,96.92640247622386 120.62802338965028,96.8930800902314 120.60905143050816,96.88243021732826 120.0476322628845,96.58059591028805 121.65502319840091,93.35251974927556 122.23422281114041,93.6186461088946 122.25415475288446,93.62736807684081 122.31456795473136,93.65207357655449 122.41632076874498,93.69054440716306 122.5601802255114,93.74052822061438 122.74682083168489,93.79974186450895 122.9768234822492,93.86587476452276 123.2506744887429,93.93659234264132 123.56876472457606,94.00953946738835 123.93138888844372,94.08234393219753 124.33874488671854,94.15261995804548 124.79093333558042,94.21797171643715 125.28795718351664,94.27599686881227 125.82972145470015,94.32429011842243 126.41603311362778,94.3604467707131 127.0466010512732,94.38206629823462 127.72103619288364,94.38675590609816 128.43885172742083,94.37213409399003 129.19946345852142,94.33583421075862 130.0021902767234,94.27550799759277 130.98777851904924,91.73141147822794 130.43519774931332,91.14603630829528 129.8975539706852,90.60678956114427 129.37693254086219,90.1123947130509 128.875359588737,89.66149635825523 128.39479927839466,89.25266250926482 127.93715115503966,88.88438698728575 127.50424757572358,88.55509190000953 127.09785122765034,88.26313020389476 126.71965273674412,88.00678834799672 126.37126836906916,87.78428899631413 126.0542378275913,87.59379382554297 125.77002214667117,87.43340639504933 125.52000168657477,87.30117508580017 125.30547423018234,87.19509610491968 125.12765318396845,87.11311655247228 124.98766588521654,87.05313754700859 124.88655201731972,87.01301740635148 124.82526213490578,86.99057488004128 124.80465630041003,86.98359242980685 124.19733445260991,86.79005792676841 125.18419906483706,83.32158858741839 125.8024372937656,83.47675599048029 125.82363251372901,83.4816669656631 125.88755668967009,83.49485091058676 125.99464596523694,83.51396967168603 126.14524044299378,83.53666830991409 126.3395836166848,83.56057860760735 126.57782192353487,83.58332259318729 126.86000441712,83.60251607975582 127.18608256121445,83.61577221362494 127.55591014489532,83.62070502880992 127.96924331905797,83.61493300350845 128.4257407543699,83.59608261458392 128.9249639205628,83.56179188607211 129.46637748683568,83.50971392773499 130.04934984301684,83.43752045969316 130.67315374100298,83.34290531918177 131.33696705587118,83.22358794549022 132.039873665932,83.07731683916684 132.7808644508673,82.90187299159335 133.5588384069738,82.69507328106246 134.0601686278327,80.01319347523435 133.40943419056276,79.53932187996134 132.7818584891858,79.10804861849984 132.17925681360265,78.7177357188967 131.60337173885657,78.36667855354366 131.0558708583952,78.05310860305305 130.5383446144291,77.77519629367171 130.05230422769816,77.53105390498152 129.59917972885037,77.31873854456349 129.18031809353107,77.13625518623563 128.79698148317,76.98155976840965 128.45034559334346,76.8525623490516 128.14149811147357,76.7471303136739 127.87143728551342,76.66309163273299 127.6410706051488,76.59823816475613 127.45121359692988,76.55032900147563 127.30258873462628,76.51709385120515 127.19582446597823,76.49623645665427 127.13145435689447,76.485438043343 127.10991635402483,76.48236079474547 126.47737344317281,76.40371668109074 "
     id="polyline7126"
     transform="matrix(3.779539,0,0,3.779539,356.29261,216.16685)" />
</svg>
