<?xml version="1.0" encoding="UTF-8" standalone="no"?>
<!-- Created with Inkscape (http://www.inkscape.org/) -->

<svg
   xmlns:dc="http://purl.org/dc/elements/1.1/"
   xmlns:cc="http://creativecommons.org/ns#"
   xmlns:rdf="http://www.w3.org/1999/02/22-rdf-syntax-ns#"
   xmlns:svg="http://www.w3.org/2000/svg"
   xmlns="http://www.w3.org/2000/svg"
   xmlns:sodipodi="http://sodipodi.sourceforge.net/DTD/sodipodi-0.dtd"
   xmlns:inkscape="http://www.inkscape.org/namespaces/inkscape"
   width="210mm"
   height="297mm"
   viewBox="0 0 744.09448819 1052.3622047"
   id="svg2"
   version="1.1"
   inkscape:version="0.91 r13725"
   sodipodi:docname="N51.svg">
  <defs
     id="defs4">
    <marker
       orient="auto"
       id="DistanceX"
       style="overflow:visible"
       refX="0.0"
       refY="0.0">
      <path
         id="path4143"
         d="M 3,-3 L -3,3 M 0,-5 L  0,5"
         style="stroke:#000000; stroke-width:0.5" />
    </marker>
    <pattern
       id="Hatch"
       x="0"
       y="0"
       patternUnits="userSpaceOnUse"
       width="8"
       height="8">
      <path
         id="path4146"
         d="M8 4 l-4,4"
         stroke-width="0.25"
         stroke="#000000"
         linecap="square" />
      <path
         id="path4148"
         d="M6 2 l-4,4"
         stroke-width="0.25"
         stroke="#000000"
         linecap="square" />
      <path
         id="path4150"
         d="M4 0 l-4,4"
         stroke-width="0.25"
         stroke="#000000"
         linecap="square" />
    </pattern>
    <symbol
       id="*MODEL_SPACE" />
    <symbol
       id="*PAPER_SPACE" />
  </defs>
  <sodipodi:namedview
     id="base"
     pagecolor="#ffffff"
     bordercolor="#666666"
     borderopacity="1.0"
     inkscape:pageopacity="0.0"
     inkscape:pageshadow="2"
     inkscape:zoom="0.35"
     inkscape:cx="-187.85714"
     inkscape:cy="520"
     inkscape:document-units="px"
     inkscape:current-layer="layer1"
     showgrid="false"
     inkscape:window-width="2560"
     inkscape:window-height="1387"
     inkscape:window-x="1912"
     inkscape:window-y="-8"
     inkscape:window-maximized="1" />
  <metadata
     id="metadata7">
    <rdf:RDF>
      <cc:Work
         rdf:about="">
        <dc:format>image/svg+xml</dc:format>
        <dc:type
           rdf:resource="http://purl.org/dc/dcmitype/StillImage" />
        <dc:title></dc:title>
      </cc:Work>
    </rdf:RDF>
  </metadata>
  <g
     inkscape:label="Capa 1"
     inkscape:groupmode="layer"
     id="layer1">
    <g
       id="g4154"
       inkscape:label="0"
       transform="translate(0.17806736,0.00157729)">
      <path
         id="path4156"
         d="m -282.60602,1246.2641 5.74793,-9.0282 6.03424,-7.8984 4.64749,-5.0725 0.54773,-0.8742 0.35045,-0.9703 0.13732,-1.0225 -0.0821,-1.0283 -0.29769,-0.9878 -0.4999,-0.9024 -0.42075,-0.6757 -0.41907,-0.6768 -0.41731,-0.6778 -0.58503,-0.8498 -0.75155,-0.7068 -0.88402,-0.5318 -0.97649,-0.3328 -1.02483,-0.1188 -1.02673,0.1007 -6.61207,1.8992 -8.99095,1.7653 -11.41285,1.2368 -1.61213,-2.933 -1.58344,-2.9487 -1.55455,-2.9641 6.81385,-8.2534 6.95911,-7.0969 5.2356,-4.463 0.65103,-0.8003 0.46703,-0.9199 0.26189,-0.9978 0.045,-1.0306 -0.1741,-1.0169 -0.38519,-0.957 -0.33454,-0.7223 -0.33267,-0.7231 -0.33089,-0.724 -0.47619,-0.9152 -0.65897,-0.7938 -0.81195,-0.6365 -0.92822,-0.4503 -1.00246,-0.2437 -1.03132,-0.026 -6.79536,1.0722 -9.13972,0.6471 -11.47833,-0.175 -1.23948,-3.109 -1.20906,-3.1209 -1.17852,-3.1326 7.77643,-7.3536 7.77849,-6.1879 5.74437,-3.7858 0.74447,-0.7142 0.57652,-0.8555 0.38252,-0.9581 0.17125,-1.0173 -0.0478,-1.0305 -0.26469,-0.9971 -0.2432,-0.7579 -0.24134,-0.7586 -0.23938,-0.7592 -0.36011,-0.9667 -0.55642,-0.8688 -0.7276,-0.7314 -0.86584,-0.5609 -0.96492,-0.3652 -1.02027,-0.1527 -6.87561,0.229 -9.14999,-0.481 -11.3698,-1.5843 -0.84803,-3.2377 -0.81637,-3.2459 -0.78464,-3.2537 8.62115,-6.3421 8.48,-5.1852 6.16609,-3.0511 0.82655,-0.6173 0.67728,-0.7782 0.49735,-0.9038 0.295,-0.9886 0.0792,-1.0286 -0.14013,-1.022 -0.14828,-0.7821 -0.14625,-0.7825 -0.14429,-0.7828 -0.23857,-1.0037 -0.44544,-0.9305 -0.6322,-0.8153 -0.79036,-0.6631 -0.91271,-0.4809 -0.99378,-0.277 -6.85165,-0.6177 -9.02148,-1.6018 -11.08899,-2.9695 -0.44372,-3.3174 -0.41127,-3.3215 -0.37884,-3.3255 9.33513,-5.2346 9.05291,-4.1038 6.49431,-2.2703 0.89615,-0.511 0.76778,-0.6891 0.60467,-0.8358 0.41422,-0.9448 0.20501,-1.0111 -0.0135,-1.0315 -0.051,-0.7944 -0.049,-0.7945 -0.047,-0.7946 -0.1134,-1.0254 -0.32775,-0.9783 -0.52725,-0.8868 -0.70283,-0.7552 -0.84671,-0.5894 -0.95222,-0.397 -6.72378,-1.455 -8.75629,-2.6983 -10.64,-4.3096 -0.0327,-3.3468 0,-3.347 0.0327,-3.3468 9.9077,-4.0477 9.48859,-2.9602 6.72405,-1.455 0.95218,-0.3971 0.84662,-0.5894 0.70283,-0.7552 0.52715,-0.8868 0.32771,-0.9782 0.1134,-1.0254 0.047,-0.7946 0.049,-0.7945 0.051,-0.7944 0.0135,-1.0316 -0.20505,-1.011 -0.41425,-0.9449 -0.60473,-0.8358 -0.76785,-0.6891 -0.89619,-0.511 -6.49407,-2.2702 -8.35832,-3.7539 -10.02972,-5.5845 0.37884,-3.3255 0.41127,-3.3215 0.44372,-3.3174 10.33003,-2.7996 9.78044,-1.7717 6.85192,-0.6177 0.99371,-0.27702 0.91268,-0.48095 0.79029,-0.6631 0.63214,-0.81525 0.44544,-0.93051 0.23853,-1.00366 0.14429,-0.78283 0.14625,-0.78247 0.14828,-0.78208 0.14013,-1.02211 -0.0792,-1.02862 -0.295,-0.9886 -0.49744,-0.90382 -0.67736,-0.77817 -0.82661,-0.61729 -6.16582,-3.05103 -7.83367,-4.75257 -9.26748,-6.77476 0.78464,-3.25367 0.81637,-3.24586 0.84803,-3.23772 10.59573,-1.5089 9.92406,-0.55638 6.87588,0.22902 1.02024,-0.15282 0.96482,-0.36515 0.8658,-0.56097 0.72754,-0.73138 0.55641,-0.86872 0.36008,-0.96674 0.23938,-0.75916 0.24134,-0.75856 0.2432,-0.75794 0.26469,-0.99714 0.0478,-1.03056 -0.17129,-1.01736 -0.38259,-0.95811 -0.57658,-0.8555 -0.7445,-0.71419 -5.74417,-3.78563 -7.19024,-5.6792 -8.36468,-7.86227 1.17852,-3.13259 1.20906,-3.12093 1.23948,-3.10898 10.70086,-0.19536 9.91719,0.66738 6.79563,1.07225 1.03129,-0.0263 1.00239,-0.24381 0.92815,-0.45032 0.81192,-0.63643 0.65893,-0.79376 0.47616,-0.91517 0.33089,-0.72399 0.33267,-0.72315 0.33454,-0.7223 0.38519,-0.95707 0.1741,-1.01688 -0.045,-1.03069 -0.26196,-0.99786 -0.46706,-0.91988 -0.65107,-0.80026 -5.23543,-4.46282 -6.43788,-6.51977 -7.33508,-8.83059 1.55455,-2.96404 1.58344,-2.94868 1.61213,-2.93308 10.64379,1.12112 9.76001,1.88103 6.61231,1.89922 1.02672,0.10065 1.02477,-0.1188 0.97646,-0.33283 0.88397,-0.53183 0.75149,-0.70678 0.585,-0.84971 0.41731,-0.67784 0.41907,-0.6768 0.42075,-0.67571 0.4999,-0.90247 0.29772,-0.98778 0.082,-1.0284 -0.13733,-1.02248 -0.3505,-0.97031 -0.54781,-0.87422 -4.64731,-5.07236 -5.58787,-7.2615 -6.1943,-9.66504 1.90701,-2.75054 1.93377,-2.73176 1.96034,-2.71276 10.42534,2.42065 9.45489,3.06616 6.32881,2.6974 1.00657,0.22605 1.03159,0.008 1.00997,-0.21034 0.94261,-0.41915 0.83266,-0.60906 0.68499,-0.77139 0.49746,-0.62143 0.49904,-0.62016 0.5006,-0.61889 0.60704,-0.8342 0.41683,-0.94372 0.20777,-1.01052 -0.0106,-1.03162 -0.2286,-1.00601 -0.4362,-0.93491 -3.98876,-5.60502 -4.65318,-7.89314 -4.95962,-10.35301 2.23055,-2.49531 2.25481,-2.47344 2.27887,-2.45128 10.04885,3.68342 9.00641,4.20484 5.94938,3.45471 0.97116,0.34803 1.02278,0.13475 1.02815,-0.0846 0.987,-0.30015 0.90117,-0.50213 0.77459,-0.68135 0.57006,-0.55559 0.57147,-0.55413 0.57289,-0.55268 0.70491,-0.75328 0.52965,-0.88534 0.33039,-0.97732 0.11621,-1.02511 -0.10325,-1.02652 -0.31801,-0.98141 -3.26974,-6.0527 -3.64791,-8.40514 -3.6498,-10.88401 2.52032,-2.20231 2.54167,-2.17755 2.56282,-2.15266 9.52004,4.89039 8.42143,5.27972 5.47975,4.15963 0.92102,0.46473 0.99848,0.25944 1.03074,0.0424 1.0164,-0.17658 0.95607,-0.38758 0.85244,-0.58102 0.63402,-0.4813 0.63523,-0.4797 0.63645,-0.47812 0.79214,-0.66093 0.63444,-0.81355 0.44799,-0.92932 0.24131,-1.00304 0.0237,-1.0314 -0.195,-1.01308 -2.50115,-6.40864 -2.58737,-8.78969 -2.2846,-11.25005 2.77182,-1.8759 2.79002,-1.84873 2.80795,-1.8214 8.8469,6.02323 7.70879,6.27463 4.92704,4.80148 0.85692,0.57441 0.95902,0.38014 1.01774,0.16874 1.03041,-0.0504 0.99643,-0.26714 0.91739,-0.47186 0.68835,-0.39974 0.68938,-0.39802 0.69038,-0.39625 0.86736,-0.55858 0.72958,-0.72943 0.55881,-0.86722 0.36274,-0.96578 0.15024,-1.02068 -0.069,-1.02938 -1.69463,-6.6674 -1.48763,-9.04105 -0.8848,-11.44552 2.98135,-1.52103 2.99607,-1.49187 3.01049,-1.46256 8.03966,7.06477 6.87928,7.17437 4.29965,5.3706 0.77984,0.67533 0.90505,0.49511 0.98928,0.29254 1.02878,0.0766 1.02171,-0.14263 0.96842,-0.35556 0.73227,-0.31216 0.73305,-0.31024 0.73384,-0.30842 0.92944,-0.44777 0.8137,-0.63424 0.66113,-0.79194 0.47867,-0.91392 0.27455,-0.99449 0.058,-1.03004 -0.86245,-6.82513 -0.3653,-9.15533 0.52845,-11.46748 3.14566,-1.14317 3.15669,-1.11235 3.1674,-1.0815 7.11054,7.99918 5.945497,7.96539 3.607077,5.85825 0.690937,0.76606 0.837339,0.6026 0.945844,0.41185 1.011552,0.20252 1.031506,-0.016 1.004777,-0.23384 0.765075,-0.21978 0.765617,-0.21782 0.766191,-0.21593 0.977405,-0.33011 0.885476,-0.52945 0.753451,-0.70476 0.587349,-0.84813 0.394669,-0.9532 0.184122,-1.0151 -0.01717,-6.87939 0.762549,-9.13084 1.933649,-11.31562 3.26231,-0.74795 3.269456,-0.71601 3.2763,-0.68407 6.073644,8.81238 4.921579,8.63564 2.859822,6.25713 0.591569,0.84516 0.756936,0.70094 0.888061,0.52495 0.979006,0.32528 1.025651,0.11084 1.025897,-0.10858 0.78628,-0.12408 0.786597,-0.12212 0.786901,-0.1201 1.01058,-0.20755 0.943816,-0.41661 0.834349,-0.6068 0.687127,-0.76953 0.508809,-0.89748 0.307474,-0.98478 0.828351,-6.82936 1.878838,-8.96788 3.309563,-10.99228 3.32949,-0.34136 3.332668,-0.30879 3.335523,-0.27628 4.944671,9.49196 3.823061,9.17497 2.069223,6.56114 0.483218,0.91146 0.665065,0.78863 0.816818,0.63015 0.931613,0.44307 1.004257,0.23607 1.031464,0.0183 0.795573,-0.0265 0.795637,-0.0245 0.795697,-0.0225 1.028424,-0.0818 0.987859,-0.29747 0.902593,-0.49967 0.776487,-0.67928 0.615242,-0.82813 0.426161,-0.93954 1.661319,-6.67581 2.966653,-8.66903 4.635295,-10.50227 3.346203,0.0704 3.345356,0.10306 3.344191,0.13574 3.740743,10.02763 2.666585,9.57526 1.247254,6.76568 0.36755,0.96394 0.563109,0.86439 0.733189,0.72571 0.870101,0.55425 0.967637,0.35765 1.021398,0.14493 0.792802,0.0714 0.792618,0.0734 0.79243,0.0755 1.030678,0.0452 1.016925,-0.17382 0.957158,-0.38496 0.854076,-0.57868 0.712348,-0.74625 0.538387,-0.88004 2.469107,-6.42108 4.009493,-8.23876 5.890764,-9.853 3.312186,0.48106 3.307337,0.5134 3.302163,0.54566 2.480105,10.41133 1.469686,9.83036 0.406378,6.8677 0.246307,1.00179 0.452617,0.927 0.638455,0.81036 0.795391,0.65698 0.916357,0.47386 0.995843,0.26931 0.778018,0.16835 0.777587,0.17028 0.777148,0.17227 1.017309,0.17156 1.030576,-0.0476 0.997208,-0.26441 0.918717,-0.46937 0.798657,-0.65306 0.642454,-0.80721 3.239467,-6.06897 4.991544,-7.68357 7.05693,-9.05443 3.227977,0.88446 3.219175,0.91589 3.210076,0.94735 1.181879,10.63722 0.250512,9.93646 -0.440666,6.86554 0.121337,1.02446 0.335259,0.97563 0.53404,0.88267 0.70863,0.7497 0.85117,0.58291 0.9552,0.38969 0.75143,0.26266 0.75077,0.26455 0.75009,0.26645 0.98851,0.29527 1.0286,0.0795 1.02216,-0.13987 0.96943,-0.35292 0.87286,-0.54995 0.73678,-0.72216 3.9607,-5.62485 5.89795,-7.01197 8.11613,-8.1186 3.09482,1.27445 3.08221,1.30459 3.06934,1.3346 -0.13426,10.70184 -0.97248,9.89195 -1.28101,6.75937 -0.005,1.03163 0.21282,1.00942 0.42152,0.94159 0.61113,0.8311 0.77308,0.68308 0.90008,0.50409 0.71347,0.35304 0.71256,0.35481 0.71165,0.35662 0.94476,0.41447 1.01104,0.2053 1.03157,-0.0132 1.00547,-0.23111 0.93382,-0.43853 0.81993,-0.62611 4.62192,-5.09552 6.71493,-6.23405 9.0523,-7.05964 2.91473,1.64508 2.89856,1.67346 2.88204,1.70171 -1.44838,10.60421 -2.18069,9.69745 -2.10194,6.55071 -0.13223,1.02312 0.0872,1.02794 0.30262,0.98624 0.50436,0.89994 0.6833,0.77288 0.83129,0.61089 0.66468,0.43802 0.66356,0.43968 0.66244,0.44137 0.88666,0.52747 0.97813,0.32797 1.02539,0.11367 1.02623,-0.10578 0.98063,-0.32048 0.89068,-0.5206 5.21307,-4.48891 7.43013,-5.36159 9.85122,-5.89375 2.69049,1.99082 2.67092,2.01698 2.6511,2.04296 -2.74055,10.34586 -3.35586,9.35596 -2.89102,6.24275 -0.25695,0.99914 -0.0398,1.03084 0.17911,1.01598 0.38996,0.95509 0.58312,0.851 0.74994,0.70841 0.60581,0.51635 0.60449,0.51791 0.60318,0.51945 0.81512,0.63239 0.93042,0.44569 1.00366,0.23881 1.03145,0.0212 1.01257,-0.19754 0.9479,-0.40719 5.7252,-3.81426 8.03267,-4.4079 10.50086,-4.63847 2.42544,2.30634 2.40281,2.32995 2.37992,2.35326 -3.99114,9.93063 -4.48016,8.87268 -3.63628,5.84016 -0.37776,0.95998 -0.1662,1.01814 0.0529,1.03027 0.26962,0.99578 0.47415,0.91622 0.65718,0.79519 0.53777,0.58691 0.53626,0.58826 0.5348,0.58963 0.73119,0.72778 0.86861,0.55665 0.96671,0.36034 1.02101,0.14772 1.02919,-0.0716 0.99077,-0.28765 6.15052,-3.08178 8.51347,-3.38735 10.99125,-3.31288 2.12366,2.58692 2.09826,2.60754 2.07273,2.62789 -5.18125,9.36492 -5.53656,8.25486 -4.3264,5.34905 -0.49291,0.90626 -0.29003,0.99001 -0.0741,1.02897 0.14522,1.02135 0.35795,0.96754 0.55449,0.86995 0.46156,0.64853 0.45992,0.64971 0.45826,0.65086 0.63623,0.81213 0.79361,0.65919 0.91508,0.4764 0.99515,0.27207 1.03018,0.0554 1.0186,-0.16372 6.48263,-2.30259 8.86522,-2.31547 11.31507,-1.93709 1.78963,2.82829 1.76193,2.84563 1.73409,2.86271 -6.29281,8.6572 -6.50906,7.51191 -4.95093,4.77685 -0.60053,0.83883 -0.40952,0.94685 -0.19996,1.01206 0.0186,1.03146 0.23633,1.0042 0.44336,0.93148 0.3784,0.70033 0.37657,0.70132 0.37482,0.70225 0.53161,0.88414 0.70658,0.75172 0.8496,0.58525 0.95418,0.3923 1.01555,0.18162 1.031,-0.0373 6.71646,-1.4885 9.08254,-1.20851 11.46739,-0.5319 1.4285,3.02678 1.39891,3.04058 1.3691,3.0541 -7.30899,7.81828 -7.38283,6.65508 -5.50043,4.13224 -0.69904,0.75867 -0.52276,0.88937 -0.32284,0.9798 -0.10831,1.02593 0.11114,1.02562 0.32555,0.97891 0.28943,0.74154 0.28757,0.74225 0.28567,0.74299 0.41891,0.94279 0.60889,0.83284 0.77123,0.68522 0.89876,0.50658 0.98549,0.30504 1.02781,0.0897 6.84844,-0.65186 9.16223,-0.0832 11.44582,0.88132 1.04572,3.17939 1.01463,3.18944 0.98343,3.1992 -8.21436,6.86084 -8.1447,5.69737 -5.96655,3.42497 -0.78697,0.66702 -0.62812,0.81838 -0.44077,0.93271 -0.23357,1.00484 -0.0157,1.03151 0.20275,1.0115 0.19613,0.77148 0.19417,0.77197 0.1922,0.77247 0.2999,0.98711 0.50191,0.90136 0.68117,0.7748 0.82965,0.61319 0.94063,0.42383 1.00895,0.21529 6.87666,0.19468 9.10302,1.04338 11.25074,2.28121 0.64708,3.28379 0.61497,3.28995 0.58287,3.29581 -8.99522,5.79944 -8.78312,4.6533 -6.34221,2.6658 -0.86297,0.5652 -0.72392,0.735 -0.55205,0.8715 -0.35528,0.9685 -0.1424,1.0218 0.077,1.0287 0.0998,0.7898 0.0978,0.7899 0.0958,0.7903 0.17633,1.0165 0.38732,0.9562 0.58084,0.8526 0.74801,0.7105 0.88135,0.5362 0.97489,0.3377 6.8006,1.0382 8.90578,2.1541 10.88515,3.6465 0.23864,3.3385 0.20603,3.3406 0.17341,3.3424 -9.63969,4.65 -9.28837,3.5387 -6.62177,1.8662 -0.92589,0.4549 -0.80874,0.6405 -0.65498,0.797 -0.4716,0.9176 -0.26685,0.9965 -0.0501,1.0304 0.002,0.796 0,0.796 -0.002,0.796 0.0501,1.0305 0.26689,0.9965 0.47166,0.9176 0.65502,0.797 0.8088,0.6405 0.92596,0.4549 6.6215,1.8661 8.57357,3.2322 10.35449,4.9565 -0.17341,3.3424 -0.20603,3.3406 -0.23864,3.3385 -10.13809,3.4301 -9.65284,2.3705 -6.80087,1.0383 -0.97478,0.3377 -0.88132,0.5362 -0.74798,0.7105 -0.58078,0.8526 -0.38728,0.9562 -0.17633,1.0164 -0.0958,0.7903 -0.0978,0.7899 -0.0998,0.7898 -0.077,1.0288 0.14243,1.0218 0.35529,0.9685 0.55212,0.8715 0.72398,0.735 0.86304,0.5652 6.34197,2.6657 8.11141,4.2613 9.66693,6.1914 -0.58287,3.2958 -0.61497,3.29 -0.64708,3.2838 -10.48279,2.1583 -9.87097,1.1662 -6.87693,0.1947 -1.00892,0.2154 -0.94052,0.4238 -0.82962,0.6132 -0.68114,0.7748 -0.50187,0.9013 -0.29987,0.9871 -0.1922,0.7725 -0.19417,0.7719 -0.19613,0.7715 -0.20275,1.0116 0.0158,1.0315 0.2336,1.0049 0.44081,0.9327 0.62819,0.8184 0.78704,0.667 5.96631,3.4249 7.52624,5.2258 8.83282,7.3324 -0.98343,3.1992 -1.01463,3.1894 -1.04572,3.1794 -10.66855,0.8537 -9.9395,-0.056 -6.84871,-0.6518 -1.02774,0.09 -0.9855,0.3051 -0.89865,0.5066 -0.77119,0.6852 -0.60886,0.8328 -0.41888,0.9427 -0.28567,0.743 -0.28757,0.7423 -0.28943,0.7415 -0.32555,0.979 -0.11114,1.0256 0.10834,1.026 0.32288,0.9798 0.52282,0.8894 0.69912,0.7587 5.50022,4.132 6.82702,6.1111 7.8648,8.3623 -1.3691,3.0541 -1.39891,3.0406 -1.4285,3.0268 -10.69262,-0.4638 -9.85731,-1.2766 -6.71673,-1.4886 -1.03094,-0.037 -1.01551,0.1816 -0.95411,0.3923 -0.84957,0.5853 -0.70655,0.7517 -0.53157,0.8841 -0.37482,0.7022 -0.37657,0.7013 -0.3784,0.7004 -0.44336,0.9315 -0.23636,1.0042 -0.0186,1.0316 0.20005,1.012 0.40955,0.9469 0.6006,0.8389 4.95074,4.7766 6.02428,6.9037 6.77759,9.2654 -1.73409,2.8627 -1.76193,2.8457 -1.78963,2.8282 -10.55459,-1.7742 -9.6257,-2.4783 -6.48288,-2.3027 -1.01857,-0.1636 -1.03012,0.055 -0.99509,0.2721 -0.91506,0.4764 -0.79356,0.6592 -0.6362,0.8121 -0.45826,0.6509 -0.45992,0.6497 -0.46156,0.6485 -0.55452,0.87 -0.35794,0.9676 -0.1452,1.0214 0.0742,1.029 0.2901,0.99 0.49295,0.9063 4.32624,5.3488 5.13025,7.5917 5.58756,10.0281 -2.07273,2.6279 -2.09826,2.6075 -2.12366,2.587 -10.25654,-3.0579 -9.24818,-3.6424 -6.15075,-3.0819 -0.99076,-0.2876 -1.02912,-0.072 -1.021,0.1477 -0.96666,0.3604 -0.86854,0.5566 -0.73117,0.7278 -0.5348,0.5896 -0.53626,0.5883 -0.53777,0.5869 -0.65722,0.7952 -0.47413,0.9163 -0.2696,0.9958 -0.0529,1.0303 0.16624,1.0182 0.37784,0.96 3.63615,5.8399 4.15841,8.1647 4.31289,10.6386 -2.37992,2.3533 -2.40281,2.33 -2.42544,2.3063 -9.80305,-4.2951 -8.73048,-4.7513 -5.72542,-3.8144 -0.94789,-0.4071 -1.01254,-0.1975 -1.03141,0.021 -1.00359,0.2388 -0.9304,0.4457 -0.81507,0.6324 -0.60318,0.5194 -0.60449,0.5179 -0.60581,0.5164 -0.74996,0.7085 -0.58314,0.851 -0.38994,0.9551 -0.17909,1.0161 0.0399,1.0308 0.257,0.9992 2.89092,6.2425 3.12356,8.6137 2.97285,11.0881 -2.6511,2.043 -2.67092,2.017 -2.69049,1.9908 -9.20092,-5.4672 -8.08043,-5.7882 -5.21327,-4.489 -0.89068,-0.5206 -0.9806,-0.3204 -1.0262,-0.1057 -1.02534,0.1136 -0.97811,0.328 -0.88659,0.5275 -0.66244,0.4413 -0.66356,0.4397 -0.66468,0.4381 -0.83133,0.6109 -0.6833,0.7729 -0.50437,0.9 -0.30259,0.9863 -0.0871,1.028 0.13228,1.0231 2.10187,6.5505 2.04137,8.9323 1.5877,11.3693 -2.88204,1.7017 -2.89856,1.6735 -2.91473,1.6451 -8.45932,-6.5564 -7.30791,-6.7373 -4.6221,-5.0957 -0.81994,-0.6261 -0.93381,-0.4385 -1.0054,-0.231 -1.03156,-0.013 -1.011,0.2053 -0.9447,0.4145 -0.71165,0.3566 -0.71256,0.3548 -0.71347,0.3531 -0.9001,0.5041 -0.77311,0.6831 -0.61115,0.8312 -0.4215,0.9416 -0.21279,1.0095 0.006,1.0316 1.28097,6.7591 0.92822,9.1155 0.17852,11.4783 -3.06934,1.3346 -3.08221,1.3046 -3.09482,1.2745 -7.58949,-7.5463 -6.42459,-7.5843 -3.96086,-5.6251 -0.7368,-0.722 -0.87284,-0.55 -0.9694,-0.3528 -1.02211,-0.1399 -1.02856,0.08 -0.98847,0.2953 -0.75009,0.2664 -0.75077,0.2646 -0.75143,0.2627 -0.95523,0.3897 -0.85121,0.5829 -0.70864,0.7498 -0.53403,0.8827 -0.335223,0.9757 -0.121286,1.0245 0.440649,6.8653 -0.199005,9.1604 -1.233386,11.4132 -3.210076,0.9474 -3.219175,0.9159 -3.227977,0.8844 -6.604612,-8.4217 -5.443862,-8.3163 -3.239602,-6.0692 -0.642471,-0.8071 -0.798648,-0.653 -0.918701,-0.4693 -0.997169,-0.2644 -1.03053,-0.048 -1.017267,0.1715 -0.777148,0.1723 -0.777587,0.1703 -0.778018,0.1683 -0.995886,0.2694 -0.916382,0.4739 -0.795412,0.657 -0.638446,0.8104 -0.452596,0.9271 -0.246269,1.0018 -0.406357,6.8674 -1.323203,9.0666 -2.626588,11.1751 -3.302163,0.5457 -3.307337,0.5134 -3.312186,0.481 -5.519627,-9.1695 -4.38063,-8.9222 -2.46921,-6.4213 -0.538412,-0.88 -0.712351,-0.7462 -0.854059,-0.5787 -0.957125,-0.3849 -1.016886,-0.1738 -1.030636,0.045 -0.79243,0.075 -0.792618,0.073 -0.792802,0.071 -1.02144,0.1449 -0.967674,0.3577 -0.870121,0.5543 -0.733197,0.7258 -0.563095,0.8644 -0.367512,0.9641 -1.247199,6.7654 -2.427353,8.8352 -3.979975,10.7677 -3.344191,0.1357 -3.345356,0.1031 -3.346203,0.07 -4.350961,-9.7784 -3.250987,-9.3929 -1.661391,-6.6761 -0.426192,-0.9395 -0.615253,-0.828 -0.776478,-0.6792 -0.902568,-0.4997 -0.987822,-0.2974 -1.028381,-0.082 -0.795697,-0.023 -0.795637,-0.024 -0.795573,-0.026 -1.031507,0.018 -1.004296,0.2361 -0.931641,0.4431 -0.816832,0.6302 -0.665056,0.7887 -0.483191,0.9115 -2.069135,6.5609 -3.494703,8.47 -5.273029,10.1969 -3.335523,-0.2762 -3.332668,-0.3088 -3.32949,-0.3414 -3.116338,-10.2389 -2.072063,-9.7212 -0.828393,-6.8297 -0.307508,-0.9847 -0.50883,-0.8974 -0.687123,-0.7695 -0.834327,-0.6068 -0.943787,-0.4165 -1.010538,-0.2076 -0.786901,-0.12 -0.786597,-0.1222 -0.78628,-0.1241 -1.025939,-0.1085 -1.025694,0.1108 -0.97904,0.3254 -0.888081,0.525 -0.756941,0.7009 -0.591543,0.8453 -2.859704,6.2569 -4.509072,7.9763 -6.486151,9.4717 -3.2763,-0.6841 -3.269456,-0.716 -3.26231,-0.7479 -1.83447,-10.5443 -0.861728,-9.9022 0.01717,-6.8797 -0.184165,-1.015 -0.394686,-0.9532 -0.587365,-0.8481 -0.753435,-0.7046 -0.885442,-0.5294 -0.977371,-0.3301 -0.766191,-0.216 -0.765617,-0.2178 -0.765075,-0.2198 -1.004819,-0.2338 -1.031548,-0.016 -1.011594,0.2026 -0.94587,0.4119 -0.837347,0.6027 -0.690929,0.7661 -3.606925,5.858 -5.455085,7.3618 -7.60095,8.6028 -3.1674,-1.0815 -3.15669,-1.1124 -3.14566,-1.1431 -0.52481,-10.6898 0.36166,-9.933 0.86247,-6.8254 -0.058,-1.03 -0.27457,-0.9945 -0.47868,-0.9138 -0.66114,-0.7919 -0.81367,-0.6342 -0.9294,-0.4478 -0.73384,-0.3084 -0.73305,-0.3102 -0.73227,-0.3122 -0.96847,-0.3555 -1.02175,-0.1427 -1.02882,0.077 -0.98932,0.2925 -0.90506,0.4952 -0.77984,0.6755 -4.29947,5.3703 -6.31842,6.6356 -8.60052,7.6036 -3.01049,-1.4626 -2.99607,-1.4919 -2.98135,-1.521 0.79284,-10.6732 1.57959,-9.8134 1.69468,-6.6676 0.069,-1.0294 -0.15028,-1.0206 -0.36276,-0.9657 -0.55879,-0.8672 -0.72958,-0.7294 -0.86733,-0.5585 -0.69038,-0.3963 -0.68938,-0.398 -0.68835,-0.3997 -0.91745,-0.4719 -0.99646,-0.2671 -1.03044,-0.05 -1.01779,0.1688 -0.95905,0.3802 -0.85693,0.5745 -4.92683,4.8013 -7.08596,5.8088 -9.46973,6.489 -2.80795,-1.8214 -2.79002,-1.8487 -2.77182,-1.8759 2.09842,-10.4949 2.77355,-9.5448 2.50124,-6.409 0.19494,-1.013 -0.0237,-1.0314 -0.24132,-1.0029 -0.448,-0.9293 -0.63442,-0.8135 -0.79212,-0.6609 -0.63645,-0.4781 -0.63523,-0.4797 -0.63402,-0.4813 -0.85249,-0.5811 -0.9561,-0.3875 -1.01645,-0.1766 -1.0308,0.042 -0.99849,0.2595 -0.92104,0.4648 -5.47953,4.1595 -7.74609,4.894 -10.19538,5.2761 -2.56282,-2.1527 -2.54167,-2.1775 -2.52032,-2.2024 3.37224,-10.1575 3.92547,-9.1316 3.26986,-6.053 0.31796,-0.9814 0.1032,-1.0264 -0.11624,-1.0251 -0.33042,-0.9773 -0.52963,-0.8852 -0.70489,-0.7533 -0.57289,-0.5527 -0.57147,-0.5541 -0.57006,-0.5556 -0.77462,-0.6814 -0.90122,-0.5021 -0.98704,-0.3002 -1.02819,-0.084 -1.02284,0.1348 -0.97117,0.3481 -5.94915,3.4545 -8.28878,3.9051 -10.76648,3.9832 -2.27887,-2.4513 -2.25481,-2.4734 -2.23055,-2.4953 4.59489,-9.6661 5.01791,-8.5801 3.98889,-5.6052 0.43615,-0.9349 0.22857,-1.006 0.0106,-1.0316 -0.2078,-1.0104 -0.41682,-0.9437 -0.60702,-0.8342 -0.5006,-0.6189 -0.49904,-0.6201 -0.49746,-0.6214 -0.68502,-0.7715 -0.83271,-0.609 -0.94267,-0.4192 -1.01,-0.2103 -1.03164,0.01 -1.00658,0.2261 -6.32858,2.6973 -8.70585,2.8568 -11.17438,2.63 -1.96034,-2.7127 -1.93377,-2.7318 -1.90701,-2.7505 z"
         style="fill:none;stroke:#000000"
         inkscape:connector-curvature="0" />
      <path
         id="path4158"
         d="m -282.60602,1246.2641 5.74793,-9.0282 6.03424,-7.8984 4.64749,-5.0725 0.54773,-0.8742 0.35045,-0.9703 0.13732,-1.0225 -0.0821,-1.0283 -0.29769,-0.9878 -0.4999,-0.9024 -0.42075,-0.6757 -0.41907,-0.6768 -0.41731,-0.6778 -0.58503,-0.8498 -0.75155,-0.7068 -0.88402,-0.5318 -0.97649,-0.3328 -1.02483,-0.1188 -1.02673,0.1007 -6.61207,1.8992 -8.99095,1.7653 -11.41285,1.2368 -1.61213,-2.933 -1.58344,-2.9487 -1.55455,-2.9641 6.81385,-8.2534 6.95911,-7.0969 5.2356,-4.463 0.65103,-0.8003 0.46703,-0.9199 0.26189,-0.9978 0.045,-1.0306 -0.1741,-1.0169 -0.38519,-0.957 -0.33454,-0.7223 -0.33267,-0.7231 -0.33089,-0.724 -0.47619,-0.9152 -0.65897,-0.7938 -0.81195,-0.6365 -0.92822,-0.4503 -1.00246,-0.2437 -1.03132,-0.026 -6.79536,1.0722 -9.13972,0.6471 -11.47833,-0.175 -1.23948,-3.109 -1.20906,-3.1209 -1.17852,-3.1326 7.77643,-7.3536 7.77849,-6.1879 5.74437,-3.7858 0.74447,-0.7142 0.57652,-0.8555 0.38252,-0.9581 0.17125,-1.0173 -0.0478,-1.0305 -0.26469,-0.9971 -0.2432,-0.7579 -0.24134,-0.7586 -0.23938,-0.7592 -0.36011,-0.9667 -0.55642,-0.8688 -0.7276,-0.7314 -0.86584,-0.5609 -0.96492,-0.3652 -1.02027,-0.1527 -6.87561,0.229 -9.14999,-0.481 -11.3698,-1.5843 -0.84803,-3.2377 -0.81637,-3.2459 -0.78464,-3.2537 8.62115,-6.3421 8.48,-5.1852 6.16609,-3.0511 0.82655,-0.6173 0.67728,-0.7782 0.49735,-0.9038 0.295,-0.9886 0.0792,-1.0286 -0.14013,-1.022 -0.14828,-0.7821 -0.14625,-0.7825 -0.14429,-0.7828 -0.23857,-1.0037 -0.44544,-0.9305 -0.6322,-0.8153 -0.79036,-0.6631 -0.91271,-0.4809 -0.99378,-0.277 -6.85165,-0.6177 -9.02148,-1.6018 -11.08899,-2.9695 -0.44372,-3.3174 -0.41127,-3.3215 -0.37884,-3.3255 9.33513,-5.2346 9.05291,-4.1038 6.49431,-2.2703 0.89615,-0.511 0.76778,-0.6891 0.60467,-0.8358 0.41422,-0.9448 0.20501,-1.0111 -0.0135,-1.0315 -0.051,-0.7944 -0.049,-0.7945 -0.047,-0.7946 -0.1134,-1.0254 -0.32775,-0.9783 -0.52725,-0.8868 -0.70283,-0.7552 -0.84671,-0.5894 -0.95222,-0.397 -6.72378,-1.455 -8.75629,-2.6983 -10.64,-4.3096 -0.0327,-3.3468 0,-3.347 0.0327,-3.3468 9.9077,-4.0477 9.48859,-2.9602 6.72405,-1.455 0.95218,-0.3971 0.84662,-0.5894 0.70283,-0.7552 0.52715,-0.8868 0.32771,-0.9782 0.1134,-1.0254 0.047,-0.7946 0.049,-0.7945 0.051,-0.7944 0.0135,-1.0316 -0.20505,-1.011 -0.41425,-0.9449 -0.60473,-0.8358 -0.76785,-0.6891 -0.89619,-0.511 -6.49407,-2.2702 -8.35832,-3.7539 -10.02972,-5.5845 0.37884,-3.3255 0.41127,-3.3215 0.44372,-3.3174 10.33003,-2.7996 9.78044,-1.7717 6.85192,-0.6177 0.99371,-0.27702 0.91268,-0.48095 0.79029,-0.6631 0.63214,-0.81525 0.44544,-0.93051 0.23853,-1.00366 0.14429,-0.78283 0.14625,-0.78247 0.14828,-0.78208 0.14013,-1.02211 -0.0792,-1.02862 -0.295,-0.9886 -0.49744,-0.90382 -0.67736,-0.77817 -0.82661,-0.61729 -6.16582,-3.05103 -7.83367,-4.75257 -9.26748,-6.77476 0.78464,-3.25367 0.81637,-3.24586 0.84803,-3.23772 10.59573,-1.5089 9.92406,-0.55638 6.87588,0.22902 1.02024,-0.15282 0.96482,-0.36515 0.8658,-0.56097 0.72754,-0.73138 0.55641,-0.86872 0.36008,-0.96674 0.23938,-0.75916 0.24134,-0.75856 0.2432,-0.75794 0.26469,-0.99714 0.0478,-1.03056 -0.17129,-1.01736 -0.38259,-0.95811 -0.57658,-0.8555 -0.7445,-0.71419 -5.74417,-3.78563 -7.19024,-5.6792 -8.36468,-7.86227 1.17852,-3.13259 1.20906,-3.12093 1.23948,-3.10898 10.70086,-0.19536 9.91719,0.66738 6.79563,1.07225 1.03129,-0.0263 1.00239,-0.24381 0.92815,-0.45032 0.81192,-0.63643 0.65893,-0.79376 0.47616,-0.91517 0.33089,-0.72399 0.33267,-0.72315 0.33454,-0.7223 0.38519,-0.95707 0.1741,-1.01688 -0.045,-1.03069 -0.26196,-0.99786 -0.46706,-0.91988 -0.65107,-0.80026 -5.23543,-4.46282 -6.43788,-6.51977 -7.33508,-8.83059 1.55455,-2.96404 1.58344,-2.94868 1.61213,-2.93308 10.64379,1.12112 9.76001,1.88103 6.61231,1.89922 1.02672,0.10065 1.02477,-0.1188 0.97646,-0.33283 0.88397,-0.53183 0.75149,-0.70678 0.585,-0.84971 0.41731,-0.67784 0.41907,-0.6768 0.42075,-0.67571 0.4999,-0.90247 0.29772,-0.98778 0.082,-1.0284 -0.13733,-1.02248 -0.3505,-0.97031 -0.54781,-0.87422 -4.64731,-5.07236 -5.58787,-7.2615 -6.1943,-9.66504 1.90701,-2.75054 1.93377,-2.73176 1.96034,-2.71276 10.42534,2.42065 9.45489,3.06616 6.32881,2.6974 1.00657,0.22605 1.03159,0.008 1.00997,-0.21034 0.94261,-0.41915 0.83266,-0.60906 0.68499,-0.77139 0.49746,-0.62143 0.49904,-0.62016 0.5006,-0.61889 0.60704,-0.8342 0.41683,-0.94372 0.20777,-1.01052 -0.0106,-1.03162 -0.2286,-1.00601 -0.4362,-0.93491 -3.98876,-5.60502 -4.65318,-7.89314 -4.95962,-10.35301 2.23055,-2.49531 2.25481,-2.47344 2.27887,-2.45128 10.04885,3.68342 9.00641,4.20484 5.94938,3.45471 0.97116,0.34803 1.02278,0.13475 1.02815,-0.0846 0.987,-0.30015 0.90117,-0.50213 0.77459,-0.68135 0.57006,-0.55559 0.57147,-0.55413 0.57289,-0.55268 0.70491,-0.75328 0.52965,-0.88534 0.33039,-0.97732 0.11621,-1.02511 -0.10325,-1.02652 -0.31801,-0.98141 -3.26974,-6.0527 -3.64791,-8.40514 -3.6498,-10.88401 2.52032,-2.20231 2.54167,-2.17755 2.56282,-2.15266 9.52004,4.89039 8.42143,5.27972 5.47975,4.15963 0.92102,0.46473 0.99848,0.25944 1.03074,0.0424 1.0164,-0.17658 0.95607,-0.38758 0.85244,-0.58102 0.63402,-0.4813 0.63523,-0.4797 0.63645,-0.47812 0.79214,-0.66093 0.63444,-0.81355 0.44799,-0.92932 0.24131,-1.00304 0.0237,-1.0314 -0.195,-1.01308 -2.50115,-6.40864 -2.58737,-8.78969 -2.2846,-11.25005 2.77182,-1.8759 2.79002,-1.84873 2.80795,-1.8214 8.8469,6.02323 7.70879,6.27463 4.92704,4.80148 0.85692,0.57441 0.95902,0.38014 1.01774,0.16874 1.03041,-0.0504 0.99643,-0.26714 0.91739,-0.47186 0.68835,-0.39974 0.68938,-0.39802 0.69038,-0.39625 0.86736,-0.55858 0.72958,-0.72943 0.55881,-0.86722 0.36274,-0.96578 0.15024,-1.02068 -0.069,-1.02938 -1.69463,-6.6674 -1.48763,-9.04105 -0.8848,-11.44552 2.98135,-1.52103 2.99607,-1.49187 3.01049,-1.46256 8.03966,7.06477 6.87928,7.17437 4.29965,5.3706 0.77984,0.67533 0.90505,0.49511 0.98928,0.29254 1.02878,0.0766 1.02171,-0.14263 0.96842,-0.35556 0.73227,-0.31216 0.73305,-0.31024 0.73384,-0.30842 0.92944,-0.44777 0.8137,-0.63424 0.66113,-0.79194 0.47867,-0.91392 0.27455,-0.99449 0.058,-1.03004 -0.86245,-6.82513 -0.3653,-9.15533 0.52845,-11.46748 3.14566,-1.14317 3.15669,-1.11235 3.1674,-1.0815 7.11054,7.99918 5.945497,7.96539 3.607077,5.85825 0.690937,0.76606 0.837339,0.6026 0.945844,0.41185 1.011552,0.20252 1.031506,-0.016 1.004777,-0.23384 0.765075,-0.21978 0.765617,-0.21782 0.766191,-0.21593 0.977405,-0.33011 0.885476,-0.52945 0.753451,-0.70476 0.587349,-0.84813 0.394669,-0.9532 0.184122,-1.0151 -0.01717,-6.87939 0.762549,-9.13084 1.933649,-11.31562 3.26231,-0.74795 3.269456,-0.71601 3.2763,-0.68407 6.073644,8.81238 4.921579,8.63564 2.859822,6.25713 0.591569,0.84516 0.756936,0.70094 0.888061,0.52495 0.979006,0.32528 1.025651,0.11084 1.025897,-0.10858 0.78628,-0.12408 0.786597,-0.12212 0.786901,-0.1201 1.01058,-0.20755 0.943816,-0.41661 0.834349,-0.6068 0.687127,-0.76953 0.508809,-0.89748 0.307474,-0.98478 0.828351,-6.82936 1.878838,-8.96788 3.309563,-10.99228 3.32949,-0.34136 3.332668,-0.30879 3.335523,-0.27628 4.944671,9.49196 3.823061,9.17497 2.069223,6.56114 0.483218,0.91146 0.665065,0.78863 0.816818,0.63015 0.931613,0.44307 1.004257,0.23607 1.031464,0.0183 0.795573,-0.0265 0.795637,-0.0245 0.795697,-0.0225 1.028424,-0.0818 0.987859,-0.29747 0.902593,-0.49967 0.776487,-0.67928 0.615242,-0.82813 0.426161,-0.93954 1.661319,-6.67581 2.966653,-8.66903 4.635295,-10.50227 3.346203,0.0704 3.345356,0.10306 3.344191,0.13574 3.740743,10.02763 2.666585,9.57526 1.247254,6.76568 0.36755,0.96394 0.563109,0.86439 0.733189,0.72571 0.870101,0.55425 0.967637,0.35765 1.021398,0.14493 0.792802,0.0714 0.792618,0.0734 0.79243,0.0755 1.030678,0.0452 1.016925,-0.17382 0.957158,-0.38496 0.854076,-0.57868 0.712348,-0.74625 0.538387,-0.88004 2.469107,-6.42108 4.009493,-8.23876 5.890764,-9.853 3.312186,0.48106 3.307337,0.5134 3.302163,0.54566 2.480105,10.41133 1.469686,9.83036 0.406378,6.8677 0.246307,1.00179 0.452617,0.927 0.638455,0.81036 0.795391,0.65698 0.916357,0.47386 0.995843,0.26931 0.778018,0.16835 0.777587,0.17028 0.777148,0.17227 1.017309,0.17156 1.030576,-0.0476 0.997208,-0.26441 0.918717,-0.46937 0.798657,-0.65306 0.642454,-0.80721 3.239467,-6.06897 4.991544,-7.68357 7.05693,-9.05443 3.227977,0.88446 3.219175,0.91589 3.210076,0.94735 1.181879,10.63722 0.250512,9.93646 -0.440666,6.86554 0.121337,1.02446 0.335259,0.97563 0.53404,0.88267 0.70863,0.7497 0.85117,0.58291 0.9552,0.38969 0.75143,0.26266 0.75077,0.26455 0.75009,0.26645 0.98851,0.29527 1.0286,0.0795 1.02216,-0.13987 0.96943,-0.35292 0.87286,-0.54995 0.73678,-0.72216 3.9607,-5.62485 5.89795,-7.01197 8.11613,-8.1186 3.09482,1.27445 3.08221,1.30459 3.06934,1.3346 -0.13426,10.70184 -0.97248,9.89195 -1.28101,6.75937 -0.005,1.03163 0.21282,1.00942 0.42152,0.94159 0.61113,0.8311 0.77308,0.68308 0.90008,0.50409 0.71347,0.35304 0.71256,0.35481 0.71165,0.35662 0.94476,0.41447 1.01104,0.2053 1.03157,-0.0132 1.00547,-0.23111 0.93382,-0.43853 0.81993,-0.62611 4.62192,-5.09552 6.71493,-6.23405 9.0523,-7.05964 2.91473,1.64508 2.89856,1.67346 2.88204,1.70171 -1.44838,10.60421 -2.18069,9.69745 -2.10194,6.55071 -0.13223,1.02312 0.0872,1.02794 0.30262,0.98624 0.50436,0.89994 0.6833,0.77288 0.83129,0.61089 0.66468,0.43802 0.66356,0.43968 0.66244,0.44137 0.88666,0.52747 0.97813,0.32797 1.02539,0.11367 1.02623,-0.10578 0.98063,-0.32048 0.89068,-0.5206 5.21307,-4.48891 7.43013,-5.36159 9.85122,-5.89375 2.69049,1.99082 2.67092,2.01698 2.6511,2.04296 -2.74055,10.34586 -3.35586,9.35596 -2.89102,6.24275 -0.25695,0.99914 -0.0398,1.03084 0.17911,1.01598 0.38996,0.95509 0.58312,0.851 0.74994,0.70841 0.60581,0.51635 0.60449,0.51791 0.60318,0.51945 0.81512,0.63239 0.93042,0.44569 1.00366,0.23881 1.03145,0.0212 1.01257,-0.19754 0.9479,-0.40719 5.7252,-3.81426 8.03267,-4.4079 10.50086,-4.63847 2.42544,2.30634 2.40281,2.32995 2.37992,2.35326 -3.99114,9.93063 -4.48016,8.87268 -3.63628,5.84016 -0.37776,0.95998 -0.1662,1.01814 0.0529,1.03027 0.26962,0.99578 0.47415,0.91622 0.65718,0.79519 0.53777,0.58691 0.53626,0.58826 0.5348,0.58963 0.73119,0.72778 0.86861,0.55665 0.96671,0.36034 1.02101,0.14772 1.02919,-0.0716 0.99077,-0.28765 6.15052,-3.08178 8.51347,-3.38735 10.99125,-3.31288 2.12366,2.58692 2.09826,2.60754 2.07273,2.62789 -5.18125,9.36492 -5.53656,8.25486 -4.3264,5.34905 -0.49291,0.90626 -0.29003,0.99001 -0.0741,1.02897 0.14522,1.02135 0.35795,0.96754 0.55449,0.86995 0.46156,0.64853 0.45992,0.64971 0.45826,0.65086 0.63623,0.81213 0.79361,0.65919 0.91508,0.4764 0.99515,0.27207 1.03018,0.0554 1.0186,-0.16372 6.48263,-2.30259 8.86522,-2.31547 11.31507,-1.93709 1.78963,2.82829 1.76193,2.84563 1.73409,2.86271 -6.29281,8.6572 -6.50906,7.51191 -4.95093,4.77685 -0.60053,0.83883 -0.40952,0.94685 -0.19996,1.01206 0.0186,1.03146 0.23633,1.0042 0.44336,0.93148 0.3784,0.70033 0.37657,0.70132 0.37482,0.70225 0.53161,0.88414 0.70658,0.75172 0.8496,0.58525 0.95418,0.3923 1.01555,0.18162 1.031,-0.0373 6.71646,-1.4885 9.08254,-1.20851 11.46739,-0.5319 1.4285,3.02678 1.39891,3.04058 1.3691,3.0541 -7.30899,7.81828 -7.38283,6.65508 -5.50043,4.13224 -0.69904,0.75867 -0.52276,0.88937 -0.32284,0.9798 -0.10831,1.02593 0.11114,1.02562 0.32555,0.97891 0.28943,0.74154 0.28757,0.74225 0.28567,0.74299 0.41891,0.94279 0.60889,0.83284 0.77123,0.68522 0.89876,0.50658 0.98549,0.30504 1.02781,0.0897 6.84844,-0.65186 9.16223,-0.0832 11.44582,0.88132 1.04572,3.17939 1.01463,3.18944 0.98343,3.1992 -8.21436,6.86084 -8.1447,5.69737 -5.96655,3.42497 -0.78697,0.66702 -0.62812,0.81838 -0.44077,0.93271 -0.23357,1.00484 -0.0157,1.03151 0.20275,1.0115 0.19613,0.77148 0.19417,0.77197 0.1922,0.77247 0.2999,0.98711 0.50191,0.90136 0.68117,0.7748 0.82965,0.61319 0.94063,0.42383 1.00895,0.21529 6.87666,0.19468 9.10302,1.04338 11.25074,2.28121 0.64708,3.28379 0.61497,3.28995 0.58287,3.29581 -8.99522,5.79944 -8.78312,4.6533 -6.34221,2.6658 -0.86297,0.5652 -0.72392,0.735 -0.55205,0.8715 -0.35528,0.9685 -0.1424,1.0218 0.077,1.0287 0.0998,0.7898 0.0978,0.7899 0.0958,0.7903 0.17633,1.0165 0.38732,0.9562 0.58084,0.8526 0.74801,0.7105 0.88135,0.5362 0.97489,0.3377 6.8006,1.0382 8.90578,2.1541 10.88515,3.6465 0.23864,3.3385 0.20603,3.3406 0.17341,3.3424 -9.63969,4.65 -9.28837,3.5387 -6.62177,1.8662 -0.92589,0.4549 -0.80874,0.6405 -0.65498,0.797 -0.4716,0.9176 -0.26685,0.9965 -0.0501,1.0304 0.002,0.796 0,0.796 -0.002,0.796 0.0501,1.0305 0.26689,0.9965 0.47166,0.9176 0.65502,0.797 0.8088,0.6405 0.92596,0.4549 6.6215,1.8661 8.57357,3.2322 10.35449,4.9565 -0.17341,3.3424 -0.20603,3.3406 -0.23864,3.3385 -10.13809,3.4301 -9.65284,2.3705 -6.80087,1.0383 -0.97478,0.3377 -0.88132,0.5362 -0.74798,0.7105 -0.58078,0.8526 -0.38728,0.9562 -0.17633,1.0164 -0.0958,0.7903 -0.0978,0.7899 -0.0998,0.7898 -0.077,1.0288 0.14243,1.0218 0.35529,0.9685 0.55212,0.8715 0.72398,0.735 0.86304,0.5652 6.34197,2.6657 8.11141,4.2613 9.66693,6.1914 -0.58287,3.2958 -0.61497,3.29 -0.64708,3.2838 -10.48279,2.1583 -9.87097,1.1662 -6.87693,0.1947 -1.00892,0.2154 -0.94052,0.4238 -0.82962,0.6132 -0.68114,0.7748 -0.50187,0.9013 -0.29987,0.9871 -0.1922,0.7725 -0.19417,0.7719 -0.19613,0.7715 -0.20275,1.0116 0.0158,1.0315 0.2336,1.0049 0.44081,0.9327 0.62819,0.8184 0.78704,0.667 5.96631,3.4249 7.52624,5.2258 8.83282,7.3324 -0.98343,3.1992 -1.01463,3.1894 -1.04572,3.1794 -10.66855,0.8537 -9.9395,-0.056 -6.84871,-0.6518 -1.02774,0.09 -0.9855,0.3051 -0.89865,0.5066 -0.77119,0.6852 -0.60886,0.8328 -0.41888,0.9427 -0.28567,0.743 -0.28757,0.7423 -0.28943,0.7415 -0.32555,0.979 -0.11114,1.0256 0.10834,1.026 0.32288,0.9798 0.52282,0.8894 0.69912,0.7587 5.50022,4.132 6.82702,6.1111 7.8648,8.3623 -1.3691,3.0541 -1.39891,3.0406 -1.4285,3.0268 -10.69262,-0.4638 -9.85731,-1.2766 -6.71673,-1.4886 -1.03094,-0.037 -1.01551,0.1816 -0.95411,0.3923 -0.84957,0.5853 -0.70655,0.7517 -0.53157,0.8841 -0.37482,0.7022 -0.37657,0.7013 -0.3784,0.7004 -0.44336,0.9315 -0.23636,1.0042 -0.0186,1.0316 0.20005,1.012 0.40955,0.9469 0.6006,0.8389 4.95074,4.7766 6.02428,6.9037 6.77759,9.2654 -1.73409,2.8627 -1.76193,2.8457 -1.78963,2.8282 -10.55459,-1.7742 -9.6257,-2.4783 -6.48288,-2.3027 -1.01857,-0.1636 -1.03012,0.055 -0.99509,0.2721 -0.91506,0.4764 -0.79356,0.6592 -0.6362,0.8121 -0.45826,0.6509 -0.45992,0.6497 -0.46156,0.6485 -0.55452,0.87 -0.35794,0.9676 -0.1452,1.0214 0.0742,1.029 0.2901,0.99 0.49295,0.9063 4.32624,5.3488 5.13025,7.5917 5.58756,10.0281 -2.07273,2.6279 -2.09826,2.6075 -2.12366,2.587 -10.25654,-3.0579 -9.24818,-3.6424 -6.15075,-3.0819 -0.99076,-0.2876 -1.02912,-0.072 -1.021,0.1477 -0.96666,0.3604 -0.86854,0.5566 -0.73117,0.7278 -0.5348,0.5896 -0.53626,0.5883 -0.53777,0.5869 -0.65722,0.7952 -0.47413,0.9163 -0.2696,0.9958 -0.0529,1.0303 0.16624,1.0182 0.37784,0.96 3.63615,5.8399 4.15841,8.1647 4.31289,10.6386 -2.37992,2.3533 -2.40281,2.33 -2.42544,2.3063 -9.80305,-4.2951 -8.73048,-4.7513 -5.72542,-3.8144 -0.94789,-0.4071 -1.01254,-0.1975 -1.03141,0.021 -1.00359,0.2388 -0.9304,0.4457 -0.81507,0.6324 -0.60318,0.5194 -0.60449,0.5179 -0.60581,0.5164 -0.74996,0.7085 -0.58314,0.851 -0.38994,0.9551 -0.17909,1.0161 0.0399,1.0308 0.257,0.9992 2.89092,6.2425 3.12356,8.6137 2.97285,11.0881 -2.6511,2.043 -2.67092,2.017 -2.69049,1.9908 -9.20092,-5.4672 -8.08043,-5.7882 -5.21327,-4.489 -0.89068,-0.5206 -0.9806,-0.3204 -1.0262,-0.1057 -1.02534,0.1136 -0.97811,0.328 -0.88659,0.5275 -0.66244,0.4413 -0.66356,0.4397 -0.66468,0.4381 -0.83133,0.6109 -0.6833,0.7729 -0.50437,0.9 -0.30259,0.9863 -0.0871,1.028 0.13228,1.0231 2.10187,6.5505 2.04137,8.9323 1.5877,11.3693 -2.88204,1.7017 -2.89856,1.6735 -2.91473,1.6451 -8.45932,-6.5564 -7.30791,-6.7373 -4.6221,-5.0957 -0.81994,-0.6261 -0.93381,-0.4385 -1.0054,-0.231 -1.03156,-0.013 -1.011,0.2053 -0.9447,0.4145 -0.71165,0.3566 -0.71256,0.3548 -0.71347,0.3531 -0.9001,0.5041 -0.77311,0.6831 -0.61115,0.8312 -0.4215,0.9416 -0.21279,1.0095 0.006,1.0316 1.28097,6.7591 0.92822,9.1155 0.17852,11.4783 -3.06934,1.3346 -3.08221,1.3046 -3.09482,1.2745 -7.58949,-7.5463 -6.42459,-7.5843 -3.96086,-5.6251 -0.7368,-0.722 -0.87284,-0.55 -0.9694,-0.3528 -1.02211,-0.1399 -1.02856,0.08 -0.98847,0.2953 -0.75009,0.2664 -0.75077,0.2646 -0.75143,0.2627 -0.95523,0.3897 -0.85121,0.5829 -0.70864,0.7498 -0.53403,0.8827 -0.335223,0.9757 -0.121286,1.0245 0.440649,6.8653 -0.199005,9.1604 -1.233386,11.4132 -3.210076,0.9474 -3.219175,0.9159 -3.227977,0.8844 -6.604612,-8.4217 -5.443862,-8.3163 -3.239602,-6.0692 -0.642471,-0.8071 -0.798648,-0.653 -0.918701,-0.4693 -0.997169,-0.2644 -1.03053,-0.048 -1.017267,0.1715 -0.777148,0.1723 -0.777587,0.1703 -0.778018,0.1683 -0.995886,0.2694 -0.916382,0.4739 -0.795412,0.657 -0.638446,0.8104 -0.452596,0.9271 -0.246269,1.0018 -0.406357,6.8674 -1.323203,9.0666 -2.626588,11.1751 -3.302163,0.5457 -3.307337,0.5134 -3.312186,0.481 -5.519627,-9.1695 -4.38063,-8.9222 -2.46921,-6.4213 -0.538412,-0.88 -0.712351,-0.7462 -0.854059,-0.5787 -0.957125,-0.3849 -1.016886,-0.1738 -1.030636,0.045 -0.79243,0.075 -0.792618,0.073 -0.792802,0.071 -1.02144,0.1449 -0.967674,0.3577 -0.870121,0.5543 -0.733197,0.7258 -0.563095,0.8644 -0.367512,0.9641 -1.247199,6.7654 -2.427353,8.8352 -3.979975,10.7677 -3.344191,0.1357 -3.345356,0.1031 -3.346203,0.07 -4.350961,-9.7784 -3.250987,-9.3929 -1.661391,-6.6761 -0.426192,-0.9395 -0.615253,-0.828 -0.776478,-0.6792 -0.902568,-0.4997 -0.987822,-0.2974 -1.028381,-0.082 -0.795697,-0.023 -0.795637,-0.024 -0.795573,-0.026 -1.031507,0.018 -1.004296,0.2361 -0.931641,0.4431 -0.816832,0.6302 -0.665056,0.7887 -0.483191,0.9115 -2.069135,6.5609 -3.494703,8.47 -5.273029,10.1969 -3.335523,-0.2762 -3.332668,-0.3088 -3.32949,-0.3414 -3.116338,-10.2389 -2.072063,-9.7212 -0.828393,-6.8297 -0.307508,-0.9847 -0.50883,-0.8974 -0.687123,-0.7695 -0.834327,-0.6068 -0.943787,-0.4165 -1.010538,-0.2076 -0.786901,-0.12 -0.786597,-0.1222 -0.78628,-0.1241 -1.025939,-0.1085 -1.025694,0.1108 -0.97904,0.3254 -0.888081,0.525 -0.756941,0.7009 -0.591543,0.8453 -2.859704,6.2569 -4.509072,7.9763 -6.486151,9.4717 -3.2763,-0.6841 -3.269456,-0.716 -3.26231,-0.7479 -1.83447,-10.5443 -0.861728,-9.9022 0.01717,-6.8797 -0.184165,-1.015 -0.394686,-0.9532 -0.587365,-0.8481 -0.753435,-0.7046 -0.885442,-0.5294 -0.977371,-0.3301 -0.766191,-0.216 -0.765617,-0.2178 -0.765075,-0.2198 -1.004819,-0.2338 -1.031548,-0.016 -1.011594,0.2026 -0.94587,0.4119 -0.837347,0.6027 -0.690929,0.7661 -3.606925,5.858 -5.455085,7.3618 -7.60095,8.6028 -3.1674,-1.0815 -3.15669,-1.1124 -3.14566,-1.1431 -0.52481,-10.6898 0.36166,-9.933 0.86247,-6.8254 -0.058,-1.03 -0.27457,-0.9945 -0.47868,-0.9138 -0.66114,-0.7919 -0.81367,-0.6342 -0.9294,-0.4478 -0.73384,-0.3084 -0.73305,-0.3102 -0.73227,-0.3122 -0.96847,-0.3555 -1.02175,-0.1427 -1.02882,0.077 -0.98932,0.2925 -0.90506,0.4952 -0.77984,0.6755 -4.29947,5.3703 -6.31842,6.6356 -8.60052,7.6036 -3.01049,-1.4626 -2.99607,-1.4919 -2.98135,-1.521 0.79284,-10.6732 1.57959,-9.8134 1.69468,-6.6676 0.069,-1.0294 -0.15028,-1.0206 -0.36276,-0.9657 -0.55879,-0.8672 -0.72958,-0.7294 -0.86733,-0.5585 -0.69038,-0.3963 -0.68938,-0.398 -0.68835,-0.3997 -0.91745,-0.4719 -0.99646,-0.2671 -1.03044,-0.05 -1.01779,0.1688 -0.95905,0.3802 -0.85693,0.5745 -4.92683,4.8013 -7.08596,5.8088 -9.46973,6.489 -2.80795,-1.8214 -2.79002,-1.8487 -2.77182,-1.8759 2.09842,-10.4949 2.77355,-9.5448 2.50124,-6.409 0.19494,-1.013 -0.0237,-1.0314 -0.24132,-1.0029 -0.448,-0.9293 -0.63442,-0.8135 -0.79212,-0.6609 -0.63645,-0.4781 -0.63523,-0.4797 -0.63402,-0.4813 -0.85249,-0.5811 -0.9561,-0.3875 -1.01645,-0.1766 -1.0308,0.042 -0.99849,0.2595 -0.92104,0.4648 -5.47953,4.1595 -7.74609,4.894 -10.19538,5.2761 -2.56282,-2.1527 -2.54167,-2.1775 -2.52032,-2.2024 3.37224,-10.1575 3.92547,-9.1316 3.26986,-6.053 0.31796,-0.9814 0.1032,-1.0264 -0.11624,-1.0251 -0.33042,-0.9773 -0.52963,-0.8852 -0.70489,-0.7533 -0.57289,-0.5527 -0.57147,-0.5541 -0.57006,-0.5556 -0.77462,-0.6814 -0.90122,-0.5021 -0.98704,-0.3002 -1.02819,-0.084 -1.02284,0.1348 -0.97117,0.3481 -5.94915,3.4545 -8.28878,3.9051 -10.76648,3.9832 -2.27887,-2.4513 -2.25481,-2.4734 -2.23055,-2.4953 4.59489,-9.6661 5.01791,-8.5801 3.98889,-5.6052 0.43615,-0.9349 0.22857,-1.006 0.0106,-1.0316 -0.2078,-1.0104 -0.41682,-0.9437 -0.60702,-0.8342 -0.5006,-0.6189 -0.49904,-0.6201 -0.49746,-0.6214 -0.68502,-0.7715 -0.83271,-0.609 -0.94267,-0.4192 -1.01,-0.2103 -1.03164,0.01 -1.00658,0.2261 -6.32858,2.6973 -8.70585,2.8568 -11.17438,2.63 -1.96034,-2.7127 -1.93377,-2.7318 -1.90701,-2.7505 z"
         style="fill:none;stroke:#000000"
         inkscape:connector-curvature="0" />
    </g>
  </g>
</svg>
