999
VISION3D DXF
0
SECTION
2
HEADER
9
$ACADVER
1
AC1006
9
$INSBASE
10
0.0
20
0.0
30
0.0
9
$EXTMIN
10
-38.294117647058826
20
-38.294117647058826
9
$EXTMAX
10
38.294117647058826
20
38.294117647058826
9
$LINMIN
10
0.0
20
0.0
9
$LINMAX
10
1000.0
20
1000.0
0
ENDSEC
0
SECTION
2
TABLES
0
TABLE
2
LTYPE
70
1
0
LTYPE
2
CONTINUOUS
70
64
3
Solid line
72
65
73
0
40
0.000000
0
ENDTAB
0
TABLE
2
LAYER
70
6
0
LAYER
2
1
70
64
62
7
6
CONTINUOUS
0
ENDTAB
0
TABLE
2
STYLE
70
0
0
ENDTAB
0
ENDSEC
0
SECTION
2
BLOCKS
0
ENDSEC
0
SECTION
2
ENTITIES
0
LINE
8
1
62
1
10
26.470402422310297
20
2.8513354660666645
30
0.0
11
28.962925413228295
21
3.1198247429051977
31
0.0
0
LINE
8
1
62
1
10
28.962925413228295
20
3.1198247429051977
30
0.0
11
28.979593195189565
21
3.121240074088033
31
0.0
0
LINE
8
1
62
1
10
28.979593195189565
20
3.121240074088033
30
0.0
11
29.029701031682073
21
3.123978023327225
31
0.0
0
LINE
8
1
62
1
10
29.029701031682073
20
3.123978023327225
30
0.0
11
29.113319334507818
21
3.125771937706843
31
0.0
0
LINE
8
1
62
1
10
29.113319334507818
20
3.125771937706843
30
0.0
11
29.230403263779664
21
3.124353212604427
31
0.0
0
LINE
8
1
62
1
10
29.230403263779664
20
3.124353212604427
30
0.0
11
29.380792720632076
21
3.1174564998503147
31
0.0
0
LINE
8
1
62
1
10
29.380792720632076
20
3.1174564998503147
30
0.0
11
29.564212560523156
21
3.10282491264445
31
0.0
0
LINE
8
1
62
1
10
29.564212560523156
20
3.10282491264445
30
0.0
11
29.78027302684936
21
3.078215218263595
31
0.0
0
LINE
8
1
62
1
10
29.78027302684936
20
3.078215218263595
30
0.0
11
30.0284704042398
21
3.0414030096088305
31
0.0
0
LINE
8
1
62
1
10
30.0284704042398
20
3.0414030096088305
30
0.0
11
30.308187890543586
21
2.990187846673704
31
0.0
0
LINE
8
1
62
1
10
30.308187890543586
20
2.990187846673704
30
0.0
11
30.618696686171877
21
2.922398359057763
31
0.0
0
LINE
8
1
62
1
10
30.618696686171877
20
2.922398359057763
30
0.0
11
30.959157299105943
21
2.8358973007079586
31
0.0
0
LINE
8
1
62
1
10
30.959157299105943
20
2.8358973007079586
30
0.0
11
31.32862106353518
21
2.728586548141922
31
0.0
0
LINE
8
1
62
1
10
31.32862106353518
20
2.728586548141922
30
0.0
11
31.72603186974418
21
2.598412033491776
31
0.0
0
LINE
8
1
62
1
10
31.72603186974418
20
2.598412033491776
30
0.0
11
32.150228102526675
21
2.4433686038053644
31
0.0
0
LINE
8
1
62
1
10
32.150228102526675
20
2.4433686038053644
30
0.0
11
32.599944785067215
21
2.2615047981530223
31
0.0
0
LINE
8
1
62
1
10
32.599944785067215
20
2.2615047981530223
30
0.0
11
33.0738159248983
21
2.0509275342122466
31
0.0
0
LINE
8
1
62
1
10
33.0738159248983
20
2.0509275342122466
30
0.0
11
33.57037705821314
21
1.8098066961397665
31
0.0
0
LINE
8
1
62
1
10
33.57037705821314
20
1.8098066961397665
30
0.0
11
34.08806798849178
21
1.5363796156902585
31
0.0
0
LINE
8
1
62
1
10
34.08806798849178
20
1.5363796156902585
30
0.0
11
34.6252357150819
21
1.2289554387030335
31
0.0
0
LINE
8
1
62
1
10
34.6252357150819
20
1.2289554387030335
30
0.0
11
34.6252357150819
21
-1.2289554387030335
31
0.0
0
LINE
8
1
62
1
10
34.6252357150819
20
-1.2289554387030335
30
0.0
11
34.08806798849178
21
-1.5363796156902585
31
0.0
0
LINE
8
1
62
1
10
34.08806798849178
20
-1.5363796156902585
30
0.0
11
33.57037705821314
21
-1.8098066961397665
31
0.0
0
LINE
8
1
62
1
10
33.57037705821314
20
-1.8098066961397665
30
0.0
11
33.0738159248983
21
-2.0509275342122466
31
0.0
0
LINE
8
1
62
1
10
33.0738159248983
20
-2.0509275342122466
30
0.0
11
32.599944785067215
21
-2.2615047981530223
31
0.0
0
LINE
8
1
62
1
10
32.599944785067215
20
-2.2615047981530223
30
0.0
11
32.150228102526675
21
-2.4433686038053644
31
0.0
0
LINE
8
1
62
1
10
32.150228102526675
20
-2.4433686038053644
30
0.0
11
31.72603186974418
21
-2.598412033491776
31
0.0
0
LINE
8
1
62
1
10
31.72603186974418
20
-2.598412033491776
30
0.0
11
31.32862106353518
21
-2.728586548141922
31
0.0
0
LINE
8
1
62
1
10
31.32862106353518
20
-2.728586548141922
30
0.0
11
30.959157299105943
21
-2.8358973007079586
31
0.0
0
LINE
8
1
62
1
10
30.959157299105943
20
-2.8358973007079586
30
0.0
11
30.618696686171877
21
-2.922398359057763
31
0.0
0
LINE
8
1
62
1
10
30.618696686171877
20
-2.922398359057763
30
0.0
11
30.308187890543586
21
-2.990187846673704
31
0.0
0
LINE
8
1
62
1
10
30.308187890543586
20
-2.990187846673704
30
0.0
11
30.0284704042398
21
-3.0414030096088305
31
0.0
0
LINE
8
1
62
1
10
30.0284704042398
20
-3.0414030096088305
30
0.0
11
29.78027302684936
21
-3.078215218263595
31
0.0
0
LINE
8
1
62
1
10
29.78027302684936
20
-3.078215218263595
30
0.0
11
29.564212560523156
21
-3.10282491264445
31
0.0
0
LINE
8
1
62
1
10
29.564212560523156
20
-3.10282491264445
30
0.0
11
29.380792720632076
21
-3.1174564998503147
31
0.0
0
LINE
8
1
62
1
10
29.380792720632076
20
-3.1174564998503147
30
0.0
11
29.230403263779664
21
-3.124353212604427
31
0.0
0
LINE
8
1
62
1
10
29.230403263779664
20
-3.124353212604427
30
0.0
11
29.113319334507818
21
-3.125771937706843
31
0.0
0
LINE
8
1
62
1
10
29.113319334507818
20
-3.125771937706843
30
0.0
11
29.029701031682073
21
-3.123978023327225
31
0.0
0
LINE
8
1
62
1
10
29.029701031682073
20
-3.123978023327225
30
0.0
11
28.979593195189565
21
-3.121240074088033
31
0.0
0
LINE
8
1
62
1
10
28.979593195189565
20
-3.121240074088033
30
0.0
11
28.962925413228295
21
-3.1198247429051977
31
0.0
0
LINE
8
1
62
1
10
28.962925413228295
20
-3.1198247429051977
30
0.0
11
26.470402422310297
21
-2.8513354660666645
31
0.0
0
LINE
8
1
62
1
10
26.470402422310297
20
-2.8513354660666645
30
0.0
11
25.712936334582587
21
-6.903421136856929
31
0.0
0
LINE
8
1
62
1
10
25.712936334582587
20
-6.903421136856929
30
0.0
11
28.134134318484044
21
-7.553465500561143
31
0.0
0
LINE
8
1
62
1
10
28.134134318484044
20
-7.553465500561143
30
0.0
11
28.15018783888339
21
-7.5581668408650735
31
0.0
0
LINE
8
1
62
1
10
28.15018783888339
20
-7.5581668408650735
30
0.0
11
28.19790106623329
21
-7.573714817577594
31
0.0
0
LINE
8
1
62
1
10
28.19790106623329
20
-7.573714817577594
30
0.0
11
28.276520848107708
21
-7.602248457273184
31
0.0
0
LINE
8
1
62
1
10
28.276520848107708
20
-7.602248457273184
30
0.0
11
28.385185858043393
21
-7.645866972726248
31
0.0
0
LINE
8
1
62
1
10
28.385185858043393
20
-7.645866972726248
30
0.0
11
28.52292847014696
21
-7.7066249038139825
31
0.0
0
LINE
8
1
62
1
10
28.52292847014696
20
-7.7066249038139825
30
0.0
11
28.688676838225977
21
-7.786527341129593
31
0.0
0
LINE
8
1
62
1
10
28.688676838225977
20
-7.786527341129593
30
0.0
11
28.88125717594482
21
-7.887525240566721
31
0.0
0
LINE
8
1
62
1
10
28.88125717594482
20
-7.887525240566721
30
0.0
11
29.099396234181924
21
-8.011510836992132
31
0.0
0
LINE
8
1
62
1
10
29.099396234181924
20
-8.011510836992132
30
0.0
11
29.341723971446264
21
-8.160313164967619
31
0.0
0
LINE
8
1
62
1
10
29.341723971446264
20
-8.160313164967619
30
0.0
11
29.60677641289908
21
-8.335693694313564
31
0.0
0
LINE
8
1
62
1
10
29.60677641289908
20
-8.335693694313564
30
0.0
11
29.89299869322085
21
-8.539342088126244
31
0.0
0
LINE
8
1
62
1
10
29.89299869322085
20
-8.539342088126244
30
0.0
11
30.198748278265555
21
-8.77287209066875
31
0.0
0
LINE
8
1
62
1
10
30.198748278265555
20
-8.77287209066875
30
0.0
11
30.522298360153318
21
-9.037817552351921
31
0.0
0
LINE
8
1
62
1
10
30.522298360153318
20
-9.037817552351921
30
0.0
11
30.86184142016965
21
-9.335628598806768
31
0.0
0
LINE
8
1
62
1
10
30.86184142016965
20
-9.335628598806768
30
0.0
11
31.215492953565576
21
-9.667667950824473
31
0.0
0
LINE
8
1
62
1
10
31.215492953565576
20
-9.667667950824473
30
0.0
11
31.581295350087153
21
-10.035207401703785
31
0.0
0
LINE
8
1
62
1
10
31.581295350087153
20
-10.035207401703785
30
0.0
11
31.95722192380704
21
-10.439424458299507
31
0.0
0
LINE
8
1
62
1
10
31.95722192380704
20
-10.439424458299507
30
0.0
11
32.34118108558412
21
-10.881399151809617
31
0.0
0
LINE
8
1
62
1
10
32.34118108558412
20
-10.881399151809617
30
0.0
11
32.7310206512406
21
-11.362111024073075
31
0.0
0
LINE
8
1
62
1
10
32.7310206512406
20
-11.362111024073075
30
0.0
11
31.8431208305469
21
-13.654044659605129
31
0.0
0
LINE
8
1
62
1
10
31.8431208305469
20
-13.654044659605129
30
0.0
11
31.23117242104826
21
-13.746661802717824
31
0.0
0
LINE
8
1
62
1
10
31.23117242104826
20
-13.746661802717824
30
0.0
11
30.64966675102665
21
-13.814613427780266
31
0.0
0
LINE
8
1
62
1
10
30.64966675102665
20
-13.814613427780266
30
0.0
11
30.09953439071127
21
-13.860073342051129
31
0.0
0
LINE
8
1
62
1
10
30.09953439071127
20
-13.860073342051129
30
0.0
11
29.5815934308155
21
-13.885248792709268
31
0.0
0
LINE
8
1
62
1
10
29.5815934308155
20
-13.885248792709268
30
0.0
11
29.096548329073595
21
-13.892375337300761
31
0.0
0
LINE
8
1
62
1
10
29.096548329073595
20
-13.892375337300761
30
0.0
11
28.644988975314682
21
-13.883711675914284
31
0.0
0
LINE
8
1
62
1
10
28.644988975314682
20
-13.883711675914284
30
0.0
11
28.227389976292272
21
-13.861534454006017
31
0.0
0
LINE
8
1
62
1
10
28.227389976292272
20
-13.861534454006017
30
0.0
11
27.844110161134065
21
-13.828133044832134
31
0.0
0
LINE
8
1
62
1
10
27.844110161134065
20
-13.828133044832134
30
0.0
11
27.495392307921826
21
-13.78580432047001
31
0.0
0
LINE
8
1
62
1
10
27.495392307921826
20
-13.78580432047001
30
0.0
11
27.181363091556296
21
-13.736847420418897
31
0.0
0
LINE
8
1
62
1
10
27.181363091556296
20
-13.736847420418897
30
0.0
11
26.90203325270649
21
-13.68355852676626
31
0.0
0
LINE
8
1
62
1
10
26.90203325270649
20
-13.68355852676626
30
0.0
11
26.65729798728844
21
-13.628225654888062
31
0.0
0
LINE
8
1
62
1
10
26.65729798728844
20
-13.628225654888062
30
0.0
11
26.4469375555646
21
-13.573123468619485
31
0.0
0
LINE
8
1
62
1
10
26.4469375555646
20
-13.573123468619485
30
0.0
11
26.270618109603166
21
-13.520508128787029
31
0.0
0
LINE
8
1
62
1
10
26.270618109603166
20
-13.520508128787029
30
0.0
11
26.12789273748658
21
-13.472612183934073
31
0.0
0
LINE
8
1
62
1
10
26.12789273748658
20
-13.472612183934073
30
0.0
11
26.018202722311177
21
-13.431639511999332
31
0.0
0
LINE
8
1
62
1
10
26.018202722311177
20
-13.431639511999332
30
0.0
11
25.940879013675737
21
-13.399760321621896
31
0.0
0
LINE
8
1
62
1
10
25.940879013675737
20
-13.399760321621896
30
0.0
11
25.895143909016042
21
-13.379106221647243
31
0.0
0
LINE
8
1
62
1
10
25.895143909016042
20
-13.379106221647243
30
0.0
11
25.880112941806086
21
-13.371765367296506
31
0.0
0
LINE
8
1
62
1
10
25.880112941806086
20
-13.371765367296506
30
0.0
11
23.6528939853417
21
-12.22100341450271
31
0.0
0
LINE
8
1
62
1
10
23.6528939853417
20
-12.22100341450271
30
0.0
11
21.48279571457068
21
-15.725832462070935
31
0.0
0
LINE
8
1
62
1
10
21.48279571457068
20
-15.725832462070935
30
0.0
11
23.50567248740853
21
-17.206618372979477
31
0.0
0
LINE
8
1
62
1
10
23.50567248740853
20
-17.206618372979477
30
0.0
11
23.51894362936039
21
-17.216801442711102
31
0.0
0
LINE
8
1
62
1
10
23.51894362936039
20
-17.216801442711102
30
0.0
11
23.557818311825955
21
-17.248535504965993
31
0.0
0
LINE
8
1
62
1
10
23.557818311825955
20
-17.248535504965993
30
0.0
11
23.620821535559664
21
-17.30354307258555
31
0.0
0
LINE
8
1
62
1
10
23.620821535559664
20
-17.30354307258555
30
0.0
11
23.706391814433758
21
-17.383470456178788
31
0.0
0
LINE
8
1
62
1
10
23.706391814433758
20
-17.383470456178788
30
0.0
11
23.812884678765734
21
-17.489883910335422
31
0.0
0
LINE
8
1
62
1
10
23.812884678765734
20
-17.489883910335422
30
0.0
11
23.9385763394802
21
-17.62426593084662
31
0.0
0
LINE
8
1
62
1
10
23.9385763394802
20
-17.62426593084662
30
0.0
11
24.081667506858267
21
-17.788011709372356
31
0.0
0
LINE
8
1
62
1
10
24.081667506858267
20
-17.788011709372356
30
0.0
11
24.240287357376864
21
-17.982425751743254
31
0.0
0
LINE
8
1
62
1
10
24.240287357376864
20
-17.982425751743254
30
0.0
11
24.41249764189986
21
-18.208718665823845
31
0.0
0
LINE
8
1
62
1
10
24.41249764189986
20
-18.208718665823845
30
0.0
11
24.596296928252727
21
-18.468004124594565
31
0.0
0
LINE
8
1
62
1
10
24.596296928252727
20
-18.468004124594565
30
0.0
11
24.78962497099233
21
-18.761296009831014
31
0.0
0
LINE
8
1
62
1
10
24.78962497099233
20
-18.761296009831014
30
0.0
11
24.990367200975278
21
-19.08950574147221
31
0.0
0
LINE
8
1
62
1
10
24.990367200975278
20
-19.08950574147221
30
0.0
11
25.196359327129972
21
-19.453439797474605
31
0.0
0
LINE
8
1
62
1
10
25.196359327129972
20
-19.453439797474605
30
0.0
11
25.405392042651886
21
-19.853797428646185
31
0.0
0
LINE
8
1
62
1
10
25.405392042651886
20
-19.853797428646185
30
0.0
11
25.615215827667278
21
-20.2911685726457
31
0.0
0
LINE
8
1
62
1
10
25.615215827667278
20
-20.2911685726457
30
0.0
11
25.823545840248055
21
-20.76603197101589
31
0.0
0
LINE
8
1
62
1
10
25.823545840248055
20
-20.76603197101589
30
0.0
11
26.028066887511077
21
-21.278753492797573
31
0.0
0
LINE
8
1
62
1
10
26.028066887511077
20
-21.278753492797573
30
0.0
11
26.226438468397422
21
-21.829584667943426
31
0.0
0
LINE
8
1
62
1
10
26.226438468397422
20
-21.829584667943426
30
0.0
11
26.41629987960275
21
-22.418661433417498
31
0.0
0
LINE
8
1
62
1
10
26.41629987960275
20
-22.418661433417498
30
0.0
11
24.760416029022792
21
-24.235079489554227
31
0.0
0
LINE
8
1
62
1
10
24.760416029022792
20
-24.235079489554227
30
0.0
11
24.15633396024162
21
-24.10038114040572
31
0.0
0
LINE
8
1
62
1
10
24.15633396024162
20
-24.10038114040572
30
0.0
11
23.589549113447617
21
-23.953680066583463
31
0.0
0
LINE
8
1
62
1
10
23.589549113447617
20
-23.953680066583463
30
0.0
11
23.060143949780922
21
-23.797339443728344
31
0.0
0
LINE
8
1
62
1
10
23.060143949780922
20
-23.797339443728344
30
0.0
11
22.56808396646432
21
-23.633712996990475
31
0.0
0
LINE
8
1
62
1
10
22.56808396646432
20
-23.633712996990475
30
0.0
11
22.113218474238998
21
-23.465139801184492
31
0.0
0
LINE
8
1
62
1
10
22.113218474238998
20
-23.465139801184492
30
0.0
11
21.695281592405568
21
-23.29393912420238
31
0.0
0
LINE
8
1
62
1
10
21.695281592405568
20
-23.29393912420238
30
0.0
11
21.31389345938366
21
-23.12240532244264
31
0.0
0
LINE
8
1
62
1
10
21.31389345938366
20
-23.12240532244264
30
0.0
11
20.968561656360368
21
-22.952802796921368
31
0.0
0
LINE
8
1
62
1
10
20.968561656360368
20
-22.952802796921368
30
0.0
11
20.6586828412586
21
-22.78736101862398
31
0.0
0
LINE
8
1
62
1
10
20.6586828412586
20
-22.78736101862398
30
0.0
11
20.383544589921954
21
-22.628269631537258
31
0.0
0
LINE
8
1
62
1
10
20.383544589921954
20
-22.628269631537258
30
0.0
11
20.142327441082866
21
-22.477673641668602
31
0.0
0
LINE
8
1
62
1
10
20.142327441082866
20
-22.477673641668602
30
0.0
11
19.934107141356826
21
-22.337668700214618
31
0.0
0
LINE
8
1
62
1
10
19.934107141356826
20
-22.337668700214618
30
0.0
11
19.75785708618705
21
-22.210296488883937
31
0.0
0
LINE
8
1
62
1
10
19.75785708618705
20
-22.210296488883937
30
0.0
11
19.612450952352134
21
-22.097540215209197
31
0.0
0
LINE
8
1
62
1
10
19.612450952352134
20
-22.097540215209197
30
0.0
11
19.496665517344304
21
-22.001320225502152
31
0.0
0
LINE
8
1
62
1
10
19.496665517344304
20
-22.001320225502152
30
0.0
11
19.409183660628145
21
-21.923489742912455
31
0.0
0
LINE
8
1
62
1
10
19.409183660628145
20
-21.923489742912455
30
0.0
11
19.34859754149969
21
-21.86583073784637
31
0.0
0
LINE
8
1
62
1
10
19.34859754149969
20
-21.86583073784637
30
0.0
11
19.313411947984058
21
-21.83004993778615
31
0.0
0
LINE
8
1
62
1
10
19.313411947984058
20
-21.83004993778615
30
0.0
11
19.302047810936582
21
-21.817774983324657
31
0.0
0
LINE
8
1
62
1
10
19.302047810936582
20
-21.817774983324657
30
0.0
11
17.640931150442608
21
-19.94015713289251
31
0.0
0
LINE
8
1
62
1
10
17.640931150442608
20
-19.94015713289251
30
0.0
11
14.351284493025544
21
-22.424382973436412
31
0.0
0
LINE
8
1
62
1
10
14.351284493025544
20
-22.424382973436412
30
0.0
11
15.702639337480875
21
-24.535922088963094
31
0.0
0
LINE
8
1
62
1
10
15.702639337480875
20
-24.535922088963094
30
0.0
11
15.711335759726719
21
-24.55021160812882
31
0.0
0
LINE
8
1
62
1
10
15.711335759726719
20
-24.55021160812882
30
0.0
11
15.736121656028928
21
-24.593845894974056
31
0.0
0
LINE
8
1
62
1
10
15.736121656028928
20
-24.593845894974056
30
0.0
11
15.774999387143765
21
-24.6678983137031
31
0.0
0
LINE
8
1
62
1
10
15.774999387143765
20
-24.6678983137031
30
0.0
11
15.825918194633049
21
-24.77333992938932
31
0.0
0
LINE
8
1
62
1
10
15.825918194633049
20
-24.77333992938932
30
0.0
11
15.886778859768068
21
-24.911037179973704
31
0.0
0
LINE
8
1
62
1
10
15.886778859768068
20
-24.911037179973704
30
0.0
11
15.955438457856964
21
-25.081749747173962
31
0.0
0
LINE
8
1
62
1
10
15.955438457856964
20
-25.081749747173962
30
0.0
11
16.02971519984431
21
-25.286128630051724
31
0.0
0
LINE
8
1
62
1
10
16.02971519984431
20
-25.286128630051724
30
0.0
11
16.107393352888927
21
-25.524714424660523
31
0.0
0
LINE
8
1
62
1
10
16.107393352888927
20
-25.524714424660523
30
0.0
11
16.18622823149563
21
-25.797935812867316
31
0.0
0
LINE
8
1
62
1
10
16.18622823149563
20
-25.797935812867316
30
0.0
11
16.263951250659574
21
-26.106108263105494
31
0.0
0
LINE
8
1
62
1
10
16.263951250659574
20
-26.106108263105494
30
0.0
11
16.33827503237737
21
-26.44943294547809
31
0.0
0
LINE
8
1
62
1
10
16.33827503237737
20
-26.44943294547809
30
0.0
11
16.40689855678827
21
-26.827995863286926
31
0.0
0
LINE
8
1
62
1
10
16.40689855678827
20
-26.827995863286926
30
0.0
11
16.467512349130924
21
-27.241767202717206
31
0.0
0
LINE
8
1
62
1
10
16.467512349130924
20
-27.241767202717206
30
0.0
11
16.517803693636925
21
-27.690600902057575
31
0.0
0
LINE
8
1
62
1
10
16.517803693636925
20
-27.690600902057575
30
0.0
11
16.555461865431724
21
-28.17423444148459
31
0.0
0
LINE
8
1
62
1
10
16.555461865431724
20
-28.17423444148459
30
0.0
11
16.578183371476214
21
-28.692288854086843
31
0.0
0
LINE
8
1
62
1
10
16.578183371476214
20
-28.692288854086843
30
0.0
11
16.58367719155925
21
-29.244268958449837
31
0.0
0
LINE
8
1
62
1
10
16.58367719155925
20
-29.244268958449837
30
0.0
11
16.569670010341294
21
-29.829563812767073
31
0.0
0
LINE
8
1
62
1
10
16.569670010341294
20
-29.829563812767073
30
0.0
11
16.53391143145379
21
-30.447447390087444
31
0.0
0
LINE
8
1
62
1
10
16.53391143145379
20
-30.447447390087444
30
0.0
11
14.333679840577567
21
-31.543032543227696
31
0.0
0
LINE
8
1
62
1
10
14.333679840577567
20
-31.543032543227696
30
0.0
11
13.81904874323706
21
-31.199210460259803
31
0.0
0
LINE
8
1
62
1
10
13.81904874323706
20
-31.199210460259803
30
0.0
11
13.343532153893447
21
-30.857669480471255
31
0.0
0
LINE
8
1
62
1
10
13.343532153893447
20
-30.857669480471255
30
0.0
11
12.906353287763904
21
-30.520642987920038
31
0.0
0
LINE
8
1
62
1
10
12.906353287763904
20
-30.520642987920038
30
0.0
11
12.506629708371873
21
-30.19031330210355
31
0.0
0
LINE
8
1
62
1
10
12.506629708371873
20
-30.19031330210355
30
0.0
11
12.143375930884863
21
-29.868807110090014
31
0.0
0
LINE
8
1
62
1
10
12.143375930884863
20
-29.868807110090014
30
0.0
11
11.815506212736727
21
-29.558191017594396
31
0.0
0
LINE
8
1
62
1
10
11.815506212736727
20
-29.558191017594396
30
0.0
11
11.521837526424527
21
-29.260467226412445
31
0.0
0
LINE
8
1
62
1
10
11.521837526424527
20
-29.260467226412445
30
0.0
11
11.261092709084027
21
-28.977569345415464
31
0.0
0
LINE
8
1
62
1
10
11.261092709084027
20
-28.977569345415464
30
0.0
11
11.031903783170018
21
-28.711358342086417
31
0.0
0
LINE
8
1
62
1
10
11.031903783170018
20
-28.711358342086417
30
0.0
11
10.83281544229895
21
-28.463618641345963
31
0.0
0
LINE
8
1
62
1
10
10.83281544229895
20
-28.463618641345963
30
0.0
11
10.662288696051661
21
-28.23605437817423
31
0.0
0
LINE
8
1
62
1
10
10.662288696051661
20
-28.23605437817423
30
0.0
11
10.51870466728415
21
-28.030285810281992
31
0.0
0
LINE
8
1
62
1
10
10.51870466728415
20
-28.030285810281992
30
0.0
11
10.400368535254385
21
-27.8478458968232
31
0.0
0
LINE
8
1
62
1
10
10.400368535254385
20
-27.8478458968232
30
0.0
11
10.305513617643589
21
-27.690177048870027
31
0.0
0
LINE
8
1
62
1
10
10.305513617643589
20
-27.690177048870027
30
0.0
11
10.232305584331568
21
-27.558628057092204
31
0.0
0
LINE
8
1
62
1
10
10.232305584331568
20
-27.558628057092204
30
0.0
11
10.17884679557787
21
-27.454451201794882
31
0.0
0
LINE
8
1
62
1
10
10.17884679557787
20
-27.454451201794882
30
0.0
11
10.143180757063968
21
-27.37879955017389
31
0.0
0
LINE
8
1
62
1
10
10.143180757063968
20
-27.37879955017389
30
0.0
11
10.123296684066796
21
-27.3327244453445
31
0.0
0
LINE
8
1
62
1
10
10.123296684066796
20
-27.3327244453445
30
0.0
11
10.117134166860922
21
-27.317173191390143
31
0.0
0
LINE
8
1
62
1
10
10.117134166860922
20
-27.317173191390143
30
0.0
11
9.246462811902234
21
-24.966282138260183
31
0.0
0
LINE
8
1
62
1
10
9.246462811902234
20
-24.966282138260183
30
0.0
11
5.281552777484695
21
-26.094396306443727
31
0.0
0
LINE
8
1
62
1
10
5.281552777484695
20
-26.094396306443727
30
0.0
11
5.778877733698128
21
-28.55151356859452
31
0.0
0
LINE
8
1
62
1
10
5.778877733698128
20
-28.55151356859452
30
0.0
11
5.781824936225111
21
-28.567979658450053
31
0.0
0
LINE
8
1
62
1
10
5.781824936225111
20
-28.567979658450053
30
0.0
11
5.789174573724956
21
-28.617621117661255
31
0.0
0
LINE
8
1
62
1
10
5.789174573724956
20
-28.617621117661255
30
0.0
11
5.798676159204924
21
-28.700717198011805
31
0.0
0
LINE
8
1
62
1
10
5.798676159204924
20
-28.700717198011805
30
0.0
11
5.808066628207111
21
-28.817432571320428
31
0.0
0
LINE
8
1
62
1
10
5.808066628207111
20
-28.817432571320428
30
0.0
11
5.815075524078102
21
-28.96781684163433
31
0.0
0
LINE
8
1
62
1
10
5.815075524078102
20
-28.96781684163433
30
0.0
11
5.817430200363551
21
-29.151804277372268
31
0.0
0
LINE
8
1
62
1
10
5.817430200363551
20
-29.151804277372268
30
0.0
11
5.812861031373154
21
-29.369213763966933
31
0.0
0
LINE
8
1
62
1
10
5.812861031373154
20
-29.369213763966933
30
0.0
11
5.7991066219456116
21
-29.619748977202185
31
0.0
0
LINE
8
1
62
1
10
5.7991066219456116
20
-29.619748977202185
30
0.0
11
5.773919007441036
21
-29.902998777085873
31
0.0
0
LINE
8
1
62
1
10
5.773919007441036
20
-29.902998777085873
30
0.0
11
5.735068834999862
21
-30.21843782174435
31
0.0
0
LINE
8
1
62
1
10
5.735068834999862
20
-30.21843782174435
30
0.0
11
5.6803505171325686
21
-30.565427400470934
31
0.0
0
LINE
8
1
62
1
10
5.6803505171325686
20
-30.565427400470934
30
0.0
11
5.607587348743646
21
-30.943216484707783
31
0.0
0
LINE
8
1
62
1
10
5.607587348743646
20
-30.943216484707783
30
0.0
11
5.51463657874577
21
-31.350942995389747
31
0.0
0
LINE
8
1
62
1
10
5.51463657874577
20
-31.350942995389747
30
0.0
11
5.399394427486367
21
-31.787635284729607
31
0.0
0
LINE
8
1
62
1
10
5.399394427486367
20
-31.787635284729607
30
0.0
11
5.259801041288548
21
-32.252213830178555
31
0.0
0
LINE
8
1
62
1
10
5.259801041288548
20
-32.252213830178555
30
0.0
11
5.093845375501236
21
-32.74349313795233
31
0.0
0
LINE
8
1
62
1
10
5.093845375501236
20
-32.74349313795233
30
0.0
11
4.899569997559765
21
-33.260183853175064
31
0.0
0
LINE
8
1
62
1
10
4.899569997559765
20
-33.260183853175064
30
0.0
11
4.675075801677458
21
-33.8008950733574
31
0.0
0
LINE
8
1
62
1
10
4.675075801677458
20
-33.8008950733574
30
0.0
11
4.4185266269210075
21
-34.36413686159585
31
0.0
0
LINE
8
1
62
1
10
4.4185266269210075
20
-34.36413686159585
30
0.0
11
1.9711007640004734
21
-34.59092426596112
31
0.0
0
LINE
8
1
62
1
10
1.9711007640004734
20
-34.59092426596112
30
0.0
11
1.6154244194658185
21
-34.084413526662594
31
0.0
0
LINE
8
1
62
1
10
1.6154244194658185
20
-34.084413526662594
30
0.0
11
1.2953972378918304
21
-33.5941596427721
31
0.0
0
LINE
8
1
62
1
10
1.2953972378918304
20
-33.5941596427721
30
0.0
11
1.0094880976619631
21
-33.12196457587209
31
0.0
0
LINE
8
1
62
1
10
1.0094880976619631
20
-33.12196457587209
30
0.0
11
0.7560858065362133
21
-32.669544505466476
31
0.0
0
LINE
8
1
62
1
10
0.7560858065362133
20
-32.669544505466476
30
0.0
11
0.5335031792958038
21
-32.23852651000413
31
0.0
0
LINE
8
1
62
1
10
0.5335031792958038
20
-32.23852651000413
30
0.0
11
0.33998124705769384
21
-31.830445426469723
31
0.0
0
LINE
8
1
62
1
10
0.33998124705769384
20
-31.830445426469723
30
0.0
11
0.17369359081603197
21
-31.446740893609164
31
0.0
0
LINE
8
1
62
1
10
0.17369359081603197
20
-31.446740893609164
30
0.0
11
0.03275079157706795
21
-31.088754583556394
31
0.0
0
LINE
8
1
62
1
10
0.03275079157706795
20
-31.088754583556394
30
0.0
11
-0.08479501072481971
21
-30.757727626321362
31
0.0
0
LINE
8
1
62
1
10
-0.08479501072481971
20
-30.757727626321362
30
0.0
11
-0.18094545750908964
21
-30.454798231285245
31
0.0
0
LINE
8
1
62
1
10
-0.18094545750908964
20
-30.454798231285245
30
0.0
11
-0.2577512191625626
21
-30.180999509528895
31
0.0
0
LINE
8
1
62
1
10
-0.2577512191625626
20
-30.180999509528895
30
0.0
11
-0.31730715825992534
21
-29.937257500495235
31
0.0
0
LINE
8
1
62
1
10
-0.31730715825992534
20
-29.937257500495235
30
0.0
11
-0.3617474167959134
21
-29.724389406155403
31
0.0
0
LINE
8
1
62
1
10
-0.3617474167959134
20
-29.724389406155403
30
0.0
11
-0.3932404359500059
21
-29.543102035513122
31
0.0
0
LINE
8
1
62
1
10
-0.3932404359500059
20
-29.543102035513122
30
0.0
11
-0.41398391700771414
21
-29.39399046194224
31
0.0
0
LINE
8
1
62
1
10
-0.41398391700771414
20
-29.39399046194224
30
0.0
11
-0.4261997321523881
21
-29.27753689550908
31
0.0
0
LINE
8
1
62
1
10
-0.4261997321523881
20
-29.27753689550908
30
0.0
11
-0.4321287939180924
21
-29.194109772084875
31
0.0
0
LINE
8
1
62
1
10
-0.4321287939180924
20
-29.194109772084875
30
0.0
11
-0.43402589215708653
21
-29.14396306070449
31
0.0
0
LINE
8
1
62
1
10
-0.43402589215708653
20
-29.14396306070449
30
0.0
11
-0.4341545074250203
21
-29.12723579027628
31
0.0
0
LINE
8
1
62
1
10
-0.4341545074250203
20
-29.12723579027628
30
0.0
11
-0.39679156580472064
21
-26.620572397910728
31
0.0
0
LINE
8
1
62
1
10
-0.39679156580472064
20
-26.620572397910728
30
0.0
11
-4.501481906749703
21
-26.240216824224326
31
0.0
0
LINE
8
1
62
1
10
-4.501481906749703
20
-26.240216824224326
30
0.0
11
-4.925353329887507
21
-28.711064931388997
31
0.0
0
LINE
8
1
62
1
10
-4.925353329887507
20
-28.711064931388997
30
0.0
11
-4.928553383111666
21
-28.727483755257598
31
0.0
0
LINE
8
1
62
1
10
-4.928553383111666
20
-28.727483755257598
30
0.0
11
-4.939632613684287
21
-28.776428032695463
31
0.0
0
LINE
8
1
62
1
10
-4.939632613684287
20
-28.776428032695463
30
0.0
11
-4.9607904156083595
21
-28.857345188564913
31
0.0
0
LINE
8
1
62
1
10
-4.9607904156083595
20
-28.857345188564913
30
0.0
11
-4.994196519966399
21
-28.969571261588392
31
0.0
0
LINE
8
1
62
1
10
-4.994196519966399
20
-28.969571261588392
30
0.0
11
-5.041985983584448
21
-29.112332322617913
31
0.0
0
LINE
8
1
62
1
10
-5.041985983584448
20
-29.112332322617913
30
0.0
11
-5.106254241182505
21
-29.284746104187548
31
0.0
0
LINE
8
1
62
1
10
-5.106254241182505
20
-29.284746104187548
30
0.0
11
-5.189052229559855
21
-29.485823838626946
31
0.0
0
LINE
8
1
62
1
10
-5.189052229559855
20
-29.485823838626946
30
0.0
11
-5.292381592250552
21
-29.714472301677695
31
0.0
0
LINE
8
1
62
1
10
-5.292381592250552
20
-29.714472301677695
30
0.0
11
-5.418189972958172
21
-29.96949605822266
31
0.0
0
LINE
8
1
62
1
10
-5.418189972958172
20
-29.96949605822266
30
0.0
11
-5.56836640594005
21
-30.249599906412225
31
0.0
0
LINE
8
1
62
1
10
-5.56836640594005
20
-30.249599906412225
30
0.0
11
-5.7447368113597905
21
-30.55339151615014
31
0.0
0
LINE
8
1
62
1
10
-5.7447368113597905
20
-30.55339151615014
30
0.0
11
-5.94905960346297
21
-30.879384257587233
31
0.0
0
LINE
8
1
62
1
10
-5.94905960346297
20
-30.879384257587233
30
0.0
11
-6.1830214192551685
21
-31.226000214962692
31
0.0
0
LINE
8
1
62
1
10
-6.1830214192551685
20
-31.226000214962692
30
0.0
11
-6.448232975173592
21
-31.591573380831186
31
0.0
0
LINE
8
1
62
1
10
-6.448232975173592
20
-31.591573380831186
30
0.0
11
-6.746225059044355
21
-31.97435302542059
31
0.0
0
LINE
8
1
62
1
10
-6.746225059044355
20
-31.97435302542059
30
0.0
11
-7.078444664406806
21
-32.372507235578425
31
0.0
0
LINE
8
1
62
1
10
-7.078444664406806
20
-32.372507235578425
30
0.0
11
-7.446251274064758
21
-32.78412661748799
31
0.0
0
LINE
8
1
62
1
10
-7.446251274064758
20
-32.78412661748799
30
0.0
11
-7.850913299492223
21
-33.20722815706549
31
0.0
0
LINE
8
1
62
1
10
-7.850913299492223
20
-33.20722815706549
30
0.0
11
-8.293604682478712
21
-33.639759231689936
31
0.0
0
LINE
8
1
62
1
10
-8.293604682478712
20
-33.639759231689936
30
0.0
11
-10.657686393001265
21
-32.96711999164829
31
0.0
0
LINE
8
1
62
1
10
-10.657686393001265
20
-32.96711999164829
30
0.0
11
-10.806371923530003
21
-32.366327678034295
31
0.0
0
LINE
8
1
62
1
10
-10.806371923530003
20
-32.366327678034295
30
0.0
11
-10.927688253130965
21
-31.793572393651818
31
0.0
0
LINE
8
1
62
1
10
-10.927688253130965
20
-31.793572393651818
30
0.0
11
-11.023714053795878
21
-31.24998131271105
31
0.0
0
LINE
8
1
62
1
10
-11.023714053795878
20
-31.24998131271105
30
0.0
11
-11.096571673088247
21
-30.73657269517075
31
0.0
0
LINE
8
1
62
1
10
-11.096571673088247
20
-30.73657269517075
30
0.0
11
-11.148422132900324
21
-30.254254264899934
31
0.0
0
LINE
8
1
62
1
10
-11.148422132900324
20
-30.254254264899934
30
0.0
11
-11.181460069937605
21
-29.80382180191341
31
0.0
0
LINE
8
1
62
1
10
-11.181460069937605
20
-29.80382180191341
30
0.0
11
-11.197908626701581
21
-29.38595795071727
31
0.0
0
LINE
8
1
62
1
10
-11.197908626701581
20
-29.38595795071727
30
0.0
11
-11.200014301810775
21
-29.00123124645196
31
0.0
0
LINE
8
1
62
1
10
-11.200014301810775
20
-29.00123124645196
30
0.0
11
-11.190041768555893
21
-28.65009536016923
31
0.0
0
LINE
8
1
62
1
10
-11.190041768555893
20
-28.65009536016923
30
0.0
11
-11.170268670627134
21
-28.332888564226803
31
0.0
0
LINE
8
1
62
1
10
-11.170268670627134
20
-28.332888564226803
30
0.0
11
-11.14298040398007
21
-28.049833418430126
31
0.0
0
LINE
8
1
62
1
10
-11.14298040398007
20
-28.049833418430126
30
0.0
11
-11.110464893821336
21
-27.801036677196137
31
0.0
0
LINE
8
1
62
1
10
-11.110464893821336
20
-27.801036677196137
30
0.0
11
-11.075007375696288
21
-27.58648941765869
31
0.0
0
LINE
8
1
62
1
10
-11.075007375696288
20
-27.58648941765869
30
0.0
11
-11.038885189648074
21
-27.406067388280544
31
0.0
0
LINE
8
1
62
1
10
-11.038885189648074
20
-27.406067388280544
30
0.0
11
-11.00436259639103
21
-27.2595315771831
31
0.0
0
LINE
8
1
62
1
10
-11.00436259639103
20
-27.2595315771831
30
0.0
11
-10.973685624401224
21
-27.146528999052386
31
0.0
0
LINE
8
1
62
1
10
-10.973685624401224
20
-27.146528999052386
30
0.0
11
-10.949076956773204
21
-27.066593699129058
31
0.0
0
LINE
8
1
62
1
10
-10.949076956773204
20
-27.066593699129058
30
0.0
11
-10.932730866624661
21
-27.019147972442116
31
0.0
0
LINE
8
1
62
1
10
-10.932730866624661
20
-27.019147972442116
30
0.0
11
-10.926808209750037
21
-27.00350379610039
31
0.0
0
LINE
8
1
62
1
10
-10.926808209750037
20
-27.00350379610039
30
0.0
11
-9.986457043851779
21
-24.679606845539567
31
0.0
0
LINE
8
1
62
1
10
-9.986457043851779
20
-24.679606845539567
30
0.0
11
-13.676566515905222
21
-22.842150657832562
31
0.0
0
LINE
8
1
62
1
10
-13.676566515905222
20
-22.842150657832562
30
0.0
11
-14.964388133946864
21
-24.993027881696513
31
0.0
0
LINE
8
1
62
1
10
-14.964388133946864
20
-24.993027881696513
30
0.0
11
-14.973303258002135
21
-25.007181986434883
31
0.0
0
LINE
8
1
62
1
10
-14.973303258002135
20
-25.007181986434883
30
0.0
11
-15.001315045166255
21
-25.048818886221827
31
0.0
0
LINE
8
1
62
1
10
-15.001315045166255
20
-25.048818886221827
30
0.0
11
-15.050274756105095
21
-25.116628807332564
31
0.0
0
LINE
8
1
62
1
10
-15.050274756105095
20
-25.116628807332564
30
0.0
11
-15.121965754320193
21
-25.209208827042946
31
0.0
0
LINE
8
1
62
1
10
-15.121965754320193
20
-25.209208827042946
30
0.0
11
-15.218099345555105
21
-25.3250660064297
31
0.0
0
LINE
8
1
62
1
10
-15.218099345555105
20
-25.3250660064297
30
0.0
11
-15.340310752725339
21
-25.46262069725231
31
0.0
0
LINE
8
1
62
1
10
-15.340310752725339
20
-25.46262069725231
30
0.0
11
-15.49015523335979
21
-25.620210017290212
31
0.0
0
LINE
8
1
62
1
10
-15.49015523335979
20
-25.620210017290212
30
0.0
11
-15.669104346314498
21
-25.796091488236573
31
0.0
0
LINE
8
1
62
1
10
-15.669104346314498
20
-25.796091488236573
30
0.0
11
-15.878542374282294
21
-25.988446829986007
31
0.0
0
LINE
8
1
62
1
10
-15.878542374282294
20
-25.988446829986007
30
0.0
11
-16.119762908374334
21
-26.195385904899652
31
0.0
0
LINE
8
1
62
1
10
-16.119762908374334
20
-26.195385904899652
30
0.0
11
-16.39396560079243
21
-26.414950805386372
31
0.0
0
LINE
8
1
62
1
10
-16.39396560079243
20
-26.414950805386372
30
0.0
11
-16.70225309134466
21
-26.645120077904494
31
0.0
0
LINE
8
1
62
1
10
-16.70225309134466
20
-26.645120077904494
30
0.0
11
-17.045628113281268
21
-26.883813076264566
31
0.0
0
LINE
8
1
62
1
10
-17.045628113281268
20
-26.883813076264566
30
0.0
11
-17.424990783643963
21
-27.12889443690031
31
0.0
0
LINE
8
1
62
1
10
-17.424990783643963
20
-27.12889443690031
30
0.0
11
-17.841136083029784
21
-27.37817866857314
31
0.0
0
LINE
8
1
62
1
10
-17.841136083029784
20
-27.37817866857314
30
0.0
11
-18.294751529370792
21
-27.62943484878458
31
0.0
0
LINE
8
1
62
1
10
-18.294751529370792
20
-27.62943484878458
30
0.0
11
-18.78641505002414
21
-27.880391418992346
31
0.0
0
LINE
8
1
62
1
10
-18.78641505002414
20
-27.880391418992346
30
0.0
11
-19.31659305615309
21
-28.128741070558505
31
0.0
0
LINE
8
1
62
1
10
-19.31659305615309
20
-28.128741070558505
30
0.0
11
-19.885638723059657
21
-28.372145713203498
31
0.0
0
LINE
8
1
62
1
10
-19.885638723059657
20
-28.372145713203498
30
0.0
11
-21.847093946349187
21
-26.890923485345272
31
0.0
0
LINE
8
1
62
1
10
-21.847093946349187
20
-26.890923485345272
30
0.0
11
-21.76870785807913
21
-26.276989928474507
31
0.0
0
LINE
8
1
62
1
10
-21.76870785807913
20
-26.276989928474507
30
0.0
11
-21.67492889315747
21
-25.699087018502485
31
0.0
0
LINE
8
1
62
1
10
-21.67492889315747
20
-25.699087018502485
30
0.0
11
-21.568102537780298
21
-25.157514911144176
31
0.0
0
LINE
8
1
62
1
10
-21.568102537780298
20
-25.157514911144176
30
0.0
11
-21.45057566003585
21
-24.65245642516336
31
0.0
0
LINE
8
1
62
1
10
-21.45057566003585
20
-24.65245642516336
30
0.0
11
-21.324691260508654
21
-24.18397733671084
31
0.0
0
LINE
8
1
62
1
10
-21.324691260508654
20
-24.18397733671084
30
0.0
11
-21.192783245878694
21
-23.752026894330967
31
0.0
0
LINE
8
1
62
1
10
-21.192783245878694
20
-23.752026894330967
30
0.0
11
-21.057171234429408
21
-23.356438553366818
31
0.0
0
LINE
8
1
62
1
10
-21.057171234429408
20
-23.356438553366818
30
0.0
11
-20.920155402317388
21
-22.996930928144266
31
0.0
0
LINE
8
1
62
1
10
-20.920155402317388
20
-22.996930928144266
30
0.0
11
-20.784011379381525
21
-22.673108959967433
31
0.0
0
LINE
8
1
62
1
10
-20.784011379381525
20
-22.673108959967433
30
0.0
11
-20.650985203181534
21
-22.38446529861425
31
0.0
0
LINE
8
1
62
1
10
-20.650985203181534
20
-22.38446529861425
30
0.0
11
-20.523288339854126
21
-22.13038189467979
31
0.0
0
LINE
8
1
62
1
10
-20.523288339854126
20
-22.13038189467979
30
0.0
11
-20.40309278026089
21
-21.910131799779464
31
0.0
0
LINE
8
1
62
1
10
-20.40309278026089
20
-21.910131799779464
30
0.0
11
-20.292526219774487
21
-21.722881171292336
31
0.0
0
LINE
8
1
62
1
10
-20.292526219774487
20
-21.722881171292336
30
0.0
11
-20.193667329909722
21
-21.567691477998814
31
0.0
0
LINE
8
1
62
1
10
-20.193667329909722
20
-21.567691477998814
30
0.0
11
-20.108541129853577
21
-21.443521902646488
31
0.0
0
LINE
8
1
62
1
10
-20.108541129853577
20
-21.443521902646488
30
0.0
11
-20.039114465783488
21
-21.349231937163676
31
0.0
0
LINE
8
1
62
1
10
-20.039114465783488
20
-21.349231937163676
30
0.0
11
-19.987291605686245
21
-21.283584165932652
31
0.0
0
LINE
8
1
62
1
10
-19.987291605686245
20
-21.283584165932652
30
0.0
11
-19.954909957201536
21
-21.245247232234075
31
0.0
0
LINE
8
1
62
1
10
-19.954909957201536
20
-21.245247232234075
30
0.0
11
-19.943735915813846
21
-21.232798982681153
31
0.0
0
LINE
8
1
62
1
10
-19.943735915813846
20
-21.232798982681153
30
0.0
11
-18.22739616125788
21
-19.40552363425584
31
0.0
0
LINE
8
1
62
1
10
-18.22739616125788
20
-19.40552363425584
30
0.0
11
-21.00455503261651
21
-16.359125472374277
31
0.0
0
LINE
8
1
62
1
10
-21.00455503261651
20
-16.359125472374277
30
0.0
11
-22.982399399979535
21
-17.89954392543255
31
0.0
0
LINE
8
1
62
1
10
-22.982399399979535
20
-17.89954392543255
30
0.0
11
-22.995825557961844
21
-17.90952172076517
31
0.0
0
LINE
8
1
62
1
10
-22.995825557961844
20
-17.90952172076517
30
0.0
11
-23.036986754642278
21
-17.938227948866945
31
0.0
0
LINE
8
1
62
1
10
-23.036986754642278
20
-17.938227948866945
30
0.0
11
-23.107136094338472
21
-17.983772529625217
31
0.0
0
LINE
8
1
62
1
10
-23.107136094338472
20
-17.983772529625217
30
0.0
11
-23.207429719848147
21
-18.044203051357012
31
0.0
0
LINE
8
1
62
1
10
-23.207429719848147
20
-18.044203051357012
30
0.0
11
-23.338924064509026
21
-18.117509195038025
31
0.0
0
LINE
8
1
62
1
10
-23.338924064509026
20
-18.117509195038025
30
0.0
11
-23.502573293516313
21
-18.201627271901156
31
0.0
0
LINE
8
1
62
1
10
-23.502573293516313
20
-18.201627271901156
30
0.0
11
-23.69922693898125
21
-18.294444866633878
31
0.0
0
LINE
8
1
62
1
10
-23.69922693898125
20
-18.294444866633878
30
0.0
11
-23.929627732904173
21
-18.39380557823168
31
0.0
0
LINE
8
1
62
1
10
-23.929627732904173
20
-18.39380557823168
30
0.0
11
-24.19440964191892
21
-18.49751385040457
31
0.0
0
LINE
8
1
62
1
10
-24.19440964191892
20
-18.49751385040457
30
0.0
11
-24.494096107342866
21
-18.60333988328621
31
0.0
0
LINE
8
1
62
1
10
-24.494096107342866
20
-18.60333988328621
30
0.0
11
-24.829098493738684
21
-18.709024618059892
31
0.0
0
LINE
8
1
62
1
10
-24.829098493738684
20
-18.709024618059892
30
0.0
11
-25.199714748860927
21
-18.8122847859935
31
0.0
0
LINE
8
1
62
1
10
-25.199714748860927
20
-18.8122847859935
30
0.0
11
-25.60612827752272
21
-18.9108180132661
31
0.0
0
LINE
8
1
62
1
10
-25.60612827752272
20
-18.9108180132661
30
0.0
11
-26.04840703157609
21
-19.002307972872533
31
0.0
0
LINE
8
1
62
1
10
-26.04840703157609
20
-19.002307972872533
30
0.0
11
-26.526502817854205
21
-19.084429574809764
31
0.0
0
LINE
8
1
62
1
10
-26.526502817854205
20
-19.084429574809764
30
0.0
11
-27.04025082557546
21
-19.15485418567869
31
0.0
0
LINE
8
1
62
1
10
-27.04025082557546
20
-19.15485418567869
30
0.0
11
-27.589369374358345
21
-19.211254868779744
31
0.0
0
LINE
8
1
62
1
10
-27.589369374358345
20
-19.211254868779744
30
0.0
11
-28.173459883643325
21
-19.251311635737625
31
0.0
0
LINE
8
1
62
1
10
-28.173459883643325
20
-19.251311635737625
30
0.0
11
-28.792007063963343
21
-19.272716700662265
31
0.0
0
LINE
8
1
62
1
10
-28.792007063963343
20
-19.272716700662265
30
0.0
11
-30.085930403315995
21
-17.18295875459542
31
0.0
0
LINE
8
1
62
1
10
-30.085930403315995
20
-17.18295875459542
30
0.0
11
-29.79105917182033
21
-16.638799083246557
31
0.0
0
LINE
8
1
62
1
10
-29.79105917182033
20
-16.638799083246557
30
0.0
11
-29.4948502812359
21
-16.133797537947288
31
0.0
0
LINE
8
1
62
1
10
-29.4948502812359
20
-16.133797537947288
30
0.0
11
-29.199599261055607
21
-15.667386718224822
31
0.0
0
LINE
8
1
62
1
10
-29.199599261055607
20
-15.667386718224822
30
0.0
11
-28.907560542352634
21
-15.23888931096088
31
0.0
0
LINE
8
1
62
1
10
-28.907560542352634
20
-15.23888931096088
30
0.0
11
-28.62094266919185
21
-14.84752026115441
31
0.0
0
LINE
8
1
62
1
10
-28.62094266919185
20
-14.84752026115441
30
0.0
11
-28.34190361119797
21
-14.49238914014462
31
0.0
0
LINE
8
1
62
1
10
-28.34190361119797
20
-14.49238914014462
30
0.0
11
-28.072546185133746
21
-14.172502706890342
31
0.0
0
LINE
8
1
62
1
10
-28.072546185133746
20
-14.172502706890342
30
0.0
11
-27.814913593158174
21
-13.886767657597366
31
0.0
0
LINE
8
1
62
1
10
-27.814913593158174
20
-13.886767657597366
30
0.0
11
-27.570985085238892
21
-13.633993558688182
31
0.0
0
LINE
8
1
62
1
10
-27.570985085238892
20
-13.633993558688182
30
0.0
11
-27.342671752986963
21
-13.412895957819734
31
0.0
0
LINE
8
1
62
1
10
-27.342671752986963
20
-13.412895957819734
30
0.0
11
-27.131812461964326
21
-13.222099667373588
31
0.0
0
LINE
8
1
62
1
10
-27.131812461964326
20
-13.222099667373588
30
0.0
11
-26.940169929286245
21
-13.060142214571115
31
0.0
0
LINE
8
1
62
1
10
-26.940169929286245
20
-13.060142214571115
30
0.0
11
-26.769426953102634
21
-12.925477452103047
31
0.0
0
LINE
8
1
62
1
10
-26.769426953102634
20
-12.925477452103047
30
0.0
11
-26.621182800293568
21
-12.816479322909222
31
0.0
0
LINE
8
1
62
1
10
-26.621182800293568
20
-12.816479322909222
30
0.0
11
-26.496949758456473
21
-12.731445772500704
31
0.0
0
LINE
8
1
62
1
10
-26.496949758456473
20
-12.731445772500704
30
0.0
11
-26.398149857995186
21
-12.668602801982983
31
0.0
0
LINE
8
1
62
1
10
-26.398149857995186
20
-12.668602801982983
30
0.0
11
-26.326111769845234
21
-12.626108654715877
31
0.0
0
LINE
8
1
62
1
10
-26.326111769845234
20
-12.626108654715877
30
0.0
11
-26.282067884085127
21
-12.602058129333939
31
0.0
0
LINE
8
1
62
1
10
-26.282067884085127
20
-12.602058129333939
30
0.0
11
-26.26715157439128
21
-12.594487011650077
31
0.0
0
LINE
8
1
62
1
10
-26.26715157439128
20
-12.594487011650077
30
0.0
11
-24.006624425597284
21
-11.510616926447351
31
0.0
0
LINE
8
1
62
1
10
-24.006624425597284
20
-11.510616926447351
30
0.0
11
-25.49576200191558
21
-7.666709742828284
31
0.0
0
LINE
8
1
62
1
10
-25.49576200191558
20
-7.666709742828284
30
0.0
11
-27.896510277173636
21
-8.388627377242045
31
0.0
0
LINE
8
1
62
1
10
-27.896510277173636
20
-8.388627377242045
30
0.0
11
-27.912634192050568
21
-8.39308130662037
31
0.0
0
LINE
8
1
62
1
10
-27.912634192050568
20
-8.39308130662037
30
0.0
11
-27.96138575055355
21
-8.404979927865126
31
0.0
0
LINE
8
1
62
1
10
-27.96138575055355
20
-8.404979927865126
30
0.0
11
-28.04325066197022
21
-8.422108120268298
31
0.0
0
LINE
8
1
62
1
10
-28.04325066197022
20
-8.422108120268298
30
0.0
11
-28.158601704903226
21
-8.442227667204548
31
0.0
0
LINE
8
1
62
1
10
-28.158601704903226
20
-8.442227667204548
30
0.0
11
-28.307697763108305
21
-8.463082374272336
31
0.0
0
LINE
8
1
62
1
10
-28.307697763108305
20
-8.463082374272336
30
0.0
11
-28.490683078763528
21
-8.482403224781269
31
0.0
0
LINE
8
1
62
1
10
-28.490683078763528
20
-8.482403224781269
30
0.0
11
-28.707586724543447
21
-8.497913563720111
31
0.0
0
LINE
8
1
62
1
10
-28.707586724543447
20
-8.497913563720111
30
0.0
11
-28.958322295520418
21
-8.507334301291356
31
0.0
0
LINE
8
1
62
1
10
-28.958322295520418
20
-8.507334301291356
30
0.0
11
-29.242687821562466
21
-8.508389127063383
31
0.0
0
LINE
8
1
62
1
10
-29.242687821562466
20
-8.508389127063383
30
0.0
11
-29.560365900542784
21
-8.49880972577006
31
0.0
0
LINE
8
1
62
1
10
-29.560365900542784
20
-8.49880972577006
30
0.0
11
-29.910924052321267
21
-8.476340985780183
31
0.0
0
LINE
8
1
62
1
10
-29.910924052321267
20
-8.476340985780183
30
0.0
11
-30.293815293103695
21
-8.438746191265501
31
0.0
0
LINE
8
1
62
1
10
-30.293815293103695
20
-8.438746191265501
30
0.0
11
-30.708378929429806
21
-8.383812189115998
31
0.0
0
LINE
8
1
62
1
10
-30.708378929429806
20
-8.383812189115998
30
0.0
11
-31.153841570687753
21
-8.309354521684913
31
0.0
0
LINE
8
1
62
1
10
-31.153841570687753
20
-8.309354521684913
30
0.0
11
-31.6293183587011
21
-8.213222516493412
31
0.0
0
LINE
8
1
62
1
10
-31.6293183587011
20
-8.213222516493412
30
0.0
11
-32.13381441258385
21
-8.093304324085743
31
0.0
0
LINE
8
1
62
1
10
-32.13381441258385
20
-8.093304324085743
30
0.0
11
-32.66622648671223
21
-7.947531895300307
31
0.0
0
LINE
8
1
62
1
10
-32.66622648671223
20
-7.947531895300307
30
0.0
11
-33.22534483931706
21
-7.773885889310047
31
0.0
0
LINE
8
1
62
1
10
-33.22534483931706
20
-7.773885889310047
30
0.0
11
-33.809855308860065
21
-7.570400503886701
31
0.0
0
LINE
8
1
62
1
10
-33.809855308860065
20
-7.570400503886701
30
0.0
11
-34.261495247419525
21
-5.154340229976082
31
0.0
0
LINE
8
1
62
1
10
-34.261495247419525
20
-5.154340229976082
30
0.0
11
-33.78996286644964
21
-4.753446223057619
31
0.0
0
LINE
8
1
62
1
10
-33.78996286644964
20
-4.753446223057619
30
0.0
11
-33.331328702225996
21
-4.389549299433934
31
0.0
0
LINE
8
1
62
1
10
-33.331328702225996
20
-4.389549299433934
30
0.0
11
-32.8875283035603
21
-4.061291133022398
31
0.0
0
LINE
8
1
62
1
10
-32.8875283035603
20
-4.061291133022398
30
0.0
11
-32.460419191102055
21
-3.7672257537124274
31
0.0
0
LINE
8
1
62
1
10
-32.460419191102055
20
-3.7672257537124274
30
0.0
11
-32.05177717628251
21
-3.5058233013791416
31
0.0
0
LINE
8
1
62
1
10
-32.05177717628251
20
-3.5058233013791416
30
0.0
11
-31.663292845915578
21
-3.2754739274812774
31
0.0
0
LINE
8
1
62
1
10
-31.663292845915578
20
-3.2754739274812774
30
0.0
11
-31.296568218187407
21
-3.074491837299778
31
0.0
0
LINE
8
1
62
1
10
-31.296568218187407
20
-3.074491837299778
30
0.0
11
-30.95311357548606
21
-2.901119465655962
31
0.0
0
LINE
8
1
62
1
10
-30.95311357548606
20
-2.901119465655962
30
0.0
11
-30.634344479232382
21
-2.7535317787417477
31
0.0
0
LINE
8
1
62
1
10
-30.634344479232382
20
-2.7535317787417477
30
0.0
11
-30.34157897157699
21
-2.62984069449942
31
0.0
0
LINE
8
1
62
1
10
-30.34157897157699
20
-2.62984069449942
30
0.0
11
-30.076034968523395
21
-2.5280996138050793
31
0.0
0
LINE
8
1
62
1
10
-30.076034968523395
20
-2.5280996138050793
30
0.0
11
-29.838827848726574
21
-2.446308054538664
31
0.0
0
LINE
8
1
62
1
10
-29.838827848726574
20
-2.446308054538664
30
0.0
11
-29.63096824189885
21
-2.382416380464178
31
0.0
0
LINE
8
1
62
1
10
-29.63096824189885
20
-2.382416380464178
30
0.0
11
-29.453360020431557
21
-2.334330616697155
31
0.0
0
LINE
8
1
62
1
10
-29.453360020431557
20
-2.334330616697155
30
0.0
11
-29.306798497512652
21
-2.29991734340229
31
0.0
0
LINE
8
1
62
1
10
-29.306798497512652
20
-2.29991734340229
30
0.0
11
-29.191968834686616
21
-2.2770086592429966
31
0.0
0
LINE
8
1
62
1
10
-29.191968834686616
20
-2.2770086592429966
30
0.0
11
-29.109444661465428
21
-2.263407205996427
31
0.0
0
LINE
8
1
62
1
10
-29.109444661465428
20
-2.263407205996427
30
0.0
11
-29.05968690925743
21
-2.256891245652523
31
0.0
0
LINE
8
1
62
1
10
-29.05968690925743
20
-2.256891245652523
30
0.0
11
-29.043042861535703
21
-2.2552197812339387
31
0.0
0
LINE
8
1
62
1
10
-29.043042861535703
20
-2.2552197812339387
30
0.0
11
-26.543625035961647
21
-2.0611376201919023
31
0.0
0
LINE
8
1
62
1
10
-26.543625035961647
20
-2.0611376201919023
30
0.0
11
-26.54362503596165
21
2.061137620191896
31
0.0
0
LINE
8
1
62
1
10
-26.54362503596165
20
2.061137620191896
30
0.0
11
-29.043042861535707
21
2.255219781233931
31
0.0
0
LINE
8
1
62
1
10
-29.043042861535707
20
2.255219781233931
30
0.0
11
-29.059686909257433
21
2.256891245652516
31
0.0
0
LINE
8
1
62
1
10
-29.059686909257433
20
2.256891245652516
30
0.0
11
-29.10944466146543
21
2.26340720599642
31
0.0
0
LINE
8
1
62
1
10
-29.10944466146543
20
2.26340720599642
30
0.0
11
-29.19196883468662
21
2.2770086592429895
31
0.0
0
LINE
8
1
62
1
10
-29.19196883468662
20
2.2770086592429895
30
0.0
11
-29.306798497512656
21
2.2999173434022824
31
0.0
0
LINE
8
1
62
1
10
-29.306798497512656
20
2.2999173434022824
30
0.0
11
-29.45336002043156
21
2.3343306166971476
31
0.0
0
LINE
8
1
62
1
10
-29.45336002043156
20
2.3343306166971476
30
0.0
11
-29.630968241898852
21
2.3824163804641705
31
0.0
0
LINE
8
1
62
1
10
-29.630968241898852
20
2.3824163804641705
30
0.0
11
-29.838827848726577
21
2.446308054538657
31
0.0
0
LINE
8
1
62
1
10
-29.838827848726577
20
2.446308054538657
30
0.0
11
-30.076034968523395
21
2.5280996138050718
31
0.0
0
LINE
8
1
62
1
10
-30.076034968523395
20
2.5280996138050718
30
0.0
11
-30.341578971576993
21
2.6298406944994124
31
0.0
0
LINE
8
1
62
1
10
-30.341578971576993
20
2.6298406944994124
30
0.0
11
-30.634344479232386
21
2.75353177874174
31
0.0
0
LINE
8
1
62
1
10
-30.634344479232386
20
2.75353177874174
30
0.0
11
-30.953113575486068
21
2.9011194656559542
31
0.0
0
LINE
8
1
62
1
10
-30.953113575486068
20
2.9011194656559542
30
0.0
11
-31.29656821818741
21
3.07449183729977
31
0.0
0
LINE
8
1
62
1
10
-31.29656821818741
20
3.07449183729977
30
0.0
11
-31.66329284591558
21
3.27547392748127
31
0.0
0
LINE
8
1
62
1
10
-31.66329284591558
20
3.27547392748127
30
0.0
11
-32.05177717628252
21
3.5058233013791336
31
0.0
0
LINE
8
1
62
1
10
-32.05177717628252
20
3.5058233013791336
30
0.0
11
-32.460419191102055
21
3.76722575371242
31
0.0
0
LINE
8
1
62
1
10
-32.460419191102055
20
3.76722575371242
30
0.0
11
-32.887528303560316
21
4.06129113302239
31
0.0
0
LINE
8
1
62
1
10
-32.887528303560316
20
4.06129113302239
30
0.0
11
-33.331328702226
21
4.389549299433926
31
0.0
0
LINE
8
1
62
1
10
-33.331328702226
20
4.389549299433926
30
0.0
11
-33.78996286644964
21
4.75344622305761
31
0.0
0
LINE
8
1
62
1
10
-33.78996286644964
20
4.75344622305761
30
0.0
11
-34.26149524741953
21
5.154340229976073
31
0.0
0
LINE
8
1
62
1
10
-34.26149524741953
20
5.154340229976073
30
0.0
11
-33.809855308860065
21
7.570400503886692
31
0.0
0
LINE
8
1
62
1
10
-33.809855308860065
20
7.570400503886692
30
0.0
11
-33.22534483931706
21
7.77388588931004
31
0.0
0
LINE
8
1
62
1
10
-33.22534483931706
20
7.77388588931004
30
0.0
11
-32.66622648671223
21
7.9475318953003
31
0.0
0
LINE
8
1
62
1
10
-32.66622648671223
20
7.9475318953003
30
0.0
11
-32.13381441258385
21
8.093304324085736
31
0.0
0
LINE
8
1
62
1
10
-32.13381441258385
20
8.093304324085736
30
0.0
11
-31.6293183587011
21
8.213222516493405
31
0.0
0
LINE
8
1
62
1
10
-31.6293183587011
20
8.213222516493405
30
0.0
11
-31.153841570687753
21
8.309354521684906
31
0.0
0
LINE
8
1
62
1
10
-31.153841570687753
20
8.309354521684906
30
0.0
11
-30.708378929429806
21
8.383812189115991
31
0.0
0
LINE
8
1
62
1
10
-30.708378929429806
20
8.383812189115991
30
0.0
11
-30.293815293103695
21
8.438746191265496
31
0.0
0
LINE
8
1
62
1
10
-30.293815293103695
20
8.438746191265496
30
0.0
11
-29.910924052321267
21
8.476340985780176
31
0.0
0
LINE
8
1
62
1
10
-29.910924052321267
20
8.476340985780176
30
0.0
11
-29.560365900542784
21
8.498809725770053
31
0.0
0
LINE
8
1
62
1
10
-29.560365900542784
20
8.498809725770053
30
0.0
11
-29.242687821562466
21
8.508389127063376
31
0.0
0
LINE
8
1
62
1
10
-29.242687821562466
20
8.508389127063376
30
0.0
11
-28.958322295520418
21
8.507334301291351
31
0.0
0
LINE
8
1
62
1
10
-28.958322295520418
20
8.507334301291351
30
0.0
11
-28.707586724543447
21
8.497913563720104
31
0.0
0
LINE
8
1
62
1
10
-28.707586724543447
20
8.497913563720104
30
0.0
11
-28.490683078763528
21
8.482403224781262
31
0.0
0
LINE
8
1
62
1
10
-28.490683078763528
20
8.482403224781262
30
0.0
11
-28.307697763108305
21
8.463082374272329
31
0.0
0
LINE
8
1
62
1
10
-28.307697763108305
20
8.463082374272329
30
0.0
11
-28.158601704903226
21
8.442227667204541
31
0.0
0
LINE
8
1
62
1
10
-28.158601704903226
20
8.442227667204541
30
0.0
11
-28.04325066197022
21
8.422108120268291
31
0.0
0
LINE
8
1
62
1
10
-28.04325066197022
20
8.422108120268291
30
0.0
11
-27.96138575055355
21
8.40497992786512
31
0.0
0
LINE
8
1
62
1
10
-27.96138575055355
20
8.40497992786512
30
0.0
11
-27.912634192050568
21
8.393081306620365
31
0.0
0
LINE
8
1
62
1
10
-27.912634192050568
20
8.393081306620365
30
0.0
11
-27.896510277173636
21
8.388627377242038
31
0.0
0
LINE
8
1
62
1
10
-27.896510277173636
20
8.388627377242038
30
0.0
11
-25.49576200191558
21
7.666709742828279
31
0.0
0
LINE
8
1
62
1
10
-25.49576200191558
20
7.666709742828279
30
0.0
11
-24.006624425597288
21
11.510616926447346
31
0.0
0
LINE
8
1
62
1
10
-24.006624425597288
20
11.510616926447346
30
0.0
11
-26.267151574391285
21
12.594487011650072
31
0.0
0
LINE
8
1
62
1
10
-26.267151574391285
20
12.594487011650072
30
0.0
11
-26.28206788408513
21
12.602058129333933
31
0.0
0
LINE
8
1
62
1
10
-26.28206788408513
20
12.602058129333933
30
0.0
11
-26.326111769845237
21
12.62610865471587
31
0.0
0
LINE
8
1
62
1
10
-26.326111769845237
20
12.62610865471587
30
0.0
11
-26.39814985799519
21
12.668602801982976
31
0.0
0
LINE
8
1
62
1
10
-26.39814985799519
20
12.668602801982976
30
0.0
11
-26.496949758456477
21
12.731445772500699
31
0.0
0
LINE
8
1
62
1
10
-26.496949758456477
20
12.731445772500699
30
0.0
11
-26.62118280029357
21
12.816479322909215
31
0.0
0
LINE
8
1
62
1
10
-26.62118280029357
20
12.816479322909215
30
0.0
11
-26.769426953102638
21
12.925477452103042
31
0.0
0
LINE
8
1
62
1
10
-26.769426953102638
20
12.925477452103042
30
0.0
11
-26.94016992928625
21
13.06014221457111
31
0.0
0
LINE
8
1
62
1
10
-26.94016992928625
20
13.06014221457111
30
0.0
11
-27.13181246196433
21
13.22209966737358
31
0.0
0
LINE
8
1
62
1
10
-27.13181246196433
20
13.22209966737358
30
0.0
11
-27.342671752986966
21
13.412895957819728
31
0.0
0
LINE
8
1
62
1
10
-27.342671752986966
20
13.412895957819728
30
0.0
11
-27.570985085238895
21
13.633993558688175
31
0.0
0
LINE
8
1
62
1
10
-27.570985085238895
20
13.633993558688175
30
0.0
11
-27.814913593158177
21
13.886767657597359
31
0.0
0
LINE
8
1
62
1
10
-27.814913593158177
20
13.886767657597359
30
0.0
11
-28.07254618513375
21
14.172502706890334
31
0.0
0
LINE
8
1
62
1
10
-28.07254618513375
20
14.172502706890334
30
0.0
11
-28.341903611197974
21
14.492389140144613
31
0.0
0
LINE
8
1
62
1
10
-28.341903611197974
20
14.492389140144613
30
0.0
11
-28.620942669191855
21
14.847520261154402
31
0.0
0
LINE
8
1
62
1
10
-28.620942669191855
20
14.847520261154402
30
0.0
11
-28.907560542352638
21
15.238889310960873
31
0.0
0
LINE
8
1
62
1
10
-28.907560542352638
20
15.238889310960873
30
0.0
11
-29.19959926105561
21
15.667386718224815
31
0.0
0
LINE
8
1
62
1
10
-29.19959926105561
20
15.667386718224815
30
0.0
11
-29.494850281235905
21
16.13379753794728
31
0.0
0
LINE
8
1
62
1
10
-29.494850281235905
20
16.13379753794728
30
0.0
11
-29.791059171820333
21
16.63879908324655
31
0.0
0
LINE
8
1
62
1
10
-29.791059171820333
20
16.63879908324655
30
0.0
11
-30.085930403316
21
17.18295875459541
31
0.0
0
LINE
8
1
62
1
10
-30.085930403316
20
17.18295875459541
30
0.0
11
-28.792007063963347
21
19.272716700662258
31
0.0
0
LINE
8
1
62
1
10
-28.792007063963347
20
19.272716700662258
30
0.0
11
-28.173459883643325
21
19.25131163573762
31
0.0
0
LINE
8
1
62
1
10
-28.173459883643325
20
19.25131163573762
30
0.0
11
-27.58936937435835
21
19.211254868779733
31
0.0
0
LINE
8
1
62
1
10
-27.58936937435835
20
19.211254868779733
30
0.0
11
-27.04025082557546
21
19.154854185678683
31
0.0
0
LINE
8
1
62
1
10
-27.04025082557546
20
19.154854185678683
30
0.0
11
-26.526502817854208
21
19.084429574809757
31
0.0
0
LINE
8
1
62
1
10
-26.526502817854208
20
19.084429574809757
30
0.0
11
-26.04840703157609
21
19.002307972872526
31
0.0
0
LINE
8
1
62
1
10
-26.04840703157609
20
19.002307972872526
30
0.0
11
-25.606128277522725
21
18.91081801326609
31
0.0
0
LINE
8
1
62
1
10
-25.606128277522725
20
18.91081801326609
30
0.0
11
-25.19971474886093
21
18.812284785993494
31
0.0
0
LINE
8
1
62
1
10
-25.19971474886093
20
18.812284785993494
30
0.0
11
-24.829098493738687
21
18.709024618059885
31
0.0
0
LINE
8
1
62
1
10
-24.829098493738687
20
18.709024618059885
30
0.0
11
-24.49409610734287
21
18.603339883286203
31
0.0
0
LINE
8
1
62
1
10
-24.49409610734287
20
18.603339883286203
30
0.0
11
-24.194409641918924
21
18.497513850404562
31
0.0
0
LINE
8
1
62
1
10
-24.194409641918924
20
18.497513850404562
30
0.0
11
-23.929627732904176
21
18.393805578231675
31
0.0
0
LINE
8
1
62
1
10
-23.929627732904176
20
18.393805578231675
30
0.0
11
-23.699226938981255
21
18.29444486663387
31
0.0
0
LINE
8
1
62
1
10
-23.699226938981255
20
18.29444486663387
30
0.0
11
-23.502573293516317
21
18.20162727190115
31
0.0
0
LINE
8
1
62
1
10
-23.502573293516317
20
18.20162727190115
30
0.0
11
-23.33892406450903
21
18.117509195038018
31
0.0
0
LINE
8
1
62
1
10
-23.33892406450903
20
18.117509195038018
30
0.0
11
-23.20742971984815
21
18.044203051357005
31
0.0
0
LINE
8
1
62
1
10
-23.20742971984815
20
18.044203051357005
30
0.0
11
-23.107136094338475
21
17.98377252962521
31
0.0
0
LINE
8
1
62
1
10
-23.107136094338475
20
17.98377252962521
30
0.0
11
-23.03698675464228
21
17.93822794886694
31
0.0
0
LINE
8
1
62
1
10
-23.03698675464228
20
17.93822794886694
30
0.0
11
-22.995825557961847
21
17.909521720765163
31
0.0
0
LINE
8
1
62
1
10
-22.995825557961847
20
17.909521720765163
30
0.0
11
-22.98239939997954
21
17.899543925432543
31
0.0
0
LINE
8
1
62
1
10
-22.98239939997954
20
17.899543925432543
30
0.0
11
-21.004555032616512
21
16.35912547237427
31
0.0
0
LINE
8
1
62
1
10
-21.004555032616512
20
16.35912547237427
30
0.0
11
-18.22739616125791
21
19.40552363425581
31
0.0
0
LINE
8
1
62
1
10
-18.22739616125791
20
19.40552363425581
30
0.0
11
-19.943735915813882
21
21.23279898268112
31
0.0
0
LINE
8
1
62
1
10
-19.943735915813882
20
21.23279898268112
30
0.0
11
-19.954909957201572
21
21.245247232234043
31
0.0
0
LINE
8
1
62
1
10
-19.954909957201572
20
21.245247232234043
30
0.0
11
-19.98729160568628
21
21.28358416593262
31
0.0
0
LINE
8
1
62
1
10
-19.98729160568628
20
21.28358416593262
30
0.0
11
-20.039114465783523
21
21.34923193716364
31
0.0
0
LINE
8
1
62
1
10
-20.039114465783523
20
21.34923193716364
30
0.0
11
-20.108541129853613
21
21.443521902646452
31
0.0
0
LINE
8
1
62
1
10
-20.108541129853613
20
21.443521902646452
30
0.0
11
-20.193667329909758
21
21.567691477998782
31
0.0
0
LINE
8
1
62
1
10
-20.193667329909758
20
21.567691477998782
30
0.0
11
-20.292526219774526
21
21.722881171292304
31
0.0
0
LINE
8
1
62
1
10
-20.292526219774526
20
21.722881171292304
30
0.0
11
-20.403092780260927
21
21.91013179977943
31
0.0
0
LINE
8
1
62
1
10
-20.403092780260927
20
21.91013179977943
30
0.0
11
-20.52328833985416
21
22.130381894679758
31
0.0
0
LINE
8
1
62
1
10
-20.52328833985416
20
22.130381894679758
30
0.0
11
-20.65098520318157
21
22.384465298614217
31
0.0
0
LINE
8
1
62
1
10
-20.65098520318157
20
22.384465298614217
30
0.0
11
-20.784011379381564
21
22.6731089599674
31
0.0
0
LINE
8
1
62
1
10
-20.784011379381564
20
22.6731089599674
30
0.0
11
-20.920155402317427
21
22.99693092814423
31
0.0
0
LINE
8
1
62
1
10
-20.920155402317427
20
22.99693092814423
30
0.0
11
-21.057171234429447
21
23.356438553366786
31
0.0
0
LINE
8
1
62
1
10
-21.057171234429447
20
23.356438553366786
30
0.0
11
-21.192783245878733
21
23.752026894330935
31
0.0
0
LINE
8
1
62
1
10
-21.192783245878733
20
23.752026894330935
30
0.0
11
-21.324691260508697
21
24.183977336710804
31
0.0
0
LINE
8
1
62
1
10
-21.324691260508697
20
24.183977336710804
30
0.0
11
-21.450575660035888
21
24.652456425163326
31
0.0
0
LINE
8
1
62
1
10
-21.450575660035888
20
24.652456425163326
30
0.0
11
-21.568102537780344
21
25.157514911144144
31
0.0
0
LINE
8
1
62
1
10
-21.568102537780344
20
25.157514911144144
30
0.0
11
-21.67492889315751
21
25.699087018502453
31
0.0
0
LINE
8
1
62
1
10
-21.67492889315751
20
25.699087018502453
30
0.0
11
-21.76870785807917
21
26.27698992847447
31
0.0
0
LINE
8
1
62
1
10
-21.76870785807917
20
26.27698992847447
30
0.0
11
-21.847093946349226
21
26.890923485345237
31
0.0
0
LINE
8
1
62
1
10
-21.847093946349226
20
26.890923485345237
30
0.0
11
-19.88563872305969
21
28.372145713203473
31
0.0
0
LINE
8
1
62
1
10
-19.88563872305969
20
28.372145713203473
30
0.0
11
-19.316593056153124
21
28.128741070558483
31
0.0
0
LINE
8
1
62
1
10
-19.316593056153124
20
28.128741070558483
30
0.0
11
-18.786415050024168
21
27.88039141899233
31
0.0
0
LINE
8
1
62
1
10
-18.786415050024168
20
27.88039141899233
30
0.0
11
-18.294751529370824
21
27.62943484878456
31
0.0
0
LINE
8
1
62
1
10
-18.294751529370824
20
27.62943484878456
30
0.0
11
-17.841136083029816
21
27.37817866857312
31
0.0
0
LINE
8
1
62
1
10
-17.841136083029816
20
27.37817866857312
30
0.0
11
-17.424990783643995
21
27.128894436900293
31
0.0
0
LINE
8
1
62
1
10
-17.424990783643995
20
27.128894436900293
30
0.0
11
-17.0456281132813
21
26.88381307626455
31
0.0
0
LINE
8
1
62
1
10
-17.0456281132813
20
26.88381307626455
30
0.0
11
-16.70225309134469
21
26.645120077904476
31
0.0
0
LINE
8
1
62
1
10
-16.70225309134469
20
26.645120077904476
30
0.0
11
-16.393965600792463
21
26.414950805386354
31
0.0
0
LINE
8
1
62
1
10
-16.393965600792463
20
26.414950805386354
30
0.0
11
-16.119762908374362
21
26.195385904899634
31
0.0
0
LINE
8
1
62
1
10
-16.119762908374362
20
26.195385904899634
30
0.0
11
-15.878542374282326
21
25.98844682998599
31
0.0
0
LINE
8
1
62
1
10
-15.878542374282326
20
25.98844682998599
30
0.0
11
-15.669104346314528
21
25.796091488236556
31
0.0
0
LINE
8
1
62
1
10
-15.669104346314528
20
25.796091488236556
30
0.0
11
-15.49015523335982
21
25.620210017290194
31
0.0
0
LINE
8
1
62
1
10
-15.49015523335982
20
25.620210017290194
30
0.0
11
-15.340310752725369
21
25.46262069725229
31
0.0
0
LINE
8
1
62
1
10
-15.340310752725369
20
25.46262069725229
30
0.0
11
-15.218099345555133
21
25.325066006429683
31
0.0
0
LINE
8
1
62
1
10
-15.218099345555133
20
25.325066006429683
30
0.0
11
-15.121965754320222
21
25.20920882704293
31
0.0
0
LINE
8
1
62
1
10
-15.121965754320222
20
25.20920882704293
30
0.0
11
-15.050274756105123
21
25.116628807332546
31
0.0
0
LINE
8
1
62
1
10
-15.050274756105123
20
25.116628807332546
30
0.0
11
-15.001315045166283
21
25.048818886221813
31
0.0
0
LINE
8
1
62
1
10
-15.001315045166283
20
25.048818886221813
30
0.0
11
-14.973303258002165
21
25.007181986434865
31
0.0
0
LINE
8
1
62
1
10
-14.973303258002165
20
25.007181986434865
30
0.0
11
-14.964388133946894
21
24.993027881696495
31
0.0
0
LINE
8
1
62
1
10
-14.964388133946894
20
24.993027881696495
30
0.0
11
-13.676566515905249
21
22.842150657832548
31
0.0
0
LINE
8
1
62
1
10
-13.676566515905249
20
22.842150657832548
30
0.0
11
-9.986457043851788
21
24.679606845539567
31
0.0
0
LINE
8
1
62
1
10
-9.986457043851788
20
24.679606845539567
30
0.0
11
-10.926808209750046
21
27.003503796100386
31
0.0
0
LINE
8
1
62
1
10
-10.926808209750046
20
27.003503796100386
30
0.0
11
-10.932730866624668
21
27.019147972442113
31
0.0
0
LINE
8
1
62
1
10
-10.932730866624668
20
27.019147972442113
30
0.0
11
-10.949076956773212
21
27.066593699129054
31
0.0
0
LINE
8
1
62
1
10
-10.949076956773212
20
27.066593699129054
30
0.0
11
-10.97368562440123
21
27.146528999052382
31
0.0
0
LINE
8
1
62
1
10
-10.97368562440123
20
27.146528999052382
30
0.0
11
-11.004362596391038
21
27.259531577183097
31
0.0
0
LINE
8
1
62
1
10
-11.004362596391038
20
27.259531577183097
30
0.0
11
-11.038885189648083
21
27.40606738828054
31
0.0
0
LINE
8
1
62
1
10
-11.038885189648083
20
27.40606738828054
30
0.0
11
-11.075007375696297
21
27.586489417658687
31
0.0
0
LINE
8
1
62
1
10
-11.075007375696297
20
27.586489417658687
30
0.0
11
-11.110464893821344
21
27.801036677196134
31
0.0
0
LINE
8
1
62
1
10
-11.110464893821344
20
27.801036677196134
30
0.0
11
-11.14298040398008
21
28.049833418430122
31
0.0
0
LINE
8
1
62
1
10
-11.14298040398008
20
28.049833418430122
30
0.0
11
-11.170268670627143
21
28.3328885642268
31
0.0
0
LINE
8
1
62
1
10
-11.170268670627143
20
28.3328885642268
30
0.0
11
-11.190041768555902
21
28.65009536016923
31
0.0
0
LINE
8
1
62
1
10
-11.190041768555902
20
28.65009536016923
30
0.0
11
-11.200014301810784
21
29.001231246451958
31
0.0
0
LINE
8
1
62
1
10
-11.200014301810784
20
29.001231246451958
30
0.0
11
-11.19790862670159
21
29.385957950717266
31
0.0
0
LINE
8
1
62
1
10
-11.19790862670159
20
29.385957950717266
30
0.0
11
-11.181460069937614
21
29.803821801913408
31
0.0
0
LINE
8
1
62
1
10
-11.181460069937614
20
29.803821801913408
30
0.0
11
-11.148422132900333
21
30.25425426489993
31
0.0
0
LINE
8
1
62
1
10
-11.148422132900333
20
30.25425426489993
30
0.0
11
-11.096571673088256
21
30.736572695170747
31
0.0
0
LINE
8
1
62
1
10
-11.096571673088256
20
30.736572695170747
30
0.0
11
-11.023714053795887
21
31.24998131271105
31
0.0
0
LINE
8
1
62
1
10
-11.023714053795887
20
31.24998131271105
30
0.0
11
-10.927688253130974
21
31.793572393651814
31
0.0
0
LINE
8
1
62
1
10
-10.927688253130974
20
31.793572393651814
30
0.0
11
-10.806371923530012
21
32.366327678034295
31
0.0
0
LINE
8
1
62
1
10
-10.806371923530012
20
32.366327678034295
30
0.0
11
-10.657686393001274
21
32.967119991648296
31
0.0
0
LINE
8
1
62
1
10
-10.657686393001274
20
32.967119991648296
30
0.0
11
-8.293604682478719
21
33.639759231689936
31
0.0
0
LINE
8
1
62
1
10
-8.293604682478719
20
33.639759231689936
30
0.0
11
-7.850913299492231
21
33.20722815706549
31
0.0
0
LINE
8
1
62
1
10
-7.850913299492231
20
33.20722815706549
30
0.0
11
-7.446251274064767
21
32.78412661748799
31
0.0
0
LINE
8
1
62
1
10
-7.446251274064767
20
32.78412661748799
30
0.0
11
-7.078444664406814
21
32.372507235578425
31
0.0
0
LINE
8
1
62
1
10
-7.078444664406814
20
32.372507235578425
30
0.0
11
-6.746225059044364
21
31.974353025420587
31
0.0
0
LINE
8
1
62
1
10
-6.746225059044364
20
31.974353025420587
30
0.0
11
-6.4482329751736
21
31.591573380831186
31
0.0
0
LINE
8
1
62
1
10
-6.4482329751736
20
31.591573380831186
30
0.0
11
-6.1830214192551765
21
31.226000214962692
31
0.0
0
LINE
8
1
62
1
10
-6.1830214192551765
20
31.226000214962692
30
0.0
11
-5.949059603462978
21
30.879384257587233
31
0.0
0
LINE
8
1
62
1
10
-5.949059603462978
20
30.879384257587233
30
0.0
11
-5.7447368113597985
21
30.55339151615014
31
0.0
0
LINE
8
1
62
1
10
-5.7447368113597985
20
30.55339151615014
30
0.0
11
-5.568366405940058
21
30.249599906412225
31
0.0
0
LINE
8
1
62
1
10
-5.568366405940058
20
30.249599906412225
30
0.0
11
-5.41818997295818
21
29.96949605822266
31
0.0
0
LINE
8
1
62
1
10
-5.41818997295818
20
29.96949605822266
30
0.0
11
-5.2923815922505595
21
29.714472301677695
31
0.0
0
LINE
8
1
62
1
10
-5.2923815922505595
20
29.714472301677695
30
0.0
11
-5.189052229559862
21
29.485823838626946
31
0.0
0
LINE
8
1
62
1
10
-5.189052229559862
20
29.485823838626946
30
0.0
11
-5.106254241182512
21
29.284746104187548
31
0.0
0
LINE
8
1
62
1
10
-5.106254241182512
20
29.284746104187548
30
0.0
11
-5.041985983584456
21
29.112332322617913
31
0.0
0
LINE
8
1
62
1
10
-5.041985983584456
20
29.112332322617913
30
0.0
11
-4.9941965199664065
21
28.969571261588392
31
0.0
0
LINE
8
1
62
1
10
-4.9941965199664065
20
28.969571261588392
30
0.0
11
-4.960790415608367
21
28.857345188564913
31
0.0
0
LINE
8
1
62
1
10
-4.960790415608367
20
28.857345188564913
30
0.0
11
-4.939632613684295
21
28.776428032695463
31
0.0
0
LINE
8
1
62
1
10
-4.939632613684295
20
28.776428032695463
30
0.0
11
-4.928553383111673
21
28.727483755257598
31
0.0
0
LINE
8
1
62
1
10
-4.928553383111673
20
28.727483755257598
30
0.0
11
-4.925353329887514
21
28.711064931388997
31
0.0
0
LINE
8
1
62
1
10
-4.925353329887514
20
28.711064931388997
30
0.0
11
-4.50148190674971
21
26.240216824224326
31
0.0
0
LINE
8
1
62
1
10
-4.50148190674971
20
26.240216824224326
30
0.0
11
-0.3967915658047095
21
26.620572397910728
31
0.0
0
LINE
8
1
62
1
10
-0.3967915658047095
20
26.620572397910728
30
0.0
11
-0.4341545074250081
21
29.12723579027628
31
0.0
0
LINE
8
1
62
1
10
-0.4341545074250081
20
29.12723579027628
30
0.0
11
-0.4340258921570743
21
29.14396306070449
31
0.0
0
LINE
8
1
62
1
10
-0.4340258921570743
20
29.14396306070449
30
0.0
11
-0.4321287939180801
21
29.194109772084875
31
0.0
0
LINE
8
1
62
1
10
-0.4321287939180801
20
29.194109772084875
30
0.0
11
-0.4261997321523758
21
29.27753689550908
31
0.0
0
LINE
8
1
62
1
10
-0.4261997321523758
20
29.27753689550908
30
0.0
11
-0.4139839170077018
21
29.39399046194224
31
0.0
0
LINE
8
1
62
1
10
-0.4139839170077018
20
29.39399046194224
30
0.0
11
-0.39324043594999347
21
29.543102035513122
31
0.0
0
LINE
8
1
62
1
10
-0.39324043594999347
20
29.543102035513122
30
0.0
11
-0.36174741679590083
21
29.724389406155403
31
0.0
0
LINE
8
1
62
1
10
-0.36174741679590083
20
29.724389406155403
30
0.0
11
-0.31730715825991274
21
29.937257500495235
31
0.0
0
LINE
8
1
62
1
10
-0.31730715825991274
20
29.937257500495235
30
0.0
11
-0.25775121916254995
21
30.180999509528895
31
0.0
0
LINE
8
1
62
1
10
-0.25775121916254995
20
30.180999509528895
30
0.0
11
-0.18094545750907687
21
30.454798231285245
31
0.0
0
LINE
8
1
62
1
10
-0.18094545750907687
20
30.454798231285245
30
0.0
11
-0.08479501072480677
21
30.757727626321362
31
0.0
0
LINE
8
1
62
1
10
-0.08479501072480677
20
30.757727626321362
30
0.0
11
0.03275079157708105
21
31.088754583556394
31
0.0
0
LINE
8
1
62
1
10
0.03275079157708105
20
31.088754583556394
30
0.0
11
0.17369359081604518
21
31.446740893609164
31
0.0
0
LINE
8
1
62
1
10
0.17369359081604518
20
31.446740893609164
30
0.0
11
0.3399812470577072
21
31.830445426469723
31
0.0
0
LINE
8
1
62
1
10
0.3399812470577072
20
31.830445426469723
30
0.0
11
0.5335031792958173
21
32.23852651000413
31
0.0
0
LINE
8
1
62
1
10
0.5335031792958173
20
32.23852651000413
30
0.0
11
0.756085806536227
21
32.669544505466476
31
0.0
0
LINE
8
1
62
1
10
0.756085806536227
20
32.669544505466476
30
0.0
11
1.0094880976619771
21
33.12196457587209
31
0.0
0
LINE
8
1
62
1
10
1.0094880976619771
20
33.12196457587209
30
0.0
11
1.2953972378918444
21
33.5941596427721
31
0.0
0
LINE
8
1
62
1
10
1.2953972378918444
20
33.5941596427721
30
0.0
11
1.6154244194658327
21
34.084413526662594
31
0.0
0
LINE
8
1
62
1
10
1.6154244194658327
20
34.084413526662594
30
0.0
11
1.9711007640004878
21
34.59092426596112
31
0.0
0
LINE
8
1
62
1
10
1.9711007640004878
20
34.59092426596112
30
0.0
11
4.41852662692102
21
34.36413686159586
31
0.0
0
LINE
8
1
62
1
10
4.41852662692102
20
34.36413686159586
30
0.0
11
4.675075801677472
21
33.8008950733574
31
0.0
0
LINE
8
1
62
1
10
4.675075801677472
20
33.8008950733574
30
0.0
11
4.8995699975597775
21
33.260183853175064
31
0.0
0
LINE
8
1
62
1
10
4.8995699975597775
20
33.260183853175064
30
0.0
11
5.093845375501249
21
32.74349313795233
31
0.0
0
LINE
8
1
62
1
10
5.093845375501249
20
32.74349313795233
30
0.0
11
5.2598010412885605
21
32.252213830178555
31
0.0
0
LINE
8
1
62
1
10
5.2598010412885605
20
32.252213830178555
30
0.0
11
5.39939442748638
21
31.787635284729607
31
0.0
0
LINE
8
1
62
1
10
5.39939442748638
20
31.787635284729607
30
0.0
11
5.514636578745782
21
31.350942995389747
31
0.0
0
LINE
8
1
62
1
10
5.514636578745782
20
31.350942995389747
30
0.0
11
5.6075873487436585
21
30.943216484707783
31
0.0
0
LINE
8
1
62
1
10
5.6075873487436585
20
30.943216484707783
30
0.0
11
5.680350517132579
21
30.565427400470934
31
0.0
0
LINE
8
1
62
1
10
5.680350517132579
20
30.565427400470934
30
0.0
11
5.735068834999874
21
30.218437821744352
31
0.0
0
LINE
8
1
62
1
10
5.735068834999874
20
30.218437821744352
30
0.0
11
5.773919007441047
21
29.902998777085873
31
0.0
0
LINE
8
1
62
1
10
5.773919007441047
20
29.902998777085873
30
0.0
11
5.799106621945623
21
29.619748977202185
31
0.0
0
LINE
8
1
62
1
10
5.799106621945623
20
29.619748977202185
30
0.0
11
5.812861031373165
21
29.369213763966933
31
0.0
0
LINE
8
1
62
1
10
5.812861031373165
20
29.369213763966933
30
0.0
11
5.817430200363563
21
29.151804277372268
31
0.0
0
LINE
8
1
62
1
10
5.817430200363563
20
29.151804277372268
30
0.0
11
5.815075524078113
21
28.96781684163433
31
0.0
0
LINE
8
1
62
1
10
5.815075524078113
20
28.96781684163433
30
0.0
11
5.808066628207123
21
28.817432571320428
31
0.0
0
LINE
8
1
62
1
10
5.808066628207123
20
28.817432571320428
30
0.0
11
5.798676159204936
21
28.700717198011805
31
0.0
0
LINE
8
1
62
1
10
5.798676159204936
20
28.700717198011805
30
0.0
11
5.789174573724966
21
28.617621117661255
31
0.0
0
LINE
8
1
62
1
10
5.789174573724966
20
28.617621117661255
30
0.0
11
5.781824936225123
21
28.567979658450053
31
0.0
0
LINE
8
1
62
1
10
5.781824936225123
20
28.567979658450053
30
0.0
11
5.778877733698139
21
28.55151356859452
31
0.0
0
LINE
8
1
62
1
10
5.778877733698139
20
28.55151356859452
30
0.0
11
5.281552777484705
21
26.094396306443727
31
0.0
0
LINE
8
1
62
1
10
5.281552777484705
20
26.094396306443727
30
0.0
11
9.246462811902216
21
24.966282138260187
31
0.0
0
LINE
8
1
62
1
10
9.246462811902216
20
24.966282138260187
30
0.0
11
10.117134166860902
21
27.31717319139015
31
0.0
0
LINE
8
1
62
1
10
10.117134166860902
20
27.31717319139015
30
0.0
11
10.123296684066776
21
27.332724445344507
31
0.0
0
LINE
8
1
62
1
10
10.123296684066776
20
27.332724445344507
30
0.0
11
10.143180757063949
21
27.3787995501739
31
0.0
0
LINE
8
1
62
1
10
10.143180757063949
20
27.3787995501739
30
0.0
11
10.17884679557785
21
27.45445120179489
31
0.0
0
LINE
8
1
62
1
10
10.17884679557785
20
27.45445120179489
30
0.0
11
10.232305584331549
21
27.55862805709221
31
0.0
0
LINE
8
1
62
1
10
10.232305584331549
20
27.55862805709221
30
0.0
11
10.30551361764357
21
27.690177048870034
31
0.0
0
LINE
8
1
62
1
10
10.30551361764357
20
27.690177048870034
30
0.0
11
10.400368535254366
21
27.847845896823205
31
0.0
0
LINE
8
1
62
1
10
10.400368535254366
20
27.847845896823205
30
0.0
11
10.518704667284128
21
28.030285810282
31
0.0
0
LINE
8
1
62
1
10
10.518704667284128
20
28.030285810282
30
0.0
11
10.66228869605164
21
28.236054378174238
31
0.0
0
LINE
8
1
62
1
10
10.66228869605164
20
28.236054378174238
30
0.0
11
10.83281544229893
21
28.46361864134597
31
0.0
0
LINE
8
1
62
1
10
10.83281544229893
20
28.46361864134597
30
0.0
11
11.031903783169996
21
28.711358342086424
31
0.0
0
LINE
8
1
62
1
10
11.031903783169996
20
28.711358342086424
30
0.0
11
11.261092709084007
21
28.97756934541547
31
0.0
0
LINE
8
1
62
1
10
11.261092709084007
20
28.97756934541547
30
0.0
11
11.521837526424505
21
29.26046722641245
31
0.0
0
LINE
8
1
62
1
10
11.521837526424505
20
29.26046722641245
30
0.0
11
11.815506212736707
21
29.558191017594403
31
0.0
0
LINE
8
1
62
1
10
11.815506212736707
20
29.558191017594403
30
0.0
11
12.143375930884844
21
29.868807110090025
31
0.0
0
LINE
8
1
62
1
10
12.143375930884844
20
29.868807110090025
30
0.0
11
12.506629708371852
21
30.190313302103558
31
0.0
0
LINE
8
1
62
1
10
12.506629708371852
20
30.190313302103558
30
0.0
11
12.906353287763883
21
30.520642987920045
31
0.0
0
LINE
8
1
62
1
10
12.906353287763883
20
30.520642987920045
30
0.0
11
13.343532153893424
21
30.857669480471262
31
0.0
0
LINE
8
1
62
1
10
13.343532153893424
20
30.857669480471262
30
0.0
11
13.819048743237039
21
31.199210460259813
31
0.0
0
LINE
8
1
62
1
10
13.819048743237039
20
31.199210460259813
30
0.0
11
14.333679840577545
21
31.543032543227703
31
0.0
0
LINE
8
1
62
1
10
14.333679840577545
20
31.543032543227703
30
0.0
11
16.53391143145377
21
30.447447390087458
31
0.0
0
LINE
8
1
62
1
10
16.53391143145377
20
30.447447390087458
30
0.0
11
16.569670010341273
21
29.829563812767088
31
0.0
0
LINE
8
1
62
1
10
16.569670010341273
20
29.829563812767088
30
0.0
11
16.583677191559232
21
29.24426895844985
31
0.0
0
LINE
8
1
62
1
10
16.583677191559232
20
29.24426895844985
30
0.0
11
16.578183371476197
21
28.692288854086858
31
0.0
0
LINE
8
1
62
1
10
16.578183371476197
20
28.692288854086858
30
0.0
11
16.555461865431706
21
28.174234441484604
31
0.0
0
LINE
8
1
62
1
10
16.555461865431706
20
28.174234441484604
30
0.0
11
16.517803693636907
21
27.69060090205759
31
0.0
0
LINE
8
1
62
1
10
16.517803693636907
20
27.69060090205759
30
0.0
11
16.467512349130907
21
27.24176720271722
31
0.0
0
LINE
8
1
62
1
10
16.467512349130907
20
27.24176720271722
30
0.0
11
16.406898556788253
21
26.82799586328694
31
0.0
0
LINE
8
1
62
1
10
16.406898556788253
20
26.82799586328694
30
0.0
11
16.338275032377354
21
26.449432945478105
31
0.0
0
LINE
8
1
62
1
10
16.338275032377354
20
26.449432945478105
30
0.0
11
16.263951250659556
21
26.106108263105508
31
0.0
0
LINE
8
1
62
1
10
16.263951250659556
20
26.106108263105508
30
0.0
11
16.186228231495612
21
25.797935812867326
31
0.0
0
LINE
8
1
62
1
10
16.186228231495612
20
25.797935812867326
30
0.0
11
16.10739335288891
21
25.524714424660537
31
0.0
0
LINE
8
1
62
1
10
16.10739335288891
20
25.524714424660537
30
0.0
11
16.029715199844293
21
25.28612863005174
31
0.0
0
LINE
8
1
62
1
10
16.029715199844293
20
25.28612863005174
30
0.0
11
15.955438457856946
21
25.081749747173976
31
0.0
0
LINE
8
1
62
1
10
15.955438457856946
20
25.081749747173976
30
0.0
11
15.88677885976805
21
24.911037179973718
31
0.0
0
LINE
8
1
62
1
10
15.88677885976805
20
24.911037179973718
30
0.0
11
15.825918194633033
21
24.773339929389333
31
0.0
0
LINE
8
1
62
1
10
15.825918194633033
20
24.773339929389333
30
0.0
11
15.77499938714375
21
24.667898313703112
31
0.0
0
LINE
8
1
62
1
10
15.77499938714375
20
24.667898313703112
30
0.0
11
15.73612165602891
21
24.59384589497407
31
0.0
0
LINE
8
1
62
1
10
15.73612165602891
20
24.59384589497407
30
0.0
11
15.711335759726703
21
24.550211608128834
31
0.0
0
LINE
8
1
62
1
10
15.711335759726703
20
24.550211608128834
30
0.0
11
15.702639337480859
21
24.535922088963108
31
0.0
0
LINE
8
1
62
1
10
15.702639337480859
20
24.535922088963108
30
0.0
11
14.35128449302553
21
22.424382973436426
31
0.0
0
LINE
8
1
62
1
10
14.35128449302553
20
22.424382973436426
30
0.0
11
17.64093115044259
21
19.940157132892526
31
0.0
0
LINE
8
1
62
1
10
17.64093115044259
20
19.940157132892526
30
0.0
11
19.302047810936564
21
21.81777498332467
31
0.0
0
LINE
8
1
62
1
10
19.302047810936564
20
21.81777498332467
30
0.0
11
19.31341194798404
21
21.830049937786168
31
0.0
0
LINE
8
1
62
1
10
19.31341194798404
20
21.830049937786168
30
0.0
11
19.34859754149967
21
21.865830737846384
31
0.0
0
LINE
8
1
62
1
10
19.34859754149967
20
21.865830737846384
30
0.0
11
19.409183660628127
21
21.923489742912473
31
0.0
0
LINE
8
1
62
1
10
19.409183660628127
20
21.923489742912473
30
0.0
11
19.496665517344287
21
22.00132022550217
31
0.0
0
LINE
8
1
62
1
10
19.496665517344287
20
22.00132022550217
30
0.0
11
19.61245095235212
21
22.09754021520921
31
0.0
0
LINE
8
1
62
1
10
19.61245095235212
20
22.09754021520921
30
0.0
11
19.757857086187038
21
22.210296488883955
31
0.0
0
LINE
8
1
62
1
10
19.757857086187038
20
22.210296488883955
30
0.0
11
19.93410714135681
21
22.33766870021464
31
0.0
0
LINE
8
1
62
1
10
19.93410714135681
20
22.33766870021464
30
0.0
11
20.142327441082852
21
22.47767364166862
31
0.0
0
LINE
8
1
62
1
10
20.142327441082852
20
22.47767364166862
30
0.0
11
20.383544589921936
21
22.628269631537275
31
0.0
0
LINE
8
1
62
1
10
20.383544589921936
20
22.628269631537275
30
0.0
11
20.65868284125858
21
22.787361018623994
31
0.0
0
LINE
8
1
62
1
10
20.65868284125858
20
22.787361018623994
30
0.0
11
20.96856165636035
21
22.952802796921386
31
0.0
0
LINE
8
1
62
1
10
20.96856165636035
20
22.952802796921386
30
0.0
11
21.313893459383642
21
23.12240532244266
31
0.0
0
LINE
8
1
62
1
10
21.313893459383642
20
23.12240532244266
30
0.0
11
21.69528159240555
21
23.2939391242024
31
0.0
0
LINE
8
1
62
1
10
21.69528159240555
20
23.2939391242024
30
0.0
11
22.11321847423898
21
23.46513980118451
31
0.0
0
LINE
8
1
62
1
10
22.11321847423898
20
23.46513980118451
30
0.0
11
22.568083966464304
21
23.633712996990496
31
0.0
0
LINE
8
1
62
1
10
22.568083966464304
20
23.633712996990496
30
0.0
11
23.060143949780905
21
23.797339443728365
31
0.0
0
LINE
8
1
62
1
10
23.060143949780905
20
23.797339443728365
30
0.0
11
23.589549113447603
21
23.953680066583487
31
0.0
0
LINE
8
1
62
1
10
23.589549113447603
20
23.953680066583487
30
0.0
11
24.156333960241604
21
24.10038114040574
31
0.0
0
LINE
8
1
62
1
10
24.156333960241604
20
24.10038114040574
30
0.0
11
24.760416029022778
21
24.235079489554252
31
0.0
0
LINE
8
1
62
1
10
24.760416029022778
20
24.235079489554252
30
0.0
11
26.416299879602732
21
22.418661433417515
31
0.0
0
LINE
8
1
62
1
10
26.416299879602732
20
22.418661433417515
30
0.0
11
26.226438468397404
21
21.829584667943447
31
0.0
0
LINE
8
1
62
1
10
26.226438468397404
20
21.829584667943447
30
0.0
11
26.028066887511063
21
21.2787534927976
31
0.0
0
LINE
8
1
62
1
10
26.028066887511063
20
21.2787534927976
30
0.0
11
25.82354584024804
21
20.766031971015913
31
0.0
0
LINE
8
1
62
1
10
25.82354584024804
20
20.766031971015913
30
0.0
11
25.61521582766726
21
20.29116857264572
31
0.0
0
LINE
8
1
62
1
10
25.61521582766726
20
20.29116857264572
30
0.0
11
25.405392042651872
21
19.853797428646207
31
0.0
0
LINE
8
1
62
1
10
25.405392042651872
20
19.853797428646207
30
0.0
11
25.196359327129958
21
19.453439797474626
31
0.0
0
LINE
8
1
62
1
10
25.196359327129958
20
19.453439797474626
30
0.0
11
24.990367200975264
21
19.08950574147223
31
0.0
0
LINE
8
1
62
1
10
24.990367200975264
20
19.08950574147223
30
0.0
11
24.789624970992318
21
18.761296009831035
31
0.0
0
LINE
8
1
62
1
10
24.789624970992318
20
18.761296009831035
30
0.0
11
24.596296928252713
21
18.468004124594586
31
0.0
0
LINE
8
1
62
1
10
24.596296928252713
20
18.468004124594586
30
0.0
11
24.41249764189985
21
18.208718665823866
31
0.0
0
LINE
8
1
62
1
10
24.41249764189985
20
18.208718665823866
30
0.0
11
24.24028735737685
21
17.98242575174327
31
0.0
0
LINE
8
1
62
1
10
24.24028735737685
20
17.98242575174327
30
0.0
11
24.081667506858256
21
17.788011709372373
31
0.0
0
LINE
8
1
62
1
10
24.081667506858256
20
17.788011709372373
30
0.0
11
23.93857633948019
21
17.624265930846637
31
0.0
0
LINE
8
1
62
1
10
23.93857633948019
20
17.624265930846637
30
0.0
11
23.812884678765723
21
17.489883910335443
31
0.0
0
LINE
8
1
62
1
10
23.812884678765723
20
17.489883910335443
30
0.0
11
23.706391814433747
21
17.383470456178806
31
0.0
0
LINE
8
1
62
1
10
23.706391814433747
20
17.383470456178806
30
0.0
11
23.62082153555965
21
17.30354307258557
31
0.0
0
LINE
8
1
62
1
10
23.62082153555965
20
17.30354307258557
30
0.0
11
23.557818311825944
21
17.248535504966014
31
0.0
0
LINE
8
1
62
1
10
23.557818311825944
20
17.248535504966014
30
0.0
11
23.518943629360376
21
17.21680144271112
31
0.0
0
LINE
8
1
62
1
10
23.518943629360376
20
17.21680144271112
30
0.0
11
23.505672487408514
21
17.206618372979495
31
0.0
0
LINE
8
1
62
1
10
23.505672487408514
20
17.206618372979495
30
0.0
11
21.48279571457067
21
15.725832462070953
31
0.0
0
LINE
8
1
62
1
10
21.48279571457067
20
15.725832462070953
30
0.0
11
23.652893985341695
21
12.221003414502713
31
0.0
0
LINE
8
1
62
1
10
23.652893985341695
20
12.221003414502713
30
0.0
11
25.880112941806082
21
13.371765367296508
31
0.0
0
LINE
8
1
62
1
10
25.880112941806082
20
13.371765367296508
30
0.0
11
25.89514390901604
21
13.379106221647245
31
0.0
0
LINE
8
1
62
1
10
25.89514390901604
20
13.379106221647245
30
0.0
11
25.940879013675733
21
13.399760321621898
31
0.0
0
LINE
8
1
62
1
10
25.940879013675733
20
13.399760321621898
30
0.0
11
26.018202722311173
21
13.431639511999334
31
0.0
0
LINE
8
1
62
1
10
26.018202722311173
20
13.431639511999334
30
0.0
11
26.127892737486576
21
13.472612183934073
31
0.0
0
LINE
8
1
62
1
10
26.127892737486576
20
13.472612183934073
30
0.0
11
26.270618109603163
21
13.52050812878703
31
0.0
0
LINE
8
1
62
1
10
26.270618109603163
20
13.52050812878703
30
0.0
11
26.446937555564595
21
13.573123468619487
31
0.0
0
LINE
8
1
62
1
10
26.446937555564595
20
13.573123468619487
30
0.0
11
26.657297987288437
21
13.628225654888062
31
0.0
0
LINE
8
1
62
1
10
26.657297987288437
20
13.628225654888062
30
0.0
11
26.902033252706488
21
13.683558526766262
31
0.0
0
LINE
8
1
62
1
10
26.902033252706488
20
13.683558526766262
30
0.0
11
27.181363091556292
21
13.736847420418899
31
0.0
0
LINE
8
1
62
1
10
27.181363091556292
20
13.736847420418899
30
0.0
11
27.495392307921822
21
13.785804320470012
31
0.0
0
LINE
8
1
62
1
10
27.495392307921822
20
13.785804320470012
30
0.0
11
27.84411016113406
21
13.828133044832136
31
0.0
0
LINE
8
1
62
1
10
27.84411016113406
20
13.828133044832136
30
0.0
11
28.22738997629227
21
13.86153445400602
31
0.0
0
LINE
8
1
62
1
10
28.22738997629227
20
13.86153445400602
30
0.0
11
28.64498897531468
21
13.883711675914286
31
0.0
0
LINE
8
1
62
1
10
28.64498897531468
20
13.883711675914286
30
0.0
11
29.096548329073592
21
13.892375337300763
31
0.0
0
LINE
8
1
62
1
10
29.096548329073592
20
13.892375337300763
30
0.0
11
29.581593430815495
21
13.88524879270927
31
0.0
0
LINE
8
1
62
1
10
29.581593430815495
20
13.88524879270927
30
0.0
11
30.09953439071127
21
13.86007334205113
31
0.0
0
LINE
8
1
62
1
10
30.09953439071127
20
13.86007334205113
30
0.0
11
30.649666751026647
21
13.81461342778027
31
0.0
0
LINE
8
1
62
1
10
30.649666751026647
20
13.81461342778027
30
0.0
11
31.231172421048257
21
13.746661802717826
31
0.0
0
LINE
8
1
62
1
10
31.231172421048257
20
13.746661802717826
30
0.0
11
31.843120830546898
21
13.65404465960513
31
0.0
0
LINE
8
1
62
1
10
31.843120830546898
20
13.65404465960513
30
0.0
11
32.731020651240584
21
11.362111024073082
31
0.0
0
LINE
8
1
62
1
10
32.731020651240584
20
11.362111024073082
30
0.0
11
32.34118108558411
21
10.881399151809624
31
0.0
0
LINE
8
1
62
1
10
32.34118108558411
20
10.881399151809624
30
0.0
11
31.95722192380704
21
10.439424458299513
31
0.0
0
LINE
8
1
62
1
10
31.95722192380704
20
10.439424458299513
30
0.0
11
31.58129535008715
21
10.03520740170379
31
0.0
0
LINE
8
1
62
1
10
31.58129535008715
20
10.03520740170379
30
0.0
11
31.215492953565573
21
9.667667950824477
31
0.0
0
LINE
8
1
62
1
10
31.215492953565573
20
9.667667950824477
30
0.0
11
30.861841420169647
21
9.335628598806773
31
0.0
0
LINE
8
1
62
1
10
30.861841420169647
20
9.335628598806773
30
0.0
11
30.522298360153314
21
9.037817552351926
31
0.0
0
LINE
8
1
62
1
10
30.522298360153314
20
9.037817552351926
30
0.0
11
30.19874827826555
21
8.772872090668756
31
0.0
0
LINE
8
1
62
1
10
30.19874827826555
20
8.772872090668756
30
0.0
11
29.892998693220846
21
8.539342088126247
31
0.0
0
LINE
8
1
62
1
10
29.892998693220846
20
8.539342088126247
30
0.0
11
29.606776412899077
21
8.335693694313568
31
0.0
0
LINE
8
1
62
1
10
29.606776412899077
20
8.335693694313568
30
0.0
11
29.34172397144626
21
8.160313164967622
31
0.0
0
LINE
8
1
62
1
10
29.34172397144626
20
8.160313164967622
30
0.0
11
29.09939623418192
21
8.011510836992136
31
0.0
0
LINE
8
1
62
1
10
29.09939623418192
20
8.011510836992136
30
0.0
11
28.881257175944818
21
7.887525240566727
31
0.0
0
LINE
8
1
62
1
10
28.881257175944818
20
7.887525240566727
30
0.0
11
28.688676838225973
21
7.786527341129599
31
0.0
0
LINE
8
1
62
1
10
28.688676838225973
20
7.786527341129599
30
0.0
11
28.522928470146958
21
7.706624903813987
31
0.0
0
LINE
8
1
62
1
10
28.522928470146958
20
7.706624903813987
30
0.0
11
28.38518585804339
21
7.645866972726253
31
0.0
0
LINE
8
1
62
1
10
28.38518585804339
20
7.645866972726253
30
0.0
11
28.276520848107708
21
7.602248457273189
31
0.0
0
LINE
8
1
62
1
10
28.276520848107708
20
7.602248457273189
30
0.0
11
28.197901066233285
21
7.573714817577599
31
0.0
0
LINE
8
1
62
1
10
28.197901066233285
20
7.573714817577599
30
0.0
11
28.150187838883387
21
7.558166840865078
31
0.0
0
LINE
8
1
62
1
10
28.150187838883387
20
7.558166840865078
30
0.0
11
28.13413431848404
21
7.553465500561148
31
0.0
0
LINE
8
1
62
1
10
28.13413431848404
20
7.553465500561148
30
0.0
11
25.712936334582583
21
6.903421136856934
31
0.0
0
LINE
8
1
62
1
10
25.712936334582583
20
6.903421136856934
30
0.0
11
26.470402422310297
21
2.8513354660666645
31
0.0
0
ENDSEC
0
EOF
