999
VISION3D DXF
0
SECTION
2
HEADER
9
$ACADVER
1
AC1006
9
$INSBASE
10
0.0
20
0.0
30
0.0
9
$EXTMIN
10
-45.58823529411765
20
-45.58823529411765
9
$EXTMAX
10
45.58823529411765
20
45.58823529411765
9
$LINMIN
10
0.0
20
0.0
9
$LINMAX
10
1000.0
20
1000.0
0
ENDSEC
0
SECTION
2
TABLES
0
TABLE
2
LTYPE
70
1
0
LTYPE
2
CONTINUOUS
70
64
3
Solid line
72
65
73
0
40
0.000000
0
ENDTAB
0
TABLE
2
LAYER
70
6
0
LAYER
2
1
70
64
62
7
6
CONTINUOUS
0
ENDTAB
0
TABLE
2
STYLE
70
0
0
ENDTAB
0
ENDSEC
0
SECTION
2
BLOCKS
0
ENDSEC
0
SECTION
2
ENTITIES
0
LINE
8
1
62
1
10
33.78127363693448
20
3.0384755179984757
30
0.0
11
35.840015306715834
21
3.2236501869213963
31
0.0
0
LINE
8
1
62
1
10
35.840015306715834
20
3.2236501869213963
30
0.0
11
35.85783816958425
21
3.22487648901485
31
0.0
0
LINE
8
1
62
1
10
35.85783816958425
20
3.22487648901485
30
0.0
11
35.911388160810596
21
3.22705647390592
31
0.0
0
LINE
8
1
62
1
10
35.911388160810596
20
3.22705647390592
30
0.0
11
36.00070762665326
21
3.227938624504385
31
0.0
0
LINE
8
1
62
1
10
36.00070762665326
20
3.227938624504385
30
0.0
11
36.12573248376581
21
3.225270819689175
31
0.0
0
LINE
8
1
62
1
10
36.12573248376581
20
3.225270819689175
30
0.0
11
36.28629225839962
21
3.2168048055534855
31
0.0
0
LINE
8
1
62
1
10
36.28629225839962
20
3.2168048055534855
30
0.0
11
36.48211030167186
21
3.2003006624701276
31
0.0
0
LINE
8
1
62
1
10
36.48211030167186
20
3.2003006624701276
30
0.0
11
36.71280418063922
21
3.173531261322999
31
0.0
0
LINE
8
1
62
1
10
36.71280418063922
20
3.173531261322999
30
0.0
11
36.97788624467363
21
3.1342867022638656
31
0.0
0
LINE
8
1
62
1
10
36.97788624467363
20
3.1342867022638656
30
0.0
11
37.276764366392335
21
3.0803787293757416
31
0.0
0
LINE
8
1
62
1
10
37.276764366392335
20
3.0803787293757416
30
0.0
11
37.608742856151686
21
3.0096451146549836
31
0.0
0
LINE
8
1
62
1
10
37.608742856151686
20
3.0096451146549836
30
0.0
11
37.97302354887229
21
2.9199540047638357
31
0.0
0
LINE
8
1
62
1
10
37.97302354887229
20
2.9199540047638357
30
0.0
11
38.368707061723576
21
2.809208224053445
31
0.0
0
LINE
8
1
62
1
10
38.368707061723576
20
2.809208224053445
30
0.0
11
38.794794220956646
21
2.675349527414194
31
0.0
0
LINE
8
1
62
1
10
38.794794220956646
20
2.675349527414194
30
0.0
11
39.25018765593914
21
2.5163627965756947
31
0.0
0
LINE
8
1
62
1
10
39.25018765593914
20
2.5163627965756947
30
0.0
11
39.733693558211485
21
2.3302801735527523
31
0.0
0
LINE
8
1
62
1
10
39.733693558211485
20
2.3302801735527523
30
0.0
11
40.24402360315338
21
2.1151851250157288
31
0.0
0
LINE
8
1
62
1
10
40.24402360315338
20
2.1151851250157288
30
0.0
11
40.779797031621406
21
1.8692164314545605
31
0.0
0
LINE
8
1
62
1
10
40.779797031621406
20
1.8692164314545605
30
0.0
11
41.33954288869435
21
1.5905720951042
31
0.0
0
LINE
8
1
62
1
10
41.33954288869435
20
1.5905720951042
30
0.0
11
41.921702416441434
21
1.277513160706203
31
0.0
0
LINE
8
1
62
1
10
41.921702416441434
20
1.277513160706203
30
0.0
11
41.921702416441434
21
-1.277513160706203
31
0.0
0
LINE
8
1
62
1
10
41.921702416441434
20
-1.277513160706203
30
0.0
11
41.33954288869435
21
-1.5905720951042
31
0.0
0
LINE
8
1
62
1
10
41.33954288869435
20
-1.5905720951042
30
0.0
11
40.779797031621406
21
-1.8692164314545605
31
0.0
0
LINE
8
1
62
1
10
40.779797031621406
20
-1.8692164314545605
30
0.0
11
40.24402360315338
21
-2.1151851250157288
31
0.0
0
LINE
8
1
62
1
10
40.24402360315338
20
-2.1151851250157288
30
0.0
11
39.733693558211485
21
-2.3302801735527523
31
0.0
0
LINE
8
1
62
1
10
39.733693558211485
20
-2.3302801735527523
30
0.0
11
39.25018765593914
21
-2.5163627965756947
31
0.0
0
LINE
8
1
62
1
10
39.25018765593914
20
-2.5163627965756947
30
0.0
11
38.794794220956646
21
-2.675349527414194
31
0.0
0
LINE
8
1
62
1
10
38.794794220956646
20
-2.675349527414194
30
0.0
11
38.368707061723576
21
-2.809208224053445
31
0.0
0
LINE
8
1
62
1
10
38.368707061723576
20
-2.809208224053445
30
0.0
11
37.97302354887229
21
-2.9199540047638357
31
0.0
0
LINE
8
1
62
1
10
37.97302354887229
20
-2.9199540047638357
30
0.0
11
37.608742856151686
21
-3.0096451146549836
31
0.0
0
LINE
8
1
62
1
10
37.608742856151686
20
-3.0096451146549836
30
0.0
11
37.276764366392335
21
-3.0803787293757416
31
0.0
0
LINE
8
1
62
1
10
37.276764366392335
20
-3.0803787293757416
30
0.0
11
36.97788624467363
21
-3.1342867022638656
31
0.0
0
LINE
8
1
62
1
10
36.97788624467363
20
-3.1342867022638656
30
0.0
11
36.71280418063922
21
-3.173531261322999
31
0.0
0
LINE
8
1
62
1
10
36.71280418063922
20
-3.173531261322999
30
0.0
11
36.48211030167186
21
-3.2003006624701276
31
0.0
0
LINE
8
1
62
1
10
36.48211030167186
20
-3.2003006624701276
30
0.0
11
36.28629225839962
21
-3.2168048055534855
31
0.0
0
LINE
8
1
62
1
10
36.28629225839962
20
-3.2168048055534855
30
0.0
11
36.12573248376581
21
-3.225270819689175
31
0.0
0
LINE
8
1
62
1
10
36.12573248376581
20
-3.225270819689175
30
0.0
11
36.00070762665326
21
-3.227938624504385
31
0.0
0
LINE
8
1
62
1
10
36.00070762665326
20
-3.227938624504385
30
0.0
11
35.911388160810596
21
-3.22705647390592
31
0.0
0
LINE
8
1
62
1
10
35.911388160810596
20
-3.22705647390592
30
0.0
11
35.85783816958425
21
-3.22487648901485
31
0.0
0
LINE
8
1
62
1
10
35.85783816958425
20
-3.22487648901485
30
0.0
11
35.840015306715834
21
-3.2236501869213963
31
0.0
0
LINE
8
1
62
1
10
35.840015306715834
20
-3.2236501869213963
30
0.0
11
33.78127363693448
21
-3.0384755179984757
31
0.0
0
LINE
8
1
62
1
10
33.78127363693448
20
-3.0384755179984757
30
0.0
11
33.17607281352577
21
-7.053720626630802
31
0.0
0
LINE
8
1
62
1
10
33.17607281352577
20
-7.053720626630802
30
0.0
11
35.19793155914243
21
-7.4835975086310045
31
0.0
0
LINE
8
1
62
1
10
35.19793155914243
20
-7.4835975086310045
30
0.0
11
35.21532406110819
21
-7.487679068752103
31
0.0
0
LINE
8
1
62
1
10
35.21532406110819
20
-7.487679068752103
30
0.0
11
35.26713753830095
21
-7.501380071476796
31
0.0
0
LINE
8
1
62
1
10
35.26713753830095
20
-7.501380071476796
30
0.0
11
35.35274880934105
21
-7.526864487087038
31
0.0
0
LINE
8
1
62
1
10
35.35274880934105
20
-7.526864487087038
30
0.0
11
35.4714328135715
21
-7.566265492383506
31
0.0
0
LINE
8
1
62
1
10
35.4714328135715
20
-7.566265492383506
30
0.0
11
35.62236396644159
21
-7.6216812096405375
31
0.0
0
LINE
8
1
62
1
10
35.62236396644159
20
-7.6216812096405375
30
0.0
11
35.80461768190176
21
-7.695170501451307
31
0.0
0
LINE
8
1
62
1
10
35.80461768190176
20
-7.695170501451307
30
0.0
11
36.01717205960029
21
-7.788748827745236
31
0.0
0
LINE
8
1
62
1
10
36.01717205960029
20
-7.788748827745236
30
0.0
11
36.25890973444307
21
-7.904384171174876
31
0.0
0
LINE
8
1
62
1
10
36.25890973444307
20
-7.904384171174876
30
0.0
11
36.528619885851136
21
-8.043993036976627
31
0.0
0
LINE
8
1
62
1
10
36.528619885851136
20
-8.043993036976627
30
0.0
11
36.82500040382739
21
-8.209436533308422
31
0.0
0
LINE
8
1
62
1
10
36.82500040382739
20
-8.209436533308422
30
0.0
11
37.14666020872506
21
-8.402516537958565
31
0.0
0
LINE
8
1
62
1
10
37.14666020872506
20
-8.402516537958565
30
0.0
11
37.49212172139512
21
-8.62497195720297
31
0.0
0
LINE
8
1
62
1
10
37.49212172139512
20
-8.62497195720297
30
0.0
11
37.85982348017859
21
-8.878475082463407
31
0.0
0
LINE
8
1
62
1
10
37.85982348017859
20
-8.878475082463407
30
0.0
11
38.24812290100409
21
-9.164628050287364
31
0.0
0
LINE
8
1
62
1
10
38.24812290100409
20
-9.164628050287364
30
0.0
11
38.65529917664867
21
-9.484959411030427
31
0.0
0
LINE
8
1
62
1
10
38.65529917664867
20
-9.484959411030427
30
0.0
11
39.079556311024305
21
-9.840920811475629
31
0.0
0
LINE
8
1
62
1
10
39.079556311024305
20
-9.840920811475629
30
0.0
11
39.519026284160915
21
-10.233883796470248
31
0.0
0
LINE
8
1
62
1
10
39.519026284160915
20
-10.233883796470248
30
0.0
11
39.97177234337171
21
-10.665136734500294
31
0.0
0
LINE
8
1
62
1
10
39.97177234337171
20
-10.665136734500294
30
0.0
11
40.435792415906754
21
-11.13588187195547
31
0.0
0
LINE
8
1
62
1
10
40.435792415906754
20
-11.13588187195547
30
0.0
11
39.68268518691439
21
-13.577395542764968
31
0.0
0
LINE
8
1
62
1
10
39.68268518691439
20
-13.577395542764968
30
0.0
11
39.0341136327606
21
-13.704951613948019
31
0.0
0
LINE
8
1
62
1
10
39.0341136327606
20
-13.704951613948019
30
0.0
11
38.41710385363068
21
-13.806228576523436
31
0.0
0
LINE
8
1
62
1
10
38.41710385363068
20
-13.806228576523436
30
0.0
11
37.83263279015358
21
-13.883347580812408
31
0.0
0
LINE
8
1
62
1
10
37.83263279015358
20
-13.883347580812408
30
0.0
11
37.281574898685044
21
-13.938464138449667
31
0.0
0
LINE
8
1
62
1
10
37.281574898685044
20
-13.938464138449667
30
0.0
11
36.764700991032534
21
-13.973763766086758
31
0.0
0
LINE
8
1
62
1
10
36.764700991032534
20
-13.973763766086758
30
0.0
11
36.28267724705239
21
-13.991457591203021
31
0.0
0
LINE
8
1
62
1
10
36.28267724705239
20
-13.991457591203021
30
0.0
11
35.836064401320286
21
-13.993777926595477
31
0.0
0
LINE
8
1
62
1
10
35.836064401320286
20
-13.993777926595477
30
0.0
11
35.4253171048331
21
-13.98297382015588
31
0.0
0
LINE
8
1
62
1
10
35.4253171048331
20
-13.98297382015588
30
0.0
11
35.05078346245728
21
-13.96130658657125
31
0.0
0
LINE
8
1
62
1
10
35.05078346245728
20
-13.96130658657125
30
0.0
11
34.712704746593566
21
-13.931045327603679
31
0.0
0
LINE
8
1
62
1
10
34.712704746593566
20
-13.931045327603679
30
0.0
11
34.411215287283945
21
-13.894462447615822
31
0.0
0
LINE
8
1
62
1
10
34.411215287283945
20
-13.894462447615822
30
0.0
11
34.14634253874085
21
-13.853829171010133
31
0.0
0
LINE
8
1
62
1
10
34.14634253874085
20
-13.853829171010133
30
0.0
11
33.91800732203433
21
-13.81141106824296
31
0.0
0
LINE
8
1
62
1
10
33.91800732203433
20
-13.81141106824296
30
0.0
11
33.72602424342809
21
-13.769463597058708
31
0.0
0
LINE
8
1
62
1
10
33.72602424342809
20
-13.769463597058708
30
0.0
11
33.57010228761173
21
-13.730227665564609
31
0.0
0
LINE
8
1
62
1
10
33.57010228761173
20
-13.730227665564609
30
0.0
11
33.44984558483408
21
-13.695925223733262
31
0.0
0
LINE
8
1
62
1
10
33.44984558483408
20
-13.695925223733262
30
0.0
11
33.364754350701
21
-13.668754889878018
31
0.0
0
LINE
8
1
62
1
10
33.364754350701
20
-13.668754889878018
30
0.0
11
33.31422599716179
21
-13.650887618595462
31
0.0
0
LINE
8
1
62
1
10
33.31422599716179
20
-13.650887618595462
30
0.0
11
33.29755641297092
21
-13.644462416609999
31
0.0
0
LINE
8
1
62
1
10
33.29755641297092
20
-13.644462416609999
30
0.0
11
31.384860051023963
21
-12.860689778723405
31
0.0
0
LINE
8
1
62
1
10
31.384860051023963
20
-12.860689778723405
30
0.0
11
29.623032329837773
21
-16.51916273884082
31
0.0
0
LINE
8
1
62
1
10
29.623032329837773
20
-16.51916273884082
30
0.0
11
31.42835712896075
21
-17.525894724314803
31
0.0
0
LINE
8
1
62
1
10
31.42835712896075
20
-17.525894724314803
30
0.0
11
31.443773869898443
21
-17.534921482122062
31
0.0
0
LINE
8
1
62
1
10
31.443773869898443
20
-17.534921482122062
30
0.0
11
31.489246978229342
21
-17.56328607824457
31
0.0
0
LINE
8
1
62
1
10
31.489246978229342
20
-17.56328607824457
30
0.0
11
31.563543117336096
21
-17.61287265790003
31
0.0
0
LINE
8
1
62
1
10
31.563543117336096
20
-17.61287265790003
30
0.0
11
31.665340674072393
21
-17.685505911448704
31
0.0
0
LINE
8
1
62
1
10
31.665340674072393
20
-17.685505911448704
30
0.0
11
31.793232309895803
21
-17.782947402160918
31
0.0
0
LINE
8
1
62
1
10
31.793232309895803
20
-17.782947402160918
30
0.0
11
31.94572765511801
21
-17.90689199661927
31
0.0
0
LINE
8
1
62
1
10
31.94572765511801
20
-17.90689199661927
30
0.0
11
32.12125614230967
21
-18.058964403107062
31
0.0
0
LINE
8
1
62
1
10
32.12125614230967
20
-18.058964403107062
30
0.0
11
32.31816997470274
21
-18.24071582318614
31
0.0
0
LINE
8
1
62
1
10
32.31816997470274
20
-18.24071582318614
30
0.0
11
32.53474722524405
21
-18.453620721511616
31
0.0
0
LINE
8
1
62
1
10
32.53474722524405
20
-18.453620721511616
30
0.0
11
32.76919506177054
21
-18.699073718768542
31
0.0
0
LINE
8
1
62
1
10
32.76919506177054
20
-18.699073718768542
30
0.0
11
33.01965309359932
21
-18.97838661244687
31
0.0
0
LINE
8
1
62
1
10
33.01965309359932
20
-18.97838661244687
30
0.0
11
33.28419683465453
21
-19.292785529995896
31
0.0
0
LINE
8
1
62
1
10
33.28419683465453
20
-19.292785529995896
30
0.0
11
33.560841278087906
21
-19.643408218717983
31
0.0
0
LINE
8
1
62
1
10
33.560841278087906
20
-19.643408218717983
30
0.0
11
33.8475445771921
21
-20.031301476574626
31
0.0
0
LINE
8
1
62
1
10
33.8475445771921
20
-20.031301476574626
30
0.0
11
34.14221182725424
21
-20.45741872788477
31
0.0
0
LINE
8
1
62
1
10
34.14221182725424
20
-20.45741872788477
30
0.0
11
34.44269894285259
21
-20.922617747697718
31
0.0
0
LINE
8
1
62
1
10
34.44269894285259
20
-20.922617747697718
30
0.0
11
34.74681662496238
21
-21.42765853841936
31
0.0
0
LINE
8
1
62
1
10
34.74681662496238
20
-21.42765853841936
30
0.0
11
35.052334412106795
21
-21.973201362062774
31
0.0
0
LINE
8
1
62
1
10
35.052334412106795
20
-21.973201362062774
30
0.0
11
35.35698480966651
21
-22.559804931281228
31
0.0
0
LINE
8
1
62
1
10
35.35698480966651
20
-22.559804931281228
30
0.0
11
33.91768723393439
21
-24.670866747430114
31
0.0
0
LINE
8
1
62
1
10
33.91768723393439
20
-24.670866747430114
30
0.0
11
33.26033208216984
21
-24.60158603870301
31
0.0
0
LINE
8
1
62
1
10
33.26033208216984
20
-24.60158603870301
30
0.0
11
32.640882407561456
21
-24.516496724932026
31
0.0
0
LINE
8
1
62
1
10
32.640882407561456
20
-24.516496724932026
30
0.0
11
32.059646527974245
21
-24.417913677986558
31
0.0
0
LINE
8
1
62
1
10
32.059646527974245
20
-24.417913677986558
30
0.0
11
31.51682470191375
21
-24.30815439670295
31
0.0
0
LINE
8
1
62
1
10
31.51682470191375
20
-24.30815439670295
30
0.0
11
31.012509303839785
21
-24.18953450212877
31
0.0
0
LINE
8
1
62
1
10
31.012509303839785
20
-24.18953450212877
30
0.0
11
30.546685175841006
21
-24.064363247513143
31
0.0
0
LINE
8
1
62
1
10
30.546685175841006
20
-24.064363247513143
30
0.0
11
30.119230154881347
21
-23.93493904967656
31
0.0
0
LINE
8
1
62
1
10
30.119230154881347
20
-23.93493904967656
30
0.0
11
29.729915774585976
21
-23.803545048357176
31
0.0
0
LINE
8
1
62
1
10
29.729915774585976
20
-23.803545048357176
30
0.0
11
29.37840814029385
21
-23.67244470008585
31
0.0
0
LINE
8
1
62
1
10
29.37840814029385
20
-23.67244470008585
30
0.0
11
29.064268975864266
21
-23.543877413088563
31
0.0
0
LINE
8
1
62
1
10
29.064268975864266
20
-23.543877413088563
30
0.0
11
28.7869568404881
21
-23.420054229652976
31
0.0
0
LINE
8
1
62
1
10
28.7869568404881
20
-23.420054229652976
30
0.0
11
28.545828513519286
21
-23.303153562325075
31
0.0
0
LINE
8
1
62
1
10
28.545828513519286
20
-23.303153562325075
30
0.0
11
28.34014054511056
21
-23.195316990223237
31
0.0
0
LINE
8
1
62
1
10
28.34014054511056
20
-23.195316990223237
30
0.0
11
28.169050970208346
21
-23.098645121669545
31
0.0
0
LINE
8
1
62
1
10
28.169050970208346
20
-23.098645121669545
30
0.0
11
28.031621183235966
21
-23.015193529242957
31
0.0
0
LINE
8
1
62
1
10
28.031621183235966
20
-23.015193529242957
30
0.0
11
27.926817970572856
21
-22.946968763255555
31
0.0
0
LINE
8
1
62
1
10
27.926817970572856
20
-22.946968763255555
30
0.0
11
27.8535156977188
21
-22.895924449541617
31
0.0
0
LINE
8
1
62
1
10
27.8535156977188
20
-22.895924449541617
30
0.0
11
27.81049864781873
21
-22.86395747733026
31
0.0
0
LINE
8
1
62
1
10
27.81049864781873
20
-22.86395747733026
30
0.0
11
27.796463508014014
21
-22.852904282845728
31
0.0
0
LINE
8
1
62
1
10
27.796463508014014
20
-22.852904282845728
30
0.0
11
26.19976391939018
21
-21.540175314401253
31
0.0
0
LINE
8
1
62
1
10
26.19976391939018
20
-21.540175314401253
30
0.0
11
23.437855425107504
21
-24.516804748553174
31
0.0
0
LINE
8
1
62
1
10
23.437855425107504
20
-24.516804748553174
30
0.0
11
24.866235246797327
21
-26.010939282621024
31
0.0
0
LINE
8
1
62
1
10
24.866235246797327
20
-26.010939282621024
30
0.0
11
24.878306381619392
21
-26.024109171069995
31
0.0
0
LINE
8
1
62
1
10
24.878306381619392
20
-26.024109171069995
30
0.0
11
24.913398635857785
21
-26.06461704174885
31
0.0
0
LINE
8
1
62
1
10
24.913398635857785
20
-26.06461704174885
30
0.0
11
24.969778105028315
21
-26.13389980024003
31
0.0
0
LINE
8
1
62
1
10
24.969778105028315
20
-26.13389980024003
30
0.0
11
25.04564405462322
21
-26.23331151871732
31
0.0
0
LINE
8
1
62
1
10
25.04564405462322
20
-26.23331151871732
30
0.0
11
25.13913244031384
21
-26.36412067882
31
0.0
0
LINE
8
1
62
1
10
25.13913244031384
20
-26.36412067882
30
0.0
11
25.248319534660286
21
-26.527507554786414
31
0.0
0
LINE
8
1
62
1
10
25.248319534660286
20
-26.527507554786414
30
0.0
11
25.371225654964025
21
-26.72456174079286
31
0.0
0
LINE
8
1
62
1
10
25.371225654964025
20
-26.72456174079286
30
0.0
11
25.505818986757134
21
-26.956279826244383
31
0.0
0
LINE
8
1
62
1
10
25.505818986757134
20
-26.956279826244383
30
0.0
11
25.65001949728748
21
-27.22356322255961
31
0.0
0
LINE
8
1
62
1
10
25.65001949728748
20
-27.22356322255961
30
0.0
11
25.801702933231443
21
-27.52721614478265
31
0.0
0
LINE
8
1
62
1
10
25.801702933231443
20
-27.52721614478265
30
0.0
11
25.958704896746372
21
-27.867943751141404
31
0.0
0
LINE
8
1
62
1
10
25.958704896746372
20
-27.867943751141404
30
0.0
11
26.118824993862905
21
-28.246350443453895
31
0.0
0
LINE
8
1
62
1
10
26.118824993862905
20
-28.246350443453895
30
0.0
11
26.27983104911298
21
-28.66293833106235
31
0.0
0
LINE
8
1
62
1
10
26.27983104911298
20
-28.66293833106235
30
0.0
11
26.439463380193775
21
-29.11810586074959
31
0.0
0
LINE
8
1
62
1
10
26.439463380193775
20
-29.11810586074959
30
0.0
11
26.595439126379524
21
-29.61214661486315
31
0.0
0
LINE
8
1
62
1
10
26.595439126379524
20
-29.61214661486315
30
0.0
11
26.745456624313668
21
-30.145248279641187
31
0.0
0
LINE
8
1
62
1
10
26.745456624313668
20
-30.145248279641187
30
0.0
11
26.88719982474272
21
-30.71749178549923
31
0.0
0
LINE
8
1
62
1
10
26.88719982474272
20
-30.71749178549923
30
0.0
11
27.018342743690255
21
-31.32885062080005
31
0.0
0
LINE
8
1
62
1
10
27.018342743690255
20
-31.32885062080005
30
0.0
11
27.13655394151521
21
-31.979190320389353
31
0.0
0
LINE
8
1
62
1
10
27.13655394151521
20
-31.979190320389353
30
0.0
11
25.13895392490051
21
-33.57222317527062
31
0.0
0
LINE
8
1
62
1
10
25.13895392490051
20
-33.57222317527062
30
0.0
11
24.531224065515058
21
-33.312261581637145
31
0.0
0
LINE
8
1
62
1
10
24.531224065515058
20
-33.312261581637145
30
0.0
11
23.964375317427283
21
-33.04836655045661
31
0.0
0
LINE
8
1
62
1
10
23.964375317427283
20
-33.04836655045661
30
0.0
11
23.438019980342922
21
-32.78284098862238
31
0.0
0
LINE
8
1
62
1
10
23.438019980342922
20
-32.78284098862238
30
0.0
11
22.95166632107031
21
-32.51795846223063
31
0.0
0
LINE
8
1
62
1
10
22.95166632107031
20
-32.51795846223063
30
0.0
11
22.50472006884543
21
-32.255958943632926
31
0.0
0
LINE
8
1
62
1
10
22.50472006884543
20
-32.255958943632926
30
0.0
11
22.096486074836214
21
-31.999044624563016
31
0.0
0
LINE
8
1
62
1
10
22.096486074836214
20
-31.999044624563016
30
0.0
11
21.726170133116735
21
-31.74937580144391
31
0.0
0
LINE
8
1
62
1
10
21.726170133116735
20
-31.74937580144391
30
0.0
11
21.39288096018043
21
-31.509066838875043
31
0.0
0
LINE
8
1
62
1
10
21.39288096018043
20
-31.509066838875043
30
0.0
11
21.0956323298447
21
-31.28018221718533
31
0.0
0
LINE
8
1
62
1
10
21.0956323298447
20
-31.28018221718533
30
0.0
11
20.833345360185834
21
-31.064732669816284
31
0.0
0
LINE
8
1
62
1
10
20.833345360185834
20
-31.064732669816284
30
0.0
11
20.604850948935557
21
-30.864671416170303
31
0.0
0
LINE
8
1
62
1
10
20.604850948935557
20
-30.864671416170303
30
0.0
11
20.40889235356643
21
-30.681890495422408
31
0.0
0
LINE
8
1
62
1
10
20.40889235356643
20
-30.681890495422408
30
0.0
11
20.24412791209541
21
-30.51821720665016
31
0.0
0
LINE
8
1
62
1
10
20.24412791209541
20
-30.51821720665016
30
0.0
11
20.10913390044151
21
-30.375410660485528
31
0.0
0
LINE
8
1
62
1
10
20.10913390044151
20
-30.375410660485528
30
0.0
11
20.002407521986292
21
-30.255158447334836
31
0.0
0
LINE
8
1
62
1
10
20.002407521986292
20
-30.255158447334836
30
0.0
11
19.92237002480416
21
-30.159073427048813
31
0.0
0
LINE
8
1
62
1
10
19.92237002480416
20
-30.159073427048813
30
0.0
11
19.867369941853948
21
-30.088690644753942
31
0.0
0
LINE
8
1
62
1
10
19.867369941853948
20
-30.088690644753942
30
0.0
11
19.83568644925384
21
-30.04546437737951
31
0.0
0
LINE
8
1
62
1
10
19.83568644925384
20
-30.04546437737951
30
0.0
11
19.825532837599134
21
-30.030765315232006
31
0.0
0
LINE
8
1
62
1
10
19.825532837599134
20
-30.030765315232006
30
0.0
11
18.686703787748375
21
-28.30572174589214
31
0.0
0
LINE
8
1
62
1
10
18.686703787748375
20
-28.30572174589214
30
0.0
11
15.17012221052202
21
-30.336021066131053
31
0.0
0
LINE
8
1
62
1
10
15.17012221052202
20
-30.336021066131053
30
0.0
11
16.09463923927995
21
-32.18479773853944
31
0.0
0
LINE
8
1
62
1
10
16.09463923927995
20
-32.18479773853944
30
0.0
11
16.10229219468414
21
-32.200940555246326
31
0.0
0
LINE
8
1
62
1
10
16.10229219468414
20
-32.200940555246326
30
0.0
11
16.123885494041126
21
-32.24999239840586
31
0.0
0
LINE
8
1
62
1
10
16.123885494041126
20
-32.24999239840586
30
0.0
11
16.157338730022406
21
-32.33281525859842
31
0.0
0
LINE
8
1
62
1
10
16.157338730022406
20
-32.33281525859842
30
0.0
11
16.200532049922177
21
-32.450172274556486
31
0.0
0
LINE
8
1
62
1
10
16.200532049922177
20
-32.450172274556486
30
0.0
11
16.25131033214437
21
-32.60272613612796
31
0.0
0
LINE
8
1
62
1
10
16.25131033214437
20
-32.60272613612796
30
0.0
11
16.30748742312271
21
-32.79103765266133
31
0.0
0
LINE
8
1
62
1
10
16.30748742312271
20
-32.79103765266133
30
0.0
11
16.36685042838491
21
-33.01556448900171
31
0.0
0
LINE
8
1
62
1
10
16.36685042838491
20
-33.01556448900171
30
0.0
11
16.42716405139514
21
-33.27666007105524
31
0.0
0
LINE
8
1
62
1
10
16.42716405139514
20
-33.27666007105524
30
0.0
11
16.48617497374038
21
-33.57457266264374
31
0.0
0
LINE
8
1
62
1
10
16.48617497374038
20
-33.57457266264374
30
0.0
11
16.541616270166397
21
-33.90944461513448
31
0.0
0
LINE
8
1
62
1
10
16.541616270166397
20
-33.90944461513448
30
0.0
11
16.59121185191741
21
-34.281311791090204
31
0.0
0
LINE
8
1
62
1
10
16.59121185191741
20
-34.281311791090204
30
0.0
11
16.632680931790986
21
-34.69010316294378
31
0.0
0
LINE
8
1
62
1
10
16.632680931790986
20
-34.69010316294378
30
0.0
11
16.663742504285352
21
-35.13564058745877
31
0.0
0
LINE
8
1
62
1
10
16.663742504285352
20
-35.13564058745877
30
0.0
11
16.68211983419127
21
-35.61763875649408
31
0.0
0
LINE
8
1
62
1
10
16.68211983419127
20
-35.61763875649408
30
0.0
11
16.685544946963734
21
-36.13570532434593
31
0.0
0
LINE
8
1
62
1
10
16.685544946963734
20
-36.13570532434593
30
0.0
11
16.67176311420129
21
-36.68934121169541
31
0.0
0
LINE
8
1
62
1
10
16.67176311420129
20
-36.68934121169541
30
0.0
11
16.63853732756169
21
-37.2779410859451
31
0.0
0
LINE
8
1
62
1
10
16.63853732756169
20
-37.2779410859451
30
0.0
11
16.58365275445263
21
-37.90079401748279
31
0.0
0
LINE
8
1
62
1
10
16.58365275445263
20
-37.90079401748279
30
0.0
11
16.50492116885478
21
-38.55708431116567
31
0.0
0
LINE
8
1
62
1
10
16.50492116885478
20
-38.55708431116567
30
0.0
11
14.126514239156997
21
-39.490540244713586
31
0.0
0
LINE
8
1
62
1
10
14.126514239156997
20
-39.490540244713586
30
0.0
11
13.622409137135598
21
-39.06299649459074
31
0.0
0
LINE
8
1
62
1
10
13.622409137135598
20
-39.06299649459074
30
0.0
11
13.158528314410786
21
-38.64374397760532
31
0.0
0
LINE
8
1
62
1
10
13.158528314410786
20
-38.64374397760532
30
0.0
11
12.733822501401578
21
-38.23486901229103
31
0.0
0
LINE
8
1
62
1
10
12.733822501401578
20
-38.23486901229103
30
0.0
11
12.347151665871095
21
-37.83839921567886
31
0.0
0
LINE
8
1
62
1
10
12.347151665871095
20
-37.83839921567886
30
0.0
11
11.997287695396805
21
-37.45629988005099
31
0.0
0
LINE
8
1
62
1
10
11.997287695396805
20
-37.45629988005099
30
0.0
11
11.682917217250246
21
-37.090470461226076
31
0.0
0
LINE
8
1
62
1
10
11.682917217250246
20
-37.090470461226076
30
0.0
11
11.402644551297463
21
-36.742741183412164
31
0.0
0
LINE
8
1
62
1
10
11.402644551297463
20
-36.742741183412164
30
0.0
11
11.15499479135107
21
-36.41486976549656
31
0.0
0
LINE
8
1
62
1
10
11.15499479135107
20
-36.41486976549656
30
0.0
11
10.938417010231191
21
-36.108538273469215
31
0.0
0
LINE
8
1
62
1
10
10.938417010231191
20
-36.108538273469215
30
0.0
11
10.751287583624636
21
-35.825350103496916
31
0.0
0
LINE
8
1
62
1
10
10.751287583624636
20
-35.825350103496916
30
0.0
11
10.59191362767104
21
-35.566827099981346
31
0.0
0
LINE
8
1
62
1
10
10.59191362767104
20
-35.566827099981346
30
0.0
11
10.458536545050286
21
-35.33440681274276
31
0.0
0
LINE
8
1
62
1
10
10.458536545050286
20
-35.33440681274276
30
0.0
11
10.349335674198507
21
-35.129439897275915
31
0.0
0
LINE
8
1
62
1
10
10.349335674198507
20
-35.129439897275915
30
0.0
11
10.26243203613984
21
-34.95318766182328
31
0.0
0
LINE
8
1
62
1
10
10.26243203613984
20
-34.95318766182328
30
0.0
11
10.19589217328852
21
-34.80681976480506
31
0.0
0
LINE
8
1
62
1
10
10.19589217328852
20
-34.80681976480506
30
0.0
11
10.147732074450774
21
-34.691412065935
31
0.0
0
LINE
8
1
62
1
10
10.147732074450774
20
-34.691412065935
30
0.0
11
10.115921180138416
21
-34.60794463413585
31
0.0
0
LINE
8
1
62
1
10
10.115921180138416
20
-34.60794463413585
30
0.0
11
10.09838646219651
21
-34.55729991514991
31
0.0
0
LINE
8
1
62
1
10
10.09838646219651
20
-34.55729991514991
30
0.0
11
10.093016571645725
21
-34.54026106151701
31
0.0
0
LINE
8
1
62
1
10
10.093016571645725
20
-34.54026106151701
30
0.0
11
9.513248019316254
21
-32.55618058264661
31
0.0
0
LINE
8
1
62
1
10
9.513248019316254
20
-32.55618058264661
30
0.0
11
5.5544570645468605
21
-33.45974878454747
31
0.0
0
LINE
8
1
62
1
10
5.5544570645468605
20
-33.45974878454747
30
0.0
11
5.892963905191597
21
-35.498895674730115
31
0.0
0
LINE
8
1
62
1
10
5.892963905191597
20
-35.498895674730115
30
0.0
11
5.8955186825058155
21
-35.516577059588926
31
0.0
0
LINE
8
1
62
1
10
5.8955186825058155
20
-35.516577059588926
30
0.0
11
5.901694367572885
21
-35.56981440370393
31
0.0
0
LINE
8
1
62
1
10
5.901694367572885
20
-35.56981440370393
30
0.0
11
5.909248903540872
21
-35.658818191007654
31
0.0
0
LINE
8
1
62
1
10
5.909248903540872
20
-35.658818191007654
30
0.0
11
5.915931677721656
21
-35.78369281856583
31
0.0
0
LINE
8
1
62
1
10
5.915931677721656
20
-35.78369281856583
30
0.0
11
5.919487983263156
21
-35.944436301533884
31
0.0
0
LINE
8
1
62
1
10
5.919487983263156
20
-35.944436301533884
30
0.0
11
5.917663489810855
21
-36.140940153998734
31
0.0
0
LINE
8
1
62
1
10
5.917663489810855
20
-36.140940153998734
30
0.0
11
5.908208716503719
21
-36.37298944594442
31
0.0
0
LINE
8
1
62
1
10
5.908208716503719
20
-36.37298944594442
30
0.0
11
5.888883500644623
21
-36.640263036335405
31
0.0
0
LINE
8
1
62
1
10
5.888883500644623
20
-36.640263036335405
30
0.0
11
5.857461455389221
21
-36.942333982066664
31
0.0
0
LINE
8
1
62
1
10
5.857461455389221
20
-36.942333982066664
30
0.0
11
5.811734409809726
21
-37.27867012228494
31
0.0
0
LINE
8
1
62
1
10
5.811734409809726
20
-37.27867012228494
30
0.0
11
5.749516824711616
21
-37.64863483734176
31
0.0
0
LINE
8
1
62
1
10
5.749516824711616
20
-37.64863483734176
30
0.0
11
5.668650177611403
21
-38.051487981395844
31
0.0
0
LINE
8
1
62
1
10
5.668650177611403
20
-38.051487981395844
30
0.0
11
5.567007310322479
21
-38.486386987440405
31
0.0
0
LINE
8
1
62
1
10
5.567007310322479
20
-38.486386987440405
30
0.0
11
5.442496732643791
21
-38.9523881432909
31
0.0
0
LINE
8
1
62
1
10
5.442496732643791
20
-38.9523881432909
30
0.0
11
5.293066875702279
21
-39.4484480368297
31
0.0
0
LINE
8
1
62
1
10
5.293066875702279
20
-39.4484480368297
30
0.0
11
5.116710288564761
21
-39.97342516856855
31
0.0
0
LINE
8
1
62
1
10
5.116710288564761
20
-39.97342516856855
30
0.0
11
4.911467771808406
21
-40.52608172935481
31
0.0
0
LINE
8
1
62
1
10
4.911467771808406
20
-40.52608172935481
30
0.0
11
4.675432441820471
21
-41.105085540817164
31
0.0
0
LINE
8
1
62
1
10
4.675432441820471
20
-41.105085540817164
30
0.0
11
4.406753719688062
21
-41.709012155917385
31
0.0
0
LINE
8
1
62
1
10
4.406753719688062
20
-41.709012155917385
30
0.0
11
1.858871770077741
21
-41.89994951203231
31
0.0
0
LINE
8
1
62
1
10
1.858871770077741
20
-41.89994951203231
30
0.0
11
1.503183375963796
21
-41.34281274386335
31
0.0
0
LINE
8
1
62
1
10
1.503183375963796
20
-41.34281274386335
30
0.0
11
1.1834883254085127
21
-40.80545516706656
31
0.0
0
LINE
8
1
62
1
10
1.1834883254085127
20
-40.80545516706656
30
0.0
11
0.8981690117510861
21
-40.28956113325862
31
0.0
0
LINE
8
1
62
1
10
0.8981690117510861
20
-40.28956113325862
30
0.0
11
0.6455384005766246
21
-39.796732147734076
31
0.0
0
LINE
8
1
62
1
10
0.6455384005766246
20
-39.796732147734076
30
0.0
11
0.4238436609823113
21
-39.32848419786189
31
0.0
0
LINE
8
1
62
1
10
0.4238436609823113
20
-39.32848419786189
30
0.0
11
0.23126989527385222
21
-38.88624522856052
31
0.0
0
LINE
8
1
62
1
10
0.23126989527385222
20
-38.88624522856052
30
0.0
11
0.06594396141400638
21
-38.47135276837037
31
0.0
0
LINE
8
1
62
1
10
0.06594396141400638
20
-38.47135276837037
30
0.0
11
-0.07406161757817098
21
-38.08505170942987
31
0.0
0
LINE
8
1
62
1
10
-0.07406161757817098
20
-38.08505170942987
30
0.0
11
-0.19072466319375653
21
-37.72849224444513
31
0.0
0
LINE
8
1
62
1
10
-0.19072466319375653
20
-37.72849224444513
30
0.0
11
-0.28606927599004267
21
-37.40272796352243
31
0.0
0
LINE
8
1
62
1
10
-0.28606927599004267
20
-37.40272796352243
30
0.0
11
-0.36216170125939406
21
-37.10871411350913
31
0.0
0
LINE
8
1
62
1
10
-0.36216170125939406
20
-37.10871411350913
30
0.0
11
-0.4211061320252365
21
-36.84730602226063
31
0.0
0
LINE
8
1
62
1
10
-0.4211061320252365
20
-36.84730602226063
30
0.0
11
-0.46504045566246555
21
-36.61925769002091
31
0.0
0
LINE
8
1
62
1
10
-0.46504045566246555
20
-36.61925769002091
30
0.0
11
-0.49613195051405634
21
-36.425220549870424
31
0.0
0
LINE
8
1
62
1
10
-0.49613195051405634
20
-36.425220549870424
30
0.0
11
-0.5165729389417555
21
-36.265742398959695
31
0.0
0
LINE
8
1
62
1
10
-0.5165729389417555
20
-36.265742398959695
30
0.0
11
-0.5285764033062713
21
-36.14126650200854
31
0.0
0
LINE
8
1
62
1
10
-0.5285764033062713
20
-36.14126650200854
30
0.0
11
-0.5343715714213082
21
-36.05213086831126
31
0.0
0
LINE
8
1
62
1
10
-0.5343715714213082
20
-36.05213086831126
30
0.0
11
-0.536199478066033
21
-35.99856770324641
31
0.0
0
LINE
8
1
62
1
10
-0.536199478066033
20
-35.99856770324641
30
0.0
11
-0.5363085091720841
21
-35.98070303504717
31
0.0
0
LINE
8
1
62
1
10
-0.5363085091720841
20
-35.98070303504717
30
0.0
11
-0.5055015838334113
21
-33.913879904187645
31
0.0
0
LINE
8
1
62
1
10
-0.5055015838334113
20
-33.913879904187645
30
0.0
11
-4.554745966946639
21
-33.610430987767835
31
0.0
0
LINE
8
1
62
1
10
-4.554745966946639
20
-33.610430987767835
30
0.0
11
-4.832327132719183
21
-35.658760945883266
31
0.0
0
LINE
8
1
62
1
10
-4.832327132719183
20
-35.658760945883266
30
0.0
11
-4.835097536670763
21
-35.67640983025582
31
0.0
0
LINE
8
1
62
1
10
-4.835097536670763
20
-35.67640983025582
30
0.0
11
-4.8448882026133635
21
-35.72910230367345
31
0.0
0
LINE
8
1
62
1
10
-4.8448882026133635
20
-35.72910230367345
30
0.0
11
-4.863903620331961
21
-35.816378640999694
31
0.0
0
LINE
8
1
62
1
10
-4.863903620331961
20
-35.816378640999694
30
0.0
11
-4.894325185683002
21
-35.937675221496164
31
0.0
0
LINE
8
1
62
1
10
-4.894325185683002
20
-35.937675221496164
30
0.0
11
-4.938306850176143
21
-36.092325561987934
31
0.0
0
LINE
8
1
62
1
10
-4.938306850176143
20
-36.092325561987934
30
0.0
11
-4.997970813809187
21
-36.279561520749816
31
0.0
0
LINE
8
1
62
1
10
-4.997970813809187
20
-36.279561520749816
30
0.0
11
-5.075403267585736
21
-36.49851467037987
31
0.0
0
LINE
8
1
62
1
10
-5.075403267585736
20
-36.49851467037987
30
0.0
11
-5.172650192077757
21
-36.74821783769124
31
0.0
0
LINE
8
1
62
1
10
-5.172650192077757
20
-36.74821783769124
30
0.0
11
-5.2917132183194875
21
-37.02760680842054
31
0.0
0
LINE
8
1
62
1
10
-5.2917132183194875
20
-37.02760680842054
30
0.0
11
-5.434545557234925
21
-37.33552219432112
31
0.0
0
LINE
8
1
62
1
10
-5.434545557234925
20
-37.33552219432112
30
0.0
11
-5.603048003708815
21
-37.670711459982805
31
0.0
0
LINE
8
1
62
1
10
-5.603048003708815
20
-37.670711459982805
30
0.0
11
-5.7990650213105255
21
-38.03183110649629
31
0.0
0
LINE
8
1
62
1
10
-5.7990650213105255
20
-38.03183110649629
30
0.0
11
-6.024380913571745
21
-38.41744900886053
31
0.0
0
LINE
8
1
62
1
10
-6.024380913571745
20
-38.41744900886053
30
0.0
11
-6.280716087602617
21
-38.826046903816476
31
0.0
0
LINE
8
1
62
1
10
-6.280716087602617
20
-38.826046903816476
30
0.0
11
-6.569723415706726
21
-39.25602302457834
31
0.0
0
LINE
8
1
62
1
10
-6.569723415706726
20
-39.25602302457834
30
0.0
11
-6.892984700524011
21
-39.705694878727364
31
0.0
0
LINE
8
1
62
1
10
-6.892984700524011
20
-39.705694878727364
30
0.0
11
-7.252007249091374
21
-40.17330216533095
31
0.0
0
LINE
8
1
62
1
10
-7.252007249091374
20
-40.17330216533095
30
0.0
11
-7.648220561064768
21
-40.65700982715317
31
0.0
0
LINE
8
1
62
1
10
-7.648220561064768
20
-40.65700982715317
30
0.0
11
-8.082973136193122
21
-41.154911233630784
31
0.0
0
LINE
8
1
62
1
10
-8.082973136193122
20
-41.154911233630784
30
0.0
11
-10.57393961329733
21
-40.586364390307125
31
0.0
0
LINE
8
1
62
1
10
-10.57393961329733
20
-40.586364390307125
30
0.0
11
-10.74960682477399
21
-39.94913865089829
31
0.0
0
LINE
8
1
62
1
10
-10.74960682477399
20
-39.94913865089829
30
0.0
11
-10.896709794959287
21
-39.34142259314343
31
0.0
0
LINE
8
1
62
1
10
-10.896709794959287
20
-39.34142259314343
30
0.0
11
-11.017290736143286
21
-38.76434893970935
31
0.0
0
LINE
8
1
62
1
10
-11.017290736143286
20
-38.76434893970935
30
0.0
11
-11.113433784507698
21
-38.218950783380656
31
0.0
0
LINE
8
1
62
1
10
-11.113433784507698
20
-38.218950783380656
30
0.0
11
-11.18726074271774
21
-37.706160104482585
31
0.0
0
LINE
8
1
62
1
10
-11.18726074271774
20
-37.706160104482585
30
0.0
11
-11.24092677180885
21
-37.226806457860945
31
0.0
0
LINE
8
1
62
1
10
-11.24092677180885
20
-37.226806457860945
30
0.0
11
-11.276616038831401
21
-36.78161583110802
31
0.0
0
LINE
8
1
62
1
10
-11.276616038831401
20
-36.78161583110802
30
0.0
11
-11.296537326771544
21
-36.37120967548375
31
0.0
0
LINE
8
1
62
1
10
-11.296537326771544
20
-36.37120967548375
30
0.0
11
-11.30291961331255
21
-35.996104110740944
31
0.0
0
LINE
8
1
62
1
10
-11.30291961331255
20
-35.996104110740944
30
0.0
11
-11.298007625038675
21
-35.65670930482082
31
0.0
0
LINE
8
1
62
1
10
-11.298007625038675
20
-35.65670930482082
30
0.0
11
-11.284057373712491
21
-35.35332902914202
31
0.0
0
LINE
8
1
62
1
10
-11.284057373712491
20
-35.35332902914202
30
0.0
11
-11.263331681276505
21
-35.086160389961556
31
0.0
0
LINE
8
1
62
1
10
-11.263331681276505
20
-35.086160389961556
30
0.0
11
-11.238095700241411
21
-34.85529373604208
31
0.0
0
LINE
8
1
62
1
10
-11.238095700241411
20
-34.85529373604208
30
0.0
11
-11.210612436125581
21
-34.66071274261409
31
0.0
0
LINE
8
1
62
1
10
-11.210612436125581
20
-34.66071274261409
30
0.0
11
-11.183138278604059
21
-34.5022946713776
31
0.0
0
LINE
8
1
62
1
10
-11.183138278604059
20
-34.5022946713776
30
0.0
11
-11.157918548010223
21
-34.37981080604294
31
0.0
0
LINE
8
1
62
1
10
-11.157918548010223
20
-34.37981080604294
30
0.0
11
-11.137183063809243
21
-34.29292706266681
31
0.0
0
LINE
8
1
62
1
10
-11.137183063809243
20
-34.29292706266681
30
0.0
11
-11.123141741629766
21
-34.24120477379712
31
0.0
0
LINE
8
1
62
1
10
-11.123141741629766
20
-34.24120477379712
30
0.0
11
-11.117980225398835
21
-34.22410164519887
31
0.0
0
LINE
8
1
62
1
10
-11.117980225398835
20
-34.22410164519887
30
0.0
11
-10.479335152902323
21
-32.258182167631
31
0.0
0
LINE
8
1
62
1
10
-10.479335152902323
20
-32.258182167631
30
0.0
11
-14.259239831103484
21
-30.77467890077803
31
0.0
0
LINE
8
1
62
1
10
-14.259239831103484
20
-30.77467890077803
30
0.0
11
-15.128244698569537
21
-32.65018882109973
31
0.0
0
LINE
8
1
62
1
10
-15.128244698569537
20
-32.65018882109973
30
0.0
11
-15.136094121238099
21
-32.666237024158676
31
0.0
0
LINE
8
1
62
1
10
-15.136094121238099
20
-32.666237024158676
30
0.0
11
-15.16098119455574
21
-32.71370266937866
31
0.0
0
LINE
8
1
62
1
10
-15.16098119455574
20
-32.71370266937866
30
0.0
11
-15.204876962648838
21
-32.79149667115009
31
0.0
0
LINE
8
1
62
1
10
-15.204876962648838
20
-32.79149667115009
30
0.0
11
-15.269699777947421
21
-32.898437471106476
31
0.0
0
LINE
8
1
62
1
10
-15.269699777947421
20
-32.898437471106476
30
0.0
11
-15.357311448574634
21
-33.03325330769742
31
0.0
0
LINE
8
1
62
1
10
-15.357311448574634
20
-33.03325330769742
30
0.0
11
-15.469513477388634
21
-33.19458463614886
31
0.0
0
LINE
8
1
62
1
10
-15.469513477388634
20
-33.19458463614886
30
0.0
11
-15.608043398309823
21
-33.3809866952586
31
0.0
0
LINE
8
1
62
1
10
-15.608043398309823
20
-33.3809866952586
30
0.0
11
-15.774571215432553
21
-33.59093221727044
31
0.0
0
LINE
8
1
62
1
10
-15.774571215432553
20
-33.59093221727044
30
0.0
11
-15.970695950279548
21
-33.82281427687016
31
0.0
0
LINE
8
1
62
1
10
-15.970695950279548
20
-33.82281427687016
30
0.0
11
-16.197942302408897
21
-34.07494927515137
31
0.0
0
LINE
8
1
62
1
10
-16.197942302408897
20
-34.07494927515137
30
0.0
11
-16.457757428428557
21
-34.34558005421003
31
0.0
0
LINE
8
1
62
1
10
-16.457757428428557
20
-34.34558005421003
30
0.0
11
-16.75150784431134
21
-34.63287913784272
31
0.0
0
LINE
8
1
62
1
10
-16.75150784431134
20
-34.63287913784272
30
0.0
11
-17.080476455734942
21
-34.93495209364528
31
0.0
0
LINE
8
1
62
1
10
-17.080476455734942
20
-34.93495209364528
30
0.0
11
-17.44585972099697
21
-35.24984101163753
31
0.0
0
LINE
8
1
62
1
10
-17.44585972099697
20
-35.24984101163753
30
0.0
11
-17.848764950873854
21
-35.575528094373624
31
0.0
0
LINE
8
1
62
1
10
-17.848764950873854
20
-35.575528094373624
30
0.0
11
-18.29020774960611
21
-35.90993935333925
31
0.0
0
LINE
8
1
62
1
10
-18.29020774960611
20
-35.90993935333925
30
0.0
11
-18.771109600999765
21
-36.25094840628466
31
0.0
0
LINE
8
1
62
1
10
-18.771109600999765
20
-36.25094840628466
30
0.0
11
-19.2922956034363
21
-36.59638036999774
31
0.0
0
LINE
8
1
62
1
10
-19.2922956034363
20
-36.59638036999774
30
0.0
11
-19.854492357380195
21
-36.94401584288287
31
0.0
0
LINE
8
1
62
1
10
-19.854492357380195
20
-36.94401584288287
30
0.0
11
-22.067210059061217
21
-35.666502682176684
31
0.0
0
LINE
8
1
62
1
10
-22.067210059061217
20
-35.666502682176684
30
0.0
11
-22.047247285258024
21
-35.00580827489355
31
0.0
0
LINE
8
1
62
1
10
-22.047247285258024
20
-35.00580827489355
30
0.0
11
-22.008687430621624
21
-34.38173197483012
31
0.0
0
LINE
8
1
62
1
10
-22.008687430621624
20
-34.38173197483012
30
0.0
11
-21.953815853547255
21
-33.794754228323534
31
0.0
0
LINE
8
1
62
1
10
-21.953815853547255
20
-33.794754228323534
30
0.0
11
-21.884928607337617
21
-33.24524792082089
31
0.0
0
LINE
8
1
62
1
10
-21.884928607337617
20
-33.24524792082089
30
0.0
11
-21.804327934942155
21
-32.73347821506185
31
0.0
0
LINE
8
1
62
1
10
-21.804327934942155
20
-32.73347821506185
30
0.0
11
-21.714317765221683
21
-32.259602566231095
31
0.0
0
LINE
8
1
62
1
10
-21.714317765221683
20
-32.259602566231095
30
0.0
11
-21.617199217412217
21
-31.823670913789293
31
0.0
0
LINE
8
1
62
1
10
-21.617199217412217
20
-31.823670913789293
30
0.0
11
-21.515266120443712
21
-31.425626049446212
31
0.0
0
LINE
8
1
62
1
10
-21.515266120443712
20
-31.425626049446212
30
0.0
11
-21.410800553742764
21
-31.065304160496403
31
0.0
0
LINE
8
1
62
1
10
-21.410800553742764
20
-31.065304160496403
30
0.0
11
-21.306068416112772
21
-30.742435547494438
31
0.0
0
LINE
8
1
62
1
10
-21.306068416112772
20
-30.742435547494438
30
0.0
11
-21.203315029241054
21
-30.456645515006592
31
0.0
0
LINE
8
1
62
1
10
-21.203315029241054
20
-30.456645515006592
30
0.0
11
-21.104760782329375
21
-30.207455433935618
31
0.0
0
LINE
8
1
62
1
10
-21.104760782329375
20
-30.207455433935618
30
0.0
11
-21.012596824283207
21
-29.994283973678748
31
0.0
0
LINE
8
1
62
1
10
-21.012596824283207
20
-29.994283973678748
30
0.0
11
-20.928980809824967
21
-29.81644850214395
31
0.0
0
LINE
8
1
62
1
10
-20.928980809824967
20
-29.81644850214395
30
0.0
11
-20.856032705818368
21
-29.67316665141732
31
0.0
0
LINE
8
1
62
1
10
-20.856032705818368
20
-29.67316665141732
30
0.0
11
-20.795830664004406
21
-29.563558046645728
31
0.0
0
LINE
8
1
62
1
10
-20.795830664004406
20
-29.563558046645728
30
0.0
11
-20.75040696625484
21
-29.486646195472755
31
0.0
0
LINE
8
1
62
1
10
-20.75040696625484
20
-29.486646195472755
30
0.0
11
-20.72174404834613
21
-29.44136053514384
31
0.0
0
LINE
8
1
62
1
10
-20.72174404834613
20
-29.44136053514384
30
0.0
11
-20.71177060814628
21
-29.426538634178353
31
0.0
0
LINE
8
1
62
1
10
-20.71177060814628
20
-29.426538634178353
30
0.0
11
-19.522033805830983
21
-27.73620338277957
31
0.0
0
LINE
8
1
62
1
10
-19.522033805830983
20
-27.73620338277957
30
0.0
11
-22.696737660623462
21
-25.204461541000185
31
0.0
0
LINE
8
1
62
1
10
-22.696737660623462
20
-25.204461541000185
30
0.0
11
-24.079951333743615
21
-26.740504136567854
31
0.0
0
LINE
8
1
62
1
10
-24.079951333743615
20
-26.740504136567854
30
0.0
11
-24.092182319478436
21
-26.75352570504501
31
0.0
0
LINE
8
1
62
1
10
-24.092182319478436
20
-26.75352570504501
30
0.0
11
-24.129954474491722
21
-26.791546991190003
31
0.0
0
LINE
8
1
62
1
10
-24.129954474491722
20
-26.791546991190003
30
0.0
11
-24.194830261330843
21
-26.852946318955887
31
0.0
0
LINE
8
1
62
1
10
-24.194830261330843
20
-26.852946318955887
30
0.0
11
-24.288294534967452
21
-26.93602917899408
31
0.0
0
LINE
8
1
62
1
10
-24.288294534967452
20
-26.93602917899408
30
0.0
11
-24.411751530316025
21
-27.03903153297354
31
0.0
0
LINE
8
1
62
1
10
-24.411751530316025
20
-27.03903153297354
30
0.0
11
-24.566521981660365
21
-27.16012323459076
31
0.0
0
LINE
8
1
62
1
10
-24.566521981660365
20
-27.16012323459076
30
0.0
11
-24.753840378323797
21
-27.29741156221631
31
0.0
0
LINE
8
1
62
1
10
-24.753840378323797
20
-27.29741156221631
30
0.0
11
-24.974852360730598
21
-27.44894485796713
31
0.0
0
LINE
8
1
62
1
10
-24.974852360730598
20
-27.44894485796713
30
0.0
11
-25.23061226081248
21
-27.612716267844185
31
0.0
0
LINE
8
1
62
1
10
-25.23061226081248
20
-27.612716267844185
30
0.0
11
-25.522080790514856
21
-27.78666757743251
31
0.0
0
LINE
8
1
62
1
10
-25.522080790514856
20
-27.78666757743251
30
0.0
11
-25.850122881953535
21
-27.96869313752517
31
0.0
0
LINE
8
1
62
1
10
-25.850122881953535
20
-27.96869313752517
30
0.0
11
-26.21550568256374
21
-28.15664387390504
31
0.0
0
LINE
8
1
62
1
10
-26.21550568256374
20
-28.15664387390504
30
0.0
11
-26.618896708369757
21
-28.348331375397525
31
0.0
0
LINE
8
1
62
1
10
-26.618896708369757
20
-28.348331375397525
30
0.0
11
-27.060862158286362
21
-28.54153205419521
31
0.0
0
LINE
8
1
62
1
10
-27.060862158286362
20
-28.54153205419521
30
0.0
11
-27.541865392140984
21
-28.733991372350218
31
0.0
0
LINE
8
1
62
1
10
-27.541865392140984
20
-28.733991372350218
30
0.0
11
-28.062265574881035
21
-28.92342812823371
31
0.0
0
LINE
8
1
62
1
10
-28.062265574881035
20
-28.92342812823371
30
0.0
11
-28.622316489201644
21
-29.107538796673165
31
0.0
0
LINE
8
1
62
1
10
-28.622316489201644
20
-29.107538796673165
30
0.0
11
-29.222165518597738
21
-29.284001916397987
31
0.0
0
LINE
8
1
62
1
10
-29.222165518597738
20
-29.284001916397987
30
0.0
11
-29.861852802609434
21
-29.45048251835164
31
0.0
0
LINE
8
1
62
1
10
-29.861852802609434
20
-29.45048251835164
30
0.0
11
-31.59971205072126
21
-27.577515690865827
31
0.0
0
LINE
8
1
62
1
10
-31.59971205072126
20
-27.577515690865827
30
0.0
11
-31.385893071695822
21
-26.952058213205163
31
0.0
0
LINE
8
1
62
1
10
-31.385893071695822
20
-26.952058213205163
30
0.0
11
-31.165096604539293
21
-26.36707358880752
31
0.0
0
LINE
8
1
62
1
10
-31.165096604539293
20
-26.36707358880752
30
0.0
11
-30.93964808962956
21
-25.82234729791496
31
0.0
0
LINE
8
1
62
1
10
-30.93964808962956
20
-25.82234729791496
30
0.0
11
-30.711851482978304
21
-25.31755888612868
31
0.0
0
LINE
8
1
62
1
10
-30.711851482978304
20
-25.31755888612868
30
0.0
11
-30.4839849034299
21
-24.85228313772973
31
0.0
0
LINE
8
1
62
1
10
-30.4839849034299
20
-24.85228313772973
30
0.0
11
-30.258296333480633
21
-24.425991417657514
31
0.0
0
LINE
8
1
62
1
10
-30.258296333480633
20
-24.425991417657514
30
0.0
11
-30.03699938000975
21
-24.038053179900817
31
0.0
0
LINE
8
1
62
1
10
-30.03699938000975
20
-24.038053179900817
30
0.0
11
-29.822269101124274
21
-23.68773763982694
31
0.0
0
LINE
8
1
62
1
10
-29.822269101124274
20
-23.68773763982694
30
0.0
11
-29.616237905222345
21
-23.374215607749875
31
0.0
0
LINE
8
1
62
1
10
-29.616237905222345
20
-23.374215607749875
30
0.0
11
-29.42099152827407
21
-23.096561480816867
31
0.0
0
LINE
8
1
62
1
10
-29.42099152827407
20
-23.096561480816867
30
0.0
11
-29.23856509520618
21
-22.85375539007543
31
0.0
0
LINE
8
1
62
1
10
-29.23856509520618
20
-22.85375539007543
30
0.0
11
-29.070939271155105
21
-22.644685499369746
31
0.0
0
LINE
8
1
62
1
10
-29.070939271155105
20
-22.644685499369746
30
0.0
11
-28.92003650822513
21
-22.46815045250686
31
0.0
0
LINE
8
1
62
1
10
-28.92003650822513
20
-22.46815045250686
30
0.0
11
-28.787717393251935
21
-22.32286196492923
31
0.0
0
LINE
8
1
62
1
10
-28.787717393251935
20
-22.32286196492923
30
0.0
11
-28.67577710192872
21
-22.207447555931562
31
0.0
0
LINE
8
1
62
1
10
-28.67577710192872
20
-22.207447555931562
30
0.0
11
-28.585941964502112
21
-22.12045341726644
31
0.0
0
LINE
8
1
62
1
10
-28.585941964502112
20
-22.12045341726644
30
0.0
11
-28.51986614808762
21
-22.060347413795437
31
0.0
0
LINE
8
1
62
1
10
-28.51986614808762
20
-22.060347413795437
30
0.0
11
-28.47912846049102
21
-22.025522211660363
31
0.0
0
LINE
8
1
62
1
10
-28.47912846049102
20
-22.025522211660363
30
0.0
11
-28.465229280251723
21
-22.014298529273272
31
0.0
0
LINE
8
1
62
1
10
-28.465229280251723
20
-22.014298529273272
30
0.0
11
-26.830114084077316
21
-20.749741209044434
31
0.0
0
LINE
8
1
62
1
10
-26.830114084077316
20
-20.749741209044434
30
0.0
11
-29.117530746004363
21
-17.394717165346822
31
0.0
0
LINE
8
1
62
1
10
-29.117530746004363
20
-17.394717165346822
30
0.0
11
-30.892048619788667
21
-18.454808310732368
31
0.0
0
LINE
8
1
62
1
10
-30.892048619788667
20
-18.454808310732368
30
0.0
11
-30.90757439183241
21
-18.46364622112434
31
0.0
0
LINE
8
1
62
1
10
-30.90757439183241
20
-18.46364622112434
30
0.0
11
-30.954875406808036
21
-18.48884479006669
31
0.0
0
LINE
8
1
62
1
10
-30.954875406808036
20
-18.48884479006669
30
0.0
11
-31.034966714029828
21
-18.528393844108507
31
0.0
0
LINE
8
1
62
1
10
-31.034966714029828
20
-18.528393844108507
30
0.0
11
-31.148767735130637
21
-18.580236487510994
31
0.0
0
LINE
8
1
62
1
10
-31.148767735130637
20
-18.580236487510994
30
0.0
11
-31.297100359381748
21
-18.642273147709506
31
0.0
0
LINE
8
1
62
1
10
-31.297100359381748
20
-18.642273147709506
30
0.0
11
-31.480687199455545
21
-18.712365693401637
31
0.0
0
LINE
8
1
62
1
10
-31.480687199455545
20
-18.712365693401637
30
0.0
11
-31.700150010284435
21
-18.788341619153574
31
0.0
0
LINE
8
1
62
1
10
-31.700150010284435
20
-18.788341619153574
30
0.0
11
-31.95600827344335
21
-18.867998290322987
31
0.0
0
LINE
8
1
62
1
10
-31.95600827344335
20
-18.867998290322987
30
0.0
11
-32.248677949254
21
-18.949107242010808
31
0.0
0
LINE
8
1
62
1
10
-32.248677949254
20
-18.949107242010808
30
0.0
11
-32.57847039857678
21
-19.029418525676583
31
0.0
0
LINE
8
1
62
1
10
-32.57847039857678
20
-19.029418525676583
30
0.0
11
-32.94559147602114
21
-19.106665096982997
31
0.0
0
LINE
8
1
62
1
10
-32.94559147602114
20
-19.106665096982997
30
0.0
11
-33.35014079606854
21
-19.17856723837447
31
0.0
0
LINE
8
1
62
1
10
-33.35014079606854
20
-19.17856723837447
30
0.0
11
-33.79211117336176
21
-19.242837009842535
31
0.0
0
LINE
8
1
62
1
10
-33.79211117336176
20
-19.242837009842535
30
0.0
11
-34.27138823817442
21
-19.29718272128726
31
0.0
0
LINE
8
1
62
1
10
-34.27138823817442
20
-19.29718272128726
30
0.0
11
-34.78775022783087
21
-19.3393134198493
31
0.0
0
LINE
8
1
62
1
10
-34.78775022783087
20
-19.3393134198493
30
0.0
11
-35.340867954603674
21
-19.366943385560905
31
0.0
0
LINE
8
1
62
1
10
-35.340867954603674
20
-19.366943385560905
30
0.0
11
-35.930304950370896
21
-19.3777966286472
31
0.0
0
LINE
8
1
62
1
10
-35.930304950370896
20
-19.3777966286472
30
0.0
11
-36.55551778807059
21
-19.369611381800564
31
0.0
0
LINE
8
1
62
1
10
-36.55551778807059
20
-19.369611381800564
30
0.0
11
-37.21585657974425
21
-19.34014458075108
31
0.0
0
LINE
8
1
62
1
10
-37.21585657974425
20
-19.34014458075108
30
0.0
11
-38.324440953622435
21
-17.03814540848729
31
0.0
0
LINE
8
1
62
1
10
-38.324440953622435
20
-17.03814540848729
30
0.0
11
-37.935764523990294
21
-16.50349950211417
31
0.0
0
LINE
8
1
62
1
10
-37.935764523990294
20
-16.50349950211417
30
0.0
11
-37.552350179369846
21
-16.009585004422796
31
0.0
0
LINE
8
1
62
1
10
-37.552350179369846
20
-16.009585004422796
30
0.0
11
-37.17635681653899
21
-15.55551149058201
31
0.0
0
LINE
8
1
62
1
10
-37.17635681653899
20
-15.55551149058201
30
0.0
11
-36.809891577616014
21
-15.140293640126773
31
0.0
0
LINE
8
1
62
1
10
-36.809891577616014
20
-15.140293640126773
30
0.0
11
-36.45500603648356
21
-14.762853641162145
31
0.0
0
LINE
8
1
62
1
10
-36.45500603648356
20
-14.762853641162145
30
0.0
11
-36.11369248616347
21
-14.42202373992728
31
0.0
0
LINE
8
1
62
1
10
-36.11369248616347
20
-14.42202373992728
30
0.0
11
-35.78788033249274
21
-14.1165489317193
31
0.0
0
LINE
8
1
62
1
10
-35.78788033249274
20
-14.1165489317193
30
0.0
11
-35.479432599297574
21
-13.845089788984602
31
0.0
0
LINE
8
1
62
1
10
-35.479432599297574
20
-13.845089788984602
30
0.0
11
-35.19014255010356
21
-13.606225422199111
31
0.0
0
LINE
8
1
62
1
10
-35.19014255010356
20
-13.606225422199111
30
0.0
11
-34.92173043125347
21
-13.398456568978121
31
0.0
0
LINE
8
1
62
1
10
-34.92173043125347
20
-13.398456568978121
30
0.0
11
-34.675840341132705
21
-13.220208806682445
31
0.0
0
LINE
8
1
62
1
10
-34.675840341132705
20
-13.220208806682445
30
0.0
11
-34.45403723002298
21
-13.06983588361936
31
0.0
0
LINE
8
1
62
1
10
-34.45403723002298
20
-13.06983588361936
30
0.0
11
-34.257804034921406
21
-12.945623163775515
31
0.0
0
LINE
8
1
62
1
10
-34.257804034921406
20
-12.945623163775515
30
0.0
11
-34.088538953471485
21
-12.845791179864358
31
0.0
0
LINE
8
1
62
1
10
-34.088538953471485
20
-12.845791179864358
30
0.0
11
-33.94755286095761
21
-12.76849928932289
31
0.0
0
LINE
8
1
62
1
10
-33.94755286095761
20
-12.76849928932289
30
0.0
11
-33.83606687411371
21
-12.711849427752115
31
0.0
0
LINE
8
1
62
1
10
-33.83606687411371
20
-12.711849427752115
30
0.0
11
-33.75521006529167
21
-12.673889954162334
31
0.0
0
LINE
8
1
62
1
10
-33.75521006529167
20
-12.673889954162334
30
0.0
11
-33.70601733032453
21
-12.652619582258687
31
0.0
0
LINE
8
1
62
1
10
-33.70601733032453
20
-12.652619582258687
30
0.0
11
-33.6894274132056
21
-12.645991391884404
31
0.0
0
LINE
8
1
62
1
10
-33.6894274132056
20
-12.645991391884404
30
0.0
11
-31.754220983937028
21
-11.919573470146236
31
0.0
0
LINE
8
1
62
1
10
-31.754220983937028
20
-11.919573470146236
30
0.0
11
-32.95110344442376
21
-8.039375834093429
31
0.0
0
LINE
8
1
62
1
10
-32.95110344442376
20
-8.039375834093429
30
0.0
11
-34.95925181844306
21
-8.529321778895978
31
0.0
0
LINE
8
1
62
1
10
-34.95925181844306
20
-8.529321778895978
30
0.0
11
-34.976692843815904
21
-8.533190744079906
31
0.0
0
LINE
8
1
62
1
10
-34.976692843815904
20
-8.533190744079906
30
0.0
11
-35.0293198159962
21
-8.543327592386989
31
0.0
0
LINE
8
1
62
1
10
-35.0293198159962
20
-8.543327592386989
30
0.0
11
-35.11751017947909
21
-8.557512265694962
31
0.0
0
LINE
8
1
62
1
10
-35.11751017947909
20
-8.557512265694962
30
0.0
11
-35.241536227911745
21
-8.573508246087735
31
0.0
0
LINE
8
1
62
1
10
-35.241536227911745
20
-8.573508246087735
30
0.0
11
-35.40156447645368
21
-8.589066983003267
31
0.0
0
LINE
8
1
62
1
10
-35.40156447645368
20
-8.589066983003267
30
0.0
11
-35.5976552088588
21
-8.60193234248949
31
0.0
0
LINE
8
1
62
1
10
-35.5976552088588
20
-8.60193234248949
30
0.0
11
-35.829762200014315
21
-8.609845071949891
31
0.0
0
LINE
8
1
62
1
10
-35.829762200014315
20
-8.609845071949891
30
0.0
11
-36.09773261442818
21
-8.610547273736955
31
0.0
0
LINE
8
1
62
1
10
-36.09773261442818
20
-8.610547273736955
30
0.0
11
-36.40130708091212
21
-8.601786880937304
31
0.0
0
LINE
8
1
62
1
10
-36.40130708091212
20
-8.601786880937304
30
0.0
11
-36.74011994346263
21
-8.581322128686564
31
0.0
0
LINE
8
1
62
1
10
-36.74011994346263
20
-8.581322128686564
30
0.0
11
-37.11369968809745
21
-8.546926014355156
31
0.0
0
LINE
8
1
62
1
10
-37.11369968809745
20
-8.546926014355156
30
0.0
11
-37.52146954516037
21
-8.49639073995826
31
0.0
0
LINE
8
1
62
1
10
-37.52146954516037
20
-8.49639073995826
30
0.0
11
-37.96274826636323
21
-8.427532130163714
31
0.0
0
LINE
8
1
62
1
10
-37.96274826636323
20
-8.427532130163714
30
0.0
11
-38.436751075590585
21
-8.338194019301394
31
0.0
0
LINE
8
1
62
1
10
-38.436751075590585
20
-8.338194019301394
30
0.0
11
-38.94259079225062
21
-8.226252600815705
31
0.0
0
LINE
8
1
62
1
10
-38.94259079225062
20
-8.226252600815705
30
0.0
11
-39.479279125715244
21
-8.089620732649834
31
0.0
0
LINE
8
1
62
1
10
-39.479279125715244
20
-8.089620732649834
30
0.0
11
-40.04572813915351
21
-7.926252192106083
31
0.0
0
LINE
8
1
62
1
10
-40.04572813915351
20
-7.926252192106083
30
0.0
11
-40.640751880825846
21
-7.734145873790679
31
0.0
0
LINE
8
1
62
1
10
-40.640751880825846
20
-7.734145873790679
30
0.0
11
-41.26306818067221
21
-7.511349924324224
31
0.0
0
LINE
8
1
62
1
10
-41.26306818067221
20
-7.511349924324224
30
0.0
11
-41.643875093755284
21
-4.984861135895075
31
0.0
0
LINE
8
1
62
1
10
-41.643875093755284
20
-4.984861135895075
30
0.0
11
-41.114876819967684
21
-4.588532435845668
31
0.0
0
LINE
8
1
62
1
10
-41.114876819967684
20
-4.588532435845668
30
0.0
11
-40.60291264498897
21
-4.229574535488512
31
0.0
0
LINE
8
1
62
1
10
-40.60291264498897
20
-4.229574535488512
30
0.0
11
-40.109783094544206
21
-3.906500223073053
31
0.0
0
LINE
8
1
62
1
10
-40.109783094544206
20
-3.906500223073053
30
0.0
11
-39.637211268034044
21
-3.6177468621153253
31
0.0
0
LINE
8
1
62
1
10
-39.637211268034044
20
-3.6177468621153253
30
0.0
11
-39.18683990303669
21
-3.3616798128611824
31
0.0
0
LINE
8
1
62
1
10
-39.18683990303669
20
-3.3616798128611824
30
0.0
11
-38.76022857912156
21
-3.136595962895773
31
0.0
0
LINE
8
1
62
1
10
-38.76022857912156
20
-3.136595962895773
30
0.0
11
-38.35885106490772
21
-2.9407273614998983
31
0.0
0
LINE
8
1
62
1
10
-38.35885106490772
20
-2.9407273614998983
30
0.0
11
-37.984092812097835
21
-2.772244952215191
31
0.0
0
LINE
8
1
62
1
10
-37.984092812097835
20
-2.772244952215191
30
0.0
11
-37.6372486000111
21
-2.629262397949172
31
0.0
0
LINE
8
1
62
1
10
-37.6372486000111
20
-2.629262397949172
30
0.0
11
-37.31952033392621
21
-2.5098399928274784
31
0.0
0
LINE
8
1
62
1
10
-37.31952033392621
20
-2.5098399928274784
30
0.0
11
-37.03201500033069
21
-2.411988654884957
31
0.0
0
LINE
8
1
62
1
10
-37.03201500033069
20
-2.411988654884957
30
0.0
11
-36.77574278195134
21
-2.333673993579328
31
0.0
0
LINE
8
1
62
1
10
-36.77574278195134
20
-2.333673993579328
30
0.0
11
-36.551615335218116
21
-2.272820446011193
31
0.0
0
LINE
8
1
62
1
10
-36.551615335218116
20
-2.272820446011193
30
0.0
11
-36.36044423258588
21
-2.22731547564246
31
0.0
0
LINE
8
1
62
1
10
-36.36044423258588
20
-2.22731547564246
30
0.0
11
-36.202939571908466
21
-2.195013827221673
31
0.0
0
LINE
8
1
62
1
10
-36.202939571908466
20
-2.195013827221673
30
0.0
11
-36.07970875482656
21
-2.1737418315496346
31
0.0
0
LINE
8
1
62
1
10
-36.07970875482656
20
-2.1737418315496346
30
0.0
11
-35.99125543589507
21
-2.1613017536519337
31
0.0
0
LINE
8
1
62
1
10
-35.99125543589507
20
-2.1613017536519337
30
0.0
11
-35.93797864393798
21
-2.155476177866839
31
0.0
0
LINE
8
1
62
1
10
-35.93797864393798
20
-2.155476177866839
30
0.0
11
-35.920172076879076
21
-2.1540324233074553
31
0.0
0
LINE
8
1
62
1
10
-35.920172076879076
20
-2.1540324233074553
30
0.0
11
-33.856825998270395
21
-2.0302993202389366
31
0.0
0
LINE
8
1
62
1
10
-33.856825998270395
20
-2.0302993202389366
30
0.0
11
-33.856825998270395
21
2.0302993202389135
31
0.0
0
LINE
8
1
62
1
10
-33.856825998270395
20
2.0302993202389135
30
0.0
11
-35.92017207687908
21
2.1540324233074304
31
0.0
0
LINE
8
1
62
1
10
-35.92017207687908
20
2.1540324233074304
30
0.0
11
-35.93797864393798
21
2.1554761778668143
31
0.0
0
LINE
8
1
62
1
10
-35.93797864393798
20
2.1554761778668143
30
0.0
11
-35.99125543589507
21
2.161301753651909
31
0.0
0
LINE
8
1
62
1
10
-35.99125543589507
20
2.161301753651909
30
0.0
11
-36.07970875482657
21
2.1737418315496098
31
0.0
0
LINE
8
1
62
1
10
-36.07970875482657
20
2.1737418315496098
30
0.0
11
-36.202939571908466
21
2.195013827221648
31
0.0
0
LINE
8
1
62
1
10
-36.202939571908466
20
2.195013827221648
30
0.0
11
-36.360444232585884
21
2.2273154756424347
31
0.0
0
LINE
8
1
62
1
10
-36.360444232585884
20
2.2273154756424347
30
0.0
11
-36.551615335218116
21
2.272820446011168
31
0.0
0
LINE
8
1
62
1
10
-36.551615335218116
20
2.272820446011168
30
0.0
11
-36.775742781951344
21
2.3336739935793025
31
0.0
0
LINE
8
1
62
1
10
-36.775742781951344
20
2.3336739935793025
30
0.0
11
-37.032015000330695
21
2.411988654884932
31
0.0
0
LINE
8
1
62
1
10
-37.032015000330695
20
2.411988654884932
30
0.0
11
-37.319520333926214
21
2.5098399928274526
31
0.0
0
LINE
8
1
62
1
10
-37.319520333926214
20
2.5098399928274526
30
0.0
11
-37.6372486000111
21
2.6292623979491463
31
0.0
0
LINE
8
1
62
1
10
-37.6372486000111
20
2.6292623979491463
30
0.0
11
-37.98409281209784
21
2.7722449522151646
31
0.0
0
LINE
8
1
62
1
10
-37.98409281209784
20
2.7722449522151646
30
0.0
11
-38.35885106490772
21
2.9407273614998717
31
0.0
0
LINE
8
1
62
1
10
-38.35885106490772
20
2.9407273614998717
30
0.0
11
-38.760228579121566
21
3.1365959628957465
31
0.0
0
LINE
8
1
62
1
10
-38.760228579121566
20
3.1365959628957465
30
0.0
11
-39.1868399030367
21
3.361679812861156
31
0.0
0
LINE
8
1
62
1
10
-39.1868399030367
20
3.361679812861156
30
0.0
11
-39.637211268034044
21
3.6177468621152977
31
0.0
0
LINE
8
1
62
1
10
-39.637211268034044
20
3.6177468621152977
30
0.0
11
-40.10978309454421
21
3.9065002230730252
31
0.0
0
LINE
8
1
62
1
10
-40.10978309454421
20
3.9065002230730252
30
0.0
11
-40.60291264498897
21
4.229574535488484
31
0.0
0
LINE
8
1
62
1
10
-40.60291264498897
20
4.229574535488484
30
0.0
11
-41.11487681996769
21
4.588532435845639
31
0.0
0
LINE
8
1
62
1
10
-41.11487681996769
20
4.588532435845639
30
0.0
11
-41.64387509375529
21
4.984861135895047
31
0.0
0
LINE
8
1
62
1
10
-41.64387509375529
20
4.984861135895047
30
0.0
11
-41.263068180672214
21
7.511349924324197
31
0.0
0
LINE
8
1
62
1
10
-41.263068180672214
20
7.511349924324197
30
0.0
11
-40.64075188082586
21
7.73414587379065
31
0.0
0
LINE
8
1
62
1
10
-40.64075188082586
20
7.73414587379065
30
0.0
11
-40.04572813915352
21
7.926252192106054
31
0.0
0
LINE
8
1
62
1
10
-40.04572813915352
20
7.926252192106054
30
0.0
11
-39.47927912571526
21
8.089620732649808
31
0.0
0
LINE
8
1
62
1
10
-39.47927912571526
20
8.089620732649808
30
0.0
11
-38.94259079225063
21
8.226252600815679
31
0.0
0
LINE
8
1
62
1
10
-38.94259079225063
20
8.226252600815679
30
0.0
11
-38.436751075590585
21
8.338194019301367
31
0.0
0
LINE
8
1
62
1
10
-38.436751075590585
20
8.338194019301367
30
0.0
11
-37.962748266363235
21
8.427532130163689
31
0.0
0
LINE
8
1
62
1
10
-37.962748266363235
20
8.427532130163689
30
0.0
11
-37.52146954516038
21
8.496390739958233
31
0.0
0
LINE
8
1
62
1
10
-37.52146954516038
20
8.496390739958233
30
0.0
11
-37.113699688097455
21
8.54692601435513
31
0.0
0
LINE
8
1
62
1
10
-37.113699688097455
20
8.54692601435513
30
0.0
11
-36.74011994346264
21
8.581322128686539
31
0.0
0
LINE
8
1
62
1
10
-36.74011994346264
20
8.581322128686539
30
0.0
11
-36.401307080912126
21
8.60178688093728
31
0.0
0
LINE
8
1
62
1
10
-36.401307080912126
20
8.60178688093728
30
0.0
11
-36.09773261442819
21
8.61054727373693
31
0.0
0
LINE
8
1
62
1
10
-36.09773261442819
20
8.61054727373693
30
0.0
11
-35.82976220001432
21
8.609845071949866
31
0.0
0
LINE
8
1
62
1
10
-35.82976220001432
20
8.609845071949866
30
0.0
11
-35.597655208858804
21
8.601932342489466
31
0.0
0
LINE
8
1
62
1
10
-35.597655208858804
20
8.601932342489466
30
0.0
11
-35.401564476453686
21
8.589066983003242
31
0.0
0
LINE
8
1
62
1
10
-35.401564476453686
20
8.589066983003242
30
0.0
11
-35.24153622791175
21
8.573508246087712
31
0.0
0
LINE
8
1
62
1
10
-35.24153622791175
20
8.573508246087712
30
0.0
11
-35.1175101794791
21
8.557512265694937
31
0.0
0
LINE
8
1
62
1
10
-35.1175101794791
20
8.557512265694937
30
0.0
11
-35.02931981599621
21
8.543327592386966
31
0.0
0
LINE
8
1
62
1
10
-35.02931981599621
20
8.543327592386966
30
0.0
11
-34.97669284381591
21
8.533190744079882
31
0.0
0
LINE
8
1
62
1
10
-34.97669284381591
20
8.533190744079882
30
0.0
11
-34.959251818443065
21
8.529321778895953
31
0.0
0
LINE
8
1
62
1
10
-34.959251818443065
20
8.529321778895953
30
0.0
11
-32.951103444423765
21
8.039375834093406
31
0.0
0
LINE
8
1
62
1
10
-32.951103444423765
20
8.039375834093406
30
0.0
11
-31.75422098393703
21
11.919573470146227
31
0.0
0
LINE
8
1
62
1
10
-31.75422098393703
20
11.919573470146227
30
0.0
11
-33.6894274132056
21
12.645991391884396
31
0.0
0
LINE
8
1
62
1
10
-33.6894274132056
20
12.645991391884396
30
0.0
11
-33.706017330324535
21
12.652619582258678
31
0.0
0
LINE
8
1
62
1
10
-33.706017330324535
20
12.652619582258678
30
0.0
11
-33.75521006529168
21
12.673889954162325
31
0.0
0
LINE
8
1
62
1
10
-33.75521006529168
20
12.673889954162325
30
0.0
11
-33.83606687411372
21
12.711849427752107
31
0.0
0
LINE
8
1
62
1
10
-33.83606687411372
20
12.711849427752107
30
0.0
11
-33.947552860957614
21
12.768499289322882
31
0.0
0
LINE
8
1
62
1
10
-33.947552860957614
20
12.768499289322882
30
0.0
11
-34.08853895347149
21
12.845791179864351
31
0.0
0
LINE
8
1
62
1
10
-34.08853895347149
20
12.845791179864351
30
0.0
11
-34.257804034921406
21
12.945623163775506
31
0.0
0
LINE
8
1
62
1
10
-34.257804034921406
20
12.945623163775506
30
0.0
11
-34.45403723002299
21
13.069835883619351
31
0.0
0
LINE
8
1
62
1
10
-34.45403723002299
20
13.069835883619351
30
0.0
11
-34.67584034113271
21
13.220208806682436
31
0.0
0
LINE
8
1
62
1
10
-34.67584034113271
20
13.220208806682436
30
0.0
11
-34.92173043125348
21
13.398456568978114
31
0.0
0
LINE
8
1
62
1
10
-34.92173043125348
20
13.398456568978114
30
0.0
11
-35.19014255010356
21
13.606225422199104
31
0.0
0
LINE
8
1
62
1
10
-35.19014255010356
20
13.606225422199104
30
0.0
11
-35.47943259929758
21
13.845089788984593
31
0.0
0
LINE
8
1
62
1
10
-35.47943259929758
20
13.845089788984593
30
0.0
11
-35.78788033249274
21
14.11654893171929
31
0.0
0
LINE
8
1
62
1
10
-35.78788033249274
20
14.11654893171929
30
0.0
11
-36.11369248616347
21
14.42202373992727
31
0.0
0
LINE
8
1
62
1
10
-36.11369248616347
20
14.42202373992727
30
0.0
11
-36.45500603648357
21
14.762853641162138
31
0.0
0
LINE
8
1
62
1
10
-36.45500603648357
20
14.762853641162138
30
0.0
11
-36.80989157761602
21
15.140293640126764
31
0.0
0
LINE
8
1
62
1
10
-36.80989157761602
20
15.140293640126764
30
0.0
11
-37.17635681653899
21
15.555511490582001
31
0.0
0
LINE
8
1
62
1
10
-37.17635681653899
20
15.555511490582001
30
0.0
11
-37.552350179369846
21
16.009585004422785
31
0.0
0
LINE
8
1
62
1
10
-37.552350179369846
20
16.009585004422785
30
0.0
11
-37.9357645239903
21
16.50349950211416
31
0.0
0
LINE
8
1
62
1
10
-37.9357645239903
20
16.50349950211416
30
0.0
11
-38.324440953622435
21
17.03814540848728
31
0.0
0
LINE
8
1
62
1
10
-38.324440953622435
20
17.03814540848728
30
0.0
11
-37.215856579744255
21
19.340144580751073
31
0.0
0
LINE
8
1
62
1
10
-37.215856579744255
20
19.340144580751073
30
0.0
11
-36.555517788070595
21
19.369611381800556
31
0.0
0
LINE
8
1
62
1
10
-36.555517788070595
20
19.369611381800556
30
0.0
11
-35.930304950370896
21
19.377796628647193
31
0.0
0
LINE
8
1
62
1
10
-35.930304950370896
20
19.377796628647193
30
0.0
11
-35.340867954603674
21
19.366943385560894
31
0.0
0
LINE
8
1
62
1
10
-35.340867954603674
20
19.366943385560894
30
0.0
11
-34.78775022783088
21
19.33931341984929
31
0.0
0
LINE
8
1
62
1
10
-34.78775022783088
20
19.33931341984929
30
0.0
11
-34.271388238174424
21
19.297182721287253
31
0.0
0
LINE
8
1
62
1
10
-34.271388238174424
20
19.297182721287253
30
0.0
11
-33.79211117336176
21
19.242837009842525
31
0.0
0
LINE
8
1
62
1
10
-33.79211117336176
20
19.242837009842525
30
0.0
11
-33.350140796068544
21
19.178567238374463
31
0.0
0
LINE
8
1
62
1
10
-33.350140796068544
20
19.178567238374463
30
0.0
11
-32.94559147602115
21
19.106665096982987
31
0.0
0
LINE
8
1
62
1
10
-32.94559147602115
20
19.106665096982987
30
0.0
11
-32.57847039857678
21
19.029418525676572
31
0.0
0
LINE
8
1
62
1
10
-32.57847039857678
20
19.029418525676572
30
0.0
11
-32.24867794925401
21
18.949107242010797
31
0.0
0
LINE
8
1
62
1
10
-32.24867794925401
20
18.949107242010797
30
0.0
11
-31.956008273443352
21
18.867998290322976
31
0.0
0
LINE
8
1
62
1
10
-31.956008273443352
20
18.867998290322976
30
0.0
11
-31.70015001028444
21
18.788341619153567
31
0.0
0
LINE
8
1
62
1
10
-31.70015001028444
20
18.788341619153567
30
0.0
11
-31.48068719945555
21
18.71236569340163
31
0.0
0
LINE
8
1
62
1
10
-31.48068719945555
20
18.71236569340163
30
0.0
11
-31.29710035938175
21
18.6422731477095
31
0.0
0
LINE
8
1
62
1
10
-31.29710035938175
20
18.6422731477095
30
0.0
11
-31.14876773513064
21
18.580236487510987
31
0.0
0
LINE
8
1
62
1
10
-31.14876773513064
20
18.580236487510987
30
0.0
11
-31.03496671402983
21
18.5283938441085
31
0.0
0
LINE
8
1
62
1
10
-31.03496671402983
20
18.5283938441085
30
0.0
11
-30.95487540680804
21
18.488844790066683
31
0.0
0
LINE
8
1
62
1
10
-30.95487540680804
20
18.488844790066683
30
0.0
11
-30.907574391832412
21
18.463646221124332
31
0.0
0
LINE
8
1
62
1
10
-30.907574391832412
20
18.463646221124332
30
0.0
11
-30.89204861978867
21
18.454808310732357
31
0.0
0
LINE
8
1
62
1
10
-30.89204861978867
20
18.454808310732357
30
0.0
11
-29.117530746004366
21
17.394717165346812
31
0.0
0
LINE
8
1
62
1
10
-29.117530746004366
20
17.394717165346812
30
0.0
11
-26.830114084077312
21
20.749741209044437
31
0.0
0
LINE
8
1
62
1
10
-26.830114084077312
20
20.749741209044437
30
0.0
11
-28.46522928025172
21
22.01429852927328
31
0.0
0
LINE
8
1
62
1
10
-28.46522928025172
20
22.01429852927328
30
0.0
11
-28.479128460491015
21
22.025522211660366
31
0.0
0
LINE
8
1
62
1
10
-28.479128460491015
20
22.025522211660366
30
0.0
11
-28.519866148087615
21
22.06034741379544
31
0.0
0
LINE
8
1
62
1
10
-28.519866148087615
20
22.06034741379544
30
0.0
11
-28.58594196450211
21
22.120453417266443
31
0.0
0
LINE
8
1
62
1
10
-28.58594196450211
20
22.120453417266443
30
0.0
11
-28.675777101928716
21
22.20744755593157
31
0.0
0
LINE
8
1
62
1
10
-28.675777101928716
20
22.20744755593157
30
0.0
11
-28.78771739325193
21
22.322861964929235
31
0.0
0
LINE
8
1
62
1
10
-28.78771739325193
20
22.322861964929235
30
0.0
11
-28.920036508225127
21
22.468150452506865
31
0.0
0
LINE
8
1
62
1
10
-28.920036508225127
20
22.468150452506865
30
0.0
11
-29.0709392711551
21
22.64468549936975
31
0.0
0
LINE
8
1
62
1
10
-29.0709392711551
20
22.64468549936975
30
0.0
11
-29.238565095206173
21
22.853755390075435
31
0.0
0
LINE
8
1
62
1
10
-29.238565095206173
20
22.853755390075435
30
0.0
11
-29.420991528274065
21
23.096561480816874
31
0.0
0
LINE
8
1
62
1
10
-29.420991528274065
20
23.096561480816874
30
0.0
11
-29.61623790522234
21
23.374215607749882
31
0.0
0
LINE
8
1
62
1
10
-29.61623790522234
20
23.374215607749882
30
0.0
11
-29.82226910112427
21
23.687737639826942
31
0.0
0
LINE
8
1
62
1
10
-29.82226910112427
20
23.687737639826942
30
0.0
11
-30.036999380009746
21
24.038053179900825
31
0.0
0
LINE
8
1
62
1
10
-30.036999380009746
20
24.038053179900825
30
0.0
11
-30.25829633348063
21
24.425991417657517
31
0.0
0
LINE
8
1
62
1
10
-30.25829633348063
20
24.425991417657517
30
0.0
11
-30.483984903429896
21
24.852283137729735
31
0.0
0
LINE
8
1
62
1
10
-30.483984903429896
20
24.852283137729735
30
0.0
11
-30.7118514829783
21
25.317558886128687
31
0.0
0
LINE
8
1
62
1
10
-30.7118514829783
20
25.317558886128687
30
0.0
11
-30.939648089629557
21
25.822347297914963
31
0.0
0
LINE
8
1
62
1
10
-30.939648089629557
20
25.822347297914963
30
0.0
11
-31.165096604539293
21
26.367073588807525
31
0.0
0
LINE
8
1
62
1
10
-31.165096604539293
20
26.367073588807525
30
0.0
11
-31.385893071695815
21
26.952058213205166
31
0.0
0
LINE
8
1
62
1
10
-31.385893071695815
20
26.952058213205166
30
0.0
11
-31.599712050721248
21
27.57751569086583
31
0.0
0
LINE
8
1
62
1
10
-31.599712050721248
20
27.57751569086583
30
0.0
11
-29.861852802609434
21
29.45048251835165
31
0.0
0
LINE
8
1
62
1
10
-29.861852802609434
20
29.45048251835165
30
0.0
11
-29.22216551859773
21
29.284001916397994
31
0.0
0
LINE
8
1
62
1
10
-29.22216551859773
20
29.284001916397994
30
0.0
11
-28.62231648920164
21
29.107538796673172
31
0.0
0
LINE
8
1
62
1
10
-28.62231648920164
20
29.107538796673172
30
0.0
11
-28.06226557488103
21
28.923428128233713
31
0.0
0
LINE
8
1
62
1
10
-28.06226557488103
20
28.923428128233713
30
0.0
11
-27.54186539214098
21
28.73399137235022
31
0.0
0
LINE
8
1
62
1
10
-27.54186539214098
20
28.73399137235022
30
0.0
11
-27.06086215828636
21
28.541532054195212
31
0.0
0
LINE
8
1
62
1
10
-27.06086215828636
20
28.541532054195212
30
0.0
11
-26.618896708369753
21
28.34833137539753
31
0.0
0
LINE
8
1
62
1
10
-26.618896708369753
20
28.34833137539753
30
0.0
11
-26.215505682563734
21
28.156643873905043
31
0.0
0
LINE
8
1
62
1
10
-26.215505682563734
20
28.156643873905043
30
0.0
11
-25.85012288195353
21
27.96869313752518
31
0.0
0
LINE
8
1
62
1
10
-25.85012288195353
20
27.96869313752518
30
0.0
11
-25.52208079051485
21
27.786667577432517
31
0.0
0
LINE
8
1
62
1
10
-25.52208079051485
20
27.786667577432517
30
0.0
11
-25.230612260812475
21
27.612716267844192
31
0.0
0
LINE
8
1
62
1
10
-25.230612260812475
20
27.612716267844192
30
0.0
11
-24.974852360730594
21
27.448944857967135
31
0.0
0
LINE
8
1
62
1
10
-24.974852360730594
20
27.448944857967135
30
0.0
11
-24.753840378323794
21
27.29741156221632
31
0.0
0
LINE
8
1
62
1
10
-24.753840378323794
20
27.29741156221632
30
0.0
11
-24.56652198166036
21
27.160123234590763
31
0.0
0
LINE
8
1
62
1
10
-24.56652198166036
20
27.160123234590763
30
0.0
11
-24.41175153031602
21
27.039031532973542
31
0.0
0
LINE
8
1
62
1
10
-24.41175153031602
20
27.039031532973542
30
0.0
11
-24.28829453496745
21
26.936029178994083
31
0.0
0
LINE
8
1
62
1
10
-24.28829453496745
20
26.936029178994083
30
0.0
11
-24.19483026133084
21
26.852946318955894
31
0.0
0
LINE
8
1
62
1
10
-24.19483026133084
20
26.852946318955894
30
0.0
11
-24.129954474491715
21
26.791546991190007
31
0.0
0
LINE
8
1
62
1
10
-24.129954474491715
20
26.791546991190007
30
0.0
11
-24.092182319478432
21
26.753525705045018
31
0.0
0
LINE
8
1
62
1
10
-24.092182319478432
20
26.753525705045018
30
0.0
11
-24.07995133374361
21
26.740504136567857
31
0.0
0
LINE
8
1
62
1
10
-24.07995133374361
20
26.740504136567857
30
0.0
11
-22.69673766062346
21
25.20446154100019
31
0.0
0
LINE
8
1
62
1
10
-22.69673766062346
20
25.20446154100019
30
0.0
11
-19.52203380583103
21
27.73620338277954
31
0.0
0
LINE
8
1
62
1
10
-19.52203380583103
20
27.73620338277954
30
0.0
11
-20.711770608146328
21
29.42653863417832
31
0.0
0
LINE
8
1
62
1
10
-20.711770608146328
20
29.42653863417832
30
0.0
11
-20.721744048346178
21
29.441360535143808
31
0.0
0
LINE
8
1
62
1
10
-20.721744048346178
20
29.441360535143808
30
0.0
11
-20.750406966254886
21
29.486646195472723
31
0.0
0
LINE
8
1
62
1
10
-20.750406966254886
20
29.486646195472723
30
0.0
11
-20.795830664004452
21
29.563558046645696
31
0.0
0
LINE
8
1
62
1
10
-20.795830664004452
20
29.563558046645696
30
0.0
11
-20.856032705818414
21
29.673166651417286
31
0.0
0
LINE
8
1
62
1
10
-20.856032705818414
20
29.673166651417286
30
0.0
11
-20.928980809825017
21
29.816448502143917
31
0.0
0
LINE
8
1
62
1
10
-20.928980809825017
20
29.816448502143917
30
0.0
11
-21.012596824283257
21
29.994283973678716
31
0.0
0
LINE
8
1
62
1
10
-21.012596824283257
20
29.994283973678716
30
0.0
11
-21.104760782329425
21
30.207455433935582
31
0.0
0
LINE
8
1
62
1
10
-21.104760782329425
20
30.207455433935582
30
0.0
11
-21.203315029241104
21
30.45664551500656
31
0.0
0
LINE
8
1
62
1
10
-21.203315029241104
20
30.45664551500656
30
0.0
11
-21.306068416112822
21
30.74243554749441
31
0.0
0
LINE
8
1
62
1
10
-21.306068416112822
20
30.74243554749441
30
0.0
11
-21.410800553742817
21
31.06530416049637
31
0.0
0
LINE
8
1
62
1
10
-21.410800553742817
20
31.06530416049637
30
0.0
11
-21.515266120443762
21
31.42562604944618
31
0.0
0
LINE
8
1
62
1
10
-21.515266120443762
20
31.42562604944618
30
0.0
11
-21.617199217412267
21
31.823670913789257
31
0.0
0
LINE
8
1
62
1
10
-21.617199217412267
20
31.823670913789257
30
0.0
11
-21.71431776522174
21
32.25960256623106
31
0.0
0
LINE
8
1
62
1
10
-21.71431776522174
20
32.25960256623106
30
0.0
11
-21.804327934942208
21
32.733478215061815
31
0.0
0
LINE
8
1
62
1
10
-21.804327934942208
20
32.733478215061815
30
0.0
11
-21.88492860733767
21
33.24524792082085
31
0.0
0
LINE
8
1
62
1
10
-21.88492860733767
20
33.24524792082085
30
0.0
11
-21.953815853547308
21
33.7947542283235
31
0.0
0
LINE
8
1
62
1
10
-21.953815853547308
20
33.7947542283235
30
0.0
11
-22.008687430621684
21
34.38173197483008
31
0.0
0
LINE
8
1
62
1
10
-22.008687430621684
20
34.38173197483008
30
0.0
11
-22.047247285258084
21
35.005808274893525
31
0.0
0
LINE
8
1
62
1
10
-22.047247285258084
20
35.005808274893525
30
0.0
11
-22.067210059061274
21
35.66650268217664
31
0.0
0
LINE
8
1
62
1
10
-22.067210059061274
20
35.66650268217664
30
0.0
11
-19.854492357380188
21
36.94401584288287
31
0.0
0
LINE
8
1
62
1
10
-19.854492357380188
20
36.94401584288287
30
0.0
11
-19.292295603436298
21
36.59638036999774
31
0.0
0
LINE
8
1
62
1
10
-19.292295603436298
20
36.59638036999774
30
0.0
11
-18.77110960099976
21
36.250948406284664
31
0.0
0
LINE
8
1
62
1
10
-18.77110960099976
20
36.250948406284664
30
0.0
11
-18.290207749606104
21
35.909939353339254
31
0.0
0
LINE
8
1
62
1
10
-18.290207749606104
20
35.909939353339254
30
0.0
11
-17.848764950873846
21
35.57552809437363
31
0.0
0
LINE
8
1
62
1
10
-17.848764950873846
20
35.57552809437363
30
0.0
11
-17.445859720996964
21
35.249841011637535
31
0.0
0
LINE
8
1
62
1
10
-17.445859720996964
20
35.249841011637535
30
0.0
11
-17.080476455734935
21
34.934952093645286
31
0.0
0
LINE
8
1
62
1
10
-17.080476455734935
20
34.934952093645286
30
0.0
11
-16.751507844311334
21
34.63287913784272
31
0.0
0
LINE
8
1
62
1
10
-16.751507844311334
20
34.63287913784272
30
0.0
11
-16.45775742842855
21
34.34558005421004
31
0.0
0
LINE
8
1
62
1
10
-16.45775742842855
20
34.34558005421004
30
0.0
11
-16.197942302408894
21
34.074949275151376
31
0.0
0
LINE
8
1
62
1
10
-16.197942302408894
20
34.074949275151376
30
0.0
11
-15.970695950279543
21
33.82281427687017
31
0.0
0
LINE
8
1
62
1
10
-15.970695950279543
20
33.82281427687017
30
0.0
11
-15.774571215432548
21
33.59093221727045
31
0.0
0
LINE
8
1
62
1
10
-15.774571215432548
20
33.59093221727045
30
0.0
11
-15.608043398309817
21
33.380986695258606
31
0.0
0
LINE
8
1
62
1
10
-15.608043398309817
20
33.380986695258606
30
0.0
11
-15.469513477388627
21
33.19458463614886
31
0.0
0
LINE
8
1
62
1
10
-15.469513477388627
20
33.19458463614886
30
0.0
11
-15.357311448574627
21
33.03325330769743
31
0.0
0
LINE
8
1
62
1
10
-15.357311448574627
20
33.03325330769743
30
0.0
11
-15.269699777947414
21
32.898437471106476
31
0.0
0
LINE
8
1
62
1
10
-15.269699777947414
20
32.898437471106476
30
0.0
11
-15.20487696264883
21
32.7914966711501
31
0.0
0
LINE
8
1
62
1
10
-15.20487696264883
20
32.7914966711501
30
0.0
11
-15.160981194555733
21
32.71370266937867
31
0.0
0
LINE
8
1
62
1
10
-15.160981194555733
20
32.71370266937867
30
0.0
11
-15.136094121238092
21
32.666237024158676
31
0.0
0
LINE
8
1
62
1
10
-15.136094121238092
20
32.666237024158676
30
0.0
11
-15.12824469856953
21
32.65018882109974
31
0.0
0
LINE
8
1
62
1
10
-15.12824469856953
20
32.65018882109974
30
0.0
11
-14.259239831103478
21
30.774678900778035
31
0.0
0
LINE
8
1
62
1
10
-14.259239831103478
20
30.774678900778035
30
0.0
11
-10.479335152902344
21
32.258182167630984
31
0.0
0
LINE
8
1
62
1
10
-10.479335152902344
20
32.258182167630984
30
0.0
11
-11.117980225398856
21
34.22410164519886
31
0.0
0
LINE
8
1
62
1
10
-11.117980225398856
20
34.22410164519886
30
0.0
11
-11.123141741629787
21
34.241204773797115
31
0.0
0
LINE
8
1
62
1
10
-11.123141741629787
20
34.241204773797115
30
0.0
11
-11.137183063809264
21
34.292927062666806
31
0.0
0
LINE
8
1
62
1
10
-11.137183063809264
20
34.292927062666806
30
0.0
11
-11.157918548010244
21
34.37981080604293
31
0.0
0
LINE
8
1
62
1
10
-11.157918548010244
20
34.37981080604293
30
0.0
11
-11.183138278604082
21
34.50229467137759
31
0.0
0
LINE
8
1
62
1
10
-11.183138278604082
20
34.50229467137759
30
0.0
11
-11.210612436125604
21
34.66071274261408
31
0.0
0
LINE
8
1
62
1
10
-11.210612436125604
20
34.66071274261408
30
0.0
11
-11.238095700241434
21
34.85529373604207
31
0.0
0
LINE
8
1
62
1
10
-11.238095700241434
20
34.85529373604207
30
0.0
11
-11.263331681276526
21
35.08616038996155
31
0.0
0
LINE
8
1
62
1
10
-11.263331681276526
20
35.08616038996155
30
0.0
11
-11.284057373712514
21
35.35332902914201
31
0.0
0
LINE
8
1
62
1
10
-11.284057373712514
20
35.35332902914201
30
0.0
11
-11.298007625038696
21
35.656709304820815
31
0.0
0
LINE
8
1
62
1
10
-11.298007625038696
20
35.656709304820815
30
0.0
11
-11.302919613312572
21
35.99610411074094
31
0.0
0
LINE
8
1
62
1
10
-11.302919613312572
20
35.99610411074094
30
0.0
11
-11.296537326771567
21
36.37120967548374
31
0.0
0
LINE
8
1
62
1
10
-11.296537326771567
20
36.37120967548374
30
0.0
11
-11.276616038831424
21
36.78161583110801
31
0.0
0
LINE
8
1
62
1
10
-11.276616038831424
20
36.78161583110801
30
0.0
11
-11.240926771808875
21
37.22680645786094
31
0.0
0
LINE
8
1
62
1
10
-11.240926771808875
20
37.22680645786094
30
0.0
11
-11.187260742717763
21
37.70616010448258
31
0.0
0
LINE
8
1
62
1
10
-11.187260742717763
20
37.70616010448258
30
0.0
11
-11.113433784507722
21
38.21895078338065
31
0.0
0
LINE
8
1
62
1
10
-11.113433784507722
20
38.21895078338065
30
0.0
11
-11.01729073614331
21
38.764348939709336
31
0.0
0
LINE
8
1
62
1
10
-11.01729073614331
20
38.764348939709336
30
0.0
11
-10.896709794959314
21
39.34142259314342
31
0.0
0
LINE
8
1
62
1
10
-10.896709794959314
20
39.34142259314342
30
0.0
11
-10.749606824774016
21
39.949138650898284
31
0.0
0
LINE
8
1
62
1
10
-10.749606824774016
20
39.949138650898284
30
0.0
11
-10.573939613297359
21
40.58636439030711
31
0.0
0
LINE
8
1
62
1
10
-10.573939613297359
20
40.58636439030711
30
0.0
11
-8.082973136193115
21
41.154911233630784
31
0.0
0
LINE
8
1
62
1
10
-8.082973136193115
20
41.154911233630784
30
0.0
11
-7.648220561064761
21
40.657009827153175
31
0.0
0
LINE
8
1
62
1
10
-7.648220561064761
20
40.657009827153175
30
0.0
11
-7.252007249091366
21
40.17330216533095
31
0.0
0
LINE
8
1
62
1
10
-7.252007249091366
20
40.17330216533095
30
0.0
11
-6.892984700524003
21
39.705694878727364
31
0.0
0
LINE
8
1
62
1
10
-6.892984700524003
20
39.705694878727364
30
0.0
11
-6.569723415706717
21
39.25602302457834
31
0.0
0
LINE
8
1
62
1
10
-6.569723415706717
20
39.25602302457834
30
0.0
11
-6.28071608760261
21
38.826046903816476
31
0.0
0
LINE
8
1
62
1
10
-6.28071608760261
20
38.826046903816476
30
0.0
11
-6.024380913571738
21
38.41744900886053
31
0.0
0
LINE
8
1
62
1
10
-6.024380913571738
20
38.41744900886053
30
0.0
11
-5.799065021310518
21
38.03183110649629
31
0.0
0
LINE
8
1
62
1
10
-5.799065021310518
20
38.03183110649629
30
0.0
11
-5.603048003708808
21
37.670711459982805
31
0.0
0
LINE
8
1
62
1
10
-5.603048003708808
20
37.670711459982805
30
0.0
11
-5.434545557234918
21
37.33552219432112
31
0.0
0
LINE
8
1
62
1
10
-5.434545557234918
20
37.33552219432112
30
0.0
11
-5.29171321831948
21
37.02760680842054
31
0.0
0
LINE
8
1
62
1
10
-5.29171321831948
20
37.02760680842054
30
0.0
11
-5.172650192077749
21
36.74821783769124
31
0.0
0
LINE
8
1
62
1
10
-5.172650192077749
20
36.74821783769124
30
0.0
11
-5.075403267585729
21
36.49851467037987
31
0.0
0
LINE
8
1
62
1
10
-5.075403267585729
20
36.49851467037987
30
0.0
11
-4.99797081380918
21
36.279561520749816
31
0.0
0
LINE
8
1
62
1
10
-4.99797081380918
20
36.279561520749816
30
0.0
11
-4.938306850176136
21
36.092325561987934
31
0.0
0
LINE
8
1
62
1
10
-4.938306850176136
20
36.092325561987934
30
0.0
11
-4.894325185682995
21
35.937675221496164
31
0.0
0
LINE
8
1
62
1
10
-4.894325185682995
20
35.937675221496164
30
0.0
11
-4.863903620331954
21
35.816378640999694
31
0.0
0
LINE
8
1
62
1
10
-4.863903620331954
20
35.816378640999694
30
0.0
11
-4.844888202613356
21
35.72910230367345
31
0.0
0
LINE
8
1
62
1
10
-4.844888202613356
20
35.72910230367345
30
0.0
11
-4.835097536670756
21
35.67640983025582
31
0.0
0
LINE
8
1
62
1
10
-4.835097536670756
20
35.67640983025582
30
0.0
11
-4.832327132719176
21
35.658760945883266
31
0.0
0
LINE
8
1
62
1
10
-4.832327132719176
20
35.658760945883266
30
0.0
11
-4.554745966946632
21
33.610430987767835
31
0.0
0
LINE
8
1
62
1
10
-4.554745966946632
20
33.610430987767835
30
0.0
11
-0.5055015838334271
21
33.913879904187645
31
0.0
0
LINE
8
1
62
1
10
-0.5055015838334271
20
33.913879904187645
30
0.0
11
-0.5363085091721008
21
35.98070303504717
31
0.0
0
LINE
8
1
62
1
10
-0.5363085091721008
20
35.98070303504717
30
0.0
11
-0.5361994780660497
21
35.99856770324641
31
0.0
0
LINE
8
1
62
1
10
-0.5361994780660497
20
35.99856770324641
30
0.0
11
-0.534371571421325
21
36.05213086831126
31
0.0
0
LINE
8
1
62
1
10
-0.534371571421325
20
36.05213086831126
30
0.0
11
-0.5285764033062882
21
36.14126650200854
31
0.0
0
LINE
8
1
62
1
10
-0.5285764033062882
20
36.14126650200854
30
0.0
11
-0.5165729389417724
21
36.265742398959695
31
0.0
0
LINE
8
1
62
1
10
-0.5165729389417724
20
36.265742398959695
30
0.0
11
-0.4961319505140733
21
36.425220549870424
31
0.0
0
LINE
8
1
62
1
10
-0.4961319505140733
20
36.425220549870424
30
0.0
11
-0.46504045566248264
21
36.61925769002091
31
0.0
0
LINE
8
1
62
1
10
-0.46504045566248264
20
36.61925769002091
30
0.0
11
-0.4211061320252537
21
36.84730602226063
31
0.0
0
LINE
8
1
62
1
10
-0.4211061320252537
20
36.84730602226063
30
0.0
11
-0.3621617012594114
21
37.10871411350913
31
0.0
0
LINE
8
1
62
1
10
-0.3621617012594114
20
37.10871411350913
30
0.0
11
-0.2860692759900601
21
37.40272796352243
31
0.0
0
LINE
8
1
62
1
10
-0.2860692759900601
20
37.40272796352243
30
0.0
11
-0.19072466319377407
21
37.72849224444513
31
0.0
0
LINE
8
1
62
1
10
-0.19072466319377407
20
37.72849224444513
30
0.0
11
-0.07406161757818874
21
38.08505170942987
31
0.0
0
LINE
8
1
62
1
10
-0.07406161757818874
20
38.08505170942987
30
0.0
11
0.0659439614139885
21
38.47135276837037
31
0.0
0
LINE
8
1
62
1
10
0.0659439614139885
20
38.47135276837037
30
0.0
11
0.23126989527383413
21
38.88624522856052
31
0.0
0
LINE
8
1
62
1
10
0.23126989527383413
20
38.88624522856052
30
0.0
11
0.423843660982293
21
39.32848419786189
31
0.0
0
LINE
8
1
62
1
10
0.423843660982293
20
39.32848419786189
30
0.0
11
0.645538400576606
21
39.796732147734076
31
0.0
0
LINE
8
1
62
1
10
0.645538400576606
20
39.796732147734076
30
0.0
11
0.8981690117510673
21
40.28956113325862
31
0.0
0
LINE
8
1
62
1
10
0.8981690117510673
20
40.28956113325862
30
0.0
11
1.1834883254084936
21
40.80545516706656
31
0.0
0
LINE
8
1
62
1
10
1.1834883254084936
20
40.80545516706656
30
0.0
11
1.503183375963777
21
41.34281274386335
31
0.0
0
LINE
8
1
62
1
10
1.503183375963777
20
41.34281274386335
30
0.0
11
1.8588717700777215
21
41.89994951203231
31
0.0
0
LINE
8
1
62
1
10
1.8588717700777215
20
41.89994951203231
30
0.0
11
4.406753719688079
21
41.709012155917385
31
0.0
0
LINE
8
1
62
1
10
4.406753719688079
20
41.709012155917385
30
0.0
11
4.6754324418204884
21
41.10508554081716
31
0.0
0
LINE
8
1
62
1
10
4.6754324418204884
20
41.10508554081716
30
0.0
11
4.9114677718084225
21
40.5260817293548
31
0.0
0
LINE
8
1
62
1
10
4.9114677718084225
20
40.5260817293548
30
0.0
11
5.116710288564779
21
39.973425168568546
31
0.0
0
LINE
8
1
62
1
10
5.116710288564779
20
39.973425168568546
30
0.0
11
5.293066875702296
21
39.448448036829696
31
0.0
0
LINE
8
1
62
1
10
5.293066875702296
20
39.448448036829696
30
0.0
11
5.442496732643807
21
38.95238814329089
31
0.0
0
LINE
8
1
62
1
10
5.442496732643807
20
38.95238814329089
30
0.0
11
5.567007310322496
21
38.4863869874404
31
0.0
0
LINE
8
1
62
1
10
5.567007310322496
20
38.4863869874404
30
0.0
11
5.668650177611419
21
38.05148798139584
31
0.0
0
LINE
8
1
62
1
10
5.668650177611419
20
38.05148798139584
30
0.0
11
5.749516824711632
21
37.64863483734175
31
0.0
0
LINE
8
1
62
1
10
5.749516824711632
20
37.64863483734175
30
0.0
11
5.811734409809741
21
37.27867012228494
31
0.0
0
LINE
8
1
62
1
10
5.811734409809741
20
37.27867012228494
30
0.0
11
5.857461455389236
21
36.942333982066664
31
0.0
0
LINE
8
1
62
1
10
5.857461455389236
20
36.942333982066664
30
0.0
11
5.888883500644639
21
36.6402630363354
31
0.0
0
LINE
8
1
62
1
10
5.888883500644639
20
36.6402630363354
30
0.0
11
5.908208716503734
21
36.37298944594442
31
0.0
0
LINE
8
1
62
1
10
5.908208716503734
20
36.37298944594442
30
0.0
11
5.917663489810871
21
36.140940153998734
31
0.0
0
LINE
8
1
62
1
10
5.917663489810871
20
36.140940153998734
30
0.0
11
5.9194879832631715
21
35.944436301533884
31
0.0
0
LINE
8
1
62
1
10
5.9194879832631715
20
35.944436301533884
30
0.0
11
5.915931677721671
21
35.78369281856583
31
0.0
0
LINE
8
1
62
1
10
5.915931677721671
20
35.78369281856583
30
0.0
11
5.909248903540886
21
35.658818191007654
31
0.0
0
LINE
8
1
62
1
10
5.909248903540886
20
35.658818191007654
30
0.0
11
5.9016943675729
21
35.56981440370393
31
0.0
0
LINE
8
1
62
1
10
5.9016943675729
20
35.56981440370393
30
0.0
11
5.8955186825058306
21
35.516577059588926
31
0.0
0
LINE
8
1
62
1
10
5.8955186825058306
20
35.516577059588926
30
0.0
11
5.892963905191612
21
35.49889567473011
31
0.0
0
LINE
8
1
62
1
10
5.892963905191612
20
35.49889567473011
30
0.0
11
5.554457064546875
21
33.45974878454747
31
0.0
0
LINE
8
1
62
1
10
5.554457064546875
20
33.45974878454747
30
0.0
11
9.51324801931625
21
32.55618058264661
31
0.0
0
LINE
8
1
62
1
10
9.51324801931625
20
32.55618058264661
30
0.0
11
10.093016571645723
21
34.54026106151701
31
0.0
0
LINE
8
1
62
1
10
10.093016571645723
20
34.54026106151701
30
0.0
11
10.098386462196508
21
34.55729991514991
31
0.0
0
LINE
8
1
62
1
10
10.098386462196508
20
34.55729991514991
30
0.0
11
10.115921180138415
21
34.60794463413585
31
0.0
0
LINE
8
1
62
1
10
10.115921180138415
20
34.60794463413585
30
0.0
11
10.14773207445077
21
34.691412065935
31
0.0
0
LINE
8
1
62
1
10
10.14773207445077
20
34.691412065935
30
0.0
11
10.195892173288518
21
34.80681976480506
31
0.0
0
LINE
8
1
62
1
10
10.195892173288518
20
34.80681976480506
30
0.0
11
10.262432036139838
21
34.95318766182328
31
0.0
0
LINE
8
1
62
1
10
10.262432036139838
20
34.95318766182328
30
0.0
11
10.349335674198505
21
35.129439897275915
31
0.0
0
LINE
8
1
62
1
10
10.349335674198505
20
35.129439897275915
30
0.0
11
10.458536545050285
21
35.33440681274276
31
0.0
0
LINE
8
1
62
1
10
10.458536545050285
20
35.33440681274276
30
0.0
11
10.591913627671039
21
35.566827099981346
31
0.0
0
LINE
8
1
62
1
10
10.591913627671039
20
35.566827099981346
30
0.0
11
10.751287583624634
21
35.825350103496916
31
0.0
0
LINE
8
1
62
1
10
10.751287583624634
20
35.825350103496916
30
0.0
11
10.938417010231188
21
36.108538273469215
31
0.0
0
LINE
8
1
62
1
10
10.938417010231188
20
36.108538273469215
30
0.0
11
11.154994791351067
21
36.41486976549656
31
0.0
0
LINE
8
1
62
1
10
11.154994791351067
20
36.41486976549656
30
0.0
11
11.40264455129746
21
36.742741183412164
31
0.0
0
LINE
8
1
62
1
10
11.40264455129746
20
36.742741183412164
30
0.0
11
11.682917217250244
21
37.090470461226076
31
0.0
0
LINE
8
1
62
1
10
11.682917217250244
20
37.090470461226076
30
0.0
11
11.997287695396802
21
37.45629988005099
31
0.0
0
LINE
8
1
62
1
10
11.997287695396802
20
37.45629988005099
30
0.0
11
12.347151665871092
21
37.83839921567886
31
0.0
0
LINE
8
1
62
1
10
12.347151665871092
20
37.83839921567886
30
0.0
11
12.733822501401576
21
38.23486901229103
31
0.0
0
LINE
8
1
62
1
10
12.733822501401576
20
38.23486901229103
30
0.0
11
13.158528314410784
21
38.64374397760532
31
0.0
0
LINE
8
1
62
1
10
13.158528314410784
20
38.64374397760532
30
0.0
11
13.622409137135595
21
39.06299649459074
31
0.0
0
LINE
8
1
62
1
10
13.622409137135595
20
39.06299649459074
30
0.0
11
14.126514239156995
21
39.490540244713586
31
0.0
0
LINE
8
1
62
1
10
14.126514239156995
20
39.490540244713586
30
0.0
11
16.504921168854814
21
38.55708431116566
31
0.0
0
LINE
8
1
62
1
10
16.504921168854814
20
38.55708431116566
30
0.0
11
16.58365275445266
21
37.900794017482774
31
0.0
0
LINE
8
1
62
1
10
16.58365275445266
20
37.900794017482774
30
0.0
11
16.638537327561725
21
37.27794108594509
31
0.0
0
LINE
8
1
62
1
10
16.638537327561725
20
37.27794108594509
30
0.0
11
16.671763114201323
21
36.6893412116954
31
0.0
0
LINE
8
1
62
1
10
16.671763114201323
20
36.6893412116954
30
0.0
11
16.685544946963766
21
36.13570532434592
31
0.0
0
LINE
8
1
62
1
10
16.685544946963766
20
36.13570532434592
30
0.0
11
16.6821198341913
21
35.617638756494074
31
0.0
0
LINE
8
1
62
1
10
16.6821198341913
20
35.617638756494074
30
0.0
11
16.66374250428538
21
35.13564058745875
31
0.0
0
LINE
8
1
62
1
10
16.66374250428538
20
35.13564058745875
30
0.0
11
16.632680931791015
21
34.69010316294377
31
0.0
0
LINE
8
1
62
1
10
16.632680931791015
20
34.69010316294377
30
0.0
11
16.59121185191744
21
34.2813117910902
31
0.0
0
LINE
8
1
62
1
10
16.59121185191744
20
34.2813117910902
30
0.0
11
16.541616270166426
21
33.90944461513447
31
0.0
0
LINE
8
1
62
1
10
16.541616270166426
20
33.90944461513447
30
0.0
11
16.486174973740408
21
33.574572662643725
31
0.0
0
LINE
8
1
62
1
10
16.486174973740408
20
33.574572662643725
30
0.0
11
16.427164051395167
21
33.276660071055225
31
0.0
0
LINE
8
1
62
1
10
16.427164051395167
20
33.276660071055225
30
0.0
11
16.36685042838494
21
33.015564489001704
31
0.0
0
LINE
8
1
62
1
10
16.36685042838494
20
33.015564489001704
30
0.0
11
16.307487423122737
21
32.791037652661316
31
0.0
0
LINE
8
1
62
1
10
16.307487423122737
20
32.791037652661316
30
0.0
11
16.2513103321444
21
32.602726136127956
31
0.0
0
LINE
8
1
62
1
10
16.2513103321444
20
32.602726136127956
30
0.0
11
16.200532049922206
21
32.45017227455647
31
0.0
0
LINE
8
1
62
1
10
16.200532049922206
20
32.45017227455647
30
0.0
11
16.157338730022435
21
32.332815258598416
31
0.0
0
LINE
8
1
62
1
10
16.157338730022435
20
32.332815258598416
30
0.0
11
16.123885494041154
21
32.249992398405844
31
0.0
0
LINE
8
1
62
1
10
16.123885494041154
20
32.249992398405844
30
0.0
11
16.102292194684168
21
32.20094055524631
31
0.0
0
LINE
8
1
62
1
10
16.102292194684168
20
32.20094055524631
30
0.0
11
16.094639239279978
21
32.18479773853942
31
0.0
0
LINE
8
1
62
1
10
16.094639239279978
20
32.18479773853942
30
0.0
11
15.170122210522047
21
30.336021066131043
31
0.0
0
LINE
8
1
62
1
10
15.170122210522047
20
30.336021066131043
30
0.0
11
18.686703787748353
21
28.305721745892154
31
0.0
0
LINE
8
1
62
1
10
18.686703787748353
20
28.305721745892154
30
0.0
11
19.82553283759911
21
30.03076531523202
31
0.0
0
LINE
8
1
62
1
10
19.82553283759911
20
30.03076531523202
30
0.0
11
19.835686449253814
21
30.045464377379524
31
0.0
0
LINE
8
1
62
1
10
19.835686449253814
20
30.045464377379524
30
0.0
11
19.867369941853923
21
30.088690644753957
31
0.0
0
LINE
8
1
62
1
10
19.867369941853923
20
30.088690644753957
30
0.0
11
19.922370024804135
21
30.159073427048828
31
0.0
0
LINE
8
1
62
1
10
19.922370024804135
20
30.159073427048828
30
0.0
11
20.002407521986267
21
30.25515844733485
31
0.0
0
LINE
8
1
62
1
10
20.002407521986267
20
30.25515844733485
30
0.0
11
20.109133900441485
21
30.375410660485542
31
0.0
0
LINE
8
1
62
1
10
20.109133900441485
20
30.375410660485542
30
0.0
11
20.244127912095387
21
30.518217206650178
31
0.0
0
LINE
8
1
62
1
10
20.244127912095387
20
30.518217206650178
30
0.0
11
20.408892353566404
21
30.681890495422426
31
0.0
0
LINE
8
1
62
1
10
20.408892353566404
20
30.681890495422426
30
0.0
11
20.604850948935532
21
30.86467141617032
31
0.0
0
LINE
8
1
62
1
10
20.604850948935532
20
30.86467141617032
30
0.0
11
20.83334536018581
21
31.0647326698163
31
0.0
0
LINE
8
1
62
1
10
20.83334536018581
20
31.0647326698163
30
0.0
11
21.095632329844676
21
31.28018221718535
31
0.0
0
LINE
8
1
62
1
10
21.095632329844676
20
31.28018221718535
30
0.0
11
21.392880960180406
21
31.509066838875057
31
0.0
0
LINE
8
1
62
1
10
21.392880960180406
20
31.509066838875057
30
0.0
11
21.72617013311671
21
31.749375801443925
31
0.0
0
LINE
8
1
62
1
10
21.72617013311671
20
31.749375801443925
30
0.0
11
22.096486074836186
21
31.999044624563034
31
0.0
0
LINE
8
1
62
1
10
22.096486074836186
20
31.999044624563034
30
0.0
11
22.504720068845405
21
32.25595894363294
31
0.0
0
LINE
8
1
62
1
10
22.504720068845405
20
32.25595894363294
30
0.0
11
22.951666321070284
21
32.517958462230645
31
0.0
0
LINE
8
1
62
1
10
22.951666321070284
20
32.517958462230645
30
0.0
11
23.438019980342897
21
32.782840988622404
31
0.0
0
LINE
8
1
62
1
10
23.438019980342897
20
32.782840988622404
30
0.0
11
23.964375317427255
21
33.048366550456635
31
0.0
0
LINE
8
1
62
1
10
23.964375317427255
20
33.048366550456635
30
0.0
11
24.531224065515033
21
33.312261581637166
31
0.0
0
LINE
8
1
62
1
10
24.531224065515033
20
33.312261581637166
30
0.0
11
25.138953924900484
21
33.572223175270636
31
0.0
0
LINE
8
1
62
1
10
25.138953924900484
20
33.572223175270636
30
0.0
11
27.136553941515217
21
31.979190320389346
31
0.0
0
LINE
8
1
62
1
10
27.136553941515217
20
31.979190320389346
30
0.0
11
27.018342743690262
21
31.32885062080004
31
0.0
0
LINE
8
1
62
1
10
27.018342743690262
20
31.32885062080004
30
0.0
11
26.88719982474273
21
30.71749178549922
31
0.0
0
LINE
8
1
62
1
10
26.88719982474273
20
30.71749178549922
30
0.0
11
26.74545662431368
21
30.14524827964118
31
0.0
0
LINE
8
1
62
1
10
26.74545662431368
20
30.14524827964118
30
0.0
11
26.59543912637953
21
29.61214661486314
31
0.0
0
LINE
8
1
62
1
10
26.59543912637953
20
29.61214661486314
30
0.0
11
26.439463380193786
21
29.118105860749584
31
0.0
0
LINE
8
1
62
1
10
26.439463380193786
20
29.118105860749584
30
0.0
11
26.27983104911299
21
28.662938331062342
31
0.0
0
LINE
8
1
62
1
10
26.27983104911299
20
28.662938331062342
30
0.0
11
26.118824993862916
21
28.24635044345389
31
0.0
0
LINE
8
1
62
1
10
26.118824993862916
20
28.24635044345389
30
0.0
11
25.958704896746383
21
27.867943751141393
31
0.0
0
LINE
8
1
62
1
10
25.958704896746383
20
27.867943751141393
30
0.0
11
25.80170293323145
21
27.527216144782642
31
0.0
0
LINE
8
1
62
1
10
25.80170293323145
20
27.527216144782642
30
0.0
11
25.650019497287488
21
27.2235632225596
31
0.0
0
LINE
8
1
62
1
10
25.650019497287488
20
27.2235632225596
30
0.0
11
25.505818986757145
21
26.956279826244373
31
0.0
0
LINE
8
1
62
1
10
25.505818986757145
20
26.956279826244373
30
0.0
11
25.371225654964036
21
26.724561740792854
31
0.0
0
LINE
8
1
62
1
10
25.371225654964036
20
26.724561740792854
30
0.0
11
25.248319534660293
21
26.527507554786407
31
0.0
0
LINE
8
1
62
1
10
25.248319534660293
20
26.527507554786407
30
0.0
11
25.139132440313848
21
26.36412067881999
31
0.0
0
LINE
8
1
62
1
10
25.139132440313848
20
26.36412067881999
30
0.0
11
25.045644054623228
21
26.23331151871731
31
0.0
0
LINE
8
1
62
1
10
25.045644054623228
20
26.23331151871731
30
0.0
11
24.969778105028322
21
26.13389980024002
31
0.0
0
LINE
8
1
62
1
10
24.969778105028322
20
26.13389980024002
30
0.0
11
24.913398635857792
21
26.064617041748843
31
0.0
0
LINE
8
1
62
1
10
24.913398635857792
20
26.064617041748843
30
0.0
11
24.8783063816194
21
26.024109171069988
31
0.0
0
LINE
8
1
62
1
10
24.8783063816194
20
26.024109171069988
30
0.0
11
24.866235246797334
21
26.010939282621017
31
0.0
0
LINE
8
1
62
1
10
24.866235246797334
20
26.010939282621017
30
0.0
11
23.43785542510751
21
24.516804748553167
31
0.0
0
LINE
8
1
62
1
10
23.43785542510751
20
24.516804748553167
30
0.0
11
26.19976391939015
21
21.54017531440129
31
0.0
0
LINE
8
1
62
1
10
26.19976391939015
20
21.54017531440129
30
0.0
11
27.796463508013986
21
22.852904282845763
31
0.0
0
LINE
8
1
62
1
10
27.796463508013986
20
22.852904282845763
30
0.0
11
27.8104986478187
21
22.863957477330295
31
0.0
0
LINE
8
1
62
1
10
27.8104986478187
20
22.863957477330295
30
0.0
11
27.853515697718773
21
22.895924449541653
31
0.0
0
LINE
8
1
62
1
10
27.853515697718773
20
22.895924449541653
30
0.0
11
27.926817970572827
21
22.94696876325559
31
0.0
0
LINE
8
1
62
1
10
27.926817970572827
20
22.94696876325559
30
0.0
11
28.031621183235938
21
23.015193529242996
31
0.0
0
LINE
8
1
62
1
10
28.031621183235938
20
23.015193529242996
30
0.0
11
28.169050970208318
21
23.09864512166958
31
0.0
0
LINE
8
1
62
1
10
28.169050970208318
20
23.09864512166958
30
0.0
11
28.340140545110533
21
23.195316990223276
31
0.0
0
LINE
8
1
62
1
10
28.340140545110533
20
23.195316990223276
30
0.0
11
28.545828513519258
21
23.303153562325114
31
0.0
0
LINE
8
1
62
1
10
28.545828513519258
20
23.303153562325114
30
0.0
11
28.78695684048807
21
23.42005422965301
31
0.0
0
LINE
8
1
62
1
10
28.78695684048807
20
23.42005422965301
30
0.0
11
29.064268975864238
21
23.543877413088598
31
0.0
0
LINE
8
1
62
1
10
29.064268975864238
20
23.543877413088598
30
0.0
11
29.37840814029382
21
23.672444700085887
31
0.0
0
LINE
8
1
62
1
10
29.37840814029382
20
23.672444700085887
30
0.0
11
29.729915774585947
21
23.80354504835721
31
0.0
0
LINE
8
1
62
1
10
29.729915774585947
20
23.80354504835721
30
0.0
11
30.11923015488132
21
23.9349390496766
31
0.0
0
LINE
8
1
62
1
10
30.11923015488132
20
23.9349390496766
30
0.0
11
30.546685175840974
21
24.06436324751318
31
0.0
0
LINE
8
1
62
1
10
30.546685175840974
20
24.06436324751318
30
0.0
11
31.012509303839757
21
24.189534502128808
31
0.0
0
LINE
8
1
62
1
10
31.012509303839757
20
24.189534502128808
30
0.0
11
31.516824701913727
21
24.308154396702992
31
0.0
0
LINE
8
1
62
1
10
31.516824701913727
20
24.308154396702992
30
0.0
11
32.059646527974216
21
24.417913677986597
31
0.0
0
LINE
8
1
62
1
10
32.059646527974216
20
24.417913677986597
30
0.0
11
32.64088240756143
21
24.516496724932068
31
0.0
0
LINE
8
1
62
1
10
32.64088240756143
20
24.516496724932068
30
0.0
11
33.26033208216981
21
24.601586038703054
31
0.0
0
LINE
8
1
62
1
10
33.26033208216981
20
24.601586038703054
30
0.0
11
33.91768723393435
21
24.67086674743016
31
0.0
0
LINE
8
1
62
1
10
33.91768723393435
20
24.67086674743016
30
0.0
11
35.3569848096665
21
22.55980493128123
31
0.0
0
LINE
8
1
62
1
10
35.3569848096665
20
22.55980493128123
30
0.0
11
35.05233441210679
21
21.973201362062785
31
0.0
0
LINE
8
1
62
1
10
35.05233441210679
20
21.973201362062785
30
0.0
11
34.74681662496238
21
21.42765853841937
31
0.0
0
LINE
8
1
62
1
10
34.74681662496238
20
21.42765853841937
30
0.0
11
34.44269894285258
21
20.922617747697725
31
0.0
0
LINE
8
1
62
1
10
34.44269894285258
20
20.922617747697725
30
0.0
11
34.142211827254236
21
20.45741872788478
31
0.0
0
LINE
8
1
62
1
10
34.142211827254236
20
20.45741872788478
30
0.0
11
33.8475445771921
21
20.031301476574637
31
0.0
0
LINE
8
1
62
1
10
33.8475445771921
20
20.031301476574637
30
0.0
11
33.5608412780879
21
19.64340821871799
31
0.0
0
LINE
8
1
62
1
10
33.5608412780879
20
19.64340821871799
30
0.0
11
33.28419683465453
21
19.292785529995907
31
0.0
0
LINE
8
1
62
1
10
33.28419683465453
20
19.292785529995907
30
0.0
11
33.01965309359932
21
18.97838661244688
31
0.0
0
LINE
8
1
62
1
10
33.01965309359932
20
18.97838661244688
30
0.0
11
32.76919506177053
21
18.69907371876855
31
0.0
0
LINE
8
1
62
1
10
32.76919506177053
20
18.69907371876855
30
0.0
11
32.53474722524404
21
18.453620721511623
31
0.0
0
LINE
8
1
62
1
10
32.53474722524404
20
18.453620721511623
30
0.0
11
32.318169974702734
21
18.240715823186147
31
0.0
0
LINE
8
1
62
1
10
32.318169974702734
20
18.240715823186147
30
0.0
11
32.12125614230967
21
18.05896440310707
31
0.0
0
LINE
8
1
62
1
10
32.12125614230967
20
18.05896440310707
30
0.0
11
31.945727655118002
21
17.906891996619276
31
0.0
0
LINE
8
1
62
1
10
31.945727655118002
20
17.906891996619276
30
0.0
11
31.7932323098958
21
17.782947402160925
31
0.0
0
LINE
8
1
62
1
10
31.7932323098958
20
17.782947402160925
30
0.0
11
31.66534067407239
21
17.68550591144871
31
0.0
0
LINE
8
1
62
1
10
31.66534067407239
20
17.68550591144871
30
0.0
11
31.563543117336092
21
17.61287265790004
31
0.0
0
LINE
8
1
62
1
10
31.563543117336092
20
17.61287265790004
30
0.0
11
31.48924697822934
21
17.563286078244577
31
0.0
0
LINE
8
1
62
1
10
31.48924697822934
20
17.563286078244577
30
0.0
11
31.443773869898436
21
17.53492148212207
31
0.0
0
LINE
8
1
62
1
10
31.443773869898436
20
17.53492148212207
30
0.0
11
31.428357128960748
21
17.52589472431481
31
0.0
0
LINE
8
1
62
1
10
31.428357128960748
20
17.52589472431481
30
0.0
11
29.62303232983777
21
16.519162738840826
31
0.0
0
LINE
8
1
62
1
10
29.62303232983777
20
16.519162738840826
30
0.0
11
31.384860051023953
21
12.860689778723437
31
0.0
0
LINE
8
1
62
1
10
31.384860051023953
20
12.860689778723437
30
0.0
11
33.297556412970906
21
13.644462416610033
31
0.0
0
LINE
8
1
62
1
10
33.297556412970906
20
13.644462416610033
30
0.0
11
33.31422599716178
21
13.650887618595497
31
0.0
0
LINE
8
1
62
1
10
33.31422599716178
20
13.650887618595497
30
0.0
11
33.364754350700984
21
13.668754889878052
31
0.0
0
LINE
8
1
62
1
10
33.364754350700984
20
13.668754889878052
30
0.0
11
33.44984558483407
21
13.695925223733298
31
0.0
0
LINE
8
1
62
1
10
33.44984558483407
20
13.695925223733298
30
0.0
11
33.570102287611725
21
13.730227665564643
31
0.0
0
LINE
8
1
62
1
10
33.570102287611725
20
13.730227665564643
30
0.0
11
33.72602424342808
21
13.769463597058742
31
0.0
0
LINE
8
1
62
1
10
33.72602424342808
20
13.769463597058742
30
0.0
11
33.91800732203431
21
13.811411068242993
31
0.0
0
LINE
8
1
62
1
10
33.91800732203431
20
13.811411068242993
30
0.0
11
34.14634253874084
21
13.853829171010169
31
0.0
0
LINE
8
1
62
1
10
34.14634253874084
20
13.853829171010169
30
0.0
11
34.41121528728394
21
13.894462447615858
31
0.0
0
LINE
8
1
62
1
10
34.41121528728394
20
13.894462447615858
30
0.0
11
34.71270474659355
21
13.931045327603714
31
0.0
0
LINE
8
1
62
1
10
34.71270474659355
20
13.931045327603714
30
0.0
11
35.05078346245727
21
13.961306586571286
31
0.0
0
LINE
8
1
62
1
10
35.05078346245727
20
13.961306586571286
30
0.0
11
35.42531710483309
21
13.982973820155918
31
0.0
0
LINE
8
1
62
1
10
35.42531710483309
20
13.982973820155918
30
0.0
11
35.83606440132027
21
13.993777926595513
31
0.0
0
LINE
8
1
62
1
10
35.83606440132027
20
13.993777926595513
30
0.0
11
36.282677247052376
21
13.991457591203059
31
0.0
0
LINE
8
1
62
1
10
36.282677247052376
20
13.991457591203059
30
0.0
11
36.76470099103252
21
13.973763766086796
31
0.0
0
LINE
8
1
62
1
10
36.76470099103252
20
13.973763766086796
30
0.0
11
37.28157489868503
21
13.938464138449707
31
0.0
0
LINE
8
1
62
1
10
37.28157489868503
20
13.938464138449707
30
0.0
11
37.832632790153575
21
13.88334758081245
31
0.0
0
LINE
8
1
62
1
10
37.832632790153575
20
13.88334758081245
30
0.0
11
38.41710385363067
21
13.806228576523473
31
0.0
0
LINE
8
1
62
1
10
38.41710385363067
20
13.806228576523473
30
0.0
11
39.03411363276059
21
13.70495161394806
31
0.0
0
LINE
8
1
62
1
10
39.03411363276059
20
13.70495161394806
30
0.0
11
39.68268518691438
21
13.577395542765007
31
0.0
0
LINE
8
1
62
1
10
39.68268518691438
20
13.577395542765007
30
0.0
11
40.435792415906754
21
11.13588187195547
31
0.0
0
LINE
8
1
62
1
10
40.435792415906754
20
11.13588187195547
30
0.0
11
39.97177234337171
21
10.665136734500296
31
0.0
0
LINE
8
1
62
1
10
39.97177234337171
20
10.665136734500296
30
0.0
11
39.519026284160915
21
10.23388379647025
31
0.0
0
LINE
8
1
62
1
10
39.519026284160915
20
10.23388379647025
30
0.0
11
39.079556311024305
21
9.84092081147563
31
0.0
0
LINE
8
1
62
1
10
39.079556311024305
20
9.84092081147563
30
0.0
11
38.65529917664867
21
9.48495941103043
31
0.0
0
LINE
8
1
62
1
10
38.65529917664867
20
9.48495941103043
30
0.0
11
38.24812290100409
21
9.164628050287364
31
0.0
0
LINE
8
1
62
1
10
38.24812290100409
20
9.164628050287364
30
0.0
11
37.85982348017859
21
8.878475082463407
31
0.0
0
LINE
8
1
62
1
10
37.85982348017859
20
8.878475082463407
30
0.0
11
37.49212172139512
21
8.624971957202971
31
0.0
0
LINE
8
1
62
1
10
37.49212172139512
20
8.624971957202971
30
0.0
11
37.14666020872506
21
8.402516537958567
31
0.0
0
LINE
8
1
62
1
10
37.14666020872506
20
8.402516537958567
30
0.0
11
36.82500040382739
21
8.209436533308422
31
0.0
0
LINE
8
1
62
1
10
36.82500040382739
20
8.209436533308422
30
0.0
11
36.528619885851136
21
8.043993036976628
31
0.0
0
LINE
8
1
62
1
10
36.528619885851136
20
8.043993036976628
30
0.0
11
36.25890973444307
21
7.904384171174877
31
0.0
0
LINE
8
1
62
1
10
36.25890973444307
20
7.904384171174877
30
0.0
11
36.01717205960029
21
7.788748827745237
31
0.0
0
LINE
8
1
62
1
10
36.01717205960029
20
7.788748827745237
30
0.0
11
35.80461768190176
21
7.695170501451309
31
0.0
0
LINE
8
1
62
1
10
35.80461768190176
20
7.695170501451309
30
0.0
11
35.62236396644159
21
7.621681209640538
31
0.0
0
LINE
8
1
62
1
10
35.62236396644159
20
7.621681209640538
30
0.0
11
35.4714328135715
21
7.566265492383507
31
0.0
0
LINE
8
1
62
1
10
35.4714328135715
20
7.566265492383507
30
0.0
11
35.35274880934105
21
7.526864487087039
31
0.0
0
LINE
8
1
62
1
10
35.35274880934105
20
7.526864487087039
30
0.0
11
35.26713753830095
21
7.501380071476797
31
0.0
0
LINE
8
1
62
1
10
35.26713753830095
20
7.501380071476797
30
0.0
11
35.21532406110819
21
7.487679068752104
31
0.0
0
LINE
8
1
62
1
10
35.21532406110819
20
7.487679068752104
30
0.0
11
35.19793155914243
21
7.483597508631005
31
0.0
0
LINE
8
1
62
1
10
35.19793155914243
20
7.483597508631005
30
0.0
11
33.17607281352577
21
7.053720626630803
31
0.0
0
LINE
8
1
62
1
10
33.17607281352577
20
7.053720626630803
30
0.0
11
33.78127363693448
21
3.0384755179984757
31
0.0
0
ENDSEC
0
EOF
