999
VISION3D DXF
0
SECTION
2
HEADER
9
$ACADVER
1
AC1006
9
$INSBASE
10
0.0
20
0.0
30
0.0
9
$EXTMIN
10
-63.82352941176471
20
-63.82352941176471
9
$EXTMAX
10
63.82352941176471
20
63.82352941176471
9
$LINMIN
10
0.0
20
0.0
9
$LINMAX
10
1000.0
20
1000.0
0
ENDSEC
0
SECTION
2
TABLES
0
TABLE
2
LTYPE
70
1
0
LTYPE
2
CONTINUOUS
70
64
3
Solid line
72
65
73
0
40
0.000000
0
ENDTAB
0
TABLE
2
LAYER
70
6
0
LAYER
2
1
70
64
62
7
6
CONTINUOUS
0
ENDTAB
0
TABLE
2
STYLE
70
0
0
ENDTAB
0
ENDSEC
0
SECTION
2
BLOCKS
0
ENDSEC
0
SECTION
2
ENTITIES
0
LINE
8
1
62
1
10
52.04084976330029
20
3.4174887373640344
30
0.0
11
53.006100614057424
21
3.4808761325775515
31
0.0
0
LINE
8
1
62
1
10
53.006100614057424
20
3.4808761325775515
30
0.0
11
53.02692155682183
21
3.4818533308171724
31
0.0
0
LINE
8
1
62
1
10
53.02692155682183
20
3.4818533308171724
30
0.0
11
53.08943740787726
21
3.483228744130173
31
0.0
0
LINE
8
1
62
1
10
53.08943740787726
20
3.483228744130173
30
0.0
11
53.19365410999602
21
3.4826665729885478
31
0.0
0
LINE
8
1
62
1
10
53.19365410999602
20
3.4826665729885478
30
0.0
11
53.339479462972015
21
3.477831913824207
31
0.0
0
LINE
8
1
62
1
10
53.339479462972015
20
3.477831913824207
30
0.0
11
53.52672320414884
21
3.4663944239863844
31
0.0
0
LINE
8
1
62
1
10
53.52672320414884
20
3.4663944239863844
30
0.0
11
53.75509721723237
21
3.446031982171856
31
0.0
0
LINE
8
1
62
1
10
53.75509721723237
20
3.446031982171856
30
0.0
11
54.0242158691773
21
3.414434340017996
31
0.0
0
LINE
8
1
62
1
10
54.0242158691773
20
3.414434340017996
30
0.0
11
54.33359647479626
21
3.3693067605575773
31
0.0
0
LINE
8
1
62
1
10
54.33359647479626
20
3.3693067605575773
30
0.0
11
54.68265988859994
21
3.308373639247509
31
0.0
0
LINE
8
1
62
1
10
54.68265988859994
20
3.308373639247509
30
0.0
11
55.07073122323632
21
3.229382103301461
31
0.0
0
LINE
8
1
62
1
10
55.07073122323632
20
3.229382103301461
30
0.0
11
55.4970406937584
21
3.1301055850786605
31
0.0
0
LINE
8
1
62
1
10
55.4970406937584
20
3.1301055850786605
30
0.0
11
55.96072458681074
21
3.008347365307846
31
0.0
0
LINE
8
1
62
1
10
55.96072458681074
20
3.008347365307846
30
0.0
11
56.4608263536877
21
2.8619440819564304
31
0.0
0
LINE
8
1
62
1
10
56.4608263536877
20
2.8619440819564304
30
0.0
11
56.996297826080095
21
2.688769200590637
31
0.0
0
LINE
8
1
62
1
10
56.996297826080095
20
2.688769200590637
30
0.0
11
57.566000553190655
21
2.486736442112042
31
0.0
0
LINE
8
1
62
1
10
57.566000553190655
20
2.486736442112042
30
0.0
11
58.16870725876577
21
2.253803163800396
31
0.0
0
LINE
8
1
62
1
10
58.16870725876577
20
2.253803163800396
30
0.0
11
58.80310341645733
21
1.9879736896409255
31
0.0
0
LINE
8
1
62
1
10
58.80310341645733
20
1.9879736896409255
30
0.0
11
59.46778894179828
21
1.6873025859671484
31
0.0
0
LINE
8
1
62
1
10
59.46778894179828
20
1.6873025859671484
30
0.0
11
60.16127999894566
21
1.3498978785070617
31
0.0
0
LINE
8
1
62
1
10
60.16127999894566
20
1.3498978785070617
30
0.0
11
60.16127999894566
21
-1.3498978785070617
31
0.0
0
LINE
8
1
62
1
10
60.16127999894566
20
-1.3498978785070617
30
0.0
11
59.46778894179828
21
-1.6873025859671484
31
0.0
0
LINE
8
1
62
1
10
59.46778894179828
20
-1.6873025859671484
30
0.0
11
58.80310341645733
21
-1.9879736896409255
31
0.0
0
LINE
8
1
62
1
10
58.80310341645733
20
-1.9879736896409255
30
0.0
11
58.16870725876577
21
-2.253803163800396
31
0.0
0
LINE
8
1
62
1
10
58.16870725876577
20
-2.253803163800396
30
0.0
11
57.566000553190655
21
-2.486736442112042
31
0.0
0
LINE
8
1
62
1
10
57.566000553190655
20
-2.486736442112042
30
0.0
11
56.996297826080095
21
-2.688769200590637
31
0.0
0
LINE
8
1
62
1
10
56.996297826080095
20
-2.688769200590637
30
0.0
11
56.4608263536877
21
-2.8619440819564304
31
0.0
0
LINE
8
1
62
1
10
56.4608263536877
20
-2.8619440819564304
30
0.0
11
55.96072458681074
21
-3.008347365307846
31
0.0
0
LINE
8
1
62
1
10
55.96072458681074
20
-3.008347365307846
30
0.0
11
55.4970406937584
21
-3.1301055850786605
31
0.0
0
LINE
8
1
62
1
10
55.4970406937584
20
-3.1301055850786605
30
0.0
11
55.07073122323632
21
-3.229382103301461
31
0.0
0
LINE
8
1
62
1
10
55.07073122323632
20
-3.229382103301461
30
0.0
11
54.68265988859994
21
-3.308373639247509
31
0.0
0
LINE
8
1
62
1
10
54.68265988859994
20
-3.308373639247509
30
0.0
11
54.33359647479626
21
-3.3693067605575773
31
0.0
0
LINE
8
1
62
1
10
54.33359647479626
20
-3.3693067605575773
30
0.0
11
54.0242158691773
21
-3.414434340017996
31
0.0
0
LINE
8
1
62
1
10
54.0242158691773
20
-3.414434340017996
30
0.0
11
53.75509721723237
21
-3.446031982171856
31
0.0
0
LINE
8
1
62
1
10
53.75509721723237
20
-3.446031982171856
30
0.0
11
53.52672320414884
21
-3.4663944239863844
31
0.0
0
LINE
8
1
62
1
10
53.52672320414884
20
-3.4663944239863844
30
0.0
11
53.339479462972015
21
-3.477831913824207
31
0.0
0
LINE
8
1
62
1
10
53.339479462972015
20
-3.477831913824207
30
0.0
11
53.19365410999602
21
-3.4826665729885478
31
0.0
0
LINE
8
1
62
1
10
53.19365410999602
20
-3.4826665729885478
30
0.0
11
53.08943740787726
21
-3.483228744130173
31
0.0
0
LINE
8
1
62
1
10
53.08943740787726
20
-3.483228744130173
30
0.0
11
53.02692155682183
21
-3.4818533308171724
31
0.0
0
LINE
8
1
62
1
10
53.02692155682183
20
-3.4818533308171724
30
0.0
11
53.006100614057424
21
-3.4808761325775515
31
0.0
0
LINE
8
1
62
1
10
53.006100614057424
20
-3.4808761325775515
30
0.0
11
52.04084976330029
21
-3.4174887373640344
31
0.0
0
LINE
8
1
62
1
10
52.04084976330029
20
-3.4174887373640344
30
0.0
11
51.663505936626464
21
-7.128213499367388
31
0.0
0
LINE
8
1
62
1
10
51.663505936626464
20
-7.128213499367388
30
0.0
11
52.62175783461129
21
-7.260427215629475
31
0.0
0
LINE
8
1
62
1
10
52.62175783461129
20
-7.260427215629475
30
0.0
11
52.6423492800136
21
-7.263661245660553
31
0.0
0
LINE
8
1
62
1
10
52.6423492800136
20
-7.263661245660553
30
0.0
11
52.70386229658968
21
-7.274898335438412
31
0.0
0
LINE
8
1
62
1
10
52.70386229658968
20
-7.274898335438412
30
0.0
11
52.80583251247475
21
-7.296427666808769
31
0.0
0
LINE
8
1
62
1
10
52.80583251247475
20
-7.296427666808769
30
0.0
11
52.94769960217355
21
-7.330517787961467
31
0.0
0
LINE
8
1
62
1
10
52.94769960217355
20
-7.330517787961467
30
0.0
11
53.128808103190494
21
-7.379413039705144
31
0.0
0
LINE
8
1
62
1
10
53.128808103190494
20
-7.379413039705144
30
0.0
11
53.348408357407145
21
-7.445330011999909
31
0.0
0
LINE
8
1
62
1
10
53.348408357407145
20
-7.445330011999909
30
0.0
11
53.60565757613284
21
-7.530454034927366
31
0.0
0
LINE
8
1
62
1
10
53.60565757613284
20
-7.530454034927366
30
0.0
11
53.89962102761888
21
-7.636935708240328
31
0.0
0
LINE
8
1
62
1
10
53.89962102761888
20
-7.636935708240328
30
0.0
11
54.2292733456913
21
-7.766887473593285
31
0.0
0
LINE
8
1
62
1
10
54.2292733456913
20
-7.766887473593285
30
0.0
11
54.59349995802398
21
-7.922380233509099
31
0.0
0
LINE
8
1
62
1
10
54.59349995802398
20
-7.922380233509099
30
0.0
11
54.99109863244205
21
-8.105440021087507
31
0.0
0
LINE
8
1
62
1
10
54.99109863244205
20
-8.105440021087507
30
0.0
11
55.420781139514844
21
-8.318044724407004
31
0.0
0
LINE
8
1
62
1
10
55.420781139514844
20
-8.318044724407004
30
0.0
11
55.88117502956934
21
-8.562120869513445
31
0.0
0
LINE
8
1
62
1
10
55.88117502956934
20
-8.562120869513445
30
0.0
11
56.37082552212878
21
-8.839540465826373
31
0.0
0
LINE
8
1
62
1
10
56.37082552212878
20
-8.839540465826373
30
0.0
11
56.888197505655604
21
-9.15211791772782
31
0.0
0
LINE
8
1
62
1
10
56.888197505655604
20
-9.15211791772782
30
0.0
11
57.43167764535655
21
-9.50160700602796
31
0.0
0
LINE
8
1
62
1
10
57.43167764535655
20
-9.50160700602796
30
0.0
11
57.99957659668672
21
-9.88969794292781
31
0.0
0
LINE
8
1
62
1
10
57.99957659668672
20
-9.88969794292781
30
0.0
11
58.590131322072374
21
-10.318014504021194
31
0.0
0
LINE
8
1
62
1
10
58.590131322072374
20
-10.318014504021194
30
0.0
11
59.20150750825641
21
-10.788111240796376
31
0.0
0
LINE
8
1
62
1
10
59.20150750825641
20
-10.788111240796376
30
0.0
11
58.65804261782782
21
-13.432642020058157
31
0.0
0
LINE
8
1
62
1
10
58.65804261782782
20
-13.432642020058157
30
0.0
11
57.91082829507846
21
-13.623541309836362
31
0.0
0
LINE
8
1
62
1
10
57.91082829507846
20
-13.623541309836362
30
0.0
11
57.199224273286895
21
-13.784257445778774
31
0.0
0
LINE
8
1
62
1
10
57.199224273286895
20
-13.784257445778774
30
0.0
11
56.52430316246823
21
-13.916942367292139
31
0.0
0
LINE
8
1
62
1
10
56.52430316246823
20
-13.916942367292139
30
0.0
11
55.88704477436021
21
-14.023783519832712
31
0.0
0
LINE
8
1
62
1
10
55.88704477436021
20
-14.023783519832712
30
0.0
11
55.28833500025105
21
-14.107000340018502
31
0.0
0
LINE
8
1
62
1
10
55.28833500025105
20
-14.107000340018502
30
0.0
11
54.72896481302068
21
-14.16884070644686
31
0.0
0
LINE
8
1
62
1
10
54.72896481302068
20
-14.16884070644686
30
0.0
11
54.209629394416666
21
-14.211577360421188
31
0.0
0
LINE
8
1
62
1
10
54.209629394416666
20
-14.211577360421188
30
0.0
11
53.73092738844689
21
-14.237504300819918
31
0.0
0
LINE
8
1
62
1
10
53.73092738844689
20
-14.237504300819918
30
0.0
11
53.293360281633205
21
-14.248933157366576
31
0.0
0
LINE
8
1
62
1
10
53.293360281633205
20
-14.248933157366576
30
0.0
11
52.89733191072958
21
-14.248189546580116
31
0.0
0
LINE
8
1
62
1
10
52.89733191072958
20
-14.248189546580116
30
0.0
11
52.54314809836897
21
-14.237609414701522
31
0.0
0
LINE
8
1
62
1
10
52.54314809836897
20
-14.237609414701522
30
0.0
11
52.2310164169618
21
-14.219535371904023
31
0.0
0
LINE
8
1
62
1
10
52.2310164169618
20
-14.219535371904023
30
0.0
11
51.961046081028364
21
-14.19631302210194
31
0.0
0
LINE
8
1
62
1
10
51.961046081028364
20
-14.19631302210194
30
0.0
11
51.7332479680064
21
-14.17028729267586
31
0.0
0
LINE
8
1
62
1
10
51.7332479680064
20
-14.17028729267586
30
0.0
11
51.547534767433696
21
-14.14379876843002
31
0.0
0
LINE
8
1
62
1
10
51.547534767433696
20
-14.14379876843002
30
0.0
11
51.40372125826507
21
-14.119180034091768
31
0.0
0
LINE
8
1
62
1
10
51.40372125826507
20
-14.119180034091768
30
0.0
11
51.301524713942314
21
-14.098752029652072
31
0.0
0
LINE
8
1
62
1
10
51.301524713942314
20
-14.098752029652072
30
0.0
11
51.24056543469506
21
-14.084820422830848
31
0.0
0
LINE
8
1
62
1
10
51.24056543469506
20
-14.084820422830848
30
0.0
11
51.22036740641168
21
-14.079672002931275
31
0.0
0
LINE
8
1
62
1
10
51.22036740641168
20
-14.079672002931275
30
0.0
11
50.287635086124375
21
-13.823278583649898
31
0.0
0
LINE
8
1
62
1
10
50.287635086124375
20
-13.823278583649898
30
0.0
11
49.17105210670296
21
-17.38208583790519
31
0.0
0
LINE
8
1
62
1
10
49.17105210670296
20
-17.38208583790519
30
0.0
11
50.083074106622135
21
-17.70448782056466
31
0.0
0
LINE
8
1
62
1
10
50.083074106622135
20
-17.70448782056466
30
0.0
11
50.102593038468186
21
-17.71180067729698
31
0.0
0
LINE
8
1
62
1
10
50.102593038468186
20
-17.71180067729698
30
0.0
11
50.160584870438846
21
-17.735190222389893
31
0.0
0
LINE
8
1
62
1
10
50.160584870438846
20
-17.735190222389893
30
0.0
11
50.2561339274709
21
-17.77680530063309
31
0.0
0
LINE
8
1
62
1
10
50.2561339274709
20
-17.77680530063309
30
0.0
11
50.38823469857153
21
-17.838755230208736
31
0.0
0
LINE
8
1
62
1
10
50.38823469857153
20
-17.838755230208736
30
0.0
11
50.555793356117626
21
-17.923106466506933
31
0.0
0
LINE
8
1
62
1
10
50.555793356117626
20
-17.923106466506933
30
0.0
11
50.75762939125783
21
-18.03187932069127
31
0.0
0
LINE
8
1
62
1
10
50.75762939125783
20
-18.03187932069127
30
0.0
11
50.99247736352418
21
-18.167044736892027
31
0.0
0
LINE
8
1
62
1
10
50.99247736352418
20
-18.167044736892027
30
0.0
11
51.25898876263422
21
-18.33052113184103
31
0.0
0
LINE
8
1
62
1
10
51.25898876263422
20
-18.33052113184103
30
0.0
11
51.555733980340975
21
-18.524171300694647
31
0.0
0
LINE
8
1
62
1
10
51.555733980340975
20
-18.524171300694647
30
0.0
11
51.88120439006625
21
-18.74979939271965
31
0.0
0
LINE
8
1
62
1
10
51.88120439006625
20
-18.74979939271965
30
0.0
11
52.23381453193378
21
-19.00914796044159
31
0.0
0
LINE
8
1
62
1
10
52.23381453193378
20
-19.00914796044159
30
0.0
11
52.61190440070192
21
-19.30389508577588
31
0.0
0
LINE
8
1
62
1
10
52.61190440070192
20
-19.30389508577588
30
0.0
11
53.01374183398112
21
-19.63565158657896
31
0.0
0
LINE
8
1
62
1
10
53.01374183398112
20
-19.63565158657896
30
0.0
11
53.43752499801075
21
-20.005958306970548
31
0.0
0
LINE
8
1
62
1
10
53.43752499801075
20
-20.005958306970548
30
0.0
11
53.881384968159615
21
-20.41628349468771
31
0.0
0
LINE
8
1
62
1
10
53.881384968159615
20
-20.41628349468771
30
0.0
11
54.34338840121083
21
-20.868020268638116
31
0.0
0
LINE
8
1
62
1
10
54.34338840121083
20
-20.868020268638116
30
0.0
11
54.82154029638686
21
-21.362484179722916
31
0.0
0
LINE
8
1
62
1
10
54.82154029638686
20
-21.362484179722916
30
0.0
11
55.31378684197269
21
-21.900910867899686
31
0.0
0
LINE
8
1
62
1
10
55.31378684197269
20
-21.900910867899686
30
0.0
11
55.818018344297364
21
-22.484453818352364
31
0.0
0
LINE
8
1
62
1
10
55.818018344297364
20
-22.484453818352364
30
0.0
11
54.75333807990875
21
-24.965452219039644
31
0.0
0
LINE
8
1
62
1
10
54.75333807990875
20
-24.965452219039644
30
0.0
11
53.982991533724714
21
-25.002030651782736
31
0.0
0
LINE
8
1
62
1
10
53.982991533724714
20
-25.002030651782736
30
0.0
11
53.25360216774462
21
-25.01621208250495
31
0.0
0
LINE
8
1
62
1
10
53.25360216774462
20
-25.01621208250495
30
0.0
11
52.56578745337562
21
-25.01032031509564
31
0.0
0
LINE
8
1
62
1
10
52.56578745337562
20
-25.01032031509564
30
0.0
11
51.920066816018526
21
-24.98669525252683
31
0.0
0
LINE
8
1
62
1
10
51.920066816018526
20
-24.98669525252683
30
0.0
11
51.316861243408205
21
-24.947689228023847
31
0.0
0
LINE
8
1
62
1
10
51.316861243408205
20
-24.947689228023847
30
0.0
11
50.756493022528275
21
-24.895663327647256
31
0.0
0
LINE
8
1
62
1
10
50.756493022528275
20
-24.895663327647256
30
0.0
11
50.23918560525417
21
-24.832983708609447
31
0.0
0
LINE
8
1
62
1
10
50.23918560525417
20
-24.832983708609447
30
0.0
11
49.76506360273645
21
-24.76201791764988
31
0.0
0
LINE
8
1
62
1
10
49.76506360273645
20
-24.76201791764988
30
0.0
11
49.33415290839607
21
-24.68513121379054
31
0.0
0
LINE
8
1
62
1
10
49.33415290839607
20
-24.68513121379054
30
0.0
11
48.94638094926135
21
-24.604682899784542
31
0.0
0
LINE
8
1
62
1
10
48.94638094926135
20
-24.604682899784542
30
0.0
11
48.60157706523668
21
-24.52302266655951
31
0.0
0
LINE
8
1
62
1
10
48.60157706523668
20
-24.52302266655951
30
0.0
11
48.299473015752035
21
-24.44248695493983
31
0.0
0
LINE
8
1
62
1
10
48.299473015752035
20
-24.44248695493983
30
0.0
11
48.03970361310339
21
-24.365395338911213
31
0.0
0
LINE
8
1
62
1
10
48.03970361310339
20
-24.365395338911213
30
0.0
11
47.821807481655256
21
-24.294046934665126
31
0.0
0
LINE
8
1
62
1
10
47.821807481655256
20
-24.294046934665126
30
0.0
11
47.64522794193847
21
-24.230716839630517
31
0.0
0
LINE
8
1
62
1
10
47.64522794193847
20
-24.230716839630517
30
0.0
11
47.50931401853996
21
-24.177652605666054
31
0.0
0
LINE
8
1
62
1
10
47.50931401853996
20
-24.177652605666054
30
0.0
11
47.41332157054536
21
-24.13707075054699
31
0.0
0
LINE
8
1
62
1
10
47.41332157054536
20
-24.13707075054699
30
0.0
11
47.356414543161065
21
-24.111153311837697
31
0.0
0
LINE
8
1
62
1
10
47.356414543161065
20
-24.111153311837697
30
0.0
11
47.337666339009814
21
-24.102044447193773
31
0.0
0
LINE
8
1
62
1
10
47.337666339009814
20
-24.102044447193773
30
0.0
11
46.4756387199763
21
-23.663141780554863
31
0.0
0
LINE
8
1
62
1
10
46.4756387199763
20
-23.663141780554863
30
0.0
11
44.66552962617772
21
-26.92433353993078
31
0.0
0
LINE
8
1
62
1
10
44.66552962617772
20
-26.92433353993078
30
0.0
11
45.49398344019654
21
-27.423724613936933
31
0.0
0
LINE
8
1
62
1
10
45.49398344019654
20
-27.423724613936933
30
0.0
11
45.51163075112317
21
-27.43481690815665
31
0.0
0
LINE
8
1
62
1
10
45.51163075112317
20
-27.43481690815665
30
0.0
11
45.563727206073764
21
-27.469401337840356
31
0.0
0
LINE
8
1
62
1
10
45.563727206073764
20
-27.469401337840356
30
0.0
11
45.648943314631374
21
-27.529398436763554
31
0.0
0
LINE
8
1
62
1
10
45.648943314631374
20
-27.529398436763554
30
0.0
11
45.76586954604382
21
-27.61667193736651
31
0.0
0
LINE
8
1
62
1
10
45.76586954604382
20
-27.61667193736651
30
0.0
11
45.91301848899182
21
-27.73302580869433
31
0.0
0
LINE
8
1
62
1
10
45.91301848899182
20
-27.73302580869433
30
0.0
11
46.088827114062205
21
-27.88020137133767
31
0.0
0
LINE
8
1
62
1
10
46.088827114062205
20
-27.88020137133767
30
0.0
11
46.29165913629115
21
-28.059874492791202
31
0.0
0
LINE
8
1
62
1
10
46.29165913629115
20
-28.059874492791202
30
0.0
11
46.51980747503186
21
-28.273652866559377
31
0.0
0
LINE
8
1
62
1
10
46.51980747503186
20
-28.273652866559377
30
0.0
11
46.77149680829397
21
-28.523073378247854
31
0.0
0
LINE
8
1
62
1
10
46.77149680829397
20
-28.523073378247854
30
0.0
11
47.04488621859653
21
-28.809599561784363
31
0.0
0
LINE
8
1
62
1
10
47.04488621859653
20
-28.809599561784363
30
0.0
11
47.33807192727553
21
-29.13461914881514
31
0.0
0
LINE
8
1
62
1
10
47.33807192727553
20
-29.13461914881514
30
0.0
11
47.649090114087954
21
-29.499441714221717
31
0.0
0
LINE
8
1
62
1
10
47.649090114087954
20
-29.499441714221717
30
0.0
11
47.975919818859545
21
-29.905296420598823
31
0.0
0
LINE
8
1
62
1
10
47.975919818859545
20
-29.905296420598823
30
0.0
11
48.316485921831564
21
-30.35332986442706
31
0.0
0
LINE
8
1
62
1
10
48.316485921831564
20
-30.35332986442706
30
0.0
11
48.66866219927326
21
-30.84460402656363
31
0.0
0
LINE
8
1
62
1
10
48.66866219927326
20
-30.84460402656363
30
0.0
11
49.03027445084252
21
-31.380094329561953
31
0.0
0
LINE
8
1
62
1
10
49.03027445084252
20
-31.380094329561953
30
0.0
11
49.39910369509544
21
-31.96068780421485
31
0.0
0
LINE
8
1
62
1
10
49.39910369509544
20
-31.96068780421485
30
0.0
11
49.77288942946865
21
-32.587181367598596
31
0.0
0
LINE
8
1
62
1
10
49.77288942946865
20
-32.587181367598596
30
0.0
11
50.1493329509841
21
-33.26028021477386
31
0.0
0
LINE
8
1
62
1
10
50.1493329509841
20
-33.26028021477386
30
0.0
11
48.607025447754154
21
-35.47617387085757
31
0.0
0
LINE
8
1
62
1
10
48.607025447754154
20
-35.47617387085757
30
0.0
11
47.84508475624809
21
-35.35693392123127
31
0.0
0
LINE
8
1
62
1
10
47.84508475624809
20
-35.35693392123127
30
0.0
11
47.127771332422284
21
-35.224000057293274
31
0.0
0
LINE
8
1
62
1
10
47.127771332422284
20
-35.224000057293274
30
0.0
11
46.45522222972402
21
-35.079772810611274
31
0.0
0
LINE
8
1
62
1
10
46.45522222972402
20
-35.079772810611274
30
0.0
11
45.82747522188021
21
-34.92664874577047
31
0.0
0
LINE
8
1
62
1
10
45.82747522188021
20
-34.92664874577047
30
0.0
11
45.24446915778504
21
-34.76701678780488
31
0.0
0
LINE
8
1
62
1
10
45.24446915778504
20
-34.76701678780488
30
0.0
11
44.70604444405884
21
-34.603254567097544
31
0.0
0
LINE
8
1
62
1
10
44.70604444405884
20
-34.603254567097544
30
0.0
11
44.211943654558894
21
-34.43772478601554
31
0.0
0
LINE
8
1
62
1
10
44.211943654558894
20
-34.43772478601554
30
0.0
11
43.761812265983274
21
-34.2727716115177
31
0.0
0
LINE
8
1
62
1
10
43.761812265983274
20
-34.2727716115177
30
0.0
11
43.35519951857235
21
-34.110717097942164
31
0.0
0
LINE
8
1
62
1
10
43.35519951857235
20
-34.110717097942164
30
0.0
11
42.9915594007748
21
-33.95385764414431
31
0.0
0
LINE
8
1
62
1
10
42.9915594007748
20
-33.95385764414431
30
0.0
11
42.67025175661077
21
-33.80446048911574
31
0.0
0
LINE
8
1
62
1
10
42.67025175661077
20
-33.80446048911574
30
0.0
11
42.39054351433026
21
-33.66476025017013
31
0.0
0
LINE
8
1
62
1
10
42.39054351433026
20
-33.66476025017013
30
0.0
11
42.15161003483244
21
-33.53695550773308
31
0.0
0
LINE
8
1
62
1
10
42.15161003483244
20
-33.53695550773308
30
0.0
11
41.95253657818132
21
-33.4232054407199
31
0.0
0
LINE
8
1
62
1
10
41.95253657818132
20
-33.4232054407199
30
0.0
11
41.7923198864237
21
-33.32562651642821
31
0.0
0
LINE
8
1
62
1
10
41.7923198864237
20
-33.32562651642821
30
0.0
11
41.66986988078844
21
-33.246289238810824
31
0.0
0
LINE
8
1
62
1
10
41.66986988078844
20
-33.246289238810824
30
0.0
11
41.58401147122152
21
-33.187214958929125
31
0.0
0
LINE
8
1
62
1
10
41.58401147122152
20
-33.187214958929125
30
0.0
11
41.53348647608761
21
-33.15037275131769
31
0.0
0
LINE
8
1
62
1
10
41.53348647608761
20
-33.15037275131769
30
0.0
11
41.51695564974926
21
-33.13767635991819
31
0.0
0
LINE
8
1
62
1
10
41.51695564974926
20
-33.13767635991819
30
0.0
11
40.76092424397671
21
-32.534233172662816
31
0.0
0
LINE
8
1
62
1
10
40.76092424397671
20
-32.534233172662816
30
0.0
11
38.33139511477988
21
-35.364295863356745
31
0.0
0
LINE
8
1
62
1
10
38.33139511477988
20
-35.364295863356745
30
0.0
11
39.04236374641321
21
-36.020230899463805
31
0.0
0
LINE
8
1
62
1
10
39.04236374641321
20
-36.020230899463805
30
0.0
11
39.05741695343763
21
-36.034648511342276
31
0.0
0
LINE
8
1
62
1
10
39.05741695343763
20
-36.034648511342276
30
0.0
11
39.1014851963814
21
-36.07901193500203
31
0.0
0
LINE
8
1
62
1
10
39.1014851963814
20
-36.07901193500203
30
0.0
11
39.17287959896775
21
-36.15493476632595
31
0.0
0
LINE
8
1
62
1
10
39.17287959896775
20
-36.15493476632595
30
0.0
11
39.26984431703973
21
-36.26395885058733
31
0.0
0
LINE
8
1
62
1
10
39.26984431703973
20
-36.26395885058733
30
0.0
11
39.39055925037607
21
-36.40755181578161
31
0.0
0
LINE
8
1
62
1
10
39.39055925037607
20
-36.40755181578161
30
0.0
11
39.53314283960963
21
-36.58710470205694
31
0.0
0
LINE
8
1
62
1
10
39.53314283960963
20
-36.58710470205694
30
0.0
11
39.69565494497937
21
-36.803929690060244
31
0.0
0
LINE
8
1
62
1
10
39.69565494497937
20
-36.803929690060244
30
0.0
11
39.876099803556414
21
-37.059257930907634
31
0.0
0
LINE
8
1
62
1
10
39.876099803556414
20
-37.059257930907634
30
0.0
11
40.07242906149788
21
-37.35423748037678
31
0.0
0
LINE
8
1
62
1
10
40.07242906149788
20
-37.35423748037678
30
0.0
11
40.28254487779806
21
-37.68993133980542
31
0.0
0
LINE
8
1
62
1
10
40.28254487779806
20
-37.68993133980542
30
0.0
11
40.504303095927334
21
-38.06731560606381
31
0.0
0
LINE
8
1
62
1
10
40.504303095927334
20
-38.06731560606381
30
0.0
11
40.73551647967288
21
-38.487277732850096
31
0.0
0
LINE
8
1
62
1
10
40.73551647967288
20
-38.487277732850096
30
0.0
11
40.97395800942264
21
-38.95061490543625
31
0.0
0
LINE
8
1
62
1
10
40.97395800942264
20
-38.95061490543625
30
0.0
11
41.21736423506656
21
-39.4580325308691
31
0.0
0
LINE
8
1
62
1
10
41.21736423506656
20
-39.4580325308691
30
0.0
11
41.46343868162366
21
-40.01014284550495
31
0.0
0
LINE
8
1
62
1
10
41.46343868162366
20
-40.01014284550495
30
0.0
11
41.70985530364409
21
-40.607463641628996
31
0.0
0
LINE
8
1
62
1
10
41.70985530364409
20
-40.607463641628996
30
0.0
11
41.95426198437859
21
-41.250417114780866
31
0.0
0
LINE
8
1
62
1
10
41.95426198437859
20
-41.250417114780866
30
0.0
11
42.194284075655986
21
-41.9393288332768
31
0.0
0
LINE
8
1
62
1
10
42.194284075655986
20
-41.9393288332768
30
0.0
11
42.427527974361126
21
-42.674426831285516
31
0.0
0
LINE
8
1
62
1
10
42.427527974361126
20
-42.674426831285516
30
0.0
11
40.470735482685505
21
-44.53449679612915
31
0.0
0
LINE
8
1
62
1
10
40.470735482685505
20
-44.53449679612915
30
0.0
11
39.74839458729191
21
-44.26432016168123
31
0.0
0
LINE
8
1
62
1
10
39.74839458729191
20
-44.26432016168123
30
0.0
11
39.07252400147258
21
-43.98971333109172
31
0.0
0
LINE
8
1
62
1
10
39.07252400147258
20
-43.98971333109172
30
0.0
11
38.44277474973068
21
-43.71305528556218
31
0.0
0
LINE
8
1
62
1
10
38.44277474973068
20
-43.71305528556218
30
0.0
11
37.85870140765842
21
-43.436701135655284
31
0.0
0
LINE
8
1
62
1
10
37.85870140765842
20
-43.436701135655284
30
0.0
11
37.31976318884276
21
-43.16297859534215
31
0.0
0
LINE
8
1
62
1
10
37.31976318884276
20
-43.16297859534215
30
0.0
11
36.82532515331246
21
-42.89418449886107
31
0.0
0
LINE
8
1
62
1
10
36.82532515331246
20
-42.89418449886107
30
0.0
11
36.37465953596317
21
-42.632581364421306
31
0.0
0
LINE
8
1
62
1
10
36.37465953596317
20
-42.632581364421306
30
0.0
11
35.96694719326614
21
-42.38039400873029
31
0.0
0
LINE
8
1
62
1
10
35.96694719326614
20
-42.38039400873029
30
0.0
11
35.601279166438644
21
-42.139806216264944
31
0.0
0
LINE
8
1
62
1
10
35.601279166438644
20
-42.139806216264944
30
0.0
11
35.27665835912678
21
-41.91295746714391
31
0.0
0
LINE
8
1
62
1
10
35.27665835912678
20
-41.91295746714391
30
0.0
11
34.99200132752752
21
-41.701939727392094
31
0.0
0
LINE
8
1
62
1
10
34.99200132752752
20
-41.701939727392094
30
0.0
11
34.74614018075444
21
-41.50879430531709
31
0.0
0
LINE
8
1
62
1
10
34.74614018075444
20
-41.50879430531709
30
0.0
11
34.53782458913157
21
-41.33550877764338
31
0.0
0
LINE
8
1
62
1
10
34.53782458913157
20
-41.33550877764338
30
0.0
11
34.36572389798292
21
-41.184013988971685
31
0.0
0
LINE
8
1
62
1
10
34.36572389798292
20
-41.184013988971685
30
0.0
11
34.228429344369665
21
-41.05618112804845
31
0.0
0
LINE
8
1
62
1
10
34.228429344369665
20
-41.05618112804845
30
0.0
11
34.12445637411563
21
-40.95381888424554
31
0.0
0
LINE
8
1
62
1
10
34.12445637411563
20
-40.95381888424554
30
0.0
11
34.05224705635201
21
-40.8786706875605
31
0.0
0
LINE
8
1
62
1
10
34.05224705635201
20
-40.8786706875605
30
0.0
11
34.01017259270567
21
-40.83241203535532
31
0.0
0
LINE
8
1
62
1
10
34.01017259270567
20
-40.83241203535532
30
0.0
11
33.9965359181528
21
-40.81664790895589
31
0.0
0
LINE
8
1
62
1
10
33.9965359181528
20
-40.81664790895589
30
0.0
11
33.37745274022347
21
-40.073369236071855
31
0.0
0
LINE
8
1
62
1
10
33.37745274022347
20
-40.073369236071855
30
0.0
11
30.427968783635247
21
-42.35643975900855
31
0.0
0
LINE
8
1
62
1
10
30.427968783635247
20
-42.35643975900855
30
0.0
11
30.99234509356876
21
-43.1420646997692
31
0.0
0
LINE
8
1
62
1
10
30.99234509356876
20
-43.1420646997692
30
0.0
11
31.004187916626694
21
-43.15921737058213
31
0.0
0
LINE
8
1
62
1
10
31.004187916626694
20
-43.15921737058213
30
0.0
11
31.038423788519736
21
-43.21154354444081
31
0.0
0
LINE
8
1
62
1
10
31.038423788519736
20
-43.21154354444081
30
0.0
11
31.093073589904456
21
-43.300283818530495
31
0.0
0
LINE
8
1
62
1
10
31.093073589904456
20
-43.300283818530495
30
0.0
11
31.166107047685227
21
-43.42659502763087
31
0.0
0
LINE
8
1
62
1
10
31.166107047685227
20
-43.42659502763087
30
0.0
11
31.255445887855718
21
-43.5915483738251
31
0.0
0
LINE
8
1
62
1
10
31.255445887855718
20
-43.5915483738251
30
0.0
11
31.358967052356373
21
-43.79612766747172
31
0.0
0
LINE
8
1
62
1
10
31.358967052356373
20
-43.79612766747172
30
0.0
11
31.4745059761787
21
-44.0412276815401
31
0.0
0
LINE
8
1
62
1
10
31.4745059761787
20
-44.0412276815401
30
0.0
11
31.599859920880565
21
-44.32765262128661
31
0.0
0
LINE
8
1
62
1
10
31.599859920880565
20
-44.32765262128661
30
0.0
11
31.732791360613565
21
-44.65611471112253
31
0.0
0
LINE
8
1
62
1
10
31.732791360613565
20
-44.65611471112253
30
0.0
11
31.87103141670446
21
-45.02723290039593
31
0.0
0
LINE
8
1
62
1
10
31.87103141670446
20
-45.02723290039593
30
0.0
11
32.01228333677833
21
-45.44153168968055
31
0.0
0
LINE
8
1
62
1
10
32.01228333677833
20
-45.44153168968055
30
0.0
11
32.15422601436003
21
-45.89944007903247
31
0.0
0
LINE
8
1
62
1
10
32.15422601436003
20
-45.89944007903247
30
0.0
11
32.29451754484431
21
-46.401290639542175
31
0.0
0
LINE
8
1
62
1
10
32.29451754484431
20
-46.401290639542175
30
0.0
11
32.43079881368325
21
-46.94731870937539
31
0.0
0
LINE
8
1
62
1
10
32.43079881368325
20
-46.94731870937539
30
0.0
11
32.560697112601176
21
-47.53766171535912
31
0.0
0
LINE
8
1
62
1
10
32.560697112601176
20
-47.53766171535912
30
0.0
11
32.681829779614546
21
-48.17235862103337
31
0.0
0
LINE
8
1
62
1
10
32.681829779614546
20
-48.17235862103337
30
0.0
11
32.7918078586048
21
-48.851349501949535
31
0.0
0
LINE
8
1
62
1
10
32.7918078586048
20
-48.851349501949535
30
0.0
11
32.88823977416808
21
-49.57447524885873
31
0.0
0
LINE
8
1
62
1
10
32.88823977416808
20
-49.57447524885873
30
0.0
11
32.968735017444935
21
-50.3414773992921
31
0.0
0
LINE
8
1
62
1
10
32.968735017444935
20
-50.3414773992921
30
0.0
11
30.677568851846203
21
-51.769572189986015
31
0.0
0
LINE
8
1
62
1
10
30.677568851846203
20
-51.769572189986015
30
0.0
11
30.024400473693944
21
-51.359519933875205
31
0.0
0
LINE
8
1
62
1
10
30.024400473693944
20
-51.359519933875205
30
0.0
11
29.41764294707595
21
-50.95448257254344
31
0.0
0
LINE
8
1
62
1
10
29.41764294707595
20
-50.95448257254344
30
0.0
11
28.856475554649126
21
-50.556720141056275
31
0.0
0
LINE
8
1
62
1
10
28.856475554649126
20
-50.556720141056275
30
0.0
11
28.339987909598555
21
-50.1684498774507
31
0.0
0
LINE
8
1
62
1
10
28.339987909598555
20
-50.1684498774507
30
0.0
11
27.867181730063262
21
-49.79184298775148
31
0.0
0
LINE
8
1
62
1
10
27.867181730063262
20
-49.79184298775148
30
0.0
11
27.436972723997485
21
-49.42902147738856
31
0.0
0
LINE
8
1
62
1
10
27.436972723997485
20
-49.42902147738856
30
0.0
11
27.04819258212409
21
-49.08205505265205
31
0.0
0
LINE
8
1
62
1
10
27.04819258212409
20
-49.08205505265205
30
0.0
11
26.699591076519823
21
-48.75295809574062
31
0.0
0
LINE
8
1
62
1
10
26.699591076519823
20
-48.75295809574062
30
0.0
11
26.389838262258248
21
-48.443686716876854
31
0.0
0
LINE
8
1
62
1
10
26.389838262258248
20
-48.443686716876854
30
0.0
11
26.117526779424743
21
-48.15613588687527
31
0.0
0
LINE
8
1
62
1
10
26.117526779424743
20
-48.15613588687527
30
0.0
11
25.881174252709705
21
-47.892136653459175
31
0.0
0
LINE
8
1
62
1
10
25.881174252709705
20
-47.892136653459175
30
0.0
11
25.679225785680394
21
-47.653453444528125
31
0.0
0
LINE
8
1
62
1
10
25.679225785680394
20
-47.653453444528125
30
0.0
11
25.510056546729572
21
-47.441781461480915
31
0.0
0
LINE
8
1
62
1
10
25.510056546729572
20
-47.441781461480915
30
0.0
11
25.371974443599978
21
-47.258744165598806
31
0.0
0
LINE
8
1
62
1
10
25.371974443599978
20
-47.258744165598806
30
0.0
11
25.26322288328744
21
-47.105890860389955
31
0.0
0
LINE
8
1
62
1
10
25.26322288328744
20
-47.105890860389955
30
0.0
11
25.181983614033147
21
-46.98469437268986
31
0.0
0
LINE
8
1
62
1
10
25.181983614033147
20
-46.98469437268986
30
0.0
11
25.126379646026287
21
-46.896548835203305
31
0.0
0
LINE
8
1
62
1
10
25.126379646026287
20
-46.896548835203305
30
0.0
11
25.094478247352765
21
-46.84276757306081
31
0.0
0
LINE
8
1
62
1
10
25.094478247352765
20
-46.84276757306081
30
0.0
11
25.084294011643806
21
-46.824581096848455
31
0.0
0
LINE
8
1
62
1
10
25.084294011643806
20
-46.824581096848455
30
0.0
11
24.6275043996013
21
-45.97189685453517
31
0.0
0
LINE
8
1
62
1
10
24.6275043996013
20
-45.97189685453517
30
0.0
11
21.278817835354072
21
-47.614506034256195
31
0.0
0
LINE
8
1
62
1
10
21.278817835354072
20
-47.614506034256195
30
0.0
11
21.67349619114768
21
-48.49765730228868
31
0.0
0
LINE
8
1
62
1
10
21.67349619114768
20
-48.49765730228868
30
0.0
11
21.681643783671678
21
-48.516842799677626
31
0.0
0
LINE
8
1
62
1
10
21.681643783671678
20
-48.516842799677626
30
0.0
11
21.70464566389614
21
-48.5749894840294
31
0.0
0
LINE
8
1
62
1
10
21.70464566389614
20
-48.5749894840294
30
0.0
11
21.740313494789458
21
-48.67291416363709
31
0.0
0
LINE
8
1
62
1
10
21.740313494789458
20
-48.67291416363709
30
0.0
11
21.78642569393641
21
-48.81134130183493
31
0.0
0
LINE
8
1
62
1
10
21.78642569393641
20
-48.81134130183493
30
0.0
11
21.840730898327607
21
-48.990901819654724
31
0.0
0
LINE
8
1
62
1
10
21.840730898327607
20
-48.990901819654724
30
0.0
11
21.90095146945747
21
-49.212132020353714
31
0.0
0
LINE
8
1
62
1
10
21.90095146945747
20
-49.212132020353714
30
0.0
11
21.96478703461586
21
-49.47547263711317
31
0.0
0
LINE
8
1
62
1
10
21.96478703461586
20
-49.47547263711317
30
0.0
11
22.029918060217994
21
-49.78126800507208
31
0.0
0
LINE
8
1
62
1
10
22.029918060217994
20
-49.78126800507208
30
0.0
11
22.094009452981066
21
-50.129765358724235
31
0.0
0
LINE
8
1
62
1
10
22.094009452981066
20
-50.129765358724235
30
0.0
11
22.1547141847238
21
-50.52111425556902
31
0.0
0
LINE
8
1
62
1
10
22.1547141847238
20
-50.52111425556902
30
0.0
11
22.209676936538045
21
-50.95536612676851
31
0.0
0
LINE
8
1
62
1
10
22.209676936538045
20
-50.95536612676851
30
0.0
11
22.256537758058144
21
-51.43247395542404
31
0.0
0
LINE
8
1
62
1
10
22.256537758058144
20
-51.43247395542404
30
0.0
11
22.292935737535363
21
-51.95229208294511
31
0.0
0
LINE
8
1
62
1
10
22.292935737535363
20
-51.95229208294511
30
0.0
11
22.316512678410703
21
-52.514576143844124
31
0.0
0
LINE
8
1
62
1
10
22.316512678410703
20
-52.514576143844124
30
0.0
11
22.324916778069362
21
-53.118983129148404
31
0.0
0
LINE
8
1
62
1
10
22.324916778069362
20
-53.118983129148404
30
0.0
11
22.31580630445564
21
-53.765071578480814
31
0.0
0
LINE
8
1
62
1
10
22.31580630445564
20
-53.765071578480814
30
0.0
11
22.286853266225904
21
-54.452301900718545
31
0.0
0
LINE
8
1
62
1
10
22.286853266225904
20
-54.452301900718545
30
0.0
11
22.23574707212164
21
-55.18003682299888
31
0.0
0
LINE
8
1
62
1
10
22.23574707212164
20
-55.18003682299888
30
0.0
11
22.16019817525267
21
-55.94754196769922
31
0.0
0
LINE
8
1
62
1
10
22.16019817525267
20
-55.94754196769922
30
0.0
11
19.628458947751035
21
-56.88519521571838
31
0.0
0
LINE
8
1
62
1
10
19.628458947751035
20
-56.88519521571838
30
0.0
11
19.071203876985685
21
-56.35205492548896
31
0.0
0
LINE
8
1
62
1
10
19.071203876985685
20
-56.35205492548896
30
0.0
11
18.558400133999754
21
-55.83316931057772
31
0.0
0
LINE
8
1
62
1
10
18.558400133999754
20
-55.83316931057772
30
0.0
11
18.088788859868323
21
-55.330586933813116
31
0.0
0
LINE
8
1
62
1
10
18.088788859868323
20
-55.330586933813116
30
0.0
11
17.661031976712533
21
-54.84629638672071
31
0.0
0
LINE
8
1
62
1
10
17.661031976712533
20
-54.84629638672071
30
0.0
11
17.273714577000156
21
-54.38222347794911
31
0.0
0
LINE
8
1
62
1
10
17.273714577000156
20
-54.38222347794911
30
0.0
11
16.925347407654638
21
-53.940228508968325
31
0.0
0
LINE
8
1
62
1
10
16.925347407654638
20
-53.940228508968325
30
0.0
11
16.614369445945172
21
-53.52210364013062
31
0.0
0
LINE
8
1
62
1
10
16.614369445945172
20
-53.52210364013062
30
0.0
11
16.339150564032046
21
-53.12957035008196
31
0.0
0
LINE
8
1
62
1
10
16.339150564032046
20
-53.12957035008196
30
0.0
11
16.097994278946665
21
-52.76427699140831
31
0.0
0
LINE
8
1
62
1
10
16.097994278946665
20
-52.76427699140831
30
0.0
11
15.889140584693967
21
-52.42779644529222
31
0.0
0
LINE
8
1
62
1
10
15.889140584693967
20
-52.42779644529222
30
0.0
11
15.71076886307711
21
-52.1216238778465
31
0.0
0
LINE
8
1
62
1
10
15.71076886307711
20
-52.1216238778465
30
0.0
11
15.561000869759688
21
-51.847174600677135
31
0.0
0
LINE
8
1
62
1
10
15.561000869759688
20
-51.847174600677135
30
0.0
11
15.437903792000096
21
-51.605782038112785
31
0.0
0
LINE
8
1
62
1
10
15.437903792000096
20
-51.605782038112785
30
0.0
11
15.33949337441564
21
-51.39869580341965
31
0.0
0
LINE
8
1
62
1
10
15.33949337441564
20
-51.39869580341965
30
0.0
11
15.263737109060784
21
-51.227079886199924
31
0.0
0
LINE
8
1
62
1
10
15.263737109060784
20
-51.227079886199924
30
0.0
11
15.208557486034705
21
-51.09201095304907
31
0.0
0
LINE
8
1
62
1
10
15.208557486034705
20
-51.09201095304907
30
0.0
11
15.171835300768006
21
-50.994476763422355
31
0.0
0
LINE
8
1
62
1
10
15.171835300768006
20
-50.994476763422355
30
0.0
11
15.151413014077242
21
-50.9353747025337
31
0.0
0
LINE
8
1
62
1
10
15.151413014077242
20
-50.9353747025337
30
0.0
11
15.145098161018716
21
-50.91551043298137
31
0.0
0
LINE
8
1
62
1
10
15.145098161018716
20
-50.91551043298137
30
0.0
11
14.869303135250556
21
-49.98832961430527
31
0.0
0
LINE
8
1
62
1
10
14.869303135250556
20
-49.98832961430527
30
0.0
11
11.258509584738558
21
-50.92322883799447
31
0.0
0
LINE
8
1
62
1
10
11.258509584738558
20
-50.92322883799447
30
0.0
11
11.467331808133343
21
-51.867750116619675
31
0.0
0
LINE
8
1
62
1
10
11.467331808133343
20
-51.867750116619675
30
0.0
11
11.471450606728162
21
-51.888182984067335
31
0.0
0
LINE
8
1
62
1
10
11.471450606728162
20
-51.888182984067335
30
0.0
11
11.482276795605053
21
-51.9497696468229
31
0.0
0
LINE
8
1
62
1
10
11.482276795605053
20
-51.9497696468229
30
0.0
11
11.497502410819404
21
-52.05286968405978
31
0.0
0
LINE
8
1
62
1
10
11.497502410819404
20
-52.05286968405978
30
0.0
11
11.514805512481507
21
-52.19774552805277
31
0.0
0
LINE
8
1
62
1
10
11.514805512481507
20
-52.19774552805277
30
0.0
11
11.531853819645043
21
-52.384561988801124
31
0.0
0
LINE
8
1
62
1
10
11.531853819645043
20
-52.384561988801124
30
0.0
11
11.546308360146448
21
-52.61338590614243
31
0.0
0
LINE
8
1
62
1
10
11.546308360146448
20
-52.61338590614243
30
0.0
11
11.555827131102951
21
-52.88418592980162
31
0.0
0
LINE
8
1
62
1
10
11.555827131102951
20
-52.88418592980162
30
0.0
11
11.558068765764627
21
-53.19683242767926
31
0.0
0
LINE
8
1
62
1
10
11.558068765764627
20
-53.19683242767926
30
0.0
11
11.550696202407632
21
-53.551097522542435
31
0.0
0
LINE
8
1
62
1
10
11.550696202407632
20
-53.551097522542435
30
0.0
11
11.531380350952162
21
-53.94665525714022
31
0.0
0
LINE
8
1
62
1
10
11.531380350952162
20
-53.94665525714022
30
0.0
11
11.497803752989654
21
-54.38308188762526
31
0.0
0
LINE
8
1
62
1
10
11.497803752989654
20
-54.38308188762526
30
0.0
11
11.447664230909208
21
-54.859856305021445
31
0.0
0
LINE
8
1
62
1
10
11.447664230909208
20
-54.859856305021445
30
0.0
11
11.37867852182299
21
-55.37636058433712
31
0.0
0
LINE
8
1
62
1
10
11.37867852182299
20
-55.37636058433712
30
0.0
11
11.288585892005107
21
-55.93188066078318
31
0.0
0
LINE
8
1
62
1
10
11.288585892005107
20
-55.93188066078318
30
0.0
11
11.175151727577033
21
-56.525607132414834
31
0.0
0
LINE
8
1
62
1
10
11.175151727577033
20
-56.525607132414834
30
0.0
11
11.036171097196412
21
-57.15663618837758
31
0.0
0
LINE
8
1
62
1
10
11.036171097196412
20
-57.15663618837758
30
0.0
11
10.869472282533653
21
-57.82397066179832
31
0.0
0
LINE
8
1
62
1
10
10.869472282533653
20
-57.82397066179832
30
0.0
11
10.672920272353192
21
-58.52652120622642
31
0.0
0
LINE
8
1
62
1
10
10.672920272353192
20
-58.52652120622642
30
0.0
11
10.444420216052832
21
-59.26310759439167
31
0.0
0
LINE
8
1
62
1
10
10.444420216052832
20
-59.26310759439167
30
0.0
11
7.775757628088937
21
-59.67193166559261
31
0.0
0
LINE
8
1
62
1
10
7.775757628088937
20
-59.67193166559261
30
0.0
11
7.337229952782321
21
-59.03753016736788
31
0.0
0
LINE
8
1
62
1
10
7.337229952782321
20
-59.03753016736788
30
0.0
11
6.939374238918177
21
-58.42603953691812
31
0.0
0
LINE
8
1
62
1
10
6.939374238918177
20
-58.42603953691812
30
0.0
11
6.580545023822067
21
-57.83921299643174
31
0.0
0
LINE
8
1
62
1
10
6.580545023822067
20
-57.83921299643174
30
0.0
11
6.259031319616755
21
-57.278729077752175
31
0.0
0
LINE
8
1
62
1
10
6.259031319616755
20
-57.278729077752175
30
0.0
11
5.973059519579384
21
-56.74618934931958
31
0.0
0
LINE
8
1
62
1
10
5.973059519579384
20
-56.74618934931958
30
0.0
11
5.720796379798535
21
-56.2431162476832
31
0.0
0
LINE
8
1
62
1
10
5.720796379798535
20
-56.2431162476832
30
0.0
11
5.500352072543738
21
-55.77095101600208
31
0.0
0
LINE
8
1
62
1
10
5.500352072543738
20
-55.77095101600208
30
0.0
11
5.309783307684121
21
-55.33105175183151
31
0.0
0
LINE
8
1
62
1
10
5.309783307684121
20
-55.33105175183151
30
0.0
11
5.147096518420989
21
-54.92469156637222
31
0.0
0
LINE
8
1
62
1
10
5.147096518420989
20
-54.92469156637222
30
0.0
11
5.010251107531071
21
-54.553056857234395
31
0.0
0
LINE
8
1
62
1
10
5.010251107531071
20
-54.553056857234395
30
0.0
11
4.897162750253176
21
-54.21724569664402
31
0.0
0
LINE
8
1
62
1
10
4.897162750253176
20
-54.21724569664402
30
0.0
11
4.805706749891053
21
-53.918266336890085
31
0.0
0
LINE
8
1
62
1
10
4.805706749891053
20
-53.918266336890085
30
0.0
11
4.733721442149459
21
-53.65703583468238
31
0.0
0
LINE
8
1
62
1
10
4.733721442149459
20
-53.65703583468238
30
0.0
11
4.679011644168784
21
-53.43437879595816
31
0.0
0
LINE
8
1
62
1
10
4.679011644168784
20
-53.43437879595816
30
0.0
11
4.6393521441762235
21
-53.25102624254256
31
0.0
0
LINE
8
1
62
1
10
4.6393521441762235
20
-53.25102624254256
30
0.0
11
4.612491227628373
21
-53.10761460193406
31
0.0
0
LINE
8
1
62
1
10
4.612491227628373
20
-53.10761460193406
30
0.0
11
4.596154235681325
21
-53.00468482135029
31
0.0
0
LINE
8
1
62
1
10
4.596154235681325
20
-53.00468482135029
30
0.0
11
4.588047151789956
21
-52.94268160703244
31
0.0
0
LINE
8
1
62
1
10
4.588047151789956
20
-52.94268160703244
30
0.0
11
4.585860212208046
21
-52.92195278966957
31
0.0
0
LINE
8
1
62
1
10
4.585860212208046
20
-52.92195278966957
30
0.0
11
4.502350853473719
21
-51.95823428628639
31
0.0
0
LINE
8
1
62
1
10
4.502350853473719
20
-51.95823428628639
30
0.0
11
0.7772766289051442
21
-52.147148669879925
31
0.0
0
LINE
8
1
62
1
10
0.7772766289051442
20
-52.147148669879925
30
0.0
11
0.7916935135397495
21
-53.11437114697439
31
0.0
0
LINE
8
1
62
1
10
0.7916935135397495
20
-53.11437114697439
30
0.0
11
0.791614894106982
21
-53.1352148604867
31
0.0
0
LINE
8
1
62
1
10
0.791614894106982
20
-53.1352148604867
30
0.0
11
0.7898221661916565
21
-53.197720136436715
31
0.0
0
LINE
8
1
62
1
10
0.7898221661916565
20
-53.197720136436715
30
0.0
11
0.7839822272512333
21
-53.301774603664576
31
0.0
0
LINE
8
1
62
1
10
0.7839822272512333
20
-53.301774603664576
30
0.0
11
0.7717678404134138
21
-53.44716791937746
31
0.0
0
LINE
8
1
62
1
10
0.7717678404134138
20
-53.44716791937746
30
0.0
11
0.7508612906509222
21
-53.63359203520134
31
0.0
0
LINE
8
1
62
1
10
0.7508612906509222
20
-53.63359203520134
30
0.0
11
0.7189580299374005
21
-53.86064159112332
31
0.0
0
LINE
8
1
62
1
10
0.7189580299374005
20
-53.86064159112332
30
0.0
11
0.6737703070906513
21
-54.12781443689598
31
0.0
0
LINE
8
1
62
1
10
0.6737703070906513
20
-54.12781443689598
30
0.0
11
0.6130307780254398
21
-54.43451228033484
31
0.0
0
LINE
8
1
62
1
10
0.6130307780254398
20
-54.43451228033484
30
0.0
11
0.534496092158459
21
-54.780041461800955
31
0.0
0
LINE
8
1
62
1
10
0.534496092158459
20
-54.780041461800955
30
0.0
11
0.4359504507328821
21
-55.16361385402126
31
0.0
0
LINE
8
1
62
1
10
0.4359504507328821
20
-55.16361385402126
30
0.0
11
0.315209132859288
21
-55.584347886261824
31
0.0
0
LINE
8
1
62
1
10
0.315209132859288
20
-55.584347886261824
30
0.0
11
0.17012198510341558
21
-56.041269691731856
31
0.0
0
LINE
8
1
62
1
10
0.17012198510341558
20
-56.041269691731856
30
0.0
11
-0.0014231295107739461
21
-56.53331437696028
31
0.0
0
LINE
8
1
62
1
10
-0.0014231295107739461
20
-56.53331437696028
30
0.0
11
-0.20149692717169687
21
-57.05932741175283
31
0.0
0
LINE
8
1
62
1
10
-0.20149692717169687
20
-57.05932741175283
30
0.0
11
-0.43212534766686994
21
-57.618066138203375
31
0.0
0
LINE
8
1
62
1
10
-0.43212534766686994
20
-57.618066138203375
30
0.0
11
-0.6952862514770783
21
-58.20820139710258
31
0.0
0
LINE
8
1
62
1
10
-0.6952862514770783
20
-58.20820139710258
30
0.0
11
-0.9929061735142928
21
-58.828319269956005
31
0.0
0
LINE
8
1
62
1
10
-0.9929061735142928
20
-58.828319269956005
30
0.0
11
-1.326857137380275
21
-59.47692293469678
31
0.0
0
LINE
8
1
62
1
10
-1.326857137380275
20
-59.47692293469678
30
0.0
11
-1.6989535339594783
21
-60.152434633050255
31
0.0
0
LINE
8
1
62
1
10
-1.6989535339594783
20
-60.152434633050255
30
0.0
11
-4.3952841224798505
21
-60.01569222192321
31
0.0
0
LINE
8
1
62
1
10
-4.3952841224798505
20
-60.01569222192321
30
0.0
11
-4.697131027775865
21
-59.3060019875795
31
0.0
0
LINE
8
1
62
1
10
-4.697131027775865
20
-59.3060019875795
30
0.0
11
-4.963750452846563
21
-58.62694083984893
31
0.0
0
LINE
8
1
62
1
10
-4.963750452846563
20
-58.62694083984893
30
0.0
11
-5.197107098680677
21
-57.97989488315747
31
0.0
0
LINE
8
1
62
1
10
-5.197107098680677
20
-57.97989488315747
30
0.0
11
-5.399214815109088
21
-57.36616387037556
31
0.0
0
LINE
8
1
62
1
10
-5.399214815109088
20
-57.36616387037556
30
0.0
11
-5.572133296377666
21
-56.78695956133474
31
0.0
0
LINE
8
1
62
1
10
-5.572133296377666
20
-56.78695956133474
30
0.0
11
-5.717964724011556
21
-56.24340419893235
31
0.0
0
LINE
8
1
62
1
10
-5.717964724011556
20
-56.24340419893235
30
0.0
11
-5.838850360971566
21
-55.736529104469916
31
0.0
0
LINE
8
1
62
1
10
-5.838850360971566
20
-55.736529104469916
30
0.0
11
-5.93696710115344
21
-55.267273393738535
31
0.0
0
LINE
8
1
62
1
10
-5.93696710115344
20
-55.267273393738535
30
0.0
11
-6.014523978327004
21
-54.83648281523159
31
0.0
0
LINE
8
1
62
1
10
-6.014523978327004
20
-54.83648281523159
30
0.0
11
-6.073758638653654
21
-54.44490871172937
31
0.0
0
LINE
8
1
62
1
10
-6.073758638653654
20
-54.44490871172937
30
0.0
11
-6.116933780958315
21
-54.09320710636505
31
0.0
0
LINE
8
1
62
1
10
-6.116933780958315
20
-54.09320710636505
30
0.0
11
-6.146333568964692
21
-53.78193791414345
31
0.0
0
LINE
8
1
62
1
10
-6.146333568964692
20
-53.78193791414345
30
0.0
11
-6.16426001973143
21
-53.51156427974607
31
0.0
0
LINE
8
1
62
1
10
-6.16426001973143
20
-53.51156427974607
30
0.0
11
-6.173029372550867
21
-53.28245204231722
31
0.0
0
LINE
8
1
62
1
10
-6.173029372550867
20
-53.28245204231722
30
0.0
11
-6.174968442591646
21
-53.09486932778558
31
0.0
0
LINE
8
1
62
1
10
-6.174968442591646
20
-53.09486932778558
30
0.0
11
-6.172410963581772
21
-52.94898626913611
31
0.0
0
LINE
8
1
62
1
10
-6.172410963581772
20
-52.94898626913611
30
0.0
11
-6.167693923839342
21
-52.84487485490611
31
0.0
0
LINE
8
1
62
1
10
-6.167693923839342
20
-52.84487485490611
30
0.0
11
-6.1631538999642625
21
-52.782508906038316
31
0.0
0
LINE
8
1
62
1
10
-6.1631538999642625
20
-52.782508906038316
30
0.0
11
-6.161123392506119
21
-52.761764181083265
31
0.0
0
LINE
8
1
62
1
10
-6.161123392506119
20
-52.761764181083265
30
0.0
11
-6.048928201248095
21
-51.80096274175362
31
0.0
0
LINE
8
1
62
1
10
-6.048928201248095
20
-51.80096274175362
30
0.0
11
-9.735778123441774
21
-51.236158108190686
31
0.0
0
LINE
8
1
62
1
10
-9.735778123441774
20
-51.236158108190686
30
0.0
11
-9.9163568065182
21
-52.186483581898365
31
0.0
0
LINE
8
1
62
1
10
-9.9163568065182
20
-52.186483581898365
30
0.0
11
-9.920629625289738
21
-52.206884797395084
31
0.0
0
LINE
8
1
62
1
10
-9.920629625289738
20
-52.206884797395084
30
0.0
11
-9.93496787550579
21
-52.26774971319811
31
0.0
0
LINE
8
1
62
1
10
-9.93496787550579
20
-52.26774971319811
30
0.0
11
-9.961634280814604
21
-52.36849860830276
31
0.0
0
LINE
8
1
62
1
10
-9.961634280814604
20
-52.36849860830276
30
0.0
11
-10.002866097720077
21
-52.508456976307265
31
0.0
0
LINE
8
1
62
1
10
-10.002866097720077
20
-52.508456976307265
30
0.0
11
-10.060871587804904
21
-52.68685652200091
31
0.0
0
LINE
8
1
62
1
10
-10.060871587804904
20
-52.68685652200091
30
0.0
11
-10.137826526491265
21
-52.90283628100695
31
0.0
0
LINE
8
1
62
1
10
-10.137826526491265
20
-52.90283628100695
30
0.0
11
-10.235870752458588
21
-53.15544386119568
31
0.0
0
LINE
8
1
62
1
10
-10.235870752458588
20
-53.15544386119568
30
0.0
11
-10.357104761794165
21
-53.4436368044499
31
0.0
0
LINE
8
1
62
1
10
-10.357104761794165
20
-53.4436368044499
30
0.0
11
-10.503586350904307
21
-53.76628406723177
31
0.0
0
LINE
8
1
62
1
10
-10.503586350904307
20
-53.76628406723177
30
0.0
11
-10.677327312161406
21
-54.122167618269245
31
0.0
0
LINE
8
1
62
1
10
-10.677327312161406
20
-54.122167618269245
30
0.0
11
-10.880290186205837
21
-54.50998415155127
31
0.0
0
LINE
8
1
62
1
10
-10.880290186205837
20
-54.50998415155127
30
0.0
11
-11.114385074760994
21
-54.92834691269317
31
0.0
0
LINE
8
1
62
1
10
-11.114385074760994
20
-54.92834691269317
30
0.0
11
-11.381466517755156
21
-55.37578763660829
31
0.0
0
LINE
8
1
62
1
10
-11.381466517755156
20
-55.37578763660829
30
0.0
11
-11.68333043847521
21
-55.85075859429902
31
0.0
0
LINE
8
1
62
1
10
-11.68333043847521
20
-55.85075859429902
30
0.0
11
-12.021711160404719
21
-56.35163474645856
31
0.0
0
LINE
8
1
62
1
10
-12.021711160404719
20
-56.35163474645856
30
0.0
11
-12.398278499322432
21
-56.87671600145692
31
0.0
0
LINE
8
1
62
1
10
-12.398278499322432
20
-56.87671600145692
30
0.0
11
-12.814634934157041
21
-57.42422957516768
31
0.0
0
LINE
8
1
62
1
10
-12.814634934157041
20
-57.42422957516768
30
0.0
11
-13.272312860010302
21
-57.99233244997897
31
0.0
0
LINE
8
1
62
1
10
-13.272312860010302
20
-57.99233244997897
30
0.0
11
-13.772771926672924
21
-58.579113930220785
31
0.0
0
LINE
8
1
62
1
10
-13.772771926672924
20
-58.579113930220785
30
0.0
11
-16.386382424650357
21
-57.902403287143855
31
0.0
0
LINE
8
1
62
1
10
-16.386382424650357
20
-57.902403287143855
30
0.0
11
-16.539190912167445
21
-57.14647911826026
31
0.0
0
LINE
8
1
62
1
10
-16.539190912167445
20
-57.14647911826026
30
0.0
11
-16.663658617855848
21
-56.427648296423264
31
0.0
0
LINE
8
1
62
1
10
-16.663658617855848
20
-56.427648296423264
30
0.0
11
-16.761989045929276
21
-55.746873061018356
31
0.0
0
LINE
8
1
62
1
10
-16.761989045929276
20
-55.746873061018356
30
0.0
11
-16.836416460923562
21
-55.105021173907716
31
0.0
0
LINE
8
1
62
1
10
-16.836416460923562
20
-55.105021173907716
30
0.0
11
-16.88920232048315
21
-54.50286497672443
31
0.0
0
LINE
8
1
62
1
10
-16.88920232048315
20
-54.50286497672443
30
0.0
11
-16.922631680188285
21
-53.94108057395782
31
0.0
0
LINE
8
1
62
1
10
-16.922631680188285
20
-53.94108057395782
30
0.0
11
-16.939009574672905
21
-53.420247142636654
31
0.0
0
LINE
8
1
62
1
10
-16.939009574672905
20
-53.420247142636654
30
0.0
11
-16.940657379305765
21
-52.94084636927701
31
0.0
0
LINE
8
1
62
1
10
-16.940657379305765
20
-52.94084636927701
30
0.0
11
-16.929909156725728
21
-52.503262014622244
31
0.0
0
LINE
8
1
62
1
10
-16.929909156725728
20
-52.503262014622244
30
0.0
11
-16.90910799253556
21
-52.107779606561
31
0.0
0
LINE
8
1
62
1
10
-16.90910799253556
20
-52.107779606561
30
0.0
11
-16.880602324468168
21
-51.75458626146954
31
0.0
0
LINE
8
1
62
1
10
-16.880602324468168
20
-51.75458626146954
30
0.0
11
-16.84674226934349
21
-51.44377063408239
31
0.0
0
LINE
8
1
62
1
10
-16.84674226934349
20
-51.44377063408239
30
0.0
11
-16.809875952134714
21
-51.17532299585512
31
0.0
0
LINE
8
1
62
1
10
-16.809875952134714
20
-51.17532299585512
30
0.0
11
-16.772345841458133
21
-50.949135441641516
31
0.0
0
LINE
8
1
62
1
10
-16.772345841458133
20
-50.949135441641516
30
0.0
11
-16.736485095791828
21
-50.7650022243668
31
0.0
0
LINE
8
1
62
1
10
-16.736485095791828
20
-50.7650022243668
30
0.0
11
-16.704613924715385
21
-50.622620217237994
31
0.0
0
LINE
8
1
62
1
10
-16.704613924715385
20
-50.622620217237994
30
0.0
11
-16.67903596944476
21
-50.52158950289292
31
0.0
0
LINE
8
1
62
1
10
-16.67903596944476
20
-50.52158950289292
30
0.0
11
-16.66203470691411
21
-50.46141408874952
31
0.0
0
LINE
8
1
62
1
10
-16.66203470691411
20
-50.46141408874952
30
0.0
11
-16.655869881629823
21
-50.44150274767935
31
0.0
0
LINE
8
1
62
1
10
-16.655869881629823
20
-50.44150274767935
30
0.0
11
-16.352563424691926
21
-49.522953696218785
31
0.0
0
LINE
8
1
62
1
10
-16.352563424691926
20
-49.522953696218785
30
0.0
11
-19.85024897550965
21
-48.227553213559155
31
0.0
0
LINE
8
1
62
1
10
-19.85024897550965
20
-48.227553213559155
30
0.0
11
-20.218430313794865
21
-49.122075247327935
31
0.0
0
LINE
8
1
62
1
10
-20.218430313794865
20
-49.122075247327935
30
0.0
11
-20.226722402202633
21
-49.141198736649606
31
0.0
0
LINE
8
1
62
1
10
-20.226722402202633
20
-49.141198736649606
30
0.0
11
-20.253019165070892
21
-49.19793147550132
31
0.0
0
LINE
8
1
62
1
10
-20.253019165070892
20
-49.19793147550132
30
0.0
11
-20.299420310981585
21
-49.29125012687968
31
0.0
0
LINE
8
1
62
1
10
-20.299420310981585
20
-49.29125012687968
30
0.0
11
-20.367981522526065
21
-49.42004363514529
31
0.0
0
LINE
8
1
62
1
10
-20.367981522526065
20
-49.42004363514529
30
0.0
11
-20.460711201353803
21
-49.58311491234698
31
0.0
0
LINE
8
1
62
1
10
-20.460711201353803
20
-49.58311491234698
30
0.0
11
-20.57956727378136
21
-49.779182637726805
31
0.0
0
LINE
8
1
62
1
10
-20.57956727378136
20
-49.779182637726805
30
0.0
11
-20.72645406073845
21
-50.00688316831855
31
0.0
0
LINE
8
1
62
1
10
-20.72645406073845
20
-50.00688316831855
30
0.0
11
-20.903219215757805
21
-50.264772558430074
31
0.0
0
LINE
8
1
62
1
10
-20.903219215757805
20
-50.264772558430074
30
0.0
11
-21.11165073464208
21
-50.55132868567998
31
0.0
0
LINE
8
1
62
1
10
-21.11165073464208
20
-50.55132868567998
30
0.0
11
-21.35347404036314
21
-50.8649534811406
31
0.0
0
LINE
8
1
62
1
10
-21.35347404036314
20
-50.8649534811406
30
0.0
11
-21.630349146667903
21
-51.203975261025
31
0.0
0
LINE
8
1
62
1
10
-21.630349146667903
20
-51.203975261025
30
0.0
11
-21.943867903779918
21
-51.56665115724209
31
0.0
0
LINE
8
1
62
1
10
-21.943867903779918
20
-51.56665115724209
30
0.0
11
-22.29555132949713
21
-51.95116964403478
31
0.0
0
LINE
8
1
62
1
10
-22.29555132949713
20
-51.95116964403478
30
0.0
11
-22.686847028894533
21
-52.35565315780911
31
0.0
0
LINE
8
1
62
1
10
-22.686847028894533
20
-52.35565315780911
30
0.0
11
-23.119126705744538
21
-52.778160807157775
31
0.0
0
LINE
8
1
62
1
10
-23.119126705744538
20
-52.778160807157775
30
0.0
11
-23.59368376866968
21
-53.216691169981246
31
0.0
0
LINE
8
1
62
1
10
-23.59368376866968
20
-53.216691169981246
30
0.0
11
-24.11173103493975
21
-53.66918517451148
31
0.0
0
LINE
8
1
62
1
10
-24.11173103493975
20
-53.66918517451148
30
0.0
11
-24.674398534720986
21
-54.13352906094925
31
0.0
0
LINE
8
1
62
1
10
-24.674398534720986
20
-54.13352906094925
30
0.0
11
-25.282731418476416
21
-54.60755742033444
31
0.0
0
LINE
8
1
62
1
10
-25.282731418476416
20
-54.60755742033444
30
0.0
11
-27.706620305037507
21
-53.41858315854531
31
0.0
0
LINE
8
1
62
1
10
-27.706620305037507
20
-53.41858315854531
30
0.0
11
-27.704134377342488
21
-52.647372679413245
31
0.0
0
LINE
8
1
62
1
10
-27.704134377342488
20
-52.647372679413245
30
0.0
11
-27.68135464115338
21
-51.918201201774856
31
0.0
0
LINE
8
1
62
1
10
-27.68135464115338
20
-51.918201201774856
30
0.0
11
-27.64063319218746
21
-51.23156770578168
31
0.0
0
LINE
8
1
62
1
10
-27.64063319218746
20
-51.23156770578168
30
0.0
11
-27.584333238632897
21
-50.58787243601501
31
0.0
0
LINE
8
1
62
1
10
-27.584333238632897
20
-50.58787243601501
30
0.0
11
-27.514825417191055
21
-49.987416696152295
31
0.0
0
LINE
8
1
62
1
10
-27.514825417191055
20
-49.987416696152295
30
0.0
11
-27.434484107053322
21
-49.430402772477585
31
0.0
0
LINE
8
1
62
1
10
-27.434484107053322
20
-49.430402772477585
30
0.0
11
-27.345683746138032
21
-48.91693398617131
31
0.0
0
LINE
8
1
62
1
10
-27.345683746138032
20
-48.91693398617131
30
0.0
11
-27.250795153906598
21
-48.44701487417195
31
0.0
0
LINE
8
1
62
1
10
-27.250795153906598
20
-48.44701487417195
30
0.0
11
-27.15218186506825
21
-48.0205514982629
31
0.0
0
LINE
8
1
62
1
10
-27.15218186506825
20
-48.0205514982629
30
0.0
11
-27.052196478467245
21
-47.63735188189588
31
0.0
0
LINE
8
1
62
1
10
-27.052196478467245
20
-47.63735188189588
30
0.0
11
-26.95317702542776
21
-47.29712657412377
31
0.0
0
LINE
8
1
62
1
10
-26.95317702542776
20
-47.29712657412377
30
0.0
11
-26.857443361807213
21
-46.9994893398756
31
0.0
0
LINE
8
1
62
1
10
-26.857443361807213
20
-46.9994893398756
30
0.0
11
-26.767293587981058
21
-46.743957975668714
31
0.0
0
LINE
8
1
62
1
10
-26.767293587981058
20
-46.743957975668714
30
0.0
11
-26.68500050094915
21
-46.52995524971578
31
0.0
0
LINE
8
1
62
1
10
-26.68500050094915
20
-46.52995524971578
30
0.0
11
-26.6128080827168
21
-46.35680996524795
31
0.0
0
LINE
8
1
62
1
10
-26.6128080827168
20
-46.35680996524795
30
0.0
11
-26.552928029062365
21
-46.22375814574084
31
0.0
0
LINE
8
1
62
1
10
-26.552928029062365
20
-46.22375814574084
30
0.0
11
-26.507536322757606
21
-46.12994434059658
31
0.0
0
LINE
8
1
62
1
10
-26.507536322757606
20
-46.12994434059658
30
0.0
11
-26.47876985525695
21
-46.07442304970291
31
0.0
0
LINE
8
1
62
1
10
-26.47876985525695
20
-46.07442304970291
30
0.0
11
-26.468723100817996
21
-46.05616026516052
31
0.0
0
LINE
8
1
62
1
10
-26.468723100817996
20
-46.05616026516052
30
0.0
11
-25.986722780184262
21
-45.21746910766075
31
0.0
0
LINE
8
1
62
1
10
-25.986722780184262
20
-45.21746910766075
30
0.0
11
-29.152048302214883
21
-43.244506623867636
31
0.0
0
LINE
8
1
62
1
10
-29.152048302214883
20
-43.244506623867636
30
0.0
11
-29.69275890846002
21
-44.046603380533156
31
0.0
0
LINE
8
1
62
1
10
-29.69275890846002
20
-44.046603380533156
30
0.0
11
-29.704730787430325
21
-44.063666225780025
31
0.0
0
LINE
8
1
62
1
10
-29.704730787430325
20
-44.063666225780025
30
0.0
11
-29.741909470389228
21
-44.11394414268603
31
0.0
0
LINE
8
1
62
1
10
-29.741909470389228
20
-44.11394414268603
30
0.0
11
-29.806145688536315
21
-44.19601207378621
31
0.0
0
LINE
8
1
62
1
10
-29.806145688536315
20
-44.19601207378621
30
0.0
11
-29.89922939066357
21
-44.308367900951936
31
0.0
0
LINE
8
1
62
1
10
-29.89922939066357
20
-44.308367900951936
30
0.0
11
-30.02288689428773
21
-44.44943475241294
31
0.0
0
LINE
8
1
62
1
10
-30.02288689428773
20
-44.44943475241294
30
0.0
11
-30.178778118886314
21
-44.61756340845255
31
0.0
0
LINE
8
1
62
1
10
-30.178778118886314
20
-44.61756340845255
30
0.0
11
-30.36849390451668
21
-44.81103480297119
31
0.0
0
LINE
8
1
62
1
10
-30.36849390451668
20
-44.81103480297119
30
0.0
11
-30.593553419004287
21
-45.02806261800814
31
0.0
0
LINE
8
1
62
1
10
-30.593553419004287
20
-45.02806261800814
30
0.0
11
-30.855401656789915
21
-45.26679596820754
31
0.0
0
LINE
8
1
62
1
10
-30.855401656789915
20
-45.26679596820754
30
0.0
11
-31.155407032425682
21
-45.52532217211583
31
0.0
0
LINE
8
1
62
1
10
-31.155407032425682
20
-45.52532217211583
30
0.0
11
-31.494859071607216
21
-45.80166960710076
31
0.0
0
LINE
8
1
62
1
10
-31.494859071607216
20
-45.80166960710076
30
0.0
11
-31.874966202523034
21
-46.0938106445893
31
0.0
0
LINE
8
1
62
1
10
-31.874966202523034
20
-46.0938106445893
30
0.0
11
-32.29685365019339
21
-46.399664662231245
31
0.0
0
LINE
8
1
62
1
10
-32.29685365019339
20
-46.399664662231245
30
0.0
11
-32.761561436359514
21
-46.717101129510475
31
0.0
0
LINE
8
1
62
1
10
-32.761561436359514
20
-46.717101129510475
30
0.0
11
-33.270042487369075
21
-47.04394276324139
31
0.0
0
LINE
8
1
62
1
10
-33.270042487369075
20
-47.04394276324139
30
0.0
11
-33.823160852387396
21
-47.37796874931085
31
0.0
0
LINE
8
1
62
1
10
-33.823160852387396
20
-47.37796874931085
30
0.0
11
-34.421690034143865
21
-47.716918026949315
31
0.0
0
LINE
8
1
62
1
10
-34.421690034143865
20
-47.716918026949315
30
0.0
11
-35.066311434301404
21
-48.058492631744706
31
0.0
0
LINE
8
1
62
1
10
-35.066311434301404
20
-48.058492631744706
30
0.0
11
-35.757612915412615
21
-48.40036109354407
31
0.0
0
LINE
8
1
62
1
10
-35.757612915412615
20
-48.40036109354407
30
0.0
11
-37.89254589474673
21
-46.74779995901892
31
0.0
0
LINE
8
1
62
1
10
-37.89254589474673
20
-46.74779995901892
30
0.0
11
-37.73486732601152
21
-45.99287661726744
31
0.0
0
LINE
8
1
62
1
10
-37.73486732601152
20
-45.99287661726744
30
0.0
11
-37.56577275302099
21
-45.2832168497962
31
0.0
0
LINE
8
1
62
1
10
-37.56577275302099
20
-45.2832168497962
30
0.0
11
-37.38766656792095
21
-44.6188359492167
31
0.0
0
LINE
8
1
62
1
10
-37.38766656792095
20
-44.6188359492167
30
0.0
11
-37.20294417253103
21
-43.99965025676925
31
0.0
0
LINE
8
1
62
1
10
-37.20294417253103
20
-43.99965025676925
30
0.0
11
-37.013988328464414
21
-43.42547770276763
31
0.0
0
LINE
8
1
62
1
10
-37.013988328464414
20
-43.42547770276763
30
0.0
11
-36.823165531160555
21
-42.89603847366643
31
0.0
0
LINE
8
1
62
1
10
-36.823165531160555
20
-42.89603847366643
30
0.0
11
-36.63282241205483
21
-42.41095580481644
31
0.0
0
LINE
8
1
62
1
10
-36.63282241205483
20
-42.41095580481644
30
0.0
11
-36.445282173073984
21
-41.969756897835765
31
0.0
0
LINE
8
1
62
1
10
-36.445282173073984
20
-41.969756897835765
30
0.0
11
-36.26284105760894
21
-41.571873961389464
31
0.0
0
LINE
8
1
62
1
10
-36.26284105760894
20
-41.571873961389464
30
0.0
11
-36.087764862072326
21
-41.216645374034776
31
0.0
0
LINE
8
1
62
1
10
-36.087764862072326
20
-41.216645374034776
30
0.0
11
-35.92228549210247
21
-40.90331696765699
31
0.0
0
LINE
8
1
62
1
10
-35.92228549210247
20
-40.90331696765699
30
0.0
11
-35.768597567422916
21
-40.631043429888805
31
0.0
0
LINE
8
1
62
1
10
-35.768597567422916
20
-40.631043429888805
30
0.0
11
-35.62885507931197
21
-40.39888982377659
31
0.0
0
LINE
8
1
62
1
10
-35.62885507931197
20
-40.39888982377659
30
0.0
11
-35.50516810457685
21
-40.2058332228291
31
0.0
0
LINE
8
1
62
1
10
-35.50516810457685
20
-40.2058332228291
30
0.0
11
-35.39959957986314
21
-40.050764459457966
31
0.0
0
LINE
8
1
62
1
10
-35.39959957986314
20
-40.050764459457966
30
0.0
11
-35.314162140062926
21
-39.9324899846961
31
0.0
0
LINE
8
1
62
1
10
-35.314162140062926
20
-39.9324899846961
30
0.0
11
-35.25081502451346
21
-39.84973383695792
31
0.0
0
LINE
8
1
62
1
10
-35.25081502451346
20
-39.84973383695792
30
0.0
11
-35.21146105460219
21
-39.801139717486635
31
0.0
0
LINE
8
1
62
1
10
-35.21146105460219
20
-39.801139717486635
30
0.0
11
-35.19794368631574
21
-39.78527317001698
31
0.0
0
LINE
8
1
62
1
10
-35.19794368631574
20
-39.78527317001698
30
0.0
11
-34.55698265174554
21
-39.06077602100807
31
0.0
0
LINE
8
1
62
1
10
-34.55698265174554
20
-39.06077602100807
30
0.0
11
-37.26035934620725
21
-36.491024851981166
31
0.0
0
LINE
8
1
62
1
10
-37.26035934620725
20
-36.491024851981166
30
0.0
11
-37.95146246466184
21
-37.167858396083176
31
0.0
0
LINE
8
1
62
1
10
-37.95146246466184
20
-37.167858396083176
30
0.0
11
-37.966624004063
21
-37.18216204236604
31
0.0
0
LINE
8
1
62
1
10
-37.966624004063
20
-37.18216204236604
30
0.0
11
-38.013162507463896
21
-37.223926753500805
31
0.0
0
LINE
8
1
62
1
10
-38.013162507463896
20
-37.223926753500805
30
0.0
11
-38.092603959528994
21
-37.291384093580966
31
0.0
0
LINE
8
1
62
1
10
-38.092603959528994
20
-37.291384093580966
30
0.0
11
-38.20639929453707
21
-37.382702378881405
31
0.0
0
LINE
8
1
62
1
10
-38.20639929453707
20
-37.382702378881405
30
0.0
11
-38.35592207023015
21
-37.49598951112828
31
0.0
0
LINE
8
1
62
1
10
-38.35592207023015
20
-37.49598951112828
30
0.0
11
-38.54246624194824
21
-37.6292958908951
31
0.0
0
LINE
8
1
62
1
10
-38.54246624194824
20
-37.6292958908951
30
0.0
11
-38.767244039697516
21
-37.780617407717145
31
0.0
0
LINE
8
1
62
1
10
-38.767244039697516
20
-37.780617407717145
30
0.0
11
-39.031383950686894
21
-37.947898503432214
31
0.0
0
LINE
8
1
62
1
10
-39.031383950686894
20
-37.947898503432214
30
0.0
11
-39.335928809753064
21
-38.12903530517398
31
0.0
0
LINE
8
1
62
1
10
-39.335928809753064
20
-38.12903530517398
30
0.0
11
-39.68183399997587
21
-38.32187882436636
31
0.0
0
LINE
8
1
62
1
10
-39.68183399997587
20
-38.32187882436636
30
0.0
11
-40.06996576566617
21
-38.52423821799412
31
0.0
0
LINE
8
1
62
1
10
-40.06996576566617
20
-38.52423821799412
30
0.0
11
-40.5010996397854
21
-38.733884108354204
31
0.0
0
LINE
8
1
62
1
10
-40.5010996397854
20
-38.733884108354204
30
0.0
11
-40.97591898773161
21
-38.94855195742684
31
0.0
0
LINE
8
1
62
1
10
-40.97591898773161
20
-38.94855195742684
30
0.0
11
-41.495013669299965
21
-39.16594549194333
31
0.0
0
LINE
8
1
62
1
10
-41.495013669299965
20
-39.16594549194333
30
0.0
11
-42.05887882049676
21
-39.3837401751693
31
0.0
0
LINE
8
1
62
1
10
-42.05887882049676
20
-39.3837401751693
30
0.0
11
-42.66791375675578
21
-39.599586721368674
31
0.0
0
LINE
8
1
62
1
10
-42.66791375675578
20
-39.599586721368674
30
0.0
11
-43.322420998973335
21
-39.811114648864006
31
0.0
0
LINE
8
1
62
1
10
-43.322420998973335
20
-39.811114648864006
30
0.0
11
-44.02260542364493
21
-40.015935867563385
31
0.0
0
LINE
8
1
62
1
10
-44.02260542364493
20
-40.015935867563385
30
0.0
11
-44.76857353825075
21
-40.211648296783004
31
0.0
0
LINE
8
1
62
1
10
-44.76857353825075
20
-40.211648296783004
30
0.0
11
-46.52714620333997
21
-38.16315633653701
31
0.0
0
LINE
8
1
62
1
10
-46.52714620333997
20
-38.16315633653701
30
0.0
11
-46.22073037269502
21
-37.45542678247714
31
0.0
0
LINE
8
1
62
1
10
-46.22073037269502
20
-37.45542678247714
30
0.0
11
-45.91224371458907
21
-36.79433227943479
31
0.0
0
LINE
8
1
62
1
10
-45.91224371458907
20
-36.79433227943479
30
0.0
11
-45.6040444814995
21
-36.17940380640015
31
0.0
0
LINE
8
1
62
1
10
-45.6040444814995
20
-36.17940380640015
30
0.0
11
-45.29846220084546
21
-35.61007722627194
31
0.0
0
LINE
8
1
62
1
10
-45.29846220084546
20
-35.61007722627194
30
0.0
11
-44.9977942086115
21
-35.085694549954646
31
0.0
0
LINE
8
1
62
1
10
-44.9977942086115
20
-35.085694549954646
30
0.0
11
-44.704302231883865
21
-34.60550531967283
31
0.0
0
LINE
8
1
62
1
10
-44.704302231883865
20
-34.60550531967283
30
0.0
11
-44.42020902424826
21
-34.168668109736636
31
0.0
0
LINE
8
1
62
1
10
-44.42020902424826
20
-34.168668109736636
30
0.0
11
-44.14769505793693
21
-33.77425214286511
31
0.0
0
LINE
8
1
62
1
10
-44.14769505793693
20
-33.77425214286511
30
0.0
11
-43.88889527654825
21
-33.42123902004894
31
0.0
0
LINE
8
1
62
1
10
-43.88889527654825
20
-33.42123902004894
30
0.0
11
-43.64589591209187
21
-33.10852456181046
31
0.0
0
LINE
8
1
62
1
10
-43.64589591209187
20
-33.10852456181046
30
0.0
11
-43.42073137004121
21
-32.83492075859863
31
0.0
0
LINE
8
1
62
1
10
-43.42073137004121
20
-32.83492075859863
30
0.0
11
-43.215381185996584
21
-32.59915782793745
31
0.0
0
LINE
8
1
62
1
10
-43.215381185996584
20
-32.59915782793745
30
0.0
11
-43.031767057483165
21
-32.39988637583103
31
0.0
0
LINE
8
1
62
1
10
-43.031767057483165
20
-32.39988637583103
30
0.0
11
-42.87174995432311
21
-32.23567965981495
31
0.0
0
LINE
8
1
62
1
10
-42.87174995432311
20
-32.23567965981495
30
0.0
11
-42.73712731093358
21
-32.10503595093274
31
0.0
0
LINE
8
1
62
1
10
-42.73712731093358
20
-32.10503595093274
30
0.0
11
-42.62963030381148
21
-32.00638099180952
31
0.0
0
LINE
8
1
62
1
10
-42.62963030381148
20
-32.00638099180952
30
0.0
11
-42.550921217370856
21
-31.938070547889254
31
0.0
0
LINE
8
1
62
1
10
-42.550921217370856
20
-31.938070547889254
30
0.0
11
-42.50259090120104
21
-31.898393048801086
31
0.0
0
LINE
8
1
62
1
10
-42.50259090120104
20
-31.898393048801086
30
0.0
11
-42.48615632171297
21
-31.88557231672181
31
0.0
0
LINE
8
1
62
1
10
-42.48615632171297
20
-31.88557231672181
30
0.0
11
-41.71247559327134
21
-31.30493017460899
31
0.0
0
LINE
8
1
62
1
10
-41.71247559327134
20
-31.30493017460899
30
0.0
11
-43.84322690065955
21
-28.243596235141236
31
0.0
0
LINE
8
1
62
1
10
-43.84322690065955
20
-28.243596235141236
30
0.0
11
-44.656428688452884
21
-28.76745692185963
31
0.0
0
LINE
8
1
62
1
10
-44.656428688452884
20
-28.76745692185963
30
0.0
11
-44.674159173080405
21
-28.77841577621906
31
0.0
0
LINE
8
1
62
1
10
-44.674159173080405
20
-28.77841577621906
30
0.0
11
-44.72815220512604
21
-28.80995742940158
31
0.0
0
LINE
8
1
62
1
10
-44.72815220512604
20
-28.80995742940158
30
0.0
11
-44.81954654872762
21
-28.860042467032958
31
0.0
0
LINE
8
1
62
1
10
-44.81954654872762
20
-28.860042467032958
30
0.0
11
-44.9493947222309
21
-28.926584629138446
31
0.0
0
LINE
8
1
62
1
10
-44.9493947222309
20
-28.926584629138446
30
0.0
11
-45.118661289987834
21
-29.00745405366633
31
0.0
0
LINE
8
1
62
1
10
-45.118661289987834
20
-29.00745405366633
30
0.0
11
-45.32822126851729
21
-29.10048057830989
31
0.0
0
LINE
8
1
62
1
10
-45.32822126851729
20
-29.10048057830989
30
0.0
11
-45.57885864893536
21
-29.20345709675711
31
0.0
0
LINE
8
1
62
1
10
-45.57885864893536
20
-29.20345709675711
30
0.0
11
-45.87126503743547
21
-29.314142965437032
31
0.0
0
LINE
8
1
62
1
10
-45.87126503743547
20
-29.314142965437032
30
0.0
11
-46.206038415469514
21
-29.43026745677517
31
0.0
0
LINE
8
1
62
1
10
-46.206038415469514
20
-29.43026745677517
30
0.0
11
-46.58368202114952
21
-29.549533254917776
31
0.0
0
LINE
8
1
62
1
10
-46.58368202114952
20
-29.549533254917776
30
0.0
11
-47.004603353257664
21
-29.669619989837003
31
0.0
0
LINE
8
1
62
1
10
-47.004603353257664
20
-29.669619989837003
30
0.0
11
-47.46911329911779
21
-29.78818780568496
31
0.0
0
LINE
8
1
62
1
10
-47.46911329911779
20
-29.78818780568496
30
0.0
11
-47.97742538744602
21
-29.902880959224838
31
0.0
0
LINE
8
1
62
1
10
-47.97742538744602
20
-29.902880959224838
30
0.0
11
-48.52965516716217
21
-30.011331444132857
31
0.0
0
LINE
8
1
62
1
10
-48.52965516716217
20
-30.011331444132857
30
0.0
11
-49.12581971300486
21
-30.111162636932804
31
0.0
0
LINE
8
1
62
1
10
-49.12581971300486
20
-30.111162636932804
30
0.0
11
-49.76583725865556
21
-30.199992960299802
31
0.0
0
LINE
8
1
62
1
10
-49.76583725865556
20
-30.199992960299802
30
0.0
11
-50.44952695793649
21
-30.275439559446863
31
0.0
0
LINE
8
1
62
1
10
-50.44952695793649
20
-30.275439559446863
30
0.0
11
-51.176608774507905
21
-30.335121987291203
31
0.0
0
LINE
8
1
62
1
10
-51.176608774507905
20
-30.335121987291203
30
0.0
11
-51.94670350034885
21
-30.376665894083597
31
0.0
0
LINE
8
1
62
1
10
-51.94670350034885
20
-30.376665894083597
30
0.0
11
-53.25691967966089
21
-28.016108609656804
31
0.0
0
LINE
8
1
62
1
10
-53.25691967966089
20
-28.016108609656804
30
0.0
11
-52.81431128721516
21
-27.38454737438645
31
0.0
0
LINE
8
1
62
1
10
-52.81431128721516
20
-27.38454737438645
30
0.0
11
-52.379062024022275
21
-26.79908342240286
31
0.0
0
LINE
8
1
62
1
10
-52.379062024022275
20
-26.79908342240286
30
0.0
11
-51.95338745575774
21
-26.258782620850145
31
0.0
0
LINE
8
1
62
1
10
-51.95338745575774
20
-26.258782620850145
30
0.0
11
-51.53945586431393
21
-25.762623450124643
31
0.0
0
LINE
8
1
62
1
10
-51.53945586431393
20
-25.762623450124643
30
0.0
11
-51.1393851068417
21
-25.309498939872466
31
0.0
0
LINE
8
1
62
1
10
-51.1393851068417
20
-25.309498939872466
30
0.0
11
-50.75523954670136
21
-24.898218711917607
31
0.0
0
LINE
8
1
62
1
10
-50.75523954670136
20
-24.898218711917607
30
0.0
11
-50.389027059836
21
-24.527511127596192
31
0.0
0
LINE
8
1
62
1
10
-50.389027059836
20
-24.527511127596192
30
0.0
11
-50.042696119994005
21
-24.19602553685944
31
0.0
0
LINE
8
1
62
1
10
-50.042696119994005
20
-24.19602553685944
30
0.0
11
-49.718132966139414
21
-23.90233462639877
31
0.0
0
LINE
8
1
62
1
10
-49.718132966139414
20
-23.90233462639877
30
0.0
11
-49.41715885529534
21
-23.644936863939183
31
0.0
0
LINE
8
1
62
1
10
-49.41715885529534
20
-23.644936863939183
30
0.0
11
-49.14152740397114
21
-23.42225903574387
31
0.0
0
LINE
8
1
62
1
10
-49.14152740397114
20
-23.42225903574387
30
0.0
11
-48.89292202122385
21
-23.232658874271923
31
0.0
0
LINE
8
1
62
1
10
-48.89292202122385
20
-23.232658874271923
30
0.0
11
-48.67295343630304
21
-23.074427772833953
31
0.0
0
LINE
8
1
62
1
10
-48.67295343630304
20
-23.074427772833953
30
0.0
11
-48.483157323722615
21
-22.945793583996444
31
0.0
0
LINE
8
1
62
1
10
-48.483157323722615
20
-22.945793583996444
30
0.0
11
-48.32499202849513
21
-22.84492349839478
31
0.0
0
LINE
8
1
62
1
10
-48.32499202849513
20
-22.84492349839478
30
0.0
11
-48.1998363941531
21
-22.769927000528188
31
0.0
0
LINE
8
1
62
1
10
-48.1998363941531
20
-22.769927000528188
30
0.0
11
-48.10898769606813
21
-22.718858898026063
31
0.0
0
LINE
8
1
62
1
10
-48.10898769606813
20
-22.718858898026063
30
0.0
11
-48.05365968246232
21
-22.689722420795587
31
0.0
0
LINE
8
1
62
1
10
-48.05365968246232
20
-22.689722420795587
30
0.0
11
-48.034980725387854
21
-22.680472386384388
31
0.0
0
LINE
8
1
62
1
10
-48.034980725387854
20
-22.680472386384388
30
0.0
11
-47.16025488300082
21
-22.267456808688312
31
0.0
0
LINE
8
1
62
1
10
-47.16025488300082
20
-22.267456808688312
30
0.0
11
-48.63114759443842
21
-18.839871469952975
31
0.0
0
LINE
8
1
62
1
10
-48.63114759443842
20
-18.839871469952975
30
0.0
11
-49.533155474831084
21
-19.189312381222482
31
0.0
0
LINE
8
1
62
1
10
-49.533155474831084
20
-19.189312381222482
30
0.0
11
-49.55272901656108
21
-19.196477786873395
31
0.0
0
LINE
8
1
62
1
10
-49.55272901656108
20
-19.196477786873395
30
0.0
11
-49.61196609617557
21
-19.216505063116394
31
0.0
0
LINE
8
1
62
1
10
-49.61196609617557
20
-19.216505063116394
30
0.0
11
-49.71157163614823
21
-19.24716731097361
31
0.0
0
LINE
8
1
62
1
10
-49.71157163614823
20
-19.24716731097361
30
0.0
11
-49.85215664866698
21
-19.286209105949183
31
0.0
0
LINE
8
1
62
1
10
-49.85215664866698
20
-19.286209105949183
30
0.0
11
-50.03423721531581
21
-19.331350019016153
31
0.0
0
LINE
8
1
62
1
10
-50.03423721531581
20
-19.331350019016153
30
0.0
11
-50.25823359051339
21
-19.38028817168739
31
0.0
0
LINE
8
1
62
1
10
-50.25823359051339
20
-19.38028817168739
30
0.0
11
-50.52446942979728
21
-19.430703820995326
31
0.0
0
LINE
8
1
62
1
10
-50.52446942979728
20
-19.430703820995326
30
0.0
11
-50.833171143906654
21
-19.48026297017131
31
0.0
0
LINE
8
1
62
1
10
-50.833171143906654
20
-19.48026297017131
30
0.0
11
-51.18446737947766
21
-19.5266210007864
31
0.0
0
LINE
8
1
62
1
10
-51.18446737947766
20
-19.5266210007864
30
0.0
11
-51.57838862702706
21
-19.567426322090125
31
0.0
0
LINE
8
1
62
1
10
-51.57838862702706
20
-19.567426322090125
30
0.0
11
-52.0148669567604
21
-19.600324033263647
31
0.0
0
LINE
8
1
62
1
10
-52.0148669567604
20
-19.600324033263647
30
0.0
11
-52.493735882600305
21
-19.62295959428752
31
0.0
0
LINE
8
1
62
1
10
-52.493735882600305
20
-19.62295959428752
30
0.0
11
-53.01473035469027
21
-19.632982501112856
31
0.0
0
LINE
8
1
62
1
10
-53.01473035469027
20
-19.632982501112856
30
0.0
11
-53.57748688048839
21
-19.62804996081786
31
0.0
0
LINE
8
1
62
1
10
-53.57748688048839
20
-19.62804996081786
30
0.0
11
-54.181543774423815
21
-19.6058305624289
31
0.0
0
LINE
8
1
62
1
10
-54.181543774423815
20
-19.6058305624289
30
0.0
11
-54.82634153594838
21
-19.56400793908775
31
0.0
0
LINE
8
1
62
1
10
-54.82634153594838
20
-19.56400793908775
30
0.0
11
-55.511223355673984
21
-19.500284417252857
31
0.0
0
LINE
8
1
62
1
10
-55.511223355673984
20
-19.500284417252857
30
0.0
11
-56.23543574914632
21
-19.412384648633836
31
0.0
0
LINE
8
1
62
1
10
-56.23543574914632
20
-19.412384648633836
30
0.0
11
-56.99812931766415
21
-19.298059220573727
31
0.0
0
LINE
8
1
62
1
10
-56.99812931766415
20
-19.298059220573727
30
0.0
11
-57.80634860687413
21
-16.722078104544263
31
0.0
0
LINE
8
1
62
1
10
-57.80634860687413
20
-16.722078104544263
30
0.0
11
-57.24566809221861
21
-16.192541379240687
31
0.0
0
LINE
8
1
62
1
10
-57.24566809221861
20
-16.192541379240687
30
0.0
11
-56.701475379913546
21
-15.706676941299152
31
0.0
0
LINE
8
1
62
1
10
-56.701475379913546
20
-15.706676941299152
30
0.0
11
-56.17575264331342
21
-15.263123789526574
31
0.0
0
LINE
8
1
62
1
10
-56.17575264331342
20
-15.263123789526574
30
0.0
11
-55.67041814906845
21
-14.860444842949523
31
0.0
0
LINE
8
1
62
1
10
-55.67041814906845
20
-14.860444842949523
30
0.0
11
-55.18732357017518
21
-14.497129469452052
31
0.0
0
LINE
8
1
62
1
10
-55.18732357017518
20
-14.497129469452052
30
0.0
11
-54.72825139098946
21
-14.171596104679997
31
0.0
0
LINE
8
1
62
1
10
-54.72825139098946
20
-14.171596104679997
30
0.0
11
-54.29491240713477
21
-13.88219495803177
31
0.0
0
LINE
8
1
62
1
10
-54.29491240713477
20
-13.88219495803177
30
0.0
11
-53.88894332313139
21
-13.62721080246246
31
0.0
0
LINE
8
1
62
1
10
-53.88894332313139
20
-13.62721080246246
30
0.0
11
-53.51190445046426
21
-13.404865844738762
31
0.0
0
LINE
8
1
62
1
10
-53.51190445046426
20
-13.404865844738762
30
0.0
11
-53.16527750869339
21
-13.213322672696114
31
0.0
0
LINE
8
1
62
1
10
-53.16527750869339
20
-13.213322672696114
30
0.0
11
-52.85046353209818
21
-13.050687275967181
31
0.0
0
LINE
8
1
62
1
10
-52.85046353209818
20
-13.050687275967181
30
0.0
11
-52.568780884227806
21
-12.915012136572201
31
0.0
0
LINE
8
1
62
1
10
-52.568780884227806
20
-12.915012136572201
30
0.0
11
-52.32146338261147
21
-12.804299385686909
31
0.0
0
LINE
8
1
62
1
10
-52.32146338261147
20
-12.804299385686909
30
0.0
11
-52.10965853575981
21
-12.716504022832861
31
0.0
0
LINE
8
1
62
1
10
-52.10965853575981
20
-12.716504022832861
30
0.0
11
-51.934425894464624
21
-12.64953719366801
31
0.0
0
LINE
8
1
62
1
10
-51.934425894464624
20
-12.64953719366801
30
0.0
11
-51.79673551927778
21
-12.60126952249241
31
0.0
0
LINE
8
1
62
1
10
-51.79673551927778
20
-12.60126952249241
30
0.0
11
-51.69746656592232
21
-12.569534495525115
31
0.0
0
LINE
8
1
62
1
10
-51.69746656592232
20
-12.569534495525115
30
0.0
11
-51.63740599025832
21
-12.552131890953534
31
0.0
0
LINE
8
1
62
1
10
-51.63740599025832
20
-12.552131890953534
30
0.0
11
-51.61724737429476
21
-12.546831251706038
31
0.0
0
LINE
8
1
62
1
10
-51.61724737429476
20
-12.546831251706038
30
0.0
11
-50.67728779672557
21
-12.318351144704852
31
0.0
0
LINE
8
1
62
1
10
-50.67728779672557
20
-12.318351144704852
30
0.0
11
-51.42810339178375
21
-8.664840153193953
31
0.0
0
LINE
8
1
62
1
10
-51.42810339178375
20
-8.664840153193953
30
0.0
11
-52.38198905617105
21
-8.82555513704964
31
0.0
0
LINE
8
1
62
1
10
-52.38198905617105
20
-8.82555513704964
30
0.0
11
-52.402604311905314
21
-8.828633741442784
31
0.0
0
LINE
8
1
62
1
10
-52.402604311905314
20
-8.828633741442784
30
0.0
11
-52.464660266089176
21
-8.836326721703768
31
0.0
0
LINE
8
1
62
1
10
-52.464660266089176
20
-8.836326721703768
30
0.0
11
-52.56839913992327
21
-8.846310863756887
31
0.0
0
LINE
8
1
62
1
10
-52.56839913992327
20
-8.846310863756887
30
0.0
11
-52.71396542452692
21
-8.856253915929036
31
0.0
0
LINE
8
1
62
1
10
-52.71396542452692
20
-8.856253915929036
30
0.0
11
-52.901405590275516
21
-8.863818243250288
31
0.0
0
LINE
8
1
62
1
10
-52.901405590275516
20
-8.863818243250288
30
0.0
11
-53.13066792422216
21
-8.866664490228858
31
0.0
0
LINE
8
1
62
1
10
-53.13066792422216
20
-8.866664490228858
30
0.0
11
-53.40160249583022
21
-8.862455247791257
31
0.0
0
LINE
8
1
62
1
10
-53.40160249583022
20
-8.862455247791257
30
0.0
11
-53.71396125110229
21
-8.848858720073082
31
0.0
0
LINE
8
1
62
1
10
-53.71396125110229
20
-8.848858720073082
30
0.0
11
-54.06739823505042
21
-8.823552386744902
31
0.0
0
LINE
8
1
62
1
10
-54.06739823505042
20
-8.823552386744902
30
0.0
11
-54.461469942310785
21
-8.784226656561156
31
0.0
0
LINE
8
1
62
1
10
-54.461469942310785
20
-8.784226656561156
30
0.0
11
-54.895635795566
21
-8.728588507828205
31
0.0
0
LINE
8
1
62
1
10
-54.895635795566
20
-8.728588507828205
30
0.0
11
-55.36925875129709
21
-8.65436511150012
31
0.0
0
LINE
8
1
62
1
10
-55.36925875129709
20
-8.65436511150012
30
0.0
11
-55.88160603224717
21
-8.559307432627836
31
0.0
0
LINE
8
1
62
1
10
-55.88160603224717
20
-8.559307432627836
30
0.0
11
-56.43184998584
21
-8.441193805909055
31
0.0
0
LINE
8
1
62
1
10
-56.43184998584
20
-8.441193805909055
30
0.0
11
-57.01906906765678
21
-8.297833481111898
31
0.0
0
LINE
8
1
62
1
10
-57.01906906765678
20
-8.297833481111898
30
0.0
11
-57.642248948937876
21
-8.127070134176142
31
0.0
0
LINE
8
1
62
1
10
-57.642248948937876
20
-8.127070134176142
30
0.0
11
-58.300283746938405
21
-7.926785339830415
31
0.0
0
LINE
8
1
62
1
10
-58.300283746938405
20
-7.926785339830415
30
0.0
11
-58.99197737683153
21
-7.6949020016030705
31
0.0
0
LINE
8
1
62
1
10
-58.99197737683153
20
-7.6949020016030705
30
0.0
11
-59.71604502371847
21
-7.429387735147904
31
0.0
0
LINE
8
1
62
1
10
-59.71604502371847
20
-7.429387735147904
30
0.0
11
-59.98917883016438
21
-4.743443757070956
31
0.0
0
LINE
8
1
62
1
10
-59.98917883016438
20
-4.743443757070956
30
0.0
11
-59.33338051944623
21
-4.337610837486009
31
0.0
0
LINE
8
1
62
1
10
-59.33338051944623
20
-4.337610837486009
30
0.0
11
-58.70252367161068
21
-3.9712372607625044
31
0.0
0
LINE
8
1
62
1
10
-58.70252367161068
20
-3.9712372607625044
30
0.0
11
-58.098275917281185
21
-3.642590876918919
31
0.0
0
LINE
8
1
62
1
10
-58.098275917281185
20
-3.642590876918919
30
0.0
11
-57.52222697380372
21
-3.3498778778759473
31
0.0
0
LINE
8
1
62
1
10
-57.52222697380372
20
-3.3498778778759473
30
0.0
11
-56.975886522310496
21
-3.09124581521191
31
0.0
0
LINE
8
1
62
1
10
-56.975886522310496
20
-3.09124581521191
30
0.0
11
-56.46068219303396
21
-2.8647866878249735
31
0.0
0
LINE
8
1
62
1
10
-56.46068219303396
20
-2.8647866878249735
30
0.0
11
-55.9779576611041
21
-2.6685400957969057
31
0.0
0
LINE
8
1
62
1
10
-55.9779576611041
20
-2.6685400957969057
30
0.0
11
-55.528970854937796
21
-2.5004964566834094
31
0.0
0
LINE
8
1
62
1
10
-55.528970854937796
20
-2.5004964566834094
30
0.0
11
-55.11489227920529
21
-2.358600280390318
31
0.0
0
LINE
8
1
62
1
10
-55.11489227920529
20
-2.358600280390318
30
0.0
11
-54.73680345423067
21
-2.2407534987334
31
0.0
0
LINE
8
1
62
1
10
-54.73680345423067
20
-2.2407534987334
30
0.0
11
-54.39569547355533
21
-2.1448188457217734
31
0.0
0
LINE
8
1
62
1
10
-54.39569547355533
20
-2.1448188457217734
30
0.0
11
-54.09246768126199
21
-2.0686232845517467
31
0.0
0
LINE
8
1
62
1
10
-54.09246768126199
20
-2.0686232845517467
30
0.0
11
-53.827926470524865
21
-2.0099614772485683
31
0.0
0
LINE
8
1
62
1
10
-53.827926470524865
20
-2.0099614772485683
30
0.0
11
-53.602784204718105
21
-1.966599292848745
31
0.0
0
LINE
8
1
62
1
10
-53.602784204718105
20
-1.966599292848745
30
0.0
11
-53.41765826227879
21
-1.9362773499749808
31
0.0
0
LINE
8
1
62
1
10
-53.41765826227879
20
-1.9362773499749808
30
0.0
11
-53.27307020638521
21
-1.9167145896195152
31
0.0
0
LINE
8
1
62
1
10
-53.27307020638521
20
-1.9167145896195152
30
0.0
11
-53.16944508037326
21
-1.9056118739197974
31
0.0
0
LINE
8
1
62
1
10
-53.16944508037326
20
-1.9056118739197974
30
0.0
11
-53.107110829675555
21
-1.9006556066829927
31
0.0
0
LINE
8
1
62
1
10
-53.107110829675555
20
-1.9006556066829927
30
0.0
11
-53.086297850929
21
-1.8995213713927928
31
0.0
0
LINE
8
1
62
1
10
-53.086297850929
20
-1.8995213713927928
30
0.0
11
-52.11958659372389
21
-1.8649307375123974
31
0.0
0
LINE
8
1
62
1
10
-52.11958659372389
20
-1.8649307375123974
30
0.0
11
-52.11958659372389
21
1.8649307375123616
31
0.0
0
LINE
8
1
62
1
10
-52.11958659372389
20
1.8649307375123616
30
0.0
11
-53.086297850929
21
1.8995213713927563
31
0.0
0
LINE
8
1
62
1
10
-53.086297850929
20
1.8995213713927563
30
0.0
11
-53.107110829675555
21
1.900655606682956
31
0.0
0
LINE
8
1
62
1
10
-53.107110829675555
20
1.900655606682956
30
0.0
11
-53.16944508037326
21
1.9056118739197607
31
0.0
0
LINE
8
1
62
1
10
-53.16944508037326
20
1.9056118739197607
30
0.0
11
-53.27307020638521
21
1.9167145896194788
31
0.0
0
LINE
8
1
62
1
10
-53.27307020638521
20
1.9167145896194788
30
0.0
11
-53.41765826227879
21
1.9362773499749442
31
0.0
0
LINE
8
1
62
1
10
-53.41765826227879
20
1.9362773499749442
30
0.0
11
-53.602784204718105
21
1.9665992928487082
31
0.0
0
LINE
8
1
62
1
10
-53.602784204718105
20
1.9665992928487082
30
0.0
11
-53.827926470524865
21
2.0099614772485315
31
0.0
0
LINE
8
1
62
1
10
-53.827926470524865
20
2.0099614772485315
30
0.0
11
-54.09246768126199
21
2.06862328455171
31
0.0
0
LINE
8
1
62
1
10
-54.09246768126199
20
2.06862328455171
30
0.0
11
-54.39569547355533
21
2.144818845721736
31
0.0
0
LINE
8
1
62
1
10
-54.39569547355533
20
2.144818845721736
30
0.0
11
-54.73680345423067
21
2.2407534987333624
31
0.0
0
LINE
8
1
62
1
10
-54.73680345423067
20
2.2407534987333624
30
0.0
11
-55.11489227920529
21
2.3586002803902804
31
0.0
0
LINE
8
1
62
1
10
-55.11489227920529
20
2.3586002803902804
30
0.0
11
-55.528970854937796
21
2.500496456683371
31
0.0
0
LINE
8
1
62
1
10
-55.528970854937796
20
2.500496456683371
30
0.0
11
-55.9779576611041
21
2.6685400957968675
31
0.0
0
LINE
8
1
62
1
10
-55.9779576611041
20
2.6685400957968675
30
0.0
11
-56.46068219303396
21
2.8647866878249344
31
0.0
0
LINE
8
1
62
1
10
-56.46068219303396
20
2.8647866878249344
30
0.0
11
-56.975886522310496
21
3.091245815211871
31
0.0
0
LINE
8
1
62
1
10
-56.975886522310496
20
3.091245815211871
30
0.0
11
-57.522226973803726
21
3.349877877875908
31
0.0
0
LINE
8
1
62
1
10
-57.522226973803726
20
3.349877877875908
30
0.0
11
-58.098275917281185
21
3.642590876918879
31
0.0
0
LINE
8
1
62
1
10
-58.098275917281185
20
3.642590876918879
30
0.0
11
-58.70252367161068
21
3.971237260762464
31
0.0
0
LINE
8
1
62
1
10
-58.70252367161068
20
3.971237260762464
30
0.0
11
-59.33338051944623
21
4.337610837485968
31
0.0
0
LINE
8
1
62
1
10
-59.33338051944623
20
4.337610837485968
30
0.0
11
-59.98917883016438
21
4.743443757070915
31
0.0
0
LINE
8
1
62
1
10
-59.98917883016438
20
4.743443757070915
30
0.0
11
-59.71604502371848
21
7.4293877351478645
31
0.0
0
LINE
8
1
62
1
10
-59.71604502371848
20
7.4293877351478645
30
0.0
11
-58.991977376831535
21
7.694902001603031
31
0.0
0
LINE
8
1
62
1
10
-58.991977376831535
20
7.694902001603031
30
0.0
11
-58.300283746938405
21
7.926785339830376
31
0.0
0
LINE
8
1
62
1
10
-58.300283746938405
20
7.926785339830376
30
0.0
11
-57.64224894893788
21
8.127070134176105
31
0.0
0
LINE
8
1
62
1
10
-57.64224894893788
20
8.127070134176105
30
0.0
11
-57.01906906765679
21
8.29783348111186
31
0.0
0
LINE
8
1
62
1
10
-57.01906906765679
20
8.29783348111186
30
0.0
11
-56.43184998584001
21
8.441193805909018
31
0.0
0
LINE
8
1
62
1
10
-56.43184998584001
20
8.441193805909018
30
0.0
11
-55.88160603224718
21
8.559307432627799
31
0.0
0
LINE
8
1
62
1
10
-55.88160603224718
20
8.559307432627799
30
0.0
11
-55.369258751297096
21
8.654365111500082
31
0.0
0
LINE
8
1
62
1
10
-55.369258751297096
20
8.654365111500082
30
0.0
11
-54.895635795566
21
8.728588507828169
31
0.0
0
LINE
8
1
62
1
10
-54.895635795566
20
8.728588507828169
30
0.0
11
-54.46146994231079
21
8.784226656561119
31
0.0
0
LINE
8
1
62
1
10
-54.46146994231079
20
8.784226656561119
30
0.0
11
-54.067398235050426
21
8.823552386744865
31
0.0
0
LINE
8
1
62
1
10
-54.067398235050426
20
8.823552386744865
30
0.0
11
-53.7139612511023
21
8.848858720073046
31
0.0
0
LINE
8
1
62
1
10
-53.7139612511023
20
8.848858720073046
30
0.0
11
-53.40160249583022
21
8.862455247791221
31
0.0
0
LINE
8
1
62
1
10
-53.40160249583022
20
8.862455247791221
30
0.0
11
-53.130667924222166
21
8.866664490228821
31
0.0
0
LINE
8
1
62
1
10
-53.130667924222166
20
8.866664490228821
30
0.0
11
-52.90140559027552
21
8.863818243250252
31
0.0
0
LINE
8
1
62
1
10
-52.90140559027552
20
8.863818243250252
30
0.0
11
-52.713965424526926
21
8.856253915929
31
0.0
0
LINE
8
1
62
1
10
-52.713965424526926
20
8.856253915929
30
0.0
11
-52.56839913992328
21
8.846310863756852
31
0.0
0
LINE
8
1
62
1
10
-52.56839913992328
20
8.846310863756852
30
0.0
11
-52.46466026608918
21
8.836326721703733
31
0.0
0
LINE
8
1
62
1
10
-52.46466026608918
20
8.836326721703733
30
0.0
11
-52.402604311905314
21
8.828633741442749
31
0.0
0
LINE
8
1
62
1
10
-52.402604311905314
20
8.828633741442749
30
0.0
11
-52.38198905617106
21
8.825555137049605
31
0.0
0
LINE
8
1
62
1
10
-52.38198905617106
20
8.825555137049605
30
0.0
11
-51.42810339178376
21
8.66484015319392
31
0.0
0
LINE
8
1
62
1
10
-51.42810339178376
20
8.66484015319392
30
0.0
11
-50.67728779672557
21
12.318351144704863
31
0.0
0
LINE
8
1
62
1
10
-50.67728779672557
20
12.318351144704863
30
0.0
11
-51.61724737429476
21
12.546831251706049
31
0.0
0
LINE
8
1
62
1
10
-51.61724737429476
20
12.546831251706049
30
0.0
11
-51.63740599025832
21
12.552131890953545
31
0.0
0
LINE
8
1
62
1
10
-51.63740599025832
20
12.552131890953545
30
0.0
11
-51.69746656592232
21
12.569534495525126
31
0.0
0
LINE
8
1
62
1
10
-51.69746656592232
20
12.569534495525126
30
0.0
11
-51.79673551927778
21
12.601269522492421
31
0.0
0
LINE
8
1
62
1
10
-51.79673551927778
20
12.601269522492421
30
0.0
11
-51.934425894464624
21
12.64953719366802
31
0.0
0
LINE
8
1
62
1
10
-51.934425894464624
20
12.64953719366802
30
0.0
11
-52.10965853575981
21
12.716504022832872
31
0.0
0
LINE
8
1
62
1
10
-52.10965853575981
20
12.716504022832872
30
0.0
11
-52.32146338261147
21
12.80429938568692
31
0.0
0
LINE
8
1
62
1
10
-52.32146338261147
20
12.80429938568692
30
0.0
11
-52.568780884227806
21
12.915012136572212
31
0.0
0
LINE
8
1
62
1
10
-52.568780884227806
20
12.915012136572212
30
0.0
11
-52.85046353209818
21
13.050687275967192
31
0.0
0
LINE
8
1
62
1
10
-52.85046353209818
20
13.050687275967192
30
0.0
11
-53.16527750869339
21
13.213322672696124
31
0.0
0
LINE
8
1
62
1
10
-53.16527750869339
20
13.213322672696124
30
0.0
11
-53.51190445046426
21
13.404865844738772
31
0.0
0
LINE
8
1
62
1
10
-53.51190445046426
20
13.404865844738772
30
0.0
11
-53.88894332313139
21
13.627210802462471
31
0.0
0
LINE
8
1
62
1
10
-53.88894332313139
20
13.627210802462471
30
0.0
11
-54.29491240713477
21
13.88219495803178
31
0.0
0
LINE
8
1
62
1
10
-54.29491240713477
20
13.88219495803178
30
0.0
11
-54.72825139098946
21
14.171596104680008
31
0.0
0
LINE
8
1
62
1
10
-54.72825139098946
20
14.171596104680008
30
0.0
11
-55.18732357017518
21
14.497129469452062
31
0.0
0
LINE
8
1
62
1
10
-55.18732357017518
20
14.497129469452062
30
0.0
11
-55.67041814906845
21
14.860444842949533
31
0.0
0
LINE
8
1
62
1
10
-55.67041814906845
20
14.860444842949533
30
0.0
11
-56.17575264331342
21
15.263123789526587
31
0.0
0
LINE
8
1
62
1
10
-56.17575264331342
20
15.263123789526587
30
0.0
11
-56.701475379913546
21
15.706676941299163
31
0.0
0
LINE
8
1
62
1
10
-56.701475379913546
20
15.706676941299163
30
0.0
11
-57.24566809221861
21
16.192541379240698
31
0.0
0
LINE
8
1
62
1
10
-57.24566809221861
20
16.192541379240698
30
0.0
11
-57.80634860687413
21
16.722078104544273
31
0.0
0
LINE
8
1
62
1
10
-57.80634860687413
20
16.722078104544273
30
0.0
11
-56.99812931766416
21
19.298059220573734
31
0.0
0
LINE
8
1
62
1
10
-56.99812931766416
20
19.298059220573734
30
0.0
11
-56.23543574914632
21
19.412384648633843
31
0.0
0
LINE
8
1
62
1
10
-56.23543574914632
20
19.412384648633843
30
0.0
11
-55.511223355673984
21
19.50028441725287
31
0.0
0
LINE
8
1
62
1
10
-55.511223355673984
20
19.50028441725287
30
0.0
11
-54.82634153594838
21
19.564007939087762
31
0.0
0
LINE
8
1
62
1
10
-54.82634153594838
20
19.564007939087762
30
0.0
11
-54.181543774423815
21
19.60583056242891
31
0.0
0
LINE
8
1
62
1
10
-54.181543774423815
20
19.60583056242891
30
0.0
11
-53.57748688048839
21
19.62804996081787
31
0.0
0
LINE
8
1
62
1
10
-53.57748688048839
20
19.62804996081787
30
0.0
11
-53.01473035469027
21
19.632982501112863
31
0.0
0
LINE
8
1
62
1
10
-53.01473035469027
20
19.632982501112863
30
0.0
11
-52.493735882600305
21
19.62295959428753
31
0.0
0
LINE
8
1
62
1
10
-52.493735882600305
20
19.62295959428753
30
0.0
11
-52.0148669567604
21
19.600324033263654
31
0.0
0
LINE
8
1
62
1
10
-52.0148669567604
20
19.600324033263654
30
0.0
11
-51.57838862702706
21
19.567426322090135
31
0.0
0
LINE
8
1
62
1
10
-51.57838862702706
20
19.567426322090135
30
0.0
11
-51.18446737947766
21
19.526621000786406
31
0.0
0
LINE
8
1
62
1
10
-51.18446737947766
20
19.526621000786406
30
0.0
11
-50.833171143906654
21
19.480262970171317
31
0.0
0
LINE
8
1
62
1
10
-50.833171143906654
20
19.480262970171317
30
0.0
11
-50.52446942979728
21
19.430703820995337
31
0.0
0
LINE
8
1
62
1
10
-50.52446942979728
20
19.430703820995337
30
0.0
11
-50.25823359051339
21
19.3802881716874
31
0.0
0
LINE
8
1
62
1
10
-50.25823359051339
20
19.3802881716874
30
0.0
11
-50.03423721531581
21
19.33135001901616
31
0.0
0
LINE
8
1
62
1
10
-50.03423721531581
20
19.33135001901616
30
0.0
11
-49.85215664866698
21
19.286209105949194
31
0.0
0
LINE
8
1
62
1
10
-49.85215664866698
20
19.286209105949194
30
0.0
11
-49.71157163614823
21
19.247167310973616
31
0.0
0
LINE
8
1
62
1
10
-49.71157163614823
20
19.247167310973616
30
0.0
11
-49.61196609617557
21
19.2165050631164
31
0.0
0
LINE
8
1
62
1
10
-49.61196609617557
20
19.2165050631164
30
0.0
11
-49.55272901656108
21
19.196477786873405
31
0.0
0
LINE
8
1
62
1
10
-49.55272901656108
20
19.196477786873405
30
0.0
11
-49.533155474831084
21
19.189312381222493
31
0.0
0
LINE
8
1
62
1
10
-49.533155474831084
20
19.189312381222493
30
0.0
11
-48.63114759443842
21
18.839871469952985
31
0.0
0
LINE
8
1
62
1
10
-48.63114759443842
20
18.839871469952985
30
0.0
11
-47.160254883000825
21
22.2674568086883
31
0.0
0
LINE
8
1
62
1
10
-47.160254883000825
20
22.2674568086883
30
0.0
11
-48.03498072538786
21
22.680472386384377
31
0.0
0
LINE
8
1
62
1
10
-48.03498072538786
20
22.680472386384377
30
0.0
11
-48.053659682462325
21
22.689722420795572
31
0.0
0
LINE
8
1
62
1
10
-48.053659682462325
20
22.689722420795572
30
0.0
11
-48.108987696068134
21
22.718858898026053
31
0.0
0
LINE
8
1
62
1
10
-48.108987696068134
20
22.718858898026053
30
0.0
11
-48.1998363941531
21
22.769927000528178
31
0.0
0
LINE
8
1
62
1
10
-48.1998363941531
20
22.769927000528178
30
0.0
11
-48.32499202849514
21
22.84492349839477
31
0.0
0
LINE
8
1
62
1
10
-48.32499202849514
20
22.84492349839477
30
0.0
11
-48.48315732372262
21
22.945793583996434
31
0.0
0
LINE
8
1
62
1
10
-48.48315732372262
20
22.945793583996434
30
0.0
11
-48.67295343630304
21
23.074427772833943
31
0.0
0
LINE
8
1
62
1
10
-48.67295343630304
20
23.074427772833943
30
0.0
11
-48.89292202122386
21
23.232658874271912
31
0.0
0
LINE
8
1
62
1
10
-48.89292202122386
20
23.232658874271912
30
0.0
11
-49.141527403971146
21
23.42225903574386
31
0.0
0
LINE
8
1
62
1
10
-49.141527403971146
20
23.42225903574386
30
0.0
11
-49.41715885529535
21
23.64493686393917
31
0.0
0
LINE
8
1
62
1
10
-49.41715885529535
20
23.64493686393917
30
0.0
11
-49.71813296613942
21
23.902334626398755
31
0.0
0
LINE
8
1
62
1
10
-49.71813296613942
20
23.902334626398755
30
0.0
11
-50.04269611999401
21
24.196025536859427
31
0.0
0
LINE
8
1
62
1
10
-50.04269611999401
20
24.196025536859427
30
0.0
11
-50.389027059836
21
24.527511127596178
31
0.0
0
LINE
8
1
62
1
10
-50.389027059836
20
24.527511127596178
30
0.0
11
-50.75523954670137
21
24.898218711917593
31
0.0
0
LINE
8
1
62
1
10
-50.75523954670137
20
24.898218711917593
30
0.0
11
-51.13938510684171
21
25.30949893987245
31
0.0
0
LINE
8
1
62
1
10
-51.13938510684171
20
25.30949893987245
30
0.0
11
-51.539455864313936
21
25.76262345012463
31
0.0
0
LINE
8
1
62
1
10
-51.539455864313936
20
25.76262345012463
30
0.0
11
-51.95338745575775
21
26.25878262085013
31
0.0
0
LINE
8
1
62
1
10
-51.95338745575775
20
26.25878262085013
30
0.0
11
-52.37906202402228
21
26.799083422402845
31
0.0
0
LINE
8
1
62
1
10
-52.37906202402228
20
26.799083422402845
30
0.0
11
-52.81431128721516
21
27.384547374386436
31
0.0
0
LINE
8
1
62
1
10
-52.81431128721516
20
27.384547374386436
30
0.0
11
-53.256919679660896
21
28.016108609656794
31
0.0
0
LINE
8
1
62
1
10
-53.256919679660896
20
28.016108609656794
30
0.0
11
-51.94670350034885
21
30.37666589408359
31
0.0
0
LINE
8
1
62
1
10
-51.94670350034885
20
30.37666589408359
30
0.0
11
-51.17660877450791
21
30.33512198729119
31
0.0
0
LINE
8
1
62
1
10
-51.17660877450791
20
30.33512198729119
30
0.0
11
-50.44952695793649
21
30.27543955944685
31
0.0
0
LINE
8
1
62
1
10
-50.44952695793649
20
30.27543955944685
30
0.0
11
-49.765837258655566
21
30.199992960299788
31
0.0
0
LINE
8
1
62
1
10
-49.765837258655566
20
30.199992960299788
30
0.0
11
-49.125819713004866
21
30.111162636932793
31
0.0
0
LINE
8
1
62
1
10
-49.125819713004866
20
30.111162636932793
30
0.0
11
-48.529655167162176
21
30.011331444132843
31
0.0
0
LINE
8
1
62
1
10
-48.529655167162176
20
30.011331444132843
30
0.0
11
-47.977425387446026
21
29.902880959224827
31
0.0
0
LINE
8
1
62
1
10
-47.977425387446026
20
29.902880959224827
30
0.0
11
-47.469113299117794
21
29.788187805684945
31
0.0
0
LINE
8
1
62
1
10
-47.469113299117794
20
29.788187805684945
30
0.0
11
-47.004603353257664
21
29.669619989836992
31
0.0
0
LINE
8
1
62
1
10
-47.004603353257664
20
29.669619989836992
30
0.0
11
-46.58368202114953
21
29.549533254917765
31
0.0
0
LINE
8
1
62
1
10
-46.58368202114953
20
29.549533254917765
30
0.0
11
-46.20603841546952
21
29.43026745677516
31
0.0
0
LINE
8
1
62
1
10
-46.20603841546952
20
29.43026745677516
30
0.0
11
-45.87126503743548
21
29.314142965437018
31
0.0
0
LINE
8
1
62
1
10
-45.87126503743548
20
29.314142965437018
30
0.0
11
-45.57885864893536
21
29.203457096757095
31
0.0
0
LINE
8
1
62
1
10
-45.57885864893536
20
29.203457096757095
30
0.0
11
-45.3282212685173
21
29.100480578309877
31
0.0
0
LINE
8
1
62
1
10
-45.3282212685173
20
29.100480578309877
30
0.0
11
-45.11866128998784
21
29.00745405366632
31
0.0
0
LINE
8
1
62
1
10
-45.11866128998784
20
29.00745405366632
30
0.0
11
-44.949394722230906
21
28.926584629138436
31
0.0
0
LINE
8
1
62
1
10
-44.949394722230906
20
28.926584629138436
30
0.0
11
-44.81954654872763
21
28.860042467032947
31
0.0
0
LINE
8
1
62
1
10
-44.81954654872763
20
28.860042467032947
30
0.0
11
-44.72815220512604
21
28.80995742940157
31
0.0
0
LINE
8
1
62
1
10
-44.72815220512604
20
28.80995742940157
30
0.0
11
-44.67415917308041
21
28.778415776219045
31
0.0
0
LINE
8
1
62
1
10
-44.67415917308041
20
28.778415776219045
30
0.0
11
-44.656428688452884
21
28.76745692185962
31
0.0
0
LINE
8
1
62
1
10
-44.656428688452884
20
28.76745692185962
30
0.0
11
-43.84322690065956
21
28.243596235141226
31
0.0
0
LINE
8
1
62
1
10
-43.84322690065956
20
28.243596235141226
30
0.0
11
-41.71247559327135
21
31.304930174608977
31
0.0
0
LINE
8
1
62
1
10
-41.71247559327135
20
31.304930174608977
30
0.0
11
-42.486156321712976
21
31.8855723167218
31
0.0
0
LINE
8
1
62
1
10
-42.486156321712976
20
31.8855723167218
30
0.0
11
-42.502590901201046
21
31.898393048801076
31
0.0
0
LINE
8
1
62
1
10
-42.502590901201046
20
31.898393048801076
30
0.0
11
-42.55092121737086
21
31.938070547889243
31
0.0
0
LINE
8
1
62
1
10
-42.55092121737086
20
31.938070547889243
30
0.0
11
-42.62963030381149
21
32.00638099180951
31
0.0
0
LINE
8
1
62
1
10
-42.62963030381149
20
32.00638099180951
30
0.0
11
-42.73712731093359
21
32.105035950932724
31
0.0
0
LINE
8
1
62
1
10
-42.73712731093359
20
32.105035950932724
30
0.0
11
-42.871749954323114
21
32.235679659814934
31
0.0
0
LINE
8
1
62
1
10
-42.871749954323114
20
32.235679659814934
30
0.0
11
-43.031767057483165
21
32.399886375831024
31
0.0
0
LINE
8
1
62
1
10
-43.031767057483165
20
32.399886375831024
30
0.0
11
-43.21538118599659
21
32.59915782793743
31
0.0
0
LINE
8
1
62
1
10
-43.21538118599659
20
32.59915782793743
30
0.0
11
-43.42073137004122
21
32.834920758598614
31
0.0
0
LINE
8
1
62
1
10
-43.42073137004122
20
32.834920758598614
30
0.0
11
-43.64589591209188
21
33.10852456181045
31
0.0
0
LINE
8
1
62
1
10
-43.64589591209188
20
33.10852456181045
30
0.0
11
-43.88889527654825
21
33.42123902004892
31
0.0
0
LINE
8
1
62
1
10
-43.88889527654825
20
33.42123902004892
30
0.0
11
-44.147695057936936
21
33.7742521428651
31
0.0
0
LINE
8
1
62
1
10
-44.147695057936936
20
33.7742521428651
30
0.0
11
-44.420209024248265
21
34.16866810973662
31
0.0
0
LINE
8
1
62
1
10
-44.420209024248265
20
34.16866810973662
30
0.0
11
-44.70430223188387
21
34.605505319672815
31
0.0
0
LINE
8
1
62
1
10
-44.70430223188387
20
34.605505319672815
30
0.0
11
-44.99779420861151
21
35.08569454995463
31
0.0
0
LINE
8
1
62
1
10
-44.99779420861151
20
35.08569454995463
30
0.0
11
-45.298462200845464
21
35.610077226271926
31
0.0
0
LINE
8
1
62
1
10
-45.298462200845464
20
35.610077226271926
30
0.0
11
-45.60404448149951
21
36.17940380640014
31
0.0
0
LINE
8
1
62
1
10
-45.60404448149951
20
36.17940380640014
30
0.0
11
-45.912243714589074
21
36.79433227943478
31
0.0
0
LINE
8
1
62
1
10
-45.912243714589074
20
36.79433227943478
30
0.0
11
-46.22073037269503
21
37.455426782477126
31
0.0
0
LINE
8
1
62
1
10
-46.22073037269503
20
37.455426782477126
30
0.0
11
-46.527146203339974
21
38.163156336537
31
0.0
0
LINE
8
1
62
1
10
-46.527146203339974
20
38.163156336537
30
0.0
11
-44.76857353825076
21
40.21164829678299
31
0.0
0
LINE
8
1
62
1
10
-44.76857353825076
20
40.21164829678299
30
0.0
11
-44.02260542364495
21
40.01593586756337
31
0.0
0
LINE
8
1
62
1
10
-44.02260542364495
20
40.01593586756337
30
0.0
11
-43.32242099897335
21
39.81111464886399
31
0.0
0
LINE
8
1
62
1
10
-43.32242099897335
20
39.81111464886399
30
0.0
11
-42.667913756755794
21
39.59958672136867
31
0.0
0
LINE
8
1
62
1
10
-42.667913756755794
20
39.59958672136867
30
0.0
11
-42.05887882049677
21
39.38374017516929
31
0.0
0
LINE
8
1
62
1
10
-42.05887882049677
20
39.38374017516929
30
0.0
11
-41.49501366929998
21
39.165945491943326
31
0.0
0
LINE
8
1
62
1
10
-41.49501366929998
20
39.165945491943326
30
0.0
11
-40.97591898773162
21
38.94855195742683
31
0.0
0
LINE
8
1
62
1
10
-40.97591898773162
20
38.94855195742683
30
0.0
11
-40.501099639785416
21
38.73388410835419
31
0.0
0
LINE
8
1
62
1
10
-40.501099639785416
20
38.73388410835419
30
0.0
11
-40.06996576566618
21
38.5242382179941
31
0.0
0
LINE
8
1
62
1
10
-40.06996576566618
20
38.5242382179941
30
0.0
11
-39.681833999975886
21
38.32187882436635
31
0.0
0
LINE
8
1
62
1
10
-39.681833999975886
20
38.32187882436635
30
0.0
11
-39.33592880975307
21
38.129035305173964
31
0.0
0
LINE
8
1
62
1
10
-39.33592880975307
20
38.129035305173964
30
0.0
11
-39.03138395068691
21
37.9478985034322
31
0.0
0
LINE
8
1
62
1
10
-39.03138395068691
20
37.9478985034322
30
0.0
11
-38.76724403969753
21
37.78061740771713
31
0.0
0
LINE
8
1
62
1
10
-38.76724403969753
20
37.78061740771713
30
0.0
11
-38.54246624194825
21
37.62929589089509
31
0.0
0
LINE
8
1
62
1
10
-38.54246624194825
20
37.62929589089509
30
0.0
11
-38.35592207023016
21
37.49598951112827
31
0.0
0
LINE
8
1
62
1
10
-38.35592207023016
20
37.49598951112827
30
0.0
11
-38.206399294537086
21
37.38270237888139
31
0.0
0
LINE
8
1
62
1
10
-38.206399294537086
20
37.38270237888139
30
0.0
11
-38.09260395952901
21
37.29138409358096
31
0.0
0
LINE
8
1
62
1
10
-38.09260395952901
20
37.29138409358096
30
0.0
11
-38.01316250746391
21
37.22392675350079
31
0.0
0
LINE
8
1
62
1
10
-38.01316250746391
20
37.22392675350079
30
0.0
11
-37.96662400406301
21
37.18216204236603
31
0.0
0
LINE
8
1
62
1
10
-37.96662400406301
20
37.18216204236603
30
0.0
11
-37.95146246466185
21
37.16785839608317
31
0.0
0
LINE
8
1
62
1
10
-37.95146246466185
20
37.16785839608317
30
0.0
11
-37.26035934620727
21
36.49102485198116
31
0.0
0
LINE
8
1
62
1
10
-37.26035934620727
20
36.49102485198116
30
0.0
11
-34.55698265174557
21
39.060776021008046
31
0.0
0
LINE
8
1
62
1
10
-34.55698265174557
20
39.060776021008046
30
0.0
11
-35.19794368631577
21
39.78527317001696
31
0.0
0
LINE
8
1
62
1
10
-35.19794368631577
20
39.78527317001696
30
0.0
11
-35.21146105460222
21
39.80113971748661
31
0.0
0
LINE
8
1
62
1
10
-35.21146105460222
20
39.80113971748661
30
0.0
11
-35.250815024513486
21
39.84973383695789
31
0.0
0
LINE
8
1
62
1
10
-35.250815024513486
20
39.84973383695789
30
0.0
11
-35.314162140062955
21
39.93248998469607
31
0.0
0
LINE
8
1
62
1
10
-35.314162140062955
20
39.93248998469607
30
0.0
11
-35.39959957986317
21
40.050764459457945
31
0.0
0
LINE
8
1
62
1
10
-35.39959957986317
20
40.050764459457945
30
0.0
11
-35.50516810457688
21
40.20583322282908
31
0.0
0
LINE
8
1
62
1
10
-35.50516810457688
20
40.20583322282908
30
0.0
11
-35.628855079312
21
40.39888982377657
31
0.0
0
LINE
8
1
62
1
10
-35.628855079312
20
40.39888982377657
30
0.0
11
-35.768597567422944
21
40.631043429888784
31
0.0
0
LINE
8
1
62
1
10
-35.768597567422944
20
40.631043429888784
30
0.0
11
-35.922285492102496
21
40.90331696765696
31
0.0
0
LINE
8
1
62
1
10
-35.922285492102496
20
40.90331696765696
30
0.0
11
-36.08776486207236
21
41.216645374034755
31
0.0
0
LINE
8
1
62
1
10
-36.08776486207236
20
41.216645374034755
30
0.0
11
-36.26284105760897
21
41.57187396138944
31
0.0
0
LINE
8
1
62
1
10
-36.26284105760897
20
41.57187396138944
30
0.0
11
-36.44528217307402
21
41.96975689783574
31
0.0
0
LINE
8
1
62
1
10
-36.44528217307402
20
41.96975689783574
30
0.0
11
-36.63282241205486
21
42.41095580481641
31
0.0
0
LINE
8
1
62
1
10
-36.63282241205486
20
42.41095580481641
30
0.0
11
-36.82316553116058
21
42.8960384736664
31
0.0
0
LINE
8
1
62
1
10
-36.82316553116058
20
42.8960384736664
30
0.0
11
-37.01398832846444
21
43.4254777027676
31
0.0
0
LINE
8
1
62
1
10
-37.01398832846444
20
43.4254777027676
30
0.0
11
-37.20294417253106
21
43.99965025676922
31
0.0
0
LINE
8
1
62
1
10
-37.20294417253106
20
43.99965025676922
30
0.0
11
-37.38766656792099
21
44.61883594921668
31
0.0
0
LINE
8
1
62
1
10
-37.38766656792099
20
44.61883594921668
30
0.0
11
-37.565772753021015
21
45.28321684979617
31
0.0
0
LINE
8
1
62
1
10
-37.565772753021015
20
45.28321684979617
30
0.0
11
-37.73486732601155
21
45.99287661726741
31
0.0
0
LINE
8
1
62
1
10
-37.73486732601155
20
45.99287661726741
30
0.0
11
-37.89254589474677
21
46.7477999590189
31
0.0
0
LINE
8
1
62
1
10
-37.89254589474677
20
46.7477999590189
30
0.0
11
-35.75761291541263
21
48.40036109354406
31
0.0
0
LINE
8
1
62
1
10
-35.75761291541263
20
48.40036109354406
30
0.0
11
-35.06631143430142
21
48.0584926317447
31
0.0
0
LINE
8
1
62
1
10
-35.06631143430142
20
48.0584926317447
30
0.0
11
-34.42169003414388
21
47.71691802694931
31
0.0
0
LINE
8
1
62
1
10
-34.42169003414388
20
47.71691802694931
30
0.0
11
-33.82316085238741
21
47.37796874931084
31
0.0
0
LINE
8
1
62
1
10
-33.82316085238741
20
47.37796874931084
30
0.0
11
-33.27004248736908
21
47.04394276324138
31
0.0
0
LINE
8
1
62
1
10
-33.27004248736908
20
47.04394276324138
30
0.0
11
-32.76156143635952
21
46.71710112951047
31
0.0
0
LINE
8
1
62
1
10
-32.76156143635952
20
46.71710112951047
30
0.0
11
-32.296853650193405
21
46.39966466223124
31
0.0
0
LINE
8
1
62
1
10
-32.296853650193405
20
46.39966466223124
30
0.0
11
-31.874966202523044
21
46.0938106445893
31
0.0
0
LINE
8
1
62
1
10
-31.874966202523044
20
46.0938106445893
30
0.0
11
-31.49485907160723
21
45.801669607100756
31
0.0
0
LINE
8
1
62
1
10
-31.49485907160723
20
45.801669607100756
30
0.0
11
-31.155407032425693
21
45.52532217211582
31
0.0
0
LINE
8
1
62
1
10
-31.155407032425693
20
45.52532217211582
30
0.0
11
-30.855401656789926
21
45.26679596820753
31
0.0
0
LINE
8
1
62
1
10
-30.855401656789926
20
45.26679596820753
30
0.0
11
-30.5935534190043
21
45.028062618008136
31
0.0
0
LINE
8
1
62
1
10
-30.5935534190043
20
45.028062618008136
30
0.0
11
-30.36849390451669
21
44.811034802971186
31
0.0
0
LINE
8
1
62
1
10
-30.36849390451669
20
44.811034802971186
30
0.0
11
-30.178778118886324
21
44.61756340845254
31
0.0
0
LINE
8
1
62
1
10
-30.178778118886324
20
44.61756340845254
30
0.0
11
-30.02288689428774
21
44.44943475241294
31
0.0
0
LINE
8
1
62
1
10
-30.02288689428774
20
44.44943475241294
30
0.0
11
-29.899229390663585
21
44.30836790095193
31
0.0
0
LINE
8
1
62
1
10
-29.899229390663585
20
44.30836790095193
30
0.0
11
-29.806145688536326
21
44.19601207378621
31
0.0
0
LINE
8
1
62
1
10
-29.806145688536326
20
44.19601207378621
30
0.0
11
-29.741909470389242
21
44.11394414268602
31
0.0
0
LINE
8
1
62
1
10
-29.741909470389242
20
44.11394414268602
30
0.0
11
-29.704730787430336
21
44.06366622578002
31
0.0
0
LINE
8
1
62
1
10
-29.704730787430336
20
44.06366622578002
30
0.0
11
-29.692758908460032
21
44.046603380533156
31
0.0
0
LINE
8
1
62
1
10
-29.692758908460032
20
44.046603380533156
30
0.0
11
-29.152048302214897
21
43.24450662386763
31
0.0
0
LINE
8
1
62
1
10
-29.152048302214897
20
43.24450662386763
30
0.0
11
-25.98672278018425
21
45.217469107660754
31
0.0
0
LINE
8
1
62
1
10
-25.98672278018425
20
45.217469107660754
30
0.0
11
-26.468723100817986
21
46.05616026516053
31
0.0
0
LINE
8
1
62
1
10
-26.468723100817986
20
46.05616026516053
30
0.0
11
-26.478769855256942
21
46.074423049702915
31
0.0
0
LINE
8
1
62
1
10
-26.478769855256942
20
46.074423049702915
30
0.0
11
-26.5075363227576
21
46.12994434059659
31
0.0
0
LINE
8
1
62
1
10
-26.5075363227576
20
46.12994434059659
30
0.0
11
-26.552928029062357
21
46.223758145740845
31
0.0
0
LINE
8
1
62
1
10
-26.552928029062357
20
46.223758145740845
30
0.0
11
-26.612808082716793
21
46.356809965247955
31
0.0
0
LINE
8
1
62
1
10
-26.612808082716793
20
46.356809965247955
30
0.0
11
-26.685000500949144
21
46.52995524971579
31
0.0
0
LINE
8
1
62
1
10
-26.685000500949144
20
46.52995524971579
30
0.0
11
-26.76729358798105
21
46.74395797566872
31
0.0
0
LINE
8
1
62
1
10
-26.76729358798105
20
46.74395797566872
30
0.0
11
-26.857443361807203
21
46.99948933987561
31
0.0
0
LINE
8
1
62
1
10
-26.857443361807203
20
46.99948933987561
30
0.0
11
-26.95317702542775
21
47.29712657412377
31
0.0
0
LINE
8
1
62
1
10
-26.95317702542775
20
47.29712657412377
30
0.0
11
-27.052196478467238
21
47.63735188189588
31
0.0
0
LINE
8
1
62
1
10
-27.052196478467238
20
47.63735188189588
30
0.0
11
-27.15218186506824
21
48.020551498262904
31
0.0
0
LINE
8
1
62
1
10
-27.15218186506824
20
48.020551498262904
30
0.0
11
-27.250795153906587
21
48.447014874171956
31
0.0
0
LINE
8
1
62
1
10
-27.250795153906587
20
48.447014874171956
30
0.0
11
-27.34568374613802
21
48.916933986171315
31
0.0
0
LINE
8
1
62
1
10
-27.34568374613802
20
48.916933986171315
30
0.0
11
-27.43448410705331
21
49.43040277247759
31
0.0
0
LINE
8
1
62
1
10
-27.43448410705331
20
49.43040277247759
30
0.0
11
-27.514825417191044
21
49.9874166961523
31
0.0
0
LINE
8
1
62
1
10
-27.514825417191044
20
49.9874166961523
30
0.0
11
-27.58433323863289
21
50.58787243601502
31
0.0
0
LINE
8
1
62
1
10
-27.58433323863289
20
50.58787243601502
30
0.0
11
-27.64063319218745
21
51.231567705781686
31
0.0
0
LINE
8
1
62
1
10
-27.64063319218745
20
51.231567705781686
30
0.0
11
-27.68135464115337
21
51.91820120177486
31
0.0
0
LINE
8
1
62
1
10
-27.68135464115337
20
51.91820120177486
30
0.0
11
-27.704134377342477
21
52.64737267941325
31
0.0
0
LINE
8
1
62
1
10
-27.704134377342477
20
52.64737267941325
30
0.0
11
-27.706620305037497
21
53.41858315854532
31
0.0
0
LINE
8
1
62
1
10
-27.706620305037497
20
53.41858315854532
30
0.0
11
-25.28273141847639
21
54.60755742033445
31
0.0
0
LINE
8
1
62
1
10
-25.28273141847639
20
54.60755742033445
30
0.0
11
-24.67439853472096
21
54.133529060949265
31
0.0
0
LINE
8
1
62
1
10
-24.67439853472096
20
54.133529060949265
30
0.0
11
-24.11173103493973
21
53.669185174511504
31
0.0
0
LINE
8
1
62
1
10
-24.11173103493973
20
53.669185174511504
30
0.0
11
-23.593683768669656
21
53.21669116998126
31
0.0
0
LINE
8
1
62
1
10
-23.593683768669656
20
53.21669116998126
30
0.0
11
-23.119126705744513
21
52.77816080715779
31
0.0
0
LINE
8
1
62
1
10
-23.119126705744513
20
52.77816080715779
30
0.0
11
-22.68684702889451
21
52.35565315780912
31
0.0
0
LINE
8
1
62
1
10
-22.68684702889451
20
52.35565315780912
30
0.0
11
-22.295551329497105
21
51.951169644034785
31
0.0
0
LINE
8
1
62
1
10
-22.295551329497105
20
51.951169644034785
30
0.0
11
-21.943867903779893
21
51.566651157242106
31
0.0
0
LINE
8
1
62
1
10
-21.943867903779893
20
51.566651157242106
30
0.0
11
-21.63034914666788
21
51.203975261025015
31
0.0
0
LINE
8
1
62
1
10
-21.63034914666788
20
51.203975261025015
30
0.0
11
-21.353474040363114
21
50.864953481140624
31
0.0
0
LINE
8
1
62
1
10
-21.353474040363114
20
50.864953481140624
30
0.0
11
-21.11165073464206
21
50.55132868567999
31
0.0
0
LINE
8
1
62
1
10
-21.11165073464206
20
50.55132868567999
30
0.0
11
-20.903219215757783
21
50.26477255843009
31
0.0
0
LINE
8
1
62
1
10
-20.903219215757783
20
50.26477255843009
30
0.0
11
-20.726454060738426
21
50.006883168318566
31
0.0
0
LINE
8
1
62
1
10
-20.726454060738426
20
50.006883168318566
30
0.0
11
-20.579567273781336
21
49.77918263772681
31
0.0
0
LINE
8
1
62
1
10
-20.579567273781336
20
49.77918263772681
30
0.0
11
-20.460711201353778
21
49.583114912346986
31
0.0
0
LINE
8
1
62
1
10
-20.460711201353778
20
49.583114912346986
30
0.0
11
-20.367981522526044
21
49.420043635145305
31
0.0
0
LINE
8
1
62
1
10
-20.367981522526044
20
49.420043635145305
30
0.0
11
-20.29942031098156
21
49.291250126879696
31
0.0
0
LINE
8
1
62
1
10
-20.29942031098156
20
49.291250126879696
30
0.0
11
-20.253019165070867
21
49.197931475501335
31
0.0
0
LINE
8
1
62
1
10
-20.253019165070867
20
49.197931475501335
30
0.0
11
-20.226722402202608
21
49.14119873664962
31
0.0
0
LINE
8
1
62
1
10
-20.226722402202608
20
49.14119873664962
30
0.0
11
-20.21843031379484
21
49.12207524732795
31
0.0
0
LINE
8
1
62
1
10
-20.21843031379484
20
49.12207524732795
30
0.0
11
-19.850248975509626
21
48.22755321355916
31
0.0
0
LINE
8
1
62
1
10
-19.850248975509626
20
48.22755321355916
30
0.0
11
-16.352563424691972
21
49.522953696218764
31
0.0
0
LINE
8
1
62
1
10
-16.352563424691972
20
49.522953696218764
30
0.0
11
-16.65586988162987
21
50.44150274767934
31
0.0
0
LINE
8
1
62
1
10
-16.65586988162987
20
50.44150274767934
30
0.0
11
-16.662034706914156
21
50.4614140887495
31
0.0
0
LINE
8
1
62
1
10
-16.662034706914156
20
50.4614140887495
30
0.0
11
-16.679035969444808
21
50.52158950289291
31
0.0
0
LINE
8
1
62
1
10
-16.679035969444808
20
50.52158950289291
30
0.0
11
-16.70461392471543
21
50.62262021723798
31
0.0
0
LINE
8
1
62
1
10
-16.70461392471543
20
50.62262021723798
30
0.0
11
-16.736485095791874
21
50.76500222436678
31
0.0
0
LINE
8
1
62
1
10
-16.736485095791874
20
50.76500222436678
30
0.0
11
-16.77234584145818
21
50.9491354416415
31
0.0
0
LINE
8
1
62
1
10
-16.77234584145818
20
50.9491354416415
30
0.0
11
-16.809875952134764
21
51.1753229958551
31
0.0
0
LINE
8
1
62
1
10
-16.809875952134764
20
51.1753229958551
30
0.0
11
-16.846742269343537
21
51.44377063408237
31
0.0
0
LINE
8
1
62
1
10
-16.846742269343537
20
51.44377063408237
30
0.0
11
-16.880602324468217
21
51.75458626146952
31
0.0
0
LINE
8
1
62
1
10
-16.880602324468217
20
51.75458626146952
30
0.0
11
-16.90910799253561
21
52.10777960656098
31
0.0
0
LINE
8
1
62
1
10
-16.90910799253561
20
52.10777960656098
30
0.0
11
-16.929909156725778
21
52.50326201462222
31
0.0
0
LINE
8
1
62
1
10
-16.929909156725778
20
52.50326201462222
30
0.0
11
-16.940657379305815
21
52.94084636927699
31
0.0
0
LINE
8
1
62
1
10
-16.940657379305815
20
52.94084636927699
30
0.0
11
-16.93900957467296
21
53.42024714263663
31
0.0
0
LINE
8
1
62
1
10
-16.93900957467296
20
53.42024714263663
30
0.0
11
-16.922631680188335
21
53.9410805739578
31
0.0
0
LINE
8
1
62
1
10
-16.922631680188335
20
53.9410805739578
30
0.0
11
-16.8892023204832
21
54.50286497672442
31
0.0
0
LINE
8
1
62
1
10
-16.8892023204832
20
54.50286497672442
30
0.0
11
-16.836416460923612
21
55.105021173907694
31
0.0
0
LINE
8
1
62
1
10
-16.836416460923612
20
55.105021173907694
30
0.0
11
-16.76198904592933
21
55.74687306101834
31
0.0
0
LINE
8
1
62
1
10
-16.76198904592933
20
55.74687306101834
30
0.0
11
-16.6636586178559
21
56.42764829642324
31
0.0
0
LINE
8
1
62
1
10
-16.6636586178559
20
56.42764829642324
30
0.0
11
-16.5391909121675
21
57.14647911826024
31
0.0
0
LINE
8
1
62
1
10
-16.5391909121675
20
57.14647911826024
30
0.0
11
-16.38638242465041
21
57.902403287143834
31
0.0
0
LINE
8
1
62
1
10
-16.38638242465041
20
57.902403287143834
30
0.0
11
-13.772771926672977
21
58.579113930220785
31
0.0
0
LINE
8
1
62
1
10
-13.772771926672977
20
58.579113930220785
30
0.0
11
-13.272312860010354
21
57.99233244997895
31
0.0
0
LINE
8
1
62
1
10
-13.272312860010354
20
57.99233244997895
30
0.0
11
-12.814634934157093
21
57.42422957516767
31
0.0
0
LINE
8
1
62
1
10
-12.814634934157093
20
57.42422957516767
30
0.0
11
-12.398278499322483
21
56.87671600145692
31
0.0
0
LINE
8
1
62
1
10
-12.398278499322483
20
56.87671600145692
30
0.0
11
-12.02171116040477
21
56.35163474645855
31
0.0
0
LINE
8
1
62
1
10
-12.02171116040477
20
56.35163474645855
30
0.0
11
-11.68333043847526
21
55.850758594299016
31
0.0
0
LINE
8
1
62
1
10
-11.68333043847526
20
55.850758594299016
30
0.0
11
-11.381466517755207
21
55.37578763660829
31
0.0
0
LINE
8
1
62
1
10
-11.381466517755207
20
55.37578763660829
30
0.0
11
-11.114385074761044
21
54.92834691269316
31
0.0
0
LINE
8
1
62
1
10
-11.114385074761044
20
54.92834691269316
30
0.0
11
-10.880290186205885
21
54.509984151551265
31
0.0
0
LINE
8
1
62
1
10
-10.880290186205885
20
54.509984151551265
30
0.0
11
-10.677327312161456
21
54.12216761826924
31
0.0
0
LINE
8
1
62
1
10
-10.677327312161456
20
54.12216761826924
30
0.0
11
-10.503586350904357
21
53.766284067231766
31
0.0
0
LINE
8
1
62
1
10
-10.503586350904357
20
53.766284067231766
30
0.0
11
-10.357104761794213
21
53.443636804449895
31
0.0
0
LINE
8
1
62
1
10
-10.357104761794213
20
53.443636804449895
30
0.0
11
-10.235870752458636
21
53.15544386119567
31
0.0
0
LINE
8
1
62
1
10
-10.235870752458636
20
53.15544386119567
30
0.0
11
-10.137826526491313
21
52.90283628100694
31
0.0
0
LINE
8
1
62
1
10
-10.137826526491313
20
52.90283628100694
30
0.0
11
-10.060871587804952
21
52.6868565220009
31
0.0
0
LINE
8
1
62
1
10
-10.060871587804952
20
52.6868565220009
30
0.0
11
-10.002866097720123
21
52.50845697630726
31
0.0
0
LINE
8
1
62
1
10
-10.002866097720123
20
52.50845697630726
30
0.0
11
-9.961634280814652
21
52.36849860830275
31
0.0
0
LINE
8
1
62
1
10
-9.961634280814652
20
52.36849860830275
30
0.0
11
-9.934967875505837
21
52.2677497131981
31
0.0
0
LINE
8
1
62
1
10
-9.934967875505837
20
52.2677497131981
30
0.0
11
-9.920629625289786
21
52.20688479739508
31
0.0
0
LINE
8
1
62
1
10
-9.920629625289786
20
52.20688479739508
30
0.0
11
-9.916356806518246
21
52.18648358189836
31
0.0
0
LINE
8
1
62
1
10
-9.916356806518246
20
52.18648358189836
30
0.0
11
-9.73577812344182
21
51.23615810819068
31
0.0
0
LINE
8
1
62
1
10
-9.73577812344182
20
51.23615810819068
30
0.0
11
-6.048928201248142
21
51.80096274175362
31
0.0
0
LINE
8
1
62
1
10
-6.048928201248142
20
51.80096274175362
30
0.0
11
-6.161123392506167
21
52.76176418108326
31
0.0
0
LINE
8
1
62
1
10
-6.161123392506167
20
52.76176418108326
30
0.0
11
-6.1631538999643105
21
52.78250890603831
31
0.0
0
LINE
8
1
62
1
10
-6.1631538999643105
20
52.78250890603831
30
0.0
11
-6.16769392383939
21
52.8448748549061
31
0.0
0
LINE
8
1
62
1
10
-6.16769392383939
20
52.8448748549061
30
0.0
11
-6.17241096358182
21
52.9489862691361
31
0.0
0
LINE
8
1
62
1
10
-6.17241096358182
20
52.9489862691361
30
0.0
11
-6.174968442591694
21
53.094869327785574
31
0.0
0
LINE
8
1
62
1
10
-6.174968442591694
20
53.094869327785574
30
0.0
11
-6.173029372550916
21
53.28245204231722
31
0.0
0
LINE
8
1
62
1
10
-6.173029372550916
20
53.28245204231722
30
0.0
11
-6.164260019731479
21
53.51156427974606
31
0.0
0
LINE
8
1
62
1
10
-6.164260019731479
20
53.51156427974606
30
0.0
11
-6.1463335689647405
21
53.78193791414344
31
0.0
0
LINE
8
1
62
1
10
-6.1463335689647405
20
53.78193791414344
30
0.0
11
-6.116933780958364
21
54.09320710636505
31
0.0
0
LINE
8
1
62
1
10
-6.116933780958364
20
54.09320710636505
30
0.0
11
-6.073758638653705
21
54.44490871172936
31
0.0
0
LINE
8
1
62
1
10
-6.073758638653705
20
54.44490871172936
30
0.0
11
-6.014523978327054
21
54.83648281523159
31
0.0
0
LINE
8
1
62
1
10
-6.014523978327054
20
54.83648281523159
30
0.0
11
-5.93696710115349
21
55.26727339373853
31
0.0
0
LINE
8
1
62
1
10
-5.93696710115349
20
55.26727339373853
30
0.0
11
-5.838850360971617
21
55.73652910446991
31
0.0
0
LINE
8
1
62
1
10
-5.838850360971617
20
55.73652910446991
30
0.0
11
-5.7179647240116065
21
56.243404198932346
31
0.0
0
LINE
8
1
62
1
10
-5.7179647240116065
20
56.243404198932346
30
0.0
11
-5.572133296377718
21
56.78695956133473
31
0.0
0
LINE
8
1
62
1
10
-5.572133296377718
20
56.78695956133473
30
0.0
11
-5.39921481510914
21
57.36616387037555
31
0.0
0
LINE
8
1
62
1
10
-5.39921481510914
20
57.36616387037555
30
0.0
11
-5.197107098680729
21
57.97989488315746
31
0.0
0
LINE
8
1
62
1
10
-5.197107098680729
20
57.97989488315746
30
0.0
11
-4.963750452846615
21
58.62694083984893
31
0.0
0
LINE
8
1
62
1
10
-4.963750452846615
20
58.62694083984893
30
0.0
11
-4.697131027775919
21
59.30600198757949
31
0.0
0
LINE
8
1
62
1
10
-4.697131027775919
20
59.30600198757949
30
0.0
11
-4.3952841224799055
21
60.0156922219232
31
0.0
0
LINE
8
1
62
1
10
-4.3952841224799055
20
60.0156922219232
30
0.0
11
-1.6989535339595334
21
60.152434633050255
31
0.0
0
LINE
8
1
62
1
10
-1.6989535339595334
20
60.152434633050255
30
0.0
11
-1.3268571373803293
21
59.47692293469679
31
0.0
0
LINE
8
1
62
1
10
-1.3268571373803293
20
59.47692293469679
30
0.0
11
-0.9929061735143465
21
58.82831926995601
31
0.0
0
LINE
8
1
62
1
10
-0.9929061735143465
20
58.82831926995601
30
0.0
11
-0.6952862514771315
21
58.20820139710258
31
0.0
0
LINE
8
1
62
1
10
-0.6952862514771315
20
58.20820139710258
30
0.0
11
-0.43212534766692234
21
57.61806613820338
31
0.0
0
LINE
8
1
62
1
10
-0.43212534766692234
20
57.61806613820338
30
0.0
11
-0.20149692717174905
21
57.05932741175283
31
0.0
0
LINE
8
1
62
1
10
-0.20149692717174905
20
57.05932741175283
30
0.0
11
-0.0014231295108254605
21
56.533314376960284
31
0.0
0
LINE
8
1
62
1
10
-0.0014231295108254605
20
56.533314376960284
30
0.0
11
0.17012198510336451
21
56.04126969173186
31
0.0
0
LINE
8
1
62
1
10
0.17012198510336451
20
56.04126969173186
30
0.0
11
0.31520913285923735
21
55.58434788626183
31
0.0
0
LINE
8
1
62
1
10
0.31520913285923735
20
55.58434788626183
30
0.0
11
0.43595045073283184
21
55.163613854021264
31
0.0
0
LINE
8
1
62
1
10
0.43595045073283184
20
55.163613854021264
30
0.0
11
0.534496092158409
21
54.78004146180096
31
0.0
0
LINE
8
1
62
1
10
0.534496092158409
20
54.78004146180096
30
0.0
11
0.6130307780253901
21
54.43451228033484
31
0.0
0
LINE
8
1
62
1
10
0.6130307780253901
20
54.43451228033484
30
0.0
11
0.673770307090602
21
54.12781443689599
31
0.0
0
LINE
8
1
62
1
10
0.673770307090602
20
54.12781443689599
30
0.0
11
0.7189580299373515
21
53.860641591123326
31
0.0
0
LINE
8
1
62
1
10
0.7189580299373515
20
53.860641591123326
30
0.0
11
0.7508612906508734
21
53.63359203520134
31
0.0
0
LINE
8
1
62
1
10
0.7508612906508734
20
53.63359203520134
30
0.0
11
0.7717678404133652
21
53.44716791937747
31
0.0
0
LINE
8
1
62
1
10
0.7717678404133652
20
53.44716791937747
30
0.0
11
0.7839822272511848
21
53.30177460366458
31
0.0
0
LINE
8
1
62
1
10
0.7839822272511848
20
53.30177460366458
30
0.0
11
0.789822166191608
21
53.19772013643672
31
0.0
0
LINE
8
1
62
1
10
0.789822166191608
20
53.19772013643672
30
0.0
11
0.7916148941069336
21
53.135214860486705
31
0.0
0
LINE
8
1
62
1
10
0.7916148941069336
20
53.135214860486705
30
0.0
11
0.7916935135397012
21
53.1143711469744
31
0.0
0
LINE
8
1
62
1
10
0.7916935135397012
20
53.1143711469744
30
0.0
11
0.7772766289050966
21
52.147148669879925
31
0.0
0
LINE
8
1
62
1
10
0.7772766289050966
20
52.147148669879925
30
0.0
11
4.502350853473718
21
51.95823428628639
31
0.0
0
LINE
8
1
62
1
10
4.502350853473718
20
51.95823428628639
30
0.0
11
4.585860212208044
21
52.92195278966957
31
0.0
0
LINE
8
1
62
1
10
4.585860212208044
20
52.92195278966957
30
0.0
11
4.588047151789954
21
52.94268160703244
31
0.0
0
LINE
8
1
62
1
10
4.588047151789954
20
52.94268160703244
30
0.0
11
4.5961542356813245
21
53.00468482135029
31
0.0
0
LINE
8
1
62
1
10
4.5961542356813245
20
53.00468482135029
30
0.0
11
4.6124912276283725
21
53.10761460193406
31
0.0
0
LINE
8
1
62
1
10
4.6124912276283725
20
53.10761460193406
30
0.0
11
4.639352144176222
21
53.25102624254256
31
0.0
0
LINE
8
1
62
1
10
4.639352144176222
20
53.25102624254256
30
0.0
11
4.679011644168782
21
53.43437879595816
31
0.0
0
LINE
8
1
62
1
10
4.679011644168782
20
53.43437879595816
30
0.0
11
4.7337214421494584
21
53.65703583468238
31
0.0
0
LINE
8
1
62
1
10
4.7337214421494584
20
53.65703583468238
30
0.0
11
4.805706749891051
21
53.918266336890085
31
0.0
0
LINE
8
1
62
1
10
4.805706749891051
20
53.918266336890085
30
0.0
11
4.897162750253175
21
54.21724569664402
31
0.0
0
LINE
8
1
62
1
10
4.897162750253175
20
54.21724569664402
30
0.0
11
5.0102511075310705
21
54.553056857234395
31
0.0
0
LINE
8
1
62
1
10
5.0102511075310705
20
54.553056857234395
30
0.0
11
5.147096518420987
21
54.92469156637222
31
0.0
0
LINE
8
1
62
1
10
5.147096518420987
20
54.92469156637222
30
0.0
11
5.309783307684119
21
55.33105175183151
31
0.0
0
LINE
8
1
62
1
10
5.309783307684119
20
55.33105175183151
30
0.0
11
5.500352072543736
21
55.77095101600208
31
0.0
0
LINE
8
1
62
1
10
5.500352072543736
20
55.77095101600208
30
0.0
11
5.720796379798533
21
56.2431162476832
31
0.0
0
LINE
8
1
62
1
10
5.720796379798533
20
56.2431162476832
30
0.0
11
5.973059519579382
21
56.74618934931958
31
0.0
0
LINE
8
1
62
1
10
5.973059519579382
20
56.74618934931958
30
0.0
11
6.259031319616753
21
57.278729077752175
31
0.0
0
LINE
8
1
62
1
10
6.259031319616753
20
57.278729077752175
30
0.0
11
6.580545023822065
21
57.83921299643174
31
0.0
0
LINE
8
1
62
1
10
6.580545023822065
20
57.83921299643174
30
0.0
11
6.939374238918176
21
58.426039536918125
31
0.0
0
LINE
8
1
62
1
10
6.939374238918176
20
58.426039536918125
30
0.0
11
7.3372299527823195
21
59.03753016736788
31
0.0
0
LINE
8
1
62
1
10
7.3372299527823195
20
59.03753016736788
30
0.0
11
7.775757628088935
21
59.67193166559261
31
0.0
0
LINE
8
1
62
1
10
7.775757628088935
20
59.67193166559261
30
0.0
11
10.44442021605283
21
59.26310759439167
31
0.0
0
LINE
8
1
62
1
10
10.44442021605283
20
59.26310759439167
30
0.0
11
10.672920272353192
21
58.52652120622642
31
0.0
0
LINE
8
1
62
1
10
10.672920272353192
20
58.52652120622642
30
0.0
11
10.869472282533652
21
57.82397066179832
31
0.0
0
LINE
8
1
62
1
10
10.869472282533652
20
57.82397066179832
30
0.0
11
11.03617109719641
21
57.15663618837758
31
0.0
0
LINE
8
1
62
1
10
11.03617109719641
20
57.15663618837758
30
0.0
11
11.175151727577031
21
56.525607132414834
31
0.0
0
LINE
8
1
62
1
10
11.175151727577031
20
56.525607132414834
30
0.0
11
11.288585892005106
21
55.93188066078318
31
0.0
0
LINE
8
1
62
1
10
11.288585892005106
20
55.93188066078318
30
0.0
11
11.378678521822989
21
55.37636058433712
31
0.0
0
LINE
8
1
62
1
10
11.378678521822989
20
55.37636058433712
30
0.0
11
11.447664230909206
21
54.859856305021445
31
0.0
0
LINE
8
1
62
1
10
11.447664230909206
20
54.859856305021445
30
0.0
11
11.49780375298965
21
54.38308188762526
31
0.0
0
LINE
8
1
62
1
10
11.49780375298965
20
54.38308188762526
30
0.0
11
11.53138035095216
21
53.94665525714022
31
0.0
0
LINE
8
1
62
1
10
11.53138035095216
20
53.94665525714022
30
0.0
11
11.550696202407632
21
53.551097522542435
31
0.0
0
LINE
8
1
62
1
10
11.550696202407632
20
53.551097522542435
30
0.0
11
11.558068765764625
21
53.19683242767926
31
0.0
0
LINE
8
1
62
1
10
11.558068765764625
20
53.19683242767926
30
0.0
11
11.55582713110295
21
52.88418592980162
31
0.0
0
LINE
8
1
62
1
10
11.55582713110295
20
52.88418592980162
30
0.0
11
11.546308360146448
21
52.61338590614243
31
0.0
0
LINE
8
1
62
1
10
11.546308360146448
20
52.61338590614243
30
0.0
11
11.531853819645042
21
52.384561988801124
31
0.0
0
LINE
8
1
62
1
10
11.531853819645042
20
52.384561988801124
30
0.0
11
11.514805512481505
21
52.19774552805277
31
0.0
0
LINE
8
1
62
1
10
11.514805512481505
20
52.19774552805277
30
0.0
11
11.497502410819402
21
52.05286968405978
31
0.0
0
LINE
8
1
62
1
10
11.497502410819402
20
52.05286968405978
30
0.0
11
11.482276795605053
21
51.9497696468229
31
0.0
0
LINE
8
1
62
1
10
11.482276795605053
20
51.9497696468229
30
0.0
11
11.47145060672816
21
51.888182984067335
31
0.0
0
LINE
8
1
62
1
10
11.47145060672816
20
51.888182984067335
30
0.0
11
11.467331808133341
21
51.867750116619675
31
0.0
0
LINE
8
1
62
1
10
11.467331808133341
20
51.867750116619675
30
0.0
11
11.258509584738558
21
50.92322883799447
31
0.0
0
LINE
8
1
62
1
10
11.258509584738558
20
50.92322883799447
30
0.0
11
14.869303135250556
21
49.98832961430527
31
0.0
0
LINE
8
1
62
1
10
14.869303135250556
20
49.98832961430527
30
0.0
11
15.145098161018716
21
50.91551043298137
31
0.0
0
LINE
8
1
62
1
10
15.145098161018716
20
50.91551043298137
30
0.0
11
15.151413014077242
21
50.9353747025337
31
0.0
0
LINE
8
1
62
1
10
15.151413014077242
20
50.9353747025337
30
0.0
11
15.171835300768006
21
50.994476763422355
31
0.0
0
LINE
8
1
62
1
10
15.171835300768006
20
50.994476763422355
30
0.0
11
15.208557486034705
21
51.09201095304907
31
0.0
0
LINE
8
1
62
1
10
15.208557486034705
20
51.09201095304907
30
0.0
11
15.263737109060784
21
51.227079886199924
31
0.0
0
LINE
8
1
62
1
10
15.263737109060784
20
51.227079886199924
30
0.0
11
15.33949337441564
21
51.39869580341965
31
0.0
0
LINE
8
1
62
1
10
15.33949337441564
20
51.39869580341965
30
0.0
11
15.437903792000096
21
51.605782038112785
31
0.0
0
LINE
8
1
62
1
10
15.437903792000096
20
51.605782038112785
30
0.0
11
15.561000869759688
21
51.847174600677135
31
0.0
0
LINE
8
1
62
1
10
15.561000869759688
20
51.847174600677135
30
0.0
11
15.71076886307711
21
52.1216238778465
31
0.0
0
LINE
8
1
62
1
10
15.71076886307711
20
52.1216238778465
30
0.0
11
15.889140584693967
21
52.42779644529222
31
0.0
0
LINE
8
1
62
1
10
15.889140584693967
20
52.42779644529222
30
0.0
11
16.097994278946665
21
52.76427699140831
31
0.0
0
LINE
8
1
62
1
10
16.097994278946665
20
52.76427699140831
30
0.0
11
16.339150564032046
21
53.12957035008196
31
0.0
0
LINE
8
1
62
1
10
16.339150564032046
20
53.12957035008196
30
0.0
11
16.614369445945172
21
53.52210364013062
31
0.0
0
LINE
8
1
62
1
10
16.614369445945172
20
53.52210364013062
30
0.0
11
16.925347407654638
21
53.940228508968325
31
0.0
0
LINE
8
1
62
1
10
16.925347407654638
20
53.940228508968325
30
0.0
11
17.273714577000156
21
54.38222347794911
31
0.0
0
LINE
8
1
62
1
10
17.273714577000156
20
54.38222347794911
30
0.0
11
17.661031976712533
21
54.84629638672071
31
0.0
0
LINE
8
1
62
1
10
17.661031976712533
20
54.84629638672071
30
0.0
11
18.088788859868323
21
55.330586933813116
31
0.0
0
LINE
8
1
62
1
10
18.088788859868323
20
55.330586933813116
30
0.0
11
18.558400133999754
21
55.83316931057772
31
0.0
0
LINE
8
1
62
1
10
18.558400133999754
20
55.83316931057772
30
0.0
11
19.071203876985685
21
56.35205492548896
31
0.0
0
LINE
8
1
62
1
10
19.071203876985685
20
56.35205492548896
30
0.0
11
19.628458947751035
21
56.88519521571838
31
0.0
0
LINE
8
1
62
1
10
19.628458947751035
20
56.88519521571838
30
0.0
11
22.160198175252667
21
55.94754196769922
31
0.0
0
LINE
8
1
62
1
10
22.160198175252667
20
55.94754196769922
30
0.0
11
22.235747072121637
21
55.18003682299888
31
0.0
0
LINE
8
1
62
1
10
22.235747072121637
20
55.18003682299888
30
0.0
11
22.2868532662259
21
54.452301900718545
31
0.0
0
LINE
8
1
62
1
10
22.2868532662259
20
54.452301900718545
30
0.0
11
22.315806304455638
21
53.765071578480814
31
0.0
0
LINE
8
1
62
1
10
22.315806304455638
20
53.765071578480814
30
0.0
11
22.32491677806936
21
53.118983129148404
31
0.0
0
LINE
8
1
62
1
10
22.32491677806936
20
53.118983129148404
30
0.0
11
22.3165126784107
21
52.514576143844124
31
0.0
0
LINE
8
1
62
1
10
22.3165126784107
20
52.514576143844124
30
0.0
11
22.29293573753536
21
51.9522920829451
31
0.0
0
LINE
8
1
62
1
10
22.29293573753536
20
51.9522920829451
30
0.0
11
22.25653775805814
21
51.43247395542404
31
0.0
0
LINE
8
1
62
1
10
22.25653775805814
20
51.43247395542404
30
0.0
11
22.20967693653804
21
50.95536612676851
31
0.0
0
LINE
8
1
62
1
10
22.20967693653804
20
50.95536612676851
30
0.0
11
22.1547141847238
21
50.52111425556902
31
0.0
0
LINE
8
1
62
1
10
22.1547141847238
20
50.52111425556902
30
0.0
11
22.094009452981062
21
50.129765358724235
31
0.0
0
LINE
8
1
62
1
10
22.094009452981062
20
50.129765358724235
30
0.0
11
22.02991806021799
21
49.78126800507208
31
0.0
0
LINE
8
1
62
1
10
22.02991806021799
20
49.78126800507208
30
0.0
11
21.964787034615856
21
49.47547263711317
31
0.0
0
LINE
8
1
62
1
10
21.964787034615856
20
49.47547263711317
30
0.0
11
21.900951469457468
21
49.212132020353714
31
0.0
0
LINE
8
1
62
1
10
21.900951469457468
20
49.212132020353714
30
0.0
11
21.840730898327603
21
48.990901819654724
31
0.0
0
LINE
8
1
62
1
10
21.840730898327603
20
48.990901819654724
30
0.0
11
21.786425693936405
21
48.81134130183493
31
0.0
0
LINE
8
1
62
1
10
21.786425693936405
20
48.81134130183493
30
0.0
11
21.740313494789454
21
48.67291416363709
31
0.0
0
LINE
8
1
62
1
10
21.740313494789454
20
48.67291416363709
30
0.0
11
21.704645663896137
21
48.5749894840294
31
0.0
0
LINE
8
1
62
1
10
21.704645663896137
20
48.5749894840294
30
0.0
11
21.681643783671674
21
48.516842799677626
31
0.0
0
LINE
8
1
62
1
10
21.681643783671674
20
48.516842799677626
30
0.0
11
21.673496191147677
21
48.49765730228868
31
0.0
0
LINE
8
1
62
1
10
21.673496191147677
20
48.49765730228868
30
0.0
11
21.27881783535407
21
47.614506034256195
31
0.0
0
LINE
8
1
62
1
10
21.27881783535407
20
47.614506034256195
30
0.0
11
24.6275043996013
21
45.97189685453517
31
0.0
0
LINE
8
1
62
1
10
24.6275043996013
20
45.97189685453517
30
0.0
11
25.084294011643806
21
46.824581096848455
31
0.0
0
LINE
8
1
62
1
10
25.084294011643806
20
46.824581096848455
30
0.0
11
25.094478247352765
21
46.84276757306081
31
0.0
0
LINE
8
1
62
1
10
25.094478247352765
20
46.84276757306081
30
0.0
11
25.126379646026287
21
46.896548835203305
31
0.0
0
LINE
8
1
62
1
10
25.126379646026287
20
46.896548835203305
30
0.0
11
25.181983614033147
21
46.98469437268986
31
0.0
0
LINE
8
1
62
1
10
25.181983614033147
20
46.98469437268986
30
0.0
11
25.26322288328744
21
47.105890860389955
31
0.0
0
LINE
8
1
62
1
10
25.26322288328744
20
47.105890860389955
30
0.0
11
25.371974443599978
21
47.258744165598806
31
0.0
0
LINE
8
1
62
1
10
25.371974443599978
20
47.258744165598806
30
0.0
11
25.510056546729572
21
47.441781461480915
31
0.0
0
LINE
8
1
62
1
10
25.510056546729572
20
47.441781461480915
30
0.0
11
25.679225785680394
21
47.653453444528125
31
0.0
0
LINE
8
1
62
1
10
25.679225785680394
20
47.653453444528125
30
0.0
11
25.881174252709705
21
47.892136653459175
31
0.0
0
LINE
8
1
62
1
10
25.881174252709705
20
47.892136653459175
30
0.0
11
26.117526779424743
21
48.15613588687527
31
0.0
0
LINE
8
1
62
1
10
26.117526779424743
20
48.15613588687527
30
0.0
11
26.389838262258248
21
48.443686716876854
31
0.0
0
LINE
8
1
62
1
10
26.389838262258248
20
48.443686716876854
30
0.0
11
26.699591076519823
21
48.75295809574062
31
0.0
0
LINE
8
1
62
1
10
26.699591076519823
20
48.75295809574062
30
0.0
11
27.04819258212409
21
49.08205505265205
31
0.0
0
LINE
8
1
62
1
10
27.04819258212409
20
49.08205505265205
30
0.0
11
27.436972723997485
21
49.42902147738856
31
0.0
0
LINE
8
1
62
1
10
27.436972723997485
20
49.42902147738856
30
0.0
11
27.867181730063262
21
49.79184298775148
31
0.0
0
LINE
8
1
62
1
10
27.867181730063262
20
49.79184298775148
30
0.0
11
28.339987909598555
21
50.1684498774507
31
0.0
0
LINE
8
1
62
1
10
28.339987909598555
20
50.1684498774507
30
0.0
11
28.856475554649126
21
50.556720141056275
31
0.0
0
LINE
8
1
62
1
10
28.856475554649126
20
50.556720141056275
30
0.0
11
29.41764294707595
21
50.95448257254344
31
0.0
0
LINE
8
1
62
1
10
29.41764294707595
20
50.95448257254344
30
0.0
11
30.024400473693944
21
51.359519933875205
31
0.0
0
LINE
8
1
62
1
10
30.024400473693944
20
51.359519933875205
30
0.0
11
30.677568851846203
21
51.769572189986015
31
0.0
0
LINE
8
1
62
1
10
30.677568851846203
20
51.769572189986015
30
0.0
11
32.968735017444935
21
50.3414773992921
31
0.0
0
LINE
8
1
62
1
10
32.968735017444935
20
50.3414773992921
30
0.0
11
32.88823977416808
21
49.57447524885873
31
0.0
0
LINE
8
1
62
1
10
32.88823977416808
20
49.57447524885873
30
0.0
11
32.7918078586048
21
48.851349501949535
31
0.0
0
LINE
8
1
62
1
10
32.7918078586048
20
48.851349501949535
30
0.0
11
32.681829779614546
21
48.17235862103337
31
0.0
0
LINE
8
1
62
1
10
32.681829779614546
20
48.17235862103337
30
0.0
11
32.560697112601176
21
47.53766171535912
31
0.0
0
LINE
8
1
62
1
10
32.560697112601176
20
47.53766171535912
30
0.0
11
32.43079881368325
21
46.94731870937539
31
0.0
0
LINE
8
1
62
1
10
32.43079881368325
20
46.94731870937539
30
0.0
11
32.29451754484431
21
46.401290639542175
31
0.0
0
LINE
8
1
62
1
10
32.29451754484431
20
46.401290639542175
30
0.0
11
32.15422601436003
21
45.89944007903247
31
0.0
0
LINE
8
1
62
1
10
32.15422601436003
20
45.89944007903247
30
0.0
11
32.01228333677833
21
45.44153168968055
31
0.0
0
LINE
8
1
62
1
10
32.01228333677833
20
45.44153168968055
30
0.0
11
31.87103141670446
21
45.02723290039593
31
0.0
0
LINE
8
1
62
1
10
31.87103141670446
20
45.02723290039593
30
0.0
11
31.732791360613565
21
44.65611471112253
31
0.0
0
LINE
8
1
62
1
10
31.732791360613565
20
44.65611471112253
30
0.0
11
31.599859920880565
21
44.32765262128661
31
0.0
0
LINE
8
1
62
1
10
31.599859920880565
20
44.32765262128661
30
0.0
11
31.4745059761787
21
44.0412276815401
31
0.0
0
LINE
8
1
62
1
10
31.4745059761787
20
44.0412276815401
30
0.0
11
31.358967052356373
21
43.79612766747172
31
0.0
0
LINE
8
1
62
1
10
31.358967052356373
20
43.79612766747172
30
0.0
11
31.255445887855718
21
43.5915483738251
31
0.0
0
LINE
8
1
62
1
10
31.255445887855718
20
43.5915483738251
30
0.0
11
31.166107047685227
21
43.42659502763087
31
0.0
0
LINE
8
1
62
1
10
31.166107047685227
20
43.42659502763087
30
0.0
11
31.093073589904456
21
43.300283818530495
31
0.0
0
LINE
8
1
62
1
10
31.093073589904456
20
43.300283818530495
30
0.0
11
31.038423788519736
21
43.21154354444081
31
0.0
0
LINE
8
1
62
1
10
31.038423788519736
20
43.21154354444081
30
0.0
11
31.004187916626694
21
43.15921737058213
31
0.0
0
LINE
8
1
62
1
10
31.004187916626694
20
43.15921737058213
30
0.0
11
30.99234509356876
21
43.1420646997692
31
0.0
0
LINE
8
1
62
1
10
30.99234509356876
20
43.1420646997692
30
0.0
11
30.427968783635247
21
42.35643975900855
31
0.0
0
LINE
8
1
62
1
10
30.427968783635247
20
42.35643975900855
30
0.0
11
33.37745274022346
21
40.07336923607186
31
0.0
0
LINE
8
1
62
1
10
33.37745274022346
20
40.07336923607186
30
0.0
11
33.996535918152794
21
40.8166479089559
31
0.0
0
LINE
8
1
62
1
10
33.996535918152794
20
40.8166479089559
30
0.0
11
34.010172592705665
21
40.832412035355325
31
0.0
0
LINE
8
1
62
1
10
34.010172592705665
20
40.832412035355325
30
0.0
11
34.052247056352
21
40.8786706875605
31
0.0
0
LINE
8
1
62
1
10
34.052247056352
20
40.8786706875605
30
0.0
11
34.124456374115624
21
40.95381888424555
31
0.0
0
LINE
8
1
62
1
10
34.124456374115624
20
40.95381888424555
30
0.0
11
34.22842934436966
21
41.05618112804846
31
0.0
0
LINE
8
1
62
1
10
34.22842934436966
20
41.05618112804846
30
0.0
11
34.36572389798291
21
41.18401398897169
31
0.0
0
LINE
8
1
62
1
10
34.36572389798291
20
41.18401398897169
30
0.0
11
34.53782458913157
21
41.33550877764339
31
0.0
0
LINE
8
1
62
1
10
34.53782458913157
20
41.33550877764339
30
0.0
11
34.74614018075443
21
41.508794305317096
31
0.0
0
LINE
8
1
62
1
10
34.74614018075443
20
41.508794305317096
30
0.0
11
34.99200132752751
21
41.7019397273921
31
0.0
0
LINE
8
1
62
1
10
34.99200132752751
20
41.7019397273921
30
0.0
11
35.27665835912678
21
41.912957467143926
31
0.0
0
LINE
8
1
62
1
10
35.27665835912678
20
41.912957467143926
30
0.0
11
35.60127916643864
21
42.13980621626495
31
0.0
0
LINE
8
1
62
1
10
35.60127916643864
20
42.13980621626495
30
0.0
11
35.96694719326613
21
42.38039400873029
31
0.0
0
LINE
8
1
62
1
10
35.96694719326613
20
42.38039400873029
30
0.0
11
36.37465953596316
21
42.63258136442131
31
0.0
0
LINE
8
1
62
1
10
36.37465953596316
20
42.63258136442131
30
0.0
11
36.825325153312455
21
42.89418449886108
31
0.0
0
LINE
8
1
62
1
10
36.825325153312455
20
42.89418449886108
30
0.0
11
37.31976318884275
21
43.16297859534216
31
0.0
0
LINE
8
1
62
1
10
37.31976318884275
20
43.16297859534216
30
0.0
11
37.858701407658415
21
43.43670113565529
31
0.0
0
LINE
8
1
62
1
10
37.858701407658415
20
43.43670113565529
30
0.0
11
38.442774749730674
21
43.713055285562184
31
0.0
0
LINE
8
1
62
1
10
38.442774749730674
20
43.713055285562184
30
0.0
11
39.07252400147257
21
43.98971333109173
31
0.0
0
LINE
8
1
62
1
10
39.07252400147257
20
43.98971333109173
30
0.0
11
39.74839458729191
21
44.26432016168124
31
0.0
0
LINE
8
1
62
1
10
39.74839458729191
20
44.26432016168124
30
0.0
11
40.4707354826855
21
44.534496796129154
31
0.0
0
LINE
8
1
62
1
10
40.4707354826855
20
44.534496796129154
30
0.0
11
42.42752797436111
21
42.67442683128552
31
0.0
0
LINE
8
1
62
1
10
42.42752797436111
20
42.67442683128552
30
0.0
11
42.19428407565597
21
41.939328833276804
31
0.0
0
LINE
8
1
62
1
10
42.19428407565597
20
41.939328833276804
30
0.0
11
41.954261984378576
21
41.25041711478087
31
0.0
0
LINE
8
1
62
1
10
41.954261984378576
20
41.25041711478087
30
0.0
11
41.709855303644076
21
40.607463641629
31
0.0
0
LINE
8
1
62
1
10
41.709855303644076
20
40.607463641629
30
0.0
11
41.46343868162364
21
40.01014284550495
31
0.0
0
LINE
8
1
62
1
10
41.46343868162364
20
40.01014284550495
30
0.0
11
41.21736423506655
21
39.458032530869104
31
0.0
0
LINE
8
1
62
1
10
41.21736423506655
20
39.458032530869104
30
0.0
11
40.973958009422624
21
38.950614905436254
31
0.0
0
LINE
8
1
62
1
10
40.973958009422624
20
38.950614905436254
30
0.0
11
40.73551647967287
21
38.4872777328501
31
0.0
0
LINE
8
1
62
1
10
40.73551647967287
20
38.4872777328501
30
0.0
11
40.50430309592732
21
38.067315606063815
31
0.0
0
LINE
8
1
62
1
10
40.50430309592732
20
38.067315606063815
30
0.0
11
40.282544877798045
21
37.68993133980542
31
0.0
0
LINE
8
1
62
1
10
40.282544877798045
20
37.68993133980542
30
0.0
11
40.07242906149787
21
37.35423748037678
31
0.0
0
LINE
8
1
62
1
10
40.07242906149787
20
37.35423748037678
30
0.0
11
39.8760998035564
21
37.059257930907634
31
0.0
0
LINE
8
1
62
1
10
39.8760998035564
20
37.059257930907634
30
0.0
11
39.69565494497936
21
36.80392969006025
31
0.0
0
LINE
8
1
62
1
10
39.69565494497936
20
36.80392969006025
30
0.0
11
39.533142839609624
21
36.58710470205694
31
0.0
0
LINE
8
1
62
1
10
39.533142839609624
20
36.58710470205694
30
0.0
11
39.39055925037606
21
36.407551815781616
31
0.0
0
LINE
8
1
62
1
10
39.39055925037606
20
36.407551815781616
30
0.0
11
39.26984431703971
21
36.263958850587336
31
0.0
0
LINE
8
1
62
1
10
39.26984431703971
20
36.263958850587336
30
0.0
11
39.17287959896774
21
36.15493476632595
31
0.0
0
LINE
8
1
62
1
10
39.17287959896774
20
36.15493476632595
30
0.0
11
39.10148519638139
21
36.079011935002036
31
0.0
0
LINE
8
1
62
1
10
39.10148519638139
20
36.079011935002036
30
0.0
11
39.05741695343762
21
36.03464851134228
31
0.0
0
LINE
8
1
62
1
10
39.05741695343762
20
36.03464851134228
30
0.0
11
39.0423637464132
21
36.02023089946381
31
0.0
0
LINE
8
1
62
1
10
39.0423637464132
20
36.02023089946381
30
0.0
11
38.331395114779866
21
35.36429586335675
31
0.0
0
LINE
8
1
62
1
10
38.331395114779866
20
35.36429586335675
30
0.0
11
40.76092424397671
21
32.534233172662816
31
0.0
0
LINE
8
1
62
1
10
40.76092424397671
20
32.534233172662816
30
0.0
11
41.51695564974926
21
33.13767635991819
31
0.0
0
LINE
8
1
62
1
10
41.51695564974926
20
33.13767635991819
30
0.0
11
41.53348647608761
21
33.15037275131769
31
0.0
0
LINE
8
1
62
1
10
41.53348647608761
20
33.15037275131769
30
0.0
11
41.58401147122152
21
33.187214958929125
31
0.0
0
LINE
8
1
62
1
10
41.58401147122152
20
33.187214958929125
30
0.0
11
41.66986988078844
21
33.246289238810824
31
0.0
0
LINE
8
1
62
1
10
41.66986988078844
20
33.246289238810824
30
0.0
11
41.7923198864237
21
33.32562651642821
31
0.0
0
LINE
8
1
62
1
10
41.7923198864237
20
33.32562651642821
30
0.0
11
41.95253657818132
21
33.4232054407199
31
0.0
0
LINE
8
1
62
1
10
41.95253657818132
20
33.4232054407199
30
0.0
11
42.15161003483244
21
33.53695550773308
31
0.0
0
LINE
8
1
62
1
10
42.15161003483244
20
33.53695550773308
30
0.0
11
42.39054351433026
21
33.66476025017013
31
0.0
0
LINE
8
1
62
1
10
42.39054351433026
20
33.66476025017013
30
0.0
11
42.67025175661077
21
33.80446048911574
31
0.0
0
LINE
8
1
62
1
10
42.67025175661077
20
33.80446048911574
30
0.0
11
42.9915594007748
21
33.95385764414431
31
0.0
0
LINE
8
1
62
1
10
42.9915594007748
20
33.95385764414431
30
0.0
11
43.35519951857235
21
34.110717097942164
31
0.0
0
LINE
8
1
62
1
10
43.35519951857235
20
34.110717097942164
30
0.0
11
43.761812265983274
21
34.2727716115177
31
0.0
0
LINE
8
1
62
1
10
43.761812265983274
20
34.2727716115177
30
0.0
11
44.211943654558894
21
34.43772478601554
31
0.0
0
LINE
8
1
62
1
10
44.211943654558894
20
34.43772478601554
30
0.0
11
44.70604444405884
21
34.603254567097544
31
0.0
0
LINE
8
1
62
1
10
44.70604444405884
20
34.603254567097544
30
0.0
11
45.24446915778504
21
34.76701678780488
31
0.0
0
LINE
8
1
62
1
10
45.24446915778504
20
34.76701678780488
30
0.0
11
45.82747522188021
21
34.92664874577047
31
0.0
0
LINE
8
1
62
1
10
45.82747522188021
20
34.92664874577047
30
0.0
11
46.45522222972402
21
35.079772810611274
31
0.0
0
LINE
8
1
62
1
10
46.45522222972402
20
35.079772810611274
30
0.0
11
47.127771332422284
21
35.224000057293274
31
0.0
0
LINE
8
1
62
1
10
47.127771332422284
20
35.224000057293274
30
0.0
11
47.84508475624809
21
35.35693392123127
31
0.0
0
LINE
8
1
62
1
10
47.84508475624809
20
35.35693392123127
30
0.0
11
48.607025447754154
21
35.47617387085757
31
0.0
0
LINE
8
1
62
1
10
48.607025447754154
20
35.47617387085757
30
0.0
11
50.1493329509841
21
33.260280214773864
31
0.0
0
LINE
8
1
62
1
10
50.1493329509841
20
33.260280214773864
30
0.0
11
49.77288942946865
21
32.5871813675986
31
0.0
0
LINE
8
1
62
1
10
49.77288942946865
20
32.5871813675986
30
0.0
11
49.39910369509544
21
31.960687804214857
31
0.0
0
LINE
8
1
62
1
10
49.39910369509544
20
31.960687804214857
30
0.0
11
49.03027445084252
21
31.38009432956196
31
0.0
0
LINE
8
1
62
1
10
49.03027445084252
20
31.38009432956196
30
0.0
11
48.66866219927326
21
30.844604026563637
31
0.0
0
LINE
8
1
62
1
10
48.66866219927326
20
30.844604026563637
30
0.0
11
48.316485921831564
21
30.353329864427067
31
0.0
0
LINE
8
1
62
1
10
48.316485921831564
20
30.353329864427067
30
0.0
11
47.975919818859545
21
29.90529642059883
31
0.0
0
LINE
8
1
62
1
10
47.975919818859545
20
29.90529642059883
30
0.0
11
47.649090114087954
21
29.499441714221724
31
0.0
0
LINE
8
1
62
1
10
47.649090114087954
20
29.499441714221724
30
0.0
11
47.33807192727553
21
29.134619148815148
31
0.0
0
LINE
8
1
62
1
10
47.33807192727553
20
29.134619148815148
30
0.0
11
47.04488621859653
21
28.809599561784367
31
0.0
0
LINE
8
1
62
1
10
47.04488621859653
20
28.809599561784367
30
0.0
11
46.77149680829397
21
28.52307337824786
31
0.0
0
LINE
8
1
62
1
10
46.77149680829397
20
28.52307337824786
30
0.0
11
46.51980747503186
21
28.273652866559384
31
0.0
0
LINE
8
1
62
1
10
46.51980747503186
20
28.273652866559384
30
0.0
11
46.29165913629115
21
28.059874492791206
31
0.0
0
LINE
8
1
62
1
10
46.29165913629115
20
28.059874492791206
30
0.0
11
46.088827114062205
21
27.880201371337673
31
0.0
0
LINE
8
1
62
1
10
46.088827114062205
20
27.880201371337673
30
0.0
11
45.91301848899182
21
27.733025808694336
31
0.0
0
LINE
8
1
62
1
10
45.91301848899182
20
27.733025808694336
30
0.0
11
45.76586954604382
21
27.61667193736652
31
0.0
0
LINE
8
1
62
1
10
45.76586954604382
20
27.61667193736652
30
0.0
11
45.648943314631374
21
27.529398436763557
31
0.0
0
LINE
8
1
62
1
10
45.648943314631374
20
27.529398436763557
30
0.0
11
45.563727206073764
21
27.469401337840363
31
0.0
0
LINE
8
1
62
1
10
45.563727206073764
20
27.469401337840363
30
0.0
11
45.51163075112317
21
27.434816908156655
31
0.0
0
LINE
8
1
62
1
10
45.51163075112317
20
27.434816908156655
30
0.0
11
45.49398344019654
21
27.423724613936937
31
0.0
0
LINE
8
1
62
1
10
45.49398344019654
20
27.423724613936937
30
0.0
11
44.66552962617772
21
26.92433353993079
31
0.0
0
LINE
8
1
62
1
10
44.66552962617772
20
26.92433353993079
30
0.0
11
46.475638719976295
21
23.663141780554874
31
0.0
0
LINE
8
1
62
1
10
46.475638719976295
20
23.663141780554874
30
0.0
11
47.337666339009814
21
24.102044447193784
31
0.0
0
LINE
8
1
62
1
10
47.337666339009814
20
24.102044447193784
30
0.0
11
47.356414543161065
21
24.111153311837704
31
0.0
0
LINE
8
1
62
1
10
47.356414543161065
20
24.111153311837704
30
0.0
11
47.41332157054535
21
24.137070750546997
31
0.0
0
LINE
8
1
62
1
10
47.41332157054535
20
24.137070750546997
30
0.0
11
47.50931401853995
21
24.17765260566606
31
0.0
0
LINE
8
1
62
1
10
47.50931401853995
20
24.17765260566606
30
0.0
11
47.645227941938465
21
24.230716839630524
31
0.0
0
LINE
8
1
62
1
10
47.645227941938465
20
24.230716839630524
30
0.0
11
47.82180748165525
21
24.294046934665133
31
0.0
0
LINE
8
1
62
1
10
47.82180748165525
20
24.294046934665133
30
0.0
11
48.039703613103384
21
24.365395338911224
31
0.0
0
LINE
8
1
62
1
10
48.039703613103384
20
24.365395338911224
30
0.0
11
48.29947301575203
21
24.44248695493984
31
0.0
0
LINE
8
1
62
1
10
48.29947301575203
20
24.44248695493984
30
0.0
11
48.601577065236675
21
24.52302266655952
31
0.0
0
LINE
8
1
62
1
10
48.601577065236675
20
24.52302266655952
30
0.0
11
48.946380949261346
21
24.604682899784553
31
0.0
0
LINE
8
1
62
1
10
48.946380949261346
20
24.604682899784553
30
0.0
11
49.334152908396064
21
24.685131213790548
31
0.0
0
LINE
8
1
62
1
10
49.334152908396064
20
24.685131213790548
30
0.0
11
49.76506360273644
21
24.76201791764989
31
0.0
0
LINE
8
1
62
1
10
49.76506360273644
20
24.76201791764989
30
0.0
11
50.239185605254164
21
24.832983708609458
31
0.0
0
LINE
8
1
62
1
10
50.239185605254164
20
24.832983708609458
30
0.0
11
50.75649302252827
21
24.895663327647267
31
0.0
0
LINE
8
1
62
1
10
50.75649302252827
20
24.895663327647267
30
0.0
11
51.3168612434082
21
24.947689228023854
31
0.0
0
LINE
8
1
62
1
10
51.3168612434082
20
24.947689228023854
30
0.0
11
51.920066816018526
21
24.98669525252684
31
0.0
0
LINE
8
1
62
1
10
51.920066816018526
20
24.98669525252684
30
0.0
11
52.56578745337561
21
25.01032031509565
31
0.0
0
LINE
8
1
62
1
10
52.56578745337561
20
25.01032031509565
30
0.0
11
53.25360216774461
21
25.016212082504964
31
0.0
0
LINE
8
1
62
1
10
53.25360216774461
20
25.016212082504964
30
0.0
11
53.98299153372471
21
25.002030651782746
31
0.0
0
LINE
8
1
62
1
10
53.98299153372471
20
25.002030651782746
30
0.0
11
54.753338079908744
21
24.965452219039655
31
0.0
0
LINE
8
1
62
1
10
54.753338079908744
20
24.965452219039655
30
0.0
11
55.81801834429736
21
22.484453818352375
31
0.0
0
LINE
8
1
62
1
10
55.81801834429736
20
22.484453818352375
30
0.0
11
55.31378684197269
21
21.900910867899697
31
0.0
0
LINE
8
1
62
1
10
55.31378684197269
20
21.900910867899697
30
0.0
11
54.82154029638686
21
21.362484179722927
31
0.0
0
LINE
8
1
62
1
10
54.82154029638686
20
21.362484179722927
30
0.0
11
54.34338840121083
21
20.868020268638126
31
0.0
0
LINE
8
1
62
1
10
54.34338840121083
20
20.868020268638126
30
0.0
11
53.881384968159615
21
20.416283494687722
31
0.0
0
LINE
8
1
62
1
10
53.881384968159615
20
20.416283494687722
30
0.0
11
53.43752499801075
21
20.00595830697056
31
0.0
0
LINE
8
1
62
1
10
53.43752499801075
20
20.00595830697056
30
0.0
11
53.01374183398112
21
19.635651586578966
31
0.0
0
LINE
8
1
62
1
10
53.01374183398112
20
19.635651586578966
30
0.0
11
52.61190440070192
21
19.30389508577589
31
0.0
0
LINE
8
1
62
1
10
52.61190440070192
20
19.30389508577589
30
0.0
11
52.23381453193378
21
19.0091479604416
31
0.0
0
LINE
8
1
62
1
10
52.23381453193378
20
19.0091479604416
30
0.0
11
51.88120439006625
21
18.74979939271966
31
0.0
0
LINE
8
1
62
1
10
51.88120439006625
20
18.74979939271966
30
0.0
11
51.555733980340975
21
18.524171300694654
31
0.0
0
LINE
8
1
62
1
10
51.555733980340975
20
18.524171300694654
30
0.0
11
51.25898876263422
21
18.33052113184104
31
0.0
0
LINE
8
1
62
1
10
51.25898876263422
20
18.33052113184104
30
0.0
11
50.99247736352418
21
18.167044736892034
31
0.0
0
LINE
8
1
62
1
10
50.99247736352418
20
18.167044736892034
30
0.0
11
50.75762939125783
21
18.031879320691278
31
0.0
0
LINE
8
1
62
1
10
50.75762939125783
20
18.031879320691278
30
0.0
11
50.555793356117626
21
17.92310646650694
31
0.0
0
LINE
8
1
62
1
10
50.555793356117626
20
17.92310646650694
30
0.0
11
50.38823469857153
21
17.838755230208744
31
0.0
0
LINE
8
1
62
1
10
50.38823469857153
20
17.838755230208744
30
0.0
11
50.2561339274709
21
17.7768053006331
31
0.0
0
LINE
8
1
62
1
10
50.2561339274709
20
17.7768053006331
30
0.0
11
50.160584870438846
21
17.735190222389903
31
0.0
0
LINE
8
1
62
1
10
50.160584870438846
20
17.735190222389903
30
0.0
11
50.102593038468186
21
17.71180067729699
31
0.0
0
LINE
8
1
62
1
10
50.102593038468186
20
17.71180067729699
30
0.0
11
50.083074106622135
21
17.70448782056467
31
0.0
0
LINE
8
1
62
1
10
50.083074106622135
20
17.70448782056467
30
0.0
11
49.17105210670296
21
17.382085837905198
31
0.0
0
LINE
8
1
62
1
10
49.17105210670296
20
17.382085837905198
30
0.0
11
50.28763508612437
21
13.823278583649953
31
0.0
0
LINE
8
1
62
1
10
50.28763508612437
20
13.823278583649953
30
0.0
11
51.22036740641167
21
14.079672002931332
31
0.0
0
LINE
8
1
62
1
10
51.22036740641167
20
14.079672002931332
30
0.0
11
51.24056543469504
21
14.084820422830905
31
0.0
0
LINE
8
1
62
1
10
51.24056543469504
20
14.084820422830905
30
0.0
11
51.3015247139423
21
14.098752029652129
31
0.0
0
LINE
8
1
62
1
10
51.3015247139423
20
14.098752029652129
30
0.0
11
51.40372125826506
21
14.119180034091825
31
0.0
0
LINE
8
1
62
1
10
51.40372125826506
20
14.119180034091825
30
0.0
11
51.54753476743368
21
14.143798768430077
31
0.0
0
LINE
8
1
62
1
10
51.54753476743368
20
14.143798768430077
30
0.0
11
51.73324796800639
21
14.170287292675917
31
0.0
0
LINE
8
1
62
1
10
51.73324796800639
20
14.170287292675917
30
0.0
11
51.96104608102836
21
14.196313022101997
31
0.0
0
LINE
8
1
62
1
10
51.96104608102836
20
14.196313022101997
30
0.0
11
52.231016416961786
21
14.21953537190408
31
0.0
0
LINE
8
1
62
1
10
52.231016416961786
20
14.21953537190408
30
0.0
11
52.54314809836895
21
14.237609414701579
31
0.0
0
LINE
8
1
62
1
10
52.54314809836895
20
14.237609414701579
30
0.0
11
52.89733191072956
21
14.248189546580173
31
0.0
0
LINE
8
1
62
1
10
52.89733191072956
20
14.248189546580173
30
0.0
11
53.29336028163319
21
14.248933157366634
31
0.0
0
LINE
8
1
62
1
10
53.29336028163319
20
14.248933157366634
30
0.0
11
53.73092738844687
21
14.237504300819976
31
0.0
0
LINE
8
1
62
1
10
53.73092738844687
20
14.237504300819976
30
0.0
11
54.20962939441665
21
14.211577360421247
31
0.0
0
LINE
8
1
62
1
10
54.20962939441665
20
14.211577360421247
30
0.0
11
54.728964813020674
21
14.168840706446918
31
0.0
0
LINE
8
1
62
1
10
54.728964813020674
20
14.168840706446918
30
0.0
11
55.288335000251045
21
14.107000340018562
31
0.0
0
LINE
8
1
62
1
10
55.288335000251045
20
14.107000340018562
30
0.0
11
55.8870447743602
21
14.023783519832774
31
0.0
0
LINE
8
1
62
1
10
55.8870447743602
20
14.023783519832774
30
0.0
11
56.52430316246822
21
13.9169423672922
31
0.0
0
LINE
8
1
62
1
10
56.52430316246822
20
13.9169423672922
30
0.0
11
57.19922427328689
21
13.784257445778834
31
0.0
0
LINE
8
1
62
1
10
57.19922427328689
20
13.784257445778834
30
0.0
11
57.910828295078446
21
13.623541309836426
31
0.0
0
LINE
8
1
62
1
10
57.910828295078446
20
13.623541309836426
30
0.0
11
58.65804261782781
21
13.432642020058221
31
0.0
0
LINE
8
1
62
1
10
58.65804261782781
20
13.432642020058221
30
0.0
11
59.201507508256405
21
10.788111240796445
31
0.0
0
LINE
8
1
62
1
10
59.201507508256405
20
10.788111240796445
30
0.0
11
58.59013132207236
21
10.318014504021262
31
0.0
0
LINE
8
1
62
1
10
58.59013132207236
20
10.318014504021262
30
0.0
11
57.99957659668671
21
9.889697942927878
31
0.0
0
LINE
8
1
62
1
10
57.99957659668671
20
9.889697942927878
30
0.0
11
57.431677645356544
21
9.501607006028026
31
0.0
0
LINE
8
1
62
1
10
57.431677645356544
20
9.501607006028026
30
0.0
11
56.8881975056556
21
9.152117917727885
31
0.0
0
LINE
8
1
62
1
10
56.8881975056556
20
9.152117917727885
30
0.0
11
56.370825522128776
21
8.839540465826436
31
0.0
0
LINE
8
1
62
1
10
56.370825522128776
20
8.839540465826436
30
0.0
11
55.881175029569334
21
8.562120869513508
31
0.0
0
LINE
8
1
62
1
10
55.881175029569334
20
8.562120869513508
30
0.0
11
55.42078113951484
21
8.318044724407066
31
0.0
0
LINE
8
1
62
1
10
55.42078113951484
20
8.318044724407066
30
0.0
11
54.991098632442046
21
8.105440021087569
31
0.0
0
LINE
8
1
62
1
10
54.991098632442046
20
8.105440021087569
30
0.0
11
54.593499958023976
21
7.922380233509162
31
0.0
0
LINE
8
1
62
1
10
54.593499958023976
20
7.922380233509162
30
0.0
11
54.22927334569129
21
7.766887473593347
31
0.0
0
LINE
8
1
62
1
10
54.22927334569129
20
7.766887473593347
30
0.0
11
53.89962102761887
21
7.636935708240389
31
0.0
0
LINE
8
1
62
1
10
53.89962102761887
20
7.636935708240389
30
0.0
11
53.60565757613284
21
7.530454034927428
31
0.0
0
LINE
8
1
62
1
10
53.60565757613284
20
7.530454034927428
30
0.0
11
53.34840835740714
21
7.44533001199997
31
0.0
0
LINE
8
1
62
1
10
53.34840835740714
20
7.44533001199997
30
0.0
11
53.12880810319049
21
7.379413039705205
31
0.0
0
LINE
8
1
62
1
10
53.12880810319049
20
7.379413039705205
30
0.0
11
52.94769960217354
21
7.330517787961528
31
0.0
0
LINE
8
1
62
1
10
52.94769960217354
20
7.330517787961528
30
0.0
11
52.805832512474744
21
7.296427666808829
31
0.0
0
LINE
8
1
62
1
10
52.805832512474744
20
7.296427666808829
30
0.0
11
52.703862296589676
21
7.274898335438473
31
0.0
0
LINE
8
1
62
1
10
52.703862296589676
20
7.274898335438473
30
0.0
11
52.64234928001359
21
7.2636612456606136
31
0.0
0
LINE
8
1
62
1
10
52.64234928001359
20
7.2636612456606136
30
0.0
11
52.62175783461128
21
7.2604272156295355
31
0.0
0
LINE
8
1
62
1
10
52.62175783461128
20
7.2604272156295355
30
0.0
11
51.663505936626464
21
7.1282134993674475
31
0.0
0
LINE
8
1
62
1
10
51.663505936626464
20
7.1282134993674475
30
0.0
11
52.04084976330029
21
3.4174887373640344
31
0.0
0
ENDSEC
0
EOF
