999
VISION3D DXF
0
SECTION
2
HEADER
9
$ACADVER
1
AC1006
9
$INSBASE
10
0.0
20
0.0
30
0.0
9
$EXTMIN
10
-69.29411764705883
20
-69.29411764705883
9
$EXTMAX
10
69.29411764705883
20
69.29411764705883
9
$LINMIN
10
0.0
20
0.0
9
$LINMAX
10
1000.0
20
1000.0
0
ENDSEC
0
SECTION
2
TABLES
0
TABLE
2
LTYPE
70
1
0
LTYPE
2
CONTINUOUS
70
64
3
Solid line
72
65
73
0
40
0.000000
0
ENDTAB
0
TABLE
2
LAYER
70
6
0
LAYER
2
1
70
64
62
7
6
CONTINUOUS
0
ENDTAB
0
TABLE
2
STYLE
70
0
0
ENDTAB
0
ENDSEC
0
SECTION
2
BLOCKS
0
ENDSEC
0
SECTION
2
ENTITIES
0
LINE
8
1
62
1
10
57.51598759429614
20
3.5188510797254717
30
0.0
11
58.15221107802259
21
3.557775486421733
31
0.0
0
LINE
8
1
62
1
10
58.15221107802259
20
3.557775486421733
30
0.0
11
58.173947798410346
21
3.5587082314713614
31
0.0
0
LINE
8
1
62
1
10
58.173947798410346
20
3.5587082314713614
30
0.0
11
58.239206087302534
21
3.559921658173048
31
0.0
0
LINE
8
1
62
1
10
58.239206087302534
20
3.559921658173048
30
0.0
11
58.347985027582624
21
3.5590372832841655
31
0.0
0
LINE
8
1
62
1
10
58.347985027582624
20
3.5590372832841655
30
0.0
11
58.500186212008046
21
3.553677771388157
31
0.0
0
LINE
8
1
62
1
10
58.500186212008046
20
3.553677771388157
30
0.0
11
58.695613829525506
21
3.5414704863693993
31
0.0
0
LINE
8
1
62
1
10
58.695613829525506
20
3.5414704863693993
30
0.0
11
58.9339748728569
21
3.520051038364937
31
0.0
0
LINE
8
1
62
1
10
58.9339748728569
20
3.520051038364937
30
0.0
11
59.21487946715498
21
3.48706682221841
31
0.0
0
LINE
8
1
62
1
10
59.21487946715498
20
3.48706682221841
30
0.0
11
59.53784131940125
21
3.4401805434696757
31
0.0
0
LINE
8
1
62
1
10
59.53784131940125
20
3.4401805434696757
30
0.0
11
59.90227828809236
21
3.377073727925604
31
0.0
0
LINE
8
1
62
1
10
59.90227828809236
20
3.377073727925604
30
0.0
11
60.30751307263524
21
3.295450210873589
31
0.0
0
LINE
8
1
62
1
10
60.30751307263524
20
3.295450210873589
30
0.0
11
60.75277402174604
21
3.193039602019115
31
0.0
0
LINE
8
1
62
1
10
60.75277402174604
20
3.193039602019115
30
0.0
11
61.23719606002301
21
3.067600722252653
31
0.0
0
LINE
8
1
62
1
10
61.23719606002301
20
3.067600722252653
30
0.0
11
61.7598217317399
21
2.916925008378804
31
0.0
0
LINE
8
1
62
1
10
61.7598217317399
20
2.916925008378804
30
0.0
11
62.31960236078313
21
2.7388398819721145
31
0.0
0
LINE
8
1
62
1
10
62.31960236078313
20
2.7388398819721145
30
0.0
11
62.915399325534324
21
2.531212078559549
31
0.0
0
LINE
8
1
62
1
10
62.915399325534324
20
2.531212078559549
30
0.0
11
63.54598544737883
21
2.291950933368579
31
0.0
0
LINE
8
1
62
1
10
63.54598544737883
20
2.291950933368579
30
0.0
11
64.21004649140119
21
2.019011619922942
31
0.0
0
LINE
8
1
62
1
10
64.21004649140119
20
2.019011619922942
30
0.0
11
64.90618277771074
21
1.7103983378147642
31
0.0
0
LINE
8
1
62
1
10
64.90618277771074
20
1.7103983378147642
30
0.0
11
65.63291090172342
21
1.364167446032078
31
0.0
0
LINE
8
1
62
1
10
65.63291090172342
20
1.364167446032078
30
0.0
11
65.63291090172342
21
-1.364167446032078
31
0.0
0
LINE
8
1
62
1
10
65.63291090172342
20
-1.364167446032078
30
0.0
11
64.90618277771074
21
-1.7103983378147642
31
0.0
0
LINE
8
1
62
1
10
64.90618277771074
20
-1.7103983378147642
30
0.0
11
64.21004649140119
21
-2.019011619922942
31
0.0
0
LINE
8
1
62
1
10
64.21004649140119
20
-2.019011619922942
30
0.0
11
63.54598544737883
21
-2.291950933368579
31
0.0
0
LINE
8
1
62
1
10
63.54598544737883
20
-2.291950933368579
30
0.0
11
62.915399325534324
21
-2.531212078559549
31
0.0
0
LINE
8
1
62
1
10
62.915399325534324
20
-2.531212078559549
30
0.0
11
62.31960236078313
21
-2.7388398819721145
31
0.0
0
LINE
8
1
62
1
10
62.31960236078313
20
-2.7388398819721145
30
0.0
11
61.7598217317399
21
-2.916925008378804
31
0.0
0
LINE
8
1
62
1
10
61.7598217317399
20
-2.916925008378804
30
0.0
11
61.23719606002301
21
-3.067600722252653
31
0.0
0
LINE
8
1
62
1
10
61.23719606002301
20
-3.067600722252653
30
0.0
11
60.75277402174604
21
-3.193039602019115
31
0.0
0
LINE
8
1
62
1
10
60.75277402174604
20
-3.193039602019115
30
0.0
11
60.30751307263524
21
-3.295450210873589
31
0.0
0
LINE
8
1
62
1
10
60.30751307263524
20
-3.295450210873589
30
0.0
11
59.90227828809236
21
-3.377073727925604
31
0.0
0
LINE
8
1
62
1
10
59.90227828809236
20
-3.377073727925604
30
0.0
11
59.53784131940125
21
-3.4401805434696757
31
0.0
0
LINE
8
1
62
1
10
59.53784131940125
20
-3.4401805434696757
30
0.0
11
59.21487946715498
21
-3.48706682221841
31
0.0
0
LINE
8
1
62
1
10
59.21487946715498
20
-3.48706682221841
30
0.0
11
58.9339748728569
21
-3.520051038364937
31
0.0
0
LINE
8
1
62
1
10
58.9339748728569
20
-3.520051038364937
30
0.0
11
58.695613829525506
21
-3.5414704863693993
31
0.0
0
LINE
8
1
62
1
10
58.695613829525506
20
-3.5414704863693993
30
0.0
11
58.500186212008046
21
-3.553677771388157
31
0.0
0
LINE
8
1
62
1
10
58.500186212008046
20
-3.553677771388157
30
0.0
11
58.347985027582624
21
-3.5590372832841655
31
0.0
0
LINE
8
1
62
1
10
58.347985027582624
20
-3.5590372832841655
30
0.0
11
58.239206087302534
21
-3.559921658173048
31
0.0
0
LINE
8
1
62
1
10
58.239206087302534
20
-3.559921658173048
30
0.0
11
58.173947798410346
21
-3.5587082314713614
31
0.0
0
LINE
8
1
62
1
10
58.173947798410346
20
-3.5587082314713614
30
0.0
11
58.15221107802259
21
-3.557775486421733
31
0.0
0
LINE
8
1
62
1
10
58.15221107802259
20
-3.557775486421733
30
0.0
11
57.51598759429614
21
-3.5188510797254717
31
0.0
0
LINE
8
1
62
1
10
57.51598759429614
20
-3.5188510797254717
30
0.0
11
57.18325579611399
21
-7.109599034031964
31
0.0
0
LINE
8
1
62
1
10
57.18325579611399
20
-7.109599034031964
30
0.0
11
57.815798706966
21
-7.188243147686697
31
0.0
0
LINE
8
1
62
1
10
57.815798706966
20
-7.188243147686697
30
0.0
11
57.837336709835625
21
-7.191320396284213
31
0.0
0
LINE
8
1
62
1
10
57.837336709835625
20
-7.191320396284213
30
0.0
11
57.90170681891939
21
-7.202118809595491
31
0.0
0
LINE
8
1
62
1
10
57.90170681891939
20
-7.202118809595491
30
0.0
11
58.00847108756744
21
-7.222976204146361
31
0.0
0
LINE
8
1
62
1
10
58.00847108756744
20
-7.222976204146361
30
0.0
11
58.157095949871035
21
-7.256211354416857
31
0.0
0
LINE
8
1
62
1
10
58.157095949871035
20
-7.256211354416857
30
0.0
11
58.346952958089965
21
-7.304120517697344
31
0.0
0
LINE
8
1
62
1
10
58.346952958089965
20
-7.304120517697344
30
0.0
11
58.5773196384546
21
-7.368973985674207
31
0.0
0
LINE
8
1
62
1
10
58.5773196384546
20
-7.368973985674207
30
0.0
11
58.84738046441474
21
-7.453012666615134
31
0.0
0
LINE
8
1
62
1
10
58.84738046441474
20
-7.453012666615134
30
0.0
11
59.15622794628463
21
-7.558444701992819
31
0.0
0
LINE
8
1
62
1
10
59.15622794628463
20
-7.558444701992819
30
0.0
11
59.50286383611117
21
-7.6874421213508795
31
0.0
0
LINE
8
1
62
1
10
59.50286383611117
20
-7.6874421213508795
30
0.0
11
59.88620044647222
21
-7.842137539176856
31
0.0
0
LINE
8
1
62
1
10
59.88620044647222
20
-7.842137539176856
30
0.0
11
60.30506208179155
21
-8.024620897504711
31
0.0
0
LINE
8
1
62
1
10
60.30506208179155
20
-8.024620897504711
30
0.0
11
60.758186580639325
21
-8.236936257922741
31
0.0
0
LINE
8
1
62
1
10
60.758186580639325
20
-8.236936257922741
30
0.0
11
61.24422696737026
21
-8.481078646612943
31
0.0
0
LINE
8
1
62
1
10
61.24422696737026
20
-8.481078646612943
30
0.0
11
61.76175321133637
21
-8.758990955994276
31
0.0
0
LINE
8
1
62
1
10
61.76175321133637
20
-8.758990955994276
30
0.0
11
62.309254091797726
21
-9.072560906484894
31
0.0
0
LINE
8
1
62
1
10
62.309254091797726
20
-9.072560906484894
30
0.0
11
62.8851391665438
21
-9.423618071837932
31
0.0
0
LINE
8
1
62
1
10
62.8851391665438
20
-9.423618071837932
30
0.0
11
63.48774084212695
21
-9.81393097144106
31
0.0
0
LINE
8
1
62
1
10
63.48774084212695
20
-9.81393097144106
30
0.0
11
64.11531654350394
21
-10.245204232902559
31
0.0
0
LINE
8
1
62
1
10
64.11531654350394
20
-10.245204232902559
30
0.0
11
64.76605098077388
21
-10.719075828175576
31
0.0
0
LINE
8
1
62
1
10
64.76605098077388
20
-10.719075828175576
30
0.0
11
64.26472075991497
21
-13.400955634003626
31
0.0
0
LINE
8
1
62
1
10
64.26472075991497
20
-13.400955634003626
30
0.0
11
63.48674680380849
21
-13.607755344534505
31
0.0
0
LINE
8
1
62
1
10
63.48674680380849
20
-13.607755344534505
30
0.0
11
62.745756018873166
21
-13.783199192108002
31
0.0
0
LINE
8
1
62
1
10
62.745756018873166
20
-13.783199192108002
30
0.0
11
62.042849408812366
21
-13.929470298431383
31
0.0
0
LINE
8
1
62
1
10
62.042849408812366
20
-13.929470298431383
30
0.0
11
61.37903609394414
21
-14.04878767212292
31
0.0
0
LINE
8
1
62
1
10
61.37903609394414
20
-14.04878767212292
30
0.0
11
60.75523219595803
21
-14.143402812634323
31
0.0
0
LINE
8
1
62
1
10
60.75523219595803
20
-14.143402812634323
30
0.0
11
60.17225983977686
21
-14.215596280676152
31
0.0
0
LINE
8
1
62
1
10
60.17225983977686
20
-14.215596280676152
30
0.0
11
59.63084627350395
21
-14.267674239013276
31
0.0
0
LINE
8
1
62
1
10
59.63084627350395
20
-14.267674239013276
30
0.0
11
59.13162310731109
21
-14.301964967525077
31
0.0
0
LINE
8
1
62
1
10
59.13162310731109
20
-14.301964967525077
30
0.0
11
58.67512567199915
21
-14.320815356449618
31
0.0
0
LINE
8
1
62
1
10
58.67512567199915
20
-14.320815356449618
30
0.0
11
58.261792497836495
21
-14.326587381751082
31
0.0
0
LINE
8
1
62
1
10
58.261792497836495
20
-14.326587381751082
30
0.0
11
57.89196491415563
21
-14.321654566566094
31
0.0
0
LINE
8
1
62
1
10
57.89196491415563
20
-14.321654566566094
30
0.0
11
57.56588677006116
21
-14.308398432696983
31
0.0
0
LINE
8
1
62
1
10
57.56588677006116
20
-14.308398432696983
30
0.0
11
57.283704276476044
21
-14.289204946128448
31
0.0
0
LINE
8
1
62
1
10
57.283704276476044
20
-14.289204946128448
30
0.0
11
57.04546596962598
21
-14.266460960548514
31
0.0
0
LINE
8
1
62
1
10
57.04546596962598
20
-14.266460960548514
30
0.0
11
56.85112279593496
21
-14.242550662855253
31
0.0
0
LINE
8
1
62
1
10
56.85112279593496
20
-14.242550662855253
30
0.0
11
56.700528318178115
21
-14.219852024627182
31
0.0
0
LINE
8
1
62
1
10
56.700528318178115
20
-14.219852024627182
30
0.0
11
56.593439042611266
21
-14.200733263527926
31
0.0
0
LINE
8
1
62
1
10
56.593439042611266
20
-14.200733263527926
30
0.0
11
56.52951486667018
21
-14.187549318604256
31
0.0
0
LINE
8
1
62
1
10
56.52951486667018
20
-14.187549318604256
30
0.0
11
56.50831964670678
21
-14.182638343421443
31
0.0
0
LINE
8
1
62
1
10
56.50831964670678
20
-14.182638343421443
30
0.0
11
55.89008141777824
21
-14.02747094035955
31
0.0
0
LINE
8
1
62
1
10
55.89008141777824
20
-14.02747094035955
30
0.0
11
54.90321680555108
21
-17.495940279709618
31
0.0
0
LINE
8
1
62
1
10
54.90321680555108
20
-17.495940279709618
30
0.0
11
55.51053865335119
21
-17.689474782748054
31
0.0
0
LINE
8
1
62
1
10
55.51053865335119
20
-17.689474782748054
30
0.0
11
55.53114448784695
21
-17.696457232982475
31
0.0
0
LINE
8
1
62
1
10
55.53114448784695
20
-17.696457232982475
30
0.0
11
55.59243437026088
21
-17.718899759292672
31
0.0
0
LINE
8
1
62
1
10
55.59243437026088
20
-17.718899759292672
30
0.0
11
55.6935482381577
21
-17.75901989994979
31
0.0
0
LINE
8
1
62
1
10
55.6935482381577
20
-17.75901989994979
30
0.0
11
55.8335355369096
21
-17.81899890541348
31
0.0
0
LINE
8
1
62
1
10
55.8335355369096
20
-17.81899890541348
30
0.0
11
56.011356583123494
21
-17.90097845786089
31
0.0
0
LINE
8
1
62
1
10
56.011356583123494
20
-17.90097845786089
30
0.0
11
56.225884039515925
21
-18.00705743874136
31
0.0
0
LINE
8
1
62
1
10
56.225884039515925
20
-18.00705743874136
30
0.0
11
56.47590449961233
21
-18.13928874799053
31
0.0
0
LINE
8
1
62
1
10
56.47590449961233
20
-18.13928874799053
30
0.0
11
56.76012018053246
21
-18.29967617848417
31
0.0
0
LINE
8
1
62
1
10
56.76012018053246
20
-18.29967617848417
30
0.0
11
57.077150722010316
21
-18.49017134925533
31
0.0
0
LINE
8
1
62
1
10
57.077150722010316
20
-18.49017134925533
30
0.0
11
57.42553508968528
21
-18.71267070093791
31
0.0
0
LINE
8
1
62
1
10
57.42553508968528
20
-18.71267070093791
30
0.0
11
57.8037335805915
21
-18.969012556835956
31
0.0
0
LINE
8
1
62
1
10
57.8037335805915
20
-18.969012556835956
30
0.0
11
58.21012992866475
21
-19.260974252950728
31
0.0
0
LINE
8
1
62
1
10
58.21012992866475
20
-19.260974252950728
30
0.0
11
58.64303350798082
21
-19.590269340226957
31
0.0
0
LINE
8
1
62
1
10
58.64303350798082
20
-19.590269340226957
30
0.0
11
59.10068163133583
21
-19.95854486220603
31
0.0
0
LINE
8
1
62
1
10
59.10068163133583
20
-19.95854486220603
30
0.0
11
59.581241941678186
21
-20.36737871119644
31
0.0
0
LINE
8
1
62
1
10
59.581241941678186
20
-20.36737871119644
30
0.0
11
60.08281489380336
21
-20.81827706599211
31
0.0
0
LINE
8
1
62
1
10
60.08281489380336
20
-20.81827706599211
30
0.0
11
60.603436323626376
21
-21.31267191408547
31
0.0
0
LINE
8
1
62
1
10
60.603436323626376
20
-21.31267191408547
30
0.0
11
61.14108010225448
21
-21.851918661236482
31
0.0
0
LINE
8
1
62
1
10
61.14108010225448
20
-21.851918661236482
30
0.0
11
61.69366087199039
21
-22.437293831169146
31
0.0
0
LINE
8
1
62
1
10
61.69366087199039
20
-22.437293831169146
30
0.0
11
60.708072629664585
21
-24.9813903505339
31
0.0
0
LINE
8
1
62
1
10
60.708072629664585
20
-24.9813903505339
30
0.0
11
59.9053458114626
21
-25.041716563699755
31
0.0
0
LINE
8
1
62
1
10
59.9053458114626
20
-25.041716563699755
30
0.0
11
59.14473408036201
21
-25.078016446931162
31
0.0
0
LINE
8
1
62
1
10
59.14473408036201
20
-25.078016446931162
30
0.0
11
58.42691854582483
21
-25.092638259039294
31
0.0
0
LINE
8
1
62
1
10
58.42691854582483
20
-25.092638259039294
30
0.0
11
57.752483404214395
21
-25.08794865117575
31
0.0
0
LINE
8
1
62
1
10
57.752483404214395
20
-25.08794865117575
30
0.0
11
57.12191546656897
21
-25.066329123654228
31
0.0
0
LINE
8
1
62
1
10
57.12191546656897
20
-25.066329123654228
30
0.0
11
56.535603807641344
21
-25.030172471363556
31
0.0
0
LINE
8
1
62
1
10
56.535603807641344
20
-25.030172471363556
30
0.0
11
55.99383953645783
21
-24.98187922175341
31
0.0
0
LINE
8
1
62
1
10
55.99383953645783
20
-24.98187922175341
30
0.0
11
55.49681568852161
21
-24.923854069378276
31
0.0
0
LINE
8
1
62
1
10
55.49681568852161
20
-24.923854069378276
30
0.0
11
55.04462723965973
21
-24.85850231098661
31
0.0
0
LINE
8
1
62
1
10
55.04462723965973
20
-24.85850231098661
30
0.0
11
54.63727124138491
21
-24.788226285138663
31
0.0
0
LINE
8
1
62
1
10
54.63727124138491
20
-24.788226285138663
30
0.0
11
54.274647077517244
21
-24.71542182032948
31
0.0
0
LINE
8
1
62
1
10
54.274647077517244
20
-24.71542182032948
30
0.0
11
53.95655684168409
21
-24.642474695582454
31
0.0
0
LINE
8
1
62
1
10
53.95655684168409
20
-24.642474695582454
30
0.0
11
53.68270583519039
21
-24.5717571174639
31
0.0
0
LINE
8
1
62
1
10
53.68270583519039
20
-24.5717571174639
30
0.0
11
53.452703184626074
21
-24.505624217450087
31
0.0
0
LINE
8
1
62
1
10
53.452703184626074
20
-24.505624217450087
30
0.0
11
53.2660625784526
21
-24.44641057355551
31
0.0
0
LINE
8
1
62
1
10
53.2660625784526
20
-24.44641057355551
30
0.0
11
53.12220312168617
21
-24.396426760104205
31
0.0
0
LINE
8
1
62
1
10
53.12220312168617
20
-24.396426760104205
30
0.0
11
53.020450307672554
21
-24.357955929495617
31
0.0
0
LINE
8
1
62
1
10
53.020450307672554
20
-24.357955929495617
30
0.0
11
52.960037105825656
21
-24.33325042978194
31
0.0
0
LINE
8
1
62
1
10
52.960037105825656
20
-24.33325042978194
30
0.0
11
52.9401051640816
21
-24.32452846183573
31
0.0
0
LINE
8
1
62
1
10
52.9401051640816
20
-24.32452846183573
30
0.0
11
52.3609055513421
21
-24.05840210221669
31
0.0
0
LINE
8
1
62
1
10
52.3609055513421
20
-24.05840210221669
30
0.0
11
50.75351461582568
21
-27.286478263229228
31
0.0
0
LINE
8
1
62
1
10
50.75351461582568
20
-27.286478263229228
30
0.0
11
51.314933783449334
21
-27.588312570269437
31
0.0
0
LINE
8
1
62
1
10
51.314933783449334
20
-27.588312570269437
30
0.0
11
51.333905742591455
21
-27.598962443172564
31
0.0
0
LINE
8
1
62
1
10
51.333905742591455
20
-27.598962443172564
30
0.0
11
51.39002824489905
21
-27.632284829165027
31
0.0
0
LINE
8
1
62
1
10
51.39002824489905
20
-27.632284829165027
30
0.0
11
51.48204840054614
21
-27.69030147265712
31
0.0
0
LINE
8
1
62
1
10
51.48204840054614
20
-27.69030147265712
30
0.0
11
51.608631036183596
21
-27.774981820219825
31
0.0
0
LINE
8
1
62
1
10
51.608631036183596
20
-27.774981820219825
30
0.0
11
51.76836063793647
21
-27.88824004649919
31
0.0
0
LINE
8
1
62
1
10
51.76836063793647
20
-27.88824004649919
30
0.0
11
51.95974339512658
21
-28.031932147817102
31
0.0
0
LINE
8
1
62
1
10
51.95974339512658
20
-28.031932147817102
30
0.0
11
52.18120934245715
21
-28.207853106732014
31
0.0
0
LINE
8
1
62
1
10
52.18120934245715
20
-28.207853106732014
30
0.0
11
52.43111459829294
21
-28.417734130759666
31
0.0
0
LINE
8
1
62
1
10
52.43111459829294
20
-28.417734130759666
30
0.0
11
52.70774369656831
21
-28.66323996837709
31
0.0
0
LINE
8
1
62
1
10
52.70774369656831
20
-28.66323996837709
30
0.0
11
53.00931200975702
21
-28.94596630535328
31
0.0
0
LINE
8
1
62
1
10
53.00931200975702
20
-28.94596630535328
30
0.0
11
53.3339682602414
21
-29.267437244367077
31
0.0
0
LINE
8
1
62
1
10
53.3339682602414
20
-29.267437244367077
30
0.0
11
53.67979711732518
21
-29.629102870786856
31
0.0
0
LINE
8
1
62
1
10
53.67979711732518
20
-29.629102870786856
30
0.0
11
54.044821877043375
21
-30.032336907397845
31
0.0
0
LINE
8
1
62
1
10
54.044821877043375
20
-30.032336907397845
30
0.0
11
54.42700722183488
21
-30.478434460771467
31
0.0
0
LINE
8
1
62
1
10
54.42700722183488
20
-30.478434460771467
30
0.0
11
54.824262057058085
21
-30.968609861876462
31
0.0
0
LINE
8
1
62
1
10
54.824262057058085
20
-30.968609861876462
30
0.0
11
55.234442421248175
21
-31.503994603435167
31
0.0
0
LINE
8
1
62
1
10
55.234442421248175
20
-31.503994603435167
30
0.0
11
55.65535446693502
21
-32.0856353764282
31
0.0
0
LINE
8
1
62
1
10
55.65535446693502
20
-32.0856353764282
30
0.0
11
56.0847575087657
21
-32.714492208049684
31
0.0
0
LINE
8
1
62
1
10
56.0847575087657
20
-32.714492208049684
30
0.0
11
56.5203671356018
21
-33.39143670331007
31
0.0
0
LINE
8
1
62
1
10
56.5203671356018
20
-33.39143670331007
30
0.0
11
55.08408389731871
21
-35.711113780552026
31
0.0
0
LINE
8
1
62
1
10
55.08408389731871
20
-35.711113780552026
30
0.0
11
54.28394011605039
21
-35.62291215951681
31
0.0
0
LINE
8
1
62
1
10
54.28394011605039
20
-35.62291215951681
30
0.0
11
53.529609159033924
21
-35.51883192941959
31
0.0
0
LINE
8
1
62
1
10
53.529609159033924
20
-35.51883192941959
30
0.0
11
52.82132904712418
21
-35.401306519038066
31
0.0
0
LINE
8
1
62
1
10
52.82132904712418
20
-35.401306519038066
30
0.0
11
52.1592391586233
21
-35.272769628590666
31
0.0
0
LINE
8
1
62
1
10
52.1592391586233
20
-35.272769628590666
30
0.0
11
51.543380416152196
21
-35.1356516601162
31
0.0
0
LINE
8
1
62
1
10
51.543380416152196
20
-35.1356516601162
30
0.0
11
50.97369559481957
21
-34.99237615892166
31
0.0
0
LINE
8
1
62
1
10
50.97369559481957
20
-34.99237615892166
30
0.0
11
50.45002975120597
21
-34.845356270058346
31
0.0
0
LINE
8
1
62
1
10
50.45002975120597
20
-34.845356270058346
30
0.0
11
49.972130772553456
21
-34.696991213766914
31
0.0
0
LINE
8
1
62
1
10
49.972130772553456
20
-34.696991213766914
30
0.0
11
49.53965004542737
21
-34.54966278381027
31
0.0
0
LINE
8
1
62
1
10
49.53965004542737
20
-34.54966278381027
30
0.0
11
49.15214324299197
21
-34.405731872586365
31
0.0
0
LINE
8
1
62
1
10
49.15214324299197
20
-34.405731872586365
30
0.0
11
48.80907122991827
21
-34.26753502688273
31
0.0
0
LINE
8
1
62
1
10
48.80907122991827
20
-34.26753502688273
30
0.0
11
48.50980108382054
21
-34.13738103810062
31
0.0
0
LINE
8
1
62
1
10
48.50980108382054
20
-34.13738103810062
30
0.0
11
48.253607231996305
21
-34.017547570738486
31
0.0
0
LINE
8
1
62
1
10
48.253607231996305
20
-34.017547570738486
30
0.0
11
48.03967270212494
21
-33.910277832883104
31
0.0
0
LINE
8
1
62
1
10
48.03967270212494
20
-33.910277832883104
30
0.0
11
47.867090485461496
21
-33.8177772924111
31
0.0
0
LINE
8
1
62
1
10
47.867090485461496
20
-33.8177772924111
30
0.0
11
47.73486501094528
21
-33.742210442554665
31
0.0
0
LINE
8
1
62
1
10
47.73486501094528
20
-33.742210442554665
30
0.0
11
47.641913728527086
21
-33.68569762043244
31
0.0
0
LINE
8
1
62
1
10
47.641913728527086
20
-33.68569762043244
30
0.0
11
47.587068799905616
21
-33.65031188209053
31
0.0
0
LINE
8
1
62
1
10
47.587068799905616
20
-33.65031188209053
30
0.0
11
47.56907889475127
21
-33.63807593753848
31
0.0
0
LINE
8
1
62
1
10
47.56907889475127
20
-33.63807593753848
30
0.0
11
47.04864184633929
21
-33.27005323535573
31
0.0
0
LINE
8
1
62
1
10
47.04864184633929
20
-33.27005323535573
30
0.0
11
44.87546235798968
21
-36.14780795601807
31
0.0
0
LINE
8
1
62
1
10
44.87546235798968
20
-36.14780795601807
30
0.0
11
45.37186038903152
21
-36.54766346174415
31
0.0
0
LINE
8
1
62
1
10
45.37186038903152
20
-36.54766346174415
30
0.0
11
45.38855240550577
21
-36.56161808866738
31
0.0
0
LINE
8
1
62
1
10
45.38855240550577
20
-36.56161808866738
30
0.0
11
45.437596343202465
21
-36.60468558045294
31
0.0
0
LINE
8
1
62
1
10
45.437596343202465
20
-36.60468558045294
30
0.0
11
45.51738915056528
21
-36.678623039569175
31
0.0
0
LINE
8
1
62
1
10
45.51738915056528
20
-36.678623039569175
30
0.0
11
45.6262565032508
21
-36.785121041557524
31
0.0
0
LINE
8
1
62
1
10
45.6262565032508
20
-36.785121041557524
30
0.0
11
45.76245526052951
21
-36.925801068611186
31
0.0
0
LINE
8
1
62
1
10
45.76245526052951
20
-36.925801068611186
30
0.0
11
45.92417600825951
21
-37.10221302819583
31
0.0
0
LINE
8
1
62
1
10
45.92417600825951
20
-37.10221302819583
30
0.0
11
46.10954568560702
21
-37.31583285951457
31
0.0
0
LINE
8
1
62
1
10
46.10954568560702
20
-37.31583285951457
30
0.0
11
46.3166302925993
21
-37.568060230527514
31
0.0
0
LINE
8
1
62
1
10
46.3166302925993
20
-37.568060230527514
30
0.0
11
46.54343767551045
21
-37.86021632814294
31
0.0
0
LINE
8
1
62
1
10
46.54343767551045
20
-37.86021632814294
30
0.0
11
46.78792038699857
21
-38.19354174409988
31
0.0
0
LINE
8
1
62
1
10
46.78792038699857
20
-38.19354174409988
30
0.0
11
47.04797861783314
21
-38.5691944589632
31
0.0
0
LINE
8
1
62
1
10
47.04797861783314
20
-38.5691944589632
30
0.0
11
47.32146319697546
21
-38.98824792655038
31
0.0
0
LINE
8
1
62
1
10
47.32146319697546
20
-38.98824792655038
30
0.0
11
47.606178656702525
21
-39.451689261005264
31
0.0
0
LINE
8
1
62
1
10
47.606178656702525
20
-39.451689261005264
30
0.0
11
47.89988635939443
21
-39.960417528628334
31
0.0
0
LINE
8
1
62
1
10
47.89988635939443
20
-39.960417528628334
30
0.0
11
48.20030768253962
21
-40.51524214646387
31
0.0
0
LINE
8
1
62
1
10
48.20030768253962
20
-40.51524214646387
30
0.0
11
48.505127258449264
21
-41.11688138953505
31
0.0
0
LINE
8
1
62
1
10
48.505127258449264
20
-41.11688138953505
30
0.0
11
48.81199626511243
21
-41.7659610085047
31
0.0
0
LINE
8
1
62
1
10
48.81199626511243
20
-41.7659610085047
30
0.0
11
49.11853576456833
21
-42.46301295942642
31
0.0
0
LINE
8
1
62
1
10
49.11853576456833
20
-42.46301295942642
30
0.0
11
49.422340085118876
21
-43.208474247133864
31
0.0
0
LINE
8
1
62
1
10
49.422340085118876
20
-43.208474247133864
30
0.0
11
47.58427275392636
21
-45.224738061533536
31
0.0
0
LINE
8
1
62
1
10
47.58427275392636
20
-45.224738061533536
30
0.0
11
46.813959946396096
21
-44.99101220671543
31
0.0
0
LINE
8
1
62
1
10
46.813959946396096
20
-44.99101220671543
30
0.0
11
46.09159759948471
21
-44.75009619069506
31
0.0
0
LINE
8
1
62
1
10
46.09159759948471
20
-44.75009619069506
30
0.0
11
45.416972539925126
21
-44.50442574471823
31
0.0
0
LINE
8
1
62
1
10
45.416972539925126
20
-44.50442574471823
30
0.0
11
44.78977458159739
21
-44.25641874132816
31
0.0
0
LINE
8
1
62
1
10
44.78977458159739
20
-44.25641874132816
30
0.0
11
44.209597365134314
21
-44.00847171986227
31
0.0
0
LINE
8
1
62
1
10
44.209597365134314
20
-44.00847171986227
30
0.0
11
43.67593931472554
21
-43.76295644511702
31
0.0
0
LINE
8
1
62
1
10
43.67593931472554
20
-43.76295644511702
30
0.0
11
43.18820471091817
21
-43.52221650298486
31
0.0
0
LINE
8
1
62
1
10
43.18820471091817
20
-43.52221650298486
30
0.0
11
42.74570487809071
21
-43.288563936824865
31
0.0
0
LINE
8
1
62
1
10
42.74570487809071
20
-43.288563936824865
30
0.0
11
42.34765948515925
21
-43.06427592828444
31
0.0
0
LINE
8
1
62
1
10
42.34765948515925
20
-43.06427592828444
30
0.0
11
41.993197957957015
21
-42.8515915262402
31
0.0
0
LINE
8
1
62
1
10
41.993197957957015
20
-42.8515915262402
30
0.0
11
41.68136100161298
21
-42.65270842747371
31
0.0
0
LINE
8
1
62
1
10
41.68136100161298
20
-42.65270842747371
30
0.0
11
41.41110223114106
21
-42.46977981264199
31
0.0
0
LINE
8
1
62
1
10
41.41110223114106
20
-42.46977981264199
30
0.0
11
41.181289908339515
21
-42.30491124104289
31
0.0
0
LINE
8
1
62
1
10
41.181289908339515
20
-42.30491124104289
30
0.0
11
40.99070878298967
21
-42.16015760761272
31
0.0
0
LINE
8
1
62
1
10
40.99070878298967
20
-42.16015760761272
30
0.0
11
40.83806203623519
21
-42.0375201655269
31
0.0
0
LINE
8
1
62
1
10
40.83806203623519
20
-42.0375201655269
30
0.0
11
40.72197332391684
21
-41.938943617704744
31
0.0
0
LINE
8
1
62
1
10
40.72197332391684
20
-41.938943617704744
30
0.0
11
40.64098891753406
21
-41.866313280446604
31
0.0
0
LINE
8
1
62
1
10
40.64098891753406
20
-41.866313280446604
30
0.0
11
40.593579940402975
21
-41.82145232235517
31
0.0
0
LINE
8
1
62
1
10
40.593579940402975
20
-41.82145232235517
30
0.0
11
40.57814469648186
21
-41.80611908161361
31
0.0
0
LINE
8
1
62
1
10
40.57814469648186
20
-41.80611908161361
30
0.0
11
40.13419307188562
21
-41.348732608595405
31
0.0
0
LINE
8
1
62
1
10
40.13419307188562
20
-41.348732608595405
30
0.0
11
37.46923005173707
21
-43.778167403381744
31
0.0
0
LINE
8
1
62
1
10
37.46923005173707
20
-43.778167403381744
30
0.0
11
37.883702706613775
21
-44.26242750812002
31
0.0
0
LINE
8
1
62
1
10
37.883702706613775
20
-44.26242750812002
30
0.0
11
37.897546353818996
21
-44.279211680980204
31
0.0
0
LINE
8
1
62
1
10
37.897546353818996
20
-44.279211680980204
30
0.0
11
37.93784159442826
21
-44.33055766677986
31
0.0
0
LINE
8
1
62
1
10
37.93784159442826
20
-44.33055766677986
30
0.0
11
38.00268980515297
21
-44.41789809002824
31
0.0
0
LINE
8
1
62
1
10
38.00268980515297
20
-44.41789809002824
30
0.0
11
38.09013452776285
21
-44.54258708471481
31
0.0
0
LINE
8
1
62
1
10
38.09013452776285
20
-44.54258708471481
30
0.0
11
38.19816435524066
21
-44.705898222948534
31
0.0
0
LINE
8
1
62
1
10
38.19816435524066
20
-44.705898222948534
30
0.0
11
38.32471588740926
21
-44.90902254309909
31
0.0
0
LINE
8
1
62
1
10
38.32471588740926
20
-44.90902254309909
30
0.0
11
38.467676752738086
21
-45.153066679674836
31
0.0
0
LINE
8
1
62
1
10
38.467676752738086
20
-45.153066679674836
30
0.0
11
38.62488869296634
21
-45.43905109706662
31
0.0
0
LINE
8
1
62
1
10
38.62488869296634
20
-45.43905109706662
30
0.0
11
38.79415070711369
21
-45.76790842917837
31
0.0
0
LINE
8
1
62
1
10
38.79415070711369
20
-45.76790842917837
30
0.0
11
38.973222251386204
21
-46.14048192685542
31
0.0
0
LINE
8
1
62
1
10
38.973222251386204
20
-46.14048192685542
30
0.0
11
39.15982649142534
21
-46.55752401490938
31
0.0
0
LINE
8
1
62
1
10
39.15982649142534
20
-46.55752401490938
30
0.0
11
39.351653603292114
21
-47.019694960424495
31
0.0
0
LINE
8
1
62
1
10
39.351653603292114
20
-47.019694960424495
30
0.0
11
39.546364119525606
21
-47.52756165391503
31
0.0
0
LINE
8
1
62
1
10
39.546364119525606
20
-47.52756165391503
30
0.0
11
39.74159231656631
21
-48.08159650478595
31
0.0
0
LINE
8
1
62
1
10
39.74159231656631
20
-48.08159650478595
30
0.0
11
39.93494963978943
21
-48.68217645243043
31
0.0
0
LINE
8
1
62
1
10
39.93494963978943
20
-48.68217645243043
30
0.0
11
40.124028162351806
21
-49.329582094178036
31
0.0
0
LINE
8
1
62
1
10
40.124028162351806
20
-49.329582094178036
30
0.0
11
40.30640407401818
21
-50.02399693118548
31
0.0
0
LINE
8
1
62
1
10
40.30640407401818
20
-50.02399693118548
30
0.0
11
40.47964119609893
21
-50.76550673324047
31
0.0
0
LINE
8
1
62
1
10
40.47964119609893
20
-50.76550673324047
30
0.0
11
40.64129451860071
21
-51.55409902332437
31
0.0
0
LINE
8
1
62
1
10
40.64129451860071
20
-51.55409902332437
30
0.0
11
38.464036272943744
21
-53.19828812892429
31
0.0
0
LINE
8
1
62
1
10
38.464036272943744
20
-53.19828812892429
30
0.0
11
37.749786517923596
21
-52.82699729398585
31
0.0
0
LINE
8
1
62
1
10
37.749786517923596
20
-52.82699729398585
30
0.0
11
37.0839919644632
21
-52.45744959802099
31
0.0
0
LINE
8
1
62
1
10
37.0839919644632
20
-52.45744959802099
30
0.0
11
36.46599550453352
21
-52.09200012883738
31
0.0
0
LINE
8
1
62
1
10
36.46599550453352
20
-52.09200012883738
30
0.0
11
35.89504795060875
21
-51.73296859355346
31
0.0
0
LINE
8
1
62
1
10
35.89504795060875
20
-51.73296859355346
30
0.0
11
35.37030949941446
21
-51.382636057532494
31
0.0
0
LINE
8
1
62
1
10
35.37030949941446
20
-51.382636057532494
30
0.0
11
34.89085130478393
21
-51.04324173745486
31
0.0
0
LINE
8
1
62
1
10
34.89085130478393
20
-51.04324173745486
30
0.0
11
34.45565715774227
21
-50.71697985204744
31
0.0
0
LINE
8
1
62
1
10
34.45565715774227
20
-50.71697985204744
30
0.0
11
34.06362527182676
21
-50.40599653392409
31
0.0
0
LINE
8
1
62
1
10
34.06362527182676
20
-50.40599653392409
30
0.0
11
33.71357017154337
21
-50.11238680592692
31
0.0
0
LINE
8
1
62
1
10
33.71357017154337
20
-50.11238680592692
30
0.0
11
33.40422468175343
21
-49.83819162528714
31
0.0
0
LINE
8
1
62
1
10
33.40422468175343
20
-49.83819162528714
30
0.0
11
33.134242015680144
21
-49.585394998852294
31
0.0
0
LINE
8
1
62
1
10
33.134242015680144
20
-49.585394998852294
30
0.0
11
32.90219795912278
21
-49.35592117255036
31
0.0
0
LINE
8
1
62
1
10
32.90219795912278
20
-49.35592117255036
30
0.0
11
32.70659314836743
21
-49.151631898182046
31
0.0
0
LINE
8
1
62
1
10
32.70659314836743
20
-49.151631898182046
30
0.0
11
32.54585543918604
21
-48.97432378055071
31
0.0
0
LINE
8
1
62
1
10
32.54585543918604
20
-48.97432378055071
30
0.0
11
32.41834236422166
21
-48.8257257078539
31
0.0
0
LINE
8
1
62
1
10
32.41834236422166
20
-48.8257257078539
30
0.0
11
32.322343675966124
21
-48.70749636817258
31
0.0
0
LINE
8
1
62
1
10
32.322343675966124
20
-48.70749636817258
30
0.0
11
32.256083972448
21
-48.621221854803366
31
0.0
0
LINE
8
1
62
1
10
32.256083972448
20
-48.621221854803366
30
0.0
11
32.21772540266272
21
-48.56841336308542
31
0.0
0
LINE
8
1
62
1
10
32.21772540266272
20
-48.56841336308542
30
0.0
11
32.205370448694026
21
-48.5505049812776
31
0.0
0
LINE
8
1
62
1
10
32.205370448694026
20
-48.5505049812776
30
0.0
11
31.853022488027875
21
-48.019330485187965
31
0.0
0
LINE
8
1
62
1
10
31.853022488027875
20
-48.019330485187965
30
0.0
11
28.78702805546071
21
-49.917713865947725
31
0.0
0
LINE
8
1
62
1
10
28.78702805546071
20
-49.917713865947725
30
0.0
11
29.105460965015627
21
-50.46988767263731
31
0.0
0
LINE
8
1
62
1
10
29.105460965015627
20
-50.46988767263731
30
0.0
11
29.11598481414986
21
-50.4889298265581
31
0.0
0
LINE
8
1
62
1
10
29.11598481414986
20
-50.4889298265581
30
0.0
11
29.146159151581553
21
-50.546805780408164
31
0.0
0
LINE
8
1
62
1
10
29.146159151581553
20
-50.546805780408164
30
0.0
11
29.19385443762879
21
-50.64457489442827
31
0.0
0
LINE
8
1
62
1
10
29.19385443762879
20
-50.64457489442827
30
0.0
11
29.256898705012933
21
-50.78320874764696
31
0.0
0
LINE
8
1
62
1
10
29.256898705012933
20
-50.78320874764696
30
0.0
11
29.333080776482593
21
-50.96358963211833
31
0.0
0
LINE
8
1
62
1
10
29.333080776482593
20
-50.96358963211833
30
0.0
11
29.420153532443628
21
-51.186509157732836
31
0.0
0
LINE
8
1
62
1
10
29.420153532443628
20
-51.186509157732836
30
0.0
11
29.51583722494763
21
-51.45266696919319
31
0.0
0
LINE
8
1
62
1
10
29.51583722494763
20
-51.45266696919319
30
0.0
11
29.617822834342327
21
-51.76266957663003
31
0.0
0
LINE
8
1
62
1
10
29.617822834342327
20
-51.76266957663003
30
0.0
11
29.723775464841516
21
-52.117029301213925
31
0.0
0
LINE
8
1
62
1
10
29.723775464841516
20
-52.117029301213925
30
0.0
11
29.831337775230864
21
-52.51616333700036
31
0.0
0
LINE
8
1
62
1
10
29.831337775230864
20
-52.51616333700036
30
0.0
11
29.938133440887167
21
-52.96039293012313
31
0.0
0
LINE
8
1
62
1
10
29.938133440887167
20
-52.96039293012313
30
0.0
11
30.041770643255024
21
-53.44994267632963
31
0.0
0
LINE
8
1
62
1
10
30.041770643255024
20
-53.44994267632963
30
0.0
11
30.13984558289413
21
-53.98493993772795
31
0.0
0
LINE
8
1
62
1
10
30.13984558289413
20
-53.98493993772795
30
0.0
11
30.229946012183824
21
-54.56541437949188
31
0.0
0
LINE
8
1
62
1
10
30.229946012183824
20
-54.56541437949188
30
0.0
11
30.309654783749057
21
-55.191297627144515
31
0.0
0
LINE
8
1
62
1
10
30.309654783749057
20
-55.191297627144515
30
0.0
11
30.376553410653003
21
-55.86242304491631
31
0.0
0
LINE
8
1
62
1
10
30.376553410653003
20
-55.86242304491631
30
0.0
11
30.42822563438659
21
-56.578525635546065
31
0.0
0
LINE
8
1
62
1
10
30.42822563438659
20
-56.578525635546065
30
0.0
11
30.462260996674754
21
-57.339242061768324
31
0.0
0
LINE
8
1
62
1
10
30.462260996674754
20
-57.339242061768324
30
0.0
11
30.476258411111743
21
-58.14411078960207
31
0.0
0
LINE
8
1
62
1
10
30.476258411111743
20
-58.14411078960207
30
0.0
11
28.033953169212726
21
-59.36023429839851
31
0.0
0
LINE
8
1
62
1
10
28.033953169212726
20
-59.36023429839851
30
0.0
11
27.40008938546176
21
-58.86402234740929
31
0.0
0
LINE
8
1
62
1
10
27.40008938546176
20
-58.86402234740929
30
0.0
11
26.813535460437905
21
-58.37842747506243
31
0.0
0
LINE
8
1
62
1
10
26.813535460437905
20
-58.37842747506243
30
0.0
11
26.273212728375945
21
-57.905643926036745
31
0.0
0
LINE
8
1
62
1
10
26.273212728375945
20
-57.905643926036745
30
0.0
11
25.777958513026938
21
-57.44781424718222
31
0.0
0
LINE
8
1
62
1
10
25.777958513026938
20
-57.44781424718222
30
0.0
11
25.326528165702477
21
-57.0070263509428
31
0.0
0
LINE
8
1
62
1
10
25.326528165702477
20
-57.0070263509428
30
0.0
11
24.917597200621593
21
-56.58531065204443
31
0.0
0
LINE
8
1
62
1
10
24.917597200621593
20
-56.58531065204443
30
0.0
11
24.549763525065313
21
-56.18463728056127
31
0.0
0
LINE
8
1
62
1
10
24.549763525065313
20
-56.18463728056127
30
0.0
11
24.221549761746175
21
-55.80691337438988
31
0.0
0
LINE
8
1
62
1
10
24.221549761746175
20
-55.80691337438988
30
0.0
11
23.931405660706183
21
-55.45398045407685
31
0.0
0
LINE
8
1
62
1
10
23.931405660706183
20
-55.45398045407685
30
0.0
11
23.67771059796432
21
-55.127611882857344
31
0.0
0
LINE
8
1
62
1
10
23.67771059796432
20
-55.127611882857344
30
0.0
11
23.45877615804639
21
-54.82951041467126
31
0.0
0
LINE
8
1
62
1
10
23.45877615804639
20
-54.82951041467126
30
0.0
11
23.272848797443483
21
-54.56130583283031
31
0.0
0
LINE
8
1
62
1
10
23.272848797443483
20
-54.56130583283031
30
0.0
11
23.11811258596249
21
-54.3245526819134
31
0.0
0
LINE
8
1
62
1
10
23.11811258596249
20
-54.3245526819134
30
0.0
11
22.992692022852093
21
-54.120728095369195
31
0.0
0
LINE
8
1
62
1
10
22.992692022852093
20
-54.120728095369195
30
0.0
11
22.894654924510636
21
-53.95122972120335
31
0.0
0
LINE
8
1
62
1
10
22.894654924510636
20
-53.95122972120335
30
0.0
11
22.822015380508716
21
-53.81737374802524
31
0.0
0
LINE
8
1
62
1
10
22.822015380508716
20
-53.81737374802524
30
0.0
11
22.772736774588832
21
-53.72039303362286
31
0.0
0
LINE
8
1
62
1
10
22.772736774588832
20
-53.72039303362286
30
0.0
11
22.744734867237337
21
-53.66143533812706
31
0.0
0
LINE
8
1
62
1
10
22.744734867237337
20
-53.66143533812706
30
0.0
11
22.735880936360346
21
-53.641561663716715
31
0.0
0
LINE
8
1
62
1
10
22.735880936360346
20
-53.641561663716715
30
0.0
11
22.487135426829965
21
-53.05468765494639
31
0.0
0
LINE
8
1
62
1
10
22.487135426829965
20
-53.05468765494639
30
0.0
11
19.12451834499024
21
-54.35737245250771
31
0.0
0
LINE
8
1
62
1
10
19.12451834499024
20
-54.35737245250771
30
0.0
11
19.336067658406648
21
-54.95865634442127
31
0.0
0
LINE
8
1
62
1
10
19.336067658406648
20
-54.95865634442127
30
0.0
11
19.342913332409598
21
-54.97930802168944
31
0.0
0
LINE
8
1
62
1
10
19.342913332409598
20
-54.97930802168944
30
0.0
11
19.361939215792614
21
-55.04174304739611
31
0.0
0
LINE
8
1
62
1
10
19.361939215792614
20
-55.04174304739611
30
0.0
11
19.39085737140023
21
-55.1466114422711
31
0.0
0
LINE
8
1
62
1
10
19.39085737140023
20
-55.1466114422711
30
0.0
11
19.427354286646132
21
-55.29446914442354
31
0.0
0
LINE
8
1
62
1
10
19.427354286646132
20
-55.29446914442354
30
0.0
11
19.469094313034063
21
-55.48577712045489
31
0.0
0
LINE
8
1
62
1
10
19.469094313034063
20
-55.48577712045489
30
0.0
11
19.513723134515537
21
-55.72090059445105
31
0.0
0
LINE
8
1
62
1
10
19.513723134515537
20
-55.72090059445105
30
0.0
11
19.55887126080645
21
-56.000108395747844
31
0.0
0
LINE
8
1
62
1
10
19.55887126080645
20
-56.000108395747844
30
0.0
11
19.6021575417579
21
-56.32357242624063
31
0.0
0
LINE
8
1
62
1
10
19.6021575417579
20
-56.32357242624063
30
0.0
11
19.641192698853448
21
-56.691367247883626
31
0.0
0
LINE
8
1
62
1
10
19.641192698853448
20
-56.691367247883626
30
0.0
11
19.67358286988609
21
-57.10346979089924
31
0.0
0
LINE
8
1
62
1
10
19.67358286988609
20
-57.10346979089924
30
0.0
11
19.69693316285291
21
-57.559759183091685
31
0.0
0
LINE
8
1
62
1
10
19.69693316285291
20
-57.559759183091685
30
0.0
11
19.708851215094345
21
-58.06001670053271
31
0.0
0
LINE
8
1
62
1
10
19.708851215094345
20
-58.06001670053271
30
0.0
11
19.70695075369758
21
-58.60392583976039
31
0.0
0
LINE
8
1
62
1
10
19.70695075369758
20
-58.60392583976039
30
0.0
11
19.688855153180356
21
-59.1910725115054
31
0.0
0
LINE
8
1
62
1
10
19.688855153180356
20
-59.1910725115054
30
0.0
11
19.652200986472188
21
-59.82094535583161
31
0.0
0
LINE
8
1
62
1
10
19.652200986472188
20
-59.82094535583161
30
0.0
11
19.594641565214545
21
-60.4929361784516
31
0.0
0
LINE
8
1
62
1
10
19.594641565214545
20
-60.4929361784516
30
0.0
11
19.513850465410094
21
-61.20634050785016
31
0.0
0
LINE
8
1
62
1
10
19.513850465410094
20
-61.20634050785016
30
0.0
11
19.407525034463873
21
-61.960358272723475
31
0.0
0
LINE
8
1
62
1
10
19.407525034463873
20
-61.960358272723475
30
0.0
11
19.273389875675477
21
-62.75409459911432
31
0.0
0
LINE
8
1
62
1
10
19.273389875675477
20
-62.75409459911432
30
0.0
11
16.649207413325016
21
-63.500738883594586
31
0.0
0
LINE
8
1
62
1
10
16.649207413325016
20
-63.500738883594586
30
0.0
11
16.11731507176305
21
-62.8965037194049
31
0.0
0
LINE
8
1
62
1
10
16.11731507176305
20
-62.8965037194049
30
0.0
11
15.629976165598524
21
-62.311398021646944
31
0.0
0
LINE
8
1
62
1
10
15.629976165598524
20
-62.311398021646944
30
0.0
11
15.185727203998983
21
-61.747380469499895
31
0.0
0
LINE
8
1
62
1
10
15.185727203998983
20
-61.747380469499895
30
0.0
11
14.783031615537485
21
-61.20634348768198
31
0.0
0
LINE
8
1
62
1
10
14.783031615537485
20
-61.20634348768198
30
0.0
11
14.420282291129952
21
-60.69011073436373
31
0.0
0
LINE
8
1
62
1
10
14.420282291129952
20
-60.69011073436373
30
0.0
11
14.095804209155922
21
-60.200434678978354
31
0.0
0
LINE
8
1
62
1
10
14.095804209155922
20
-60.200434678978354
30
0.0
11
13.807857139738209
21
-59.73899427253059
31
0.0
0
LINE
8
1
62
1
10
13.807857139738209
20
-59.73899427253059
30
0.0
11
13.554638425076265
21
-59.30739271290594
31
0.0
0
LINE
8
1
62
1
10
13.554638425076265
20
-59.30739271290594
30
0.0
11
13.334285832651096
21
-58.90715530758192
31
0.0
0
LINE
8
1
62
1
10
13.334285832651096
20
-58.90715530758192
30
0.0
11
13.144880478045293
21
-58.53972743603962
31
0.0
0
LINE
8
1
62
1
10
13.144880478045293
20
-58.53972743603962
30
0.0
11
12.984449814051215
21
-58.20647261406806
31
0.0
0
LINE
8
1
62
1
10
12.984449814051215
20
-58.20647261406806
30
0.0
11
12.850970682672799
21
-57.90867066204674
31
0.0
0
LINE
8
1
62
1
10
12.850970682672799
20
-57.90867066204674
30
0.0
11
12.742372426562516
21
-57.64751597918163
31
0.0
0
LINE
8
1
62
1
10
12.742372426562516
20
-57.64751597918163
30
0.0
11
12.656540056374448
21
-57.42411592555867
31
0.0
0
LINE
8
1
62
1
10
12.656540056374448
20
-57.42411592555867
30
0.0
11
12.591317470457396
21
-57.2394893137651
31
0.0
0
LINE
8
1
62
1
10
12.591317470457396
20
-57.2394893137651
30
0.0
11
12.544510723258549
21
-57.09456501171423
31
0.0
0
LINE
8
1
62
1
10
12.544510723258549
20
-57.09456501171423
30
0.0
11
12.513891338758324
21
-56.990180658192116
31
0.0
0
LINE
8
1
62
1
10
12.513891338758324
20
-56.990180658192116
30
0.0
11
12.497199665210893
21
-56.92708149252661
31
0.0
0
LINE
8
1
62
1
10
12.497199665210893
20
-56.92708149252661
30
0.0
11
12.492148267422492
21
-56.905919299659935
31
0.0
0
LINE
8
1
62
1
10
12.492148267422492
20
-56.905919299659935
30
0.0
11
12.355475939017587
21
-56.283331068699816
31
0.0
0
LINE
8
1
62
1
10
12.355475939017587
20
-56.283331068699816
30
0.0
11
8.810746099612677
21
-56.94595591467995
31
0.0
0
LINE
8
1
62
1
10
8.810746099612677
20
-56.94595591467995
30
0.0
11
8.908207758747617
21
-57.57587389003891
31
0.0
0
LINE
8
1
62
1
10
8.908207758747617
20
-57.57587389003891
30
0.0
11
8.911142136401594
21
-57.59743182255404
31
0.0
0
LINE
8
1
62
1
10
8.911142136401594
20
-57.59743182255404
30
0.0
11
8.918371662096355
21
-57.66229977019944
31
0.0
0
LINE
8
1
62
1
10
8.918371662096355
20
-57.66229977019944
30
0.0
11
8.92752791415864
21
-57.770696278517626
31
0.0
0
LINE
8
1
62
1
10
8.92752791415864
20
-57.770696278517626
30
0.0
11
8.936234618590829
21
-57.92274271289278
31
0.0
0
LINE
8
1
62
1
10
8.936234618590829
20
-57.92274271289278
30
0.0
11
8.942111193360036
21
-58.11846301680901
31
0.0
0
LINE
8
1
62
1
10
8.942111193360036
20
-58.11846301680901
30
0.0
11
8.942776299372765
21
-58.3577835912794
31
0.0
0
LINE
8
1
62
1
10
8.942776299372765
20
-58.3577835912794
30
0.0
11
8.935851394158956
21
-58.64053329561231
31
0.0
0
LINE
8
1
62
1
10
8.935851394158956
20
-58.64053329561231
30
0.0
11
8.918964284285536
21
-58.966443569554954
31
0.0
0
LINE
8
1
62
1
10
8.918964284285536
20
-58.966443569554954
30
0.0
11
8.889752672520066
21
-59.33514867672726
31
0.0
0
LINE
8
1
62
1
10
8.889752672520066
20
-59.33514867672726
30
0.0
11
8.84586769576921
21
-59.74618606913217
31
0.0
0
LINE
8
1
62
1
10
8.84586769576921
20
-59.74618606913217
30
0.0
11
8.784977449825154
21
-60.198996872402
31
0.0
0
LINE
8
1
62
1
10
8.784977449825154
20
-60.198996872402
30
0.0
11
8.70477049696521
21
-60.69292649131385
31
0.0
0
LINE
8
1
62
1
10
8.70477049696521
20
-60.69292649131385
30
0.0
11
8.60295935246609
21
-61.227225334981604
31
0.0
0
LINE
8
1
62
1
10
8.60295935246609
20
-61.227225334981604
30
0.0
11
8.477283946114282
21
-61.80104966100625
31
0.0
0
LINE
8
1
62
1
10
8.477283946114282
20
-61.80104966100625
30
0.0
11
8.325515054818132
21
-62.4134625377417
31
0.0
0
LINE
8
1
62
1
10
8.325515054818132
20
-62.4134625377417
30
0.0
11
8.145457702454912
21
-63.063434923709714
31
0.0
0
LINE
8
1
62
1
10
8.145457702454912
20
-63.063434923709714
30
0.0
11
7.9349545231180185
21
-63.749846863073586
31
0.0
0
LINE
8
1
62
1
10
7.9349545231180185
20
-63.749846863073586
30
0.0
11
7.691889083964985
21
-64.47148879595983
31
0.0
0
LINE
8
1
62
1
10
7.691889083964985
20
-64.47148879595983
30
0.0
11
7.414189163906349
21
-65.22706298229434
31
0.0
0
LINE
8
1
62
1
10
7.414189163906349
20
-65.22706298229434
30
0.0
11
4.697492867499832
21
-65.47880196685158
31
0.0
0
LINE
8
1
62
1
10
4.697492867499832
20
-65.47880196685158
30
0.0
11
4.285684923884211
21
-64.7871200932777
31
0.0
0
LINE
8
1
62
1
10
4.285684923884211
20
-64.7871200932777
30
0.0
11
3.9141567785298577
21
-64.12242864288885
31
0.0
0
LINE
8
1
62
1
10
3.9141567785298577
20
-64.12242864288885
30
0.0
11
3.5811099529621058
21
-63.48638402889432
31
0.0
0
LINE
8
1
62
1
10
3.5811099529621058
20
-63.48638402889432
30
0.0
11
3.2846863066730485
21
-62.88056410962647
31
0.0
0
LINE
8
1
62
1
10
3.2846863066730485
20
-62.88056410962647
30
0.0
11
3.0229709983552837
21
-62.30646618649071
31
0.0
0
LINE
8
1
62
1
10
3.0229709983552837
20
-62.30646618649071
30
0.0
11
2.7939955114011674
21
-61.765505105382786
31
0.0
0
LINE
8
1
62
1
10
2.7939955114011674
20
-61.765505105382786
30
0.0
11
2.5957407402166
21
-61.259011463575234
31
0.0
0
LINE
8
1
62
1
10
2.5957407402166
20
-61.259011463575234
30
0.0
11
2.426140133837285
21
-60.78822992396132
31
0.0
0
LINE
8
1
62
1
10
2.426140133837285
20
-60.78822992396132
30
0.0
11
2.283082893278177
21
-60.35431763843277
31
0.0
0
LINE
8
1
62
1
10
2.283082893278177
20
-60.35431763843277
30
0.0
11
2.1644172189928486
21
-59.958342782051886
31
0.0
0
LINE
8
1
62
1
10
2.1644172189928486
20
-59.958342782051886
30
0.0
11
2.0679536047695626
21
-59.60128319956199
31
0.0
0
LINE
8
1
62
1
10
2.0679536047695626
20
-59.60128319956199
30
0.0
11
1.9914681743441593
21
-59.284025165662314
31
0.0
0
LINE
8
1
62
1
10
1.9914681743441593
20
-59.284025165662314
30
0.0
11
1.9327060569671715
21
-59.007362260353446
31
0.0
0
LINE
8
1
62
1
10
1.9327060569671715
20
-59.007362260353446
30
0.0
11
1.8893847981236056
21
-58.77199436053902
31
0.0
0
LINE
8
1
62
1
10
1.8893847981236056
20
-58.77199436053902
30
0.0
11
1.8591978015684965
21
-58.578526748947155
31
0.0
0
LINE
8
1
62
1
10
1.8591978015684965
20
-58.578526748947155
30
0.0
11
1.8398177988100755
21
-58.42746934131234
31
0.0
0
LINE
8
1
62
1
10
1.8398177988100755
20
-58.42746934131234
30
0.0
11
1.8289003421447578
21
-58.31923603263445
31
0.0
0
LINE
8
1
62
1
10
1.8289003421447578
20
-58.31923603263445
30
0.0
11
1.824087317324591
21
-58.25414416320687
31
0.0
0
LINE
8
1
62
1
10
1.824087317324591
20
-58.25414416320687
30
0.0
11
1.8230104719179854
21
-58.232414104980684
31
0.0
0
LINE
8
1
62
1
10
1.8230104719179854
20
-58.232414104980684
30
0.0
11
1.8030655368619941
21
-57.59531314732382
31
0.0
0
LINE
8
1
62
1
10
1.8030655368619941
20
-57.59531314732382
30
0.0
11
-1.803065536861987
21
-57.59531314732382
31
0.0
0
LINE
8
1
62
1
10
-1.803065536861987
20
-57.59531314732382
30
0.0
11
-1.823010471917978
21
-58.232414104980684
31
0.0
0
LINE
8
1
62
1
10
-1.823010471917978
20
-58.232414104980684
30
0.0
11
-1.824087317324584
21
-58.25414416320687
31
0.0
0
LINE
8
1
62
1
10
-1.824087317324584
20
-58.25414416320687
30
0.0
11
-1.8289003421447505
21
-58.31923603263445
31
0.0
0
LINE
8
1
62
1
10
-1.8289003421447505
20
-58.31923603263445
30
0.0
11
-1.8398177988100681
21
-58.42746934131234
31
0.0
0
LINE
8
1
62
1
10
-1.8398177988100681
20
-58.42746934131234
30
0.0
11
-1.8591978015684891
21
-58.578526748947155
31
0.0
0
LINE
8
1
62
1
10
-1.8591978015684891
20
-58.578526748947155
30
0.0
11
-1.8893847981235983
21
-58.77199436053902
31
0.0
0
LINE
8
1
62
1
10
-1.8893847981235983
20
-58.77199436053902
30
0.0
11
-1.932706056967164
21
-59.007362260353446
31
0.0
0
LINE
8
1
62
1
10
-1.932706056967164
20
-59.007362260353446
30
0.0
11
-1.9914681743441518
21
-59.284025165662314
31
0.0
0
LINE
8
1
62
1
10
-1.9914681743441518
20
-59.284025165662314
30
0.0
11
-2.067953604769555
21
-59.60128319956199
31
0.0
0
LINE
8
1
62
1
10
-2.067953604769555
20
-59.60128319956199
30
0.0
11
-2.164417218992841
21
-59.958342782051886
31
0.0
0
LINE
8
1
62
1
10
-2.164417218992841
20
-59.958342782051886
30
0.0
11
-2.283082893278169
21
-60.35431763843277
31
0.0
0
LINE
8
1
62
1
10
-2.283082893278169
20
-60.35431763843277
30
0.0
11
-2.4261401338372774
21
-60.78822992396132
31
0.0
0
LINE
8
1
62
1
10
-2.4261401338372774
20
-60.78822992396132
30
0.0
11
-2.595740740216593
21
-61.259011463575234
31
0.0
0
LINE
8
1
62
1
10
-2.595740740216593
20
-61.259011463575234
30
0.0
11
-2.7939955114011594
21
-61.765505105382786
31
0.0
0
LINE
8
1
62
1
10
-2.7939955114011594
20
-61.765505105382786
30
0.0
11
-3.022970998355276
21
-62.30646618649071
31
0.0
0
LINE
8
1
62
1
10
-3.022970998355276
20
-62.30646618649071
30
0.0
11
-3.284686306673041
21
-62.88056410962647
31
0.0
0
LINE
8
1
62
1
10
-3.284686306673041
20
-62.88056410962647
30
0.0
11
-3.5811099529620978
21
-63.48638402889432
31
0.0
0
LINE
8
1
62
1
10
-3.5811099529620978
20
-63.48638402889432
30
0.0
11
-3.9141567785298497
21
-64.12242864288885
31
0.0
0
LINE
8
1
62
1
10
-3.9141567785298497
20
-64.12242864288885
30
0.0
11
-4.285684923884203
21
-64.7871200932777
31
0.0
0
LINE
8
1
62
1
10
-4.285684923884203
20
-64.7871200932777
30
0.0
11
-4.6974928674998235
21
-65.47880196685158
31
0.0
0
LINE
8
1
62
1
10
-4.6974928674998235
20
-65.47880196685158
30
0.0
11
-7.41418916390634
21
-65.22706298229434
31
0.0
0
LINE
8
1
62
1
10
-7.41418916390634
20
-65.22706298229434
30
0.0
11
-7.691889083964976
21
-64.47148879595983
31
0.0
0
LINE
8
1
62
1
10
-7.691889083964976
20
-64.47148879595983
30
0.0
11
-7.93495452311801
21
-63.749846863073586
31
0.0
0
LINE
8
1
62
1
10
-7.93495452311801
20
-63.749846863073586
30
0.0
11
-8.145457702454904
21
-63.063434923709714
31
0.0
0
LINE
8
1
62
1
10
-8.145457702454904
20
-63.063434923709714
30
0.0
11
-8.325515054818123
21
-62.4134625377417
31
0.0
0
LINE
8
1
62
1
10
-8.325515054818123
20
-62.4134625377417
30
0.0
11
-8.477283946114273
21
-61.80104966100625
31
0.0
0
LINE
8
1
62
1
10
-8.477283946114273
20
-61.80104966100625
30
0.0
11
-8.602959352466081
21
-61.227225334981604
31
0.0
0
LINE
8
1
62
1
10
-8.602959352466081
20
-61.227225334981604
30
0.0
11
-8.704770496965201
21
-60.69292649131385
31
0.0
0
LINE
8
1
62
1
10
-8.704770496965201
20
-60.69292649131385
30
0.0
11
-8.784977449825147
21
-60.198996872402
31
0.0
0
LINE
8
1
62
1
10
-8.784977449825147
20
-60.198996872402
30
0.0
11
-8.845867695769202
21
-59.74618606913217
31
0.0
0
LINE
8
1
62
1
10
-8.845867695769202
20
-59.74618606913217
30
0.0
11
-8.889752672520057
21
-59.33514867672726
31
0.0
0
LINE
8
1
62
1
10
-8.889752672520057
20
-59.33514867672726
30
0.0
11
-8.91896428428553
21
-58.966443569554954
31
0.0
0
LINE
8
1
62
1
10
-8.91896428428553
20
-58.966443569554954
30
0.0
11
-8.935851394158947
21
-58.64053329561231
31
0.0
0
LINE
8
1
62
1
10
-8.935851394158947
20
-58.64053329561231
30
0.0
11
-8.942776299372758
21
-58.3577835912794
31
0.0
0
LINE
8
1
62
1
10
-8.942776299372758
20
-58.3577835912794
30
0.0
11
-8.942111193360027
21
-58.11846301680901
31
0.0
0
LINE
8
1
62
1
10
-8.942111193360027
20
-58.11846301680901
30
0.0
11
-8.936234618590822
21
-57.92274271289278
31
0.0
0
LINE
8
1
62
1
10
-8.936234618590822
20
-57.92274271289278
30
0.0
11
-8.927527914158631
21
-57.770696278517626
31
0.0
0
LINE
8
1
62
1
10
-8.927527914158631
20
-57.770696278517626
30
0.0
11
-8.918371662096348
21
-57.66229977019944
31
0.0
0
LINE
8
1
62
1
10
-8.918371662096348
20
-57.66229977019944
30
0.0
11
-8.911142136401585
21
-57.59743182255404
31
0.0
0
LINE
8
1
62
1
10
-8.911142136401585
20
-57.59743182255404
30
0.0
11
-8.90820775874761
21
-57.57587389003891
31
0.0
0
LINE
8
1
62
1
10
-8.90820775874761
20
-57.57587389003891
30
0.0
11
-8.810746099612668
21
-56.94595591467995
31
0.0
0
LINE
8
1
62
1
10
-8.810746099612668
20
-56.94595591467995
30
0.0
11
-12.35547593901758
21
-56.283331068699816
31
0.0
0
LINE
8
1
62
1
10
-12.35547593901758
20
-56.283331068699816
30
0.0
11
-12.492148267422486
21
-56.905919299659935
31
0.0
0
LINE
8
1
62
1
10
-12.492148267422486
20
-56.905919299659935
30
0.0
11
-12.497199665210886
21
-56.92708149252661
31
0.0
0
LINE
8
1
62
1
10
-12.497199665210886
20
-56.92708149252661
30
0.0
11
-12.513891338758318
21
-56.990180658192116
31
0.0
0
LINE
8
1
62
1
10
-12.513891338758318
20
-56.990180658192116
30
0.0
11
-12.544510723258544
21
-57.09456501171423
31
0.0
0
LINE
8
1
62
1
10
-12.544510723258544
20
-57.09456501171423
30
0.0
11
-12.59131747045739
21
-57.2394893137651
31
0.0
0
LINE
8
1
62
1
10
-12.59131747045739
20
-57.2394893137651
30
0.0
11
-12.65654005637444
21
-57.42411592555867
31
0.0
0
LINE
8
1
62
1
10
-12.65654005637444
20
-57.42411592555867
30
0.0
11
-12.74237242656251
21
-57.64751597918163
31
0.0
0
LINE
8
1
62
1
10
-12.74237242656251
20
-57.64751597918163
30
0.0
11
-12.850970682672791
21
-57.90867066204674
31
0.0
0
LINE
8
1
62
1
10
-12.850970682672791
20
-57.90867066204674
30
0.0
11
-12.984449814051208
21
-58.20647261406806
31
0.0
0
LINE
8
1
62
1
10
-12.984449814051208
20
-58.20647261406806
30
0.0
11
-13.144880478045286
21
-58.53972743603962
31
0.0
0
LINE
8
1
62
1
10
-13.144880478045286
20
-58.53972743603962
30
0.0
11
-13.334285832651089
21
-58.90715530758192
31
0.0
0
LINE
8
1
62
1
10
-13.334285832651089
20
-58.90715530758192
30
0.0
11
-13.554638425076257
21
-59.30739271290594
31
0.0
0
LINE
8
1
62
1
10
-13.554638425076257
20
-59.30739271290594
30
0.0
11
-13.807857139738202
21
-59.73899427253059
31
0.0
0
LINE
8
1
62
1
10
-13.807857139738202
20
-59.73899427253059
30
0.0
11
-14.095804209155917
21
-60.200434678978354
31
0.0
0
LINE
8
1
62
1
10
-14.095804209155917
20
-60.200434678978354
30
0.0
11
-14.420282291129945
21
-60.69011073436373
31
0.0
0
LINE
8
1
62
1
10
-14.420282291129945
20
-60.69011073436373
30
0.0
11
-14.783031615537478
21
-61.20634348768198
31
0.0
0
LINE
8
1
62
1
10
-14.783031615537478
20
-61.20634348768198
30
0.0
11
-15.185727203998976
21
-61.747380469499895
31
0.0
0
LINE
8
1
62
1
10
-15.185727203998976
20
-61.747380469499895
30
0.0
11
-15.629976165598517
21
-62.311398021646944
31
0.0
0
LINE
8
1
62
1
10
-15.629976165598517
20
-62.311398021646944
30
0.0
11
-16.11731507176304
21
-62.8965037194049
31
0.0
0
LINE
8
1
62
1
10
-16.11731507176304
20
-62.8965037194049
30
0.0
11
-16.64920741332501
21
-63.500738883594586
31
0.0
0
LINE
8
1
62
1
10
-16.64920741332501
20
-63.500738883594586
30
0.0
11
-19.27338987567547
21
-62.75409459911432
31
0.0
0
LINE
8
1
62
1
10
-19.27338987567547
20
-62.75409459911432
30
0.0
11
-19.407525034463866
21
-61.960358272723475
31
0.0
0
LINE
8
1
62
1
10
-19.407525034463866
20
-61.960358272723475
30
0.0
11
-19.513850465410087
21
-61.20634050785016
31
0.0
0
LINE
8
1
62
1
10
-19.513850465410087
20
-61.20634050785016
30
0.0
11
-19.594641565214538
21
-60.4929361784516
31
0.0
0
LINE
8
1
62
1
10
-19.594641565214538
20
-60.4929361784516
30
0.0
11
-19.65220098647218
21
-59.82094535583161
31
0.0
0
LINE
8
1
62
1
10
-19.65220098647218
20
-59.82094535583161
30
0.0
11
-19.68885515318035
21
-59.1910725115054
31
0.0
0
LINE
8
1
62
1
10
-19.68885515318035
20
-59.1910725115054
30
0.0
11
-19.706950753697573
21
-58.60392583976039
31
0.0
0
LINE
8
1
62
1
10
-19.706950753697573
20
-58.60392583976039
30
0.0
11
-19.708851215094338
21
-58.06001670053271
31
0.0
0
LINE
8
1
62
1
10
-19.708851215094338
20
-58.06001670053271
30
0.0
11
-19.696933162852904
21
-57.559759183091685
31
0.0
0
LINE
8
1
62
1
10
-19.696933162852904
20
-57.559759183091685
30
0.0
11
-19.673582869886083
21
-57.10346979089924
31
0.0
0
LINE
8
1
62
1
10
-19.673582869886083
20
-57.10346979089924
30
0.0
11
-19.64119269885344
21
-56.691367247883626
31
0.0
0
LINE
8
1
62
1
10
-19.64119269885344
20
-56.691367247883626
30
0.0
11
-19.602157541757894
21
-56.32357242624063
31
0.0
0
LINE
8
1
62
1
10
-19.602157541757894
20
-56.32357242624063
30
0.0
11
-19.55887126080644
21
-56.000108395747844
31
0.0
0
LINE
8
1
62
1
10
-19.55887126080644
20
-56.000108395747844
30
0.0
11
-19.51372313451553
21
-55.72090059445105
31
0.0
0
LINE
8
1
62
1
10
-19.51372313451553
20
-55.72090059445105
30
0.0
11
-19.469094313034056
21
-55.48577712045489
31
0.0
0
LINE
8
1
62
1
10
-19.469094313034056
20
-55.48577712045489
30
0.0
11
-19.427354286646125
21
-55.29446914442354
31
0.0
0
LINE
8
1
62
1
10
-19.427354286646125
20
-55.29446914442354
30
0.0
11
-19.390857371400223
21
-55.1466114422711
31
0.0
0
LINE
8
1
62
1
10
-19.390857371400223
20
-55.1466114422711
30
0.0
11
-19.361939215792606
21
-55.04174304739611
31
0.0
0
LINE
8
1
62
1
10
-19.361939215792606
20
-55.04174304739611
30
0.0
11
-19.34291333240959
21
-54.97930802168944
31
0.0
0
LINE
8
1
62
1
10
-19.34291333240959
20
-54.97930802168944
30
0.0
11
-19.33606765840664
21
-54.95865634442127
31
0.0
0
LINE
8
1
62
1
10
-19.33606765840664
20
-54.95865634442127
30
0.0
11
-19.124518344990232
21
-54.35737245250771
31
0.0
0
LINE
8
1
62
1
10
-19.124518344990232
20
-54.35737245250771
30
0.0
11
-22.487135426829944
21
-53.0546876549464
31
0.0
0
LINE
8
1
62
1
10
-22.487135426829944
20
-53.0546876549464
30
0.0
11
-22.735880936360324
21
-53.64156166371672
31
0.0
0
LINE
8
1
62
1
10
-22.735880936360324
20
-53.64156166371672
30
0.0
11
-22.744734867237316
21
-53.66143533812707
31
0.0
0
LINE
8
1
62
1
10
-22.744734867237316
20
-53.66143533812707
30
0.0
11
-22.772736774588815
21
-53.72039303362287
31
0.0
0
LINE
8
1
62
1
10
-22.772736774588815
20
-53.72039303362287
30
0.0
11
-22.8220153805087
21
-53.81737374802525
31
0.0
0
LINE
8
1
62
1
10
-22.8220153805087
20
-53.81737374802525
30
0.0
11
-22.89465492451062
21
-53.951229721203354
31
0.0
0
LINE
8
1
62
1
10
-22.89465492451062
20
-53.951229721203354
30
0.0
11
-22.992692022852076
21
-54.1207280953692
31
0.0
0
LINE
8
1
62
1
10
-22.992692022852076
20
-54.1207280953692
30
0.0
11
-23.11811258596247
21
-54.32455268191341
31
0.0
0
LINE
8
1
62
1
10
-23.11811258596247
20
-54.32455268191341
30
0.0
11
-23.272848797443462
21
-54.56130583283031
31
0.0
0
LINE
8
1
62
1
10
-23.272848797443462
20
-54.56130583283031
30
0.0
11
-23.458776158046376
21
-54.82951041467127
31
0.0
0
LINE
8
1
62
1
10
-23.458776158046376
20
-54.82951041467127
30
0.0
11
-23.6777105979643
21
-55.12761188285735
31
0.0
0
LINE
8
1
62
1
10
-23.6777105979643
20
-55.12761188285735
30
0.0
11
-23.93140566070616
21
-55.453980454076856
31
0.0
0
LINE
8
1
62
1
10
-23.93140566070616
20
-55.453980454076856
30
0.0
11
-24.221549761746154
21
-55.806913374389886
31
0.0
0
LINE
8
1
62
1
10
-24.221549761746154
20
-55.806913374389886
30
0.0
11
-24.54976352506529
21
-56.184637280561276
31
0.0
0
LINE
8
1
62
1
10
-24.54976352506529
20
-56.184637280561276
30
0.0
11
-24.917597200621575
21
-56.585310652044434
31
0.0
0
LINE
8
1
62
1
10
-24.917597200621575
20
-56.585310652044434
30
0.0
11
-25.32652816570246
21
-57.00702635094281
31
0.0
0
LINE
8
1
62
1
10
-25.32652816570246
20
-57.00702635094281
30
0.0
11
-25.777958513026917
21
-57.44781424718223
31
0.0
0
LINE
8
1
62
1
10
-25.777958513026917
20
-57.44781424718223
30
0.0
11
-26.273212728375924
21
-57.90564392603675
31
0.0
0
LINE
8
1
62
1
10
-26.273212728375924
20
-57.90564392603675
30
0.0
11
-26.813535460437883
21
-58.37842747506244
31
0.0
0
LINE
8
1
62
1
10
-26.813535460437883
20
-58.37842747506244
30
0.0
11
-27.400089385461737
21
-58.864022347409296
31
0.0
0
LINE
8
1
62
1
10
-27.400089385461737
20
-58.864022347409296
30
0.0
11
-28.033953169212705
21
-59.36023429839852
31
0.0
0
LINE
8
1
62
1
10
-28.033953169212705
20
-59.36023429839852
30
0.0
11
-30.476258411111687
21
-58.144110789602095
31
0.0
0
LINE
8
1
62
1
10
-30.476258411111687
20
-58.144110789602095
30
0.0
11
-30.462260996674697
21
-57.33924206176836
31
0.0
0
LINE
8
1
62
1
10
-30.462260996674697
20
-57.33924206176836
30
0.0
11
-30.42822563438653
21
-56.5785256355461
31
0.0
0
LINE
8
1
62
1
10
-30.42822563438653
20
-56.5785256355461
30
0.0
11
-30.376553410652946
21
-55.86242304491634
31
0.0
0
LINE
8
1
62
1
10
-30.376553410652946
20
-55.86242304491634
30
0.0
11
-30.309654783749
21
-55.19129762714455
31
0.0
0
LINE
8
1
62
1
10
-30.309654783749
20
-55.19129762714455
30
0.0
11
-30.22994601218377
21
-54.56541437949191
31
0.0
0
LINE
8
1
62
1
10
-30.22994601218377
20
-54.56541437949191
30
0.0
11
-30.139845582894072
21
-53.98493993772798
31
0.0
0
LINE
8
1
62
1
10
-30.139845582894072
20
-53.98493993772798
30
0.0
11
-30.041770643254967
21
-53.44994267632966
31
0.0
0
LINE
8
1
62
1
10
-30.041770643254967
20
-53.44994267632966
30
0.0
11
-29.93813344088711
21
-52.960392930123156
31
0.0
0
LINE
8
1
62
1
10
-29.93813344088711
20
-52.960392930123156
30
0.0
11
-29.83133777523081
21
-52.51616333700039
31
0.0
0
LINE
8
1
62
1
10
-29.83133777523081
20
-52.51616333700039
30
0.0
11
-29.723775464841463
21
-52.11702930121396
31
0.0
0
LINE
8
1
62
1
10
-29.723775464841463
20
-52.11702930121396
30
0.0
11
-29.617822834342274
21
-51.76266957663006
31
0.0
0
LINE
8
1
62
1
10
-29.617822834342274
20
-51.76266957663006
30
0.0
11
-29.515837224947578
21
-51.45266696919322
31
0.0
0
LINE
8
1
62
1
10
-29.515837224947578
20
-51.45266696919322
30
0.0
11
-29.420153532443575
21
-51.186509157732864
31
0.0
0
LINE
8
1
62
1
10
-29.420153532443575
20
-51.186509157732864
30
0.0
11
-29.33308077648254
21
-50.96358963211836
31
0.0
0
LINE
8
1
62
1
10
-29.33308077648254
20
-50.96358963211836
30
0.0
11
-29.256898705012883
21
-50.783208747646995
31
0.0
0
LINE
8
1
62
1
10
-29.256898705012883
20
-50.783208747646995
30
0.0
11
-29.19385443762874
21
-50.6445748944283
31
0.0
0
LINE
8
1
62
1
10
-29.19385443762874
20
-50.6445748944283
30
0.0
11
-29.1461591515815
21
-50.5468057804082
31
0.0
0
LINE
8
1
62
1
10
-29.1461591515815
20
-50.5468057804082
30
0.0
11
-29.115984814149808
21
-50.488929826558135
31
0.0
0
LINE
8
1
62
1
10
-29.115984814149808
20
-50.488929826558135
30
0.0
11
-29.105460965015574
21
-50.46988767263734
31
0.0
0
LINE
8
1
62
1
10
-29.105460965015574
20
-50.46988767263734
30
0.0
11
-28.78702805546066
21
-49.91771386594776
31
0.0
0
LINE
8
1
62
1
10
-28.78702805546066
20
-49.91771386594776
30
0.0
11
-31.85302248802789
21
-48.01933048518796
31
0.0
0
LINE
8
1
62
1
10
-31.85302248802789
20
-48.01933048518796
30
0.0
11
-32.20537044869404
21
-48.5505049812776
31
0.0
0
LINE
8
1
62
1
10
-32.20537044869404
20
-48.5505049812776
30
0.0
11
-32.21772540266274
21
-48.56841336308541
31
0.0
0
LINE
8
1
62
1
10
-32.21772540266274
20
-48.56841336308541
30
0.0
11
-32.25608397244802
21
-48.62122185480336
31
0.0
0
LINE
8
1
62
1
10
-32.25608397244802
20
-48.62122185480336
30
0.0
11
-32.32234367596614
21
-48.70749636817257
31
0.0
0
LINE
8
1
62
1
10
-32.32234367596614
20
-48.70749636817257
30
0.0
11
-32.41834236422167
21
-48.82572570785389
31
0.0
0
LINE
8
1
62
1
10
-32.41834236422167
20
-48.82572570785389
30
0.0
11
-32.545855439186056
21
-48.974323780550705
31
0.0
0
LINE
8
1
62
1
10
-32.545855439186056
20
-48.974323780550705
30
0.0
11
-32.706593148367446
21
-49.15163189818204
31
0.0
0
LINE
8
1
62
1
10
-32.706593148367446
20
-49.15163189818204
30
0.0
11
-32.902197959122795
21
-49.35592117255035
31
0.0
0
LINE
8
1
62
1
10
-32.902197959122795
20
-49.35592117255035
30
0.0
11
-33.13424201568016
21
-49.585394998852294
31
0.0
0
LINE
8
1
62
1
10
-33.13424201568016
20
-49.585394998852294
30
0.0
11
-33.40422468175344
21
-49.83819162528713
31
0.0
0
LINE
8
1
62
1
10
-33.40422468175344
20
-49.83819162528713
30
0.0
11
-33.71357017154338
21
-50.11238680592691
31
0.0
0
LINE
8
1
62
1
10
-33.71357017154338
20
-50.11238680592691
30
0.0
11
-34.06362527182677
21
-50.40599653392408
31
0.0
0
LINE
8
1
62
1
10
-34.06362527182677
20
-50.40599653392408
30
0.0
11
-34.45565715774229
21
-50.71697985204743
31
0.0
0
LINE
8
1
62
1
10
-34.45565715774229
20
-50.71697985204743
30
0.0
11
-34.89085130478394
21
-51.043241737454856
31
0.0
0
LINE
8
1
62
1
10
-34.89085130478394
20
-51.043241737454856
30
0.0
11
-35.370309499414475
21
-51.38263605753248
31
0.0
0
LINE
8
1
62
1
10
-35.370309499414475
20
-51.38263605753248
30
0.0
11
-35.89504795060876
21
-51.73296859355345
31
0.0
0
LINE
8
1
62
1
10
-35.89504795060876
20
-51.73296859355345
30
0.0
11
-36.465995504533524
21
-52.09200012883737
31
0.0
0
LINE
8
1
62
1
10
-36.465995504533524
20
-52.09200012883737
30
0.0
11
-37.083991964463216
21
-52.457449598020986
31
0.0
0
LINE
8
1
62
1
10
-37.083991964463216
20
-52.457449598020986
30
0.0
11
-37.74978651792361
21
-52.82699729398584
31
0.0
0
LINE
8
1
62
1
10
-37.74978651792361
20
-52.82699729398584
30
0.0
11
-38.46403627294375
21
-53.19828812892428
31
0.0
0
LINE
8
1
62
1
10
-38.46403627294375
20
-53.19828812892428
30
0.0
11
-40.64129451860068
21
-51.55409902332439
31
0.0
0
LINE
8
1
62
1
10
-40.64129451860068
20
-51.55409902332439
30
0.0
11
-40.47964119609891
21
-50.76550673324049
31
0.0
0
LINE
8
1
62
1
10
-40.47964119609891
20
-50.76550673324049
30
0.0
11
-40.30640407401816
21
-50.0239969311855
31
0.0
0
LINE
8
1
62
1
10
-40.30640407401816
20
-50.0239969311855
30
0.0
11
-40.124028162351784
21
-49.32958209417806
31
0.0
0
LINE
8
1
62
1
10
-40.124028162351784
20
-49.32958209417806
30
0.0
11
-39.93494963978941
21
-48.682176452430454
31
0.0
0
LINE
8
1
62
1
10
-39.93494963978941
20
-48.682176452430454
30
0.0
11
-39.7415923165663
21
-48.08159650478597
31
0.0
0
LINE
8
1
62
1
10
-39.7415923165663
20
-48.08159650478597
30
0.0
11
-39.546364119525585
21
-47.52756165391505
31
0.0
0
LINE
8
1
62
1
10
-39.546364119525585
20
-47.52756165391505
30
0.0
11
-39.35165360329209
21
-47.019694960424516
31
0.0
0
LINE
8
1
62
1
10
-39.35165360329209
20
-47.019694960424516
30
0.0
11
-39.15982649142532
21
-46.557524014909404
31
0.0
0
LINE
8
1
62
1
10
-39.15982649142532
20
-46.557524014909404
30
0.0
11
-38.97322225138618
21
-46.14048192685544
31
0.0
0
LINE
8
1
62
1
10
-38.97322225138618
20
-46.14048192685544
30
0.0
11
-38.794150707113666
21
-45.76790842917839
31
0.0
0
LINE
8
1
62
1
10
-38.794150707113666
20
-45.76790842917839
30
0.0
11
-38.624888692966316
21
-45.43905109706664
31
0.0
0
LINE
8
1
62
1
10
-38.624888692966316
20
-45.43905109706664
30
0.0
11
-38.467676752738065
21
-45.15306667967486
31
0.0
0
LINE
8
1
62
1
10
-38.467676752738065
20
-45.15306667967486
30
0.0
11
-38.32471588740924
21
-44.909022543099105
31
0.0
0
LINE
8
1
62
1
10
-38.32471588740924
20
-44.909022543099105
30
0.0
11
-38.198164355240635
21
-44.70589822294855
31
0.0
0
LINE
8
1
62
1
10
-38.198164355240635
20
-44.70589822294855
30
0.0
11
-38.09013452776283
21
-44.54258708471483
31
0.0
0
LINE
8
1
62
1
10
-38.09013452776283
20
-44.54258708471483
30
0.0
11
-38.00268980515295
21
-44.41789809002826
31
0.0
0
LINE
8
1
62
1
10
-38.00268980515295
20
-44.41789809002826
30
0.0
11
-37.93784159442824
21
-44.33055766677988
31
0.0
0
LINE
8
1
62
1
10
-37.93784159442824
20
-44.33055766677988
30
0.0
11
-37.897546353818974
21
-44.279211680980225
31
0.0
0
LINE
8
1
62
1
10
-37.897546353818974
20
-44.279211680980225
30
0.0
11
-37.88370270661376
21
-44.262427508120034
31
0.0
0
LINE
8
1
62
1
10
-37.88370270661376
20
-44.262427508120034
30
0.0
11
-37.46923005173705
21
-43.77816740338176
31
0.0
0
LINE
8
1
62
1
10
-37.46923005173705
20
-43.77816740338176
30
0.0
11
-40.13419307188564
21
-41.34873260859538
31
0.0
0
LINE
8
1
62
1
10
-40.13419307188564
20
-41.34873260859538
30
0.0
11
-40.57814469648188
21
-41.80611908161358
31
0.0
0
LINE
8
1
62
1
10
-40.57814469648188
20
-41.80611908161358
30
0.0
11
-40.593579940402996
21
-41.82145232235514
31
0.0
0
LINE
8
1
62
1
10
-40.593579940402996
20
-41.82145232235514
30
0.0
11
-40.640988917534074
21
-41.86631328044658
31
0.0
0
LINE
8
1
62
1
10
-40.640988917534074
20
-41.86631328044658
30
0.0
11
-40.72197332391686
21
-41.938943617704716
31
0.0
0
LINE
8
1
62
1
10
-40.72197332391686
20
-41.938943617704716
30
0.0
11
-40.838062036235215
21
-42.03752016552687
31
0.0
0
LINE
8
1
62
1
10
-40.838062036235215
20
-42.03752016552687
30
0.0
11
-40.99070878298969
21
-42.160157607612696
31
0.0
0
LINE
8
1
62
1
10
-40.99070878298969
20
-42.160157607612696
30
0.0
11
-41.18128990833953
21
-42.30491124104286
31
0.0
0
LINE
8
1
62
1
10
-41.18128990833953
20
-42.30491124104286
30
0.0
11
-41.41110223114107
21
-42.46977981264196
31
0.0
0
LINE
8
1
62
1
10
-41.41110223114107
20
-42.46977981264196
30
0.0
11
-41.681361001613
21
-42.65270842747369
31
0.0
0
LINE
8
1
62
1
10
-41.681361001613
20
-42.65270842747369
30
0.0
11
-41.99319795795704
21
-42.85159152624017
31
0.0
0
LINE
8
1
62
1
10
-41.99319795795704
20
-42.85159152624017
30
0.0
11
-42.34765948515927
21
-43.06427592828441
31
0.0
0
LINE
8
1
62
1
10
-42.34765948515927
20
-43.06427592828441
30
0.0
11
-42.745704878090734
21
-43.288563936824836
31
0.0
0
LINE
8
1
62
1
10
-42.745704878090734
20
-43.288563936824836
30
0.0
11
-43.18820471091819
21
-43.52221650298483
31
0.0
0
LINE
8
1
62
1
10
-43.18820471091819
20
-43.52221650298483
30
0.0
11
-43.67593931472556
21
-43.76295644511699
31
0.0
0
LINE
8
1
62
1
10
-43.67593931472556
20
-43.76295644511699
30
0.0
11
-44.20959736513433
21
-44.008471719862236
31
0.0
0
LINE
8
1
62
1
10
-44.20959736513433
20
-44.008471719862236
30
0.0
11
-44.78977458159741
21
-44.25641874132813
31
0.0
0
LINE
8
1
62
1
10
-44.78977458159741
20
-44.25641874132813
30
0.0
11
-45.41697253992514
21
-44.504425744718205
31
0.0
0
LINE
8
1
62
1
10
-45.41697253992514
20
-44.504425744718205
30
0.0
11
-46.09159759948473
21
-44.75009619069503
31
0.0
0
LINE
8
1
62
1
10
-46.09159759948473
20
-44.75009619069503
30
0.0
11
-46.81395994639612
21
-44.9910122067154
31
0.0
0
LINE
8
1
62
1
10
-46.81395994639612
20
-44.9910122067154
30
0.0
11
-47.584272753926385
21
-45.22473806153351
31
0.0
0
LINE
8
1
62
1
10
-47.584272753926385
20
-45.22473806153351
30
0.0
11
-49.422340085118876
21
-43.208474247133864
31
0.0
0
LINE
8
1
62
1
10
-49.422340085118876
20
-43.208474247133864
30
0.0
11
-49.11853576456833
21
-42.46301295942642
31
0.0
0
LINE
8
1
62
1
10
-49.11853576456833
20
-42.46301295942642
30
0.0
11
-48.81199626511243
21
-41.7659610085047
31
0.0
0
LINE
8
1
62
1
10
-48.81199626511243
20
-41.7659610085047
30
0.0
11
-48.505127258449264
21
-41.11688138953505
31
0.0
0
LINE
8
1
62
1
10
-48.505127258449264
20
-41.11688138953505
30
0.0
11
-48.20030768253962
21
-40.51524214646387
31
0.0
0
LINE
8
1
62
1
10
-48.20030768253962
20
-40.51524214646387
30
0.0
11
-47.89988635939443
21
-39.960417528628334
31
0.0
0
LINE
8
1
62
1
10
-47.89988635939443
20
-39.960417528628334
30
0.0
11
-47.606178656702525
21
-39.451689261005264
31
0.0
0
LINE
8
1
62
1
10
-47.606178656702525
20
-39.451689261005264
30
0.0
11
-47.32146319697546
21
-38.98824792655038
31
0.0
0
LINE
8
1
62
1
10
-47.32146319697546
20
-38.98824792655038
30
0.0
11
-47.04797861783314
21
-38.5691944589632
31
0.0
0
LINE
8
1
62
1
10
-47.04797861783314
20
-38.5691944589632
30
0.0
11
-46.78792038699857
21
-38.19354174409988
31
0.0
0
LINE
8
1
62
1
10
-46.78792038699857
20
-38.19354174409988
30
0.0
11
-46.54343767551045
21
-37.86021632814294
31
0.0
0
LINE
8
1
62
1
10
-46.54343767551045
20
-37.86021632814294
30
0.0
11
-46.3166302925993
21
-37.568060230527514
31
0.0
0
LINE
8
1
62
1
10
-46.3166302925993
20
-37.568060230527514
30
0.0
11
-46.10954568560702
21
-37.31583285951457
31
0.0
0
LINE
8
1
62
1
10
-46.10954568560702
20
-37.31583285951457
30
0.0
11
-45.92417600825951
21
-37.10221302819583
31
0.0
0
LINE
8
1
62
1
10
-45.92417600825951
20
-37.10221302819583
30
0.0
11
-45.76245526052951
21
-36.925801068611186
31
0.0
0
LINE
8
1
62
1
10
-45.76245526052951
20
-36.925801068611186
30
0.0
11
-45.6262565032508
21
-36.785121041557524
31
0.0
0
LINE
8
1
62
1
10
-45.6262565032508
20
-36.785121041557524
30
0.0
11
-45.51738915056528
21
-36.678623039569175
31
0.0
0
LINE
8
1
62
1
10
-45.51738915056528
20
-36.678623039569175
30
0.0
11
-45.437596343202465
21
-36.60468558045294
31
0.0
0
LINE
8
1
62
1
10
-45.437596343202465
20
-36.60468558045294
30
0.0
11
-45.38855240550577
21
-36.56161808866738
31
0.0
0
LINE
8
1
62
1
10
-45.38855240550577
20
-36.56161808866738
30
0.0
11
-45.37186038903152
21
-36.54766346174415
31
0.0
0
LINE
8
1
62
1
10
-45.37186038903152
20
-36.54766346174415
30
0.0
11
-44.87546235798968
21
-36.14780795601807
31
0.0
0
LINE
8
1
62
1
10
-44.87546235798968
20
-36.14780795601807
30
0.0
11
-47.04864184633929
21
-33.27005323535573
31
0.0
0
LINE
8
1
62
1
10
-47.04864184633929
20
-33.27005323535573
30
0.0
11
-47.56907889475127
21
-33.63807593753848
31
0.0
0
LINE
8
1
62
1
10
-47.56907889475127
20
-33.63807593753848
30
0.0
11
-47.587068799905616
21
-33.65031188209053
31
0.0
0
LINE
8
1
62
1
10
-47.587068799905616
20
-33.65031188209053
30
0.0
11
-47.641913728527086
21
-33.68569762043244
31
0.0
0
LINE
8
1
62
1
10
-47.641913728527086
20
-33.68569762043244
30
0.0
11
-47.73486501094528
21
-33.742210442554665
31
0.0
0
LINE
8
1
62
1
10
-47.73486501094528
20
-33.742210442554665
30
0.0
11
-47.867090485461496
21
-33.8177772924111
31
0.0
0
LINE
8
1
62
1
10
-47.867090485461496
20
-33.8177772924111
30
0.0
11
-48.03967270212494
21
-33.910277832883104
31
0.0
0
LINE
8
1
62
1
10
-48.03967270212494
20
-33.910277832883104
30
0.0
11
-48.253607231996305
21
-34.017547570738486
31
0.0
0
LINE
8
1
62
1
10
-48.253607231996305
20
-34.017547570738486
30
0.0
11
-48.50980108382054
21
-34.13738103810062
31
0.0
0
LINE
8
1
62
1
10
-48.50980108382054
20
-34.13738103810062
30
0.0
11
-48.80907122991827
21
-34.26753502688273
31
0.0
0
LINE
8
1
62
1
10
-48.80907122991827
20
-34.26753502688273
30
0.0
11
-49.15214324299197
21
-34.405731872586365
31
0.0
0
LINE
8
1
62
1
10
-49.15214324299197
20
-34.405731872586365
30
0.0
11
-49.53965004542737
21
-34.54966278381027
31
0.0
0
LINE
8
1
62
1
10
-49.53965004542737
20
-34.54966278381027
30
0.0
11
-49.972130772553456
21
-34.696991213766914
31
0.0
0
LINE
8
1
62
1
10
-49.972130772553456
20
-34.696991213766914
30
0.0
11
-50.45002975120597
21
-34.845356270058346
31
0.0
0
LINE
8
1
62
1
10
-50.45002975120597
20
-34.845356270058346
30
0.0
11
-50.97369559481957
21
-34.99237615892166
31
0.0
0
LINE
8
1
62
1
10
-50.97369559481957
20
-34.99237615892166
30
0.0
11
-51.543380416152196
21
-35.1356516601162
31
0.0
0
LINE
8
1
62
1
10
-51.543380416152196
20
-35.1356516601162
30
0.0
11
-52.1592391586233
21
-35.272769628590666
31
0.0
0
LINE
8
1
62
1
10
-52.1592391586233
20
-35.272769628590666
30
0.0
11
-52.82132904712418
21
-35.401306519038066
31
0.0
0
LINE
8
1
62
1
10
-52.82132904712418
20
-35.401306519038066
30
0.0
11
-53.529609159033924
21
-35.51883192941959
31
0.0
0
LINE
8
1
62
1
10
-53.529609159033924
20
-35.51883192941959
30
0.0
11
-54.28394011605039
21
-35.62291215951681
31
0.0
0
LINE
8
1
62
1
10
-54.28394011605039
20
-35.62291215951681
30
0.0
11
-55.08408389731871
21
-35.711113780552026
31
0.0
0
LINE
8
1
62
1
10
-55.08408389731871
20
-35.711113780552026
30
0.0
11
-56.52036713560178
21
-33.391436703310106
31
0.0
0
LINE
8
1
62
1
10
-56.52036713560178
20
-33.391436703310106
30
0.0
11
-56.08475750876568
21
-32.71449220804973
31
0.0
0
LINE
8
1
62
1
10
-56.08475750876568
20
-32.71449220804973
30
0.0
11
-55.655354466935
21
-32.08563537642824
31
0.0
0
LINE
8
1
62
1
10
-55.655354466935
20
-32.08563537642824
30
0.0
11
-55.234442421248154
21
-31.503994603435206
31
0.0
0
LINE
8
1
62
1
10
-55.234442421248154
20
-31.503994603435206
30
0.0
11
-54.824262057058064
21
-30.9686098618765
31
0.0
0
LINE
8
1
62
1
10
-54.824262057058064
20
-30.9686098618765
30
0.0
11
-54.42700722183486
21
-30.478434460771506
31
0.0
0
LINE
8
1
62
1
10
-54.42700722183486
20
-30.478434460771506
30
0.0
11
-54.044821877043354
21
-30.032336907397884
31
0.0
0
LINE
8
1
62
1
10
-54.044821877043354
20
-30.032336907397884
30
0.0
11
-53.67979711732516
21
-29.62910287078689
31
0.0
0
LINE
8
1
62
1
10
-53.67979711732516
20
-29.62910287078689
30
0.0
11
-53.33396826024138
21
-29.267437244367112
31
0.0
0
LINE
8
1
62
1
10
-53.33396826024138
20
-29.267437244367112
30
0.0
11
-53.009312009757
21
-28.945966305353316
31
0.0
0
LINE
8
1
62
1
10
-53.009312009757
20
-28.945966305353316
30
0.0
11
-52.707743696568286
21
-28.663239968377127
31
0.0
0
LINE
8
1
62
1
10
-52.707743696568286
20
-28.663239968377127
30
0.0
11
-52.43111459829293
21
-28.417734130759705
31
0.0
0
LINE
8
1
62
1
10
-52.43111459829293
20
-28.417734130759705
30
0.0
11
-52.18120934245713
21
-28.20785310673205
31
0.0
0
LINE
8
1
62
1
10
-52.18120934245713
20
-28.20785310673205
30
0.0
11
-51.959743395126566
21
-28.031932147817137
31
0.0
0
LINE
8
1
62
1
10
-51.959743395126566
20
-28.031932147817137
30
0.0
11
-51.768360637936446
21
-27.888240046499227
31
0.0
0
LINE
8
1
62
1
10
-51.768360637936446
20
-27.888240046499227
30
0.0
11
-51.60863103618358
21
-27.77498182021986
31
0.0
0
LINE
8
1
62
1
10
-51.60863103618358
20
-27.77498182021986
30
0.0
11
-51.48204840054612
21
-27.690301472657154
31
0.0
0
LINE
8
1
62
1
10
-51.48204840054612
20
-27.690301472657154
30
0.0
11
-51.39002824489903
21
-27.632284829165062
31
0.0
0
LINE
8
1
62
1
10
-51.39002824489903
20
-27.632284829165062
30
0.0
11
-51.33390574259143
21
-27.5989624431726
31
0.0
0
LINE
8
1
62
1
10
-51.33390574259143
20
-27.5989624431726
30
0.0
11
-51.31493378344931
21
-27.588312570269473
31
0.0
0
LINE
8
1
62
1
10
-51.31493378344931
20
-27.588312570269473
30
0.0
11
-50.753514615825665
21
-27.286478263229263
31
0.0
0
LINE
8
1
62
1
10
-50.753514615825665
20
-27.286478263229263
30
0.0
11
-52.3609055513421
21
-24.058402102216693
31
0.0
0
LINE
8
1
62
1
10
-52.3609055513421
20
-24.058402102216693
30
0.0
11
-52.9401051640816
21
-24.324528461835733
31
0.0
0
LINE
8
1
62
1
10
-52.9401051640816
20
-24.324528461835733
30
0.0
11
-52.960037105825656
21
-24.333250429781945
31
0.0
0
LINE
8
1
62
1
10
-52.960037105825656
20
-24.333250429781945
30
0.0
11
-53.020450307672554
21
-24.35795592949562
31
0.0
0
LINE
8
1
62
1
10
-53.020450307672554
20
-24.35795592949562
30
0.0
11
-53.12220312168617
21
-24.39642676010421
31
0.0
0
LINE
8
1
62
1
10
-53.12220312168617
20
-24.39642676010421
30
0.0
11
-53.2660625784526
21
-24.446410573555514
31
0.0
0
LINE
8
1
62
1
10
-53.2660625784526
20
-24.446410573555514
30
0.0
11
-53.452703184626074
21
-24.50562421745009
31
0.0
0
LINE
8
1
62
1
10
-53.452703184626074
20
-24.50562421745009
30
0.0
11
-53.68270583519039
21
-24.571757117463903
31
0.0
0
LINE
8
1
62
1
10
-53.68270583519039
20
-24.571757117463903
30
0.0
11
-53.95655684168409
21
-24.642474695582457
31
0.0
0
LINE
8
1
62
1
10
-53.95655684168409
20
-24.642474695582457
30
0.0
11
-54.274647077517244
21
-24.715421820329485
31
0.0
0
LINE
8
1
62
1
10
-54.274647077517244
20
-24.715421820329485
30
0.0
11
-54.63727124138491
21
-24.788226285138666
31
0.0
0
LINE
8
1
62
1
10
-54.63727124138491
20
-24.788226285138666
30
0.0
11
-55.04462723965973
21
-24.858502310986612
31
0.0
0
LINE
8
1
62
1
10
-55.04462723965973
20
-24.858502310986612
30
0.0
11
-55.49681568852161
21
-24.92385406937828
31
0.0
0
LINE
8
1
62
1
10
-55.49681568852161
20
-24.92385406937828
30
0.0
11
-55.99383953645783
21
-24.981879221753413
31
0.0
0
LINE
8
1
62
1
10
-55.99383953645783
20
-24.981879221753413
30
0.0
11
-56.535603807641344
21
-25.03017247136356
31
0.0
0
LINE
8
1
62
1
10
-56.535603807641344
20
-25.03017247136356
30
0.0
11
-57.12191546656897
21
-25.06632912365423
31
0.0
0
LINE
8
1
62
1
10
-57.12191546656897
20
-25.06632912365423
30
0.0
11
-57.752483404214395
21
-25.087948651175754
31
0.0
0
LINE
8
1
62
1
10
-57.752483404214395
20
-25.087948651175754
30
0.0
11
-58.42691854582483
21
-25.092638259039298
31
0.0
0
LINE
8
1
62
1
10
-58.42691854582483
20
-25.092638259039298
30
0.0
11
-59.14473408036201
21
-25.078016446931166
31
0.0
0
LINE
8
1
62
1
10
-59.14473408036201
20
-25.078016446931166
30
0.0
11
-59.9053458114626
21
-25.041716563699758
31
0.0
0
LINE
8
1
62
1
10
-59.9053458114626
20
-25.041716563699758
30
0.0
11
-60.708072629664585
21
-24.981390350533903
31
0.0
0
LINE
8
1
62
1
10
-60.708072629664585
20
-24.981390350533903
30
0.0
11
-61.69366087199037
21
-22.437293831169193
31
0.0
0
LINE
8
1
62
1
10
-61.69366087199037
20
-22.437293831169193
30
0.0
11
-61.14108010225446
21
-21.851918661236528
31
0.0
0
LINE
8
1
62
1
10
-61.14108010225446
20
-21.851918661236528
30
0.0
11
-60.60343632362636
21
-21.312671914085513
31
0.0
0
LINE
8
1
62
1
10
-60.60343632362636
20
-21.312671914085513
30
0.0
11
-60.082814893803345
21
-20.818277065992156
31
0.0
0
LINE
8
1
62
1
10
-60.082814893803345
20
-20.818277065992156
30
0.0
11
-59.58124194167817
21
-20.367378711196487
31
0.0
0
LINE
8
1
62
1
10
-59.58124194167817
20
-20.367378711196487
30
0.0
11
-59.10068163133582
21
-19.958544862206075
31
0.0
0
LINE
8
1
62
1
10
-59.10068163133582
20
-19.958544862206075
30
0.0
11
-58.6430335079808
21
-19.590269340227
31
0.0
0
LINE
8
1
62
1
10
-58.6430335079808
20
-19.590269340227
30
0.0
11
-58.210129928664735
21
-19.26097425295077
31
0.0
0
LINE
8
1
62
1
10
-58.210129928664735
20
-19.26097425295077
30
0.0
11
-57.803733580591484
21
-18.969012556836002
31
0.0
0
LINE
8
1
62
1
10
-57.803733580591484
20
-18.969012556836002
30
0.0
11
-57.425535089685276
21
-18.712670700937952
31
0.0
0
LINE
8
1
62
1
10
-57.425535089685276
20
-18.712670700937952
30
0.0
11
-57.0771507220103
21
-18.490171349255377
31
0.0
0
LINE
8
1
62
1
10
-57.0771507220103
20
-18.490171349255377
30
0.0
11
-56.76012018053245
21
-18.299676178484212
31
0.0
0
LINE
8
1
62
1
10
-56.76012018053245
20
-18.299676178484212
30
0.0
11
-56.47590449961231
21
-18.139288747990573
31
0.0
0
LINE
8
1
62
1
10
-56.47590449961231
20
-18.139288747990573
30
0.0
11
-56.22588403951591
21
-18.007057438741402
31
0.0
0
LINE
8
1
62
1
10
-56.22588403951591
20
-18.007057438741402
30
0.0
11
-56.01135658312348
21
-17.900978457860933
31
0.0
0
LINE
8
1
62
1
10
-56.01135658312348
20
-17.900978457860933
30
0.0
11
-55.83353553690959
21
-17.818998905413522
31
0.0
0
LINE
8
1
62
1
10
-55.83353553690959
20
-17.818998905413522
30
0.0
11
-55.693548238157696
21
-17.759019899949834
31
0.0
0
LINE
8
1
62
1
10
-55.693548238157696
20
-17.759019899949834
30
0.0
11
-55.59243437026087
21
-17.718899759292714
31
0.0
0
LINE
8
1
62
1
10
-55.59243437026087
20
-17.718899759292714
30
0.0
11
-55.53114448784694
21
-17.696457232982517
31
0.0
0
LINE
8
1
62
1
10
-55.53114448784694
20
-17.696457232982517
30
0.0
11
-55.510538653351176
21
-17.689474782748093
31
0.0
0
LINE
8
1
62
1
10
-55.510538653351176
20
-17.689474782748093
30
0.0
11
-54.90321680555107
21
-17.49594027970966
31
0.0
0
LINE
8
1
62
1
10
-54.90321680555107
20
-17.49594027970966
30
0.0
11
-55.89008141777825
21
-14.02747094035953
31
0.0
0
LINE
8
1
62
1
10
-55.89008141777825
20
-14.02747094035953
30
0.0
11
-56.50831964670679
21
-14.182638343421424
31
0.0
0
LINE
8
1
62
1
10
-56.50831964670679
20
-14.182638343421424
30
0.0
11
-56.52951486667019
21
-14.187549318604237
31
0.0
0
LINE
8
1
62
1
10
-56.52951486667019
20
-14.187549318604237
30
0.0
11
-56.59343904261127
21
-14.200733263527907
31
0.0
0
LINE
8
1
62
1
10
-56.59343904261127
20
-14.200733263527907
30
0.0
11
-56.70052831817812
21
-14.219852024627162
31
0.0
0
LINE
8
1
62
1
10
-56.70052831817812
20
-14.219852024627162
30
0.0
11
-56.85112279593496
21
-14.242550662855233
31
0.0
0
LINE
8
1
62
1
10
-56.85112279593496
20
-14.242550662855233
30
0.0
11
-57.04546596962599
21
-14.266460960548494
31
0.0
0
LINE
8
1
62
1
10
-57.04546596962599
20
-14.266460960548494
30
0.0
11
-57.28370427647605
21
-14.289204946128429
31
0.0
0
LINE
8
1
62
1
10
-57.28370427647605
20
-14.289204946128429
30
0.0
11
-57.56588677006117
21
-14.308398432696963
31
0.0
0
LINE
8
1
62
1
10
-57.56588677006117
20
-14.308398432696963
30
0.0
11
-57.891964914155636
21
-14.321654566566075
31
0.0
0
LINE
8
1
62
1
10
-57.891964914155636
20
-14.321654566566075
30
0.0
11
-58.2617924978365
21
-14.326587381751063
31
0.0
0
LINE
8
1
62
1
10
-58.2617924978365
20
-14.326587381751063
30
0.0
11
-58.675125671999155
21
-14.320815356449597
31
0.0
0
LINE
8
1
62
1
10
-58.675125671999155
20
-14.320815356449597
30
0.0
11
-59.1316231073111
21
-14.301964967525057
31
0.0
0
LINE
8
1
62
1
10
-59.1316231073111
20
-14.301964967525057
30
0.0
11
-59.630846273503956
21
-14.267674239013255
31
0.0
0
LINE
8
1
62
1
10
-59.630846273503956
20
-14.267674239013255
30
0.0
11
-60.17225983977687
21
-14.215596280676133
31
0.0
0
LINE
8
1
62
1
10
-60.17225983977687
20
-14.215596280676133
30
0.0
11
-60.75523219595803
21
-14.143402812634301
31
0.0
0
LINE
8
1
62
1
10
-60.75523219595803
20
-14.143402812634301
30
0.0
11
-61.379036093944144
21
-14.048787672122899
31
0.0
0
LINE
8
1
62
1
10
-61.379036093944144
20
-14.048787672122899
30
0.0
11
-62.04284940881237
21
-13.92947029843136
31
0.0
0
LINE
8
1
62
1
10
-62.04284940881237
20
-13.92947029843136
30
0.0
11
-62.74575601887317
21
-13.78319919210798
31
0.0
0
LINE
8
1
62
1
10
-62.74575601887317
20
-13.78319919210798
30
0.0
11
-63.486746803808494
21
-13.607755344534484
31
0.0
0
LINE
8
1
62
1
10
-63.486746803808494
20
-13.607755344534484
30
0.0
11
-64.26472075991497
21
-13.400955634003605
31
0.0
0
LINE
8
1
62
1
10
-64.26472075991497
20
-13.400955634003605
30
0.0
11
-64.76605098077388
21
-10.719075828175601
31
0.0
0
LINE
8
1
62
1
10
-64.76605098077388
20
-10.719075828175601
30
0.0
11
-64.11531654350394
21
-10.245204232902584
31
0.0
0
LINE
8
1
62
1
10
-64.11531654350394
20
-10.245204232902584
30
0.0
11
-63.48774084212695
21
-9.813930971441085
31
0.0
0
LINE
8
1
62
1
10
-63.48774084212695
20
-9.813930971441085
30
0.0
11
-62.8851391665438
21
-9.423618071837957
31
0.0
0
LINE
8
1
62
1
10
-62.8851391665438
20
-9.423618071837957
30
0.0
11
-62.309254091797726
21
-9.072560906484918
31
0.0
0
LINE
8
1
62
1
10
-62.309254091797726
20
-9.072560906484918
30
0.0
11
-61.76175321133636
21
-8.758990955994301
31
0.0
0
LINE
8
1
62
1
10
-61.76175321133636
20
-8.758990955994301
30
0.0
11
-61.24422696737026
21
-8.481078646612966
31
0.0
0
LINE
8
1
62
1
10
-61.24422696737026
20
-8.481078646612966
30
0.0
11
-60.758186580639325
21
-8.236936257922766
31
0.0
0
LINE
8
1
62
1
10
-60.758186580639325
20
-8.236936257922766
30
0.0
11
-60.30506208179155
21
-8.024620897504736
31
0.0
0
LINE
8
1
62
1
10
-60.30506208179155
20
-8.024620897504736
30
0.0
11
-59.88620044647222
21
-7.84213753917688
31
0.0
0
LINE
8
1
62
1
10
-59.88620044647222
20
-7.84213753917688
30
0.0
11
-59.50286383611117
21
-7.6874421213509025
31
0.0
0
LINE
8
1
62
1
10
-59.50286383611117
20
-7.6874421213509025
30
0.0
11
-59.15622794628463
21
-7.558444701992842
31
0.0
0
LINE
8
1
62
1
10
-59.15622794628463
20
-7.558444701992842
30
0.0
11
-58.84738046441474
21
-7.453012666615157
31
0.0
0
LINE
8
1
62
1
10
-58.84738046441474
20
-7.453012666615157
30
0.0
11
-58.5773196384546
21
-7.36897398567423
31
0.0
0
LINE
8
1
62
1
10
-58.5773196384546
20
-7.36897398567423
30
0.0
11
-58.346952958089965
21
-7.304120517697367
31
0.0
0
LINE
8
1
62
1
10
-58.346952958089965
20
-7.304120517697367
30
0.0
11
-58.157095949871035
21
-7.256211354416879
31
0.0
0
LINE
8
1
62
1
10
-58.157095949871035
20
-7.256211354416879
30
0.0
11
-58.00847108756744
21
-7.222976204146384
31
0.0
0
LINE
8
1
62
1
10
-58.00847108756744
20
-7.222976204146384
30
0.0
11
-57.90170681891939
21
-7.202118809595514
31
0.0
0
LINE
8
1
62
1
10
-57.90170681891939
20
-7.202118809595514
30
0.0
11
-57.837336709835625
21
-7.191320396284235
31
0.0
0
LINE
8
1
62
1
10
-57.837336709835625
20
-7.191320396284235
30
0.0
11
-57.815798706966
21
-7.188243147686719
31
0.0
0
LINE
8
1
62
1
10
-57.815798706966
20
-7.188243147686719
30
0.0
11
-57.18325579611399
21
-7.109599034031986
31
0.0
0
LINE
8
1
62
1
10
-57.18325579611399
20
-7.109599034031986
30
0.0
11
-57.51598759429614
21
-3.518851079725459
31
0.0
0
LINE
8
1
62
1
10
-57.51598759429614
20
-3.518851079725459
30
0.0
11
-58.15221107802259
21
-3.55777548642172
31
0.0
0
LINE
8
1
62
1
10
-58.15221107802259
20
-3.55777548642172
30
0.0
11
-58.173947798410346
21
-3.5587082314713485
31
0.0
0
LINE
8
1
62
1
10
-58.173947798410346
20
-3.5587082314713485
30
0.0
11
-58.239206087302534
21
-3.559921658173035
31
0.0
0
LINE
8
1
62
1
10
-58.239206087302534
20
-3.559921658173035
30
0.0
11
-58.347985027582624
21
-3.5590372832841526
31
0.0
0
LINE
8
1
62
1
10
-58.347985027582624
20
-3.5590372832841526
30
0.0
11
-58.500186212008046
21
-3.553677771388144
31
0.0
0
LINE
8
1
62
1
10
-58.500186212008046
20
-3.553677771388144
30
0.0
11
-58.695613829525506
21
-3.541470486369386
31
0.0
0
LINE
8
1
62
1
10
-58.695613829525506
20
-3.541470486369386
30
0.0
11
-58.9339748728569
21
-3.520051038364924
31
0.0
0
LINE
8
1
62
1
10
-58.9339748728569
20
-3.520051038364924
30
0.0
11
-59.21487946715498
21
-3.4870668222183965
31
0.0
0
LINE
8
1
62
1
10
-59.21487946715498
20
-3.4870668222183965
30
0.0
11
-59.53784131940125
21
-3.4401805434696624
31
0.0
0
LINE
8
1
62
1
10
-59.53784131940125
20
-3.4401805434696624
30
0.0
11
-59.90227828809236
21
-3.3770737279255907
31
0.0
0
LINE
8
1
62
1
10
-59.90227828809236
20
-3.3770737279255907
30
0.0
11
-60.30751307263524
21
-3.2954502108735757
31
0.0
0
LINE
8
1
62
1
10
-60.30751307263524
20
-3.2954502108735757
30
0.0
11
-60.75277402174604
21
-3.193039602019102
31
0.0
0
LINE
8
1
62
1
10
-60.75277402174604
20
-3.193039602019102
30
0.0
11
-61.23719606002301
21
-3.0676007222526396
31
0.0
0
LINE
8
1
62
1
10
-61.23719606002301
20
-3.0676007222526396
30
0.0
11
-61.7598217317399
21
-2.91692500837879
31
0.0
0
LINE
8
1
62
1
10
-61.7598217317399
20
-2.91692500837879
30
0.0
11
-62.31960236078313
21
-2.7388398819721007
31
0.0
0
LINE
8
1
62
1
10
-62.31960236078313
20
-2.7388398819721007
30
0.0
11
-62.915399325534324
21
-2.5312120785595353
31
0.0
0
LINE
8
1
62
1
10
-62.915399325534324
20
-2.5312120785595353
30
0.0
11
-63.54598544737883
21
-2.2919509333685646
31
0.0
0
LINE
8
1
62
1
10
-63.54598544737883
20
-2.2919509333685646
30
0.0
11
-64.21004649140119
21
-2.019011619922928
31
0.0
0
LINE
8
1
62
1
10
-64.21004649140119
20
-2.019011619922928
30
0.0
11
-64.90618277771074
21
-1.71039833781475
31
0.0
0
LINE
8
1
62
1
10
-64.90618277771074
20
-1.71039833781475
30
0.0
11
-65.63291090172342
21
-1.364167446032063
31
0.0
0
LINE
8
1
62
1
10
-65.63291090172342
20
-1.364167446032063
30
0.0
11
-65.63291090172342
21
1.364167446032047
31
0.0
0
LINE
8
1
62
1
10
-65.63291090172342
20
1.364167446032047
30
0.0
11
-64.90618277771074
21
1.710398337814734
31
0.0
0
LINE
8
1
62
1
10
-64.90618277771074
20
1.710398337814734
30
0.0
11
-64.21004649140119
21
2.019011619922912
31
0.0
0
LINE
8
1
62
1
10
-64.21004649140119
20
2.019011619922912
30
0.0
11
-63.54598544737883
21
2.2919509333685486
31
0.0
0
LINE
8
1
62
1
10
-63.54598544737883
20
2.2919509333685486
30
0.0
11
-62.915399325534324
21
2.5312120785595202
31
0.0
0
LINE
8
1
62
1
10
-62.915399325534324
20
2.5312120785595202
30
0.0
11
-62.31960236078313
21
2.7388398819720856
31
0.0
0
LINE
8
1
62
1
10
-62.31960236078313
20
2.7388398819720856
30
0.0
11
-61.7598217317399
21
2.916925008378775
31
0.0
0
LINE
8
1
62
1
10
-61.7598217317399
20
2.916925008378775
30
0.0
11
-61.23719606002301
21
3.0676007222526245
31
0.0
0
LINE
8
1
62
1
10
-61.23719606002301
20
3.0676007222526245
30
0.0
11
-60.75277402174604
21
3.1930396020190868
31
0.0
0
LINE
8
1
62
1
10
-60.75277402174604
20
3.1930396020190868
30
0.0
11
-60.30751307263524
21
3.295450210873561
31
0.0
0
LINE
8
1
62
1
10
-60.30751307263524
20
3.295450210873561
30
0.0
11
-59.90227828809236
21
3.3770737279255765
31
0.0
0
LINE
8
1
62
1
10
-59.90227828809236
20
3.3770737279255765
30
0.0
11
-59.53784131940125
21
3.4401805434696477
31
0.0
0
LINE
8
1
62
1
10
-59.53784131940125
20
3.4401805434696477
30
0.0
11
-59.21487946715498
21
3.4870668222183823
31
0.0
0
LINE
8
1
62
1
10
-59.21487946715498
20
3.4870668222183823
30
0.0
11
-58.9339748728569
21
3.52005103836491
31
0.0
0
LINE
8
1
62
1
10
-58.9339748728569
20
3.52005103836491
30
0.0
11
-58.695613829525506
21
3.541470486369372
31
0.0
0
LINE
8
1
62
1
10
-58.695613829525506
20
3.541470486369372
30
0.0
11
-58.500186212008046
21
3.55367777138813
31
0.0
0
LINE
8
1
62
1
10
-58.500186212008046
20
3.55367777138813
30
0.0
11
-58.347985027582624
21
3.5590372832841384
31
0.0
0
LINE
8
1
62
1
10
-58.347985027582624
20
3.5590372832841384
30
0.0
11
-58.239206087302534
21
3.559921658173021
31
0.0
0
LINE
8
1
62
1
10
-58.239206087302534
20
3.559921658173021
30
0.0
11
-58.173947798410346
21
3.5587082314713343
31
0.0
0
LINE
8
1
62
1
10
-58.173947798410346
20
3.5587082314713343
30
0.0
11
-58.15221107802259
21
3.557775486421706
31
0.0
0
LINE
8
1
62
1
10
-58.15221107802259
20
3.557775486421706
30
0.0
11
-57.51598759429614
21
3.518851079725445
31
0.0
0
LINE
8
1
62
1
10
-57.51598759429614
20
3.518851079725445
30
0.0
11
-57.18325579611399
21
7.109599034031973
31
0.0
0
LINE
8
1
62
1
10
-57.18325579611399
20
7.109599034031973
30
0.0
11
-57.815798706966
21
7.1882431476867055
31
0.0
0
LINE
8
1
62
1
10
-57.815798706966
20
7.1882431476867055
30
0.0
11
-57.837336709835625
21
7.191320396284222
31
0.0
0
LINE
8
1
62
1
10
-57.837336709835625
20
7.191320396284222
30
0.0
11
-57.90170681891939
21
7.2021188095955
31
0.0
0
LINE
8
1
62
1
10
-57.90170681891939
20
7.2021188095955
30
0.0
11
-58.00847108756744
21
7.22297620414637
31
0.0
0
LINE
8
1
62
1
10
-58.00847108756744
20
7.22297620414637
30
0.0
11
-58.157095949871035
21
7.256211354416866
31
0.0
0
LINE
8
1
62
1
10
-58.157095949871035
20
7.256211354416866
30
0.0
11
-58.346952958089965
21
7.304120517697353
31
0.0
0
LINE
8
1
62
1
10
-58.346952958089965
20
7.304120517697353
30
0.0
11
-58.5773196384546
21
7.368973985674216
31
0.0
0
LINE
8
1
62
1
10
-58.5773196384546
20
7.368973985674216
30
0.0
11
-58.84738046441474
21
7.453012666615143
31
0.0
0
LINE
8
1
62
1
10
-58.84738046441474
20
7.453012666615143
30
0.0
11
-59.15622794628463
21
7.558444701992829
31
0.0
0
LINE
8
1
62
1
10
-59.15622794628463
20
7.558444701992829
30
0.0
11
-59.50286383611117
21
7.687442121350888
31
0.0
0
LINE
8
1
62
1
10
-59.50286383611117
20
7.687442121350888
30
0.0
11
-59.88620044647222
21
7.842137539176866
31
0.0
0
LINE
8
1
62
1
10
-59.88620044647222
20
7.842137539176866
30
0.0
11
-60.30506208179155
21
8.024620897504722
31
0.0
0
LINE
8
1
62
1
10
-60.30506208179155
20
8.024620897504722
30
0.0
11
-60.758186580639325
21
8.236936257922752
31
0.0
0
LINE
8
1
62
1
10
-60.758186580639325
20
8.236936257922752
30
0.0
11
-61.24422696737026
21
8.481078646612952
31
0.0
0
LINE
8
1
62
1
10
-61.24422696737026
20
8.481078646612952
30
0.0
11
-61.76175321133637
21
8.758990955994285
31
0.0
0
LINE
8
1
62
1
10
-61.76175321133637
20
8.758990955994285
30
0.0
11
-62.309254091797726
21
9.072560906484902
31
0.0
0
LINE
8
1
62
1
10
-62.309254091797726
20
9.072560906484902
30
0.0
11
-62.8851391665438
21
9.423618071837943
31
0.0
0
LINE
8
1
62
1
10
-62.8851391665438
20
9.423618071837943
30
0.0
11
-63.48774084212695
21
9.813930971441069
31
0.0
0
LINE
8
1
62
1
10
-63.48774084212695
20
9.813930971441069
30
0.0
11
-64.11531654350394
21
10.24520423290257
31
0.0
0
LINE
8
1
62
1
10
-64.11531654350394
20
10.24520423290257
30
0.0
11
-64.76605098077388
21
10.719075828175587
31
0.0
0
LINE
8
1
62
1
10
-64.76605098077388
20
10.719075828175587
30
0.0
11
-64.26472075991498
21
13.40095563400359
31
0.0
0
LINE
8
1
62
1
10
-64.26472075991498
20
13.40095563400359
30
0.0
11
-63.4867468038085
21
13.607755344534468
31
0.0
0
LINE
8
1
62
1
10
-63.4867468038085
20
13.607755344534468
30
0.0
11
-62.74575601887318
21
13.783199192107967
31
0.0
0
LINE
8
1
62
1
10
-62.74575601887318
20
13.783199192107967
30
0.0
11
-62.04284940881238
21
13.929470298431346
31
0.0
0
LINE
8
1
62
1
10
-62.04284940881238
20
13.929470298431346
30
0.0
11
-61.37903609394415
21
14.048787672122884
31
0.0
0
LINE
8
1
62
1
10
-61.37903609394415
20
14.048787672122884
30
0.0
11
-60.75523219595804
21
14.143402812634287
31
0.0
0
LINE
8
1
62
1
10
-60.75523219595804
20
14.143402812634287
30
0.0
11
-60.17225983977688
21
14.215596280676118
31
0.0
0
LINE
8
1
62
1
10
-60.17225983977688
20
14.215596280676118
30
0.0
11
-59.63084627350396
21
14.267674239013242
31
0.0
0
LINE
8
1
62
1
10
-59.63084627350396
20
14.267674239013242
30
0.0
11
-59.13162310731111
21
14.301964967525043
31
0.0
0
LINE
8
1
62
1
10
-59.13162310731111
20
14.301964967525043
30
0.0
11
-58.67512567199916
21
14.320815356449584
31
0.0
0
LINE
8
1
62
1
10
-58.67512567199916
20
14.320815356449584
30
0.0
11
-58.26179249783651
21
14.326587381751049
31
0.0
0
LINE
8
1
62
1
10
-58.26179249783651
20
14.326587381751049
30
0.0
11
-57.89196491415564
21
14.321654566566062
31
0.0
0
LINE
8
1
62
1
10
-57.89196491415564
20
14.321654566566062
30
0.0
11
-57.56588677006118
21
14.30839843269695
31
0.0
0
LINE
8
1
62
1
10
-57.56588677006118
20
14.30839843269695
30
0.0
11
-57.28370427647606
21
14.289204946128416
31
0.0
0
LINE
8
1
62
1
10
-57.28370427647606
20
14.289204946128416
30
0.0
11
-57.045465969625994
21
14.266460960548482
31
0.0
0
LINE
8
1
62
1
10
-57.045465969625994
20
14.266460960548482
30
0.0
11
-56.85112279593497
21
14.242550662855221
31
0.0
0
LINE
8
1
62
1
10
-56.85112279593497
20
14.242550662855221
30
0.0
11
-56.70052831817812
21
14.21985202462715
31
0.0
0
LINE
8
1
62
1
10
-56.70052831817812
20
14.21985202462715
30
0.0
11
-56.59343904261128
21
14.200733263527892
31
0.0
0
LINE
8
1
62
1
10
-56.59343904261128
20
14.200733263527892
30
0.0
11
-56.5295148666702
21
14.187549318604223
31
0.0
0
LINE
8
1
62
1
10
-56.5295148666702
20
14.187549318604223
30
0.0
11
-56.508319646706795
21
14.182638343421411
31
0.0
0
LINE
8
1
62
1
10
-56.508319646706795
20
14.182638343421411
30
0.0
11
-55.890081417778255
21
14.027470940359517
31
0.0
0
LINE
8
1
62
1
10
-55.890081417778255
20
14.027470940359517
30
0.0
11
-54.90321680555108
21
17.49594027970962
31
0.0
0
LINE
8
1
62
1
10
-54.90321680555108
20
17.49594027970962
30
0.0
11
-55.51053865335119
21
17.689474782748054
31
0.0
0
LINE
8
1
62
1
10
-55.51053865335119
20
17.689474782748054
30
0.0
11
-55.53114448784695
21
17.69645723298248
31
0.0
0
LINE
8
1
62
1
10
-55.53114448784695
20
17.69645723298248
30
0.0
11
-55.59243437026088
21
17.718899759292675
31
0.0
0
LINE
8
1
62
1
10
-55.59243437026088
20
17.718899759292675
30
0.0
11
-55.6935482381577
21
17.759019899949795
31
0.0
0
LINE
8
1
62
1
10
-55.6935482381577
20
17.759019899949795
30
0.0
11
-55.8335355369096
21
17.818998905413483
31
0.0
0
LINE
8
1
62
1
10
-55.8335355369096
20
17.818998905413483
30
0.0
11
-56.011356583123494
21
17.900978457860894
31
0.0
0
LINE
8
1
62
1
10
-56.011356583123494
20
17.900978457860894
30
0.0
11
-56.225884039515925
21
18.007057438741363
31
0.0
0
LINE
8
1
62
1
10
-56.225884039515925
20
18.007057438741363
30
0.0
11
-56.47590449961233
21
18.139288747990534
31
0.0
0
LINE
8
1
62
1
10
-56.47590449961233
20
18.139288747990534
30
0.0
11
-56.76012018053246
21
18.299676178484173
31
0.0
0
LINE
8
1
62
1
10
-56.76012018053246
20
18.299676178484173
30
0.0
11
-57.077150722010316
21
18.490171349255334
31
0.0
0
LINE
8
1
62
1
10
-57.077150722010316
20
18.490171349255334
30
0.0
11
-57.42553508968528
21
18.712670700937913
31
0.0
0
LINE
8
1
62
1
10
-57.42553508968528
20
18.712670700937913
30
0.0
11
-57.8037335805915
21
18.96901255683596
31
0.0
0
LINE
8
1
62
1
10
-57.8037335805915
20
18.96901255683596
30
0.0
11
-58.21012992866475
21
19.260974252950728
31
0.0
0
LINE
8
1
62
1
10
-58.21012992866475
20
19.260974252950728
30
0.0
11
-58.64303350798082
21
19.59026934022696
31
0.0
0
LINE
8
1
62
1
10
-58.64303350798082
20
19.59026934022696
30
0.0
11
-59.10068163133583
21
19.958544862206033
31
0.0
0
LINE
8
1
62
1
10
-59.10068163133583
20
19.958544862206033
30
0.0
11
-59.581241941678186
21
20.367378711196444
31
0.0
0
LINE
8
1
62
1
10
-59.581241941678186
20
20.367378711196444
30
0.0
11
-60.08281489380336
21
20.818277065992113
31
0.0
0
LINE
8
1
62
1
10
-60.08281489380336
20
20.818277065992113
30
0.0
11
-60.603436323626376
21
21.312671914085474
31
0.0
0
LINE
8
1
62
1
10
-60.603436323626376
20
21.312671914085474
30
0.0
11
-61.14108010225448
21
21.851918661236486
31
0.0
0
LINE
8
1
62
1
10
-61.14108010225448
20
21.851918661236486
30
0.0
11
-61.69366087199039
21
22.43729383116915
31
0.0
0
LINE
8
1
62
1
10
-61.69366087199039
20
22.43729383116915
30
0.0
11
-60.7080726296646
21
24.981390350533864
31
0.0
0
LINE
8
1
62
1
10
-60.7080726296646
20
24.981390350533864
30
0.0
11
-59.90534581146261
21
25.04171656369972
31
0.0
0
LINE
8
1
62
1
10
-59.90534581146261
20
25.04171656369972
30
0.0
11
-59.14473408036202
21
25.078016446931123
31
0.0
0
LINE
8
1
62
1
10
-59.14473408036202
20
25.078016446931123
30
0.0
11
-58.42691854582484
21
25.092638259039262
31
0.0
0
LINE
8
1
62
1
10
-58.42691854582484
20
25.092638259039262
30
0.0
11
-57.7524834042144
21
25.087948651175715
31
0.0
0
LINE
8
1
62
1
10
-57.7524834042144
20
25.087948651175715
30
0.0
11
-57.121915466568986
21
25.066329123654196
31
0.0
0
LINE
8
1
62
1
10
-57.121915466568986
20
25.066329123654196
30
0.0
11
-56.53560380764136
21
25.030172471363525
31
0.0
0
LINE
8
1
62
1
10
-56.53560380764136
20
25.030172471363525
30
0.0
11
-55.99383953645784
21
24.981879221753374
31
0.0
0
LINE
8
1
62
1
10
-55.99383953645784
20
24.981879221753374
30
0.0
11
-55.49681568852162
21
24.923854069378244
31
0.0
0
LINE
8
1
62
1
10
-55.49681568852162
20
24.923854069378244
30
0.0
11
-55.04462723965975
21
24.858502310986577
31
0.0
0
LINE
8
1
62
1
10
-55.04462723965975
20
24.858502310986577
30
0.0
11
-54.63727124138492
21
24.78822628513863
31
0.0
0
LINE
8
1
62
1
10
-54.63727124138492
20
24.78822628513863
30
0.0
11
-54.27464707751726
21
24.71542182032945
31
0.0
0
LINE
8
1
62
1
10
-54.27464707751726
20
24.71542182032945
30
0.0
11
-53.956556841684105
21
24.642474695582422
31
0.0
0
LINE
8
1
62
1
10
-53.956556841684105
20
24.642474695582422
30
0.0
11
-53.682705835190404
21
24.571757117463868
31
0.0
0
LINE
8
1
62
1
10
-53.682705835190404
20
24.571757117463868
30
0.0
11
-53.45270318462609
21
24.505624217450055
31
0.0
0
LINE
8
1
62
1
10
-53.45270318462609
20
24.505624217450055
30
0.0
11
-53.266062578452605
21
24.44641057355548
31
0.0
0
LINE
8
1
62
1
10
-53.266062578452605
20
24.44641057355548
30
0.0
11
-53.122203121686184
21
24.396426760104173
31
0.0
0
LINE
8
1
62
1
10
-53.122203121686184
20
24.396426760104173
30
0.0
11
-53.02045030767257
21
24.357955929495585
31
0.0
0
LINE
8
1
62
1
10
-53.02045030767257
20
24.357955929495585
30
0.0
11
-52.96003710582567
21
24.33325042978191
31
0.0
0
LINE
8
1
62
1
10
-52.96003710582567
20
24.33325042978191
30
0.0
11
-52.940105164081615
21
24.324528461835698
31
0.0
0
LINE
8
1
62
1
10
-52.940105164081615
20
24.324528461835698
30
0.0
11
-52.360905551342114
21
24.058402102216657
31
0.0
0
LINE
8
1
62
1
10
-52.360905551342114
20
24.058402102216657
30
0.0
11
-50.75351461582567
21
27.28647826322925
31
0.0
0
LINE
8
1
62
1
10
-50.75351461582567
20
27.28647826322925
30
0.0
11
-51.31493378344932
21
27.58831257026946
31
0.0
0
LINE
8
1
62
1
10
-51.31493378344932
20
27.58831257026946
30
0.0
11
-51.33390574259144
21
27.59896244317259
31
0.0
0
LINE
8
1
62
1
10
-51.33390574259144
20
27.59896244317259
30
0.0
11
-51.390028244899035
21
27.63228482916505
31
0.0
0
LINE
8
1
62
1
10
-51.390028244899035
20
27.63228482916505
30
0.0
11
-51.48204840054613
21
27.69030147265714
31
0.0
0
LINE
8
1
62
1
10
-51.48204840054613
20
27.69030147265714
30
0.0
11
-51.60863103618359
21
27.774981820219846
31
0.0
0
LINE
8
1
62
1
10
-51.60863103618359
20
27.774981820219846
30
0.0
11
-51.76836063793645
21
27.888240046499213
31
0.0
0
LINE
8
1
62
1
10
-51.76836063793645
20
27.888240046499213
30
0.0
11
-51.95974339512657
21
28.031932147817127
31
0.0
0
LINE
8
1
62
1
10
-51.95974339512657
20
28.031932147817127
30
0.0
11
-52.18120934245714
21
28.207853106732035
31
0.0
0
LINE
8
1
62
1
10
-52.18120934245714
20
28.207853106732035
30
0.0
11
-52.43111459829293
21
28.41773413075969
31
0.0
0
LINE
8
1
62
1
10
-52.43111459829293
20
28.41773413075969
30
0.0
11
-52.70774369656829
21
28.663239968377113
31
0.0
0
LINE
8
1
62
1
10
-52.70774369656829
20
28.663239968377113
30
0.0
11
-53.009312009757004
21
28.945966305353306
31
0.0
0
LINE
8
1
62
1
10
-53.009312009757004
20
28.945966305353306
30
0.0
11
-53.333968260241384
21
29.267437244367102
31
0.0
0
LINE
8
1
62
1
10
-53.333968260241384
20
29.267437244367102
30
0.0
11
-53.679797117325165
21
29.629102870786877
31
0.0
0
LINE
8
1
62
1
10
-53.679797117325165
20
29.629102870786877
30
0.0
11
-54.04482187704336
21
30.03233690739787
31
0.0
0
LINE
8
1
62
1
10
-54.04482187704336
20
30.03233690739787
30
0.0
11
-54.42700722183487
21
30.478434460771492
31
0.0
0
LINE
8
1
62
1
10
-54.42700722183487
20
30.478434460771492
30
0.0
11
-54.82426205705807
21
30.968609861876487
31
0.0
0
LINE
8
1
62
1
10
-54.82426205705807
20
30.968609861876487
30
0.0
11
-55.23444242124816
21
31.503994603435192
31
0.0
0
LINE
8
1
62
1
10
-55.23444242124816
20
31.503994603435192
30
0.0
11
-55.65535446693501
21
32.08563537642823
31
0.0
0
LINE
8
1
62
1
10
-55.65535446693501
20
32.08563537642823
30
0.0
11
-56.084757508765684
21
32.71449220804971
31
0.0
0
LINE
8
1
62
1
10
-56.084757508765684
20
32.71449220804971
30
0.0
11
-56.52036713560179
21
33.39143670331009
31
0.0
0
LINE
8
1
62
1
10
-56.52036713560179
20
33.39143670331009
30
0.0
11
-55.08408389731872
21
35.71111378055201
31
0.0
0
LINE
8
1
62
1
10
-55.08408389731872
20
35.71111378055201
30
0.0
11
-54.283940116050395
21
35.622912159516794
31
0.0
0
LINE
8
1
62
1
10
-54.283940116050395
20
35.622912159516794
30
0.0
11
-53.52960915903393
21
35.51883192941958
31
0.0
0
LINE
8
1
62
1
10
-53.52960915903393
20
35.51883192941958
30
0.0
11
-52.82132904712419
21
35.40130651903805
31
0.0
0
LINE
8
1
62
1
10
-52.82132904712419
20
35.40130651903805
30
0.0
11
-52.15923915862331
21
35.27276962859065
31
0.0
0
LINE
8
1
62
1
10
-52.15923915862331
20
35.27276962859065
30
0.0
11
-51.5433804161522
21
35.13565166011619
31
0.0
0
LINE
8
1
62
1
10
-51.5433804161522
20
35.13565166011619
30
0.0
11
-50.973695594819574
21
34.992376158921644
31
0.0
0
LINE
8
1
62
1
10
-50.973695594819574
20
34.992376158921644
30
0.0
11
-50.450029751205975
21
34.84535627005833
31
0.0
0
LINE
8
1
62
1
10
-50.450029751205975
20
34.84535627005833
30
0.0
11
-49.97213077255346
21
34.6969912137669
31
0.0
0
LINE
8
1
62
1
10
-49.97213077255346
20
34.6969912137669
30
0.0
11
-49.53965004542738
21
34.549662783810255
31
0.0
0
LINE
8
1
62
1
10
-49.53965004542738
20
34.549662783810255
30
0.0
11
-49.152143242991976
21
34.40573187258636
31
0.0
0
LINE
8
1
62
1
10
-49.152143242991976
20
34.40573187258636
30
0.0
11
-48.809071229918274
21
34.26753502688272
31
0.0
0
LINE
8
1
62
1
10
-48.809071229918274
20
34.26753502688272
30
0.0
11
-48.50980108382055
21
34.137381038100614
31
0.0
0
LINE
8
1
62
1
10
-48.50980108382055
20
34.137381038100614
30
0.0
11
-48.25360723199631
21
34.01754757073847
31
0.0
0
LINE
8
1
62
1
10
-48.25360723199631
20
34.01754757073847
30
0.0
11
-48.039672702124946
21
33.91027783288309
31
0.0
0
LINE
8
1
62
1
10
-48.039672702124946
20
33.91027783288309
30
0.0
11
-47.8670904854615
21
33.817777292411094
31
0.0
0
LINE
8
1
62
1
10
-47.8670904854615
20
33.817777292411094
30
0.0
11
-47.734865010945285
21
33.74221044255465
31
0.0
0
LINE
8
1
62
1
10
-47.734865010945285
20
33.74221044255465
30
0.0
11
-47.64191372852709
21
33.68569762043243
31
0.0
0
LINE
8
1
62
1
10
-47.64191372852709
20
33.68569762043243
30
0.0
11
-47.58706879990562
21
33.65031188209051
31
0.0
0
LINE
8
1
62
1
10
-47.58706879990562
20
33.65031188209051
30
0.0
11
-47.56907889475128
21
33.63807593753847
31
0.0
0
LINE
8
1
62
1
10
-47.56907889475128
20
33.63807593753847
30
0.0
11
-47.048641846339294
21
33.27005323535572
31
0.0
0
LINE
8
1
62
1
10
-47.048641846339294
20
33.27005323535572
30
0.0
11
-44.87546235798967
21
36.147807956018084
31
0.0
0
LINE
8
1
62
1
10
-44.87546235798967
20
36.147807956018084
30
0.0
11
-45.371860389031504
21
36.547663461744165
31
0.0
0
LINE
8
1
62
1
10
-45.371860389031504
20
36.547663461744165
30
0.0
11
-45.388552405505756
21
36.56161808866739
31
0.0
0
LINE
8
1
62
1
10
-45.388552405505756
20
36.56161808866739
30
0.0
11
-45.43759634320246
21
36.604685580452944
31
0.0
0
LINE
8
1
62
1
10
-45.43759634320246
20
36.604685580452944
30
0.0
11
-45.517389150565265
21
36.67862303956919
31
0.0
0
LINE
8
1
62
1
10
-45.517389150565265
20
36.67862303956919
30
0.0
11
-45.62625650325079
21
36.78512104155754
31
0.0
0
LINE
8
1
62
1
10
-45.62625650325079
20
36.78512104155754
30
0.0
11
-45.76245526052949
21
36.92580106861119
31
0.0
0
LINE
8
1
62
1
10
-45.76245526052949
20
36.92580106861119
30
0.0
11
-45.924176008259494
21
37.10221302819584
31
0.0
0
LINE
8
1
62
1
10
-45.924176008259494
20
37.10221302819584
30
0.0
11
-46.109545685607
21
37.315832859514586
31
0.0
0
LINE
8
1
62
1
10
-46.109545685607
20
37.315832859514586
30
0.0
11
-46.316630292599285
21
37.56806023052753
31
0.0
0
LINE
8
1
62
1
10
-46.316630292599285
20
37.56806023052753
30
0.0
11
-46.54343767551043
21
37.860216328142954
31
0.0
0
LINE
8
1
62
1
10
-46.54343767551043
20
37.860216328142954
30
0.0
11
-46.78792038699856
21
38.193541744099896
31
0.0
0
LINE
8
1
62
1
10
-46.78792038699856
20
38.193541744099896
30
0.0
11
-47.047978617833124
21
38.56919445896322
31
0.0
0
LINE
8
1
62
1
10
-47.047978617833124
20
38.56919445896322
30
0.0
11
-47.32146319697545
21
38.98824792655039
31
0.0
0
LINE
8
1
62
1
10
-47.32146319697545
20
38.98824792655039
30
0.0
11
-47.60617865670251
21
39.45168926100527
31
0.0
0
LINE
8
1
62
1
10
-47.60617865670251
20
39.45168926100527
30
0.0
11
-47.89988635939442
21
39.96041752862835
31
0.0
0
LINE
8
1
62
1
10
-47.89988635939442
20
39.96041752862835
30
0.0
11
-48.20030768253961
21
40.51524214646388
31
0.0
0
LINE
8
1
62
1
10
-48.20030768253961
20
40.51524214646388
30
0.0
11
-48.50512725844925
21
41.11688138953507
31
0.0
0
LINE
8
1
62
1
10
-48.50512725844925
20
41.11688138953507
30
0.0
11
-48.81199626511241
21
41.76596100850471
31
0.0
0
LINE
8
1
62
1
10
-48.81199626511241
20
41.76596100850471
30
0.0
11
-49.118535764568314
21
42.463012959426436
31
0.0
0
LINE
8
1
62
1
10
-49.118535764568314
20
42.463012959426436
30
0.0
11
-49.42234008511886
21
43.20847424713388
31
0.0
0
LINE
8
1
62
1
10
-49.42234008511886
20
43.20847424713388
30
0.0
11
-47.58427275392638
21
45.22473806153352
31
0.0
0
LINE
8
1
62
1
10
-47.58427275392638
20
45.22473806153352
30
0.0
11
-46.81395994639611
21
44.99101220671542
31
0.0
0
LINE
8
1
62
1
10
-46.81395994639611
20
44.99101220671542
30
0.0
11
-46.09159759948472
21
44.75009619069505
31
0.0
0
LINE
8
1
62
1
10
-46.09159759948472
20
44.75009619069505
30
0.0
11
-45.41697253992514
21
44.50442574471822
31
0.0
0
LINE
8
1
62
1
10
-45.41697253992514
20
44.50442574471822
30
0.0
11
-44.789774581597406
21
44.25641874132815
31
0.0
0
LINE
8
1
62
1
10
-44.789774581597406
20
44.25641874132815
30
0.0
11
-44.20959736513432
21
44.00847171986225
31
0.0
0
LINE
8
1
62
1
10
-44.20959736513432
20
44.00847171986225
30
0.0
11
-43.675939314725554
21
43.762956445117005
31
0.0
0
LINE
8
1
62
1
10
-43.675939314725554
20
43.762956445117005
30
0.0
11
-43.188204710918185
21
43.52221650298485
31
0.0
0
LINE
8
1
62
1
10
-43.188204710918185
20
43.52221650298485
30
0.0
11
-42.74570487809073
21
43.28856393682485
31
0.0
0
LINE
8
1
62
1
10
-42.74570487809073
20
43.28856393682485
30
0.0
11
-42.34765948515926
21
43.064275928284424
31
0.0
0
LINE
8
1
62
1
10
-42.34765948515926
20
43.064275928284424
30
0.0
11
-41.99319795795703
21
42.851591526240185
31
0.0
0
LINE
8
1
62
1
10
-41.99319795795703
20
42.851591526240185
30
0.0
11
-41.68136100161299
21
42.6527084274737
31
0.0
0
LINE
8
1
62
1
10
-41.68136100161299
20
42.6527084274737
30
0.0
11
-41.411102231141065
21
42.469779812641974
31
0.0
0
LINE
8
1
62
1
10
-41.411102231141065
20
42.469779812641974
30
0.0
11
-41.18128990833952
21
42.30491124104287
31
0.0
0
LINE
8
1
62
1
10
-41.18128990833952
20
42.30491124104287
30
0.0
11
-40.990708782989685
21
42.16015760761271
31
0.0
0
LINE
8
1
62
1
10
-40.990708782989685
20
42.16015760761271
30
0.0
11
-40.83806203623521
21
42.037520165526885
31
0.0
0
LINE
8
1
62
1
10
-40.83806203623521
20
42.037520165526885
30
0.0
11
-40.721973323916856
21
41.93894361770473
31
0.0
0
LINE
8
1
62
1
10
-40.721973323916856
20
41.93894361770473
30
0.0
11
-40.64098891753407
21
41.86631328044659
31
0.0
0
LINE
8
1
62
1
10
-40.64098891753407
20
41.86631328044659
30
0.0
11
-40.59357994040299
21
41.82145232235516
31
0.0
0
LINE
8
1
62
1
10
-40.59357994040299
20
41.82145232235516
30
0.0
11
-40.57814469648187
21
41.806119081613595
31
0.0
0
LINE
8
1
62
1
10
-40.57814469648187
20
41.806119081613595
30
0.0
11
-40.13419307188563
21
41.34873260859539
31
0.0
0
LINE
8
1
62
1
10
-40.13419307188563
20
41.34873260859539
30
0.0
11
-37.469230051737135
21
43.77816740338169
31
0.0
0
LINE
8
1
62
1
10
-37.469230051737135
20
43.77816740338169
30
0.0
11
-37.883702706613846
21
44.262427508119956
31
0.0
0
LINE
8
1
62
1
10
-37.883702706613846
20
44.262427508119956
30
0.0
11
-37.89754635381907
21
44.27921168098015
31
0.0
0
LINE
8
1
62
1
10
-37.89754635381907
20
44.27921168098015
30
0.0
11
-37.93784159442833
21
44.330557666779804
31
0.0
0
LINE
8
1
62
1
10
-37.93784159442833
20
44.330557666779804
30
0.0
11
-38.00268980515304
21
44.41789809002818
31
0.0
0
LINE
8
1
62
1
10
-38.00268980515304
20
44.41789809002818
30
0.0
11
-38.09013452776292
21
44.542587084714754
31
0.0
0
LINE
8
1
62
1
10
-38.09013452776292
20
44.542587084714754
30
0.0
11
-38.19816435524073
21
44.70589822294847
31
0.0
0
LINE
8
1
62
1
10
-38.19816435524073
20
44.70589822294847
30
0.0
11
-38.32471588740933
21
44.90902254309903
31
0.0
0
LINE
8
1
62
1
10
-38.32471588740933
20
44.90902254309903
30
0.0
11
-38.46767675273816
21
45.15306667967478
31
0.0
0
LINE
8
1
62
1
10
-38.46767675273816
20
45.15306667967478
30
0.0
11
-38.62488869296641
21
45.43905109706656
31
0.0
0
LINE
8
1
62
1
10
-38.62488869296641
20
45.43905109706656
30
0.0
11
-38.794150707113765
21
45.767908429178306
31
0.0
0
LINE
8
1
62
1
10
-38.794150707113765
20
45.767908429178306
30
0.0
11
-38.973222251386275
21
46.14048192685536
31
0.0
0
LINE
8
1
62
1
10
-38.973222251386275
20
46.14048192685536
30
0.0
11
-39.15982649142542
21
46.55752401490932
31
0.0
0
LINE
8
1
62
1
10
-39.15982649142542
20
46.55752401490932
30
0.0
11
-39.351653603292185
21
47.01969496042443
31
0.0
0
LINE
8
1
62
1
10
-39.351653603292185
20
47.01969496042443
30
0.0
11
-39.546364119525684
21
47.52756165391497
31
0.0
0
LINE
8
1
62
1
10
-39.546364119525684
20
47.52756165391497
30
0.0
11
-39.74159231656639
21
48.08159650478589
31
0.0
0
LINE
8
1
62
1
10
-39.74159231656639
20
48.08159650478589
30
0.0
11
-39.93494963978951
21
48.68217645243037
31
0.0
0
LINE
8
1
62
1
10
-39.93494963978951
20
48.68217645243037
30
0.0
11
-40.12402816235189
21
49.32958209417797
31
0.0
0
LINE
8
1
62
1
10
-40.12402816235189
20
49.32958209417797
30
0.0
11
-40.30640407401826
21
50.02399693118542
31
0.0
0
LINE
8
1
62
1
10
-40.30640407401826
20
50.02399693118542
30
0.0
11
-40.47964119609901
21
50.765506733240414
31
0.0
0
LINE
8
1
62
1
10
-40.47964119609901
20
50.765506733240414
30
0.0
11
-40.64129451860079
21
51.554099023324305
31
0.0
0
LINE
8
1
62
1
10
-40.64129451860079
20
51.554099023324305
30
0.0
11
-38.46403627294376
21
53.198288128924275
31
0.0
0
LINE
8
1
62
1
10
-38.46403627294376
20
53.198288128924275
30
0.0
11
-37.74978651792362
21
52.826997293985826
31
0.0
0
LINE
8
1
62
1
10
-37.74978651792362
20
52.826997293985826
30
0.0
11
-37.08399196446322
21
52.45744959802098
31
0.0
0
LINE
8
1
62
1
10
-37.08399196446322
20
52.45744959802098
30
0.0
11
-36.46599550453354
21
52.09200012883736
31
0.0
0
LINE
8
1
62
1
10
-36.46599550453354
20
52.09200012883736
30
0.0
11
-35.89504795060876
21
51.732968593553444
31
0.0
0
LINE
8
1
62
1
10
-35.89504795060876
20
51.732968593553444
30
0.0
11
-35.37030949941448
21
51.38263605753247
31
0.0
0
LINE
8
1
62
1
10
-35.37030949941448
20
51.38263605753247
30
0.0
11
-34.89085130478395
21
51.04324173745485
31
0.0
0
LINE
8
1
62
1
10
-34.89085130478395
20
51.04324173745485
30
0.0
11
-34.455657157742294
21
50.71697985204742
31
0.0
0
LINE
8
1
62
1
10
-34.455657157742294
20
50.71697985204742
30
0.0
11
-34.06362527182678
21
50.405996533924075
31
0.0
0
LINE
8
1
62
1
10
-34.06362527182678
20
50.405996533924075
30
0.0
11
-33.71357017154339
21
50.1123868059269
31
0.0
0
LINE
8
1
62
1
10
-33.71357017154339
20
50.1123868059269
30
0.0
11
-33.40422468175345
21
49.83819162528712
31
0.0
0
LINE
8
1
62
1
10
-33.40422468175345
20
49.83819162528712
30
0.0
11
-33.134242015680165
21
49.58539499885229
31
0.0
0
LINE
8
1
62
1
10
-33.134242015680165
20
49.58539499885229
30
0.0
11
-32.9021979591228
21
49.355921172550346
31
0.0
0
LINE
8
1
62
1
10
-32.9021979591228
20
49.355921172550346
30
0.0
11
-32.70659314836745
21
49.15163189818203
31
0.0
0
LINE
8
1
62
1
10
-32.70659314836745
20
49.15163189818203
30
0.0
11
-32.54585543918606
21
48.9743237805507
31
0.0
0
LINE
8
1
62
1
10
-32.54585543918606
20
48.9743237805507
30
0.0
11
-32.41834236422168
21
48.825725707853884
31
0.0
0
LINE
8
1
62
1
10
-32.41834236422168
20
48.825725707853884
30
0.0
11
-32.322343675966145
21
48.70749636817256
31
0.0
0
LINE
8
1
62
1
10
-32.322343675966145
20
48.70749636817256
30
0.0
11
-32.256083972448025
21
48.62122185480335
31
0.0
0
LINE
8
1
62
1
10
-32.256083972448025
20
48.62122185480335
30
0.0
11
-32.21772540266274
21
48.568413363085405
31
0.0
0
LINE
8
1
62
1
10
-32.21772540266274
20
48.568413363085405
30
0.0
11
-32.20537044869405
21
48.55050498127759
31
0.0
0
LINE
8
1
62
1
10
-32.20537044869405
20
48.55050498127759
30
0.0
11
-31.853022488027893
21
48.01933048518796
31
0.0
0
LINE
8
1
62
1
10
-31.853022488027893
20
48.01933048518796
30
0.0
11
-28.787028055460762
21
49.917713865947704
31
0.0
0
LINE
8
1
62
1
10
-28.787028055460762
20
49.917713865947704
30
0.0
11
-29.105460965015677
21
50.469887672637284
31
0.0
0
LINE
8
1
62
1
10
-29.105460965015677
20
50.469887672637284
30
0.0
11
-29.11598481414991
21
50.48892982655807
31
0.0
0
LINE
8
1
62
1
10
-29.11598481414991
20
50.48892982655807
30
0.0
11
-29.146159151581603
21
50.54680578040814
31
0.0
0
LINE
8
1
62
1
10
-29.146159151581603
20
50.54680578040814
30
0.0
11
-29.193854437628843
21
50.644574894428246
31
0.0
0
LINE
8
1
62
1
10
-29.193854437628843
20
50.644574894428246
30
0.0
11
-29.256898705012986
21
50.78320874764694
31
0.0
0
LINE
8
1
62
1
10
-29.256898705012986
20
50.78320874764694
30
0.0
11
-29.333080776482642
21
50.9635896321183
31
0.0
0
LINE
8
1
62
1
10
-29.333080776482642
20
50.9635896321183
30
0.0
11
-29.420153532443678
21
51.18650915773281
31
0.0
0
LINE
8
1
62
1
10
-29.420153532443678
20
51.18650915773281
30
0.0
11
-29.515837224947685
21
51.45266696919316
31
0.0
0
LINE
8
1
62
1
10
-29.515837224947685
20
51.45266696919316
30
0.0
11
-29.61782283434238
21
51.76266957663
31
0.0
0
LINE
8
1
62
1
10
-29.61782283434238
20
51.76266957663
30
0.0
11
-29.72377546484157
21
52.117029301213904
31
0.0
0
LINE
8
1
62
1
10
-29.72377546484157
20
52.117029301213904
30
0.0
11
-29.831337775230917
21
52.516163337000336
31
0.0
0
LINE
8
1
62
1
10
-29.831337775230917
20
52.516163337000336
30
0.0
11
-29.93813344088722
21
52.9603929301231
31
0.0
0
LINE
8
1
62
1
10
-29.93813344088722
20
52.9603929301231
30
0.0
11
-30.04177064325508
21
53.4499426763296
31
0.0
0
LINE
8
1
62
1
10
-30.04177064325508
20
53.4499426763296
30
0.0
11
-30.139845582894182
21
53.98493993772792
31
0.0
0
LINE
8
1
62
1
10
-30.139845582894182
20
53.98493993772792
30
0.0
11
-30.22994601218388
21
54.56541437949185
31
0.0
0
LINE
8
1
62
1
10
-30.22994601218388
20
54.56541437949185
30
0.0
11
-30.309654783749117
21
55.191297627144486
31
0.0
0
LINE
8
1
62
1
10
-30.309654783749117
20
55.191297627144486
30
0.0
11
-30.376553410653063
21
55.86242304491629
31
0.0
0
LINE
8
1
62
1
10
-30.376553410653063
20
55.86242304491629
30
0.0
11
-30.428225634386646
21
56.578525635546036
31
0.0
0
LINE
8
1
62
1
10
-30.428225634386646
20
56.578525635546036
30
0.0
11
-30.46226099667481
21
57.3392420617683
31
0.0
0
LINE
8
1
62
1
10
-30.46226099667481
20
57.3392420617683
30
0.0
11
-30.47625841111181
21
58.14411078960204
31
0.0
0
LINE
8
1
62
1
10
-30.47625841111181
20
58.14411078960204
30
0.0
11
-28.033953169212733
21
59.3602342983985
31
0.0
0
LINE
8
1
62
1
10
-28.033953169212733
20
59.3602342983985
30
0.0
11
-27.40008938546177
21
58.86402234740928
31
0.0
0
LINE
8
1
62
1
10
-27.40008938546177
20
58.86402234740928
30
0.0
11
-26.81353546043791
21
58.37842747506242
31
0.0
0
LINE
8
1
62
1
10
-26.81353546043791
20
58.37842747506242
30
0.0
11
-26.273212728375952
21
57.90564392603674
31
0.0
0
LINE
8
1
62
1
10
-26.273212728375952
20
57.90564392603674
30
0.0
11
-25.777958513026945
21
57.447814247182215
31
0.0
0
LINE
8
1
62
1
10
-25.777958513026945
20
57.447814247182215
30
0.0
11
-25.326528165702484
21
57.007026350942795
31
0.0
0
LINE
8
1
62
1
10
-25.326528165702484
20
57.007026350942795
30
0.0
11
-24.9175972006216
21
56.58531065204442
31
0.0
0
LINE
8
1
62
1
10
-24.9175972006216
20
56.58531065204442
30
0.0
11
-24.54976352506532
21
56.18463728056126
31
0.0
0
LINE
8
1
62
1
10
-24.54976352506532
20
56.18463728056126
30
0.0
11
-24.221549761746182
21
55.80691337438987
31
0.0
0
LINE
8
1
62
1
10
-24.221549761746182
20
55.80691337438987
30
0.0
11
-23.93140566070619
21
55.45398045407684
31
0.0
0
LINE
8
1
62
1
10
-23.93140566070619
20
55.45398045407684
30
0.0
11
-23.677710597964325
21
55.12761188285734
31
0.0
0
LINE
8
1
62
1
10
-23.677710597964325
20
55.12761188285734
30
0.0
11
-23.458776158046398
21
54.829510414671255
31
0.0
0
LINE
8
1
62
1
10
-23.458776158046398
20
54.829510414671255
30
0.0
11
-23.27284879744349
21
54.5613058328303
31
0.0
0
LINE
8
1
62
1
10
-23.27284879744349
20
54.5613058328303
30
0.0
11
-23.118112585962496
21
54.324552681913396
31
0.0
0
LINE
8
1
62
1
10
-23.118112585962496
20
54.324552681913396
30
0.0
11
-22.9926920228521
21
54.12072809536919
31
0.0
0
LINE
8
1
62
1
10
-22.9926920228521
20
54.12072809536919
30
0.0
11
-22.894654924510643
21
53.95122972120334
31
0.0
0
LINE
8
1
62
1
10
-22.894654924510643
20
53.95122972120334
30
0.0
11
-22.822015380508724
21
53.81737374802523
31
0.0
0
LINE
8
1
62
1
10
-22.822015380508724
20
53.81737374802523
30
0.0
11
-22.77273677458884
21
53.720393033622855
31
0.0
0
LINE
8
1
62
1
10
-22.77273677458884
20
53.720393033622855
30
0.0
11
-22.744734867237344
21
53.661435338127056
31
0.0
0
LINE
8
1
62
1
10
-22.744734867237344
20
53.661435338127056
30
0.0
11
-22.73588093636035
21
53.64156166371671
31
0.0
0
LINE
8
1
62
1
10
-22.73588093636035
20
53.64156166371671
30
0.0
11
-22.487135426829973
21
53.054687654946385
31
0.0
0
LINE
8
1
62
1
10
-22.487135426829973
20
53.054687654946385
30
0.0
11
-19.12451834499027
21
54.3573724525077
31
0.0
0
LINE
8
1
62
1
10
-19.12451834499027
20
54.3573724525077
30
0.0
11
-19.33606765840668
21
54.95865634442126
31
0.0
0
LINE
8
1
62
1
10
-19.33606765840668
20
54.95865634442126
30
0.0
11
-19.34291333240963
21
54.97930802168943
31
0.0
0
LINE
8
1
62
1
10
-19.34291333240963
20
54.97930802168943
30
0.0
11
-19.361939215792646
21
55.041743047396096
31
0.0
0
LINE
8
1
62
1
10
-19.361939215792646
20
55.041743047396096
30
0.0
11
-19.390857371400262
21
55.14661144227109
31
0.0
0
LINE
8
1
62
1
10
-19.390857371400262
20
55.14661144227109
30
0.0
11
-19.427354286646164
21
55.29446914442353
31
0.0
0
LINE
8
1
62
1
10
-19.427354286646164
20
55.29446914442353
30
0.0
11
-19.469094313034095
21
55.48577712045488
31
0.0
0
LINE
8
1
62
1
10
-19.469094313034095
20
55.48577712045488
30
0.0
11
-19.51372313451557
21
55.72090059445104
31
0.0
0
LINE
8
1
62
1
10
-19.51372313451557
20
55.72090059445104
30
0.0
11
-19.558871260806484
21
56.00010839574783
31
0.0
0
LINE
8
1
62
1
10
-19.558871260806484
20
56.00010839574783
30
0.0
11
-19.602157541757933
21
56.32357242624062
31
0.0
0
LINE
8
1
62
1
10
-19.602157541757933
20
56.32357242624062
30
0.0
11
-19.64119269885348
21
56.69136724788361
31
0.0
0
LINE
8
1
62
1
10
-19.64119269885348
20
56.69136724788361
30
0.0
11
-19.673582869886122
21
57.103469790899226
31
0.0
0
LINE
8
1
62
1
10
-19.673582869886122
20
57.103469790899226
30
0.0
11
-19.696933162852943
21
57.55975918309167
31
0.0
0
LINE
8
1
62
1
10
-19.696933162852943
20
57.55975918309167
30
0.0
11
-19.708851215094377
21
58.06001670053269
31
0.0
0
LINE
8
1
62
1
10
-19.708851215094377
20
58.06001670053269
30
0.0
11
-19.706950753697612
21
58.60392583976038
31
0.0
0
LINE
8
1
62
1
10
-19.706950753697612
20
58.60392583976038
30
0.0
11
-19.68885515318039
21
59.19107251150539
31
0.0
0
LINE
8
1
62
1
10
-19.68885515318039
20
59.19107251150539
30
0.0
11
-19.652200986472224
21
59.8209453558316
31
0.0
0
LINE
8
1
62
1
10
-19.652200986472224
20
59.8209453558316
30
0.0
11
-19.594641565214584
21
60.492936178451586
31
0.0
0
LINE
8
1
62
1
10
-19.594641565214584
20
60.492936178451586
30
0.0
11
-19.51385046541013
21
61.20634050785014
31
0.0
0
LINE
8
1
62
1
10
-19.51385046541013
20
61.20634050785014
30
0.0
11
-19.40752503446391
21
61.96035827272346
31
0.0
0
LINE
8
1
62
1
10
-19.40752503446391
20
61.96035827272346
30
0.0
11
-19.273389875675512
21
62.75409459911431
31
0.0
0
LINE
8
1
62
1
10
-19.273389875675512
20
62.75409459911431
30
0.0
11
-16.649207413324994
21
63.5007388835946
31
0.0
0
LINE
8
1
62
1
10
-16.649207413324994
20
63.5007388835946
30
0.0
11
-16.117315071763027
21
62.89650371940491
31
0.0
0
LINE
8
1
62
1
10
-16.117315071763027
20
62.89650371940491
30
0.0
11
-15.629976165598505
21
62.31139802164695
31
0.0
0
LINE
8
1
62
1
10
-15.629976165598505
20
62.31139802164695
30
0.0
11
-15.185727203998965
21
61.7473804694999
31
0.0
0
LINE
8
1
62
1
10
-15.185727203998965
20
61.7473804694999
30
0.0
11
-14.783031615537466
21
61.206343487681984
31
0.0
0
LINE
8
1
62
1
10
-14.783031615537466
20
61.206343487681984
30
0.0
11
-14.420282291129933
21
60.690110734363735
31
0.0
0
LINE
8
1
62
1
10
-14.420282291129933
20
60.690110734363735
30
0.0
11
-14.095804209155904
21
60.20043467897836
31
0.0
0
LINE
8
1
62
1
10
-14.095804209155904
20
60.20043467897836
30
0.0
11
-13.807857139738191
21
59.7389942725306
31
0.0
0
LINE
8
1
62
1
10
-13.807857139738191
20
59.7389942725306
30
0.0
11
-13.554638425076247
21
59.307392712905944
31
0.0
0
LINE
8
1
62
1
10
-13.554638425076247
20
59.307392712905944
30
0.0
11
-13.334285832651076
21
58.907155307581924
31
0.0
0
LINE
8
1
62
1
10
-13.334285832651076
20
58.907155307581924
30
0.0
11
-13.144880478045273
21
58.53972743603963
31
0.0
0
LINE
8
1
62
1
10
-13.144880478045273
20
58.53972743603963
30
0.0
11
-12.984449814051196
21
58.20647261406807
31
0.0
0
LINE
8
1
62
1
10
-12.984449814051196
20
58.20647261406807
30
0.0
11
-12.85097068267278
21
57.908670662046745
31
0.0
0
LINE
8
1
62
1
10
-12.85097068267278
20
57.908670662046745
30
0.0
11
-12.742372426562499
21
57.647515979181634
31
0.0
0
LINE
8
1
62
1
10
-12.742372426562499
20
57.647515979181634
30
0.0
11
-12.656540056374428
21
57.424115925558674
31
0.0
0
LINE
8
1
62
1
10
-12.656540056374428
20
57.424115925558674
30
0.0
11
-12.591317470457378
21
57.239489313765105
31
0.0
0
LINE
8
1
62
1
10
-12.591317470457378
20
57.239489313765105
30
0.0
11
-12.544510723258531
21
57.09456501171424
31
0.0
0
LINE
8
1
62
1
10
-12.544510723258531
20
57.09456501171424
30
0.0
11
-12.513891338758306
21
56.99018065819212
31
0.0
0
LINE
8
1
62
1
10
-12.513891338758306
20
56.99018065819212
30
0.0
11
-12.497199665210875
21
56.92708149252662
31
0.0
0
LINE
8
1
62
1
10
-12.497199665210875
20
56.92708149252662
30
0.0
11
-12.492148267422474
21
56.90591929965994
31
0.0
0
LINE
8
1
62
1
10
-12.492148267422474
20
56.90591929965994
30
0.0
11
-12.35547593901757
21
56.283331068699816
31
0.0
0
LINE
8
1
62
1
10
-12.35547593901757
20
56.283331068699816
30
0.0
11
-8.810746099612695
21
56.94595591467995
31
0.0
0
LINE
8
1
62
1
10
-8.810746099612695
20
56.94595591467995
30
0.0
11
-8.908207758747636
21
57.57587389003891
31
0.0
0
LINE
8
1
62
1
10
-8.908207758747636
20
57.57587389003891
30
0.0
11
-8.911142136401612
21
57.59743182255404
31
0.0
0
LINE
8
1
62
1
10
-8.911142136401612
20
57.59743182255404
30
0.0
11
-8.918371662096375
21
57.66229977019944
31
0.0
0
LINE
8
1
62
1
10
-8.918371662096375
20
57.66229977019944
30
0.0
11
-8.92752791415866
21
57.770696278517626
31
0.0
0
LINE
8
1
62
1
10
-8.92752791415866
20
57.770696278517626
30
0.0
11
-8.936234618590849
21
57.92274271289278
31
0.0
0
LINE
8
1
62
1
10
-8.936234618590849
20
57.92274271289278
30
0.0
11
-8.942111193360056
21
58.11846301680901
31
0.0
0
LINE
8
1
62
1
10
-8.942111193360056
20
58.11846301680901
30
0.0
11
-8.942776299372786
21
58.3577835912794
31
0.0
0
LINE
8
1
62
1
10
-8.942776299372786
20
58.3577835912794
30
0.0
11
-8.935851394158975
21
58.64053329561231
31
0.0
0
LINE
8
1
62
1
10
-8.935851394158975
20
58.64053329561231
30
0.0
11
-8.918964284285558
21
58.966443569554954
31
0.0
0
LINE
8
1
62
1
10
-8.918964284285558
20
58.966443569554954
30
0.0
11
-8.889752672520085
21
59.33514867672726
31
0.0
0
LINE
8
1
62
1
10
-8.889752672520085
20
59.33514867672726
30
0.0
11
-8.84586769576923
21
59.74618606913217
31
0.0
0
LINE
8
1
62
1
10
-8.84586769576923
20
59.74618606913217
30
0.0
11
-8.784977449825176
21
60.198996872402
31
0.0
0
LINE
8
1
62
1
10
-8.784977449825176
20
60.198996872402
30
0.0
11
-8.70477049696523
21
60.69292649131385
31
0.0
0
LINE
8
1
62
1
10
-8.70477049696523
20
60.69292649131385
30
0.0
11
-8.60295935246611
21
61.227225334981604
31
0.0
0
LINE
8
1
62
1
10
-8.60295935246611
20
61.227225334981604
30
0.0
11
-8.477283946114303
21
61.80104966100625
31
0.0
0
LINE
8
1
62
1
10
-8.477283946114303
20
61.80104966100625
30
0.0
11
-8.325515054818151
21
62.4134625377417
31
0.0
0
LINE
8
1
62
1
10
-8.325515054818151
20
62.4134625377417
30
0.0
11
-8.145457702454934
21
63.063434923709714
31
0.0
0
LINE
8
1
62
1
10
-8.145457702454934
20
63.063434923709714
30
0.0
11
-7.93495452311804
21
63.749846863073586
31
0.0
0
LINE
8
1
62
1
10
-7.93495452311804
20
63.749846863073586
30
0.0
11
-7.691889083965006
21
64.47148879595983
31
0.0
0
LINE
8
1
62
1
10
-7.691889083965006
20
64.47148879595983
30
0.0
11
-7.414189163906371
21
65.22706298229434
31
0.0
0
LINE
8
1
62
1
10
-7.414189163906371
20
65.22706298229434
30
0.0
11
-4.697492867499797
21
65.47880196685159
31
0.0
0
LINE
8
1
62
1
10
-4.697492867499797
20
65.47880196685159
30
0.0
11
-4.285684923884176
21
64.7871200932777
31
0.0
0
LINE
8
1
62
1
10
-4.285684923884176
20
64.7871200932777
30
0.0
11
-3.914156778529823
21
64.12242864288886
31
0.0
0
LINE
8
1
62
1
10
-3.914156778529823
20
64.12242864288886
30
0.0
11
-3.5811099529620716
21
63.48638402889433
31
0.0
0
LINE
8
1
62
1
10
-3.5811099529620716
20
63.48638402889433
30
0.0
11
-3.2846863066730148
21
62.880564109626484
31
0.0
0
LINE
8
1
62
1
10
-3.2846863066730148
20
62.880564109626484
30
0.0
11
-3.02297099835525
21
62.30646618649072
31
0.0
0
LINE
8
1
62
1
10
-3.02297099835525
20
62.30646618649072
30
0.0
11
-2.793995511401134
21
61.76550510538279
31
0.0
0
LINE
8
1
62
1
10
-2.793995511401134
20
61.76550510538279
30
0.0
11
-2.5957407402165673
21
61.25901146357524
31
0.0
0
LINE
8
1
62
1
10
-2.5957407402165673
20
61.25901146357524
30
0.0
11
-2.4261401338372517
21
60.78822992396132
31
0.0
0
LINE
8
1
62
1
10
-2.4261401338372517
20
60.78822992396132
30
0.0
11
-2.283082893278144
21
60.354317638432775
31
0.0
0
LINE
8
1
62
1
10
-2.283082893278144
20
60.354317638432775
30
0.0
11
-2.1644172189928157
21
59.95834278205189
31
0.0
0
LINE
8
1
62
1
10
-2.1644172189928157
20
59.95834278205189
30
0.0
11
-2.0679536047695306
21
59.601283199562
31
0.0
0
LINE
8
1
62
1
10
-2.0679536047695306
20
59.601283199562
30
0.0
11
-1.9914681743441272
21
59.28402516566232
31
0.0
0
LINE
8
1
62
1
10
-1.9914681743441272
20
59.28402516566232
30
0.0
11
-1.9327060569671395
21
59.00736226035345
31
0.0
0
LINE
8
1
62
1
10
-1.9327060569671395
20
59.00736226035345
30
0.0
11
-1.8893847981235738
21
58.771994360539026
31
0.0
0
LINE
8
1
62
1
10
-1.8893847981235738
20
58.771994360539026
30
0.0
11
-1.8591978015684647
21
58.57852674894716
31
0.0
0
LINE
8
1
62
1
10
-1.8591978015684647
20
58.57852674894716
30
0.0
11
-1.8398177988100437
21
58.427469341312346
31
0.0
0
LINE
8
1
62
1
10
-1.8398177988100437
20
58.427469341312346
30
0.0
11
-1.8289003421447263
21
58.31923603263446
31
0.0
0
LINE
8
1
62
1
10
-1.8289003421447263
20
58.31923603263446
30
0.0
11
-1.8240873173245595
21
58.254144163206874
31
0.0
0
LINE
8
1
62
1
10
-1.8240873173245595
20
58.254144163206874
30
0.0
11
-1.8230104719179538
21
58.23241410498069
31
0.0
0
LINE
8
1
62
1
10
-1.8230104719179538
20
58.23241410498069
30
0.0
11
-1.803065536861963
21
57.59531314732383
31
0.0
0
LINE
8
1
62
1
10
-1.803065536861963
20
57.59531314732383
30
0.0
11
1.803065536861993
21
57.59531314732382
31
0.0
0
LINE
8
1
62
1
10
1.803065536861993
20
57.59531314732382
30
0.0
11
1.8230104719179843
21
58.232414104980684
31
0.0
0
LINE
8
1
62
1
10
1.8230104719179843
20
58.232414104980684
30
0.0
11
1.82408731732459
21
58.25414416320687
31
0.0
0
LINE
8
1
62
1
10
1.82408731732459
20
58.25414416320687
30
0.0
11
1.8289003421447567
21
58.31923603263445
31
0.0
0
LINE
8
1
62
1
10
1.8289003421447567
20
58.31923603263445
30
0.0
11
1.8398177988100741
21
58.42746934131234
31
0.0
0
LINE
8
1
62
1
10
1.8398177988100741
20
58.42746934131234
30
0.0
11
1.8591978015684953
21
58.578526748947155
31
0.0
0
LINE
8
1
62
1
10
1.8591978015684953
20
58.578526748947155
30
0.0
11
1.8893847981236043
21
58.77199436053902
31
0.0
0
LINE
8
1
62
1
10
1.8893847981236043
20
58.77199436053902
30
0.0
11
1.9327060569671701
21
59.007362260353446
31
0.0
0
LINE
8
1
62
1
10
1.9327060569671701
20
59.007362260353446
30
0.0
11
1.991468174344158
21
59.284025165662314
31
0.0
0
LINE
8
1
62
1
10
1.991468174344158
20
59.284025165662314
30
0.0
11
2.0679536047695612
21
59.60128319956199
31
0.0
0
LINE
8
1
62
1
10
2.0679536047695612
20
59.60128319956199
30
0.0
11
2.1644172189928472
21
59.958342782051886
31
0.0
0
LINE
8
1
62
1
10
2.1644172189928472
20
59.958342782051886
30
0.0
11
2.2830828932781753
21
60.35431763843277
31
0.0
0
LINE
8
1
62
1
10
2.2830828932781753
20
60.35431763843277
30
0.0
11
2.4261401338372837
21
60.78822992396132
31
0.0
0
LINE
8
1
62
1
10
2.4261401338372837
20
60.78822992396132
30
0.0
11
2.5957407402165993
21
61.259011463575234
31
0.0
0
LINE
8
1
62
1
10
2.5957407402165993
20
61.259011463575234
30
0.0
11
2.7939955114011656
21
61.765505105382786
31
0.0
0
LINE
8
1
62
1
10
2.7939955114011656
20
61.765505105382786
30
0.0
11
3.022970998355283
21
62.30646618649071
31
0.0
0
LINE
8
1
62
1
10
3.022970998355283
20
62.30646618649071
30
0.0
11
3.2846863066730476
21
62.88056410962647
31
0.0
0
LINE
8
1
62
1
10
3.2846863066730476
20
62.88056410962647
30
0.0
11
3.5811099529621044
21
63.48638402889432
31
0.0
0
LINE
8
1
62
1
10
3.5811099529621044
20
63.48638402889432
30
0.0
11
3.9141567785298563
21
64.12242864288885
31
0.0
0
LINE
8
1
62
1
10
3.9141567785298563
20
64.12242864288885
30
0.0
11
4.28568492388421
21
64.7871200932777
31
0.0
0
LINE
8
1
62
1
10
4.28568492388421
20
64.7871200932777
30
0.0
11
4.697492867499831
21
65.47880196685158
31
0.0
0
LINE
8
1
62
1
10
4.697492867499831
20
65.47880196685158
30
0.0
11
7.414189163906407
21
65.22706298229433
31
0.0
0
LINE
8
1
62
1
10
7.414189163906407
20
65.22706298229433
30
0.0
11
7.69188908396504
21
64.47148879595983
31
0.0
0
LINE
8
1
62
1
10
7.69188908396504
20
64.47148879595983
30
0.0
11
7.9349545231180745
21
63.749846863073586
31
0.0
0
LINE
8
1
62
1
10
7.9349545231180745
20
63.749846863073586
30
0.0
11
8.145457702454967
21
63.06343492370971
31
0.0
0
LINE
8
1
62
1
10
8.145457702454967
20
63.06343492370971
30
0.0
11
8.325515054818185
21
62.413462537741694
31
0.0
0
LINE
8
1
62
1
10
8.325515054818185
20
62.413462537741694
30
0.0
11
8.477283946114335
21
61.801049661006246
31
0.0
0
LINE
8
1
62
1
10
8.477283946114335
20
61.801049661006246
30
0.0
11
8.602959352466144
21
61.2272253349816
31
0.0
0
LINE
8
1
62
1
10
8.602959352466144
20
61.2272253349816
30
0.0
11
8.704770496965264
21
60.69292649131384
31
0.0
0
LINE
8
1
62
1
10
8.704770496965264
20
60.69292649131384
30
0.0
11
8.784977449825208
21
60.19899687240199
31
0.0
0
LINE
8
1
62
1
10
8.784977449825208
20
60.19899687240199
30
0.0
11
8.845867695769263
21
59.746186069132165
31
0.0
0
LINE
8
1
62
1
10
8.845867695769263
20
59.746186069132165
30
0.0
11
8.889752672520117
21
59.33514867672725
31
0.0
0
LINE
8
1
62
1
10
8.889752672520117
20
59.33514867672725
30
0.0
11
8.918964284285588
21
58.96644356955495
31
0.0
0
LINE
8
1
62
1
10
8.918964284285588
20
58.96644356955495
30
0.0
11
8.935851394159005
21
58.6405332956123
31
0.0
0
LINE
8
1
62
1
10
8.935851394159005
20
58.6405332956123
30
0.0
11
8.942776299372817
21
58.35778359127939
31
0.0
0
LINE
8
1
62
1
10
8.942776299372817
20
58.35778359127939
30
0.0
11
8.942111193360086
21
58.118463016809
31
0.0
0
LINE
8
1
62
1
10
8.942111193360086
20
58.118463016809
30
0.0
11
8.93623461859088
21
57.92274271289277
31
0.0
0
LINE
8
1
62
1
10
8.93623461859088
20
57.92274271289277
30
0.0
11
8.92752791415869
21
57.77069627851762
31
0.0
0
LINE
8
1
62
1
10
8.92752791415869
20
57.77069627851762
30
0.0
11
8.918371662096405
21
57.66229977019943
31
0.0
0
LINE
8
1
62
1
10
8.918371662096405
20
57.66229977019943
30
0.0
11
8.911142136401644
21
57.597431822554036
31
0.0
0
LINE
8
1
62
1
10
8.911142136401644
20
57.597431822554036
30
0.0
11
8.908207758747668
21
57.575873890038906
31
0.0
0
LINE
8
1
62
1
10
8.908207758747668
20
57.575873890038906
30
0.0
11
8.810746099612727
21
56.94595591467994
31
0.0
0
LINE
8
1
62
1
10
8.810746099612727
20
56.94595591467994
30
0.0
11
12.355475939017548
21
56.28333106869982
31
0.0
0
LINE
8
1
62
1
10
12.355475939017548
20
56.28333106869982
30
0.0
11
12.492148267422454
21
56.90591929965995
31
0.0
0
LINE
8
1
62
1
10
12.492148267422454
20
56.90591929965995
30
0.0
11
12.497199665210854
21
56.927081492526625
31
0.0
0
LINE
8
1
62
1
10
12.497199665210854
20
56.927081492526625
30
0.0
11
12.513891338758285
21
56.99018065819213
31
0.0
0
LINE
8
1
62
1
10
12.513891338758285
20
56.99018065819213
30
0.0
11
12.544510723258512
21
57.094565011714245
31
0.0
0
LINE
8
1
62
1
10
12.544510723258512
20
57.094565011714245
30
0.0
11
12.591317470457357
21
57.23948931376511
31
0.0
0
LINE
8
1
62
1
10
12.591317470457357
20
57.23948931376511
30
0.0
11
12.656540056374409
21
57.42411592555868
31
0.0
0
LINE
8
1
62
1
10
12.656540056374409
20
57.42411592555868
30
0.0
11
12.742372426562477
21
57.64751597918164
31
0.0
0
LINE
8
1
62
1
10
12.742372426562477
20
57.64751597918164
30
0.0
11
12.85097068267276
21
57.90867066204675
31
0.0
0
LINE
8
1
62
1
10
12.85097068267276
20
57.90867066204675
30
0.0
11
12.984449814051175
21
58.206472614068076
31
0.0
0
LINE
8
1
62
1
10
12.984449814051175
20
58.206472614068076
30
0.0
11
13.144880478045252
21
58.539727436039634
31
0.0
0
LINE
8
1
62
1
10
13.144880478045252
20
58.539727436039634
30
0.0
11
13.334285832651055
21
58.90715530758193
31
0.0
0
LINE
8
1
62
1
10
13.334285832651055
20
58.90715530758193
30
0.0
11
13.554638425076224
21
59.30739271290595
31
0.0
0
LINE
8
1
62
1
10
13.554638425076224
20
59.30739271290595
30
0.0
11
13.807857139738168
21
59.738994272530604
31
0.0
0
LINE
8
1
62
1
10
13.807857139738168
20
59.738994272530604
30
0.0
11
14.095804209155881
21
60.20043467897837
31
0.0
0
LINE
8
1
62
1
10
14.095804209155881
20
60.20043467897837
30
0.0
11
14.420282291129912
21
60.69011073436374
31
0.0
0
LINE
8
1
62
1
10
14.420282291129912
20
60.69011073436374
30
0.0
11
14.783031615537443
21
61.20634348768199
31
0.0
0
LINE
8
1
62
1
10
14.783031615537443
20
61.20634348768199
30
0.0
11
15.185727203998942
21
61.74738046949991
31
0.0
0
LINE
8
1
62
1
10
15.185727203998942
20
61.74738046949991
30
0.0
11
15.629976165598482
21
62.311398021646966
31
0.0
0
LINE
8
1
62
1
10
15.629976165598482
20
62.311398021646966
30
0.0
11
16.117315071763006
21
62.89650371940492
31
0.0
0
LINE
8
1
62
1
10
16.117315071763006
20
62.89650371940492
30
0.0
11
16.649207413324973
21
63.5007388835946
31
0.0
0
LINE
8
1
62
1
10
16.649207413324973
20
63.5007388835946
30
0.0
11
19.27338987567549
21
62.75409459911431
31
0.0
0
LINE
8
1
62
1
10
19.27338987567549
20
62.75409459911431
30
0.0
11
19.407525034463887
21
61.96035827272347
31
0.0
0
LINE
8
1
62
1
10
19.407525034463887
20
61.96035827272347
30
0.0
11
19.51385046541011
21
61.20634050785015
31
0.0
0
LINE
8
1
62
1
10
19.51385046541011
20
61.20634050785015
30
0.0
11
19.59464156521456
21
60.49293617845159
31
0.0
0
LINE
8
1
62
1
10
19.59464156521456
20
60.49293617845159
30
0.0
11
19.652200986472202
21
59.820945355831604
31
0.0
0
LINE
8
1
62
1
10
19.652200986472202
20
59.820945355831604
30
0.0
11
19.68885515318037
21
59.191072511505396
31
0.0
0
LINE
8
1
62
1
10
19.68885515318037
20
59.191072511505396
30
0.0
11
19.70695075369759
21
58.603925839760386
31
0.0
0
LINE
8
1
62
1
10
19.70695075369759
20
58.603925839760386
30
0.0
11
19.70885121509436
21
58.0600167005327
31
0.0
0
LINE
8
1
62
1
10
19.70885121509436
20
58.0600167005327
30
0.0
11
19.696933162852922
21
57.55975918309168
31
0.0
0
LINE
8
1
62
1
10
19.696933162852922
20
57.55975918309168
30
0.0
11
19.6735828698861
21
57.10346979089923
31
0.0
0
LINE
8
1
62
1
10
19.6735828698861
20
57.10346979089923
30
0.0
11
19.641192698853462
21
56.69136724788362
31
0.0
0
LINE
8
1
62
1
10
19.641192698853462
20
56.69136724788362
30
0.0
11
19.60215754175791
21
56.323572426240624
31
0.0
0
LINE
8
1
62
1
10
19.60215754175791
20
56.323572426240624
30
0.0
11
19.558871260806463
21
56.00010839574784
31
0.0
0
LINE
8
1
62
1
10
19.558871260806463
20
56.00010839574784
30
0.0
11
19.513723134515548
21
55.720900594451045
31
0.0
0
LINE
8
1
62
1
10
19.513723134515548
20
55.720900594451045
30
0.0
11
19.469094313034077
21
55.485777120454884
31
0.0
0
LINE
8
1
62
1
10
19.469094313034077
20
55.485777120454884
30
0.0
11
19.427354286646146
21
55.29446914442353
31
0.0
0
LINE
8
1
62
1
10
19.427354286646146
20
55.29446914442353
30
0.0
11
19.39085737140024
21
55.146611442271094
31
0.0
0
LINE
8
1
62
1
10
19.39085737140024
20
55.146611442271094
30
0.0
11
19.361939215792628
21
55.0417430473961
31
0.0
0
LINE
8
1
62
1
10
19.361939215792628
20
55.0417430473961
30
0.0
11
19.34291333240961
21
54.979308021689434
31
0.0
0
LINE
8
1
62
1
10
19.34291333240961
20
54.979308021689434
30
0.0
11
19.33606765840666
21
54.958656344421264
31
0.0
0
LINE
8
1
62
1
10
19.33606765840666
20
54.958656344421264
30
0.0
11
19.12451834499025
21
54.357372452507704
31
0.0
0
LINE
8
1
62
1
10
19.12451834499025
20
54.357372452507704
30
0.0
11
22.487135426829905
21
53.05468765494642
31
0.0
0
LINE
8
1
62
1
10
22.487135426829905
20
53.05468765494642
30
0.0
11
22.73588093636028
21
53.641561663716736
31
0.0
0
LINE
8
1
62
1
10
22.73588093636028
20
53.641561663716736
30
0.0
11
22.744734867237273
21
53.66143533812709
31
0.0
0
LINE
8
1
62
1
10
22.744734867237273
20
53.66143533812709
30
0.0
11
22.772736774588772
21
53.72039303362289
31
0.0
0
LINE
8
1
62
1
10
22.772736774588772
20
53.72039303362289
30
0.0
11
22.822015380508656
21
53.81737374802526
31
0.0
0
LINE
8
1
62
1
10
22.822015380508656
20
53.81737374802526
30
0.0
11
22.894654924510576
21
53.951229721203376
31
0.0
0
LINE
8
1
62
1
10
22.894654924510576
20
53.951229721203376
30
0.0
11
22.992692022852033
21
54.12072809536922
31
0.0
0
LINE
8
1
62
1
10
22.992692022852033
20
54.12072809536922
30
0.0
11
23.11811258596243
21
54.32455268191343
31
0.0
0
LINE
8
1
62
1
10
23.11811258596243
20
54.32455268191343
30
0.0
11
23.27284879744342
21
54.56130583283033
31
0.0
0
LINE
8
1
62
1
10
23.27284879744342
20
54.56130583283033
30
0.0
11
23.45877615804633
21
54.82951041467129
31
0.0
0
LINE
8
1
62
1
10
23.45877615804633
20
54.82951041467129
30
0.0
11
23.677710597964257
21
55.12761188285737
31
0.0
0
LINE
8
1
62
1
10
23.677710597964257
20
55.12761188285737
30
0.0
11
23.93140566070612
21
55.45398045407688
31
0.0
0
LINE
8
1
62
1
10
23.93140566070612
20
55.45398045407688
30
0.0
11
24.22154976174611
21
55.80691337438991
31
0.0
0
LINE
8
1
62
1
10
24.22154976174611
20
55.80691337438991
30
0.0
11
24.54976352506525
21
56.1846372805613
31
0.0
0
LINE
8
1
62
1
10
24.54976352506525
20
56.1846372805613
30
0.0
11
24.91759720062153
21
56.585310652044456
31
0.0
0
LINE
8
1
62
1
10
24.91759720062153
20
56.585310652044456
30
0.0
11
25.326528165702413
21
57.00702635094283
31
0.0
0
LINE
8
1
62
1
10
25.326528165702413
20
57.00702635094283
30
0.0
11
25.77795851302687
21
57.44781424718226
31
0.0
0
LINE
8
1
62
1
10
25.77795851302687
20
57.44781424718226
30
0.0
11
26.273212728375878
21
57.905643926036774
31
0.0
0
LINE
8
1
62
1
10
26.273212728375878
20
57.905643926036774
30
0.0
11
26.813535460437837
21
58.37842747506246
31
0.0
0
LINE
8
1
62
1
10
26.813535460437837
20
58.37842747506246
30
0.0
11
27.40008938546169
21
58.864022347409325
31
0.0
0
LINE
8
1
62
1
10
27.40008938546169
20
58.864022347409325
30
0.0
11
28.03395316921266
21
59.360234298398545
31
0.0
0
LINE
8
1
62
1
10
28.03395316921266
20
59.360234298398545
30
0.0
11
30.47625841111173
21
58.144110789602074
31
0.0
0
LINE
8
1
62
1
10
30.47625841111173
20
58.144110789602074
30
0.0
11
30.46226099667474
21
57.33924206176833
31
0.0
0
LINE
8
1
62
1
10
30.46226099667474
20
57.33924206176833
30
0.0
11
30.428225634386575
21
56.57852563554607
31
0.0
0
LINE
8
1
62
1
10
30.428225634386575
20
56.57852563554607
30
0.0
11
30.37655341065299
21
55.86242304491632
31
0.0
0
LINE
8
1
62
1
10
30.37655341065299
20
55.86242304491632
30
0.0
11
30.309654783749043
21
55.19129762714452
31
0.0
0
LINE
8
1
62
1
10
30.309654783749043
20
55.19129762714452
30
0.0
11
30.22994601218381
21
54.565414379491884
31
0.0
0
LINE
8
1
62
1
10
30.22994601218381
20
54.565414379491884
30
0.0
11
30.139845582894115
21
53.98493993772795
31
0.0
0
LINE
8
1
62
1
10
30.139845582894115
20
53.98493993772795
30
0.0
11
30.041770643255013
21
53.449942676329634
31
0.0
0
LINE
8
1
62
1
10
30.041770643255013
20
53.449942676329634
30
0.0
11
29.938133440887153
21
52.960392930123135
31
0.0
0
LINE
8
1
62
1
10
29.938133440887153
20
52.960392930123135
30
0.0
11
29.83133777523085
21
52.516163337000364
31
0.0
0
LINE
8
1
62
1
10
29.83133777523085
20
52.516163337000364
30
0.0
11
29.723775464841506
21
52.11702930121393
31
0.0
0
LINE
8
1
62
1
10
29.723775464841506
20
52.11702930121393
30
0.0
11
29.617822834342313
21
51.76266957663004
31
0.0
0
LINE
8
1
62
1
10
29.617822834342313
20
51.76266957663004
30
0.0
11
29.515837224947617
21
51.452666969193196
31
0.0
0
LINE
8
1
62
1
10
29.515837224947617
20
51.452666969193196
30
0.0
11
29.420153532443614
21
51.18650915773284
31
0.0
0
LINE
8
1
62
1
10
29.420153532443614
20
51.18650915773284
30
0.0
11
29.33308077648258
21
50.963589632118335
31
0.0
0
LINE
8
1
62
1
10
29.33308077648258
20
50.963589632118335
30
0.0
11
29.256898705012922
21
50.78320874764697
31
0.0
0
LINE
8
1
62
1
10
29.256898705012922
20
50.78320874764697
30
0.0
11
29.19385443762878
21
50.644574894428274
31
0.0
0
LINE
8
1
62
1
10
29.19385443762878
20
50.644574894428274
30
0.0
11
29.14615915158154
21
50.54680578040817
31
0.0
0
LINE
8
1
62
1
10
29.14615915158154
20
50.54680578040817
30
0.0
11
29.115984814149847
21
50.488929826558106
31
0.0
0
LINE
8
1
62
1
10
29.115984814149847
20
50.488929826558106
30
0.0
11
29.105460965015613
21
50.46988767263732
31
0.0
0
LINE
8
1
62
1
10
29.105460965015613
20
50.46988767263732
30
0.0
11
28.7870280554607
21
49.91771386594773
31
0.0
0
LINE
8
1
62
1
10
28.7870280554607
20
49.91771386594773
30
0.0
11
31.853022488027836
21
48.01933048518799
31
0.0
0
LINE
8
1
62
1
10
31.853022488027836
20
48.01933048518799
30
0.0
11
32.20537044869399
21
48.550504981277626
31
0.0
0
LINE
8
1
62
1
10
32.20537044869399
20
48.550504981277626
30
0.0
11
32.21772540266268
21
48.56841336308545
31
0.0
0
LINE
8
1
62
1
10
32.21772540266268
20
48.56841336308545
30
0.0
11
32.25608397244797
21
48.62122185480339
31
0.0
0
LINE
8
1
62
1
10
32.25608397244797
20
48.62122185480339
30
0.0
11
32.32234367596609
21
48.707496368172606
31
0.0
0
LINE
8
1
62
1
10
32.32234367596609
20
48.707496368172606
30
0.0
11
32.41834236422162
21
48.82572570785393
31
0.0
0
LINE
8
1
62
1
10
32.41834236422162
20
48.82572570785393
30
0.0
11
32.545855439186006
21
48.97432378055074
31
0.0
0
LINE
8
1
62
1
10
32.545855439186006
20
48.97432378055074
30
0.0
11
32.70659314836739
21
49.151631898182075
31
0.0
0
LINE
8
1
62
1
10
32.70659314836739
20
49.151631898182075
30
0.0
11
32.902197959122745
21
49.35592117255038
31
0.0
0
LINE
8
1
62
1
10
32.902197959122745
20
49.35592117255038
30
0.0
11
33.1342420156801
21
49.58539499885232
31
0.0
0
LINE
8
1
62
1
10
33.1342420156801
20
49.58539499885232
30
0.0
11
33.40422468175339
21
49.838191625287166
31
0.0
0
LINE
8
1
62
1
10
33.40422468175339
20
49.838191625287166
30
0.0
11
33.713570171543324
21
50.112386805926945
31
0.0
0
LINE
8
1
62
1
10
33.713570171543324
20
50.112386805926945
30
0.0
11
34.06362527182672
21
50.40599653392412
31
0.0
0
LINE
8
1
62
1
10
34.06362527182672
20
50.40599653392412
30
0.0
11
34.45565715774224
21
50.716979852047466
31
0.0
0
LINE
8
1
62
1
10
34.45565715774224
20
50.716979852047466
30
0.0
11
34.89085130478389
21
51.0432417374549
31
0.0
0
LINE
8
1
62
1
10
34.89085130478389
20
51.0432417374549
30
0.0
11
35.37030949941442
21
51.38263605753252
31
0.0
0
LINE
8
1
62
1
10
35.37030949941442
20
51.38263605753252
30
0.0
11
35.895047950608706
21
51.732968593553494
31
0.0
0
LINE
8
1
62
1
10
35.895047950608706
20
51.732968593553494
30
0.0
11
36.465995504533474
21
52.092000128837405
31
0.0
0
LINE
8
1
62
1
10
36.465995504533474
20
52.092000128837405
30
0.0
11
37.08399196446316
21
52.45744959802103
31
0.0
0
LINE
8
1
62
1
10
37.08399196446316
20
52.45744959802103
30
0.0
11
37.74978651792355
21
52.826997293985876
31
0.0
0
LINE
8
1
62
1
10
37.74978651792355
20
52.826997293985876
30
0.0
11
38.4640362729437
21
53.19828812892432
31
0.0
0
LINE
8
1
62
1
10
38.4640362729437
20
53.19828812892432
30
0.0
11
40.64129451860073
21
51.554099023324355
31
0.0
0
LINE
8
1
62
1
10
40.64129451860073
20
51.554099023324355
30
0.0
11
40.47964119609895
21
50.765506733240464
31
0.0
0
LINE
8
1
62
1
10
40.47964119609895
20
50.765506733240464
30
0.0
11
40.306404074018204
21
50.023996931185465
31
0.0
0
LINE
8
1
62
1
10
40.306404074018204
20
50.023996931185465
30
0.0
11
40.12402816235183
21
49.32958209417802
31
0.0
0
LINE
8
1
62
1
10
40.12402816235183
20
49.32958209417802
30
0.0
11
39.93494963978945
21
48.68217645243042
31
0.0
0
LINE
8
1
62
1
10
39.93494963978945
20
48.68217645243042
30
0.0
11
39.74159231656633
21
48.08159650478594
31
0.0
0
LINE
8
1
62
1
10
39.74159231656633
20
48.08159650478594
30
0.0
11
39.546364119525634
21
47.527561653915015
31
0.0
0
LINE
8
1
62
1
10
39.546364119525634
20
47.527561653915015
30
0.0
11
39.351653603292135
21
47.01969496042448
31
0.0
0
LINE
8
1
62
1
10
39.351653603292135
20
47.01969496042448
30
0.0
11
39.15982649142536
21
46.55752401490937
31
0.0
0
LINE
8
1
62
1
10
39.15982649142536
20
46.55752401490937
30
0.0
11
38.973222251386225
21
46.14048192685541
31
0.0
0
LINE
8
1
62
1
10
38.973222251386225
20
46.14048192685541
30
0.0
11
38.79415070711371
21
45.767908429178355
31
0.0
0
LINE
8
1
62
1
10
38.79415070711371
20
45.767908429178355
30
0.0
11
38.62488869296635
21
45.4390510970666
31
0.0
0
LINE
8
1
62
1
10
38.62488869296635
20
45.4390510970666
30
0.0
11
38.4676767527381
21
45.15306667967483
31
0.0
0
LINE
8
1
62
1
10
38.4676767527381
20
45.15306667967483
30
0.0
11
38.32471588740928
21
44.90902254309908
31
0.0
0
LINE
8
1
62
1
10
38.32471588740928
20
44.90902254309908
30
0.0
11
38.19816435524068
21
44.70589822294852
31
0.0
0
LINE
8
1
62
1
10
38.19816435524068
20
44.70589822294852
30
0.0
11
38.090134527762864
21
44.542587084714796
31
0.0
0
LINE
8
1
62
1
10
38.090134527762864
20
44.542587084714796
30
0.0
11
38.00268980515299
21
44.417898090028224
31
0.0
0
LINE
8
1
62
1
10
38.00268980515299
20
44.417898090028224
30
0.0
11
37.93784159442828
21
44.330557666779846
31
0.0
0
LINE
8
1
62
1
10
37.93784159442828
20
44.330557666779846
30
0.0
11
37.89754635381901
21
44.27921168098019
31
0.0
0
LINE
8
1
62
1
10
37.89754635381901
20
44.27921168098019
30
0.0
11
37.883702706613796
21
44.262427508120005
31
0.0
0
LINE
8
1
62
1
10
37.883702706613796
20
44.262427508120005
30
0.0
11
37.469230051737085
21
43.77816740338173
31
0.0
0
LINE
8
1
62
1
10
37.469230051737085
20
43.77816740338173
30
0.0
11
40.13419307188556
21
41.34873260859546
31
0.0
0
LINE
8
1
62
1
10
40.13419307188556
20
41.34873260859546
30
0.0
11
40.5781446964818
21
41.806119081613666
31
0.0
0
LINE
8
1
62
1
10
40.5781446964818
20
41.806119081613666
30
0.0
11
40.59357994040292
21
41.82145232235523
31
0.0
0
LINE
8
1
62
1
10
40.59357994040292
20
41.82145232235523
30
0.0
11
40.640988917533996
21
41.86631328044666
31
0.0
0
LINE
8
1
62
1
10
40.640988917533996
20
41.86631328044666
30
0.0
11
40.721973323916785
21
41.9389436177048
31
0.0
0
LINE
8
1
62
1
10
40.721973323916785
20
41.9389436177048
30
0.0
11
40.83806203623514
21
42.037520165526956
31
0.0
0
LINE
8
1
62
1
10
40.83806203623514
20
42.037520165526956
30
0.0
11
40.990708782989614
21
42.16015760761278
31
0.0
0
LINE
8
1
62
1
10
40.990708782989614
20
42.16015760761278
30
0.0
11
41.18128990833945
21
42.304911241042944
31
0.0
0
LINE
8
1
62
1
10
41.18128990833945
20
42.304911241042944
30
0.0
11
41.411102231140994
21
42.469779812642045
31
0.0
0
LINE
8
1
62
1
10
41.411102231140994
20
42.469779812642045
30
0.0
11
41.68136100161292
21
42.652708427473776
31
0.0
0
LINE
8
1
62
1
10
41.68136100161292
20
42.652708427473776
30
0.0
11
41.99319795795696
21
42.851591526240256
31
0.0
0
LINE
8
1
62
1
10
41.99319795795696
20
42.851591526240256
30
0.0
11
42.34765948515919
21
43.0642759282845
31
0.0
0
LINE
8
1
62
1
10
42.34765948515919
20
43.0642759282845
30
0.0
11
42.745704878090656
21
43.28856393682492
31
0.0
0
LINE
8
1
62
1
10
42.745704878090656
20
43.28856393682492
30
0.0
11
43.188204710918114
21
43.522216502984925
31
0.0
0
LINE
8
1
62
1
10
43.188204710918114
20
43.522216502984925
30
0.0
11
43.675939314725476
21
43.76295644511708
31
0.0
0
LINE
8
1
62
1
10
43.675939314725476
20
43.76295644511708
30
0.0
11
44.20959736513425
21
44.008471719862335
31
0.0
0
LINE
8
1
62
1
10
44.20959736513425
20
44.008471719862335
30
0.0
11
44.789774581597335
21
44.256418741328226
31
0.0
0
LINE
8
1
62
1
10
44.789774581597335
20
44.256418741328226
30
0.0
11
45.41697253992507
21
44.5044257447183
31
0.0
0
LINE
8
1
62
1
10
45.41697253992507
20
44.5044257447183
30
0.0
11
46.09159759948464
21
44.750096190695125
31
0.0
0
LINE
8
1
62
1
10
46.09159759948464
20
44.750096190695125
30
0.0
11
46.81395994639603
21
44.991012206715496
31
0.0
0
LINE
8
1
62
1
10
46.81395994639603
20
44.991012206715496
30
0.0
11
47.5842727539263
21
45.22473806153361
31
0.0
0
LINE
8
1
62
1
10
47.5842727539263
20
45.22473806153361
30
0.0
11
49.42234008511887
21
43.20847424713387
31
0.0
0
LINE
8
1
62
1
10
49.42234008511887
20
43.20847424713387
30
0.0
11
49.11853576456832
21
42.46301295942643
31
0.0
0
LINE
8
1
62
1
10
49.11853576456832
20
42.46301295942643
30
0.0
11
48.81199626511242
21
41.7659610085047
31
0.0
0
LINE
8
1
62
1
10
48.81199626511242
20
41.7659610085047
30
0.0
11
48.50512725844926
21
41.11688138953506
31
0.0
0
LINE
8
1
62
1
10
48.50512725844926
20
41.11688138953506
30
0.0
11
48.200307682539616
21
40.515242146463876
31
0.0
0
LINE
8
1
62
1
10
48.200307682539616
20
40.515242146463876
30
0.0
11
47.89988635939443
21
39.96041752862834
31
0.0
0
LINE
8
1
62
1
10
47.89988635939443
20
39.96041752862834
30
0.0
11
47.60617865670252
21
39.451689261005264
31
0.0
0
LINE
8
1
62
1
10
47.60617865670252
20
39.451689261005264
30
0.0
11
47.32146319697546
21
38.988247926550386
31
0.0
0
LINE
8
1
62
1
10
47.32146319697546
20
38.988247926550386
30
0.0
11
47.04797861783313
21
38.56919445896321
31
0.0
0
LINE
8
1
62
1
10
47.04797861783313
20
38.56919445896321
30
0.0
11
46.787920386998564
21
38.19354174409989
31
0.0
0
LINE
8
1
62
1
10
46.787920386998564
20
38.19354174409989
30
0.0
11
46.54343767551044
21
37.86021632814295
31
0.0
0
LINE
8
1
62
1
10
46.54343767551044
20
37.86021632814295
30
0.0
11
46.31663029259929
21
37.56806023052752
31
0.0
0
LINE
8
1
62
1
10
46.31663029259929
20
37.56806023052752
30
0.0
11
46.10954568560701
21
37.31583285951458
31
0.0
0
LINE
8
1
62
1
10
46.10954568560701
20
37.31583285951458
30
0.0
11
45.9241760082595
21
37.102213028195834
31
0.0
0
LINE
8
1
62
1
10
45.9241760082595
20
37.102213028195834
30
0.0
11
45.7624552605295
21
36.925801068611186
31
0.0
0
LINE
8
1
62
1
10
45.7624552605295
20
36.925801068611186
30
0.0
11
45.626256503250794
21
36.78512104155753
31
0.0
0
LINE
8
1
62
1
10
45.626256503250794
20
36.78512104155753
30
0.0
11
45.51738915056527
21
36.67862303956918
31
0.0
0
LINE
8
1
62
1
10
45.51738915056527
20
36.67862303956918
30
0.0
11
45.437596343202465
21
36.60468558045294
31
0.0
0
LINE
8
1
62
1
10
45.437596343202465
20
36.60468558045294
30
0.0
11
45.38855240550576
21
36.56161808866739
31
0.0
0
LINE
8
1
62
1
10
45.38855240550576
20
36.56161808866739
30
0.0
11
45.37186038903151
21
36.54766346174416
31
0.0
0
LINE
8
1
62
1
10
45.37186038903151
20
36.54766346174416
30
0.0
11
44.875462357989676
21
36.14780795601808
31
0.0
0
LINE
8
1
62
1
10
44.875462357989676
20
36.14780795601808
30
0.0
11
47.04864184633925
21
33.270053235355775
31
0.0
0
LINE
8
1
62
1
10
47.04864184633925
20
33.270053235355775
30
0.0
11
47.569078894751236
21
33.638075937538524
31
0.0
0
LINE
8
1
62
1
10
47.569078894751236
20
33.638075937538524
30
0.0
11
47.58706879990559
21
33.65031188209057
31
0.0
0
LINE
8
1
62
1
10
47.58706879990559
20
33.65031188209057
30
0.0
11
47.64191372852706
21
33.685697620432485
31
0.0
0
LINE
8
1
62
1
10
47.64191372852706
20
33.685697620432485
30
0.0
11
47.73486501094524
21
33.74221044255471
31
0.0
0
LINE
8
1
62
1
10
47.73486501094524
20
33.74221044255471
30
0.0
11
47.86709048546147
21
33.81777729241115
31
0.0
0
LINE
8
1
62
1
10
47.86709048546147
20
33.81777729241115
30
0.0
11
48.03967270212491
21
33.910277832883146
31
0.0
0
LINE
8
1
62
1
10
48.03967270212491
20
33.910277832883146
30
0.0
11
48.25360723199627
21
34.01754757073853
31
0.0
0
LINE
8
1
62
1
10
48.25360723199627
20
34.01754757073853
30
0.0
11
48.509801083820506
21
34.13738103810067
31
0.0
0
LINE
8
1
62
1
10
48.509801083820506
20
34.13738103810067
30
0.0
11
48.80907122991823
21
34.26753502688278
31
0.0
0
LINE
8
1
62
1
10
48.80907122991823
20
34.26753502688278
30
0.0
11
49.15214324299193
21
34.405731872586415
31
0.0
0
LINE
8
1
62
1
10
49.15214324299193
20
34.405731872586415
30
0.0
11
49.539650045427344
21
34.54966278381032
31
0.0
0
LINE
8
1
62
1
10
49.539650045427344
20
34.54966278381032
30
0.0
11
49.97213077255342
21
34.696991213766964
31
0.0
0
LINE
8
1
62
1
10
49.97213077255342
20
34.696991213766964
30
0.0
11
50.450029751205946
21
34.845356270058396
31
0.0
0
LINE
8
1
62
1
10
50.450029751205946
20
34.845356270058396
30
0.0
11
50.97369559481953
21
34.99237615892171
31
0.0
0
LINE
8
1
62
1
10
50.97369559481953
20
34.99237615892171
30
0.0
11
51.54338041615216
21
35.135651660116245
31
0.0
0
LINE
8
1
62
1
10
51.54338041615216
20
35.135651660116245
30
0.0
11
52.159239158623265
21
35.272769628590716
31
0.0
0
LINE
8
1
62
1
10
52.159239158623265
20
35.272769628590716
30
0.0
11
52.821329047124145
21
35.401306519038116
31
0.0
0
LINE
8
1
62
1
10
52.821329047124145
20
35.401306519038116
30
0.0
11
53.52960915903389
21
35.51883192941964
31
0.0
0
LINE
8
1
62
1
10
53.52960915903389
20
35.51883192941964
30
0.0
11
54.283940116050346
21
35.62291215951686
31
0.0
0
LINE
8
1
62
1
10
54.283940116050346
20
35.62291215951686
30
0.0
11
55.08408389731868
21
35.711113780552076
31
0.0
0
LINE
8
1
62
1
10
55.08408389731868
20
35.711113780552076
30
0.0
11
56.5203671356018
21
33.39143670331006
31
0.0
0
LINE
8
1
62
1
10
56.5203671356018
20
33.39143670331006
30
0.0
11
56.0847575087657
21
32.714492208049684
31
0.0
0
LINE
8
1
62
1
10
56.0847575087657
20
32.714492208049684
30
0.0
11
55.65535446693502
21
32.0856353764282
31
0.0
0
LINE
8
1
62
1
10
55.65535446693502
20
32.0856353764282
30
0.0
11
55.234442421248175
21
31.503994603435164
31
0.0
0
LINE
8
1
62
1
10
55.234442421248175
20
31.503994603435164
30
0.0
11
54.824262057058085
21
30.96860986187646
31
0.0
0
LINE
8
1
62
1
10
54.824262057058085
20
30.96860986187646
30
0.0
11
54.42700722183488
21
30.478434460771464
31
0.0
0
LINE
8
1
62
1
10
54.42700722183488
20
30.478434460771464
30
0.0
11
54.044821877043375
21
30.03233690739784
31
0.0
0
LINE
8
1
62
1
10
54.044821877043375
20
30.03233690739784
30
0.0
11
53.67979711732518
21
29.629102870786852
31
0.0
0
LINE
8
1
62
1
10
53.67979711732518
20
29.629102870786852
30
0.0
11
53.3339682602414
21
29.267437244367073
31
0.0
0
LINE
8
1
62
1
10
53.3339682602414
20
29.267437244367073
30
0.0
11
53.00931200975702
21
28.945966305353277
31
0.0
0
LINE
8
1
62
1
10
53.00931200975702
20
28.945966305353277
30
0.0
11
52.70774369656831
21
28.663239968377088
31
0.0
0
LINE
8
1
62
1
10
52.70774369656831
20
28.663239968377088
30
0.0
11
52.43111459829294
21
28.417734130759662
31
0.0
0
LINE
8
1
62
1
10
52.43111459829294
20
28.417734130759662
30
0.0
11
52.18120934245715
21
28.20785310673201
31
0.0
0
LINE
8
1
62
1
10
52.18120934245715
20
28.20785310673201
30
0.0
11
51.95974339512658
21
28.0319321478171
31
0.0
0
LINE
8
1
62
1
10
51.95974339512658
20
28.0319321478171
30
0.0
11
51.76836063793647
21
27.888240046499188
31
0.0
0
LINE
8
1
62
1
10
51.76836063793647
20
27.888240046499188
30
0.0
11
51.608631036183596
21
27.77498182021982
31
0.0
0
LINE
8
1
62
1
10
51.608631036183596
20
27.77498182021982
30
0.0
11
51.48204840054614
21
27.690301472657115
31
0.0
0
LINE
8
1
62
1
10
51.48204840054614
20
27.690301472657115
30
0.0
11
51.39002824489905
21
27.632284829165027
31
0.0
0
LINE
8
1
62
1
10
51.39002824489905
20
27.632284829165027
30
0.0
11
51.333905742591455
21
27.59896244317256
31
0.0
0
LINE
8
1
62
1
10
51.333905742591455
20
27.59896244317256
30
0.0
11
51.314933783449334
21
27.588312570269434
31
0.0
0
LINE
8
1
62
1
10
51.314933783449334
20
27.588312570269434
30
0.0
11
50.75351461582568
21
27.286478263229224
31
0.0
0
LINE
8
1
62
1
10
50.75351461582568
20
27.286478263229224
30
0.0
11
52.360905551342086
21
24.058402102216725
31
0.0
0
LINE
8
1
62
1
10
52.360905551342086
20
24.058402102216725
30
0.0
11
52.94010516408159
21
24.324528461835765
31
0.0
0
LINE
8
1
62
1
10
52.94010516408159
20
24.324528461835765
30
0.0
11
52.96003710582564
21
24.333250429781977
31
0.0
0
LINE
8
1
62
1
10
52.96003710582564
20
24.333250429781977
30
0.0
11
53.02045030767254
21
24.357955929495656
31
0.0
0
LINE
8
1
62
1
10
53.02045030767254
20
24.357955929495656
30
0.0
11
53.122203121686155
21
24.39642676010424
31
0.0
0
LINE
8
1
62
1
10
53.122203121686155
20
24.39642676010424
30
0.0
11
53.26606257845258
21
24.446410573555546
31
0.0
0
LINE
8
1
62
1
10
53.26606257845258
20
24.446410573555546
30
0.0
11
53.45270318462606
21
24.505624217450126
31
0.0
0
LINE
8
1
62
1
10
53.45270318462606
20
24.505624217450126
30
0.0
11
53.682705835190376
21
24.571757117463935
31
0.0
0
LINE
8
1
62
1
10
53.682705835190376
20
24.571757117463935
30
0.0
11
53.95655684168408
21
24.64247469558249
31
0.0
0
LINE
8
1
62
1
10
53.95655684168408
20
24.64247469558249
30
0.0
11
54.27464707751723
21
24.715421820329517
31
0.0
0
LINE
8
1
62
1
10
54.27464707751723
20
24.715421820329517
30
0.0
11
54.637271241384894
21
24.788226285138702
31
0.0
0
LINE
8
1
62
1
10
54.637271241384894
20
24.788226285138702
30
0.0
11
55.04462723965972
21
24.858502310986648
31
0.0
0
LINE
8
1
62
1
10
55.04462723965972
20
24.858502310986648
30
0.0
11
55.49681568852159
21
24.923854069378315
31
0.0
0
LINE
8
1
62
1
10
55.49681568852159
20
24.923854069378315
30
0.0
11
55.99383953645781
21
24.98187922175345
31
0.0
0
LINE
8
1
62
1
10
55.99383953645781
20
24.98187922175345
30
0.0
11
56.53560380764133
21
25.030172471363596
31
0.0
0
LINE
8
1
62
1
10
56.53560380764133
20
25.030172471363596
30
0.0
11
57.12191546656896
21
25.066329123654267
31
0.0
0
LINE
8
1
62
1
10
57.12191546656896
20
25.066329123654267
30
0.0
11
57.75248340421438
21
25.08794865117579
31
0.0
0
LINE
8
1
62
1
10
57.75248340421438
20
25.08794865117579
30
0.0
11
58.42691854582482
21
25.092638259039333
31
0.0
0
LINE
8
1
62
1
10
58.42691854582482
20
25.092638259039333
30
0.0
11
59.14473408036199
21
25.0780164469312
31
0.0
0
LINE
8
1
62
1
10
59.14473408036199
20
25.0780164469312
30
0.0
11
59.90534581146259
21
25.041716563699797
31
0.0
0
LINE
8
1
62
1
10
59.90534581146259
20
25.041716563699797
30
0.0
11
60.70807262966458
21
24.98139035053394
31
0.0
0
LINE
8
1
62
1
10
60.70807262966458
20
24.98139035053394
30
0.0
11
61.6936608719904
21
22.437293831169114
31
0.0
0
LINE
8
1
62
1
10
61.6936608719904
20
22.437293831169114
30
0.0
11
61.1410801022545
21
21.851918661236454
31
0.0
0
LINE
8
1
62
1
10
61.1410801022545
20
21.851918661236454
30
0.0
11
60.60343632362639
21
21.312671914085442
31
0.0
0
LINE
8
1
62
1
10
60.60343632362639
20
21.312671914085442
30
0.0
11
60.08281489380337
21
20.81827706599208
31
0.0
0
LINE
8
1
62
1
10
60.08281489380337
20
20.81827706599208
30
0.0
11
59.5812419416782
21
20.367378711196412
31
0.0
0
LINE
8
1
62
1
10
59.5812419416782
20
20.367378711196412
30
0.0
11
59.100681631335846
21
19.958544862206
31
0.0
0
LINE
8
1
62
1
10
59.100681631335846
20
19.958544862206
30
0.0
11
58.64303350798083
21
19.59026934022693
31
0.0
0
LINE
8
1
62
1
10
58.64303350798083
20
19.59026934022693
30
0.0
11
58.21012992866476
21
19.2609742529507
31
0.0
0
LINE
8
1
62
1
10
58.21012992866476
20
19.2609742529507
30
0.0
11
57.80373358059151
21
18.96901255683593
31
0.0
0
LINE
8
1
62
1
10
57.80373358059151
20
18.96901255683593
30
0.0
11
57.4255350896853
21
18.712670700937885
31
0.0
0
LINE
8
1
62
1
10
57.4255350896853
20
18.712670700937885
30
0.0
11
57.07715072201033
21
18.490171349255306
31
0.0
0
LINE
8
1
62
1
10
57.07715072201033
20
18.490171349255306
30
0.0
11
56.760120180532475
21
18.299676178484145
31
0.0
0
LINE
8
1
62
1
10
56.760120180532475
20
18.299676178484145
30
0.0
11
56.47590449961234
21
18.139288747990506
31
0.0
0
LINE
8
1
62
1
10
56.47590449961234
20
18.139288747990506
30
0.0
11
56.22588403951594
21
18.007057438741334
31
0.0
0
LINE
8
1
62
1
10
56.22588403951594
20
18.007057438741334
30
0.0
11
56.01135658312351
21
17.900978457860862
31
0.0
0
LINE
8
1
62
1
10
56.01135658312351
20
17.900978457860862
30
0.0
11
55.833535536909615
21
17.818998905413455
31
0.0
0
LINE
8
1
62
1
10
55.833535536909615
20
17.818998905413455
30
0.0
11
55.69354823815772
21
17.759019899949767
31
0.0
0
LINE
8
1
62
1
10
55.69354823815772
20
17.759019899949767
30
0.0
11
55.59243437026089
21
17.718899759292647
31
0.0
0
LINE
8
1
62
1
10
55.59243437026089
20
17.718899759292647
30
0.0
11
55.531144487846966
21
17.69645723298245
31
0.0
0
LINE
8
1
62
1
10
55.531144487846966
20
17.69645723298245
30
0.0
11
55.510538653351205
21
17.689474782748025
31
0.0
0
LINE
8
1
62
1
10
55.510538653351205
20
17.689474782748025
30
0.0
11
54.90321680555109
21
17.495940279709593
31
0.0
0
LINE
8
1
62
1
10
54.90321680555109
20
17.495940279709593
30
0.0
11
55.89008141777824
21
14.027470940359562
31
0.0
0
LINE
8
1
62
1
10
55.89008141777824
20
14.027470940359562
30
0.0
11
56.50831964670678
21
14.182638343421456
31
0.0
0
LINE
8
1
62
1
10
56.50831964670678
20
14.182638343421456
30
0.0
11
56.52951486667018
21
14.187549318604269
31
0.0
0
LINE
8
1
62
1
10
56.52951486667018
20
14.187549318604269
30
0.0
11
56.593439042611266
21
14.200733263527939
31
0.0
0
LINE
8
1
62
1
10
56.593439042611266
20
14.200733263527939
30
0.0
11
56.700528318178115
21
14.219852024627196
31
0.0
0
LINE
8
1
62
1
10
56.700528318178115
20
14.219852024627196
30
0.0
11
56.85112279593496
21
14.242550662855267
31
0.0
0
LINE
8
1
62
1
10
56.85112279593496
20
14.242550662855267
30
0.0
11
57.04546596962598
21
14.266460960548526
31
0.0
0
LINE
8
1
62
1
10
57.04546596962598
20
14.266460960548526
30
0.0
11
57.283704276476044
21
14.28920494612846
31
0.0
0
LINE
8
1
62
1
10
57.283704276476044
20
14.28920494612846
30
0.0
11
57.56588677006116
21
14.308398432696997
31
0.0
0
LINE
8
1
62
1
10
57.56588677006116
20
14.308398432696997
30
0.0
11
57.89196491415563
21
14.321654566566108
31
0.0
0
LINE
8
1
62
1
10
57.89196491415563
20
14.321654566566108
30
0.0
11
58.261792497836495
21
14.326587381751095
31
0.0
0
LINE
8
1
62
1
10
58.261792497836495
20
14.326587381751095
30
0.0
11
58.67512567199915
21
14.32081535644963
31
0.0
0
LINE
8
1
62
1
10
58.67512567199915
20
14.32081535644963
30
0.0
11
59.13162310731109
21
14.301964967525091
31
0.0
0
LINE
8
1
62
1
10
59.13162310731109
20
14.301964967525091
30
0.0
11
59.63084627350395
21
14.267674239013289
31
0.0
0
LINE
8
1
62
1
10
59.63084627350395
20
14.267674239013289
30
0.0
11
60.17225983977686
21
14.215596280676166
31
0.0
0
LINE
8
1
62
1
10
60.17225983977686
20
14.215596280676166
30
0.0
11
60.75523219595803
21
14.143402812634335
31
0.0
0
LINE
8
1
62
1
10
60.75523219595803
20
14.143402812634335
30
0.0
11
61.379036093944144
21
14.048787672122934
31
0.0
0
LINE
8
1
62
1
10
61.379036093944144
20
14.048787672122934
30
0.0
11
62.042849408812366
21
13.929470298431397
31
0.0
0
LINE
8
1
62
1
10
62.042849408812366
20
13.929470298431397
30
0.0
11
62.745756018873166
21
13.783199192108016
31
0.0
0
LINE
8
1
62
1
10
62.745756018873166
20
13.783199192108016
30
0.0
11
63.48674680380849
21
13.60775534453452
31
0.0
0
LINE
8
1
62
1
10
63.48674680380849
20
13.60775534453452
30
0.0
11
64.26472075991497
21
13.40095563400364
31
0.0
0
LINE
8
1
62
1
10
64.26472075991497
20
13.40095563400364
30
0.0
11
64.76605098077388
21
10.719075828175523
31
0.0
0
LINE
8
1
62
1
10
64.76605098077388
20
10.719075828175523
30
0.0
11
64.11531654350395
21
10.245204232902505
31
0.0
0
LINE
8
1
62
1
10
64.11531654350395
20
10.245204232902505
30
0.0
11
63.48774084212696
21
9.813930971441009
31
0.0
0
LINE
8
1
62
1
10
63.48774084212696
20
9.813930971441009
30
0.0
11
62.88513916654381
21
9.42361807183788
31
0.0
0
LINE
8
1
62
1
10
62.88513916654381
20
9.42361807183788
30
0.0
11
62.30925409179773
21
9.072560906484842
31
0.0
0
LINE
8
1
62
1
10
62.30925409179773
20
9.072560906484842
30
0.0
11
61.76175321133638
21
8.758990955994227
31
0.0
0
LINE
8
1
62
1
10
61.76175321133638
20
8.758990955994227
30
0.0
11
61.244226967370274
21
8.481078646612893
31
0.0
0
LINE
8
1
62
1
10
61.244226967370274
20
8.481078646612893
30
0.0
11
60.75818658063933
21
8.236936257922693
31
0.0
0
LINE
8
1
62
1
10
60.75818658063933
20
8.236936257922693
30
0.0
11
60.305062081791554
21
8.024620897504663
31
0.0
0
LINE
8
1
62
1
10
60.305062081791554
20
8.024620897504663
30
0.0
11
59.88620044647223
21
7.842137539176808
31
0.0
0
LINE
8
1
62
1
10
59.88620044647223
20
7.842137539176808
30
0.0
11
59.502863836111175
21
7.687442121350831
31
0.0
0
LINE
8
1
62
1
10
59.502863836111175
20
7.687442121350831
30
0.0
11
59.15622794628464
21
7.558444701992771
31
0.0
0
LINE
8
1
62
1
10
59.15622794628464
20
7.558444701992771
30
0.0
11
58.84738046441475
21
7.453012666615086
31
0.0
0
LINE
8
1
62
1
10
58.84738046441475
20
7.453012666615086
30
0.0
11
58.577319638454604
21
7.36897398567416
31
0.0
0
LINE
8
1
62
1
10
58.577319638454604
20
7.36897398567416
30
0.0
11
58.34695295808997
21
7.304120517697297
31
0.0
0
LINE
8
1
62
1
10
58.34695295808997
20
7.304120517697297
30
0.0
11
58.15709594987104
21
7.256211354416809
31
0.0
0
LINE
8
1
62
1
10
58.15709594987104
20
7.256211354416809
30
0.0
11
58.00847108756745
21
7.222976204146314
31
0.0
0
LINE
8
1
62
1
10
58.00847108756745
20
7.222976204146314
30
0.0
11
57.9017068189194
21
7.2021188095954445
31
0.0
0
LINE
8
1
62
1
10
57.9017068189194
20
7.2021188095954445
30
0.0
11
57.83733670983563
21
7.191320396284166
31
0.0
0
LINE
8
1
62
1
10
57.83733670983563
20
7.191320396284166
30
0.0
11
57.81579870696601
21
7.1882431476866495
31
0.0
0
LINE
8
1
62
1
10
57.81579870696601
20
7.1882431476866495
30
0.0
11
57.18325579611399
21
7.109599034031917
31
0.0
0
LINE
8
1
62
1
10
57.18325579611399
20
7.109599034031917
30
0.0
11
57.51598759429614
21
3.5188510797254717
31
0.0
0
ENDSEC
0
EOF
