0
SECTION
2
HEADER
9
$INSUNITS
70
4
9
$ACADVER
1
AC1014
9
$HANDSEED
5
FFFF
0
ENDSEC
0
SECTION
2
TABLES
0
TABLE
2
VPORT
5
8
100
AcDbSymbolTable
0
ENDTAB
0
TABLE
2
LTYPE
5
5
100
AcDbSymbolTable
0
LTYPE
5
14
100
AcDbSymbolTableRecord
100
AcDbLinetypeTableRecord
2
BYBLOCK
70
0
0
LTYPE
5
15
100
AcDbSymbolTableRecord
100
AcDbLinetypeTableRecord
2
BYLAYER
70
0
0
ENDTAB
0
TABLE
2
LAYER
5
2
100
AcDbSymbolTable
70
2
0
LAYER
5
50
100
AcDbSymbolTableRecord
100
AcDbLayerTableRecord
2
0
70
0
6
CONTINUOUS
0
ENDTAB
0
TABLE
2
STYLE
5
3
100
AcDbSymbolTable
70
1
0
STYLE
5
11
100
AcDbSymbolTableRecord
100
AcDbTextStyleTableRecord
2
STANDARD
70
0
0
ENDTAB
0
TABLE
2
VIEW
5
6
100
AcDbSymbolTable
70
0
0
ENDTAB
0
TABLE
2
UCS
5
7
100
AcDbSymbolTable
70
0
0
ENDTAB
0
TABLE
2
APPID
5
9
100
AcDbSymbolTable
70
2
0
APPID
5
12
100
AcDbSymbolTableRecord
100
AcDbRegAppTableRecord
2
ACAD
70
0
0
ENDTAB
0
TABLE
2
DIMSTYLE
5
A
100
AcDbSymbolTable
70
1
0
ENDTAB
0
TABLE
2
BLOCK_RECORD
5
1
100
AcDbSymbolTable
70
1
0
BLOCK_RECORD
5
1F
100
AcDbSymbolTableRecord
100
AcDbBlockTableRecord
2
*MODEL_SPACE
0
BLOCK_RECORD
5
1B
100
AcDbSymbolTableRecord
100
AcDbBlockTableRecord
2
*PAPER_SPACE
0
ENDTAB
0
ENDSEC
0
SECTION
2
BLOCKS
0
BLOCK
5
20
100
AcDbEntity
100
AcDbBlockBegin
2
*MODEL_SPACE
0
ENDBLK
5
21
100
AcDbEntity
100
AcDbBlockEnd
0
BLOCK
5
1C
100
AcDbEntity
100
AcDbBlockBegin
2
*PAPER_SPACE
0
ENDBLK
5
1D
100
AcDbEntity
100
AcDbBlockEnd
0
ENDSEC
0
SECTION
2
ENTITIES
0
LWPOLYLINE
5
100
100
AcDbEntity
8
0
100
AcDbPolyline
90
1224
70
1
43
0.0
10
-79.757699966430664
20
-54.723415374755859
10
-78.135504722595215
20
-52.175459861755371
10
-76.432509422302246
20
-49.946370124816895
10
-75.120882987976074
20
-48.51478099822998
10
-74.966301918029785
20
-48.268060684204102
10
-74.867396354675293
20
-47.994227409362793
10
-74.828643798828125
20
-47.70566463470459
10
-74.851808547973633
20
-47.41544246673584
10
-74.935822486877441
20
-47.136683464050293
10
-75.076904296875
20
-46.88199520111084
10
-75.195651054382324
20
-46.691293716430664
10
-75.313920974731445
20
-46.500287055969238
10
-75.431694984436035
20
-46.308984756469727
10
-75.596804618835449
20
-46.069164276123047
10
-75.808906555175781
20
-45.869693756103516
10
-76.05839729309082
20
-45.719599723815918
10
-76.333985328674316
20
-45.625672340393066
10
-76.623215675354004
20
-45.592155456542969
10
-76.912980079650879
20
-45.620579719543457
10
-78.779053688049316
20
-46.156563758850098
10
-81.316499710083008
20
-46.654777526855469
10
-84.537458419799805
20
-47.003836631774902
10
-84.992437362670898
20
-46.176056861877441
10
-85.439319610595703
20
-45.343871116638184
10
-85.878047943115234
20
-44.507355690002441
10
-83.95503044128418
20
-42.178058624267578
10
-81.99101448059082
20
-40.175142288208008
10
-80.513410568237305
20
-38.915584087371826
10
-80.329675674438477
20
-38.689732551574707
10
-80.197868347167969
20
-38.430125713348389
10
-80.123958587646484
20
-38.148517608642578
10
-80.111265182495117
20
-37.857644557952881
10
-80.160398483276367
20
-37.570672035217285
10
-80.269107818603516
20
-37.30057954788208
10
-80.363521575927734
20
-37.096729278564453
10
-80.45741081237793
20
-36.892640590667725
10
-80.55079460144043
20
-36.688313484191895
10
-80.685186386108398
20
-36.430022716522217
10
-80.871162414550781
20
-36.205997467041016
10
-81.100311279296875
20
-36.026382446289063
10
-81.362276077270508
20
-35.899295806884766
10
-81.645193099975586
20
-35.830497741699219
10
-81.936254501342773
20
-35.823094844818115
10
-83.854055404663086
20
-36.125695705413818
10
-86.433486938476563
20
-36.30831241607666
10
-89.672927856445313
20
-36.258912086486816
10
-90.022735595703125
20
-35.381488800048828
10
-90.363960266113281
20
-34.500691890716553
10
-90.696563720703125
20
-33.616604804992676
10
-88.501882553100586
20
-31.541280746459961
10
-86.306619644165039
20
-29.794900417327881
10
-84.685430526733398
20
-28.726470470428467
10
-84.475326538085938
20
-28.524906635284424
10
-84.312620162963867
20
-28.283467292785645
10
-84.20466423034668
20
-28.013074398040771
10
-84.156332015991211
20
-27.725965976715088
10
-84.169816970825195
20
-27.435131072998047
10
-84.244518280029297
20
-27.153728008270264
10
-84.313154220581055
20
-26.939818859100342
10
-84.381265640258789
20
-26.725738048553467
10
-84.448823928833008
20
-26.511485576629639
10
-84.550457000732422
20
-26.238639354705811
10
-84.707489013671875
20
-25.993459224700928
10
-84.912834167480469
20
-25.787041187286377
10
-85.157194137573242
20
-25.628728866577148
10
-85.429515838623047
20
-25.525681972503662
10
-85.717458724975586
20
-25.482566356658936
10
-87.657909393310547
20
-25.547199249267578
10
-90.240240097045898
20
-25.411450862884521
10
-93.44904899597168
20
-24.964332580566406
10
-93.688383102416992
20
-24.05057430267334
10
-93.918781280517578
20
-23.134522438049316
10
-94.140224456787109
20
-22.216262817382813
10
-91.707143783569336
20
-20.426368713378906
10
-89.313898086547852
20
-18.962996006011963
10
-87.573690414428711
20
-18.101891279220581
10
-87.340421676635742
20
-17.927674055099487
10
-87.149276733398438
20
-17.708057165145874
10
-87.008914947509766
20
-17.452983856201172
10
-86.9256591796875
20
-17.17399001121521
10
-86.903305053710938
20
-16.883701086044312
10
-86.942853927612305
20
-16.595252752304077
10
-86.984701156616211
20
-16.374530792236328
10
-87.025976181030273
20
-16.153701543807983
10
-87.06669807434082
20
-15.932769775390625
10
-87.134027481079102
20
-15.649501085281372
10
-87.259740829467773
20
-15.386881828308105
10
-87.438163757324219
20
-15.156795978546143
10
-87.661218643188477
20
-14.969652891159058
10
-87.918806076049805
20
-14.833923578262329
10
-88.199272155761719
20
-14.755748510360718
10
-90.132961273193359
20
-14.581435918807983
10
-92.679023742675781
20
-14.129375219345093
10
-95.808582305908203
20
-13.291321992874146
10
-95.933809280395508
20
-12.355078458786011
10
-96.049880981445313
20
-11.417654752731323
10
-96.156797409057617
20
-10.479143857955933
10
-93.522214889526367
20
-9.0018147230148315
10
-90.967283248901367
20
-7.8436338901519775
10
-89.134445190429688
20
-7.2029060125350952
10
-88.88153076171875
20
-7.058674693107605
10
-88.664846420288086
20
-6.8642133474349976
10
-88.494195938110352
20
-6.6283226013183594
10
-88.377294540405273
20
-6.3616740703582764
10
-88.319435119628906
20
-6.0763329267501831
10
-88.323240280151367
20
-5.785210132598877
10
-88.337631225585938
20
-5.5610191822052002
10
-88.351469039916992
20
-5.3367918729782104
10
-88.364725112915039
20
-5.1125305891036987
10
-88.396730422973633
20
-4.8231348395347595
10
-88.489227294921875
20
-4.5470568537712097
10
-88.638029098510742
20
-4.2967882752418518
10
-88.836383819580078
20
-4.08365398645401
10
-89.075345993041992
20
-3.9172986149787903
10
-89.344081878662109
20
-3.8052493333816528
10
-91.241683959960938
20
-3.3946302533149719
10
-93.712902069091797
20
-2.633114755153656
10
-96.71574592590332
20
-1.4168278872966766
10
-96.724967956542969
20
-0.47229096293449402
10
-96.724967956542969
20
0.47229096293449402
10
-96.71574592590332
20
1.4168278872966766
10
-93.919572830200195
20
2.5591990351676941
10
-91.241683959960938
20
3.3946302533149719
10
-89.344005584716797
20
3.8052675127983093
10
-89.075279235839844
20
3.917326033115387
10
-88.836345672607422
20
4.0836849808692932
10
-88.637990951538086
20
4.296816885471344
10
-88.489217758178711
20
4.5470786094665527
10
-88.396730422973633
20
4.8231467604637146
10
-88.364725112915039
20
5.1125305891036987
10
-88.351469039916992
20
5.3367918729782104
10
-88.337631225585938
20
5.5610191822052002
10
-88.323240280151367
20
5.785210132598877
10
-88.319435119628906
20
6.0763454437255859
10
-88.377304077148438
20
6.3616973161697388
10
-88.49421501159668
20
6.6283541917800903
10
-88.664884567260742
20
6.8642491102218628
10
-88.881587982177734
20
7.0587092638015747
10
-89.134511947631836
20
7.2029334306716919
10
-90.967283248901367
20
7.8436338901519775
10
-93.326187133789063
20
8.9030611515045166
10
-96.156797409057617
20
10.479143857955933
10
-96.049880981445313
20
11.417654752731323
10
-95.933809280395508
20
12.355078458786011
10
-95.808582305908203
20
13.291321992874146
10
-92.893218994140625
20
14.081417322158813
10
-90.132961273193359
20
14.581435918807983
10
-88.199195861816406
20
14.755758047103882
10
-87.91874885559082
20
14.833945035934448
10
-87.661170959472656
20
14.969679117202759
10
-87.438135147094727
20
15.156821012496948
10
-87.259731292724609
20
15.386902093887329
10
-87.134017944335938
20
15.649513006210327
10
-87.06669807434082
20
15.932769775390625
10
-87.025976181030273
20
16.153701543807983
10
-86.984701156616211
20
16.374530792236328
10
-86.942853927612305
20
16.595252752304077
10
-86.903305053710938
20
16.883715391159058
10
-86.925668716430664
20
17.174015045166016
10
-87.00892448425293
20
17.453018426895142
10
-87.149314880371094
20
17.708097696304321
10
-87.340478897094727
20
17.927713394165039
10
-87.573766708374023
20
18.101927042007446
10
-89.313898086547852
20
18.962996006011963
10
-91.524734497070313
20
20.304276943206787
10
-94.140224456787109
20
22.216262817382813
10
-93.918781280517578
20
23.134522438049316
10
-93.688383102416992
20
24.05057430267334
10
-93.44904899597168
20
24.964332580566406
10
-90.458698272705078
20
25.390176773071289
10
-87.657909393310547
20
25.547199249267578
10
-85.717382431030273
20
25.482566356658936
10
-85.429449081420898
20
25.525693893432617
10
-85.157155990600586
20
25.628747940063477
10
-84.912805557250977
20
25.787065029144287
10
-84.707479476928711
20
25.993478298187256
10
-84.550447463989258
20
26.238648891448975
10
-84.448823928833008
20
26.511485576629639
10
-84.381265640258789
20
26.725738048553467
10
-84.313154220581055
20
26.939818859100342
10
-84.244518280029297
20
27.153728008270264
10
-84.169816970825195
20
27.435142993927002
10
-84.156332015991211
20
27.725989818572998
10
-84.204673767089844
20
28.013112545013428
10
-84.312648773193359
20
28.283510208129883
10
-84.475374221801758
20
28.524951934814453
10
-84.685487747192383
20
28.726513385772705
10
-86.306619644165039
20
29.794900417327881
10
-88.335866928100586
20
31.397697925567627
10
-90.696563720703125
20
33.616604804992676
10
-90.363960266113281
20
34.500691890716553
10
-90.022735595703125
20
35.381488800048828
10
-89.672927856445313
20
36.258912086486816
10
-86.652908325195313
20
36.314046382904053
10
-83.854055404663086
20
36.125695705413818
10
-81.936178207397461
20
35.82308292388916
10
-81.645126342773438
20
35.830502510070801
10
-81.362228393554688
20
35.899312496185303
10
-81.100282669067383
20
36.026401519775391
10
-80.871143341064453
20
36.206016540527344
10
-80.685176849365234
20
36.430032253265381
10
-80.55079460144043
20
36.688313484191895
10
-80.45741081237793
20
36.892640590667725
10
-80.363521575927734
20
37.096729278564453
10
-80.269107818603516
20
37.30057954788208
10
-80.160398483276367
20
37.57068395614624
10
-80.111265182495117
20
37.857670783996582
10
-80.123968124389648
20
38.148553371429443
10
-80.197896957397461
20
38.430173397064209
10
-80.329713821411133
20
38.689782619476318
10
-80.513458251953125
20
38.915634155273438
10
-81.99101448059082
20
40.175142288208008
10
-83.807926177978516
20
42.015166282653809
10
-85.878047943115234
20
44.507355690002441
10
-85.439319610595703
20
45.343871116638184
10
-84.992437362670898
20
46.176056861877441
10
-84.537458419799805
20
47.003836631774902
10
-81.533546447753906
20
46.687431335449219
10
-78.779053688049316
20
46.156563758850098
10
-76.91291332244873
20
45.620560646057129
10
-76.623148918151855
20
45.592155456542969
10
-76.333937644958496
20
45.62568187713623
10
-76.058359146118164
20
45.719614028930664
10
-75.808882713317871
20
45.869708061218262
10
-75.596795082092285
20
46.069178581237793
10
-75.431694984436035
20
46.308984756469727
10
-75.313920974731445
20
46.500287055969238
10
-75.195651054382324
20
46.691293716430664
10
-75.076904296875
20
46.88199520111084
10
-74.935822486877441
20
47.136693000793457
10
-74.851799011230469
20
47.41546630859375
10
-74.828653335571289
20
47.705702781677246
10
-74.867410659790039
20
47.994270324707031
10
-74.966330528259277
20
48.268113136291504
10
-75.120935440063477
20
48.514838218688965
10
-76.432509422302246
20
49.946370124816895
10
-78.009529113769531
20
51.995725631713867
10
-79.757699966430664
20
54.723415374755859
10
-79.219498634338379
20
55.499677658081055
10
-78.673744201660156
20
56.270642280578613
10
-78.12049388885498
20
57.036242485046387
10
-75.178232192993164
20
56.353082656860352
10
-72.509851455688477
20
55.48774242401123
10
-70.723719596862793
20
54.726476669311523
10
-70.439643859863281
20
54.662680625915527
10
-70.148506164550781
20
54.660406112670898
10
-69.863471984863281
20
54.719767570495605
10
-69.597444534301758
20
54.838061332702637
10
-69.362449645996094
20
55.009951591491699
10
-69.169130325317383
20
55.227656364440918
10
-69.028735160827637
20
55.403037071228027
10
-68.887896537780762
20
55.578060150146484
10
-68.746614456176758
20
55.752725601196289
10
-68.575296401977539
20
55.988154411315918
10
-68.457655906677246
20
56.254491806030273
10
-68.399019241333008
20
56.53968334197998
10
-68.402023315429688
20
56.830830574035645
10
-68.46653938293457
20
57.114748954772949
10
-68.589644432067871
20
57.378602027893066
10
-69.715361595153809
20
58.960461616516113
10
-71.028590202331543
20
61.188082695007324
10
-72.42830753326416
20
64.109930992126465
10
-71.798796653747559
20
64.814162254333496
10
-71.16243839263916
20
65.512223243713379
10
-70.519289970397949
20
66.204028129577637
10
-67.683281898498535
20
65.164484977722168
10
-65.141472816467285
20
63.977785110473633
10
-63.462424278259277
20
63.002791404724121
10
-63.188343048095703
20
62.904567718505859
10
-62.899689674377441
20
62.86653995513916
10
-62.609524726867676
20
62.890419960021973
10
-62.330970764160156
20
62.975130081176758
10
-62.076640129089355
20
63.116841316223145
10
-61.858034133911133
20
63.309135437011719
10
-61.697149276733398
20
63.465933799743652
10
-61.535868644714355
20
63.622322082519531
10
-61.374187469482422
20
63.778300285339355
10
-61.175246238708496
20
63.990893363952637
10
-61.02576732635498
20
64.240756034851074
10
-60.932521820068359
20
64.51657772064209
10
-60.899724960327148
20
64.80588436126709
10
-60.928864479064941
20
65.09559154510498
10
-61.018614768981934
20
65.372567176818848
10
-61.941409111022949
20
67.080774307250977
10
-62.970929145812988
20
69.45289134979248
10
-64.000983238220215
20
72.524600028991699
10
-63.289694786071777
20
73.146142959594727
10
-62.572379112243652
20
73.760695457458496
10
-61.849093437194824
20
74.368224143981934
10
-59.162325859069824
20
72.98804759979248
10
-56.785612106323242
20
71.497993469238281
10
-55.239105224609375
20
70.324053764343262
10
-54.979171752929688
20
70.19289493560791
10
-54.697380065917969
20
70.11967658996582
10
-54.40648078918457
20
70.107722282409668
10
-54.119629859924316
20
70.157556533813477
10
-53.849806785583496
20
70.266938209533691
10
-53.609228134155273
20
70.430917739868164
10
-53.430294990539551
20
70.566749572753906
10
-53.251018524169922
20
70.702133178710938
10
-53.071398735046387
20
70.837068557739258
10
-52.847838401794434
20
71.023597717285156
10
-52.66878604888916
20
71.253199577331543
10
-52.542352676391602
20
71.515474319458008
10
-52.474250793457031
20
71.798553466796875
10
-52.467570304870605
20
72.089638710021973
10
-52.522602081298828
20
72.375550270080566
10
-53.228483200073242
20
74.184212684631348
10
-53.958697319030762
20
76.664857864379883
10
-54.603462219238281
20
79.839873313903809
10
-53.821191787719727
20
80.369291305541992
10
-53.033785820007324
20
80.891046524047852
10
-52.241320610046387
20
81.405086517333984
10
-49.744529724121094
20
79.705195426940918
10
-47.568936347961426
20
77.934355735778809
10
-46.178417205810547
20
76.579270362854004
10
-45.936574935913086
20
76.417160034179688
10
-45.66591739654541
20
76.309876441955566
10
-45.378689765930176
20
76.26225471496582
10
-45.087885856628418
20
76.276469230651855
10
-44.806671142578125
20
76.351861953735352
10
-44.547762870788574
20
76.48503303527832
10
-44.353494644165039
20
76.597847938537598
10
-44.158935546875
20
76.710176467895508
10
-43.964095115661621
20
76.822009086608887
10
-43.719305992126465
20
76.97965145111084
10
-43.513402938842773
20
77.185511589050293
10
-43.355693817138672
20
77.430262565612793
10
-43.253321647644043
20
77.702827453613281
10
-43.210921287536621
20
77.990884780883789
10
-43.230400085449219
20
78.281397819519043
10
-43.708662986755371
20
80.163087844848633
10
-44.128503799438477
20
82.714672088623047
10
-44.378213882446289
20
85.944852828979492
10
-43.536810874938965
20
86.374120712280273
10
-42.691254615783691
20
86.795158386230469
10
-41.841626167297363
20
87.207927703857422
10
-39.572656154632568
20
85.214090347290039
10
-37.631168365478516
20
83.189325332641602
10
-36.417713165283203
20
81.673622131347656
10
-36.197624206542969
20
81.483030319213867
10
-35.942199230194092
20
81.343297958374023
10
-35.663001537322998
20
81.260738372802734
10
-35.372657775878906
20
81.239109039306641
10
-35.084309577941895
20
81.279363632202148
10
-34.810998439788818
20
81.379709243774414
10
-34.604337215423584
20
81.467809677124023
10
-34.397454261779785
20
81.555366516113281
10
-34.190347194671631
20
81.64240837097168
10
-33.928039073944092
20
81.768779754638672
10
-33.698394298553467
20
81.947774887084961
10
-33.511807918548584
20
82.17127799987793
10
-33.376717567443848
20
82.429208755493164
10
-33.299233913421631
20
82.709875106811523
10
-33.282871246337891
20
83.000574111938477
10
-33.526272773742676
20
84.926776885986328
10
-33.629367351531982
20
87.510614395141602
10
-33.480229377746582
20
90.746994018554688
10
-32.592453956604004
20
91.069622039794922
10
-31.701564788818359
20
91.383552551269531
10
-30.807654857635498
20
91.688776016235352
10
-28.800902366638184
20
89.431228637695313
10
-27.122950553894043
20
87.183218002319336
10
-26.104953289031982
20
85.529890060424805
10
-25.909955501556396
20
85.313692092895508
10
-25.67363977432251
20
85.143623352050781
10
-25.406701564788818
20
85.027389526367188
10
-25.121219158172607
20
84.970235824584961
10
-24.830105304718018
20
84.974765777587891
10
-24.546535015106201
20
85.040760040283203
10
-24.330613613128662
20
85.102787017822266
10
-24.114539623260498
20
85.164260864257813
10
-23.898303508758545
20
85.225200653076172
10
-23.622457981109619
20
85.318365097045898
10
-23.372557163238525
20
85.46778678894043
10
-23.159916400909424
20
85.666685104370117
10
-22.994153499603271
20
85.906047821044922
10
-22.882769107818604
20
86.175060272216797
10
-22.830805778503418
20
86.461544036865234
10
-22.835652828216553
20
88.40306282043457
10
-22.620444297790527
20
90.979986190795898
10
-22.07472562789917
20
94.173507690429688
10
-21.154029369354248
20
94.384593963623047
10
-20.231316089630127
20
94.586668014526367
10
-19.306671619415283
20
94.779729843139648
10
-17.592554092407227
20
92.292680740356445
10
-16.203575134277344
20
89.855508804321289
10
-15.396469831466675
20
88.089609146118164
10
-15.22951602935791
20
87.851085662841797
10
-15.015891790390015
20
87.653264999389648
10
-14.76526141166687
20
87.505111694335938
10
-14.488964080810547
20
87.413311004638672
10
-14.199502468109131
20
87.382030487060547
10
-13.909971714019775
20
87.41267204284668
10
-13.688066005706787
20
87.447690963745117
10
-13.466070890426636
20
87.482156753540039
10
-13.243989944458008
20
87.516050338745117
10
-12.958781719207764
20
87.574625015258789
10
-12.692415714263916
20
87.692203521728516
10
-12.456943988800049
20
87.863454818725586
10
-12.263021469116211
20
88.080635070800781
10
-12.119424343109131
20
88.333921432495117
10
-12.032648324966431
20
88.611850738525391
10
-11.798869371414185
20
90.53924560546875
10
-11.268619298934937
20
93.070182800292969
10
-10.334587097167969
20
96.172447204589844
10
-9.3949311971664429
20
96.268787384033203
10
-8.4543782472610474
20
96.355934143066406
10
-7.5130194425582886
20
96.433906555175781
10
-6.1175233125686646
20
93.755064010620117
10
-5.038570761680603
20
91.165685653686523
10
-4.4545897841453552
20
89.313983917236328
10
-4.3182149529457092
20
89.05674934387207
10
-4.1305190324783325
20
88.83418083190918
10
-3.8999947905540466
20
88.656339645385742
10
-3.637072741985321
20
88.531293869018555
10
-3.3536490797996521
20
88.464670181274414
10
-3.0625471472740173
20
88.459501266479492
10
-2.8380188345909119
20
88.466987609863281
10
-2.6134723424911499
20
88.473911285400391
10
-2.388908863067627
20
88.480253219604492
10
-2.098664790391922
20
88.503332138061523
10
-1.8198691308498383
20
88.587284088134766
10
-1.5651372075080872
20
88.728303909301758
10
-1.3459955155849457
20
88.920011520385742
10
-1.1723603308200836
20
89.153728485107422
10
-1.0520882904529572
20
89.418888092041016
10
-0.58322727680206299
20
91.302947998046875
10
0.25402823463082314
20
93.749542236328125
10
1.5622113645076752
20
96.71351432800293
10
2.5065842270851135
20
96.693639755249023
10
3.4507182240486145
20
96.664552688598633
10
4.3945232033729553
20
96.626243591308594
10
5.4502439498901367
20
93.796224594116211
10
6.2028133869171143
20
91.093873977661133
10
6.5548163652420044
20
89.184446334838867
10
6.6585469245910645
20
88.91240119934082
10
6.8174690008163452
20
88.668451309204102
10
7.0243912935256958
20
88.463640213012695
10
7.2699528932571411
20
88.307218551635742
10
7.5430417060852051
20
88.206281661987305
10
7.8313028812408447
20
88.165378570556641
10
8.0550491809844971
20
88.145217895507813
10
8.2787436246871948
20
88.124494552612305
10
8.5023850202560425
20
88.103189468383789
10
8.7932652235031128
20
88.090429306030273
10
9.0802639722824097
20
88.139486312866211
10
9.3503952026367188
20
88.248128890991211
10
9.5914345979690552
20
88.411445617675781
10
9.7924751043319702
20
88.622055053710938
10
9.9444198608398438
20
88.870420455932617
10
10.64125657081604
20
90.682592391967773
10
11.77282452583313
20
93.007755279541016
10
13.43532919883728
20
95.788488388061523
10
14.370101690292358
20
95.65272331237793
10
15.303505659103394
20
95.507831573486328
10
16.235449314117432
20
95.353832244873047
10
16.93539023399353
20
92.415523529052734
10
17.350168228149414
20
89.641180038452148
10
17.46485710144043
20
87.702960968017578
10
17.534370422363281
20
87.420234680175781
10
17.662109136581421
20
87.158613204956055
10
17.842295169830322
20
86.929912567138672
10
18.066772222518921
20
86.744499206542969
10
18.325388431549072
20
86.61076545715332
10
18.60643744468689
20
86.534757614135742
10
18.826011419296265
20
86.487245559692383
10
19.045463800430298
20
86.439189910888672
10
19.264792203903198
20
86.390571594238281
10
19.551899433135986
20
86.342153549194336
10
19.842751026153564
20
86.355571746826172
10
20.124185085296631
20
86.430196762084961
10
20.383467674255371
20
86.562662124633789
10
20.608866214752197
20
86.746969223022461
10
20.790181159973145
20
86.974782943725586
10
21.70443058013916
20
88.687582015991211
10
23.113155364990234
20
90.856056213378906
10
25.104777812957764
20
93.411417007446289
10
26.015784740447998
20
93.161802291870117
10
26.924307346343994
20
92.903318405151367
10
27.830262184143066
20
92.635955810546875
10
28.163814544677734
20
89.633893966674805
10
28.234515190124512
20
86.829605102539063
10
28.110148906707764
20
84.891996383666992
10
28.144392967224121
20
84.602870941162109
10
28.239011764526367
20
84.327526092529297
10
28.38972806930542
20
84.07841682434082
10
28.589720726013184
20
83.86683464050293
10
28.829939365386963
20
83.702325820922852
10
29.0995192527771
20
83.592348098754883
10
29.311587810516357
20
83.518218994140625
10
29.523472785949707
20
83.44355583190918
10
29.735164642333984
20
83.368358612060547
10
30.014145374298096
20
83.285026550292969
10
30.304439067840576
20
83.262596130371094
10
30.592913627624512
20
83.302068710327148
10
30.866508483886719
20
83.401670455932617
10
31.112849712371826
20
83.556880950927734
10
31.320784091949463
20
83.760690689086914
10
32.438583374023438
20
85.348148345947266
10
34.103114604949951
20
87.327079772949219
10
36.393668651580811
20
89.618330001831055
10
37.267093658447266
20
89.258651733398438
10
38.136963844299316
20
88.890466690063477
10
39.003198146820068
20
88.513813018798828
10
38.965306282043457
20
85.49351692199707
10
38.690853118896484
20
82.701787948608398
10
38.329322338104248
20
80.794143676757813
10
38.327775001525879
20
80.502996444702148
10
38.387839794158936
20
80.218114852905273
10
38.506801128387451
20
79.952378273010254
10
38.679275512695313
20
79.717822074890137
10
38.897457122802734
20
79.525041580200195
10
39.151477813720703
20
79.382777214050293
10
39.352834224700928
20
79.28314208984375
10
39.553935527801514
20
79.183006286621094
10
39.75477933883667
20
79.08236026763916
10
40.02140998840332
20
78.965387344360352
10
40.30674934387207
20
78.90744686126709
10
40.597882270812988
20
78.911170959472656
10
40.881648063659668
20
78.976397514343262
10
41.145191192626953
20
79.100160598754883
10
41.376595497131348
20
79.276862144470215
10
42.681002616882324
20
80.714931488037109
10
44.576106071472168
20
82.47431755065918
10
47.130866050720215
20
84.466705322265625
10
47.95346736907959
20
84.00242805480957
10
48.771505355834961
20
83.530139923095703
10
49.584879875183105
20
83.04987907409668
10
49.176115989685059
20
80.057134628295898
10
48.560676574707031
20
77.32029914855957
10
47.967462539672852
20
75.47154426574707
10
47.930145263671875
20
75.182795524597168
10
47.954745292663574
20
74.892687797546387
10
48.040151596069336
20
74.614348411560059
10
48.182492256164551
20
74.360365867614746
10
48.375334739685059
20
74.142241477966309
10
48.609943389892578
20
73.969836235046387
10
48.797531127929688
20
73.846216201782227
10
48.984804153442383
20
73.722128868103027
10
49.171757698059082
20
73.597564697265625
10
49.421992301940918
20
73.448700904846191
10
49.698042869567871
20
73.356142044067383
10
49.987430572509766
20
73.324060440063477
10
50.277056694030762
20
73.353915214538574
10
50.553812980651855
20
73.444361686706543
10
50.805182456970215
20
73.59128475189209
10
52.276425361633301
20
74.858155250549316
10
54.373373985290527
20
76.371316909790039
10
57.153606414794922
20
78.034663200378418
10
57.912921905517578
20
77.472810745239258
10
58.666715621948242
20
76.903572082519531
10
59.414916038513184
20
76.327004432678223
10
58.641471862792969
20
73.407173156738281
10
57.69437313079834
20
70.766711235046387
10
56.878461837768555
20
69.00486946105957
10
56.805944442749023
20
68.722891807556152
10
56.794710159301758
20
68.431963920593262
10
56.845259666442871
20
68.145232200622559
10
56.955313682556152
20
67.875685691833496
10
57.119884490966797
20
67.635512351989746
10
57.331533432006836
20
67.43558406829834
10
57.502508163452148
20
67.289857864379883
10
57.67310619354248
20
67.143692970275879
10
57.843337059020996
20
66.99709415435791
10
58.073382377624512
20
66.818618774414063
10
58.335967063903809
20
66.69283390045166
10
58.619222640991211
20
66.62543773651123
10
58.910322189331055
20
66.619467735290527
10
59.196090698242188
20
66.675219535827637
10
59.463610649108887
20
66.79013729095459
10
61.079387664794922
20
67.866606712341309
10
63.346385955810547
20
69.110612869262695
10
66.309962272644043
20
70.419692993164063
10
66.994476318359375
20
69.768791198730469
10
67.672600746154785
20
69.111227989196777
10
68.344268798828125
20
68.447084426879883
10
67.217879295349121
20
65.644440650939941
10
65.953478813171387
20
63.140373229980469
10
64.927239418029785
20
61.492152214050293
10
64.82062816619873
20
61.221222877502441
10
64.773721694946289
20
60.933880805969238
10
64.788651466369629
20
60.643115043640137
10
64.864745140075684
20
60.362086296081543
10
64.998559951782227
20
60.103507041931152
10
65.184030532836914
20
59.879088401794434
10
65.335803031921387
20
59.713449478149414
10
65.487146377563477
20
59.547429084777832
10
65.638079643249512
20
59.381022453308105
10
65.844435691833496
20
59.175624847412109
10
66.089577674865723
20
59.018526077270508
10
66.362404823303223
20
58.916831016540527
10
66.650557518005371
20
58.875141143798828
10
66.941018104553223
20
58.895344734191895
10
67.220635414123535
20
58.976526260375977
10
68.956446647644043
20
59.846272468566895
10
71.359138488769531
20
60.80225944519043
10
74.461112022399902
20
61.737227439880371
10
75.060458183288574
20
61.007142066955566
10
75.652632713317871
20
60.271234512329102
10
76.237602233886719
20
59.529585838317871
10
74.775338172912598
20
56.8865966796875
10
73.212800025939941
20
54.556894302368164
10
71.991791725158691
20
53.047270774841309
10
71.852684020996094
20
52.791504859924316
10
71.770830154418945
20
52.512102127075195
10
71.749916076660156
20
52.22170352935791
10
71.790900230407715
20
51.933455467224121
10
71.891922950744629
20
51.660394668579102
10
72.04841136932373
20
51.414875984191895
10
72.17867374420166
20
51.231846809387207
10
72.308473587036133
20
51.048483848571777
10
72.437806129455566
20
50.86479663848877
10
72.617363929748535
20
50.635595321655273
10
72.841339111328125
20
50.449557304382324
10
73.099594116210938
20
50.315108299255371
10
73.380446434020996
20
50.238323211669922
10
73.671188354492188
20
50.222678184509277
10
73.958659172058105
20
50.26888370513916
10
75.788202285766602
20
50.918726921081543
10
78.290162086486816
20
51.572203636169434
10
81.483526229858398
20
52.118892669677734
10
81.988601684570313
20
51.320686340332031
10
82.485857009887695
20
50.517587661743164
10
82.975254058837891
20
49.709668159484863
10
81.199283599853516
20
47.266411781311035
10
79.362282752990723
20
45.146384239196777
10
77.965021133422852
20
43.798251152038574
10
77.795538902282715
20
43.561515808105469
10
77.679963111877441
20
43.294291496276855
10
77.623529434204102
20
43.008666038513184
10
77.628779411315918
20
42.71756649017334
10
77.695474624633789
20
42.434158325195313
10
77.820601463317871
20
42.171273231506348
10
77.927393913269043
20
41.973624229431152
10
78.033671379089355
20
41.775698661804199
10
78.139452934265137
20
41.577506065368652
10
78.289484977722168
20
41.327981948852539
10
78.488898277282715
20
41.115832328796387
10
78.728675842285156
20
40.950660705566406
10
78.997964859008789
20
40.839943885803223
10
79.284577369689941
20
40.788688659667969
10
79.57554817199707
20
40.799217224121094
10
81.471080780029297
20
41.219305992126465
10
84.03437614440918
20
41.560373306274414
10
87.270727157592773
20
41.71048641204834
10
87.673883438110352
20
40.856261253356934
10
88.068685531616211
20
39.998142719268799
10
88.455076217651367
20
39.136207103729248
10
86.392316818237305
20
36.929714679718018
10
84.308719635009766
20
35.05150318145752
10
82.756376266479492
20
33.885295391082764
10
82.559089660644531
20
33.671181201934814
10
82.411556243896484
20
33.420181274414063
10
82.320442199707031
20
33.143658638000488
10
82.289876937866211
20
32.854118347167969
10
82.321243286132813
20
32.564666271209717
10
82.413120269775391
20
32.28839635848999
10
82.494802474975586
20
32.079117298126221
10
82.575960159301758
20
31.869637966156006
10
82.656583786010742
20
31.659948825836182
10
82.774810791015625
20
31.393873691558838
10
82.946653366088867
20
31.158826351165771
10
83.164310455322266
20
30.965442657470703
10
83.417959213256836
20
30.822474956512451
10
83.696088790893555
20
30.736386775970459
10
83.98615837097168
20
30.711076259613037
10
85.918941497802734
20
30.895044803619385
10
88.504724502563477
20
30.918521881103516
10
91.734991073608398
20
30.669791698455811
10
92.030115127563477
20
29.772498607635498
10
92.316465377807617
20
28.872368335723877
10
92.594013214111328
20
27.969481945037842
10
90.275735855102539
20
26.033201217651367
10
87.977123260498047
20
24.425275325775146
10
86.293230056762695
20
23.45867395401001
10
86.071128845214844
20
23.270425796508789
10
85.89385986328125
20
23.039460182189941
10
85.769462585449219
20
22.776229381561279
10
85.703544616699219
20
22.492640018463135
10
85.69911003112793
20
22.201526165008545
10
85.756330490112305
20
21.91605806350708
10
85.811681747436523
20
21.698329448699951
10
85.866479873657227
20
21.480462551116943
10
85.920724868774414
20
21.262454986572266
10
86.005363464355469
20
20.983870029449463
10
86.147012710571289
20
20.72948694229126
10
86.339254379272461
20
20.510821342468262
10
86.573400497436523
20
20.337765216827393
10
86.838865280151367
20
20.218150615692139
10
87.123613357543945
20
20.157389640808105
10
89.064359664916992
20
20.10244607925415
10
91.633434295654297
20
19.807981252670288
10
94.808645248413086
20
19.164174795150757
10
94.991264343261719
20
18.237415552139282
10
95.164823532104492
20
17.308918237686157
10
95.329322814941406
20
16.378768682479858
10
92.790670394897461
20
14.742053747177124
10
90.311880111694336
20
13.428784608840942
10
88.521966934204102
20
12.676442861557007
10
88.278417587280273
20
12.51691460609436
10
88.074111938476563
20
12.309483289718628
10
87.918310165405273
20
12.063534259796143
10
87.81804084777832
20
11.790194511413574
10
87.777853012084961
20
11.501833200454712
10
87.799577713012695
20
11.211495399475098
10
87.827749252319336
20
10.988615751266479
10
87.855358123779297
20
10.765665769577026
10
87.882394790649414
20
10.542646646499634
10
87.932157516479492
20
10.255769491195679
10
88.041467666625977
20
9.9859094619750977
10
88.205394744873047
20
9.7452753782272339
10
88.416500091552734
20
9.5447570085525513
10
88.665237426757813
20
9.393426775932312
10
88.940372467041016
20
9.2981338500976563
10
90.859651565551758
20
9.0051126480102539
10
93.37306022644043
20
8.3971720933914185
10
96.445093154907227
20
7.3680496215820313
10
96.512441635131836
20
6.4258718490600586
10
96.570587158203125
20
5.4830819368362427
10
96.619529724121094
20
4.539768397808075
10
93.898992538452148
20
3.2274290919303894
10
91.277608871459961
20
2.2287288308143616
10
89.408798217773438
20
1.702047735452652
10
89.147491455078125
20
1.5736590325832367
10
88.919248580932617
20
1.3929061591625214
10
88.734397888183594
20
1.1679680645465851
10
88.601303100585938
20
0.90902179479598999
10
88.525991439819336
20
0.62778376042842865
10
88.511857986450195
20
0.33697888255119324
10
88.512430191040039
20
0.11232654564082623
10
88.512430191040039
20
-0.11232654564082623
10
88.511857986450195
20
-0.33697888255119324
10
88.525991439819336
20
-0.6277959793806076
10
88.601312637329102
20
-0.90904459357261658
10
88.734426498413086
20
-1.1679983139038086
10
88.919286727905273
20
-1.3929396867752075
10
89.147548675537109
20
-1.5736900269985199
10
89.40887451171875
20
-1.7020705342292786
10
91.277608871459961
20
-2.2287288308143616
10
93.697261810302734
20
-3.1409305334091187
10
96.619529724121094
20
-4.539768397808075
10
96.570587158203125
20
-5.4830819368362427
10
96.512441635131836
20
-6.4258718490600586
10
96.445093154907227
20
-7.3680496215820313
10
93.583898544311523
20
-8.3361190557479858
10
90.859651565551758
20
-9.0051126480102539
10
88.940296173095703
20
-9.2981475591659546
10
88.665189743041992
20
-9.3934518098831177
10
88.416461944580078
20
-9.5447856187820435
10
88.205366134643555
20
-9.7453022003173828
10
88.041458129882813
20
-9.985930323600769
10
87.932157516479492
20
-10.255781412124634
10
87.882394790649414
20
-10.542646646499634
10
87.855358123779297
20
-10.765665769577026
10
87.827749252319336
20
-10.988615751266479
10
87.799577713012695
20
-11.211495399475098
10
87.777853012084961
20
-11.501845121383667
10
87.818050384521484
20
-11.790218353271484
10
87.918319702148438
20
-12.063566446304321
10
88.074140548706055
20
-12.309521436691284
10
88.278465270996094
20
-12.516951560974121
10
88.52203369140625
20
-12.67647385597229
10
90.311880111694336
20
-13.428784608840942
10
92.601099014282227
20
-14.63141918182373
10
95.329322814941406
20
-16.378768682479858
10
95.164823532104492
20
-17.308918237686157
10
94.991264343261719
20
-18.237415552139282
10
94.808645248413086
20
-19.164174795150757
10
91.850166320800781
20
-19.773300886154175
10
89.064359664916992
20
-20.10244607925415
10
87.123537063598633
20
-20.157392024993896
10
86.838798522949219
20
-20.218167304992676
10
86.573362350463867
20
-20.337789058685303
10
86.339225769042969
20
-20.510845184326172
10
86.146993637084961
20
-20.729506015777588
10
86.005353927612305
20
-20.983879566192627
10
85.920724868774414
20
-21.262454986572266
10
85.866479873657227
20
-21.480462551116943
10
85.811681747436523
20
-21.698329448699951
10
85.756330490112305
20
-21.91605806350708
10
85.69911003112793
20
-22.2015380859375
10
85.703554153442383
20
-22.492663860321045
10
85.769481658935547
20
-22.776262760162354
10
85.893888473510742
20
-23.039500713348389
10
86.071176528930664
20
-23.270471096038818
10
86.293296813964844
20
-23.458714485168457
10
87.977123260498047
20
-24.425275325775146
10
90.101194381713867
20
-25.900111198425293
10
92.594013214111328
20
-27.969481945037842
10
92.316465377807617
20
-28.872368335723877
10
92.030115127563477
20
-29.772498607635498
10
91.734991073608398
20
-30.669791698455811
10
88.724088668823242
20
-30.91073751449585
10
85.918941497802734
20
-30.895044803619385
10
83.986082077026367
20
-30.711071491241455
10
83.69603157043457
20
-30.736396312713623
10
83.417901992797852
20
-30.822491645812988
10
83.164281845092773
20
-30.965464115142822
10
82.946634292602539
20
-31.1588454246521
10
82.774801254272461
20
-31.393885612487793
10
82.656583786010742
20
-31.659948825836182
10
82.575960159301758
20
-31.869637966156006
10
82.494802474975586
20
-32.079117298126221
10
82.413120269775391
20
-32.28839635848999
10
82.321243286132813
20
-32.564678192138672
10
82.289876937866211
20
-32.85414457321167
10
82.320451736450195
20
-33.143696784973145
10
82.411575317382813
20
-33.420226573944092
10
82.559127807617188
20
-33.671231269836426
10
82.756433486938477
20
-33.885345458984375
10
84.308719635009766
20
-35.05150318145752
10
86.235456466674805
20
-36.776185035705566
10
88.455076217651367
20
-39.136207103729248
10
88.068685531616211
20
-39.998142719268799
10
87.673883438110352
20
-40.856261253356934
10
87.270727157592773
20
-41.71048641204834
10
84.253034591674805
20
-41.579604148864746
10
81.471080780029297
20
-41.219305992126465
10
79.575471878051758
20
-40.799202919006348
10
79.284515380859375
20
-40.788688659667969
10
78.997917175292969
20
-40.839953422546387
10
78.728647232055664
20
-40.950675010681152
10
78.488879203796387
20
-41.115846633911133
10
78.289475440979004
20
-41.327986717224121
10
78.139452934265137
20
-41.577506065368652
10
78.033671379089355
20
-41.775698661804199
10
77.927393913269043
20
-41.973624229431152
10
77.820601463317871
20
-42.171273231506348
10
77.695474624633789
20
-42.434172630310059
10
77.628769874572754
20
-42.71759033203125
10
77.623529434204102
20
-43.00870418548584
10
77.679986953735352
20
-43.294339179992676
10
77.795572280883789
20
-43.561568260192871
10
77.965073585510254
20
-43.798308372497559
10
79.362282752990723
20
-45.146384239196777
10
81.062469482421875
20
-47.094764709472656
10
82.975254058837891
20
-49.709668159484863
10
82.485857009887695
20
-50.517587661743164
10
81.988601684570313
20
-51.320686340332031
10
81.483526229858398
20
-52.118892669677734
10
78.504786491394043
20
-51.618161201477051
10
75.788202285766602
20
-50.918726921081543
10
73.958587646484375
20
-50.26885986328125
10
73.671126365661621
20
-50.222673416137695
10
73.380403518676758
20
-50.238327980041504
10
73.099565505981445
20
-50.315122604370117
10
72.841315269470215
20
-50.449576377868652
10
72.617354393005371
20
-50.635604858398438
10
72.437806129455566
20
-50.86479663848877
10
72.308473587036133
20
-51.048483848571777
10
72.17867374420166
20
-51.231846809387207
10
72.04841136932373
20
-51.414875984191895
10
71.891913414001465
20
-51.660404205322266
10
71.790895462036133
20
-51.933479309082031
10
71.749916076660156
20
-52.221741676330566
10
71.770844459533691
20
-52.512149810791016
10
71.852717399597168
20
-52.791562080383301
10
71.991839408874512
20
-53.047332763671875
10
73.212800025939941
20
-54.556894302368164
10
74.66066837310791
20
-56.699442863464355
10
76.237602233886719
20
-59.529585838317871
10
75.652632713317871
20
-60.271234512329102
10
75.060458183288574
20
-61.007142066955566
10
74.461112022399902
20
-61.737227439880371
10
71.56649112701416
20
-60.874242782592773
10
68.956446647644043
20
-59.846272468566895
10
67.220568656921387
20
-58.976492881774902
10
66.940956115722656
20
-58.895330429077148
10
66.650514602661133
20
-58.875136375427246
10
66.362366676330566
20
-58.916835784912109
10
66.089553833007813
20
-59.018535614013672
10
65.844430923461914
20
-59.175634384155273
10
65.638079643249512
20
-59.381022453308105
10
65.487146377563477
20
-59.547429084777832
10
65.335803031921387
20
-59.713449478149414
10
65.184030532836914
20
-59.879088401794434
10
64.998550415039063
20
-60.103521347045898
10
64.864740371704102
20
-60.362110137939453
10
64.788651466369629
20
-60.643153190612793
10
64.773726463317871
20
-60.933928489685059
10
64.820642471313477
20
-61.221284866333008
10
64.927277565002441
20
-61.492214202880859
10
65.953478813171387
20
-63.140373229980469
10
67.1270751953125
20
-65.444612503051758
10
68.344268798828125
20
-68.447084426879883
10
67.672600746154785
20
-69.111227989196777
10
66.994476318359375
20
-69.768791198730469
10
66.309962272644043
20
-70.419692993164063
10
63.54332447052002
20
-69.20753002166748
10
61.079387664794922
20
-67.866606712341309
10
59.46354866027832
20
-66.790099143981934
10
59.196033477783203
20
-66.675195693969727
10
58.910269737243652
20
-66.619462966918945
10
58.619184494018555
20
-66.62543773651123
10
58.33594799041748
20
-66.692843437194824
10
58.073368072509766
20
-66.818618774414063
10
57.843337059020996
20
-66.99709415435791
10
57.67310619354248
20
-67.143692970275879
10
57.502508163452148
20
-67.289857864379883
10
57.331533432006836
20
-67.43558406829834
10
57.119879722595215
20
-67.635531425476074
10
56.955304145812988
20
-67.875709533691406
10
56.845254898071289
20
-68.145270347595215
10
56.794710159301758
20
-68.432016372680664
10
56.80595874786377
20
-68.722953796386719
10
56.878490447998047
20
-69.004936218261719
10
57.69437313079834
20
-70.766711235046387
10
58.575911521911621
20
-73.19770336151123
10
59.414916038513184
20
-76.327004432678223
10
58.666715621948242
20
-76.903572082519531
10
57.912921905517578
20
-77.472810745239258
10
57.153606414794922
20
-78.034663200378418
10
54.556903839111328
20
-76.49169921875
10
52.276425361633301
20
-74.858155250549316
10
50.80512523651123
20
-73.591241836547852
10
50.553755760192871
20
-73.444328308105469
10
50.277009010314941
20
-73.35390567779541
10
49.987392425537109
20
-73.324060440063477
10
49.698019027709961
20
-73.356142044067383
10
49.42197322845459
20
-73.448710441589355
10
49.171757698059082
20
-73.597564697265625
10
48.984804153442383
20
-73.722128868103027
10
48.797531127929688
20
-73.846216201782227
10
48.609943389892578
20
-73.969836235046387
10
48.375325202941895
20
-74.142251014709473
10
48.182482719421387
20
-74.360389709472656
10
48.04013729095459
20
-74.614381790161133
10
47.954740524291992
20
-74.892740249633789
10
47.930150032043457
20
-75.182862281799316
10
47.96748161315918
20
-75.471620559692383
10
48.560676574707031
20
-77.32029914855957
10
49.136795997619629
20
-79.841194152832031
10
49.584879875183105
20
-83.04987907409668
10
48.771505355834961
20
-83.530139923095703
10
47.95346736907959
20
-84.00242805480957
10
47.130866050720215
20
-84.466705322265625
10
44.743456840515137
20
-82.616338729858398
10
42.681002616882324
20
-80.714931488037109
10
41.376543045043945
20
-79.276809692382813
10
41.145138740539551
20
-79.100122451782227
10
40.881595611572266
20
-78.976373672485352
10
40.597848892211914
20
-78.911166191101074
10
40.306720733642578
20
-78.90744686126709
10
40.021395683288574
20
-78.965387344360352
10
39.75477933883667
20
-79.08236026763916
10
39.553935527801514
20
-79.183006286621094
10
39.352834224700928
20
-79.28314208984375
10
39.151477813720703
20
-79.382777214050293
10
38.897449970245361
20
-79.525046348571777
10
38.679261207580566
20
-79.717836380004883
10
38.506782054901123
20
-79.95241641998291
10
38.387825489044189
20
-80.218162536621094
10
38.327770233154297
20
-80.503072738647461
10
38.329334259033203
20
-80.794219970703125
10
38.690853118896484
20
-82.701787948608398
10
38.952815532684326
20
-85.274381637573242
10
39.003198146820068
20
-88.513813018798828
10
38.136963844299316
20
-88.890466690063477
10
37.267093658447266
20
-89.258651733398438
10
36.393668651580811
20
-89.618330001831055
10
34.251744747161865
20
-87.488594055175781
10
32.438583374023438
20
-85.348148345947266
10
31.320738792419434
20
-83.760623931884766
10
31.112799644470215
20
-83.556842803955078
10
30.866463184356689
20
-83.401641845703125
10
30.592877864837646
20
-83.302059173583984
10
30.304415225982666
20
-83.26258659362793
10
30.014133453369141
20
-83.285026550292969
10
29.735164642333984
20
-83.368358612060547
10
29.523472785949707
20
-83.44355583190918
10
29.311587810516357
20
-83.518218994140625
10
29.0995192527771
20
-83.592348098754883
10
28.829929828643799
20
-83.702335357666016
10
28.589701652526855
20
-83.866844177246094
10
28.389706611633301
20
-84.078445434570313
10
28.238992691040039
20
-84.327573776245117
10
28.144383430480957
20
-84.602928161621094
10
28.110153675079346
20
-84.892072677612305
10
28.234515190124512
20
-86.829605102539063
10
28.178350925445557
20
-89.414892196655273
10
27.830262184143066
20
-92.635955810546875
10
26.924307346343994
20
-92.903318405151367
10
26.015784740447998
20
-93.161802291870117
10
25.104777812957764
20
-93.411417007446289
10
23.240809440612793
20
-91.034612655639648
10
21.70443058013916
20
-88.687582015991211
10
20.790143013000488
20
-86.974706649780273
10
20.608823299407959
20
-86.746921539306641
10
20.383427143096924
20
-86.562633514404297
10
20.124149322509766
20
-86.430177688598633
10
19.842725992202759
20
-86.355562210083008
10
19.551887512207031
20
-86.342153549194336
10
19.264792203903198
20
-86.390571594238281
10
19.045463800430298
20
-86.439189910888672
10
18.826011419296265
20
-86.487245559692383
10
18.60643744468689
20
-86.534757614135742
10
18.325376510620117
20
-86.610774993896484
10
18.066753149032593
20
-86.744518280029297
10
17.842270135879517
20
-86.929941177368164
10
17.662086486816406
20
-87.158651351928711
10
17.534353733062744
20
-87.42030143737793
10
17.464851140975952
20
-87.703046798706055
10
17.350168228149414
20
-89.641180038452148
10
16.976730823516846
20
-92.19996452331543
10
16.235449314117432
20
-95.353832244873047
10
15.303505659103394
20
-95.507831573486328
10
14.370101690292358
20
-95.65272331237793
10
13.43532919883728
20
-95.788488388061523
10
11.877567768096924
20
-93.20063591003418
10
10.64125657081604
20
-90.682592391967773
10
9.9443906545639038
20
-88.870353698730469
10
9.7924387454986572
20
-88.622007369995117
10
9.5913976430892944
20
-88.411407470703125
10
9.35036301612854
20
-88.248100280761719
10
9.080241322517395
20
-88.139476776123047
10
8.7932533025741577
20
-88.090429306030273
10
8.5023850202560425
20
-88.103189468383789
10
8.2787436246871948
20
-88.124494552612305
10
8.0550491809844971
20
-88.145217895507813
10
7.8313028812408447
20
-88.165378570556641
10
7.54302978515625
20
-88.206281661987305
10
7.2699308395385742
20
-88.307228088378906
10
7.0243632793426514
20
-88.463659286499023
10
6.8174386024475098
20
-88.668498992919922
10
6.6585206985473633
20
-88.912458419799805
10
6.5548008680343628
20
-89.18452262878418
10
6.2028133869171143
20
-91.093873977661133
10
5.5177605152130127
20
-93.587369918823242
10
4.3945232033729553
20
-96.626243591308594
10
3.4507182240486145
20
-96.664552688598633
10
2.5065842270851135
20
-96.693639755249023
10
1.5622113645076752
20
-96.71351432800293
10
0.33427368849515915
20
-93.953847885131836
10
-0.58322727680206299
20
-91.302947998046875
10
-1.0521087795495987
20
-89.418811798095703
10
-1.1723896116018295
20
-89.153671264648438
10
-1.3460277020931244
20
-88.919973373413086
10
-1.5651668608188629
20
-88.72828483581543
10
-1.819891631603241
20
-88.587274551391602
10
-2.098677009344101
20
-88.503332138061523
10
-2.388908863067627
20
-88.480253219604492
10
-2.6134723424911499
20
-88.473911285400391
10
-2.8380188345909119
20
-88.466987609863281
10
-3.0625471472740173
20
-88.459501266479492
10
-3.3536612987518311
20
-88.464670181274414
10
-3.6370959877967834
20
-88.531293869018555
10
-3.9000257849693298
20
-88.656368255615234
10
-4.1305539011955261
20
-88.834218978881836
10
-4.3182474374771118
20
-89.056806564331055
10
-4.4546148180961609
20
-89.314060211181641
10
-5.038570761680603
20
-91.165685653686523
10
-6.0248535871505737
20
-93.556089401245117
10
-7.5130194425582886
20
-96.433906555175781
10
-8.4543782472610474
20
-96.355934143066406
10
-9.3949311971664429
20
-96.268787384033203
10
-10.334587097167969
20
-96.172447204589844
10
-11.214087009429932
20
-93.282804489135742
10
-11.798869371414185
20
-90.53924560546875
10
-12.032660245895386
20
-88.611774444580078
10
-12.11944580078125
20
-88.333854675292969
10
-12.263048887252808
20
-88.080587387084961
10
-12.45697021484375
20
-87.86341667175293
10
-12.69243597984314
20
-87.692184448242188
10
-12.958793640136719
20
-87.574625015258789
10
-13.243989944458008
20
-87.516050338745117
10
-13.466070890426636
20
-87.482156753540039
10
-13.688066005706787
20
-87.447690963745117
10
-13.909971714019775
20
-87.41267204284668
10
-14.199514389038086
20
-87.382030487060547
10
-14.488987922668457
20
-87.413320541381836
10
-14.765294790267944
20
-87.505130767822266
10
-15.015931129455566
20
-87.653303146362305
10
-15.229556560516357
20
-87.851133346557617
10
-15.396503210067749
20
-88.089675903320313
10
-16.203575134277344
20
-89.855508804321289
10
-17.476135492324829
20
-92.106599807739258
10
-19.306671619415283
20
-94.779729843139648
10
-20.231316089630127
20
-94.586668014526367
10
-21.154029369354248
20
-94.384593963623047
10
-22.07472562789917
20
-94.173507690429688
10
-22.592453956604004
20
-91.197681427001953
10
-22.835652828216553
20
-88.40306282043457
10
-22.830808162689209
20
-86.461467742919922
10
-22.88278341293335
20
-86.174993515014648
10
-22.9941725730896
20
-85.906000137329102
10
-23.159940242767334
20
-85.666646957397461
10
-23.372576236724854
20
-85.467767715454102
10
-23.622467517852783
20
-85.318365097045898
10
-23.898303508758545
20
-85.225200653076172
10
-24.114539623260498
20
-85.164260864257813
10
-24.330613613128662
20
-85.102787017822266
10
-24.546535015106201
20
-85.040760040283203
10
-24.830117225646973
20
-84.974765777587891
10
-25.121243000030518
20
-84.970235824584961
10
-25.406737327575684
20
-85.027399063110352
10
-25.673682689666748
20
-85.143651962280273
10
-25.910000801086426
20
-85.313739776611328
10
-26.104996204376221
20
-85.529956817626953
10
-27.122950553894043
20
-87.183218002319336
10
-28.662497997283936
20
-89.2608642578125
10
-30.807654857635498
20
-91.688776016235352
10
-31.701564788818359
20
-91.383552551269531
10
-32.592453956604004
20
-91.069622039794922
10
-33.480229377746582
20
-90.746994018554688
10
-33.628342151641846
20
-87.7301025390625
10
-33.526272773742676
20
-84.926776885986328
10
-33.282864093780518
20
-83.000497817993164
10
-33.299241065979004
20
-82.709808349609375
10
-33.376731872558594
20
-82.429161071777344
10
-33.511826992034912
20
-82.171249389648438
10
-33.698413372039795
20
-81.947755813598633
10
-33.928050994873047
20
-81.768770217895508
10
-34.190347194671631
20
-81.64240837097168
10
-34.397454261779785
20
-81.555366516113281
10
-34.604337215423584
20
-81.467809677124023
10
-34.810998439788818
20
-81.379709243774414
10
-35.08432149887085
20
-81.279363632202148
10
-35.372684001922607
20
-81.239109039306641
10
-35.663039684295654
20
-81.260747909545898
10
-35.942246913909912
20
-81.343307495117188
10
-36.19767427444458
20
-81.483068466186523
10
-36.417763233184814
20
-81.673688888549805
10
-37.631168365478516
20
-83.189325332641602
10
-39.41436767578125
20
-85.062026977539063
10
-41.841626167297363
20
-87.207927703857422
10
-42.691254615783691
20
-86.795158386230469
10
-43.536810874938965
20
-86.374120712280273
10
-44.378213882446289
20
-85.944852828979492
10
-44.154458045959473
20
-82.932624816894531
10
-43.708662986755371
20
-80.163087844848633
10
-43.230385780334473
20
-78.28132152557373
10
-43.210916519165039
20
-77.990822792053223
10
-43.253331184387207
20
-77.702784538269043
10
-43.355708122253418
20
-77.430224418640137
10
-43.513412475585938
20
-77.185487747192383
10
-43.719315528869629
20
-76.979646682739258
10
-43.964095115661621
20
-76.822009086608887
10
-44.158935546875
20
-76.710176467895508
10
-44.353494644165039
20
-76.597847938537598
10
-44.547762870788574
20
-76.48503303527832
10
-44.806685447692871
20
-76.351861953735352
10
-45.087909698486328
20
-76.276469230651855
10
-45.37872314453125
20
-76.262259483337402
10
-45.66596508026123
20
-76.309890747070313
10
-45.93663215637207
20
-76.417193412780762
10
-46.178474426269531
20
-76.579322814941406
10
-47.568936347961426
20
-77.934355735778809
10
-49.568753242492676
20
-79.57374095916748
10
-52.241320610046387
20
-81.405086517333984
10
-53.033785820007324
20
-80.891046524047852
10
-53.821191787719727
20
-80.369291305541992
10
-54.603462219238281
20
-79.839873313903809
10
-54.011240005493164
20
-76.877970695495605
10
-53.228483200073242
20
-74.184212684631348
10
-52.522578239440918
20
-72.375473976135254
10
-52.467560768127441
20
-72.089576721191406
10
-52.474255561828613
20
-71.798501014709473
10
-52.542362213134766
20
-71.515436172485352
10
-52.668795585632324
20
-71.253175735473633
10
-52.847843170166016
20
-71.02358341217041
10
-53.071398735046387
20
-70.837068557739258
10
-53.251018524169922
20
-70.702133178710938
10
-53.430294990539551
20
-70.566749572753906
10
-53.609228134155273
20
-70.430917739868164
10
-53.849821090698242
20
-70.266928672790527
10
-54.119653701782227
20
-70.157556533813477
10
-54.406518936157227
20
-70.107722282409668
10
-54.697432518005371
20
-70.119690895080566
10
-54.979228973388672
20
-70.19291877746582
10
-55.239167213439941
20
-70.3240966796875
10
-56.785612106323242
20
-71.497993469238281
10
-58.971729278564453
20
-72.879190444946289
10
-61.849093437194824
20
-74.368224143981934
10
-62.572379112243652
20
-73.760695457458496
10
-63.289694786071777
20
-73.146142959594727
10
-64.000983238220215
20
-72.524600028991699
10
-63.049263954162598
20
-69.657931327819824
10
-61.941409111022949
20
-67.080774307250977
10
-61.018581390380859
20
-65.372500419616699
10
-60.928845405578613
20
-65.09552001953125
10
-60.899720191955566
20
-64.805841445922852
10
-60.932526588439941
20
-64.516539573669434
10
-61.025776863098145
20
-64.240732192993164
10
-61.175251007080078
20
-63.990883827209473
10
-61.374187469482422
20
-63.778300285339355
10
-61.535868644714355
20
-63.622322082519531
10
-61.697149276733398
20
-63.465933799743652
10
-61.858034133911133
20
-63.309135437011719
10
-62.07664966583252
20
-63.11683177947998
10
-62.330994606018066
20
-62.975120544433594
10
-62.60955810546875
20
-62.890410423278809
10
-62.899737358093262
20
-62.866544723510742
10
-63.18840503692627
20
-62.904586791992188
10
-63.462491035461426
20
-63.002829551696777
10
-65.141472816467285
20
-63.977785110473633
10
-67.48075008392334
20
-65.079874992370605
10
-70.519289970397949
20
-66.204028129577637
10
-71.16243839263916
20
-65.512223243713379
10
-71.798796653747559
20
-64.814162254333496
10
-72.42830753326416
20
-64.109930992126465
10
-71.131525039672852
20
-61.381940841674805
10
-69.715361595153809
20
-58.960461616516113
10
-68.589606285095215
20
-57.378535270690918
10
-68.46651554107666
20
-57.114691734313965
10
-68.402009010314941
20
-56.830778121948242
10
-68.399019241333008
20
-56.539645195007324
10
-68.45766544342041
20
-56.254467964172363
10
-68.575301170349121
20
-55.988144874572754
10
-68.746614456176758
20
-55.752725601196289
10
-68.887896537780762
20
-55.578060150146484
10
-69.028735160827637
20
-55.403037071228027
10
-69.169130325317383
20
-55.227656364440918
10
-69.362459182739258
20
-55.009946823120117
10
-69.597468376159668
20
-54.838051795959473
10
-69.863510131835938
20
-54.719753265380859
10
-70.148553848266602
20
-54.660406112670898
10
-70.439705848693848
20
-54.662690162658691
10
-70.723786354064941
20
-54.726500511169434
10
-72.509851455688477
20
-55.48774242401123
10
-74.966835975646973
20
-56.294002532958984
10
-78.12049388885498
20
-57.036242485046387
10
-78.673744201660156
20
-56.270642280578613
10
-79.219498634338379
20
-55.499677658081055
0
LWPOLYLINE
5
101
100
AcDbEntity
8
0
100
AcDbPolyline
90
1224
70
1
43
0.0
10
-79.757699966430664
20
-54.723415374755859
10
-78.135504722595215
20
-52.175459861755371
10
-76.432509422302246
20
-49.946370124816895
10
-75.120882987976074
20
-48.51478099822998
10
-74.966301918029785
20
-48.268060684204102
10
-74.867396354675293
20
-47.994227409362793
10
-74.828643798828125
20
-47.70566463470459
10
-74.851808547973633
20
-47.41544246673584
10
-74.935822486877441
20
-47.136683464050293
10
-75.076904296875
20
-46.88199520111084
10
-75.195651054382324
20
-46.691293716430664
10
-75.313920974731445
20
-46.500287055969238
10
-75.431694984436035
20
-46.308984756469727
10
-75.596804618835449
20
-46.069164276123047
10
-75.808906555175781
20
-45.869693756103516
10
-76.05839729309082
20
-45.719599723815918
10
-76.333985328674316
20
-45.625672340393066
10
-76.623215675354004
20
-45.592155456542969
10
-76.912980079650879
20
-45.620579719543457
10
-78.779053688049316
20
-46.156563758850098
10
-81.316499710083008
20
-46.654777526855469
10
-84.537458419799805
20
-47.003836631774902
10
-84.992437362670898
20
-46.176056861877441
10
-85.439319610595703
20
-45.343871116638184
10
-85.878047943115234
20
-44.507355690002441
10
-83.95503044128418
20
-42.178058624267578
10
-81.99101448059082
20
-40.175142288208008
10
-80.513410568237305
20
-38.915584087371826
10
-80.329675674438477
20
-38.689732551574707
10
-80.197868347167969
20
-38.430125713348389
10
-80.123958587646484
20
-38.148517608642578
10
-80.111265182495117
20
-37.857644557952881
10
-80.160398483276367
20
-37.570672035217285
10
-80.269107818603516
20
-37.30057954788208
10
-80.363521575927734
20
-37.096729278564453
10
-80.45741081237793
20
-36.892640590667725
10
-80.55079460144043
20
-36.688313484191895
10
-80.685186386108398
20
-36.430022716522217
10
-80.871162414550781
20
-36.205997467041016
10
-81.100311279296875
20
-36.026382446289063
10
-81.362276077270508
20
-35.899295806884766
10
-81.645193099975586
20
-35.830497741699219
10
-81.936254501342773
20
-35.823094844818115
10
-83.854055404663086
20
-36.125695705413818
10
-86.433486938476563
20
-36.30831241607666
10
-89.672927856445313
20
-36.258912086486816
10
-90.022735595703125
20
-35.381488800048828
10
-90.363960266113281
20
-34.500691890716553
10
-90.696563720703125
20
-33.616604804992676
10
-88.501882553100586
20
-31.541280746459961
10
-86.306619644165039
20
-29.794900417327881
10
-84.685430526733398
20
-28.726470470428467
10
-84.475326538085938
20
-28.524906635284424
10
-84.312620162963867
20
-28.283467292785645
10
-84.20466423034668
20
-28.013074398040771
10
-84.156332015991211
20
-27.725965976715088
10
-84.169816970825195
20
-27.435131072998047
10
-84.244518280029297
20
-27.153728008270264
10
-84.313154220581055
20
-26.939818859100342
10
-84.381265640258789
20
-26.725738048553467
10
-84.448823928833008
20
-26.511485576629639
10
-84.550457000732422
20
-26.238639354705811
10
-84.707489013671875
20
-25.993459224700928
10
-84.912834167480469
20
-25.787041187286377
10
-85.157194137573242
20
-25.628728866577148
10
-85.429515838623047
20
-25.525681972503662
10
-85.717458724975586
20
-25.482566356658936
10
-87.657909393310547
20
-25.547199249267578
10
-90.240240097045898
20
-25.411450862884521
10
-93.44904899597168
20
-24.964332580566406
10
-93.688383102416992
20
-24.05057430267334
10
-93.918781280517578
20
-23.134522438049316
10
-94.140224456787109
20
-22.216262817382813
10
-91.707143783569336
20
-20.426368713378906
10
-89.313898086547852
20
-18.962996006011963
10
-87.573690414428711
20
-18.101891279220581
10
-87.340421676635742
20
-17.927674055099487
10
-87.149276733398438
20
-17.708057165145874
10
-87.008914947509766
20
-17.452983856201172
10
-86.9256591796875
20
-17.17399001121521
10
-86.903305053710938
20
-16.883701086044312
10
-86.942853927612305
20
-16.595252752304077
10
-86.984701156616211
20
-16.374530792236328
10
-87.025976181030273
20
-16.153701543807983
10
-87.06669807434082
20
-15.932769775390625
10
-87.134027481079102
20
-15.649501085281372
10
-87.259740829467773
20
-15.386881828308105
10
-87.438163757324219
20
-15.156795978546143
10
-87.661218643188477
20
-14.969652891159058
10
-87.918806076049805
20
-14.833923578262329
10
-88.199272155761719
20
-14.755748510360718
10
-90.132961273193359
20
-14.581435918807983
10
-92.679023742675781
20
-14.129375219345093
10
-95.808582305908203
20
-13.291321992874146
10
-95.933809280395508
20
-12.355078458786011
10
-96.049880981445313
20
-11.417654752731323
10
-96.156797409057617
20
-10.479143857955933
10
-93.522214889526367
20
-9.0018147230148315
10
-90.967283248901367
20
-7.8436338901519775
10
-89.134445190429688
20
-7.2029060125350952
10
-88.88153076171875
20
-7.058674693107605
10
-88.664846420288086
20
-6.8642133474349976
10
-88.494195938110352
20
-6.6283226013183594
10
-88.377294540405273
20
-6.3616740703582764
10
-88.319435119628906
20
-6.0763329267501831
10
-88.323240280151367
20
-5.785210132598877
10
-88.337631225585938
20
-5.5610191822052002
10
-88.351469039916992
20
-5.3367918729782104
10
-88.364725112915039
20
-5.1125305891036987
10
-88.396730422973633
20
-4.8231348395347595
10
-88.489227294921875
20
-4.5470568537712097
10
-88.638029098510742
20
-4.2967882752418518
10
-88.836383819580078
20
-4.08365398645401
10
-89.075345993041992
20
-3.9172986149787903
10
-89.344081878662109
20
-3.8052493333816528
10
-91.241683959960938
20
-3.3946302533149719
10
-93.712902069091797
20
-2.633114755153656
10
-96.71574592590332
20
-1.4168278872966766
10
-96.724967956542969
20
-0.47229096293449402
10
-96.724967956542969
20
0.47229096293449402
10
-96.71574592590332
20
1.4168278872966766
10
-93.919572830200195
20
2.5591990351676941
10
-91.241683959960938
20
3.3946302533149719
10
-89.344005584716797
20
3.8052675127983093
10
-89.075279235839844
20
3.917326033115387
10
-88.836345672607422
20
4.0836849808692932
10
-88.637990951538086
20
4.296816885471344
10
-88.489217758178711
20
4.5470786094665527
10
-88.396730422973633
20
4.8231467604637146
10
-88.364725112915039
20
5.1125305891036987
10
-88.351469039916992
20
5.3367918729782104
10
-88.337631225585938
20
5.5610191822052002
10
-88.323240280151367
20
5.785210132598877
10
-88.319435119628906
20
6.0763454437255859
10
-88.377304077148438
20
6.3616973161697388
10
-88.49421501159668
20
6.6283541917800903
10
-88.664884567260742
20
6.8642491102218628
10
-88.881587982177734
20
7.0587092638015747
10
-89.134511947631836
20
7.2029334306716919
10
-90.967283248901367
20
7.8436338901519775
10
-93.326187133789063
20
8.9030611515045166
10
-96.156797409057617
20
10.479143857955933
10
-96.049880981445313
20
11.417654752731323
10
-95.933809280395508
20
12.355078458786011
10
-95.808582305908203
20
13.291321992874146
10
-92.893218994140625
20
14.081417322158813
10
-90.132961273193359
20
14.581435918807983
10
-88.199195861816406
20
14.755758047103882
10
-87.91874885559082
20
14.833945035934448
10
-87.661170959472656
20
14.969679117202759
10
-87.438135147094727
20
15.156821012496948
10
-87.259731292724609
20
15.386902093887329
10
-87.134017944335938
20
15.649513006210327
10
-87.06669807434082
20
15.932769775390625
10
-87.025976181030273
20
16.153701543807983
10
-86.984701156616211
20
16.374530792236328
10
-86.942853927612305
20
16.595252752304077
10
-86.903305053710938
20
16.883715391159058
10
-86.925668716430664
20
17.174015045166016
10
-87.00892448425293
20
17.453018426895142
10
-87.149314880371094
20
17.708097696304321
10
-87.340478897094727
20
17.927713394165039
10
-87.573766708374023
20
18.101927042007446
10
-89.313898086547852
20
18.962996006011963
10
-91.524734497070313
20
20.304276943206787
10
-94.140224456787109
20
22.216262817382813
10
-93.918781280517578
20
23.134522438049316
10
-93.688383102416992
20
24.05057430267334
10
-93.44904899597168
20
24.964332580566406
10
-90.458698272705078
20
25.390176773071289
10
-87.657909393310547
20
25.547199249267578
10
-85.717382431030273
20
25.482566356658936
10
-85.429449081420898
20
25.525693893432617
10
-85.157155990600586
20
25.628747940063477
10
-84.912805557250977
20
25.787065029144287
10
-84.707479476928711
20
25.993478298187256
10
-84.550447463989258
20
26.238648891448975
10
-84.448823928833008
20
26.511485576629639
10
-84.381265640258789
20
26.725738048553467
10
-84.313154220581055
20
26.939818859100342
10
-84.244518280029297
20
27.153728008270264
10
-84.169816970825195
20
27.435142993927002
10
-84.156332015991211
20
27.725989818572998
10
-84.204673767089844
20
28.013112545013428
10
-84.312648773193359
20
28.283510208129883
10
-84.475374221801758
20
28.524951934814453
10
-84.685487747192383
20
28.726513385772705
10
-86.306619644165039
20
29.794900417327881
10
-88.335866928100586
20
31.397697925567627
10
-90.696563720703125
20
33.616604804992676
10
-90.363960266113281
20
34.500691890716553
10
-90.022735595703125
20
35.381488800048828
10
-89.672927856445313
20
36.258912086486816
10
-86.652908325195313
20
36.314046382904053
10
-83.854055404663086
20
36.125695705413818
10
-81.936178207397461
20
35.82308292388916
10
-81.645126342773438
20
35.830502510070801
10
-81.362228393554688
20
35.899312496185303
10
-81.100282669067383
20
36.026401519775391
10
-80.871143341064453
20
36.206016540527344
10
-80.685176849365234
20
36.430032253265381
10
-80.55079460144043
20
36.688313484191895
10
-80.45741081237793
20
36.892640590667725
10
-80.363521575927734
20
37.096729278564453
10
-80.269107818603516
20
37.30057954788208
10
-80.160398483276367
20
37.57068395614624
10
-80.111265182495117
20
37.857670783996582
10
-80.123968124389648
20
38.148553371429443
10
-80.197896957397461
20
38.430173397064209
10
-80.329713821411133
20
38.689782619476318
10
-80.513458251953125
20
38.915634155273438
10
-81.99101448059082
20
40.175142288208008
10
-83.807926177978516
20
42.015166282653809
10
-85.878047943115234
20
44.507355690002441
10
-85.439319610595703
20
45.343871116638184
10
-84.992437362670898
20
46.176056861877441
10
-84.537458419799805
20
47.003836631774902
10
-81.533546447753906
20
46.687431335449219
10
-78.779053688049316
20
46.156563758850098
10
-76.91291332244873
20
45.620560646057129
10
-76.623148918151855
20
45.592155456542969
10
-76.333937644958496
20
45.62568187713623
10
-76.058359146118164
20
45.719614028930664
10
-75.808882713317871
20
45.869708061218262
10
-75.596795082092285
20
46.069178581237793
10
-75.431694984436035
20
46.308984756469727
10
-75.313920974731445
20
46.500287055969238
10
-75.195651054382324
20
46.691293716430664
10
-75.076904296875
20
46.88199520111084
10
-74.935822486877441
20
47.136693000793457
10
-74.851799011230469
20
47.41546630859375
10
-74.828653335571289
20
47.705702781677246
10
-74.867410659790039
20
47.994270324707031
10
-74.966330528259277
20
48.268113136291504
10
-75.120935440063477
20
48.514838218688965
10
-76.432509422302246
20
49.946370124816895
10
-78.009529113769531
20
51.995725631713867
10
-79.757699966430664
20
54.723415374755859
10
-79.219498634338379
20
55.499677658081055
10
-78.673744201660156
20
56.270642280578613
10
-78.12049388885498
20
57.036242485046387
10
-75.178232192993164
20
56.353082656860352
10
-72.509851455688477
20
55.48774242401123
10
-70.723719596862793
20
54.726476669311523
10
-70.439643859863281
20
54.662680625915527
10
-70.148506164550781
20
54.660406112670898
10
-69.863471984863281
20
54.719767570495605
10
-69.597444534301758
20
54.838061332702637
10
-69.362449645996094
20
55.009951591491699
10
-69.169130325317383
20
55.227656364440918
10
-69.028735160827637
20
55.403037071228027
10
-68.887896537780762
20
55.578060150146484
10
-68.746614456176758
20
55.752725601196289
10
-68.575296401977539
20
55.988154411315918
10
-68.457655906677246
20
56.254491806030273
10
-68.399019241333008
20
56.53968334197998
10
-68.402023315429688
20
56.830830574035645
10
-68.46653938293457
20
57.114748954772949
10
-68.589644432067871
20
57.378602027893066
10
-69.715361595153809
20
58.960461616516113
10
-71.028590202331543
20
61.188082695007324
10
-72.42830753326416
20
64.109930992126465
10
-71.798796653747559
20
64.814162254333496
10
-71.16243839263916
20
65.512223243713379
10
-70.519289970397949
20
66.204028129577637
10
-67.683281898498535
20
65.164484977722168
10
-65.141472816467285
20
63.977785110473633
10
-63.462424278259277
20
63.002791404724121
10
-63.188343048095703
20
62.904567718505859
10
-62.899689674377441
20
62.86653995513916
10
-62.609524726867676
20
62.890419960021973
10
-62.330970764160156
20
62.975130081176758
10
-62.076640129089355
20
63.116841316223145
10
-61.858034133911133
20
63.309135437011719
10
-61.697149276733398
20
63.465933799743652
10
-61.535868644714355
20
63.622322082519531
10
-61.374187469482422
20
63.778300285339355
10
-61.175246238708496
20
63.990893363952637
10
-61.02576732635498
20
64.240756034851074
10
-60.932521820068359
20
64.51657772064209
10
-60.899724960327148
20
64.80588436126709
10
-60.928864479064941
20
65.09559154510498
10
-61.018614768981934
20
65.372567176818848
10
-61.941409111022949
20
67.080774307250977
10
-62.970929145812988
20
69.45289134979248
10
-64.000983238220215
20
72.524600028991699
10
-63.289694786071777
20
73.146142959594727
10
-62.572379112243652
20
73.760695457458496
10
-61.849093437194824
20
74.368224143981934
10
-59.162325859069824
20
72.98804759979248
10
-56.785612106323242
20
71.497993469238281
10
-55.239105224609375
20
70.324053764343262
10
-54.979171752929688
20
70.19289493560791
10
-54.697380065917969
20
70.11967658996582
10
-54.40648078918457
20
70.107722282409668
10
-54.119629859924316
20
70.157556533813477
10
-53.849806785583496
20
70.266938209533691
10
-53.609228134155273
20
70.430917739868164
10
-53.430294990539551
20
70.566749572753906
10
-53.251018524169922
20
70.702133178710938
10
-53.071398735046387
20
70.837068557739258
10
-52.847838401794434
20
71.023597717285156
10
-52.66878604888916
20
71.253199577331543
10
-52.542352676391602
20
71.515474319458008
10
-52.474250793457031
20
71.798553466796875
10
-52.467570304870605
20
72.089638710021973
10
-52.522602081298828
20
72.375550270080566
10
-53.228483200073242
20
74.184212684631348
10
-53.958697319030762
20
76.664857864379883
10
-54.603462219238281
20
79.839873313903809
10
-53.821191787719727
20
80.369291305541992
10
-53.033785820007324
20
80.891046524047852
10
-52.241320610046387
20
81.405086517333984
10
-49.744529724121094
20
79.705195426940918
10
-47.568936347961426
20
77.934355735778809
10
-46.178417205810547
20
76.579270362854004
10
-45.936574935913086
20
76.417160034179688
10
-45.66591739654541
20
76.309876441955566
10
-45.378689765930176
20
76.26225471496582
10
-45.087885856628418
20
76.276469230651855
10
-44.806671142578125
20
76.351861953735352
10
-44.547762870788574
20
76.48503303527832
10
-44.353494644165039
20
76.597847938537598
10
-44.158935546875
20
76.710176467895508
10
-43.964095115661621
20
76.822009086608887
10
-43.719305992126465
20
76.97965145111084
10
-43.513402938842773
20
77.185511589050293
10
-43.355693817138672
20
77.430262565612793
10
-43.253321647644043
20
77.702827453613281
10
-43.210921287536621
20
77.990884780883789
10
-43.230400085449219
20
78.281397819519043
10
-43.708662986755371
20
80.163087844848633
10
-44.128503799438477
20
82.714672088623047
10
-44.378213882446289
20
85.944852828979492
10
-43.536810874938965
20
86.374120712280273
10
-42.691254615783691
20
86.795158386230469
10
-41.841626167297363
20
87.207927703857422
10
-39.572656154632568
20
85.214090347290039
10
-37.631168365478516
20
83.189325332641602
10
-36.417713165283203
20
81.673622131347656
10
-36.197624206542969
20
81.483030319213867
10
-35.942199230194092
20
81.343297958374023
10
-35.663001537322998
20
81.260738372802734
10
-35.372657775878906
20
81.239109039306641
10
-35.084309577941895
20
81.279363632202148
10
-34.810998439788818
20
81.379709243774414
10
-34.604337215423584
20
81.467809677124023
10
-34.397454261779785
20
81.555366516113281
10
-34.190347194671631
20
81.64240837097168
10
-33.928039073944092
20
81.768779754638672
10
-33.698394298553467
20
81.947774887084961
10
-33.511807918548584
20
82.17127799987793
10
-33.376717567443848
20
82.429208755493164
10
-33.299233913421631
20
82.709875106811523
10
-33.282871246337891
20
83.000574111938477
10
-33.526272773742676
20
84.926776885986328
10
-33.629367351531982
20
87.510614395141602
10
-33.480229377746582
20
90.746994018554688
10
-32.592453956604004
20
91.069622039794922
10
-31.701564788818359
20
91.383552551269531
10
-30.807654857635498
20
91.688776016235352
10
-28.800902366638184
20
89.431228637695313
10
-27.122950553894043
20
87.183218002319336
10
-26.104953289031982
20
85.529890060424805
10
-25.909955501556396
20
85.313692092895508
10
-25.67363977432251
20
85.143623352050781
10
-25.406701564788818
20
85.027389526367188
10
-25.121219158172607
20
84.970235824584961
10
-24.830105304718018
20
84.974765777587891
10
-24.546535015106201
20
85.040760040283203
10
-24.330613613128662
20
85.102787017822266
10
-24.114539623260498
20
85.164260864257813
10
-23.898303508758545
20
85.225200653076172
10
-23.622457981109619
20
85.318365097045898
10
-23.372557163238525
20
85.46778678894043
10
-23.159916400909424
20
85.666685104370117
10
-22.994153499603271
20
85.906047821044922
10
-22.882769107818604
20
86.175060272216797
10
-22.830805778503418
20
86.461544036865234
10
-22.835652828216553
20
88.40306282043457
10
-22.620444297790527
20
90.979986190795898
10
-22.07472562789917
20
94.173507690429688
10
-21.154029369354248
20
94.384593963623047
10
-20.231316089630127
20
94.586668014526367
10
-19.306671619415283
20
94.779729843139648
10
-17.592554092407227
20
92.292680740356445
10
-16.203575134277344
20
89.855508804321289
10
-15.396469831466675
20
88.089609146118164
10
-15.22951602935791
20
87.851085662841797
10
-15.015891790390015
20
87.653264999389648
10
-14.76526141166687
20
87.505111694335938
10
-14.488964080810547
20
87.413311004638672
10
-14.199502468109131
20
87.382030487060547
10
-13.909971714019775
20
87.41267204284668
10
-13.688066005706787
20
87.447690963745117
10
-13.466070890426636
20
87.482156753540039
10
-13.243989944458008
20
87.516050338745117
10
-12.958781719207764
20
87.574625015258789
10
-12.692415714263916
20
87.692203521728516
10
-12.456943988800049
20
87.863454818725586
10
-12.263021469116211
20
88.080635070800781
10
-12.119424343109131
20
88.333921432495117
10
-12.032648324966431
20
88.611850738525391
10
-11.798869371414185
20
90.53924560546875
10
-11.268619298934937
20
93.070182800292969
10
-10.334587097167969
20
96.172447204589844
10
-9.3949311971664429
20
96.268787384033203
10
-8.4543782472610474
20
96.355934143066406
10
-7.5130194425582886
20
96.433906555175781
10
-6.1175233125686646
20
93.755064010620117
10
-5.038570761680603
20
91.165685653686523
10
-4.4545897841453552
20
89.313983917236328
10
-4.3182149529457092
20
89.05674934387207
10
-4.1305190324783325
20
88.83418083190918
10
-3.8999947905540466
20
88.656339645385742
10
-3.637072741985321
20
88.531293869018555
10
-3.3536490797996521
20
88.464670181274414
10
-3.0625471472740173
20
88.459501266479492
10
-2.8380188345909119
20
88.466987609863281
10
-2.6134723424911499
20
88.473911285400391
10
-2.388908863067627
20
88.480253219604492
10
-2.098664790391922
20
88.503332138061523
10
-1.8198691308498383
20
88.587284088134766
10
-1.5651372075080872
20
88.728303909301758
10
-1.3459955155849457
20
88.920011520385742
10
-1.1723603308200836
20
89.153728485107422
10
-1.0520882904529572
20
89.418888092041016
10
-0.58322727680206299
20
91.302947998046875
10
0.25402823463082314
20
93.749542236328125
10
1.5622113645076752
20
96.71351432800293
10
2.5065842270851135
20
96.693639755249023
10
3.4507182240486145
20
96.664552688598633
10
4.3945232033729553
20
96.626243591308594
10
5.4502439498901367
20
93.796224594116211
10
6.2028133869171143
20
91.093873977661133
10
6.5548163652420044
20
89.184446334838867
10
6.6585469245910645
20
88.91240119934082
10
6.8174690008163452
20
88.668451309204102
10
7.0243912935256958
20
88.463640213012695
10
7.2699528932571411
20
88.307218551635742
10
7.5430417060852051
20
88.206281661987305
10
7.8313028812408447
20
88.165378570556641
10
8.0550491809844971
20
88.145217895507813
10
8.2787436246871948
20
88.124494552612305
10
8.5023850202560425
20
88.103189468383789
10
8.7932652235031128
20
88.090429306030273
10
9.0802639722824097
20
88.139486312866211
10
9.3503952026367188
20
88.248128890991211
10
9.5914345979690552
20
88.411445617675781
10
9.7924751043319702
20
88.622055053710938
10
9.9444198608398438
20
88.870420455932617
10
10.64125657081604
20
90.682592391967773
10
11.77282452583313
20
93.007755279541016
10
13.43532919883728
20
95.788488388061523
10
14.370101690292358
20
95.65272331237793
10
15.303505659103394
20
95.507831573486328
10
16.235449314117432
20
95.353832244873047
10
16.93539023399353
20
92.415523529052734
10
17.350168228149414
20
89.641180038452148
10
17.46485710144043
20
87.702960968017578
10
17.534370422363281
20
87.420234680175781
10
17.662109136581421
20
87.158613204956055
10
17.842295169830322
20
86.929912567138672
10
18.066772222518921
20
86.744499206542969
10
18.325388431549072
20
86.61076545715332
10
18.60643744468689
20
86.534757614135742
10
18.826011419296265
20
86.487245559692383
10
19.045463800430298
20
86.439189910888672
10
19.264792203903198
20
86.390571594238281
10
19.551899433135986
20
86.342153549194336
10
19.842751026153564
20
86.355571746826172
10
20.124185085296631
20
86.430196762084961
10
20.383467674255371
20
86.562662124633789
10
20.608866214752197
20
86.746969223022461
10
20.790181159973145
20
86.974782943725586
10
21.70443058013916
20
88.687582015991211
10
23.113155364990234
20
90.856056213378906
10
25.104777812957764
20
93.411417007446289
10
26.015784740447998
20
93.161802291870117
10
26.924307346343994
20
92.903318405151367
10
27.830262184143066
20
92.635955810546875
10
28.163814544677734
20
89.633893966674805
10
28.234515190124512
20
86.829605102539063
10
28.110148906707764
20
84.891996383666992
10
28.144392967224121
20
84.602870941162109
10
28.239011764526367
20
84.327526092529297
10
28.38972806930542
20
84.07841682434082
10
28.589720726013184
20
83.86683464050293
10
28.829939365386963
20
83.702325820922852
10
29.0995192527771
20
83.592348098754883
10
29.311587810516357
20
83.518218994140625
10
29.523472785949707
20
83.44355583190918
10
29.735164642333984
20
83.368358612060547
10
30.014145374298096
20
83.285026550292969
10
30.304439067840576
20
83.262596130371094
10
30.592913627624512
20
83.302068710327148
10
30.866508483886719
20
83.401670455932617
10
31.112849712371826
20
83.556880950927734
10
31.320784091949463
20
83.760690689086914
10
32.438583374023438
20
85.348148345947266
10
34.103114604949951
20
87.327079772949219
10
36.393668651580811
20
89.618330001831055
10
37.267093658447266
20
89.258651733398438
10
38.136963844299316
20
88.890466690063477
10
39.003198146820068
20
88.513813018798828
10
38.965306282043457
20
85.49351692199707
10
38.690853118896484
20
82.701787948608398
10
38.329322338104248
20
80.794143676757813
10
38.327775001525879
20
80.502996444702148
10
38.387839794158936
20
80.218114852905273
10
38.506801128387451
20
79.952378273010254
10
38.679275512695313
20
79.717822074890137
10
38.897457122802734
20
79.525041580200195
10
39.151477813720703
20
79.382777214050293
10
39.352834224700928
20
79.28314208984375
10
39.553935527801514
20
79.183006286621094
10
39.75477933883667
20
79.08236026763916
10
40.02140998840332
20
78.965387344360352
10
40.30674934387207
20
78.90744686126709
10
40.597882270812988
20
78.911170959472656
10
40.881648063659668
20
78.976397514343262
10
41.145191192626953
20
79.100160598754883
10
41.376595497131348
20
79.276862144470215
10
42.681002616882324
20
80.714931488037109
10
44.576106071472168
20
82.47431755065918
10
47.130866050720215
20
84.466705322265625
10
47.95346736907959
20
84.00242805480957
10
48.771505355834961
20
83.530139923095703
10
49.584879875183105
20
83.04987907409668
10
49.176115989685059
20
80.057134628295898
10
48.560676574707031
20
77.32029914855957
10
47.967462539672852
20
75.47154426574707
10
47.930145263671875
20
75.182795524597168
10
47.954745292663574
20
74.892687797546387
10
48.040151596069336
20
74.614348411560059
10
48.182492256164551
20
74.360365867614746
10
48.375334739685059
20
74.142241477966309
10
48.609943389892578
20
73.969836235046387
10
48.797531127929688
20
73.846216201782227
10
48.984804153442383
20
73.722128868103027
10
49.171757698059082
20
73.597564697265625
10
49.421992301940918
20
73.448700904846191
10
49.698042869567871
20
73.356142044067383
10
49.987430572509766
20
73.324060440063477
10
50.277056694030762
20
73.353915214538574
10
50.553812980651855
20
73.444361686706543
10
50.805182456970215
20
73.59128475189209
10
52.276425361633301
20
74.858155250549316
10
54.373373985290527
20
76.371316909790039
10
57.153606414794922
20
78.034663200378418
10
57.912921905517578
20
77.472810745239258
10
58.666715621948242
20
76.903572082519531
10
59.414916038513184
20
76.327004432678223
10
58.641471862792969
20
73.407173156738281
10
57.69437313079834
20
70.766711235046387
10
56.878461837768555
20
69.00486946105957
10
56.805944442749023
20
68.722891807556152
10
56.794710159301758
20
68.431963920593262
10
56.845259666442871
20
68.145232200622559
10
56.955313682556152
20
67.875685691833496
10
57.119884490966797
20
67.635512351989746
10
57.331533432006836
20
67.43558406829834
10
57.502508163452148
20
67.289857864379883
10
57.67310619354248
20
67.143692970275879
10
57.843337059020996
20
66.99709415435791
10
58.073382377624512
20
66.818618774414063
10
58.335967063903809
20
66.69283390045166
10
58.619222640991211
20
66.62543773651123
10
58.910322189331055
20
66.619467735290527
10
59.196090698242188
20
66.675219535827637
10
59.463610649108887
20
66.79013729095459
10
61.079387664794922
20
67.866606712341309
10
63.346385955810547
20
69.110612869262695
10
66.309962272644043
20
70.419692993164063
10
66.994476318359375
20
69.768791198730469
10
67.672600746154785
20
69.111227989196777
10
68.344268798828125
20
68.447084426879883
10
67.217879295349121
20
65.644440650939941
10
65.953478813171387
20
63.140373229980469
10
64.927239418029785
20
61.492152214050293
10
64.82062816619873
20
61.221222877502441
10
64.773721694946289
20
60.933880805969238
10
64.788651466369629
20
60.643115043640137
10
64.864745140075684
20
60.362086296081543
10
64.998559951782227
20
60.103507041931152
10
65.184030532836914
20
59.879088401794434
10
65.335803031921387
20
59.713449478149414
10
65.487146377563477
20
59.547429084777832
10
65.638079643249512
20
59.381022453308105
10
65.844435691833496
20
59.175624847412109
10
66.089577674865723
20
59.018526077270508
10
66.362404823303223
20
58.916831016540527
10
66.650557518005371
20
58.875141143798828
10
66.941018104553223
20
58.895344734191895
10
67.220635414123535
20
58.976526260375977
10
68.956446647644043
20
59.846272468566895
10
71.359138488769531
20
60.80225944519043
10
74.461112022399902
20
61.737227439880371
10
75.060458183288574
20
61.007142066955566
10
75.652632713317871
20
60.271234512329102
10
76.237602233886719
20
59.529585838317871
10
74.775338172912598
20
56.8865966796875
10
73.212800025939941
20
54.556894302368164
10
71.991791725158691
20
53.047270774841309
10
71.852684020996094
20
52.791504859924316
10
71.770830154418945
20
52.512102127075195
10
71.749916076660156
20
52.22170352935791
10
71.790900230407715
20
51.933455467224121
10
71.891922950744629
20
51.660394668579102
10
72.04841136932373
20
51.414875984191895
10
72.17867374420166
20
51.231846809387207
10
72.308473587036133
20
51.048483848571777
10
72.437806129455566
20
50.86479663848877
10
72.617363929748535
20
50.635595321655273
10
72.841339111328125
20
50.449557304382324
10
73.099594116210938
20
50.315108299255371
10
73.380446434020996
20
50.238323211669922
10
73.671188354492188
20
50.222678184509277
10
73.958659172058105
20
50.26888370513916
10
75.788202285766602
20
50.918726921081543
10
78.290162086486816
20
51.572203636169434
10
81.483526229858398
20
52.118892669677734
10
81.988601684570313
20
51.320686340332031
10
82.485857009887695
20
50.517587661743164
10
82.975254058837891
20
49.709668159484863
10
81.199283599853516
20
47.266411781311035
10
79.362282752990723
20
45.146384239196777
10
77.965021133422852
20
43.798251152038574
10
77.795538902282715
20
43.561515808105469
10
77.679963111877441
20
43.294291496276855
10
77.623529434204102
20
43.008666038513184
10
77.628779411315918
20
42.71756649017334
10
77.695474624633789
20
42.434158325195313
10
77.820601463317871
20
42.171273231506348
10
77.927393913269043
20
41.973624229431152
10
78.033671379089355
20
41.775698661804199
10
78.139452934265137
20
41.577506065368652
10
78.289484977722168
20
41.327981948852539
10
78.488898277282715
20
41.115832328796387
10
78.728675842285156
20
40.950660705566406
10
78.997964859008789
20
40.839943885803223
10
79.284577369689941
20
40.788688659667969
10
79.57554817199707
20
40.799217224121094
10
81.471080780029297
20
41.219305992126465
10
84.03437614440918
20
41.560373306274414
10
87.270727157592773
20
41.71048641204834
10
87.673883438110352
20
40.856261253356934
10
88.068685531616211
20
39.998142719268799
10
88.455076217651367
20
39.136207103729248
10
86.392316818237305
20
36.929714679718018
10
84.308719635009766
20
35.05150318145752
10
82.756376266479492
20
33.885295391082764
10
82.559089660644531
20
33.671181201934814
10
82.411556243896484
20
33.420181274414063
10
82.320442199707031
20
33.143658638000488
10
82.289876937866211
20
32.854118347167969
10
82.321243286132813
20
32.564666271209717
10
82.413120269775391
20
32.28839635848999
10
82.494802474975586
20
32.079117298126221
10
82.575960159301758
20
31.869637966156006
10
82.656583786010742
20
31.659948825836182
10
82.774810791015625
20
31.393873691558838
10
82.946653366088867
20
31.158826351165771
10
83.164310455322266
20
30.965442657470703
10
83.417959213256836
20
30.822474956512451
10
83.696088790893555
20
30.736386775970459
10
83.98615837097168
20
30.711076259613037
10
85.918941497802734
20
30.895044803619385
10
88.504724502563477
20
30.918521881103516
10
91.734991073608398
20
30.669791698455811
10
92.030115127563477
20
29.772498607635498
10
92.316465377807617
20
28.872368335723877
10
92.594013214111328
20
27.969481945037842
10
90.275735855102539
20
26.033201217651367
10
87.977123260498047
20
24.425275325775146
10
86.293230056762695
20
23.45867395401001
10
86.071128845214844
20
23.270425796508789
10
85.89385986328125
20
23.039460182189941
10
85.769462585449219
20
22.776229381561279
10
85.703544616699219
20
22.492640018463135
10
85.69911003112793
20
22.201526165008545
10
85.756330490112305
20
21.91605806350708
10
85.811681747436523
20
21.698329448699951
10
85.866479873657227
20
21.480462551116943
10
85.920724868774414
20
21.262454986572266
10
86.005363464355469
20
20.983870029449463
10
86.147012710571289
20
20.72948694229126
10
86.339254379272461
20
20.510821342468262
10
86.573400497436523
20
20.337765216827393
10
86.838865280151367
20
20.218150615692139
10
87.123613357543945
20
20.157389640808105
10
89.064359664916992
20
20.10244607925415
10
91.633434295654297
20
19.807981252670288
10
94.808645248413086
20
19.164174795150757
10
94.991264343261719
20
18.237415552139282
10
95.164823532104492
20
17.308918237686157
10
95.329322814941406
20
16.378768682479858
10
92.790670394897461
20
14.742053747177124
10
90.311880111694336
20
13.428784608840942
10
88.521966934204102
20
12.676442861557007
10
88.278417587280273
20
12.51691460609436
10
88.074111938476563
20
12.309483289718628
10
87.918310165405273
20
12.063534259796143
10
87.81804084777832
20
11.790194511413574
10
87.777853012084961
20
11.501833200454712
10
87.799577713012695
20
11.211495399475098
10
87.827749252319336
20
10.988615751266479
10
87.855358123779297
20
10.765665769577026
10
87.882394790649414
20
10.542646646499634
10
87.932157516479492
20
10.255769491195679
10
88.041467666625977
20
9.9859094619750977
10
88.205394744873047
20
9.7452753782272339
10
88.416500091552734
20
9.5447570085525513
10
88.665237426757813
20
9.393426775932312
10
88.940372467041016
20
9.2981338500976563
10
90.859651565551758
20
9.0051126480102539
10
93.37306022644043
20
8.3971720933914185
10
96.445093154907227
20
7.3680496215820313
10
96.512441635131836
20
6.4258718490600586
10
96.570587158203125
20
5.4830819368362427
10
96.619529724121094
20
4.539768397808075
10
93.898992538452148
20
3.2274290919303894
10
91.277608871459961
20
2.2287288308143616
10
89.408798217773438
20
1.702047735452652
10
89.147491455078125
20
1.5736590325832367
10
88.919248580932617
20
1.3929061591625214
10
88.734397888183594
20
1.1679680645465851
10
88.601303100585938
20
0.90902179479598999
10
88.525991439819336
20
0.62778376042842865
10
88.511857986450195
20
0.33697888255119324
10
88.512430191040039
20
0.11232654564082623
10
88.512430191040039
20
-0.11232654564082623
10
88.511857986450195
20
-0.33697888255119324
10
88.525991439819336
20
-0.6277959793806076
10
88.601312637329102
20
-0.90904459357261658
10
88.734426498413086
20
-1.1679983139038086
10
88.919286727905273
20
-1.3929396867752075
10
89.147548675537109
20
-1.5736900269985199
10
89.40887451171875
20
-1.7020705342292786
10
91.277608871459961
20
-2.2287288308143616
10
93.697261810302734
20
-3.1409305334091187
10
96.619529724121094
20
-4.539768397808075
10
96.570587158203125
20
-5.4830819368362427
10
96.512441635131836
20
-6.4258718490600586
10
96.445093154907227
20
-7.3680496215820313
10
93.583898544311523
20
-8.3361190557479858
10
90.859651565551758
20
-9.0051126480102539
10
88.940296173095703
20
-9.2981475591659546
10
88.665189743041992
20
-9.3934518098831177
10
88.416461944580078
20
-9.5447856187820435
10
88.205366134643555
20
-9.7453022003173828
10
88.041458129882813
20
-9.985930323600769
10
87.932157516479492
20
-10.255781412124634
10
87.882394790649414
20
-10.542646646499634
10
87.855358123779297
20
-10.765665769577026
10
87.827749252319336
20
-10.988615751266479
10
87.799577713012695
20
-11.211495399475098
10
87.777853012084961
20
-11.501845121383667
10
87.818050384521484
20
-11.790218353271484
10
87.918319702148438
20
-12.063566446304321
10
88.074140548706055
20
-12.309521436691284
10
88.278465270996094
20
-12.516951560974121
10
88.52203369140625
20
-12.67647385597229
10
90.311880111694336
20
-13.428784608840942
10
92.601099014282227
20
-14.63141918182373
10
95.329322814941406
20
-16.378768682479858
10
95.164823532104492
20
-17.308918237686157
10
94.991264343261719
20
-18.237415552139282
10
94.808645248413086
20
-19.164174795150757
10
91.850166320800781
20
-19.773300886154175
10
89.064359664916992
20
-20.10244607925415
10
87.123537063598633
20
-20.157392024993896
10
86.838798522949219
20
-20.218167304992676
10
86.573362350463867
20
-20.337789058685303
10
86.339225769042969
20
-20.510845184326172
10
86.146993637084961
20
-20.729506015777588
10
86.005353927612305
20
-20.983879566192627
10
85.920724868774414
20
-21.262454986572266
10
85.866479873657227
20
-21.480462551116943
10
85.811681747436523
20
-21.698329448699951
10
85.756330490112305
20
-21.91605806350708
10
85.69911003112793
20
-22.2015380859375
10
85.703554153442383
20
-22.492663860321045
10
85.769481658935547
20
-22.776262760162354
10
85.893888473510742
20
-23.039500713348389
10
86.071176528930664
20
-23.270471096038818
10
86.293296813964844
20
-23.458714485168457
10
87.977123260498047
20
-24.425275325775146
10
90.101194381713867
20
-25.900111198425293
10
92.594013214111328
20
-27.969481945037842
10
92.316465377807617
20
-28.872368335723877
10
92.030115127563477
20
-29.772498607635498
10
91.734991073608398
20
-30.669791698455811
10
88.724088668823242
20
-30.91073751449585
10
85.918941497802734
20
-30.895044803619385
10
83.986082077026367
20
-30.711071491241455
10
83.69603157043457
20
-30.736396312713623
10
83.417901992797852
20
-30.822491645812988
10
83.164281845092773
20
-30.965464115142822
10
82.946634292602539
20
-31.1588454246521
10
82.774801254272461
20
-31.393885612487793
10
82.656583786010742
20
-31.659948825836182
10
82.575960159301758
20
-31.869637966156006
10
82.494802474975586
20
-32.079117298126221
10
82.413120269775391
20
-32.28839635848999
10
82.321243286132813
20
-32.564678192138672
10
82.289876937866211
20
-32.85414457321167
10
82.320451736450195
20
-33.143696784973145
10
82.411575317382813
20
-33.420226573944092
10
82.559127807617188
20
-33.671231269836426
10
82.756433486938477
20
-33.885345458984375
10
84.308719635009766
20
-35.05150318145752
10
86.235456466674805
20
-36.776185035705566
10
88.455076217651367
20
-39.136207103729248
10
88.068685531616211
20
-39.998142719268799
10
87.673883438110352
20
-40.856261253356934
10
87.270727157592773
20
-41.71048641204834
10
84.253034591674805
20
-41.579604148864746
10
81.471080780029297
20
-41.219305992126465
10
79.575471878051758
20
-40.799202919006348
10
79.284515380859375
20
-40.788688659667969
10
78.997917175292969
20
-40.839953422546387
10
78.728647232055664
20
-40.950675010681152
10
78.488879203796387
20
-41.115846633911133
10
78.289475440979004
20
-41.327986717224121
10
78.139452934265137
20
-41.577506065368652
10
78.033671379089355
20
-41.775698661804199
10
77.927393913269043
20
-41.973624229431152
10
77.820601463317871
20
-42.171273231506348
10
77.695474624633789
20
-42.434172630310059
10
77.628769874572754
20
-42.71759033203125
10
77.623529434204102
20
-43.00870418548584
10
77.679986953735352
20
-43.294339179992676
10
77.795572280883789
20
-43.561568260192871
10
77.965073585510254
20
-43.798308372497559
10
79.362282752990723
20
-45.146384239196777
10
81.062469482421875
20
-47.094764709472656
10
82.975254058837891
20
-49.709668159484863
10
82.485857009887695
20
-50.517587661743164
10
81.988601684570313
20
-51.320686340332031
10
81.483526229858398
20
-52.118892669677734
10
78.504786491394043
20
-51.618161201477051
10
75.788202285766602
20
-50.918726921081543
10
73.958587646484375
20
-50.26885986328125
10
73.671126365661621
20
-50.222673416137695
10
73.380403518676758
20
-50.238327980041504
10
73.099565505981445
20
-50.315122604370117
10
72.841315269470215
20
-50.449576377868652
10
72.617354393005371
20
-50.635604858398438
10
72.437806129455566
20
-50.86479663848877
10
72.308473587036133
20
-51.048483848571777
10
72.17867374420166
20
-51.231846809387207
10
72.04841136932373
20
-51.414875984191895
10
71.891913414001465
20
-51.660404205322266
10
71.790895462036133
20
-51.933479309082031
10
71.749916076660156
20
-52.221741676330566
10
71.770844459533691
20
-52.512149810791016
10
71.852717399597168
20
-52.791562080383301
10
71.991839408874512
20
-53.047332763671875
10
73.212800025939941
20
-54.556894302368164
10
74.66066837310791
20
-56.699442863464355
10
76.237602233886719
20
-59.529585838317871
10
75.652632713317871
20
-60.271234512329102
10
75.060458183288574
20
-61.007142066955566
10
74.461112022399902
20
-61.737227439880371
10
71.56649112701416
20
-60.874242782592773
10
68.956446647644043
20
-59.846272468566895
10
67.220568656921387
20
-58.976492881774902
10
66.940956115722656
20
-58.895330429077148
10
66.650514602661133
20
-58.875136375427246
10
66.362366676330566
20
-58.916835784912109
10
66.089553833007813
20
-59.018535614013672
10
65.844430923461914
20
-59.175634384155273
10
65.638079643249512
20
-59.381022453308105
10
65.487146377563477
20
-59.547429084777832
10
65.335803031921387
20
-59.713449478149414
10
65.184030532836914
20
-59.879088401794434
10
64.998550415039063
20
-60.103521347045898
10
64.864740371704102
20
-60.362110137939453
10
64.788651466369629
20
-60.643153190612793
10
64.773726463317871
20
-60.933928489685059
10
64.820642471313477
20
-61.221284866333008
10
64.927277565002441
20
-61.492214202880859
10
65.953478813171387
20
-63.140373229980469
10
67.1270751953125
20
-65.444612503051758
10
68.344268798828125
20
-68.447084426879883
10
67.672600746154785
20
-69.111227989196777
10
66.994476318359375
20
-69.768791198730469
10
66.309962272644043
20
-70.419692993164063
10
63.54332447052002
20
-69.20753002166748
10
61.079387664794922
20
-67.866606712341309
10
59.46354866027832
20
-66.790099143981934
10
59.196033477783203
20
-66.675195693969727
10
58.910269737243652
20
-66.619462966918945
10
58.619184494018555
20
-66.62543773651123
10
58.33594799041748
20
-66.692843437194824
10
58.073368072509766
20
-66.818618774414063
10
57.843337059020996
20
-66.99709415435791
10
57.67310619354248
20
-67.143692970275879
10
57.502508163452148
20
-67.289857864379883
10
57.331533432006836
20
-67.43558406829834
10
57.119879722595215
20
-67.635531425476074
10
56.955304145812988
20
-67.875709533691406
10
56.845254898071289
20
-68.145270347595215
10
56.794710159301758
20
-68.432016372680664
10
56.80595874786377
20
-68.722953796386719
10
56.878490447998047
20
-69.004936218261719
10
57.69437313079834
20
-70.766711235046387
10
58.575911521911621
20
-73.19770336151123
10
59.414916038513184
20
-76.327004432678223
10
58.666715621948242
20
-76.903572082519531
10
57.912921905517578
20
-77.472810745239258
10
57.153606414794922
20
-78.034663200378418
10
54.556903839111328
20
-76.49169921875
10
52.276425361633301
20
-74.858155250549316
10
50.80512523651123
20
-73.591241836547852
10
50.553755760192871
20
-73.444328308105469
10
50.277009010314941
20
-73.35390567779541
10
49.987392425537109
20
-73.324060440063477
10
49.698019027709961
20
-73.356142044067383
10
49.42197322845459
20
-73.448710441589355
10
49.171757698059082
20
-73.597564697265625
10
48.984804153442383
20
-73.722128868103027
10
48.797531127929688
20
-73.846216201782227
10
48.609943389892578
20
-73.969836235046387
10
48.375325202941895
20
-74.142251014709473
10
48.182482719421387
20
-74.360389709472656
10
48.04013729095459
20
-74.614381790161133
10
47.954740524291992
20
-74.892740249633789
10
47.930150032043457
20
-75.182862281799316
10
47.96748161315918
20
-75.471620559692383
10
48.560676574707031
20
-77.32029914855957
10
49.136795997619629
20
-79.841194152832031
10
49.584879875183105
20
-83.04987907409668
10
48.771505355834961
20
-83.530139923095703
10
47.95346736907959
20
-84.00242805480957
10
47.130866050720215
20
-84.466705322265625
10
44.743456840515137
20
-82.616338729858398
10
42.681002616882324
20
-80.714931488037109
10
41.376543045043945
20
-79.276809692382813
10
41.145138740539551
20
-79.100122451782227
10
40.881595611572266
20
-78.976373672485352
10
40.597848892211914
20
-78.911166191101074
10
40.306720733642578
20
-78.90744686126709
10
40.021395683288574
20
-78.965387344360352
10
39.75477933883667
20
-79.08236026763916
10
39.553935527801514
20
-79.183006286621094
10
39.352834224700928
20
-79.28314208984375
10
39.151477813720703
20
-79.382777214050293
10
38.897449970245361
20
-79.525046348571777
10
38.679261207580566
20
-79.717836380004883
10
38.506782054901123
20
-79.95241641998291
10
38.387825489044189
20
-80.218162536621094
10
38.327770233154297
20
-80.503072738647461
10
38.329334259033203
20
-80.794219970703125
10
38.690853118896484
20
-82.701787948608398
10
38.952815532684326
20
-85.274381637573242
10
39.003198146820068
20
-88.513813018798828
10
38.136963844299316
20
-88.890466690063477
10
37.267093658447266
20
-89.258651733398438
10
36.393668651580811
20
-89.618330001831055
10
34.251744747161865
20
-87.488594055175781
10
32.438583374023438
20
-85.348148345947266
10
31.320738792419434
20
-83.760623931884766
10
31.112799644470215
20
-83.556842803955078
10
30.866463184356689
20
-83.401641845703125
10
30.592877864837646
20
-83.302059173583984
10
30.304415225982666
20
-83.26258659362793
10
30.014133453369141
20
-83.285026550292969
10
29.735164642333984
20
-83.368358612060547
10
29.523472785949707
20
-83.44355583190918
10
29.311587810516357
20
-83.518218994140625
10
29.0995192527771
20
-83.592348098754883
10
28.829929828643799
20
-83.702335357666016
10
28.589701652526855
20
-83.866844177246094
10
28.389706611633301
20
-84.078445434570313
10
28.238992691040039
20
-84.327573776245117
10
28.144383430480957
20
-84.602928161621094
10
28.110153675079346
20
-84.892072677612305
10
28.234515190124512
20
-86.829605102539063
10
28.178350925445557
20
-89.414892196655273
10
27.830262184143066
20
-92.635955810546875
10
26.924307346343994
20
-92.903318405151367
10
26.015784740447998
20
-93.161802291870117
10
25.104777812957764
20
-93.411417007446289
10
23.240809440612793
20
-91.034612655639648
10
21.70443058013916
20
-88.687582015991211
10
20.790143013000488
20
-86.974706649780273
10
20.608823299407959
20
-86.746921539306641
10
20.383427143096924
20
-86.562633514404297
10
20.124149322509766
20
-86.430177688598633
10
19.842725992202759
20
-86.355562210083008
10
19.551887512207031
20
-86.342153549194336
10
19.264792203903198
20
-86.390571594238281
10
19.045463800430298
20
-86.439189910888672
10
18.826011419296265
20
-86.487245559692383
10
18.60643744468689
20
-86.534757614135742
10
18.325376510620117
20
-86.610774993896484
10
18.066753149032593
20
-86.744518280029297
10
17.842270135879517
20
-86.929941177368164
10
17.662086486816406
20
-87.158651351928711
10
17.534353733062744
20
-87.42030143737793
10
17.464851140975952
20
-87.703046798706055
10
17.350168228149414
20
-89.641180038452148
10
16.976730823516846
20
-92.19996452331543
10
16.235449314117432
20
-95.353832244873047
10
15.303505659103394
20
-95.507831573486328
10
14.370101690292358
20
-95.65272331237793
10
13.43532919883728
20
-95.788488388061523
10
11.877567768096924
20
-93.20063591003418
10
10.64125657081604
20
-90.682592391967773
10
9.9443906545639038
20
-88.870353698730469
10
9.7924387454986572
20
-88.622007369995117
10
9.5913976430892944
20
-88.411407470703125
10
9.35036301612854
20
-88.248100280761719
10
9.080241322517395
20
-88.139476776123047
10
8.7932533025741577
20
-88.090429306030273
10
8.5023850202560425
20
-88.103189468383789
10
8.2787436246871948
20
-88.124494552612305
10
8.0550491809844971
20
-88.145217895507813
10
7.8313028812408447
20
-88.165378570556641
10
7.54302978515625
20
-88.206281661987305
10
7.2699308395385742
20
-88.307228088378906
10
7.0243632793426514
20
-88.463659286499023
10
6.8174386024475098
20
-88.668498992919922
10
6.6585206985473633
20
-88.912458419799805
10
6.5548008680343628
20
-89.18452262878418
10
6.2028133869171143
20
-91.093873977661133
10
5.5177605152130127
20
-93.587369918823242
10
4.3945232033729553
20
-96.626243591308594
10
3.4507182240486145
20
-96.664552688598633
10
2.5065842270851135
20
-96.693639755249023
10
1.5622113645076752
20
-96.71351432800293
10
0.33427368849515915
20
-93.953847885131836
10
-0.58322727680206299
20
-91.302947998046875
10
-1.0521087795495987
20
-89.418811798095703
10
-1.1723896116018295
20
-89.153671264648438
10
-1.3460277020931244
20
-88.919973373413086
10
-1.5651668608188629
20
-88.72828483581543
10
-1.819891631603241
20
-88.587274551391602
10
-2.098677009344101
20
-88.503332138061523
10
-2.388908863067627
20
-88.480253219604492
10
-2.6134723424911499
20
-88.473911285400391
10
-2.8380188345909119
20
-88.466987609863281
10
-3.0625471472740173
20
-88.459501266479492
10
-3.3536612987518311
20
-88.464670181274414
10
-3.6370959877967834
20
-88.531293869018555
10
-3.9000257849693298
20
-88.656368255615234
10
-4.1305539011955261
20
-88.834218978881836
10
-4.3182474374771118
20
-89.056806564331055
10
-4.4546148180961609
20
-89.314060211181641
10
-5.038570761680603
20
-91.165685653686523
10
-6.0248535871505737
20
-93.556089401245117
10
-7.5130194425582886
20
-96.433906555175781
10
-8.4543782472610474
20
-96.355934143066406
10
-9.3949311971664429
20
-96.268787384033203
10
-10.334587097167969
20
-96.172447204589844
10
-11.214087009429932
20
-93.282804489135742
10
-11.798869371414185
20
-90.53924560546875
10
-12.032660245895386
20
-88.611774444580078
10
-12.11944580078125
20
-88.333854675292969
10
-12.263048887252808
20
-88.080587387084961
10
-12.45697021484375
20
-87.86341667175293
10
-12.69243597984314
20
-87.692184448242188
10
-12.958793640136719
20
-87.574625015258789
10
-13.243989944458008
20
-87.516050338745117
10
-13.466070890426636
20
-87.482156753540039
10
-13.688066005706787
20
-87.447690963745117
10
-13.909971714019775
20
-87.41267204284668
10
-14.199514389038086
20
-87.382030487060547
10
-14.488987922668457
20
-87.413320541381836
10
-14.765294790267944
20
-87.505130767822266
10
-15.015931129455566
20
-87.653303146362305
10
-15.229556560516357
20
-87.851133346557617
10
-15.396503210067749
20
-88.089675903320313
10
-16.203575134277344
20
-89.855508804321289
10
-17.476135492324829
20
-92.106599807739258
10
-19.306671619415283
20
-94.779729843139648
10
-20.231316089630127
20
-94.586668014526367
10
-21.154029369354248
20
-94.384593963623047
10
-22.07472562789917
20
-94.173507690429688
10
-22.592453956604004
20
-91.197681427001953
10
-22.835652828216553
20
-88.40306282043457
10
-22.830808162689209
20
-86.461467742919922
10
-22.88278341293335
20
-86.174993515014648
10
-22.9941725730896
20
-85.906000137329102
10
-23.159940242767334
20
-85.666646957397461
10
-23.372576236724854
20
-85.467767715454102
10
-23.622467517852783
20
-85.318365097045898
10
-23.898303508758545
20
-85.225200653076172
10
-24.114539623260498
20
-85.164260864257813
10
-24.330613613128662
20
-85.102787017822266
10
-24.546535015106201
20
-85.040760040283203
10
-24.830117225646973
20
-84.974765777587891
10
-25.121243000030518
20
-84.970235824584961
10
-25.406737327575684
20
-85.027399063110352
10
-25.673682689666748
20
-85.143651962280273
10
-25.910000801086426
20
-85.313739776611328
10
-26.104996204376221
20
-85.529956817626953
10
-27.122950553894043
20
-87.183218002319336
10
-28.662497997283936
20
-89.2608642578125
10
-30.807654857635498
20
-91.688776016235352
10
-31.701564788818359
20
-91.383552551269531
10
-32.592453956604004
20
-91.069622039794922
10
-33.480229377746582
20
-90.746994018554688
10
-33.628342151641846
20
-87.7301025390625
10
-33.526272773742676
20
-84.926776885986328
10
-33.282864093780518
20
-83.000497817993164
10
-33.299241065979004
20
-82.709808349609375
10
-33.376731872558594
20
-82.429161071777344
10
-33.511826992034912
20
-82.171249389648438
10
-33.698413372039795
20
-81.947755813598633
10
-33.928050994873047
20
-81.768770217895508
10
-34.190347194671631
20
-81.64240837097168
10
-34.397454261779785
20
-81.555366516113281
10
-34.604337215423584
20
-81.467809677124023
10
-34.810998439788818
20
-81.379709243774414
10
-35.08432149887085
20
-81.279363632202148
10
-35.372684001922607
20
-81.239109039306641
10
-35.663039684295654
20
-81.260747909545898
10
-35.942246913909912
20
-81.343307495117188
10
-36.19767427444458
20
-81.483068466186523
10
-36.417763233184814
20
-81.673688888549805
10
-37.631168365478516
20
-83.189325332641602
10
-39.41436767578125
20
-85.062026977539063
10
-41.841626167297363
20
-87.207927703857422
10
-42.691254615783691
20
-86.795158386230469
10
-43.536810874938965
20
-86.374120712280273
10
-44.378213882446289
20
-85.944852828979492
10
-44.154458045959473
20
-82.932624816894531
10
-43.708662986755371
20
-80.163087844848633
10
-43.230385780334473
20
-78.28132152557373
10
-43.210916519165039
20
-77.990822792053223
10
-43.253331184387207
20
-77.702784538269043
10
-43.355708122253418
20
-77.430224418640137
10
-43.513412475585938
20
-77.185487747192383
10
-43.719315528869629
20
-76.979646682739258
10
-43.964095115661621
20
-76.822009086608887
10
-44.158935546875
20
-76.710176467895508
10
-44.353494644165039
20
-76.597847938537598
10
-44.547762870788574
20
-76.48503303527832
10
-44.806685447692871
20
-76.351861953735352
10
-45.087909698486328
20
-76.276469230651855
10
-45.37872314453125
20
-76.262259483337402
10
-45.66596508026123
20
-76.309890747070313
10
-45.93663215637207
20
-76.417193412780762
10
-46.178474426269531
20
-76.579322814941406
10
-47.568936347961426
20
-77.934355735778809
10
-49.568753242492676
20
-79.57374095916748
10
-52.241320610046387
20
-81.405086517333984
10
-53.033785820007324
20
-80.891046524047852
10
-53.821191787719727
20
-80.369291305541992
10
-54.603462219238281
20
-79.839873313903809
10
-54.011240005493164
20
-76.877970695495605
10
-53.228483200073242
20
-74.184212684631348
10
-52.522578239440918
20
-72.375473976135254
10
-52.467560768127441
20
-72.089576721191406
10
-52.474255561828613
20
-71.798501014709473
10
-52.542362213134766
20
-71.515436172485352
10
-52.668795585632324
20
-71.253175735473633
10
-52.847843170166016
20
-71.02358341217041
10
-53.071398735046387
20
-70.837068557739258
10
-53.251018524169922
20
-70.702133178710938
10
-53.430294990539551
20
-70.566749572753906
10
-53.609228134155273
20
-70.430917739868164
10
-53.849821090698242
20
-70.266928672790527
10
-54.119653701782227
20
-70.157556533813477
10
-54.406518936157227
20
-70.107722282409668
10
-54.697432518005371
20
-70.119690895080566
10
-54.979228973388672
20
-70.19291877746582
10
-55.239167213439941
20
-70.3240966796875
10
-56.785612106323242
20
-71.497993469238281
10
-58.971729278564453
20
-72.879190444946289
10
-61.849093437194824
20
-74.368224143981934
10
-62.572379112243652
20
-73.760695457458496
10
-63.289694786071777
20
-73.146142959594727
10
-64.000983238220215
20
-72.524600028991699
10
-63.049263954162598
20
-69.657931327819824
10
-61.941409111022949
20
-67.080774307250977
10
-61.018581390380859
20
-65.372500419616699
10
-60.928845405578613
20
-65.09552001953125
10
-60.899720191955566
20
-64.805841445922852
10
-60.932526588439941
20
-64.516539573669434
10
-61.025776863098145
20
-64.240732192993164
10
-61.175251007080078
20
-63.990883827209473
10
-61.374187469482422
20
-63.778300285339355
10
-61.535868644714355
20
-63.622322082519531
10
-61.697149276733398
20
-63.465933799743652
10
-61.858034133911133
20
-63.309135437011719
10
-62.07664966583252
20
-63.11683177947998
10
-62.330994606018066
20
-62.975120544433594
10
-62.60955810546875
20
-62.890410423278809
10
-62.899737358093262
20
-62.866544723510742
10
-63.18840503692627
20
-62.904586791992188
10
-63.462491035461426
20
-63.002829551696777
10
-65.141472816467285
20
-63.977785110473633
10
-67.48075008392334
20
-65.079874992370605
10
-70.519289970397949
20
-66.204028129577637
10
-71.16243839263916
20
-65.512223243713379
10
-71.798796653747559
20
-64.814162254333496
10
-72.42830753326416
20
-64.109930992126465
10
-71.131525039672852
20
-61.381940841674805
10
-69.715361595153809
20
-58.960461616516113
10
-68.589606285095215
20
-57.378535270690918
10
-68.46651554107666
20
-57.114691734313965
10
-68.402009010314941
20
-56.830778121948242
10
-68.399019241333008
20
-56.539645195007324
10
-68.45766544342041
20
-56.254467964172363
10
-68.575301170349121
20
-55.988144874572754
10
-68.746614456176758
20
-55.752725601196289
10
-68.887896537780762
20
-55.578060150146484
10
-69.028735160827637
20
-55.403037071228027
10
-69.169130325317383
20
-55.227656364440918
10
-69.362459182739258
20
-55.009946823120117
10
-69.597468376159668
20
-54.838051795959473
10
-69.863510131835938
20
-54.719753265380859
10
-70.148553848266602
20
-54.660406112670898
10
-70.439705848693848
20
-54.662690162658691
10
-70.723786354064941
20
-54.726500511169434
10
-72.509851455688477
20
-55.48774242401123
10
-74.966835975646973
20
-56.294002532958984
10
-78.12049388885498
20
-57.036242485046387
10
-78.673744201660156
20
-56.270642280578613
10
-79.219498634338379
20
-55.499677658081055
0
ENDSEC
0
SECTION
2
OBJECTS
0
DICTIONARY
5
C
100
AcDbDictionary
3
ACAD_GROUP
350
D
3
ACAD_MLINESTYLE
350
17
0
DICTIONARY
5
D
100
AcDbDictionary
0
DICTIONARY
5
1A
330
C
100
AcDbDictionary
0
DICTIONARY
5
17
100
AcDbDictionary
0
ENDSEC
0
EOF
